<svg width="12" height="12" viewBox="0 0 12 12" fill="none" xmlns="http://www.w3.org/2000/svg">
<path d="M6.98858 3.67059C5.7533 3.0682 4.30473 3.42448 3.46793 4.4394L4.7618 5.73325C4.90947 5.88091 4.90947 6.11765 4.7618 6.26297C4.68914 6.33564 4.59304 6.37314 4.49693 6.37314C4.40083 6.37314 4.30473 6.33564 4.23206 6.26297L3.05539 5.08632L0.0527541 11.2438C-0.0152212 11.3845 -0.0199092 11.5556 0.0527541 11.7056C0.179329 11.9657 0.495766 12.0736 0.755947 11.947L3.8875 10.4188L2.73426 9.26554C2.58659 9.12022 2.58659 8.88114 2.73426 8.73582C2.88193 8.59049 3.11867 8.59049 3.264 8.73582L4.60007 10.0719L6.99092 8.90458C7.55348 8.63034 8.03399 8.17093 8.32933 7.5662C9.03487 6.11999 8.43481 4.37611 6.98858 3.67059ZM9.14738 2.85256C9.60446 1.89858 9.36772 0.771152 8.43716 0C7.25814 0.977418 7.20657 2.51972 8.25198 3.56043L8.4395 3.74794C9.48023 4.79333 11.0249 4.74176 12 3.56277C11.2288 2.63223 10.1014 2.39549 9.14738 2.85256Z" fill="currentColor"/>
</svg>