<svg width="328" height="576" viewBox="0 0 328 576" fill="none" xmlns="http://www.w3.org/2000/svg">
<g filter="url(#filter0_d_1_3801)">
<rect width="320" height="568" transform="translate(4)" fill="url(#paint0_linear_1_3801)"/>
<g filter="url(#filter1_d_1_3801)">
<rect x="63" y="40" width="200" height="50" rx="25" stroke="#F6F8ED" stroke-width="2"/>
<g filter="url(#filter2_d_1_3801)">
<path d="M115.706 53.4449C115.527 53.1123 115.272 52.8351 114.964 52.6404C114.656 52.4456 114.307 52.34 113.95 52.3339H100.73L100.131 49.8228C100.071 49.5805 99.9356 49.3672 99.7481 49.2179C99.5606 49.0686 99.3316 48.9921 99.0984 49.0007H97.0328C96.7589 49.0007 96.4962 49.1177 96.3025 49.3261C96.1088 49.5344 96 49.817 96 50.1117C96 50.4064 96.1088 50.689 96.3025 50.8974C96.4962 51.1057 96.7589 51.2228 97.0328 51.2228H98.3135L101.164 62.6224C101.225 62.8648 101.36 63.078 101.547 63.2273C101.735 63.3766 101.964 63.4531 102.197 63.4446H111.492C111.683 63.4439 111.87 63.3865 112.032 63.2786C112.194 63.1708 112.325 63.0167 112.411 62.8335L115.799 55.5449C115.946 55.2138 116.014 54.8487 115.998 54.4823C115.981 54.1159 115.881 53.7595 115.706 53.4449ZM110.852 61.2224H102.982L101.298 54.556H113.95L110.852 61.2224Z" fill="#F6F8ED"/>
</g>
<g filter="url(#filter3_d_1_3801)">
<path d="M101.68 69C102.536 69 103.229 68.2539 103.229 67.3334C103.229 66.413 102.536 65.6668 101.68 65.6668C100.825 65.6668 100.131 66.413 100.131 67.3334C100.131 68.2539 100.825 69 101.68 69Z" fill="#F6F8ED"/>
</g>
<g filter="url(#filter4_d_1_3801)">
<path d="M112.008 69C112.864 69 113.557 68.2539 113.557 67.3334C113.557 66.413 112.864 65.6668 112.008 65.6668C111.153 65.6668 110.459 66.413 110.459 67.3334C110.459 68.2539 111.153 69 112.008 69Z" fill="#F6F8ED"/>
</g>
<g filter="url(#filter5_d_1_3801)">
<path d="M90.1437 76.27C90.3237 76.0033 90.5704 75.7867 90.8837 75.62C91.2037 75.4533 91.567 75.37 91.9737 75.37C92.447 75.37 92.8737 75.4867 93.2537 75.72C93.6404 75.9533 93.9437 76.2867 94.1637 76.72C94.3904 77.1467 94.5037 77.6433 94.5037 78.21C94.5037 78.7767 94.3904 79.28 94.1637 79.72C93.9437 80.1533 93.6404 80.49 93.2537 80.73C92.8737 80.97 92.447 81.09 91.9737 81.09C91.5604 81.09 91.197 81.01 90.8837 80.85C90.577 80.6833 90.3304 80.47 90.1437 80.21V81H88.7437V73.6H90.1437V76.27ZM93.0737 78.21C93.0737 77.8767 93.0037 77.59 92.8637 77.35C92.7304 77.1033 92.5504 76.9167 92.3237 76.79C92.1037 76.6633 91.8637 76.6 91.6037 76.6C91.3504 76.6 91.1104 76.6667 90.8837 76.8C90.6637 76.9267 90.4837 77.1133 90.3437 77.36C90.2104 77.6067 90.1437 77.8967 90.1437 78.23C90.1437 78.5633 90.2104 78.8533 90.3437 79.1C90.4837 79.3467 90.6637 79.5367 90.8837 79.67C91.1104 79.7967 91.3504 79.86 91.6037 79.86C91.8637 79.86 92.1037 79.7933 92.3237 79.66C92.5504 79.5267 92.7304 79.3367 92.8637 79.09C93.0037 78.8433 93.0737 78.55 93.0737 78.21ZM95.1611 78.21C95.1611 77.65 95.2711 77.1533 95.4911 76.72C95.7177 76.2867 96.0211 75.9533 96.4011 75.72C96.7877 75.4867 97.2177 75.37 97.6911 75.37C98.1044 75.37 98.4644 75.4533 98.7711 75.62C99.0844 75.7867 99.3344 75.9967 99.5211 76.25V75.46H100.931V81H99.5211V80.19C99.3411 80.45 99.0911 80.6667 98.7711 80.84C98.4577 81.0067 98.0944 81.09 97.6811 81.09C97.2144 81.09 96.7877 80.97 96.4011 80.73C96.0211 80.49 95.7177 80.1533 95.4911 79.72C95.2711 79.28 95.1611 78.7767 95.1611 78.21ZM99.5211 78.23C99.5211 77.89 99.4544 77.6 99.3211 77.36C99.1877 77.1133 99.0077 76.9267 98.7811 76.8C98.5544 76.6667 98.3111 76.6 98.0511 76.6C97.7911 76.6 97.5511 76.6633 97.3311 76.79C97.1111 76.9167 96.9311 77.1033 96.7911 77.35C96.6577 77.59 96.5911 77.8767 96.5911 78.21C96.5911 78.5433 96.6577 78.8367 96.7911 79.09C96.9311 79.3367 97.1111 79.5267 97.3311 79.66C97.5577 79.7933 97.7977 79.86 98.0511 79.86C98.3111 79.86 98.5544 79.7967 98.7811 79.67C99.0077 79.5367 99.1877 79.35 99.3211 79.11C99.4544 78.8633 99.5211 78.57 99.5211 78.23ZM104.418 81.09C103.965 81.09 103.558 81.01 103.198 80.85C102.838 80.6833 102.552 80.46 102.338 80.18C102.132 79.9 102.018 79.59 101.998 79.25H103.408C103.435 79.4633 103.538 79.64 103.718 79.78C103.905 79.92 104.135 79.99 104.408 79.99C104.675 79.99 104.882 79.9367 105.028 79.83C105.182 79.7233 105.258 79.5867 105.258 79.42C105.258 79.24 105.165 79.1067 104.978 79.02C104.798 78.9267 104.508 78.8267 104.108 78.72C103.695 78.62 103.355 78.5167 103.088 78.41C102.828 78.3033 102.602 78.14 102.408 77.92C102.222 77.7 102.128 77.4033 102.128 77.03C102.128 76.7233 102.215 76.4433 102.388 76.19C102.568 75.9367 102.822 75.7367 103.148 75.59C103.482 75.4433 103.872 75.37 104.318 75.37C104.978 75.37 105.505 75.5367 105.898 75.87C106.292 76.1967 106.508 76.64 106.548 77.2H105.208C105.188 76.98 105.095 76.8067 104.928 76.68C104.768 76.5467 104.552 76.48 104.278 76.48C104.025 76.48 103.828 76.5267 103.688 76.62C103.555 76.7133 103.488 76.8433 103.488 77.01C103.488 77.1967 103.582 77.34 103.768 77.44C103.955 77.5333 104.245 77.63 104.638 77.73C105.038 77.83 105.368 77.9333 105.628 78.04C105.888 78.1467 106.112 78.3133 106.298 78.54C106.492 78.76 106.592 79.0533 106.598 79.42C106.598 79.74 106.508 80.0267 106.328 80.28C106.155 80.5333 105.902 80.7333 105.568 80.88C105.242 81.02 104.858 81.09 104.418 81.09ZM111.028 81L109.148 78.64V81H107.748V73.6H109.148V77.81L111.008 75.46H112.828L110.388 78.24L112.848 81H111.028ZM118.737 78.11C118.737 78.31 118.724 78.49 118.697 78.65H114.647C114.681 79.05 114.821 79.3633 115.067 79.59C115.314 79.8167 115.617 79.93 115.977 79.93C116.497 79.93 116.867 79.7067 117.087 79.26H118.597C118.437 79.7933 118.131 80.2333 117.677 80.58C117.224 80.92 116.667 81.09 116.007 81.09C115.474 81.09 114.994 80.9733 114.567 80.74C114.147 80.5 113.817 80.1633 113.577 79.73C113.344 79.2967 113.227 78.7967 113.227 78.23C113.227 77.6567 113.344 77.1533 113.577 76.72C113.811 76.2867 114.137 75.9533 114.557 75.72C114.977 75.4867 115.461 75.37 116.007 75.37C116.534 75.37 117.004 75.4833 117.417 75.71C117.837 75.9367 118.161 76.26 118.387 76.68C118.621 77.0933 118.737 77.57 118.737 78.11ZM117.287 77.71C117.281 77.35 117.151 77.0633 116.897 76.85C116.644 76.63 116.334 76.52 115.967 76.52C115.621 76.52 115.327 76.6267 115.087 76.84C114.854 77.0467 114.711 77.3367 114.657 77.71H117.287ZM121.389 76.61V79.29C121.389 79.4767 121.433 79.6133 121.519 79.7C121.613 79.78 121.766 79.82 121.979 79.82H122.629V81H121.749C120.569 81 119.979 80.4267 119.979 79.28V76.61H119.319V75.46H119.979V74.09H121.389V75.46H122.629V76.61H121.389Z" fill="#F6F8ED"/>
</g>
<g filter="url(#filter6_d_1_3801)">
<path d="M206.899 76.26C207.079 76.0067 207.325 75.7967 207.639 75.63C207.959 75.4567 208.322 75.37 208.729 75.37C209.202 75.37 209.629 75.4867 210.009 75.72C210.395 75.9533 210.699 76.2867 210.919 76.72C211.145 77.1467 211.259 77.6433 211.259 78.21C211.259 78.7767 211.145 79.28 210.919 79.72C210.699 80.1533 210.395 80.49 210.009 80.73C209.629 80.97 209.202 81.09 208.729 81.09C208.322 81.09 207.962 81.0067 207.649 80.84C207.342 80.6733 207.092 80.4633 206.899 80.21V83.64H205.499V75.46H206.899V76.26ZM209.829 78.21C209.829 77.8767 209.759 77.59 209.619 77.35C209.485 77.1033 209.305 76.9167 209.079 76.79C208.859 76.6633 208.619 76.6 208.359 76.6C208.105 76.6 207.865 76.6667 207.639 76.8C207.419 76.9267 207.239 77.1133 207.099 77.36C206.965 77.6067 206.899 77.8967 206.899 78.23C206.899 78.5633 206.965 78.8533 207.099 79.1C207.239 79.3467 207.419 79.5367 207.639 79.67C207.865 79.7967 208.105 79.86 208.359 79.86C208.619 79.86 208.859 79.7933 209.079 79.66C209.305 79.5267 209.485 79.3367 209.619 79.09C209.759 78.8433 209.829 78.55 209.829 78.21ZM213.676 76.32C213.856 76.0267 214.089 75.7967 214.376 75.63C214.669 75.4633 215.003 75.38 215.376 75.38V76.85H215.006C214.566 76.85 214.233 76.9533 214.006 77.16C213.786 77.3667 213.676 77.7267 213.676 78.24V81H212.276V75.46H213.676V76.32ZM218.779 81.09C218.246 81.09 217.766 80.9733 217.339 80.74C216.912 80.5 216.576 80.1633 216.329 79.73C216.089 79.2967 215.969 78.7967 215.969 78.23C215.969 77.6633 216.092 77.1633 216.339 76.73C216.592 76.2967 216.936 75.9633 217.369 75.73C217.802 75.49 218.286 75.37 218.819 75.37C219.352 75.37 219.836 75.49 220.269 75.73C220.702 75.9633 221.042 76.2967 221.289 76.73C221.542 77.1633 221.669 77.6633 221.669 78.23C221.669 78.7967 221.539 79.2967 221.279 79.73C221.026 80.1633 220.679 80.5 220.239 80.74C219.806 80.9733 219.319 81.09 218.779 81.09ZM218.779 79.87C219.032 79.87 219.269 79.81 219.489 79.69C219.716 79.5633 219.896 79.3767 220.029 79.13C220.162 78.8833 220.229 78.5833 220.229 78.23C220.229 77.7033 220.089 77.3 219.809 77.02C219.536 76.7333 219.199 76.59 218.799 76.59C218.399 76.59 218.062 76.7333 217.789 77.02C217.522 77.3 217.389 77.7033 217.389 78.23C217.389 78.7567 217.519 79.1633 217.779 79.45C218.046 79.73 218.379 79.87 218.779 79.87ZM225.236 76.61H224.266V81H222.846V76.61H222.216V75.46H222.846V75.18C222.846 74.5 223.039 74 223.426 73.68C223.813 73.36 224.396 73.21 225.176 73.23V74.41C224.836 74.4033 224.599 74.46 224.466 74.58C224.333 74.7 224.266 74.9167 224.266 75.23V75.46H225.236V76.61ZM226.853 74.8C226.606 74.8 226.4 74.7233 226.233 74.57C226.073 74.41 225.993 74.2133 225.993 73.98C225.993 73.7467 226.073 73.5533 226.233 73.4C226.4 73.24 226.606 73.16 226.853 73.16C227.1 73.16 227.303 73.24 227.463 73.4C227.63 73.5533 227.713 73.7467 227.713 73.98C227.713 74.2133 227.63 74.41 227.463 74.57C227.303 74.7233 227.1 74.8 226.853 74.8ZM227.543 75.46V81H226.143V75.46H227.543ZM230.326 73.6V81H228.926V73.6H230.326ZM236.86 78.11C236.86 78.31 236.846 78.49 236.82 78.65H232.77C232.803 79.05 232.943 79.3633 233.19 79.59C233.436 79.8167 233.74 79.93 234.1 79.93C234.62 79.93 234.99 79.7067 235.21 79.26H236.72C236.56 79.7933 236.253 80.2333 235.8 80.58C235.346 80.92 234.79 81.09 234.13 81.09C233.596 81.09 233.116 80.9733 232.69 80.74C232.27 80.5 231.94 80.1633 231.7 79.73C231.466 79.2967 231.35 78.7967 231.35 78.23C231.35 77.6567 231.466 77.1533 231.7 76.72C231.933 76.2867 232.26 75.9533 232.68 75.72C233.1 75.4867 233.583 75.37 234.13 75.37C234.656 75.37 235.126 75.4833 235.54 75.71C235.96 75.9367 236.283 76.26 236.51 76.68C236.743 77.0933 236.86 77.57 236.86 78.11ZM235.41 77.71C235.403 77.35 235.273 77.0633 235.02 76.85C234.766 76.63 234.456 76.52 234.09 76.52C233.743 76.52 233.45 76.6267 233.21 76.84C232.976 77.0467 232.833 77.3367 232.78 77.71H235.41Z" fill="#F6F8ED"/>
</g>
<g filter="url(#filter7_d_1_3801)">
<path d="M221 51.5C222.375 51.5 223.5 52.625 223.5 54C223.5 55.375 222.375 56.5 221 56.5C219.625 56.5 218.5 55.375 218.5 54C218.5 52.625 219.625 51.5 221 51.5ZM221 64C224.375 64 228.25 65.6125 228.5 66.5H213.5C213.788 65.6 217.637 64 221 64ZM221 49C218.237 49 216 51.2375 216 54C216 56.7625 218.237 59 221 59C223.762 59 226 56.7625 226 54C226 51.2375 223.762 49 221 49ZM221 61.5C217.662 61.5 211 63.175 211 66.5V69H231V66.5C231 63.175 224.338 61.5 221 61.5Z" fill="#F6F8ED"/>
</g>
</g>
<g filter="url(#filter8_d_1_3801)">
<path d="M164.636 58.8706C161.342 57.4148 157.479 58.2758 155.248 60.7285L158.698 63.8553C159.092 64.2122 159.092 64.7843 158.698 65.1355C158.504 65.3111 158.248 65.4017 157.992 65.4017C157.736 65.4017 157.479 65.3111 157.286 65.1355L154.148 62.2919L146.141 77.1726C145.959 77.5124 145.947 77.9259 146.141 78.2885C146.478 78.9172 147.322 79.1778 148.016 78.8719L156.367 75.1787L153.291 72.3917C152.898 72.0405 152.898 71.4628 153.291 71.1116C153.685 70.7604 154.316 70.7604 154.704 71.1116L158.267 74.3403L164.642 71.5194C166.143 70.8567 167.424 69.7464 168.212 68.285C170.093 64.79 168.493 60.5756 164.636 58.8706ZM170.393 56.8937C171.612 54.5882 170.981 51.8636 168.499 50C165.355 52.3621 165.218 56.0893 168.005 58.6044L168.505 59.0575C171.281 61.5839 175.4 61.4593 178 58.61C175.944 56.3612 172.937 55.7891 170.393 56.8937Z" fill="#FB7E56"/>
<path d="M164.636 58.8706C161.342 57.4148 157.479 58.2758 155.248 60.7285L158.698 63.8553C159.092 64.2122 159.092 64.7843 158.698 65.1355C158.504 65.3111 158.248 65.4017 157.992 65.4017C157.736 65.4017 157.479 65.3111 157.286 65.1355L154.148 62.2919L146.141 77.1726C145.959 77.5124 145.947 77.9259 146.141 78.2885C146.478 78.9172 147.322 79.1778 148.016 78.8719L156.367 75.1787L153.291 72.3917C152.898 72.0405 152.898 71.4628 153.291 71.1116C153.685 70.7604 154.316 70.7604 154.704 71.1116L158.267 74.3403L164.642 71.5194C166.143 70.8567 167.424 69.7464 168.212 68.285C170.093 64.79 168.493 60.5756 164.636 58.8706ZM170.393 56.8937C171.612 54.5882 170.981 51.8636 168.499 50C165.355 52.3621 165.218 56.0893 168.005 58.6044L168.505 59.0575C171.281 61.5839 175.4 61.4593 178 58.61C175.944 56.3612 172.937 55.7891 170.393 56.8937Z" stroke="#F6F8ED"/>
</g>
<g filter="url(#filter9_d_1_3801)">
<rect x="174" y="134" width="120" height="60" rx="15" fill="url(#paint1_linear_1_3801)"/>
<rect x="174.5" y="134.5" width="119" height="59" rx="14.5" stroke="#F6F8ED"/>
</g>
<g filter="url(#filter10_d_1_3801)">
<rect x="34" y="134" width="120" height="60" rx="15" fill="url(#paint2_linear_1_3801)"/>
<rect x="34.5" y="134.5" width="119" height="59" rx="14.5" stroke="#F6F8ED"/>
</g>
<path d="M246.675 162.432H244.835V170H243.379V162.432H242.243V161.232H243.379V160.608C243.379 159.627 243.63 158.912 244.131 158.464C244.643 158.005 245.459 157.776 246.579 157.776V158.992C245.939 158.992 245.486 159.12 245.219 159.376C244.963 159.621 244.835 160.032 244.835 160.608V161.232H246.675V162.432ZM249.829 162.656C250.085 162.155 250.447 161.765 250.917 161.488C251.397 161.211 251.978 161.072 252.661 161.072V162.576H252.277C250.645 162.576 249.829 163.461 249.829 165.232V170H248.373V161.232H249.829V162.656ZM261.893 161.232L256.613 174.128H255.109L256.837 169.904L253.301 161.232H254.917L257.669 168.336L260.389 161.232H261.893Z" fill="black"/>
<path d="M96.0864 162.656C96.3424 162.155 96.7051 161.765 97.1744 161.488C97.6544 161.211 98.2358 161.072 98.9184 161.072V162.576H98.5344C96.9024 162.576 96.0864 163.461 96.0864 165.232V170H94.6304V161.232H96.0864V162.656ZM104.423 170.144C103.602 170.144 102.855 169.957 102.183 169.584C101.522 169.211 100.999 168.683 100.615 168C100.242 167.307 100.055 166.507 100.055 165.6C100.055 164.704 100.247 163.915 100.631 163.232C101.026 162.539 101.559 162.011 102.231 161.648C102.903 161.275 103.655 161.088 104.487 161.088C105.319 161.088 106.071 161.275 106.743 161.648C107.415 162.011 107.943 162.533 108.327 163.216C108.722 163.899 108.919 164.693 108.919 165.6C108.919 166.507 108.717 167.307 108.311 168C107.917 168.683 107.378 169.211 106.695 169.584C106.013 169.957 105.255 170.144 104.423 170.144ZM104.423 168.864C104.946 168.864 105.437 168.741 105.895 168.496C106.354 168.251 106.722 167.883 106.999 167.392C107.287 166.901 107.431 166.304 107.431 165.6C107.431 164.896 107.293 164.299 107.015 163.808C106.738 163.317 106.375 162.955 105.927 162.72C105.479 162.475 104.994 162.352 104.471 162.352C103.938 162.352 103.447 162.475 102.999 162.72C102.562 162.955 102.21 163.317 101.943 163.808C101.677 164.299 101.543 164.896 101.543 165.6C101.543 166.315 101.671 166.917 101.927 167.408C102.194 167.899 102.546 168.267 102.983 168.512C103.421 168.747 103.901 168.864 104.423 168.864ZM110.29 165.584C110.29 164.688 110.471 163.904 110.834 163.232C111.196 162.549 111.692 162.021 112.322 161.648C112.962 161.275 113.671 161.088 114.45 161.088C115.218 161.088 115.884 161.253 116.45 161.584C117.015 161.915 117.436 162.331 117.714 162.832V161.232H119.186V170H117.714V168.368C117.426 168.88 116.994 169.307 116.418 169.648C115.852 169.979 115.191 170.144 114.434 170.144C113.655 170.144 112.951 169.952 112.322 169.568C111.692 169.184 111.196 168.645 110.834 167.952C110.471 167.259 110.29 166.469 110.29 165.584ZM117.714 165.6C117.714 164.939 117.58 164.363 117.314 163.872C117.047 163.381 116.684 163.008 116.226 162.752C115.778 162.485 115.282 162.352 114.738 162.352C114.194 162.352 113.698 162.48 113.25 162.736C112.802 162.992 112.444 163.365 112.178 163.856C111.911 164.347 111.778 164.923 111.778 165.584C111.778 166.256 111.911 166.843 112.178 167.344C112.444 167.835 112.802 168.213 113.25 168.48C113.698 168.736 114.194 168.864 114.738 168.864C115.282 168.864 115.778 168.736 116.226 168.48C116.684 168.213 117.047 167.835 117.314 167.344C117.58 166.843 117.714 166.261 117.714 165.6ZM124.75 170.144C124.078 170.144 123.475 170.032 122.942 169.808C122.409 169.573 121.987 169.253 121.678 168.848C121.369 168.432 121.198 167.957 121.166 167.424H122.67C122.713 167.861 122.915 168.219 123.278 168.496C123.651 168.773 124.137 168.912 124.734 168.912C125.289 168.912 125.726 168.789 126.046 168.544C126.366 168.299 126.526 167.989 126.526 167.616C126.526 167.232 126.355 166.949 126.014 166.768C125.673 166.576 125.145 166.389 124.43 166.208C123.779 166.037 123.246 165.867 122.83 165.696C122.425 165.515 122.073 165.253 121.774 164.912C121.486 164.56 121.342 164.101 121.342 163.536C121.342 163.088 121.475 162.677 121.742 162.304C122.009 161.931 122.387 161.637 122.878 161.424C123.369 161.2 123.929 161.088 124.558 161.088C125.529 161.088 126.313 161.333 126.91 161.824C127.507 162.315 127.827 162.987 127.87 163.84H126.414C126.382 163.381 126.195 163.013 125.854 162.736C125.523 162.459 125.075 162.32 124.51 162.32C123.987 162.32 123.571 162.432 123.262 162.656C122.953 162.88 122.798 163.173 122.798 163.536C122.798 163.824 122.889 164.064 123.07 164.256C123.262 164.437 123.497 164.587 123.774 164.704C124.062 164.811 124.457 164.933 124.958 165.072C125.587 165.243 126.099 165.413 126.494 165.584C126.889 165.744 127.225 165.989 127.502 166.32C127.79 166.651 127.939 167.083 127.95 167.616C127.95 168.096 127.817 168.528 127.55 168.912C127.283 169.296 126.905 169.6 126.414 169.824C125.934 170.037 125.379 170.144 124.75 170.144ZM131.781 162.432V167.6C131.781 168.027 131.872 168.331 132.053 168.512C132.235 168.683 132.549 168.768 132.997 168.768H134.069V170H132.757C131.947 170 131.339 169.813 130.933 169.44C130.528 169.067 130.325 168.453 130.325 167.6V162.432H129.189V161.232H130.325V159.024H131.781V161.232H134.069V162.432H131.781Z" fill="black"/>
<g filter="url(#filter11_i_1_3801)">
<g clip-path="url(#clip0_1_3801)">
<rect x="53" y="155" width="19" height="19" rx="9.5" fill="#98C487"/>
</g>
</g>
<g filter="url(#filter12_i_1_3801)">
<g clip-path="url(#clip1_1_3801)">
<rect x="193" y="155" width="19" height="19" rx="9.5" fill="#98C487"/>
<g filter="url(#filter13_d_1_3801)">
<path d="M207 160.906L206.094 160L202.5 163.594L198.906 160L198 160.906L201.594 164.5L198 168.094L198.906 169L202.5 165.406L206.094 169L207 168.094L203.406 164.5L207 160.906Z" fill="#F6F8ED"/>
</g>
</g>
</g>
<g filter="url(#filter14_d_1_3801)">
<rect x="174" y="214" width="120" height="60" rx="15" fill="url(#paint3_linear_1_3801)"/>
<rect x="174.5" y="214.5" width="119" height="59" rx="14.5" stroke="#F6F8ED"/>
</g>
<g filter="url(#filter15_d_1_3801)">
<rect x="34" y="214" width="120" height="60" rx="15" fill="url(#paint4_linear_1_3801)"/>
<rect x="34.5" y="214.5" width="119" height="59" rx="14.5" stroke="#F6F8ED"/>
</g>
<path d="M226.813 242.864C227.112 242.341 227.549 241.915 228.125 241.584C228.701 241.253 229.357 241.088 230.093 241.088C230.882 241.088 231.592 241.275 232.221 241.648C232.85 242.021 233.346 242.549 233.709 243.232C234.072 243.904 234.253 244.688 234.253 245.584C234.253 246.469 234.072 247.259 233.709 247.952C233.346 248.645 232.845 249.184 232.205 249.568C231.576 249.952 230.872 250.144 230.093 250.144C229.336 250.144 228.669 249.979 228.093 249.648C227.528 249.317 227.101 248.896 226.813 248.384V250H225.357V238.16H226.813V242.864ZM232.765 245.584C232.765 244.923 232.632 244.347 232.365 243.856C232.098 243.365 231.736 242.992 231.277 242.736C230.829 242.48 230.333 242.352 229.789 242.352C229.256 242.352 228.76 242.485 228.301 242.752C227.853 243.008 227.49 243.387 227.213 243.888C226.946 244.379 226.813 244.949 226.813 245.6C226.813 246.261 226.946 246.843 227.213 247.344C227.49 247.835 227.853 248.213 228.301 248.48C228.76 248.736 229.256 248.864 229.789 248.864C230.333 248.864 230.829 248.736 231.277 248.48C231.736 248.213 232.098 247.835 232.365 247.344C232.632 246.843 232.765 246.256 232.765 245.584ZM237.626 238.16V250H236.17V238.16H237.626ZM239.563 245.584C239.563 244.688 239.744 243.904 240.107 243.232C240.47 242.549 240.966 242.021 241.595 241.648C242.235 241.275 242.944 241.088 243.723 241.088C244.491 241.088 245.158 241.253 245.723 241.584C246.288 241.915 246.71 242.331 246.987 242.832V241.232H248.459V250H246.987V248.368C246.699 248.88 246.267 249.307 245.691 249.648C245.126 249.979 244.464 250.144 243.707 250.144C242.928 250.144 242.224 249.952 241.595 249.568C240.966 249.184 240.47 248.645 240.107 247.952C239.744 247.259 239.563 246.469 239.563 245.584ZM246.987 245.6C246.987 244.939 246.854 244.363 246.587 243.872C246.32 243.381 245.958 243.008 245.499 242.752C245.051 242.485 244.555 242.352 244.011 242.352C243.467 242.352 242.971 242.48 242.523 242.736C242.075 242.992 241.718 243.365 241.451 243.856C241.184 244.347 241.051 244.923 241.051 245.584C241.051 246.256 241.184 246.843 241.451 247.344C241.718 247.835 242.075 248.213 242.523 248.48C242.971 248.736 243.467 248.864 244.011 248.864C244.555 248.864 245.051 248.736 245.499 248.48C245.958 248.213 246.32 247.835 246.587 247.344C246.854 246.843 246.987 246.261 246.987 245.6ZM255.192 241.072C256.258 241.072 257.122 241.397 257.784 242.048C258.445 242.688 258.776 243.616 258.776 244.832V250H257.336V245.04C257.336 244.165 257.117 243.499 256.68 243.04C256.242 242.571 255.645 242.336 254.888 242.336C254.12 242.336 253.506 242.576 253.048 243.056C252.6 243.536 252.376 244.235 252.376 245.152V250H250.92V241.232H252.376V242.48C252.664 242.032 253.053 241.685 253.544 241.44C254.045 241.195 254.594 241.072 255.192 241.072ZM260.61 245.6C260.61 244.693 260.791 243.904 261.154 243.232C261.517 242.549 262.018 242.021 262.658 241.648C263.309 241.275 264.05 241.088 264.882 241.088C265.959 241.088 266.845 241.349 267.538 241.872C268.242 242.395 268.706 243.12 268.93 244.048H267.362C267.213 243.515 266.919 243.093 266.482 242.784C266.055 242.475 265.522 242.32 264.882 242.32C264.05 242.32 263.378 242.608 262.866 243.184C262.354 243.749 262.098 244.555 262.098 245.6C262.098 246.656 262.354 247.472 262.866 248.048C263.378 248.624 264.05 248.912 264.882 248.912C265.522 248.912 266.055 248.763 266.482 248.464C266.909 248.165 267.202 247.739 267.362 247.184H268.93C268.695 248.08 268.226 248.8 267.522 249.344C266.818 249.877 265.938 250.144 264.882 250.144C264.05 250.144 263.309 249.957 262.658 249.584C262.018 249.211 261.517 248.683 261.154 248C260.791 247.317 260.61 246.517 260.61 245.6ZM275.225 241.072C275.886 241.072 276.483 241.216 277.017 241.504C277.55 241.781 277.966 242.203 278.265 242.768C278.574 243.333 278.729 244.021 278.729 244.832V250H277.289V245.04C277.289 244.165 277.07 243.499 276.633 243.04C276.195 242.571 275.598 242.336 274.841 242.336C274.073 242.336 273.459 242.576 273.001 243.056C272.553 243.536 272.329 244.235 272.329 245.152V250H270.873V238.16H272.329V242.48C272.617 242.032 273.011 241.685 273.513 241.44C274.025 241.195 274.595 241.072 275.225 241.072Z" fill="black"/>
<path d="M95.7579 250.144C95.0859 250.144 94.4832 250.032 93.9499 249.808C93.4165 249.573 92.9952 249.253 92.6859 248.848C92.3765 248.432 92.2059 247.957 92.1739 247.424H93.6779C93.7205 247.861 93.9232 248.219 94.2859 248.496C94.6592 248.773 95.1445 248.912 95.7419 248.912C96.2965 248.912 96.7339 248.789 97.0539 248.544C97.3739 248.299 97.5339 247.989 97.5339 247.616C97.5339 247.232 97.3632 246.949 97.0219 246.768C96.6805 246.576 96.1525 246.389 95.4379 246.208C94.7872 246.037 94.2539 245.867 93.8379 245.696C93.4325 245.515 93.0805 245.253 92.7819 244.912C92.4939 244.56 92.3499 244.101 92.3499 243.536C92.3499 243.088 92.4832 242.677 92.7499 242.304C93.0165 241.931 93.3952 241.637 93.8859 241.424C94.3765 241.2 94.9365 241.088 95.5659 241.088C96.5365 241.088 97.3205 241.333 97.9179 241.824C98.5152 242.315 98.8352 242.987 98.8779 243.84H97.4219C97.3899 243.381 97.2032 243.013 96.8619 242.736C96.5312 242.459 96.0832 242.32 95.5179 242.32C94.9952 242.32 94.5792 242.432 94.2699 242.656C93.9605 242.88 93.8059 243.173 93.8059 243.536C93.8059 243.824 93.8965 244.064 94.0779 244.256C94.2699 244.437 94.5045 244.587 94.7819 244.704C95.0699 244.811 95.4645 244.933 95.9659 245.072C96.5952 245.243 97.1072 245.413 97.5019 245.584C97.8965 245.744 98.2325 245.989 98.5099 246.32C98.7979 246.651 98.9472 247.083 98.9579 247.616C98.9579 248.096 98.8245 248.528 98.5579 248.912C98.2912 249.296 97.9125 249.6 97.4219 249.824C96.9419 250.037 96.3872 250.144 95.7579 250.144ZM100.469 245.584C100.469 244.688 100.651 243.904 101.013 243.232C101.376 242.549 101.872 242.021 102.501 241.648C103.141 241.275 103.851 241.088 104.629 241.088C105.397 241.088 106.064 241.253 106.629 241.584C107.195 241.915 107.616 242.331 107.893 242.832V241.232H109.365V250H107.893V248.368C107.605 248.88 107.173 249.307 106.597 249.648C106.032 249.979 105.371 250.144 104.613 250.144C103.835 250.144 103.131 249.952 102.501 249.568C101.872 249.184 101.376 248.645 101.013 247.952C100.651 247.259 100.469 246.469 100.469 245.584ZM107.893 245.6C107.893 244.939 107.76 244.363 107.493 243.872C107.227 243.381 106.864 243.008 106.405 242.752C105.957 242.485 105.461 242.352 104.917 242.352C104.373 242.352 103.877 242.48 103.429 242.736C102.981 242.992 102.624 243.365 102.357 243.856C102.091 244.347 101.957 244.923 101.957 245.584C101.957 246.256 102.091 246.843 102.357 247.344C102.624 247.835 102.981 248.213 103.429 248.48C103.877 248.736 104.373 248.864 104.917 248.864C105.461 248.864 105.957 248.736 106.405 248.48C106.864 248.213 107.227 247.835 107.493 247.344C107.76 246.843 107.893 246.261 107.893 245.6ZM119.602 241.232V250H118.146V248.704C117.868 249.152 117.479 249.504 116.978 249.76C116.487 250.005 115.943 250.128 115.346 250.128C114.663 250.128 114.05 249.989 113.506 249.712C112.962 249.424 112.53 248.997 112.21 248.432C111.9 247.867 111.746 247.179 111.746 246.368V241.232H113.186V246.176C113.186 247.04 113.404 247.707 113.842 248.176C114.279 248.635 114.876 248.864 115.634 248.864C116.412 248.864 117.026 248.624 117.474 248.144C117.922 247.664 118.146 246.965 118.146 246.048V241.232H119.602ZM123.836 242.432V247.6C123.836 248.027 123.927 248.331 124.108 248.512C124.289 248.683 124.604 248.768 125.052 248.768H126.124V250H124.812C124.001 250 123.393 249.813 122.988 249.44C122.583 249.067 122.38 248.453 122.38 247.6V242.432H121.244V241.232H122.38V239.024H123.836V241.232H126.124V242.432H123.836ZM135.888 245.28C135.888 245.557 135.872 245.851 135.84 246.16H128.832C128.886 247.024 129.179 247.701 129.712 248.192C130.256 248.672 130.912 248.912 131.68 248.912C132.31 248.912 132.832 248.768 133.248 248.48C133.675 248.181 133.974 247.787 134.144 247.296H135.712C135.478 248.139 135.008 248.827 134.304 249.36C133.6 249.883 132.726 250.144 131.68 250.144C130.848 250.144 130.102 249.957 129.44 249.584C128.79 249.211 128.278 248.683 127.904 248C127.531 247.307 127.344 246.507 127.344 245.6C127.344 244.693 127.526 243.899 127.888 243.216C128.251 242.533 128.758 242.011 129.408 241.648C130.07 241.275 130.827 241.088 131.68 241.088C132.512 241.088 133.248 241.269 133.888 241.632C134.528 241.995 135.019 242.496 135.36 243.136C135.712 243.765 135.888 244.48 135.888 245.28ZM134.384 244.976C134.384 244.421 134.262 243.947 134.016 243.552C133.771 243.147 133.435 242.843 133.008 242.64C132.592 242.427 132.128 242.32 131.616 242.32C130.88 242.32 130.251 242.555 129.728 243.024C129.216 243.493 128.923 244.144 128.848 244.976H134.384ZM133.184 238.752L129.776 240.576V239.488L133.184 237.488V238.752Z" fill="black"/>
<path d="M189 214.5H213.5V273.5H189C180.992 273.5 174.5 267.008 174.5 259V229C174.5 220.992 180.992 214.5 189 214.5Z" stroke="#F6F8ED"/>
<g filter="url(#filter16_d_1_3801)">
<rect x="174" y="294" width="120" height="60" rx="15" fill="url(#paint5_linear_1_3801)"/>
<rect x="174.5" y="294.5" width="119" height="59" rx="14.5" stroke="#F6F8ED"/>
</g>
<g filter="url(#filter17_d_1_3801)">
<rect x="34" y="294" width="120" height="60" rx="15" fill="url(#paint6_linear_1_3801)"/>
<rect x="34.5" y="294.5" width="119" height="59" rx="14.5" stroke="#F6F8ED"/>
</g>
<path d="M228.782 322.848C229.07 322.347 229.496 321.931 230.062 321.6C230.638 321.259 231.304 321.088 232.062 321.088C232.84 321.088 233.544 321.275 234.174 321.648C234.814 322.021 235.315 322.549 235.678 323.232C236.04 323.904 236.222 324.688 236.222 325.584C236.222 326.469 236.04 327.259 235.678 327.952C235.315 328.645 234.814 329.184 234.174 329.568C233.544 329.952 232.84 330.144 232.062 330.144C231.315 330.144 230.654 329.979 230.078 329.648C229.512 329.307 229.08 328.885 228.782 328.384V334.16H227.326V321.232H228.782V322.848ZM234.734 325.584C234.734 324.923 234.6 324.347 234.334 323.856C234.067 323.365 233.704 322.992 233.246 322.736C232.798 322.48 232.302 322.352 231.758 322.352C231.224 322.352 230.728 322.485 230.27 322.752C229.822 323.008 229.459 323.387 229.182 323.888C228.915 324.379 228.782 324.949 228.782 325.6C228.782 326.261 228.915 326.843 229.182 327.344C229.459 327.835 229.822 328.213 230.27 328.48C230.728 328.736 231.224 328.864 231.758 328.864C232.302 328.864 232.798 328.736 233.246 328.48C233.704 328.213 234.067 327.835 234.334 327.344C234.6 326.843 234.734 326.256 234.734 325.584ZM241.962 330.144C241.141 330.144 240.394 329.957 239.722 329.584C239.061 329.211 238.538 328.683 238.154 328C237.781 327.307 237.594 326.507 237.594 325.6C237.594 324.704 237.786 323.915 238.17 323.232C238.565 322.539 239.098 322.011 239.77 321.648C240.442 321.275 241.194 321.088 242.026 321.088C242.858 321.088 243.61 321.275 244.282 321.648C244.954 322.011 245.482 322.533 245.866 323.216C246.261 323.899 246.458 324.693 246.458 325.6C246.458 326.507 246.256 327.307 245.85 328C245.456 328.683 244.917 329.211 244.234 329.584C243.552 329.957 242.794 330.144 241.962 330.144ZM241.962 328.864C242.485 328.864 242.976 328.741 243.434 328.496C243.893 328.251 244.261 327.883 244.538 327.392C244.826 326.901 244.97 326.304 244.97 325.6C244.97 324.896 244.832 324.299 244.554 323.808C244.277 323.317 243.914 322.955 243.466 322.72C243.018 322.475 242.533 322.352 242.01 322.352C241.477 322.352 240.986 322.475 240.538 322.72C240.101 322.955 239.749 323.317 239.482 323.808C239.216 324.299 239.082 324.896 239.082 325.6C239.082 326.315 239.21 326.917 239.466 327.408C239.733 327.899 240.085 328.267 240.522 328.512C240.96 328.747 241.44 328.864 241.962 328.864ZM247.829 325.584C247.829 324.688 248.01 323.904 248.373 323.232C248.735 322.549 249.231 322.021 249.861 321.648C250.501 321.275 251.21 321.088 251.989 321.088C252.757 321.088 253.423 321.253 253.989 321.584C254.554 321.915 254.975 322.331 255.253 322.832V321.232H256.725V330H255.253V328.368C254.965 328.88 254.533 329.307 253.957 329.648C253.391 329.979 252.73 330.144 251.973 330.144C251.194 330.144 250.49 329.952 249.861 329.568C249.231 329.184 248.735 328.645 248.373 327.952C248.01 327.259 247.829 326.469 247.829 325.584ZM255.253 325.6C255.253 324.939 255.119 324.363 254.853 323.872C254.586 323.381 254.223 323.008 253.765 322.752C253.317 322.485 252.821 322.352 252.277 322.352C251.733 322.352 251.237 322.48 250.789 322.736C250.341 322.992 249.983 323.365 249.717 323.856C249.45 324.347 249.317 324.923 249.317 325.584C249.317 326.256 249.45 326.843 249.717 327.344C249.983 327.835 250.341 328.213 250.789 328.48C251.237 328.736 251.733 328.864 252.277 328.864C252.821 328.864 253.317 328.736 253.765 328.48C254.223 328.213 254.586 327.835 254.853 327.344C255.119 326.843 255.253 326.261 255.253 325.6ZM258.641 325.6C258.641 324.693 258.822 323.904 259.185 323.232C259.548 322.549 260.049 322.021 260.689 321.648C261.34 321.275 262.081 321.088 262.913 321.088C263.99 321.088 264.876 321.349 265.569 321.872C266.273 322.395 266.737 323.12 266.961 324.048H265.393C265.244 323.515 264.95 323.093 264.513 322.784C264.086 322.475 263.553 322.32 262.913 322.32C262.081 322.32 261.409 322.608 260.897 323.184C260.385 323.749 260.129 324.555 260.129 325.6C260.129 326.656 260.385 327.472 260.897 328.048C261.409 328.624 262.081 328.912 262.913 328.912C263.553 328.912 264.086 328.763 264.513 328.464C264.94 328.165 265.233 327.739 265.393 327.184H266.961C266.726 328.08 266.257 328.8 265.553 329.344C264.849 329.877 263.969 330.144 262.913 330.144C262.081 330.144 261.34 329.957 260.689 329.584C260.049 329.211 259.548 328.683 259.185 328C258.822 327.317 258.641 326.517 258.641 325.6ZM273.256 321.072C273.917 321.072 274.515 321.216 275.048 321.504C275.581 321.781 275.997 322.203 276.296 322.768C276.605 323.333 276.76 324.021 276.76 324.832V330H275.32V325.04C275.32 324.165 275.101 323.499 274.664 323.04C274.227 322.571 273.629 322.336 272.872 322.336C272.104 322.336 271.491 322.576 271.032 323.056C270.584 323.536 270.36 324.235 270.36 325.152V330H268.904V318.16H270.36V322.48C270.648 322.032 271.043 321.685 271.544 321.44C272.056 321.195 272.627 321.072 273.256 321.072Z" fill="black"/>
<path d="M96.7974 322.864C97.096 322.341 97.5334 321.915 98.1094 321.584C98.6854 321.253 99.3414 321.088 100.077 321.088C100.867 321.088 101.576 321.275 102.205 321.648C102.835 322.021 103.331 322.549 103.693 323.232C104.056 323.904 104.237 324.688 104.237 325.584C104.237 326.469 104.056 327.259 103.693 327.952C103.331 328.645 102.829 329.184 102.189 329.568C101.56 329.952 100.856 330.144 100.077 330.144C99.32 330.144 98.6534 329.979 98.0774 329.648C97.512 329.317 97.0854 328.896 96.7974 328.384V330H95.3414V318.16H96.7974V322.864ZM102.749 325.584C102.749 324.923 102.616 324.347 102.349 323.856C102.083 323.365 101.72 322.992 101.261 322.736C100.813 322.48 100.317 322.352 99.7734 322.352C99.24 322.352 98.744 322.485 98.2854 322.752C97.8374 323.008 97.4747 323.387 97.1974 323.888C96.9307 324.379 96.7974 324.949 96.7974 325.6C96.7974 326.261 96.9307 326.843 97.1974 327.344C97.4747 327.835 97.8374 328.213 98.2854 328.48C98.744 328.736 99.24 328.864 99.7734 328.864C100.317 328.864 100.813 328.736 101.261 328.48C101.72 328.213 102.083 327.835 102.349 327.344C102.616 326.843 102.749 326.256 102.749 325.584ZM105.61 325.584C105.61 324.688 105.791 323.904 106.154 323.232C106.517 322.549 107.013 322.021 107.642 321.648C108.282 321.275 108.991 321.088 109.77 321.088C110.538 321.088 111.205 321.253 111.77 321.584C112.335 321.915 112.757 322.331 113.034 322.832V321.232H114.506V330H113.034V328.368C112.746 328.88 112.314 329.307 111.738 329.648C111.173 329.979 110.511 330.144 109.754 330.144C108.975 330.144 108.271 329.952 107.642 329.568C107.013 329.184 106.517 328.645 106.154 327.952C105.791 327.259 105.61 326.469 105.61 325.584ZM113.034 325.6C113.034 324.939 112.901 324.363 112.634 323.872C112.367 323.381 112.005 323.008 111.546 322.752C111.098 322.485 110.602 322.352 110.058 322.352C109.514 322.352 109.018 322.48 108.57 322.736C108.122 322.992 107.765 323.365 107.498 323.856C107.231 324.347 107.098 324.923 107.098 325.584C107.098 326.256 107.231 326.843 107.498 327.344C107.765 327.835 108.122 328.213 108.57 328.48C109.018 328.736 109.514 328.864 110.058 328.864C110.602 328.864 111.098 328.736 111.546 328.48C112.005 328.213 112.367 327.835 112.634 327.344C112.901 326.843 113.034 326.261 113.034 325.6ZM121.862 330L118.422 326.128V330H116.966V318.16H118.422V325.12L121.798 321.232H123.83L119.702 325.6L123.846 330H121.862ZM133.201 325.28C133.201 325.557 133.185 325.851 133.153 326.16H126.145C126.198 327.024 126.491 327.701 127.025 328.192C127.569 328.672 128.225 328.912 128.993 328.912C129.622 328.912 130.145 328.768 130.561 328.48C130.987 328.181 131.286 327.787 131.457 327.296H133.025C132.79 328.139 132.321 328.827 131.617 329.36C130.913 329.883 130.038 330.144 128.993 330.144C128.161 330.144 127.414 329.957 126.753 329.584C126.102 329.211 125.59 328.683 125.217 328C124.843 327.307 124.657 326.507 124.657 325.6C124.657 324.693 124.838 323.899 125.201 323.216C125.563 322.533 126.07 322.011 126.721 321.648C127.382 321.275 128.139 321.088 128.993 321.088C129.825 321.088 130.561 321.269 131.201 321.632C131.841 321.995 132.331 322.496 132.673 323.136C133.025 323.765 133.201 324.48 133.201 325.28ZM131.697 324.976C131.697 324.421 131.574 323.947 131.329 323.552C131.083 323.147 130.747 322.843 130.321 322.64C129.905 322.427 129.441 322.32 128.929 322.32C128.193 322.32 127.563 322.555 127.041 323.024C126.529 323.493 126.235 324.144 126.161 324.976H131.697Z" fill="black"/>
<g filter="url(#filter18_d_1_3801)">
<rect x="174" y="374" width="120" height="60" rx="15" fill="url(#paint7_linear_1_3801)"/>
<rect x="174.5" y="374.5" width="119" height="59" rx="14.5" stroke="#F6F8ED"/>
</g>
<g filter="url(#filter19_d_1_3801)">
<rect x="34" y="374" width="120" height="60" rx="15" fill="url(#paint8_linear_1_3801)"/>
<rect x="34.5" y="374.5" width="119" height="59" rx="14.5" stroke="#F6F8ED"/>
</g>
<path d="M230.633 410.144C229.961 410.144 229.358 410.032 228.825 409.808C228.292 409.573 227.87 409.253 227.561 408.848C227.252 408.432 227.081 407.957 227.049 407.424H228.553C228.596 407.861 228.798 408.219 229.161 408.496C229.534 408.773 230.02 408.912 230.617 408.912C231.172 408.912 231.609 408.789 231.929 408.544C232.249 408.299 232.409 407.989 232.409 407.616C232.409 407.232 232.238 406.949 231.897 406.768C231.556 406.576 231.028 406.389 230.313 406.208C229.662 406.037 229.129 405.867 228.713 405.696C228.308 405.515 227.956 405.253 227.657 404.912C227.369 404.56 227.225 404.101 227.225 403.536C227.225 403.088 227.358 402.677 227.625 402.304C227.892 401.931 228.27 401.637 228.761 401.424C229.252 401.2 229.812 401.088 230.441 401.088C231.412 401.088 232.196 401.333 232.793 401.824C233.39 402.315 233.71 402.987 233.753 403.84H232.297C232.265 403.381 232.078 403.013 231.737 402.736C231.406 402.459 230.958 402.32 230.393 402.32C229.87 402.32 229.454 402.432 229.145 402.656C228.836 402.88 228.681 403.173 228.681 403.536C228.681 403.824 228.772 404.064 228.953 404.256C229.145 404.437 229.38 404.587 229.657 404.704C229.945 404.811 230.34 404.933 230.841 405.072C231.47 405.243 231.982 405.413 232.377 405.584C232.772 405.744 233.108 405.989 233.385 406.32C233.673 406.651 233.822 407.083 233.833 407.616C233.833 408.096 233.7 408.528 233.433 408.912C233.166 409.296 232.788 409.6 232.297 409.824C231.817 410.037 231.262 410.144 230.633 410.144ZM237.664 402.432V407.6C237.664 408.027 237.755 408.331 237.936 408.512C238.118 408.683 238.432 408.768 238.88 408.768H239.952V410H238.64C237.83 410 237.222 409.813 236.816 409.44C236.411 409.067 236.208 408.453 236.208 407.6V402.432H235.072V401.232H236.208V399.024H237.664V401.232H239.952V402.432H237.664ZM249.716 405.28C249.716 405.557 249.7 405.851 249.668 406.16H242.66C242.714 407.024 243.007 407.701 243.54 408.192C244.084 408.672 244.74 408.912 245.508 408.912C246.138 408.912 246.66 408.768 247.076 408.48C247.503 408.181 247.802 407.787 247.972 407.296H249.54C249.306 408.139 248.836 408.827 248.132 409.36C247.428 409.883 246.554 410.144 245.508 410.144C244.676 410.144 243.93 409.957 243.268 409.584C242.618 409.211 242.106 408.683 241.732 408C241.359 407.307 241.172 406.507 241.172 405.6C241.172 404.693 241.354 403.899 241.716 403.216C242.079 402.533 242.586 402.011 243.236 401.648C243.898 401.275 244.655 401.088 245.508 401.088C246.34 401.088 247.076 401.269 247.716 401.632C248.356 401.995 248.847 402.496 249.188 403.136C249.54 403.765 249.716 404.48 249.716 405.28ZM248.212 404.976C248.212 404.421 248.09 403.947 247.844 403.552C247.599 403.147 247.263 402.843 246.836 402.64C246.42 402.427 245.956 402.32 245.444 402.32C244.708 402.32 244.079 402.555 243.556 403.024C243.044 403.493 242.751 404.144 242.676 404.976H248.212ZM251.094 405.584C251.094 404.688 251.276 403.904 251.638 403.232C252.001 402.549 252.497 402.021 253.126 401.648C253.766 401.275 254.476 401.088 255.254 401.088C256.022 401.088 256.689 401.253 257.254 401.584C257.82 401.915 258.241 402.331 258.518 402.832V401.232H259.99V410H258.518V408.368C258.23 408.88 257.798 409.307 257.222 409.648C256.657 409.979 255.996 410.144 255.238 410.144C254.46 410.144 253.756 409.952 253.126 409.568C252.497 409.184 252.001 408.645 251.638 407.952C251.276 407.259 251.094 406.469 251.094 405.584ZM258.518 405.6C258.518 404.939 258.385 404.363 258.118 403.872C257.852 403.381 257.489 403.008 257.03 402.752C256.582 402.485 256.086 402.352 255.542 402.352C254.998 402.352 254.502 402.48 254.054 402.736C253.606 402.992 253.249 403.365 252.982 403.856C252.716 404.347 252.582 404.923 252.582 405.584C252.582 406.256 252.716 406.843 252.982 407.344C253.249 407.835 253.606 408.213 254.054 408.48C254.502 408.736 254.998 408.864 255.542 408.864C256.086 408.864 256.582 408.736 257.03 408.48C257.489 408.213 257.852 407.835 258.118 407.344C258.385 406.843 258.518 406.261 258.518 405.6ZM272.995 401.072C273.677 401.072 274.285 401.216 274.819 401.504C275.352 401.781 275.773 402.203 276.083 402.768C276.392 403.333 276.547 404.021 276.547 404.832V410H275.107V405.04C275.107 404.165 274.888 403.499 274.451 403.04C274.024 402.571 273.443 402.336 272.707 402.336C271.949 402.336 271.347 402.581 270.899 403.072C270.451 403.552 270.227 404.251 270.227 405.168V410H268.787V405.04C268.787 404.165 268.568 403.499 268.131 403.04C267.704 402.571 267.123 402.336 266.387 402.336C265.629 402.336 265.027 402.581 264.579 403.072C264.131 403.552 263.907 404.251 263.907 405.168V410H262.451V401.232H263.907V402.496C264.195 402.037 264.579 401.685 265.059 401.44C265.549 401.195 266.088 401.072 266.675 401.072C267.411 401.072 268.061 401.237 268.627 401.568C269.192 401.899 269.613 402.384 269.891 403.024C270.136 402.405 270.541 401.925 271.107 401.584C271.672 401.243 272.301 401.072 272.995 401.072Z" fill="black"/>
<path d="M102.227 402.864C102.526 402.341 102.963 401.915 103.539 401.584C104.115 401.253 104.771 401.088 105.507 401.088C106.296 401.088 107.006 401.275 107.635 401.648C108.264 402.021 108.76 402.549 109.123 403.232C109.486 403.904 109.667 404.688 109.667 405.584C109.667 406.469 109.486 407.259 109.123 407.952C108.76 408.645 108.259 409.184 107.619 409.568C106.99 409.952 106.286 410.144 105.507 410.144C104.75 410.144 104.083 409.979 103.507 409.648C102.942 409.317 102.515 408.896 102.227 408.384V410H100.771V398.16H102.227V402.864ZM108.179 405.584C108.179 404.923 108.046 404.347 107.779 403.856C107.512 403.365 107.15 402.992 106.691 402.736C106.243 402.48 105.747 402.352 105.203 402.352C104.67 402.352 104.174 402.485 103.715 402.752C103.267 403.008 102.904 403.387 102.627 403.888C102.36 404.379 102.227 404.949 102.227 405.6C102.227 406.261 102.36 406.843 102.627 407.344C102.904 407.835 103.267 408.213 103.715 408.48C104.174 408.736 104.67 408.864 105.203 408.864C105.747 408.864 106.243 408.736 106.691 408.48C107.15 408.213 107.512 407.835 107.779 407.344C108.046 406.843 108.179 406.256 108.179 405.584ZM115.408 410.144C114.586 410.144 113.84 409.957 113.168 409.584C112.506 409.211 111.984 408.683 111.6 408C111.226 407.307 111.04 406.507 111.04 405.6C111.04 404.704 111.232 403.915 111.616 403.232C112.01 402.539 112.544 402.011 113.216 401.648C113.888 401.275 114.64 401.088 115.472 401.088C116.304 401.088 117.056 401.275 117.728 401.648C118.4 402.011 118.928 402.533 119.312 403.216C119.706 403.899 119.904 404.693 119.904 405.6C119.904 406.507 119.701 407.307 119.296 408C118.901 408.683 118.362 409.211 117.68 409.584C116.997 409.957 116.24 410.144 115.408 410.144ZM115.408 408.864C115.93 408.864 116.421 408.741 116.88 408.496C117.338 408.251 117.706 407.883 117.984 407.392C118.272 406.901 118.416 406.304 118.416 405.6C118.416 404.896 118.277 404.299 118 403.808C117.722 403.317 117.36 402.955 116.912 402.72C116.464 402.475 115.978 402.352 115.456 402.352C114.922 402.352 114.432 402.475 113.984 402.72C113.546 402.955 113.194 403.317 112.928 403.808C112.661 404.299 112.528 404.896 112.528 405.6C112.528 406.315 112.656 406.917 112.912 407.408C113.178 407.899 113.53 408.267 113.968 408.512C114.405 408.747 114.885 408.864 115.408 408.864ZM122.57 399.808C122.293 399.808 122.058 399.712 121.866 399.52C121.674 399.328 121.578 399.093 121.578 398.816C121.578 398.539 121.674 398.304 121.866 398.112C122.058 397.92 122.293 397.824 122.57 397.824C122.837 397.824 123.061 397.92 123.242 398.112C123.434 398.304 123.53 398.539 123.53 398.816C123.53 399.093 123.434 399.328 123.242 399.52C123.061 399.712 122.837 399.808 122.57 399.808ZM123.274 401.232V410H121.818V401.232H123.274ZM127.211 398.16V410H125.755V398.16H127.211Z" fill="black"/>
<g filter="url(#filter20_i_1_3801)">
<g clip-path="url(#clip2_1_3801)">
<rect x="53" y="234" width="19" height="19" rx="9.5" fill="#98C487"/>
<g filter="url(#filter21_d_1_3801)">
<path d="M67 239.906L66.0936 239L62.5 242.594L58.9064 239L58 239.906L61.5936 243.5L58 247.094L58.9064 248L62.5 244.406L66.0936 248L67 247.094L63.4064 243.5L67 239.906Z" fill="#F6F8ED"/>
</g>
</g>
</g>
<g filter="url(#filter22_i_1_3801)">
<g clip-path="url(#clip3_1_3801)">
<rect x="53" y="314" width="19" height="19" rx="9.5" fill="#98C487"/>
</g>
</g>
<g filter="url(#filter23_i_1_3801)">
<g clip-path="url(#clip4_1_3801)">
<rect x="53" y="395" width="19" height="19" rx="9.5" fill="#98C487"/>
<g filter="url(#filter24_d_1_3801)">
<path d="M67 400.906L66.0936 400L62.5 403.594L58.9064 400L58 400.906L61.5936 404.5L58 408.094L58.9064 409L62.5 405.406L66.0936 409L67 408.094L63.4064 404.5L67 400.906Z" fill="#F6F8ED"/>
</g>
</g>
</g>
<g filter="url(#filter25_i_1_3801)">
<g clip-path="url(#clip5_1_3801)">
<rect x="193" y="234" width="19" height="19" rx="9.5" fill="#98C487"/>
</g>
</g>
<g filter="url(#filter26_i_1_3801)">
<g clip-path="url(#clip6_1_3801)">
<rect x="193" y="314" width="19" height="19" rx="9.5" fill="#98C487"/>
</g>
</g>
<g filter="url(#filter27_i_1_3801)">
<g clip-path="url(#clip7_1_3801)">
<rect x="193" y="395" width="19" height="19" rx="9.5" fill="#98C487"/>
</g>
</g>
<g filter="url(#filter28_d_1_3801)">
<rect x="63" y="490" width="200" height="50" rx="25" stroke="#F6F8ED" stroke-width="2"/>
<g filter="url(#filter29_d_1_3801)">
<path d="M150.357 500.32C150.012 500.32 149.723 500.213 149.489 499.998C149.265 499.774 149.153 499.499 149.153 499.172C149.153 498.845 149.265 498.575 149.489 498.36C149.723 498.136 150.012 498.024 150.357 498.024C150.703 498.024 150.987 498.136 151.211 498.36C151.445 498.575 151.561 498.845 151.561 499.172C151.561 499.499 151.445 499.774 151.211 499.998C150.987 500.213 150.703 500.32 150.357 500.32ZM151.323 501.244V509H149.363V501.244H151.323ZM157.558 501.132C158.482 501.132 159.229 501.426 159.798 502.014C160.367 502.593 160.652 503.405 160.652 504.45V509H158.692V504.716C158.692 504.1 158.538 503.629 158.23 503.302C157.922 502.966 157.502 502.798 156.97 502.798C156.429 502.798 155.999 502.966 155.682 503.302C155.374 503.629 155.22 504.1 155.22 504.716V509H153.26V501.244H155.22V502.21C155.481 501.874 155.813 501.613 156.214 501.426C156.625 501.23 157.073 501.132 157.558 501.132ZM165.554 501.118C166.132 501.118 166.641 501.235 167.08 501.468C167.518 501.692 167.864 501.986 168.116 502.35V501.244H170.09V509.056C170.09 509.775 169.945 510.414 169.656 510.974C169.366 511.543 168.932 511.991 168.354 512.318C167.775 512.654 167.075 512.822 166.254 512.822C165.152 512.822 164.247 512.565 163.538 512.052C162.838 511.539 162.441 510.839 162.348 509.952H164.294C164.396 510.307 164.616 510.587 164.952 510.792C165.297 511.007 165.712 511.114 166.198 511.114C166.767 511.114 167.229 510.941 167.584 510.596C167.938 510.26 168.116 509.747 168.116 509.056V507.852C167.864 508.216 167.514 508.519 167.066 508.762C166.627 509.005 166.123 509.126 165.554 509.126C164.9 509.126 164.303 508.958 163.762 508.622C163.22 508.286 162.791 507.815 162.474 507.208C162.166 506.592 162.012 505.887 162.012 505.094C162.012 504.31 162.166 503.615 162.474 503.008C162.791 502.401 163.216 501.935 163.748 501.608C164.289 501.281 164.891 501.118 165.554 501.118ZM168.116 505.122C168.116 504.646 168.022 504.24 167.836 503.904C167.649 503.559 167.397 503.297 167.08 503.12C166.762 502.933 166.422 502.84 166.058 502.84C165.694 502.84 165.358 502.929 165.05 503.106C164.742 503.283 164.49 503.545 164.294 503.89C164.107 504.226 164.014 504.627 164.014 505.094C164.014 505.561 164.107 505.971 164.294 506.326C164.49 506.671 164.742 506.937 165.05 507.124C165.367 507.311 165.703 507.404 166.058 507.404C166.422 507.404 166.762 507.315 167.08 507.138C167.397 506.951 167.649 506.69 167.836 506.354C168.022 506.009 168.116 505.598 168.116 505.122ZM173.964 502.448C174.216 502.037 174.543 501.715 174.944 501.482C175.355 501.249 175.821 501.132 176.344 501.132V503.19H175.826C175.21 503.19 174.743 503.335 174.426 503.624C174.118 503.913 173.964 504.417 173.964 505.136V509H172.004V501.244H173.964V502.448ZM184.874 504.954C184.874 505.234 184.856 505.486 184.818 505.71H179.148C179.195 506.27 179.391 506.709 179.736 507.026C180.082 507.343 180.506 507.502 181.01 507.502C181.738 507.502 182.256 507.189 182.564 506.564H184.678C184.454 507.311 184.025 507.927 183.39 508.412C182.756 508.888 181.976 509.126 181.052 509.126C180.306 509.126 179.634 508.963 179.036 508.636C178.448 508.3 177.986 507.829 177.65 507.222C177.324 506.615 177.16 505.915 177.16 505.122C177.16 504.319 177.324 503.615 177.65 503.008C177.977 502.401 178.434 501.935 179.022 501.608C179.61 501.281 180.287 501.118 181.052 501.118C181.79 501.118 182.448 501.277 183.026 501.594C183.614 501.911 184.067 502.364 184.384 502.952C184.711 503.531 184.874 504.198 184.874 504.954ZM182.844 504.394C182.835 503.89 182.653 503.489 182.298 503.19C181.944 502.882 181.51 502.728 180.996 502.728C180.511 502.728 180.1 502.877 179.764 503.176C179.438 503.465 179.237 503.871 179.162 504.394H182.844ZM185.801 505.094C185.801 504.31 185.955 503.615 186.263 503.008C186.58 502.401 187.01 501.935 187.551 501.608C188.092 501.281 188.694 501.118 189.357 501.118C189.861 501.118 190.342 501.23 190.799 501.454C191.256 501.669 191.62 501.958 191.891 502.322V498.64H193.879V509H191.891V507.852C191.648 508.235 191.308 508.543 190.869 508.776C190.43 509.009 189.922 509.126 189.343 509.126C188.69 509.126 188.092 508.958 187.551 508.622C187.01 508.286 186.58 507.815 186.263 507.208C185.955 506.592 185.801 505.887 185.801 505.094ZM191.905 505.122C191.905 504.646 191.812 504.24 191.625 503.904C191.438 503.559 191.186 503.297 190.869 503.12C190.552 502.933 190.211 502.84 189.847 502.84C189.483 502.84 189.147 502.929 188.839 503.106C188.531 503.283 188.279 503.545 188.083 503.89C187.896 504.226 187.803 504.627 187.803 505.094C187.803 505.561 187.896 505.971 188.083 506.326C188.279 506.671 188.531 506.937 188.839 507.124C189.156 507.311 189.492 507.404 189.847 507.404C190.211 507.404 190.552 507.315 190.869 507.138C191.186 506.951 191.438 506.69 191.625 506.354C191.812 506.009 191.905 505.598 191.905 505.122ZM196.787 500.32C196.442 500.32 196.152 500.213 195.919 499.998C195.695 499.774 195.583 499.499 195.583 499.172C195.583 498.845 195.695 498.575 195.919 498.36C196.152 498.136 196.442 498.024 196.787 498.024C197.132 498.024 197.417 498.136 197.641 498.36C197.874 498.575 197.991 498.845 197.991 499.172C197.991 499.499 197.874 499.774 197.641 499.998C197.417 500.213 197.132 500.32 196.787 500.32ZM197.753 501.244V509H195.793V501.244H197.753ZM206.9 504.954C206.9 505.234 206.881 505.486 206.844 505.71H201.174C201.22 506.27 201.416 506.709 201.762 507.026C202.107 507.343 202.532 507.502 203.036 507.502C203.764 507.502 204.282 507.189 204.59 506.564H206.704C206.48 507.311 206.05 507.927 205.416 508.412C204.781 508.888 204.002 509.126 203.078 509.126C202.331 509.126 201.659 508.963 201.062 508.636C200.474 508.3 200.012 507.829 199.676 507.222C199.349 506.615 199.186 505.915 199.186 505.122C199.186 504.319 199.349 503.615 199.676 503.008C200.002 502.401 200.46 501.935 201.048 501.608C201.636 501.281 202.312 501.118 203.078 501.118C203.815 501.118 204.473 501.277 205.052 501.594C205.64 501.911 206.092 502.364 206.41 502.952C206.736 503.531 206.9 504.198 206.9 504.954ZM204.87 504.394C204.86 503.89 204.678 503.489 204.324 503.19C203.969 502.882 203.535 502.728 203.022 502.728C202.536 502.728 202.126 502.877 201.79 503.176C201.463 503.465 201.262 503.871 201.188 504.394H204.87ZM212.628 501.132C213.552 501.132 214.299 501.426 214.868 502.014C215.438 502.593 215.722 503.405 215.722 504.45V509H213.762V504.716C213.762 504.1 213.608 503.629 213.3 503.302C212.992 502.966 212.572 502.798 212.04 502.798C211.499 502.798 211.07 502.966 210.752 503.302C210.444 503.629 210.29 504.1 210.29 504.716V509H208.33V501.244H210.29V502.21C210.552 501.874 210.883 501.613 211.284 501.426C211.695 501.23 212.143 501.132 212.628 501.132ZM219.868 502.854V506.606C219.868 506.867 219.929 507.059 220.05 507.18C220.181 507.292 220.395 507.348 220.694 507.348H221.604V509H220.372C218.72 509 217.894 508.197 217.894 506.592V502.854H216.97V501.244H217.894V499.326H219.868V501.244H221.604V502.854H219.868ZM225.156 506.942L223.518 510.876H222.258L223.168 506.942H225.156ZM157.637 526.094C157.637 525.31 157.791 524.615 158.099 524.008C158.416 523.401 158.845 522.935 159.387 522.608C159.928 522.281 160.53 522.118 161.193 522.118C161.697 522.118 162.177 522.23 162.635 522.454C163.092 522.669 163.456 522.958 163.727 523.322V519.64H165.715V530H163.727V528.852C163.484 529.235 163.143 529.543 162.705 529.776C162.266 530.009 161.757 530.126 161.179 530.126C160.525 530.126 159.928 529.958 159.387 529.622C158.845 529.286 158.416 528.815 158.099 528.208C157.791 527.592 157.637 526.887 157.637 526.094ZM163.741 526.122C163.741 525.646 163.647 525.24 163.461 524.904C163.274 524.559 163.022 524.297 162.705 524.12C162.387 523.933 162.047 523.84 161.683 523.84C161.319 523.84 160.983 523.929 160.675 524.106C160.367 524.283 160.115 524.545 159.919 524.89C159.732 525.226 159.639 525.627 159.639 526.094C159.639 526.561 159.732 526.971 159.919 527.326C160.115 527.671 160.367 527.937 160.675 528.124C160.992 528.311 161.328 528.404 161.683 528.404C162.047 528.404 162.387 528.315 162.705 528.138C163.022 527.951 163.274 527.69 163.461 527.354C163.647 527.009 163.741 526.598 163.741 526.122ZM168.623 521.32C168.278 521.32 167.988 521.213 167.755 520.998C167.531 520.774 167.419 520.499 167.419 520.172C167.419 519.845 167.531 519.575 167.755 519.36C167.988 519.136 168.278 519.024 168.623 519.024C168.968 519.024 169.253 519.136 169.477 519.36C169.71 519.575 169.827 519.845 169.827 520.172C169.827 520.499 169.71 520.774 169.477 520.998C169.253 521.213 168.968 521.32 168.623 521.32ZM169.589 522.244V530H167.629V522.244H169.589ZM174.494 530.126C173.859 530.126 173.29 530.014 172.786 529.79C172.282 529.557 171.88 529.244 171.582 528.852C171.292 528.46 171.134 528.026 171.106 527.55H173.08C173.117 527.849 173.262 528.096 173.514 528.292C173.775 528.488 174.097 528.586 174.48 528.586C174.853 528.586 175.142 528.511 175.348 528.362C175.562 528.213 175.67 528.021 175.67 527.788C175.67 527.536 175.539 527.349 175.278 527.228C175.026 527.097 174.62 526.957 174.06 526.808C173.481 526.668 173.005 526.523 172.632 526.374C172.268 526.225 171.95 525.996 171.68 525.688C171.418 525.38 171.288 524.965 171.288 524.442C171.288 524.013 171.409 523.621 171.652 523.266C171.904 522.911 172.258 522.631 172.716 522.426C173.182 522.221 173.728 522.118 174.354 522.118C175.278 522.118 176.015 522.351 176.566 522.818C177.116 523.275 177.42 523.896 177.476 524.68H175.6C175.572 524.372 175.441 524.129 175.208 523.952C174.984 523.765 174.68 523.672 174.298 523.672C173.943 523.672 173.668 523.737 173.472 523.868C173.285 523.999 173.192 524.181 173.192 524.414C173.192 524.675 173.322 524.876 173.584 525.016C173.845 525.147 174.251 525.282 174.802 525.422C175.362 525.562 175.824 525.707 176.188 525.856C176.552 526.005 176.864 526.239 177.126 526.556C177.396 526.864 177.536 527.275 177.546 527.788C177.546 528.236 177.42 528.637 177.168 528.992C176.925 529.347 176.57 529.627 176.104 529.832C175.646 530.028 175.11 530.126 174.494 530.126ZM183.522 522.132C184.11 522.132 184.633 522.263 185.09 522.524C185.548 522.776 185.902 523.154 186.154 523.658C186.416 524.153 186.546 524.75 186.546 525.45V530H184.586V525.716C184.586 525.1 184.432 524.629 184.124 524.302C183.816 523.966 183.396 523.798 182.864 523.798C182.323 523.798 181.894 523.966 181.576 524.302C181.268 524.629 181.114 525.1 181.114 525.716V530H179.154V519.64H181.114V523.21C181.366 522.874 181.702 522.613 182.122 522.426C182.542 522.23 183.009 522.132 183.522 522.132ZM190.552 527.942L188.914 531.876H187.654L188.564 527.942H190.552ZM202.511 525.954C202.511 526.234 202.492 526.486 202.455 526.71H196.785C196.832 527.27 197.028 527.709 197.373 528.026C197.718 528.343 198.143 528.502 198.647 528.502C199.375 528.502 199.893 528.189 200.201 527.564H202.315C202.091 528.311 201.662 528.927 201.027 529.412C200.392 529.888 199.613 530.126 198.689 530.126C197.942 530.126 197.27 529.963 196.673 529.636C196.085 529.3 195.623 528.829 195.287 528.222C194.96 527.615 194.797 526.915 194.797 526.122C194.797 525.319 194.96 524.615 195.287 524.008C195.614 523.401 196.071 522.935 196.659 522.608C197.247 522.281 197.924 522.118 198.689 522.118C199.426 522.118 200.084 522.277 200.663 522.594C201.251 522.911 201.704 523.364 202.021 523.952C202.348 524.531 202.511 525.198 202.511 525.954ZM200.481 525.394C200.472 524.89 200.29 524.489 199.935 524.19C199.58 523.882 199.146 523.728 198.633 523.728C198.148 523.728 197.737 523.877 197.401 524.176C197.074 524.465 196.874 524.871 196.799 525.394H200.481ZM206.224 523.854V527.606C206.224 527.867 206.284 528.059 206.406 528.18C206.536 528.292 206.751 528.348 207.05 528.348H207.96V530H206.728C205.076 530 204.25 529.197 204.25 527.592V523.854H203.326V522.244H204.25V520.326H206.224V522.244H207.96V523.854H206.224ZM208.865 526.122C208.865 525.319 209.029 524.619 209.355 524.022C209.682 523.415 210.135 522.949 210.713 522.622C211.292 522.286 211.955 522.118 212.701 522.118C213.663 522.118 214.456 522.361 215.081 522.846C215.716 523.322 216.141 523.994 216.355 524.862H214.241C214.129 524.526 213.938 524.265 213.667 524.078C213.406 523.882 213.079 523.784 212.687 523.784C212.127 523.784 211.684 523.989 211.357 524.4C211.031 524.801 210.867 525.375 210.867 526.122C210.867 526.859 211.031 527.433 211.357 527.844C211.684 528.245 212.127 528.446 212.687 528.446C213.481 528.446 213.999 528.091 214.241 527.382H216.355C216.141 528.222 215.716 528.889 215.081 529.384C214.447 529.879 213.653 530.126 212.701 530.126C211.955 530.126 211.292 529.963 210.713 529.636C210.135 529.3 209.682 528.833 209.355 528.236C209.029 527.629 208.865 526.925 208.865 526.122Z" fill="#F6F8ED"/>
</g>
</g>
<g filter="url(#filter30_d_1_3801)">
<path d="M119.317 514.011L115.938 510.628L113.339 509.553C114.205 508.32 114.668 506.85 114.667 505.344C114.667 501.294 111.377 498 107.333 498C103.29 498 100 501.294 100 505.344C100 509.393 103.29 512.688 107.333 512.688C108.851 512.689 110.331 512.217 111.567 511.337L112.638 513.932L116.017 517.316C116.233 517.533 116.491 517.705 116.774 517.822C117.057 517.94 117.36 518 117.667 518C117.973 518 118.276 517.94 118.56 517.822C118.843 517.705 119.1 517.533 119.317 517.316C119.533 517.099 119.705 516.841 119.822 516.558C119.94 516.274 120 515.97 120 515.663C120 515.356 119.94 515.053 119.822 514.769C119.705 514.486 119.533 514.228 119.317 514.011ZM101.333 505.344C101.333 502.031 104.025 499.335 107.333 499.335C110.642 499.335 113.333 502.031 113.333 505.344C113.333 508.657 110.642 511.352 107.333 511.352C104.025 511.352 101.333 508.657 101.333 505.344ZM118.374 516.371C118.186 516.559 117.932 516.664 117.667 516.664C117.401 516.664 117.147 516.559 116.96 516.371L113.769 513.176L112.773 510.763L115.183 511.76L118.374 514.955C118.561 515.143 118.666 515.398 118.666 515.663C118.666 515.929 118.561 516.183 118.374 516.371Z" fill="#F6F8ED"/>
<path d="M119.317 514.011L115.938 510.628L113.339 509.553C114.205 508.32 114.668 506.85 114.667 505.344C114.667 501.294 111.377 498 107.333 498C103.29 498 100 501.294 100 505.344C100 509.393 103.29 512.688 107.333 512.688C108.851 512.689 110.331 512.217 111.567 511.337L112.638 513.932L116.017 517.316C116.233 517.533 116.491 517.705 116.774 517.822C117.057 517.94 117.36 518 117.667 518C117.973 518 118.276 517.94 118.56 517.822C118.843 517.705 119.1 517.533 119.317 517.316C119.533 517.099 119.705 516.841 119.822 516.558C119.94 516.274 120 515.97 120 515.663C120 515.356 119.94 515.053 119.822 514.769C119.705 514.486 119.533 514.228 119.317 514.011ZM101.333 505.344C101.333 502.031 104.025 499.335 107.333 499.335C110.642 499.335 113.333 502.031 113.333 505.344C113.333 508.657 110.642 511.352 107.333 511.352C104.025 511.352 101.333 508.657 101.333 505.344ZM118.374 516.371C118.186 516.559 117.932 516.664 117.667 516.664C117.401 516.664 117.147 516.559 116.96 516.371L113.769 513.176L112.773 510.763L115.183 511.76L118.374 514.955C118.561 515.143 118.666 515.398 118.666 515.663C118.666 515.929 118.561 516.183 118.374 516.371Z" stroke="#F6F8ED" stroke-width="0.5"/>
</g>
<g filter="url(#filter31_d_1_3801)">
<path d="M95.2758 531.09C94.8225 531.09 94.4158 531.01 94.0558 530.85C93.6958 530.683 93.4092 530.46 93.1958 530.18C92.9892 529.9 92.8758 529.59 92.8558 529.25H94.2658C94.2925 529.463 94.3958 529.64 94.5758 529.78C94.7625 529.92 94.9925 529.99 95.2658 529.99C95.5325 529.99 95.7392 529.937 95.8858 529.83C96.0392 529.723 96.1158 529.587 96.1158 529.42C96.1158 529.24 96.0225 529.107 95.8358 529.02C95.6558 528.927 95.3658 528.827 94.9658 528.72C94.5525 528.62 94.2125 528.517 93.9458 528.41C93.6858 528.303 93.4592 528.14 93.2658 527.92C93.0792 527.7 92.9858 527.403 92.9858 527.03C92.9858 526.723 93.0725 526.443 93.2458 526.19C93.4258 525.937 93.6792 525.737 94.0058 525.59C94.3392 525.443 94.7292 525.37 95.1758 525.37C95.8358 525.37 96.3625 525.537 96.7558 525.87C97.1492 526.197 97.3658 526.64 97.4058 527.2H96.0658C96.0458 526.98 95.9525 526.807 95.7858 526.68C95.6258 526.547 95.4092 526.48 95.1358 526.48C94.8825 526.48 94.6858 526.527 94.5458 526.62C94.4125 526.713 94.3458 526.843 94.3458 527.01C94.3458 527.197 94.4392 527.34 94.6258 527.44C94.8125 527.533 95.1025 527.63 95.4958 527.73C95.8958 527.83 96.2258 527.933 96.4858 528.04C96.7458 528.147 96.9692 528.313 97.1558 528.54C97.3492 528.76 97.4492 529.053 97.4558 529.42C97.4558 529.74 97.3658 530.027 97.1858 530.28C97.0125 530.533 96.7592 530.733 96.4258 530.88C96.0992 531.02 95.7158 531.09 95.2758 531.09ZM103.755 528.11C103.755 528.31 103.742 528.49 103.715 528.65H99.665C99.6984 529.05 99.8384 529.363 100.085 529.59C100.332 529.817 100.635 529.93 100.995 529.93C101.515 529.93 101.885 529.707 102.105 529.26H103.615C103.455 529.793 103.148 530.233 102.695 530.58C102.242 530.92 101.685 531.09 101.025 531.09C100.492 531.09 100.012 530.973 99.585 530.74C99.165 530.5 98.835 530.163 98.595 529.73C98.3617 529.297 98.245 528.797 98.245 528.23C98.245 527.657 98.3617 527.153 98.595 526.72C98.8284 526.287 99.155 525.953 99.575 525.72C99.995 525.487 100.478 525.37 101.025 525.37C101.552 525.37 102.022 525.483 102.435 525.71C102.855 525.937 103.178 526.26 103.405 526.68C103.638 527.093 103.755 527.57 103.755 528.11ZM102.305 527.71C102.298 527.35 102.168 527.063 101.915 526.85C101.662 526.63 101.352 526.52 100.985 526.52C100.638 526.52 100.345 526.627 100.105 526.84C99.8717 527.047 99.7284 527.337 99.675 527.71H102.305ZM104.417 528.21C104.417 527.65 104.527 527.153 104.747 526.72C104.974 526.287 105.277 525.953 105.657 525.72C106.044 525.487 106.474 525.37 106.947 525.37C107.36 525.37 107.72 525.453 108.027 525.62C108.34 525.787 108.59 525.997 108.777 526.25V525.46H110.187V531H108.777V530.19C108.597 530.45 108.347 530.667 108.027 530.84C107.714 531.007 107.35 531.09 106.937 531.09C106.47 531.09 106.044 530.97 105.657 530.73C105.277 530.49 104.974 530.153 104.747 529.72C104.527 529.28 104.417 528.777 104.417 528.21ZM108.777 528.23C108.777 527.89 108.71 527.6 108.577 527.36C108.444 527.113 108.264 526.927 108.037 526.8C107.81 526.667 107.567 526.6 107.307 526.6C107.047 526.6 106.807 526.663 106.587 526.79C106.367 526.917 106.187 527.103 106.047 527.35C105.914 527.59 105.847 527.877 105.847 528.21C105.847 528.543 105.914 528.837 106.047 529.09C106.187 529.337 106.367 529.527 106.587 529.66C106.814 529.793 107.054 529.86 107.307 529.86C107.567 529.86 107.81 529.797 108.037 529.67C108.264 529.537 108.444 529.35 108.577 529.11C108.71 528.863 108.777 528.57 108.777 528.23ZM112.954 526.32C113.134 526.027 113.368 525.797 113.654 525.63C113.948 525.463 114.281 525.38 114.654 525.38V526.85H114.284C113.844 526.85 113.511 526.953 113.284 527.16C113.064 527.367 112.954 527.727 112.954 528.24V531H111.554V525.46H112.954V526.32ZM115.237 528.23C115.237 527.657 115.354 527.157 115.587 526.73C115.821 526.297 116.144 525.963 116.557 525.73C116.971 525.49 117.444 525.37 117.977 525.37C118.664 525.37 119.231 525.543 119.677 525.89C120.131 526.23 120.434 526.71 120.587 527.33H119.077C118.997 527.09 118.861 526.903 118.667 526.77C118.481 526.63 118.247 526.56 117.967 526.56C117.567 526.56 117.251 526.707 117.017 527C116.784 527.287 116.667 527.697 116.667 528.23C116.667 528.757 116.784 529.167 117.017 529.46C117.251 529.747 117.567 529.89 117.967 529.89C118.534 529.89 118.904 529.637 119.077 529.13H120.587C120.434 529.73 120.131 530.207 119.677 530.56C119.224 530.913 118.657 531.09 117.977 531.09C117.444 531.09 116.971 530.973 116.557 530.74C116.144 530.5 115.821 530.167 115.587 529.74C115.354 529.307 115.237 528.803 115.237 528.23ZM124.733 525.38C125.153 525.38 125.526 525.473 125.853 525.66C126.18 525.84 126.433 526.11 126.613 526.47C126.8 526.823 126.893 527.25 126.893 527.75V531H125.493V527.94C125.493 527.5 125.383 527.163 125.163 526.93C124.943 526.69 124.643 526.57 124.263 526.57C123.876 526.57 123.57 526.69 123.343 526.93C123.123 527.163 123.013 527.5 123.013 527.94V531H121.613V523.6H123.013V526.15C123.193 525.91 123.433 525.723 123.733 525.59C124.033 525.45 124.366 525.38 124.733 525.38Z" fill="#F6F8ED"/>
</g>
</g>
<defs>
<filter id="filter0_d_1_3801" x="0" y="0" width="328" height="576" filterUnits="userSpaceOnUse" color-interpolation-filters="sRGB">
<feFlood flood-opacity="0" result="BackgroundImageFix"/>
<feColorMatrix in="SourceAlpha" type="matrix" values="0 0 0 0 0 0 0 0 0 0 0 0 0 0 0 0 0 0 127 0" result="hardAlpha"/>
<feOffset dy="4"/>
<feGaussianBlur stdDeviation="2"/>
<feComposite in2="hardAlpha" operator="out"/>
<feColorMatrix type="matrix" values="0 0 0 0 0 0 0 0 0 0 0 0 0 0 0 0 0 0 0.25 0"/>
<feBlend mode="normal" in2="BackgroundImageFix" result="effect1_dropShadow_1_3801"/>
<feBlend mode="normal" in="SourceGraphic" in2="effect1_dropShadow_1_3801" result="shape"/>
</filter>
<filter id="filter1_d_1_3801" x="54" y="35" width="218" height="68" filterUnits="userSpaceOnUse" color-interpolation-filters="sRGB">
<feFlood flood-opacity="0" result="BackgroundImageFix"/>
<feColorMatrix in="SourceAlpha" type="matrix" values="0 0 0 0 0 0 0 0 0 0 0 0 0 0 0 0 0 0 127 0" result="hardAlpha"/>
<feOffset dy="4"/>
<feGaussianBlur stdDeviation="4"/>
<feComposite in2="hardAlpha" operator="out"/>
<feColorMatrix type="matrix" values="0 0 0 0 0 0 0 0 0 0 0 0 0 0 0 0 0 0 0.25 0"/>
<feBlend mode="normal" in2="BackgroundImageFix" result="effect1_dropShadow_1_3801"/>
<feBlend mode="normal" in="SourceGraphic" in2="effect1_dropShadow_1_3801" result="shape"/>
</filter>
<filter id="filter2_d_1_3801" x="92" y="49" width="28" height="22.4452" filterUnits="userSpaceOnUse" color-interpolation-filters="sRGB">
<feFlood flood-opacity="0" result="BackgroundImageFix"/>
<feColorMatrix in="SourceAlpha" type="matrix" values="0 0 0 0 0 0 0 0 0 0 0 0 0 0 0 0 0 0 127 0" result="hardAlpha"/>
<feOffset dy="4"/>
<feGaussianBlur stdDeviation="2"/>
<feComposite in2="hardAlpha" operator="out"/>
<feColorMatrix type="matrix" values="0 0 0 0 0 0 0 0 0 0 0 0 0 0 0 0 0 0 0.25 0"/>
<feBlend mode="normal" in2="BackgroundImageFix" result="effect1_dropShadow_1_3801"/>
<feBlend mode="normal" in="SourceGraphic" in2="effect1_dropShadow_1_3801" result="shape"/>
</filter>
<filter id="filter3_d_1_3801" x="96.1311" y="65.6668" width="11.0984" height="11.3332" filterUnits="userSpaceOnUse" color-interpolation-filters="sRGB">
<feFlood flood-opacity="0" result="BackgroundImageFix"/>
<feColorMatrix in="SourceAlpha" type="matrix" values="0 0 0 0 0 0 0 0 0 0 0 0 0 0 0 0 0 0 127 0" result="hardAlpha"/>
<feOffset dy="4"/>
<feGaussianBlur stdDeviation="2"/>
<feComposite in2="hardAlpha" operator="out"/>
<feColorMatrix type="matrix" values="0 0 0 0 0 0 0 0 0 0 0 0 0 0 0 0 0 0 0.25 0"/>
<feBlend mode="normal" in2="BackgroundImageFix" result="effect1_dropShadow_1_3801"/>
<feBlend mode="normal" in="SourceGraphic" in2="effect1_dropShadow_1_3801" result="shape"/>
</filter>
<filter id="filter4_d_1_3801" x="106.459" y="65.6668" width="11.0984" height="11.3332" filterUnits="userSpaceOnUse" color-interpolation-filters="sRGB">
<feFlood flood-opacity="0" result="BackgroundImageFix"/>
<feColorMatrix in="SourceAlpha" type="matrix" values="0 0 0 0 0 0 0 0 0 0 0 0 0 0 0 0 0 0 127 0" result="hardAlpha"/>
<feOffset dy="4"/>
<feGaussianBlur stdDeviation="2"/>
<feComposite in2="hardAlpha" operator="out"/>
<feColorMatrix type="matrix" values="0 0 0 0 0 0 0 0 0 0 0 0 0 0 0 0 0 0 0.25 0"/>
<feBlend mode="normal" in2="BackgroundImageFix" result="effect1_dropShadow_1_3801"/>
<feBlend mode="normal" in="SourceGraphic" in2="effect1_dropShadow_1_3801" result="shape"/>
</filter>
<filter id="filter5_d_1_3801" x="84.7437" y="73.6" width="41.8856" height="15.4901" filterUnits="userSpaceOnUse" color-interpolation-filters="sRGB">
<feFlood flood-opacity="0" result="BackgroundImageFix"/>
<feColorMatrix in="SourceAlpha" type="matrix" values="0 0 0 0 0 0 0 0 0 0 0 0 0 0 0 0 0 0 127 0" result="hardAlpha"/>
<feOffset dy="4"/>
<feGaussianBlur stdDeviation="2"/>
<feComposite in2="hardAlpha" operator="out"/>
<feColorMatrix type="matrix" values="0 0 0 0 0 0 0 0 0 0 0 0 0 0 0 0 0 0 0.25 0"/>
<feBlend mode="normal" in2="BackgroundImageFix" result="effect1_dropShadow_1_3801"/>
<feBlend mode="normal" in="SourceGraphic" in2="effect1_dropShadow_1_3801" result="shape"/>
</filter>
<filter id="filter6_d_1_3801" x="201.499" y="73.16" width="39.361" height="18.48" filterUnits="userSpaceOnUse" color-interpolation-filters="sRGB">
<feFlood flood-opacity="0" result="BackgroundImageFix"/>
<feColorMatrix in="SourceAlpha" type="matrix" values="0 0 0 0 0 0 0 0 0 0 0 0 0 0 0 0 0 0 127 0" result="hardAlpha"/>
<feOffset dy="4"/>
<feGaussianBlur stdDeviation="2"/>
<feComposite in2="hardAlpha" operator="out"/>
<feColorMatrix type="matrix" values="0 0 0 0 0 0 0 0 0 0 0 0 0 0 0 0 0 0 0.25 0"/>
<feBlend mode="normal" in2="BackgroundImageFix" result="effect1_dropShadow_1_3801"/>
<feBlend mode="normal" in="SourceGraphic" in2="effect1_dropShadow_1_3801" result="shape"/>
</filter>
<filter id="filter7_d_1_3801" x="203" y="45" width="36" height="36" filterUnits="userSpaceOnUse" color-interpolation-filters="sRGB">
<feFlood flood-opacity="0" result="BackgroundImageFix"/>
<feColorMatrix in="SourceAlpha" type="matrix" values="0 0 0 0 0 0 0 0 0 0 0 0 0 0 0 0 0 0 127 0" result="hardAlpha"/>
<feOffset dy="4"/>
<feGaussianBlur stdDeviation="4"/>
<feComposite in2="hardAlpha" operator="out"/>
<feColorMatrix type="matrix" values="0 0 0 0 0 0 0 0 0 0 0 0 0 0 0 0 0 0 0.25 0"/>
<feBlend mode="normal" in2="BackgroundImageFix" result="effect1_dropShadow_1_3801"/>
<feBlend mode="normal" in="SourceGraphic" in2="effect1_dropShadow_1_3801" result="shape"/>
</filter>
<filter id="filter8_d_1_3801" x="141.5" y="49.3746" width="41.1772" height="38.1246" filterUnits="userSpaceOnUse" color-interpolation-filters="sRGB">
<feFlood flood-opacity="0" result="BackgroundImageFix"/>
<feColorMatrix in="SourceAlpha" type="matrix" values="0 0 0 0 0 0 0 0 0 0 0 0 0 0 0 0 0 0 127 0" result="hardAlpha"/>
<feOffset dy="4"/>
<feGaussianBlur stdDeviation="2"/>
<feComposite in2="hardAlpha" operator="out"/>
<feColorMatrix type="matrix" values="0 0 0 0 0 0 0 0 0 0 0 0 0 0 0 0 0 0 0.25 0"/>
<feBlend mode="normal" in2="BackgroundImageFix" result="effect1_dropShadow_1_3801"/>
<feBlend mode="normal" in="SourceGraphic" in2="effect1_dropShadow_1_3801" result="shape"/>
</filter>
<filter id="filter9_d_1_3801" x="170" y="134" width="128" height="68" filterUnits="userSpaceOnUse" color-interpolation-filters="sRGB">
<feFlood flood-opacity="0" result="BackgroundImageFix"/>
<feColorMatrix in="SourceAlpha" type="matrix" values="0 0 0 0 0 0 0 0 0 0 0 0 0 0 0 0 0 0 127 0" result="hardAlpha"/>
<feOffset dy="4"/>
<feGaussianBlur stdDeviation="2"/>
<feComposite in2="hardAlpha" operator="out"/>
<feColorMatrix type="matrix" values="0 0 0 0 0 0 0 0 0 0 0 0 0 0 0 0 0 0 0.25 0"/>
<feBlend mode="normal" in2="BackgroundImageFix" result="effect1_dropShadow_1_3801"/>
<feBlend mode="normal" in="SourceGraphic" in2="effect1_dropShadow_1_3801" result="shape"/>
</filter>
<filter id="filter10_d_1_3801" x="30" y="134" width="128" height="68" filterUnits="userSpaceOnUse" color-interpolation-filters="sRGB">
<feFlood flood-opacity="0" result="BackgroundImageFix"/>
<feColorMatrix in="SourceAlpha" type="matrix" values="0 0 0 0 0 0 0 0 0 0 0 0 0 0 0 0 0 0 127 0" result="hardAlpha"/>
<feOffset dy="4"/>
<feGaussianBlur stdDeviation="2"/>
<feComposite in2="hardAlpha" operator="out"/>
<feColorMatrix type="matrix" values="0 0 0 0 0 0 0 0 0 0 0 0 0 0 0 0 0 0 0.25 0"/>
<feBlend mode="normal" in2="BackgroundImageFix" result="effect1_dropShadow_1_3801"/>
<feBlend mode="normal" in="SourceGraphic" in2="effect1_dropShadow_1_3801" result="shape"/>
</filter>
<filter id="filter11_i_1_3801" x="53" y="155" width="19" height="23" filterUnits="userSpaceOnUse" color-interpolation-filters="sRGB">
<feFlood flood-opacity="0" result="BackgroundImageFix"/>
<feBlend mode="normal" in="SourceGraphic" in2="BackgroundImageFix" result="shape"/>
<feColorMatrix in="SourceAlpha" type="matrix" values="0 0 0 0 0 0 0 0 0 0 0 0 0 0 0 0 0 0 127 0" result="hardAlpha"/>
<feOffset dy="4"/>
<feGaussianBlur stdDeviation="2"/>
<feComposite in2="hardAlpha" operator="arithmetic" k2="-1" k3="1"/>
<feColorMatrix type="matrix" values="0 0 0 0 0 0 0 0 0 0 0 0 0 0 0 0 0 0 0.25 0"/>
<feBlend mode="normal" in2="shape" result="effect1_innerShadow_1_3801"/>
</filter>
<filter id="filter12_i_1_3801" x="193" y="155" width="19" height="23" filterUnits="userSpaceOnUse" color-interpolation-filters="sRGB">
<feFlood flood-opacity="0" result="BackgroundImageFix"/>
<feBlend mode="normal" in="SourceGraphic" in2="BackgroundImageFix" result="shape"/>
<feColorMatrix in="SourceAlpha" type="matrix" values="0 0 0 0 0 0 0 0 0 0 0 0 0 0 0 0 0 0 127 0" result="hardAlpha"/>
<feOffset dy="4"/>
<feGaussianBlur stdDeviation="2"/>
<feComposite in2="hardAlpha" operator="arithmetic" k2="-1" k3="1"/>
<feColorMatrix type="matrix" values="0 0 0 0 0 0 0 0 0 0 0 0 0 0 0 0 0 0 0.25 0"/>
<feBlend mode="normal" in2="shape" result="effect1_innerShadow_1_3801"/>
</filter>
<filter id="filter13_d_1_3801" x="194" y="160" width="17" height="17" filterUnits="userSpaceOnUse" color-interpolation-filters="sRGB">
<feFlood flood-opacity="0" result="BackgroundImageFix"/>
<feColorMatrix in="SourceAlpha" type="matrix" values="0 0 0 0 0 0 0 0 0 0 0 0 0 0 0 0 0 0 127 0" result="hardAlpha"/>
<feOffset dy="4"/>
<feGaussianBlur stdDeviation="2"/>
<feComposite in2="hardAlpha" operator="out"/>
<feColorMatrix type="matrix" values="0 0 0 0 0 0 0 0 0 0 0 0 0 0 0 0 0 0 0.25 0"/>
<feBlend mode="normal" in2="BackgroundImageFix" result="effect1_dropShadow_1_3801"/>
<feBlend mode="normal" in="SourceGraphic" in2="effect1_dropShadow_1_3801" result="shape"/>
</filter>
<filter id="filter14_d_1_3801" x="170" y="214" width="128" height="68" filterUnits="userSpaceOnUse" color-interpolation-filters="sRGB">
<feFlood flood-opacity="0" result="BackgroundImageFix"/>
<feColorMatrix in="SourceAlpha" type="matrix" values="0 0 0 0 0 0 0 0 0 0 0 0 0 0 0 0 0 0 127 0" result="hardAlpha"/>
<feOffset dy="4"/>
<feGaussianBlur stdDeviation="2"/>
<feComposite in2="hardAlpha" operator="out"/>
<feColorMatrix type="matrix" values="0 0 0 0 0 0 0 0 0 0 0 0 0 0 0 0 0 0 0.25 0"/>
<feBlend mode="normal" in2="BackgroundImageFix" result="effect1_dropShadow_1_3801"/>
<feBlend mode="normal" in="SourceGraphic" in2="effect1_dropShadow_1_3801" result="shape"/>
</filter>
<filter id="filter15_d_1_3801" x="30" y="214" width="128" height="68" filterUnits="userSpaceOnUse" color-interpolation-filters="sRGB">
<feFlood flood-opacity="0" result="BackgroundImageFix"/>
<feColorMatrix in="SourceAlpha" type="matrix" values="0 0 0 0 0 0 0 0 0 0 0 0 0 0 0 0 0 0 127 0" result="hardAlpha"/>
<feOffset dy="4"/>
<feGaussianBlur stdDeviation="2"/>
<feComposite in2="hardAlpha" operator="out"/>
<feColorMatrix type="matrix" values="0 0 0 0 0 0 0 0 0 0 0 0 0 0 0 0 0 0 0.25 0"/>
<feBlend mode="normal" in2="BackgroundImageFix" result="effect1_dropShadow_1_3801"/>
<feBlend mode="normal" in="SourceGraphic" in2="effect1_dropShadow_1_3801" result="shape"/>
</filter>
<filter id="filter16_d_1_3801" x="170" y="294" width="128" height="68" filterUnits="userSpaceOnUse" color-interpolation-filters="sRGB">
<feFlood flood-opacity="0" result="BackgroundImageFix"/>
<feColorMatrix in="SourceAlpha" type="matrix" values="0 0 0 0 0 0 0 0 0 0 0 0 0 0 0 0 0 0 127 0" result="hardAlpha"/>
<feOffset dy="4"/>
<feGaussianBlur stdDeviation="2"/>
<feComposite in2="hardAlpha" operator="out"/>
<feColorMatrix type="matrix" values="0 0 0 0 0 0 0 0 0 0 0 0 0 0 0 0 0 0 0.25 0"/>
<feBlend mode="normal" in2="BackgroundImageFix" result="effect1_dropShadow_1_3801"/>
<feBlend mode="normal" in="SourceGraphic" in2="effect1_dropShadow_1_3801" result="shape"/>
</filter>
<filter id="filter17_d_1_3801" x="30" y="294" width="128" height="68" filterUnits="userSpaceOnUse" color-interpolation-filters="sRGB">
<feFlood flood-opacity="0" result="BackgroundImageFix"/>
<feColorMatrix in="SourceAlpha" type="matrix" values="0 0 0 0 0 0 0 0 0 0 0 0 0 0 0 0 0 0 127 0" result="hardAlpha"/>
<feOffset dy="4"/>
<feGaussianBlur stdDeviation="2"/>
<feComposite in2="hardAlpha" operator="out"/>
<feColorMatrix type="matrix" values="0 0 0 0 0 0 0 0 0 0 0 0 0 0 0 0 0 0 0.25 0"/>
<feBlend mode="normal" in2="BackgroundImageFix" result="effect1_dropShadow_1_3801"/>
<feBlend mode="normal" in="SourceGraphic" in2="effect1_dropShadow_1_3801" result="shape"/>
</filter>
<filter id="filter18_d_1_3801" x="170" y="374" width="128" height="68" filterUnits="userSpaceOnUse" color-interpolation-filters="sRGB">
<feFlood flood-opacity="0" result="BackgroundImageFix"/>
<feColorMatrix in="SourceAlpha" type="matrix" values="0 0 0 0 0 0 0 0 0 0 0 0 0 0 0 0 0 0 127 0" result="hardAlpha"/>
<feOffset dy="4"/>
<feGaussianBlur stdDeviation="2"/>
<feComposite in2="hardAlpha" operator="out"/>
<feColorMatrix type="matrix" values="0 0 0 0 0 0 0 0 0 0 0 0 0 0 0 0 0 0 0.25 0"/>
<feBlend mode="normal" in2="BackgroundImageFix" result="effect1_dropShadow_1_3801"/>
<feBlend mode="normal" in="SourceGraphic" in2="effect1_dropShadow_1_3801" result="shape"/>
</filter>
<filter id="filter19_d_1_3801" x="30" y="374" width="128" height="68" filterUnits="userSpaceOnUse" color-interpolation-filters="sRGB">
<feFlood flood-opacity="0" result="BackgroundImageFix"/>
<feColorMatrix in="SourceAlpha" type="matrix" values="0 0 0 0 0 0 0 0 0 0 0 0 0 0 0 0 0 0 127 0" result="hardAlpha"/>
<feOffset dy="4"/>
<feGaussianBlur stdDeviation="2"/>
<feComposite in2="hardAlpha" operator="out"/>
<feColorMatrix type="matrix" values="0 0 0 0 0 0 0 0 0 0 0 0 0 0 0 0 0 0 0.25 0"/>
<feBlend mode="normal" in2="BackgroundImageFix" result="effect1_dropShadow_1_3801"/>
<feBlend mode="normal" in="SourceGraphic" in2="effect1_dropShadow_1_3801" result="shape"/>
</filter>
<filter id="filter20_i_1_3801" x="53" y="234" width="19" height="23" filterUnits="userSpaceOnUse" color-interpolation-filters="sRGB">
<feFlood flood-opacity="0" result="BackgroundImageFix"/>
<feBlend mode="normal" in="SourceGraphic" in2="BackgroundImageFix" result="shape"/>
<feColorMatrix in="SourceAlpha" type="matrix" values="0 0 0 0 0 0 0 0 0 0 0 0 0 0 0 0 0 0 127 0" result="hardAlpha"/>
<feOffset dy="4"/>
<feGaussianBlur stdDeviation="2"/>
<feComposite in2="hardAlpha" operator="arithmetic" k2="-1" k3="1"/>
<feColorMatrix type="matrix" values="0 0 0 0 0 0 0 0 0 0 0 0 0 0 0 0 0 0 0.25 0"/>
<feBlend mode="normal" in2="shape" result="effect1_innerShadow_1_3801"/>
</filter>
<filter id="filter21_d_1_3801" x="54" y="239" width="17" height="17" filterUnits="userSpaceOnUse" color-interpolation-filters="sRGB">
<feFlood flood-opacity="0" result="BackgroundImageFix"/>
<feColorMatrix in="SourceAlpha" type="matrix" values="0 0 0 0 0 0 0 0 0 0 0 0 0 0 0 0 0 0 127 0" result="hardAlpha"/>
<feOffset dy="4"/>
<feGaussianBlur stdDeviation="2"/>
<feComposite in2="hardAlpha" operator="out"/>
<feColorMatrix type="matrix" values="0 0 0 0 0 0 0 0 0 0 0 0 0 0 0 0 0 0 0.25 0"/>
<feBlend mode="normal" in2="BackgroundImageFix" result="effect1_dropShadow_1_3801"/>
<feBlend mode="normal" in="SourceGraphic" in2="effect1_dropShadow_1_3801" result="shape"/>
</filter>
<filter id="filter22_i_1_3801" x="53" y="314" width="19" height="23" filterUnits="userSpaceOnUse" color-interpolation-filters="sRGB">
<feFlood flood-opacity="0" result="BackgroundImageFix"/>
<feBlend mode="normal" in="SourceGraphic" in2="BackgroundImageFix" result="shape"/>
<feColorMatrix in="SourceAlpha" type="matrix" values="0 0 0 0 0 0 0 0 0 0 0 0 0 0 0 0 0 0 127 0" result="hardAlpha"/>
<feOffset dy="4"/>
<feGaussianBlur stdDeviation="2"/>
<feComposite in2="hardAlpha" operator="arithmetic" k2="-1" k3="1"/>
<feColorMatrix type="matrix" values="0 0 0 0 0 0 0 0 0 0 0 0 0 0 0 0 0 0 0.25 0"/>
<feBlend mode="normal" in2="shape" result="effect1_innerShadow_1_3801"/>
</filter>
<filter id="filter23_i_1_3801" x="53" y="395" width="19" height="23" filterUnits="userSpaceOnUse" color-interpolation-filters="sRGB">
<feFlood flood-opacity="0" result="BackgroundImageFix"/>
<feBlend mode="normal" in="SourceGraphic" in2="BackgroundImageFix" result="shape"/>
<feColorMatrix in="SourceAlpha" type="matrix" values="0 0 0 0 0 0 0 0 0 0 0 0 0 0 0 0 0 0 127 0" result="hardAlpha"/>
<feOffset dy="4"/>
<feGaussianBlur stdDeviation="2"/>
<feComposite in2="hardAlpha" operator="arithmetic" k2="-1" k3="1"/>
<feColorMatrix type="matrix" values="0 0 0 0 0 0 0 0 0 0 0 0 0 0 0 0 0 0 0.25 0"/>
<feBlend mode="normal" in2="shape" result="effect1_innerShadow_1_3801"/>
</filter>
<filter id="filter24_d_1_3801" x="54" y="400" width="17" height="17" filterUnits="userSpaceOnUse" color-interpolation-filters="sRGB">
<feFlood flood-opacity="0" result="BackgroundImageFix"/>
<feColorMatrix in="SourceAlpha" type="matrix" values="0 0 0 0 0 0 0 0 0 0 0 0 0 0 0 0 0 0 127 0" result="hardAlpha"/>
<feOffset dy="4"/>
<feGaussianBlur stdDeviation="2"/>
<feComposite in2="hardAlpha" operator="out"/>
<feColorMatrix type="matrix" values="0 0 0 0 0 0 0 0 0 0 0 0 0 0 0 0 0 0 0.25 0"/>
<feBlend mode="normal" in2="BackgroundImageFix" result="effect1_dropShadow_1_3801"/>
<feBlend mode="normal" in="SourceGraphic" in2="effect1_dropShadow_1_3801" result="shape"/>
</filter>
<filter id="filter25_i_1_3801" x="193" y="234" width="19" height="23" filterUnits="userSpaceOnUse" color-interpolation-filters="sRGB">
<feFlood flood-opacity="0" result="BackgroundImageFix"/>
<feBlend mode="normal" in="SourceGraphic" in2="BackgroundImageFix" result="shape"/>
<feColorMatrix in="SourceAlpha" type="matrix" values="0 0 0 0 0 0 0 0 0 0 0 0 0 0 0 0 0 0 127 0" result="hardAlpha"/>
<feOffset dy="4"/>
<feGaussianBlur stdDeviation="2"/>
<feComposite in2="hardAlpha" operator="arithmetic" k2="-1" k3="1"/>
<feColorMatrix type="matrix" values="0 0 0 0 0 0 0 0 0 0 0 0 0 0 0 0 0 0 0.25 0"/>
<feBlend mode="normal" in2="shape" result="effect1_innerShadow_1_3801"/>
</filter>
<filter id="filter26_i_1_3801" x="193" y="314" width="19" height="23" filterUnits="userSpaceOnUse" color-interpolation-filters="sRGB">
<feFlood flood-opacity="0" result="BackgroundImageFix"/>
<feBlend mode="normal" in="SourceGraphic" in2="BackgroundImageFix" result="shape"/>
<feColorMatrix in="SourceAlpha" type="matrix" values="0 0 0 0 0 0 0 0 0 0 0 0 0 0 0 0 0 0 127 0" result="hardAlpha"/>
<feOffset dy="4"/>
<feGaussianBlur stdDeviation="2"/>
<feComposite in2="hardAlpha" operator="arithmetic" k2="-1" k3="1"/>
<feColorMatrix type="matrix" values="0 0 0 0 0 0 0 0 0 0 0 0 0 0 0 0 0 0 0.25 0"/>
<feBlend mode="normal" in2="shape" result="effect1_innerShadow_1_3801"/>
</filter>
<filter id="filter27_i_1_3801" x="193" y="395" width="19" height="23" filterUnits="userSpaceOnUse" color-interpolation-filters="sRGB">
<feFlood flood-opacity="0" result="BackgroundImageFix"/>
<feBlend mode="normal" in="SourceGraphic" in2="BackgroundImageFix" result="shape"/>
<feColorMatrix in="SourceAlpha" type="matrix" values="0 0 0 0 0 0 0 0 0 0 0 0 0 0 0 0 0 0 127 0" result="hardAlpha"/>
<feOffset dy="4"/>
<feGaussianBlur stdDeviation="2"/>
<feComposite in2="hardAlpha" operator="arithmetic" k2="-1" k3="1"/>
<feColorMatrix type="matrix" values="0 0 0 0 0 0 0 0 0 0 0 0 0 0 0 0 0 0 0.25 0"/>
<feBlend mode="normal" in2="shape" result="effect1_innerShadow_1_3801"/>
</filter>
<filter id="filter28_d_1_3801" x="54" y="485" width="218" height="68" filterUnits="userSpaceOnUse" color-interpolation-filters="sRGB">
<feFlood flood-opacity="0" result="BackgroundImageFix"/>
<feColorMatrix in="SourceAlpha" type="matrix" values="0 0 0 0 0 0 0 0 0 0 0 0 0 0 0 0 0 0 127 0" result="hardAlpha"/>
<feOffset dy="4"/>
<feGaussianBlur stdDeviation="4"/>
<feComposite in2="hardAlpha" operator="out"/>
<feColorMatrix type="matrix" values="0 0 0 0 0 0 0 0 0 0 0 0 0 0 0 0 0 0 0.25 0"/>
<feBlend mode="normal" in2="BackgroundImageFix" result="effect1_dropShadow_1_3801"/>
<feBlend mode="normal" in="SourceGraphic" in2="effect1_dropShadow_1_3801" result="shape"/>
</filter>
<filter id="filter29_d_1_3801" x="145.153" y="498.024" width="84.0024" height="41.852" filterUnits="userSpaceOnUse" color-interpolation-filters="sRGB">
<feFlood flood-opacity="0" result="BackgroundImageFix"/>
<feColorMatrix in="SourceAlpha" type="matrix" values="0 0 0 0 0 0 0 0 0 0 0 0 0 0 0 0 0 0 127 0" result="hardAlpha"/>
<feOffset dy="4"/>
<feGaussianBlur stdDeviation="2"/>
<feComposite in2="hardAlpha" operator="out"/>
<feColorMatrix type="matrix" values="0 0 0 0 0 0 0 0 0 0 0 0 0 0 0 0 0 0 0.25 0"/>
<feBlend mode="normal" in2="BackgroundImageFix" result="effect1_dropShadow_1_3801"/>
<feBlend mode="normal" in="SourceGraphic" in2="effect1_dropShadow_1_3801" result="shape"/>
</filter>
<filter id="filter30_d_1_3801" x="95.75" y="497.75" width="28.5" height="28.5" filterUnits="userSpaceOnUse" color-interpolation-filters="sRGB">
<feFlood flood-opacity="0" result="BackgroundImageFix"/>
<feColorMatrix in="SourceAlpha" type="matrix" values="0 0 0 0 0 0 0 0 0 0 0 0 0 0 0 0 0 0 127 0" result="hardAlpha"/>
<feOffset dy="4"/>
<feGaussianBlur stdDeviation="2"/>
<feComposite in2="hardAlpha" operator="out"/>
<feColorMatrix type="matrix" values="0 0 0 0 0 0 0 0 0 0 0 0 0 0 0 0 0 0 0.25 0"/>
<feBlend mode="normal" in2="BackgroundImageFix" result="effect1_dropShadow_1_3801"/>
<feBlend mode="normal" in="SourceGraphic" in2="effect1_dropShadow_1_3801" result="shape"/>
</filter>
<filter id="filter31_d_1_3801" x="88.8558" y="523.6" width="42.037" height="15.49" filterUnits="userSpaceOnUse" color-interpolation-filters="sRGB">
<feFlood flood-opacity="0" result="BackgroundImageFix"/>
<feColorMatrix in="SourceAlpha" type="matrix" values="0 0 0 0 0 0 0 0 0 0 0 0 0 0 0 0 0 0 127 0" result="hardAlpha"/>
<feOffset dy="4"/>
<feGaussianBlur stdDeviation="2"/>
<feComposite in2="hardAlpha" operator="out"/>
<feColorMatrix type="matrix" values="0 0 0 0 0 0 0 0 0 0 0 0 0 0 0 0 0 0 0.25 0"/>
<feBlend mode="normal" in2="BackgroundImageFix" result="effect1_dropShadow_1_3801"/>
<feBlend mode="normal" in="SourceGraphic" in2="effect1_dropShadow_1_3801" result="shape"/>
</filter>
<linearGradient id="paint0_linear_1_3801" x1="320" y1="0" x2="-7.79629e-06" y2="568" gradientUnits="userSpaceOnUse">
<stop stop-color="#98C487"/>
<stop offset="1" stop-color="#6CAB54"/>
</linearGradient>
<linearGradient id="paint1_linear_1_3801" x1="174" y1="194" x2="287.464" y2="123.483" gradientUnits="userSpaceOnUse">
<stop stop-color="#E6F8DB"/>
<stop offset="1" stop-color="#F6F8ED"/>
</linearGradient>
<linearGradient id="paint2_linear_1_3801" x1="34" y1="194" x2="147.464" y2="123.483" gradientUnits="userSpaceOnUse">
<stop stop-color="#E6F8DB"/>
<stop offset="1" stop-color="#F6F8ED"/>
</linearGradient>
<linearGradient id="paint3_linear_1_3801" x1="174" y1="274" x2="287.464" y2="203.483" gradientUnits="userSpaceOnUse">
<stop stop-color="#E6F8DB"/>
<stop offset="1" stop-color="#F6F8ED"/>
</linearGradient>
<linearGradient id="paint4_linear_1_3801" x1="34" y1="274" x2="147.464" y2="203.483" gradientUnits="userSpaceOnUse">
<stop stop-color="#E6F8DB"/>
<stop offset="1" stop-color="#F6F8ED"/>
</linearGradient>
<linearGradient id="paint5_linear_1_3801" x1="174" y1="354" x2="287.464" y2="283.483" gradientUnits="userSpaceOnUse">
<stop stop-color="#E6F8DB"/>
<stop offset="1" stop-color="#F6F8ED"/>
</linearGradient>
<linearGradient id="paint6_linear_1_3801" x1="34" y1="354" x2="147.464" y2="283.483" gradientUnits="userSpaceOnUse">
<stop stop-color="#E6F8DB"/>
<stop offset="1" stop-color="#F6F8ED"/>
</linearGradient>
<linearGradient id="paint7_linear_1_3801" x1="174" y1="434" x2="287.464" y2="363.483" gradientUnits="userSpaceOnUse">
<stop stop-color="#E6F8DB"/>
<stop offset="1" stop-color="#F6F8ED"/>
</linearGradient>
<linearGradient id="paint8_linear_1_3801" x1="34" y1="434" x2="147.464" y2="363.483" gradientUnits="userSpaceOnUse">
<stop stop-color="#E6F8DB"/>
<stop offset="1" stop-color="#F6F8ED"/>
</linearGradient>
<clipPath id="clip0_1_3801">
<rect x="53" y="155" width="19" height="19" rx="9.5" fill="white"/>
</clipPath>
<clipPath id="clip1_1_3801">
<rect x="193" y="155" width="19" height="19" rx="9.5" fill="white"/>
</clipPath>
<clipPath id="clip2_1_3801">
<rect x="53" y="234" width="19" height="19" rx="9.5" fill="white"/>
</clipPath>
<clipPath id="clip3_1_3801">
<rect x="53" y="314" width="19" height="19" rx="9.5" fill="white"/>
</clipPath>
<clipPath id="clip4_1_3801">
<rect x="53" y="395" width="19" height="19" rx="9.5" fill="white"/>
</clipPath>
<clipPath id="clip5_1_3801">
<rect x="193" y="234" width="19" height="19" rx="9.5" fill="white"/>
</clipPath>
<clipPath id="clip6_1_3801">
<rect x="193" y="314" width="19" height="19" rx="9.5" fill="white"/>
</clipPath>
<clipPath id="clip7_1_3801">
<rect x="193" y="395" width="19" height="19" rx="9.5" fill="white"/>
</clipPath>
</defs>
</svg>
