<svg width="328" height="576" viewBox="0 0 328 576" fill="none" xmlns="http://www.w3.org/2000/svg">
<g filter="url(#filter0_d_1_3707)">
<rect width="320" height="568" transform="translate(4)" fill="url(#paint0_linear_1_3707)"/>
<g filter="url(#filter1_d_1_3707)">
<rect x="63" y="40" width="200" height="50" rx="25" stroke="#F6F8ED" stroke-width="2"/>
<g filter="url(#filter2_d_1_3707)">
<path d="M115.706 53.4449C115.527 53.1123 115.272 52.8351 114.964 52.6404C114.656 52.4456 114.307 52.34 113.95 52.3339H100.73L100.131 49.8228C100.071 49.5805 99.9356 49.3672 99.7481 49.2179C99.5606 49.0686 99.3316 48.9921 99.0984 49.0007H97.0328C96.7589 49.0007 96.4962 49.1177 96.3025 49.3261C96.1088 49.5344 96 49.817 96 50.1117C96 50.4064 96.1088 50.689 96.3025 50.8974C96.4962 51.1057 96.7589 51.2228 97.0328 51.2228H98.3135L101.164 62.6224C101.225 62.8648 101.36 63.078 101.547 63.2273C101.735 63.3766 101.964 63.4531 102.197 63.4446H111.492C111.683 63.4439 111.87 63.3865 112.032 63.2786C112.194 63.1708 112.325 63.0167 112.411 62.8335L115.799 55.5449C115.946 55.2138 116.014 54.8487 115.998 54.4823C115.981 54.1159 115.881 53.7595 115.706 53.4449ZM110.852 61.2224H102.982L101.298 54.556H113.95L110.852 61.2224Z" fill="#F6F8ED"/>
</g>
<g filter="url(#filter3_d_1_3707)">
<path d="M101.68 69C102.536 69 103.229 68.2539 103.229 67.3334C103.229 66.413 102.536 65.6668 101.68 65.6668C100.825 65.6668 100.131 66.413 100.131 67.3334C100.131 68.2539 100.825 69 101.68 69Z" fill="#F6F8ED"/>
</g>
<g filter="url(#filter4_d_1_3707)">
<path d="M112.008 69C112.864 69 113.557 68.2539 113.557 67.3334C113.557 66.413 112.864 65.6668 112.008 65.6668C111.153 65.6668 110.459 66.413 110.459 67.3334C110.459 68.2539 111.153 69 112.008 69Z" fill="#F6F8ED"/>
</g>
<g filter="url(#filter5_d_1_3707)">
<path d="M90.1437 76.27C90.3237 76.0033 90.5704 75.7867 90.8837 75.62C91.2037 75.4533 91.567 75.37 91.9737 75.37C92.447 75.37 92.8737 75.4867 93.2537 75.72C93.6404 75.9533 93.9437 76.2867 94.1637 76.72C94.3904 77.1467 94.5037 77.6433 94.5037 78.21C94.5037 78.7767 94.3904 79.28 94.1637 79.72C93.9437 80.1533 93.6404 80.49 93.2537 80.73C92.8737 80.97 92.447 81.09 91.9737 81.09C91.5604 81.09 91.197 81.01 90.8837 80.85C90.577 80.6833 90.3304 80.47 90.1437 80.21V81H88.7437V73.6H90.1437V76.27ZM93.0737 78.21C93.0737 77.8767 93.0037 77.59 92.8637 77.35C92.7304 77.1033 92.5504 76.9167 92.3237 76.79C92.1037 76.6633 91.8637 76.6 91.6037 76.6C91.3504 76.6 91.1104 76.6667 90.8837 76.8C90.6637 76.9267 90.4837 77.1133 90.3437 77.36C90.2104 77.6067 90.1437 77.8967 90.1437 78.23C90.1437 78.5633 90.2104 78.8533 90.3437 79.1C90.4837 79.3467 90.6637 79.5367 90.8837 79.67C91.1104 79.7967 91.3504 79.86 91.6037 79.86C91.8637 79.86 92.1037 79.7933 92.3237 79.66C92.5504 79.5267 92.7304 79.3367 92.8637 79.09C93.0037 78.8433 93.0737 78.55 93.0737 78.21ZM95.1611 78.21C95.1611 77.65 95.2711 77.1533 95.4911 76.72C95.7177 76.2867 96.0211 75.9533 96.4011 75.72C96.7877 75.4867 97.2177 75.37 97.6911 75.37C98.1044 75.37 98.4644 75.4533 98.7711 75.62C99.0844 75.7867 99.3344 75.9967 99.5211 76.25V75.46H100.931V81H99.5211V80.19C99.3411 80.45 99.0911 80.6667 98.7711 80.84C98.4577 81.0067 98.0944 81.09 97.6811 81.09C97.2144 81.09 96.7877 80.97 96.4011 80.73C96.0211 80.49 95.7177 80.1533 95.4911 79.72C95.2711 79.28 95.1611 78.7767 95.1611 78.21ZM99.5211 78.23C99.5211 77.89 99.4544 77.6 99.3211 77.36C99.1877 77.1133 99.0077 76.9267 98.7811 76.8C98.5544 76.6667 98.3111 76.6 98.0511 76.6C97.7911 76.6 97.5511 76.6633 97.3311 76.79C97.1111 76.9167 96.9311 77.1033 96.7911 77.35C96.6577 77.59 96.5911 77.8767 96.5911 78.21C96.5911 78.5433 96.6577 78.8367 96.7911 79.09C96.9311 79.3367 97.1111 79.5267 97.3311 79.66C97.5577 79.7933 97.7977 79.86 98.0511 79.86C98.3111 79.86 98.5544 79.7967 98.7811 79.67C99.0077 79.5367 99.1877 79.35 99.3211 79.11C99.4544 78.8633 99.5211 78.57 99.5211 78.23ZM104.418 81.09C103.965 81.09 103.558 81.01 103.198 80.85C102.838 80.6833 102.552 80.46 102.338 80.18C102.132 79.9 102.018 79.59 101.998 79.25H103.408C103.435 79.4633 103.538 79.64 103.718 79.78C103.905 79.92 104.135 79.99 104.408 79.99C104.675 79.99 104.882 79.9367 105.028 79.83C105.182 79.7233 105.258 79.5867 105.258 79.42C105.258 79.24 105.165 79.1067 104.978 79.02C104.798 78.9267 104.508 78.8267 104.108 78.72C103.695 78.62 103.355 78.5167 103.088 78.41C102.828 78.3033 102.602 78.14 102.408 77.92C102.222 77.7 102.128 77.4033 102.128 77.03C102.128 76.7233 102.215 76.4433 102.388 76.19C102.568 75.9367 102.822 75.7367 103.148 75.59C103.482 75.4433 103.872 75.37 104.318 75.37C104.978 75.37 105.505 75.5367 105.898 75.87C106.292 76.1967 106.508 76.64 106.548 77.2H105.208C105.188 76.98 105.095 76.8067 104.928 76.68C104.768 76.5467 104.552 76.48 104.278 76.48C104.025 76.48 103.828 76.5267 103.688 76.62C103.555 76.7133 103.488 76.8433 103.488 77.01C103.488 77.1967 103.582 77.34 103.768 77.44C103.955 77.5333 104.245 77.63 104.638 77.73C105.038 77.83 105.368 77.9333 105.628 78.04C105.888 78.1467 106.112 78.3133 106.298 78.54C106.492 78.76 106.592 79.0533 106.598 79.42C106.598 79.74 106.508 80.0267 106.328 80.28C106.155 80.5333 105.902 80.7333 105.568 80.88C105.242 81.02 104.858 81.09 104.418 81.09ZM111.028 81L109.148 78.64V81H107.748V73.6H109.148V77.81L111.008 75.46H112.828L110.388 78.24L112.848 81H111.028ZM118.737 78.11C118.737 78.31 118.724 78.49 118.697 78.65H114.647C114.681 79.05 114.821 79.3633 115.067 79.59C115.314 79.8167 115.617 79.93 115.977 79.93C116.497 79.93 116.867 79.7067 117.087 79.26H118.597C118.437 79.7933 118.131 80.2333 117.677 80.58C117.224 80.92 116.667 81.09 116.007 81.09C115.474 81.09 114.994 80.9733 114.567 80.74C114.147 80.5 113.817 80.1633 113.577 79.73C113.344 79.2967 113.227 78.7967 113.227 78.23C113.227 77.6567 113.344 77.1533 113.577 76.72C113.811 76.2867 114.137 75.9533 114.557 75.72C114.977 75.4867 115.461 75.37 116.007 75.37C116.534 75.37 117.004 75.4833 117.417 75.71C117.837 75.9367 118.161 76.26 118.387 76.68C118.621 77.0933 118.737 77.57 118.737 78.11ZM117.287 77.71C117.281 77.35 117.151 77.0633 116.897 76.85C116.644 76.63 116.334 76.52 115.967 76.52C115.621 76.52 115.327 76.6267 115.087 76.84C114.854 77.0467 114.711 77.3367 114.657 77.71H117.287ZM121.389 76.61V79.29C121.389 79.4767 121.433 79.6133 121.519 79.7C121.613 79.78 121.766 79.82 121.979 79.82H122.629V81H121.749C120.569 81 119.979 80.4267 119.979 79.28V76.61H119.319V75.46H119.979V74.09H121.389V75.46H122.629V76.61H121.389Z" fill="#F6F8ED"/>
</g>
<g filter="url(#filter6_d_1_3707)">
<path d="M206.899 76.26C207.079 76.0067 207.325 75.7967 207.639 75.63C207.959 75.4567 208.322 75.37 208.729 75.37C209.202 75.37 209.629 75.4867 210.009 75.72C210.395 75.9533 210.699 76.2867 210.919 76.72C211.145 77.1467 211.259 77.6433 211.259 78.21C211.259 78.7767 211.145 79.28 210.919 79.72C210.699 80.1533 210.395 80.49 210.009 80.73C209.629 80.97 209.202 81.09 208.729 81.09C208.322 81.09 207.962 81.0067 207.649 80.84C207.342 80.6733 207.092 80.4633 206.899 80.21V83.64H205.499V75.46H206.899V76.26ZM209.829 78.21C209.829 77.8767 209.759 77.59 209.619 77.35C209.485 77.1033 209.305 76.9167 209.079 76.79C208.859 76.6633 208.619 76.6 208.359 76.6C208.105 76.6 207.865 76.6667 207.639 76.8C207.419 76.9267 207.239 77.1133 207.099 77.36C206.965 77.6067 206.899 77.8967 206.899 78.23C206.899 78.5633 206.965 78.8533 207.099 79.1C207.239 79.3467 207.419 79.5367 207.639 79.67C207.865 79.7967 208.105 79.86 208.359 79.86C208.619 79.86 208.859 79.7933 209.079 79.66C209.305 79.5267 209.485 79.3367 209.619 79.09C209.759 78.8433 209.829 78.55 209.829 78.21ZM213.676 76.32C213.856 76.0267 214.089 75.7967 214.376 75.63C214.669 75.4633 215.003 75.38 215.376 75.38V76.85H215.006C214.566 76.85 214.233 76.9533 214.006 77.16C213.786 77.3667 213.676 77.7267 213.676 78.24V81H212.276V75.46H213.676V76.32ZM218.779 81.09C218.246 81.09 217.766 80.9733 217.339 80.74C216.912 80.5 216.576 80.1633 216.329 79.73C216.089 79.2967 215.969 78.7967 215.969 78.23C215.969 77.6633 216.092 77.1633 216.339 76.73C216.592 76.2967 216.936 75.9633 217.369 75.73C217.802 75.49 218.286 75.37 218.819 75.37C219.352 75.37 219.836 75.49 220.269 75.73C220.702 75.9633 221.042 76.2967 221.289 76.73C221.542 77.1633 221.669 77.6633 221.669 78.23C221.669 78.7967 221.539 79.2967 221.279 79.73C221.026 80.1633 220.679 80.5 220.239 80.74C219.806 80.9733 219.319 81.09 218.779 81.09ZM218.779 79.87C219.032 79.87 219.269 79.81 219.489 79.69C219.716 79.5633 219.896 79.3767 220.029 79.13C220.162 78.8833 220.229 78.5833 220.229 78.23C220.229 77.7033 220.089 77.3 219.809 77.02C219.536 76.7333 219.199 76.59 218.799 76.59C218.399 76.59 218.062 76.7333 217.789 77.02C217.522 77.3 217.389 77.7033 217.389 78.23C217.389 78.7567 217.519 79.1633 217.779 79.45C218.046 79.73 218.379 79.87 218.779 79.87ZM225.236 76.61H224.266V81H222.846V76.61H222.216V75.46H222.846V75.18C222.846 74.5 223.039 74 223.426 73.68C223.813 73.36 224.396 73.21 225.176 73.23V74.41C224.836 74.4033 224.599 74.46 224.466 74.58C224.333 74.7 224.266 74.9167 224.266 75.23V75.46H225.236V76.61ZM226.853 74.8C226.606 74.8 226.4 74.7233 226.233 74.57C226.073 74.41 225.993 74.2133 225.993 73.98C225.993 73.7467 226.073 73.5533 226.233 73.4C226.4 73.24 226.606 73.16 226.853 73.16C227.1 73.16 227.303 73.24 227.463 73.4C227.63 73.5533 227.713 73.7467 227.713 73.98C227.713 74.2133 227.63 74.41 227.463 74.57C227.303 74.7233 227.1 74.8 226.853 74.8ZM227.543 75.46V81H226.143V75.46H227.543ZM230.326 73.6V81H228.926V73.6H230.326ZM236.86 78.11C236.86 78.31 236.846 78.49 236.82 78.65H232.77C232.803 79.05 232.943 79.3633 233.19 79.59C233.436 79.8167 233.74 79.93 234.1 79.93C234.62 79.93 234.99 79.7067 235.21 79.26H236.72C236.56 79.7933 236.253 80.2333 235.8 80.58C235.346 80.92 234.79 81.09 234.13 81.09C233.596 81.09 233.116 80.9733 232.69 80.74C232.27 80.5 231.94 80.1633 231.7 79.73C231.466 79.2967 231.35 78.7967 231.35 78.23C231.35 77.6567 231.466 77.1533 231.7 76.72C231.933 76.2867 232.26 75.9533 232.68 75.72C233.1 75.4867 233.583 75.37 234.13 75.37C234.656 75.37 235.126 75.4833 235.54 75.71C235.96 75.9367 236.283 76.26 236.51 76.68C236.743 77.0933 236.86 77.57 236.86 78.11ZM235.41 77.71C235.403 77.35 235.273 77.0633 235.02 76.85C234.766 76.63 234.456 76.52 234.09 76.52C233.743 76.52 233.45 76.6267 233.21 76.84C232.976 77.0467 232.833 77.3367 232.78 77.71H235.41Z" fill="#F6F8ED"/>
</g>
<g filter="url(#filter7_d_1_3707)">
<path d="M221 51.5C222.375 51.5 223.5 52.625 223.5 54C223.5 55.375 222.375 56.5 221 56.5C219.625 56.5 218.5 55.375 218.5 54C218.5 52.625 219.625 51.5 221 51.5ZM221 64C224.375 64 228.25 65.6125 228.5 66.5H213.5C213.788 65.6 217.637 64 221 64ZM221 49C218.237 49 216 51.2375 216 54C216 56.7625 218.237 59 221 59C223.762 59 226 56.7625 226 54C226 51.2375 223.762 49 221 49ZM221 61.5C217.662 61.5 211 63.175 211 66.5V69H231V66.5C231 63.175 224.338 61.5 221 61.5Z" fill="#F6F8ED"/>
</g>
</g>
<g filter="url(#filter8_d_1_3707)">
<path d="M165.636 57.8706C162.342 56.4148 158.479 57.2758 156.248 59.7285L159.698 62.8553C160.092 63.2122 160.092 63.7843 159.698 64.1355C159.504 64.3111 159.248 64.4017 158.992 64.4017C158.736 64.4017 158.479 64.3111 158.286 64.1355L155.148 61.2919L147.141 76.1726C146.959 76.5124 146.947 76.9259 147.141 77.2885C147.478 77.9172 148.322 78.1778 149.016 77.8719L157.367 74.1787L154.291 71.3917C153.898 71.0405 153.898 70.4628 154.291 70.1116C154.685 69.7604 155.316 69.7604 155.704 70.1116L159.267 73.3403L165.642 70.5194C167.143 69.8567 168.424 68.7464 169.212 67.285C171.093 63.79 169.493 59.5756 165.636 57.8706ZM171.393 55.8937C172.612 53.5882 171.981 50.8636 169.499 49C166.355 51.3621 166.218 55.0893 169.005 57.6044L169.505 58.0575C172.281 60.5839 176.4 60.4593 179 57.61C176.944 55.3612 173.937 54.7891 171.393 55.8937Z" fill="#FB7E56"/>
<path d="M165.636 57.8706C162.342 56.4148 158.479 57.2758 156.248 59.7285L159.698 62.8553C160.092 63.2122 160.092 63.7843 159.698 64.1355C159.504 64.3111 159.248 64.4017 158.992 64.4017C158.736 64.4017 158.479 64.3111 158.286 64.1355L155.148 61.2919L147.141 76.1726C146.959 76.5124 146.947 76.9259 147.141 77.2885C147.478 77.9172 148.322 78.1778 149.016 77.8719L157.367 74.1787L154.291 71.3917C153.898 71.0405 153.898 70.4628 154.291 70.1116C154.685 69.7604 155.316 69.7604 155.704 70.1116L159.267 73.3403L165.642 70.5194C167.143 69.8567 168.424 68.7464 169.212 67.285C171.093 63.79 169.493 59.5756 165.636 57.8706ZM171.393 55.8937C172.612 53.5882 171.981 50.8636 169.499 49C166.355 51.3621 166.218 55.0893 169.005 57.6044L169.505 58.0575C172.281 60.5839 176.4 60.4593 179 57.61C176.944 55.3612 173.937 54.7891 171.393 55.8937Z" stroke="#F6F8ED"/>
</g>
<g filter="url(#filter9_d_1_3707)">
<rect x="61" y="488" width="200" height="50" rx="25" stroke="#F6F8ED" stroke-width="2"/>
</g>
<g filter="url(#filter10_d_1_3707)">
<path d="M94.2758 529.09C93.8225 529.09 93.4158 529.01 93.0558 528.85C92.6958 528.683 92.4092 528.46 92.1958 528.18C91.9892 527.9 91.8758 527.59 91.8558 527.25H93.2658C93.2925 527.463 93.3958 527.64 93.5758 527.78C93.7625 527.92 93.9925 527.99 94.2658 527.99C94.5325 527.99 94.7392 527.937 94.8858 527.83C95.0392 527.723 95.1158 527.587 95.1158 527.42C95.1158 527.24 95.0225 527.107 94.8358 527.02C94.6558 526.927 94.3658 526.827 93.9658 526.72C93.5525 526.62 93.2125 526.517 92.9458 526.41C92.6858 526.303 92.4592 526.14 92.2658 525.92C92.0792 525.7 91.9858 525.403 91.9858 525.03C91.9858 524.723 92.0725 524.443 92.2458 524.19C92.4258 523.937 92.6792 523.737 93.0058 523.59C93.3392 523.443 93.7292 523.37 94.1758 523.37C94.8358 523.37 95.3625 523.537 95.7558 523.87C96.1492 524.197 96.3658 524.64 96.4058 525.2H95.0658C95.0458 524.98 94.9525 524.807 94.7858 524.68C94.6258 524.547 94.4092 524.48 94.1358 524.48C93.8825 524.48 93.6858 524.527 93.5458 524.62C93.4125 524.713 93.3458 524.843 93.3458 525.01C93.3458 525.197 93.4392 525.34 93.6258 525.44C93.8125 525.533 94.1025 525.63 94.4958 525.73C94.8958 525.83 95.2258 525.933 95.4858 526.04C95.7458 526.147 95.9692 526.313 96.1558 526.54C96.3492 526.76 96.4492 527.053 96.4558 527.42C96.4558 527.74 96.3658 528.027 96.1858 528.28C96.0125 528.533 95.7592 528.733 95.4258 528.88C95.0992 529.02 94.7158 529.09 94.2758 529.09ZM102.755 526.11C102.755 526.31 102.742 526.49 102.715 526.65H98.665C98.6984 527.05 98.8384 527.363 99.085 527.59C99.3317 527.817 99.635 527.93 99.995 527.93C100.515 527.93 100.885 527.707 101.105 527.26H102.615C102.455 527.793 102.148 528.233 101.695 528.58C101.242 528.92 100.685 529.09 100.025 529.09C99.4917 529.09 99.0117 528.973 98.585 528.74C98.165 528.5 97.835 528.163 97.595 527.73C97.3617 527.297 97.245 526.797 97.245 526.23C97.245 525.657 97.3617 525.153 97.595 524.72C97.8284 524.287 98.155 523.953 98.575 523.72C98.995 523.487 99.4784 523.37 100.025 523.37C100.552 523.37 101.022 523.483 101.435 523.71C101.855 523.937 102.178 524.26 102.405 524.68C102.638 525.093 102.755 525.57 102.755 526.11ZM101.305 525.71C101.298 525.35 101.168 525.063 100.915 524.85C100.662 524.63 100.352 524.52 99.985 524.52C99.6384 524.52 99.345 524.627 99.105 524.84C98.8717 525.047 98.7284 525.337 98.675 525.71H101.305ZM103.417 526.21C103.417 525.65 103.527 525.153 103.747 524.72C103.974 524.287 104.277 523.953 104.657 523.72C105.044 523.487 105.474 523.37 105.947 523.37C106.36 523.37 106.72 523.453 107.027 523.62C107.34 523.787 107.59 523.997 107.777 524.25V523.46H109.187V529H107.777V528.19C107.597 528.45 107.347 528.667 107.027 528.84C106.714 529.007 106.35 529.09 105.937 529.09C105.47 529.09 105.044 528.97 104.657 528.73C104.277 528.49 103.974 528.153 103.747 527.72C103.527 527.28 103.417 526.777 103.417 526.21ZM107.777 526.23C107.777 525.89 107.71 525.6 107.577 525.36C107.444 525.113 107.264 524.927 107.037 524.8C106.81 524.667 106.567 524.6 106.307 524.6C106.047 524.6 105.807 524.663 105.587 524.79C105.367 524.917 105.187 525.103 105.047 525.35C104.914 525.59 104.847 525.877 104.847 526.21C104.847 526.543 104.914 526.837 105.047 527.09C105.187 527.337 105.367 527.527 105.587 527.66C105.814 527.793 106.054 527.86 106.307 527.86C106.567 527.86 106.81 527.797 107.037 527.67C107.264 527.537 107.444 527.35 107.577 527.11C107.71 526.863 107.777 526.57 107.777 526.23ZM111.954 524.32C112.134 524.027 112.368 523.797 112.654 523.63C112.948 523.463 113.281 523.38 113.654 523.38V524.85H113.284C112.844 524.85 112.511 524.953 112.284 525.16C112.064 525.367 111.954 525.727 111.954 526.24V529H110.554V523.46H111.954V524.32ZM114.237 526.23C114.237 525.657 114.354 525.157 114.587 524.73C114.821 524.297 115.144 523.963 115.557 523.73C115.971 523.49 116.444 523.37 116.977 523.37C117.664 523.37 118.231 523.543 118.677 523.89C119.131 524.23 119.434 524.71 119.587 525.33H118.077C117.997 525.09 117.861 524.903 117.667 524.77C117.481 524.63 117.247 524.56 116.967 524.56C116.567 524.56 116.251 524.707 116.017 525C115.784 525.287 115.667 525.697 115.667 526.23C115.667 526.757 115.784 527.167 116.017 527.46C116.251 527.747 116.567 527.89 116.967 527.89C117.534 527.89 117.904 527.637 118.077 527.13H119.587C119.434 527.73 119.131 528.207 118.677 528.56C118.224 528.913 117.657 529.09 116.977 529.09C116.444 529.09 115.971 528.973 115.557 528.74C115.144 528.5 114.821 528.167 114.587 527.74C114.354 527.307 114.237 526.803 114.237 526.23ZM123.733 523.38C124.153 523.38 124.526 523.473 124.853 523.66C125.18 523.84 125.433 524.11 125.613 524.47C125.8 524.823 125.893 525.25 125.893 525.75V529H124.493V525.94C124.493 525.5 124.383 525.163 124.163 524.93C123.943 524.69 123.643 524.57 123.263 524.57C122.876 524.57 122.57 524.69 122.343 524.93C122.123 525.163 122.013 525.5 122.013 525.94V529H120.613V521.6H122.013V524.15C122.193 523.91 122.433 523.723 122.733 523.59C123.033 523.45 123.366 523.38 123.733 523.38Z" fill="#F6F8ED"/>
</g>
<g filter="url(#filter11_d_1_3707)">
<path d="M115.267 510.761L111.888 507.378L109.289 506.303C110.155 505.07 110.618 503.6 110.617 502.094C110.617 498.044 107.327 494.75 103.283 494.75C99.2397 494.75 95.95 498.044 95.95 502.094C95.95 506.143 99.2397 509.438 103.283 509.438C104.801 509.439 106.281 508.967 107.517 508.087L108.588 510.682L111.967 514.066C112.183 514.283 112.44 514.455 112.724 514.572C113.007 514.69 113.31 514.75 113.617 514.75C113.923 514.75 114.226 514.69 114.509 514.572C114.793 514.455 115.05 514.283 115.266 514.066C115.483 513.849 115.655 513.591 115.772 513.308C115.89 513.024 115.95 512.72 115.95 512.413C115.95 512.106 115.89 511.803 115.772 511.519C115.655 511.236 115.483 510.978 115.267 510.761ZM97.2833 502.094C97.2833 498.781 99.9749 496.085 103.283 496.085C106.592 496.085 109.283 498.781 109.283 502.094C109.283 505.407 106.592 508.102 103.283 508.102C99.9749 508.102 97.2833 505.407 97.2833 502.094ZM114.324 513.121C114.136 513.309 113.882 513.414 113.617 513.414C113.351 513.414 113.097 513.309 112.909 513.121L109.719 509.926L108.723 507.513L111.133 508.51L114.324 511.705C114.511 511.893 114.616 512.148 114.616 512.413C114.616 512.679 114.511 512.933 114.324 513.121Z" fill="#F6F8ED"/>
<path d="M115.267 510.761L111.888 507.378L109.289 506.303C110.155 505.07 110.618 503.6 110.617 502.094C110.617 498.044 107.327 494.75 103.283 494.75C99.2397 494.75 95.95 498.044 95.95 502.094C95.95 506.143 99.2397 509.438 103.283 509.438C104.801 509.439 106.281 508.967 107.517 508.087L108.588 510.682L111.967 514.066C112.183 514.283 112.44 514.455 112.724 514.572C113.007 514.69 113.31 514.75 113.617 514.75C113.923 514.75 114.226 514.69 114.509 514.572C114.793 514.455 115.05 514.283 115.266 514.066C115.483 513.849 115.655 513.591 115.772 513.308C115.89 513.024 115.95 512.72 115.95 512.413C115.95 512.106 115.89 511.803 115.772 511.519C115.655 511.236 115.483 510.978 115.267 510.761ZM97.2833 502.094C97.2833 498.781 99.9749 496.085 103.283 496.085C106.592 496.085 109.283 498.781 109.283 502.094C109.283 505.407 106.592 508.102 103.283 508.102C99.9749 508.102 97.2833 505.407 97.2833 502.094ZM114.324 513.121C114.136 513.309 113.882 513.414 113.617 513.414C113.351 513.414 113.097 513.309 112.909 513.121L109.719 509.926L108.723 507.513L111.133 508.51L114.324 511.705C114.511 511.893 114.616 512.148 114.616 512.413C114.616 512.679 114.511 512.933 114.324 513.121Z" stroke="#F6F8ED" stroke-width="0.5"/>
</g>
<g filter="url(#filter12_d_1_3707)">
<path d="M191.028 526.21C191.028 525.65 191.138 525.153 191.358 524.72C191.585 524.287 191.892 523.953 192.278 523.72C192.665 523.487 193.095 523.37 193.568 523.37C193.928 523.37 194.272 523.45 194.598 523.61C194.925 523.763 195.185 523.97 195.378 524.23V521.6H196.798V529H195.378V528.18C195.205 528.453 194.962 528.673 194.648 528.84C194.335 529.007 193.972 529.09 193.558 529.09C193.092 529.09 192.665 528.97 192.278 528.73C191.892 528.49 191.585 528.153 191.358 527.72C191.138 527.28 191.028 526.777 191.028 526.21ZM195.388 526.23C195.388 525.89 195.322 525.6 195.188 525.36C195.055 525.113 194.875 524.927 194.648 524.8C194.422 524.667 194.178 524.6 193.918 524.6C193.658 524.6 193.418 524.663 193.198 524.79C192.978 524.917 192.798 525.103 192.658 525.35C192.525 525.59 192.458 525.877 192.458 526.21C192.458 526.543 192.525 526.837 192.658 527.09C192.798 527.337 192.978 527.527 193.198 527.66C193.425 527.793 193.665 527.86 193.918 527.86C194.178 527.86 194.422 527.797 194.648 527.67C194.875 527.537 195.055 527.35 195.188 527.11C195.322 526.863 195.388 526.57 195.388 526.23ZM198.876 522.8C198.629 522.8 198.422 522.723 198.256 522.57C198.096 522.41 198.016 522.213 198.016 521.98C198.016 521.747 198.096 521.553 198.256 521.4C198.422 521.24 198.629 521.16 198.876 521.16C199.122 521.16 199.326 521.24 199.486 521.4C199.652 521.553 199.736 521.747 199.736 521.98C199.736 522.213 199.652 522.41 199.486 522.57C199.326 522.723 199.122 522.8 198.876 522.8ZM199.566 523.46V529H198.166V523.46H199.566ZM203.069 529.09C202.615 529.09 202.209 529.01 201.849 528.85C201.489 528.683 201.202 528.46 200.989 528.18C200.782 527.9 200.669 527.59 200.649 527.25H202.059C202.085 527.463 202.189 527.64 202.369 527.78C202.555 527.92 202.785 527.99 203.059 527.99C203.325 527.99 203.532 527.937 203.679 527.83C203.832 527.723 203.909 527.587 203.909 527.42C203.909 527.24 203.815 527.107 203.629 527.02C203.449 526.927 203.159 526.827 202.759 526.72C202.345 526.62 202.005 526.517 201.739 526.41C201.479 526.303 201.252 526.14 201.059 525.92C200.872 525.7 200.779 525.403 200.779 525.03C200.779 524.723 200.865 524.443 201.039 524.19C201.219 523.937 201.472 523.737 201.799 523.59C202.132 523.443 202.522 523.37 202.969 523.37C203.629 523.37 204.155 523.537 204.549 523.87C204.942 524.197 205.159 524.64 205.199 525.2H203.859C203.839 524.98 203.745 524.807 203.579 524.68C203.419 524.547 203.202 524.48 202.929 524.48C202.675 524.48 202.479 524.527 202.339 524.62C202.205 524.713 202.139 524.843 202.139 525.01C202.139 525.197 202.232 525.34 202.419 525.44C202.605 525.533 202.895 525.63 203.289 525.73C203.689 525.83 204.019 525.933 204.279 526.04C204.539 526.147 204.762 526.313 204.949 526.54C205.142 526.76 205.242 527.053 205.249 527.42C205.249 527.74 205.159 528.027 204.979 528.28C204.805 528.533 204.552 528.733 204.219 528.88C203.892 529.02 203.509 529.09 203.069 529.09ZM206.038 526.23C206.038 525.657 206.155 525.157 206.388 524.73C206.621 524.297 206.945 523.963 207.358 523.73C207.771 523.49 208.245 523.37 208.778 523.37C209.465 523.37 210.031 523.543 210.478 523.89C210.931 524.23 211.235 524.71 211.388 525.33H209.878C209.798 525.09 209.661 524.903 209.468 524.77C209.281 524.63 209.048 524.56 208.768 524.56C208.368 524.56 208.051 524.707 207.818 525C207.585 525.287 207.468 525.697 207.468 526.23C207.468 526.757 207.585 527.167 207.818 527.46C208.051 527.747 208.368 527.89 208.768 527.89C209.335 527.89 209.705 527.637 209.878 527.13H211.388C211.235 527.73 210.931 528.207 210.478 528.56C210.025 528.913 209.458 529.09 208.778 529.09C208.245 529.09 207.771 528.973 207.358 528.74C206.945 528.5 206.621 528.167 206.388 527.74C206.155 527.307 206.038 526.803 206.038 526.23ZM214.874 529.09C214.34 529.09 213.86 528.973 213.434 528.74C213.007 528.5 212.67 528.163 212.424 527.73C212.184 527.297 212.064 526.797 212.064 526.23C212.064 525.663 212.187 525.163 212.434 524.73C212.687 524.297 213.03 523.963 213.464 523.73C213.897 523.49 214.38 523.37 214.914 523.37C215.447 523.37 215.93 523.49 216.364 523.73C216.797 523.963 217.137 524.297 217.384 524.73C217.637 525.163 217.764 525.663 217.764 526.23C217.764 526.797 217.634 527.297 217.374 527.73C217.12 528.163 216.774 528.5 216.334 528.74C215.9 528.973 215.414 529.09 214.874 529.09ZM214.874 527.87C215.127 527.87 215.364 527.81 215.584 527.69C215.81 527.563 215.99 527.377 216.124 527.13C216.257 526.883 216.324 526.583 216.324 526.23C216.324 525.703 216.184 525.3 215.904 525.02C215.63 524.733 215.294 524.59 214.894 524.59C214.494 524.59 214.157 524.733 213.884 525.02C213.617 525.3 213.484 525.703 213.484 526.23C213.484 526.757 213.614 527.163 213.874 527.45C214.14 527.73 214.474 527.87 214.874 527.87ZM221.101 527.71L222.501 523.46H223.991L221.941 529H220.241L218.201 523.46H219.701L221.101 527.71ZM229.927 526.11C229.927 526.31 229.914 526.49 229.887 526.65H225.837C225.87 527.05 226.01 527.363 226.257 527.59C226.504 527.817 226.807 527.93 227.167 527.93C227.687 527.93 228.057 527.707 228.277 527.26H229.787C229.627 527.793 229.32 528.233 228.867 528.58C228.414 528.92 227.857 529.09 227.197 529.09C226.664 529.09 226.184 528.973 225.757 528.74C225.337 528.5 225.007 528.163 224.767 527.73C224.534 527.297 224.417 526.797 224.417 526.23C224.417 525.657 224.534 525.153 224.767 524.72C225 524.287 225.327 523.953 225.747 523.72C226.167 523.487 226.65 523.37 227.197 523.37C227.724 523.37 228.194 523.483 228.607 523.71C229.027 523.937 229.35 524.26 229.577 524.68C229.81 525.093 229.927 525.57 229.927 526.11ZM228.477 525.71C228.47 525.35 228.34 525.063 228.087 524.85C227.834 524.63 227.524 524.52 227.157 524.52C226.81 524.52 226.517 524.627 226.277 524.84C226.044 525.047 225.9 525.337 225.847 525.71H228.477ZM232.349 524.32C232.529 524.027 232.762 523.797 233.049 523.63C233.342 523.463 233.675 523.38 234.049 523.38V524.85H233.679C233.239 524.85 232.905 524.953 232.679 525.16C232.459 525.367 232.349 525.727 232.349 526.24V529H230.949V523.46H232.349V524.32Z" fill="#F6F8ED"/>
</g>
<g filter="url(#filter13_d_1_3707)">
<path fill-rule="evenodd" clip-rule="evenodd" d="M205.001 512.825V503.4H206.334V512.825C206.334 513.017 206.404 513.202 206.529 513.338C206.654 513.474 206.824 513.55 207.001 513.55H219C219.176 513.55 219.346 513.474 219.471 513.338C219.596 513.202 219.666 513.017 219.666 512.825V503.4H220.999V512.825C220.999 513.402 220.789 513.955 220.414 514.363C220.039 514.771 219.53 515 219 515H207.001C206.47 515 205.962 514.771 205.586 514.363C205.211 513.955 205.001 513.402 205.001 512.825V512.825ZM219.666 496.875V501.95L217 499.05V496.875C217 496.682 217.07 496.498 217.195 496.362C217.32 496.226 217.49 496.15 217.666 496.15H219C219.176 496.15 219.346 496.226 219.471 496.362C219.596 496.498 219.666 496.682 219.666 496.875Z" fill="#F6F8ED" stroke="#F6F8ED" stroke-width="0.5"/>
<path fill-rule="evenodd" clip-rule="evenodd" d="M212.057 495.425C212.307 495.153 212.646 495 213 495C213.354 495 213.693 495.153 213.943 495.425L222.805 505.061C222.93 505.198 223 505.382 223 505.575C223 505.767 222.93 505.952 222.805 506.088C222.679 506.224 222.51 506.301 222.333 506.301C222.156 506.301 221.986 506.224 221.861 506.088L213 496.45L204.139 506.088C204.014 506.224 203.844 506.301 203.667 506.301C203.49 506.301 203.321 506.224 203.195 506.088C203.07 505.952 203 505.767 203 505.575C203 505.382 203.07 505.198 203.195 505.061L212.057 495.425Z" fill="#F6F8ED" stroke="#F6F8ED" stroke-width="0.5"/>
</g>
<g filter="url(#filter14_d_1_3707)">
<path d="M35 164C35 141.909 52.9086 124 75 124H255C277.091 124 295 141.909 295 164V404C295 426.091 277.091 444 255 444H75C52.9086 444 35 426.091 35 404V164Z" fill="url(#paint1_linear_1_3707)"/>
<path d="M35 164C35 141.909 52.9086 124 75 124H255C277.091 124 295 141.909 295 164V404C295 426.091 277.091 444 255 444H75C52.9086 444 35 426.091 35 404V164Z" stroke="#F6F8ED"/>
</g>
<path d="M97.845 212.34H92.58V215.76C92.81 215.44 93.15 215.18 93.6 214.98C94.05 214.77 94.535 214.665 95.055 214.665C95.885 214.665 96.56 214.84 97.08 215.19C97.6 215.53 97.97 215.975 98.19 216.525C98.42 217.065 98.535 217.64 98.535 218.25C98.535 218.97 98.4 219.615 98.13 220.185C97.86 220.755 97.445 221.205 96.885 221.535C96.335 221.865 95.65 222.03 94.83 222.03C93.78 222.03 92.93 221.76 92.28 221.22C91.63 220.68 91.235 219.96 91.095 219.06H92.43C92.56 219.63 92.835 220.075 93.255 220.395C93.675 220.715 94.205 220.875 94.845 220.875C95.635 220.875 96.23 220.64 96.63 220.17C97.03 219.69 97.23 219.06 97.23 218.28C97.23 217.5 97.03 216.9 96.63 216.48C96.23 216.05 95.64 215.835 94.86 215.835C94.33 215.835 93.865 215.965 93.465 216.225C93.075 216.475 92.79 216.82 92.61 217.26H91.32V211.14H97.845V212.34ZM100.349 216.465C100.349 214.745 100.629 213.405 101.189 212.445C101.749 211.475 102.729 210.99 104.129 210.99C105.519 210.99 106.494 211.475 107.054 212.445C107.614 213.405 107.894 214.745 107.894 216.465C107.894 218.215 107.614 219.575 107.054 220.545C106.494 221.515 105.519 222 104.129 222C102.729 222 101.749 221.515 101.189 220.545C100.629 219.575 100.349 218.215 100.349 216.465ZM106.544 216.465C106.544 215.595 106.484 214.86 106.364 214.26C106.254 213.65 106.019 213.16 105.659 212.79C105.309 212.42 104.799 212.235 104.129 212.235C103.449 212.235 102.929 212.42 102.569 212.79C102.219 213.16 101.984 213.65 101.864 214.26C101.754 214.86 101.699 215.595 101.699 216.465C101.699 217.365 101.754 218.12 101.864 218.73C101.984 219.34 102.219 219.83 102.569 220.2C102.929 220.57 103.449 220.755 104.129 220.755C104.799 220.755 105.309 220.57 105.659 220.2C106.019 219.83 106.254 219.34 106.364 218.73C106.484 218.12 106.544 217.365 106.544 216.465ZM109.768 216.465C109.768 214.745 110.048 213.405 110.608 212.445C111.168 211.475 112.148 210.99 113.548 210.99C114.938 210.99 115.913 211.475 116.473 212.445C117.033 213.405 117.313 214.745 117.313 216.465C117.313 218.215 117.033 219.575 116.473 220.545C115.913 221.515 114.938 222 113.548 222C112.148 222 111.168 221.515 110.608 220.545C110.048 219.575 109.768 218.215 109.768 216.465ZM115.963 216.465C115.963 215.595 115.903 214.86 115.783 214.26C115.673 213.65 115.438 213.16 115.078 212.79C114.728 212.42 114.218 212.235 113.548 212.235C112.868 212.235 112.348 212.42 111.988 212.79C111.638 213.16 111.403 213.65 111.283 214.26C111.173 214.86 111.118 215.595 111.118 216.465C111.118 217.365 111.173 218.12 111.283 218.73C111.403 219.34 111.638 219.83 111.988 220.2C112.348 220.57 112.868 220.755 113.548 220.755C114.218 220.755 114.728 220.57 115.078 220.2C115.438 219.83 115.673 219.34 115.783 218.73C115.903 218.12 115.963 217.365 115.963 216.465ZM126.801 213.645C127.511 213.645 128.131 213.8 128.661 214.11C129.201 214.42 129.601 214.81 129.861 215.28V213.78H131.241V222.18C131.241 222.93 131.081 223.595 130.761 224.175C130.441 224.765 129.981 225.225 129.381 225.555C128.791 225.885 128.101 226.05 127.311 226.05C126.231 226.05 125.331 225.795 124.611 225.285C123.891 224.775 123.466 224.08 123.336 223.2H124.686C124.836 223.7 125.146 224.1 125.616 224.4C126.086 224.71 126.651 224.865 127.311 224.865C128.061 224.865 128.671 224.63 129.141 224.16C129.621 223.69 129.861 223.03 129.861 222.18V220.455C129.591 220.935 129.191 221.335 128.661 221.655C128.131 221.975 127.511 222.135 126.801 222.135C126.071 222.135 125.406 221.955 124.806 221.595C124.216 221.235 123.751 220.73 123.411 220.08C123.071 219.43 122.901 218.69 122.901 217.86C122.901 217.02 123.071 216.285 123.411 215.655C123.751 215.015 124.216 214.52 124.806 214.17C125.406 213.82 126.071 213.645 126.801 213.645ZM129.861 217.875C129.861 217.255 129.736 216.715 129.486 216.255C129.236 215.795 128.896 215.445 128.466 215.205C128.046 214.955 127.581 214.83 127.071 214.83C126.561 214.83 126.096 214.95 125.676 215.19C125.256 215.43 124.921 215.78 124.671 216.24C124.421 216.7 124.296 217.24 124.296 217.86C124.296 218.49 124.421 219.04 124.671 219.51C124.921 219.97 125.256 220.325 125.676 220.575C126.096 220.815 126.561 220.935 127.071 220.935C127.581 220.935 128.046 220.815 128.466 220.575C128.896 220.325 129.236 219.97 129.486 219.51C129.736 219.04 129.861 218.495 129.861 217.875ZM138.912 215.295C139.182 214.825 139.582 214.435 140.112 214.125C140.652 213.805 141.277 213.645 141.987 213.645C142.717 213.645 143.377 213.82 143.967 214.17C144.567 214.52 145.037 215.015 145.377 215.655C145.717 216.285 145.887 217.02 145.887 217.86C145.887 218.69 145.717 219.43 145.377 220.08C145.037 220.73 144.567 221.235 143.967 221.595C143.377 221.955 142.717 222.135 141.987 222.135C141.287 222.135 140.667 221.98 140.127 221.67C139.597 221.35 139.192 220.955 138.912 220.485V225.9H137.547V213.78H138.912V215.295ZM144.492 217.86C144.492 217.24 144.367 216.7 144.117 216.24C143.867 215.78 143.527 215.43 143.097 215.19C142.677 214.95 142.212 214.83 141.702 214.83C141.202 214.83 140.737 214.955 140.307 215.205C139.887 215.445 139.547 215.8 139.287 216.27C139.037 216.73 138.912 217.265 138.912 217.875C138.912 218.495 139.037 219.04 139.287 219.51C139.547 219.97 139.887 220.325 140.307 220.575C140.737 220.815 141.202 220.935 141.702 220.935C142.212 220.935 142.677 220.815 143.097 220.575C143.527 220.325 143.867 219.97 144.117 219.51C144.367 219.04 144.492 218.49 144.492 217.86ZM154.973 213.78V222H153.608V220.785C153.348 221.205 152.983 221.535 152.513 221.775C152.053 222.005 151.543 222.12 150.983 222.12C150.343 222.12 149.768 221.99 149.258 221.73C148.748 221.46 148.343 221.06 148.043 220.53C147.753 220 147.608 219.355 147.608 218.595V213.78H148.958V218.415C148.958 219.225 149.163 219.85 149.573 220.29C149.983 220.72 150.543 220.935 151.253 220.935C151.983 220.935 152.558 220.71 152.978 220.26C153.398 219.81 153.608 219.155 153.608 218.295V213.78H154.973ZM167.163 213.63C167.803 213.63 168.373 213.765 168.873 214.035C169.373 214.295 169.768 214.69 170.058 215.22C170.348 215.75 170.493 216.395 170.493 217.155V222H169.143V217.35C169.143 216.53 168.938 215.905 168.528 215.475C168.128 215.035 167.583 214.815 166.893 214.815C166.183 214.815 165.618 215.045 165.198 215.505C164.778 215.955 164.568 216.61 164.568 217.47V222H163.218V217.35C163.218 216.53 163.013 215.905 162.603 215.475C162.203 215.035 161.658 214.815 160.968 214.815C160.258 214.815 159.693 215.045 159.273 215.505C158.853 215.955 158.643 216.61 158.643 217.47V222H157.278V213.78H158.643V214.965C158.913 214.535 159.273 214.205 159.723 213.975C160.183 213.745 160.688 213.63 161.238 213.63C161.928 213.63 162.538 213.785 163.068 214.095C163.598 214.405 163.993 214.86 164.253 215.46C164.483 214.88 164.863 214.43 165.393 214.11C165.923 213.79 166.513 213.63 167.163 213.63ZM174.097 215.295C174.367 214.825 174.767 214.435 175.297 214.125C175.837 213.805 176.462 213.645 177.172 213.645C177.902 213.645 178.562 213.82 179.152 214.17C179.752 214.52 180.222 215.015 180.562 215.655C180.902 216.285 181.072 217.02 181.072 217.86C181.072 218.69 180.902 219.43 180.562 220.08C180.222 220.73 179.752 221.235 179.152 221.595C178.562 221.955 177.902 222.135 177.172 222.135C176.472 222.135 175.852 221.98 175.312 221.67C174.782 221.35 174.377 220.955 174.097 220.485V225.9H172.732V213.78H174.097V215.295ZM179.677 217.86C179.677 217.24 179.552 216.7 179.302 216.24C179.052 215.78 178.712 215.43 178.282 215.19C177.862 214.95 177.397 214.83 176.887 214.83C176.387 214.83 175.922 214.955 175.492 215.205C175.072 215.445 174.732 215.8 174.472 216.27C174.222 216.73 174.097 217.265 174.097 217.875C174.097 218.495 174.222 219.04 174.472 219.51C174.732 219.97 175.072 220.325 175.492 220.575C175.922 220.815 176.387 220.935 176.887 220.935C177.397 220.935 177.862 220.815 178.282 220.575C178.712 220.325 179.052 219.97 179.302 219.51C179.552 219.04 179.677 218.49 179.677 217.86ZM187.459 222L184.234 218.37V222H182.869V210.9H184.234V217.425L187.399 213.78H189.304L185.434 217.875L189.319 222H187.459ZM191.294 212.445C191.034 212.445 190.814 212.355 190.634 212.175C190.454 211.995 190.364 211.775 190.364 211.515C190.364 211.255 190.454 211.035 190.634 210.855C190.814 210.675 191.034 210.585 191.294 210.585C191.544 210.585 191.754 210.675 191.924 210.855C192.104 211.035 192.194 211.255 192.194 211.515C192.194 211.775 192.104 211.995 191.924 212.175C191.754 212.355 191.544 212.445 191.294 212.445ZM191.954 213.78V222H190.589V213.78H191.954ZM198.285 213.63C199.285 213.63 200.095 213.935 200.715 214.545C201.335 215.145 201.645 216.015 201.645 217.155V222H200.295V217.35C200.295 216.53 200.09 215.905 199.68 215.475C199.27 215.035 198.71 214.815 198 214.815C197.28 214.815 196.705 215.04 196.275 215.49C195.855 215.94 195.645 216.595 195.645 217.455V222H194.28V213.78H195.645V214.95C195.915 214.53 196.28 214.205 196.74 213.975C197.21 213.745 197.725 213.63 198.285 213.63ZM97.845 235.34H92.58V238.76C92.81 238.44 93.15 238.18 93.6 237.98C94.05 237.77 94.535 237.665 95.055 237.665C95.885 237.665 96.56 237.84 97.08 238.19C97.6 238.53 97.97 238.975 98.19 239.525C98.42 240.065 98.535 240.64 98.535 241.25C98.535 241.97 98.4 242.615 98.13 243.185C97.86 243.755 97.445 244.205 96.885 244.535C96.335 244.865 95.65 245.03 94.83 245.03C93.78 245.03 92.93 244.76 92.28 244.22C91.63 243.68 91.235 242.96 91.095 242.06H92.43C92.56 242.63 92.835 243.075 93.255 243.395C93.675 243.715 94.205 243.875 94.845 243.875C95.635 243.875 96.23 243.64 96.63 243.17C97.03 242.69 97.23 242.06 97.23 241.28C97.23 240.5 97.03 239.9 96.63 239.48C96.23 239.05 95.64 238.835 94.86 238.835C94.33 238.835 93.865 238.965 93.465 239.225C93.075 239.475 92.79 239.82 92.61 240.26H91.32V234.14H97.845V235.34ZM100.349 239.465C100.349 237.745 100.629 236.405 101.189 235.445C101.749 234.475 102.729 233.99 104.129 233.99C105.519 233.99 106.494 234.475 107.054 235.445C107.614 236.405 107.894 237.745 107.894 239.465C107.894 241.215 107.614 242.575 107.054 243.545C106.494 244.515 105.519 245 104.129 245C102.729 245 101.749 244.515 101.189 243.545C100.629 242.575 100.349 241.215 100.349 239.465ZM106.544 239.465C106.544 238.595 106.484 237.86 106.364 237.26C106.254 236.65 106.019 236.16 105.659 235.79C105.309 235.42 104.799 235.235 104.129 235.235C103.449 235.235 102.929 235.42 102.569 235.79C102.219 236.16 101.984 236.65 101.864 237.26C101.754 237.86 101.699 238.595 101.699 239.465C101.699 240.365 101.754 241.12 101.864 241.73C101.984 242.34 102.219 242.83 102.569 243.2C102.929 243.57 103.449 243.755 104.129 243.755C104.799 243.755 105.309 243.57 105.659 243.2C106.019 242.83 106.254 242.34 106.364 241.73C106.484 241.12 106.544 240.365 106.544 239.465ZM117.382 236.645C118.092 236.645 118.712 236.8 119.242 237.11C119.782 237.42 120.182 237.81 120.442 238.28V236.78H121.822V245.18C121.822 245.93 121.662 246.595 121.342 247.175C121.022 247.765 120.562 248.225 119.962 248.555C119.372 248.885 118.682 249.05 117.892 249.05C116.812 249.05 115.912 248.795 115.192 248.285C114.472 247.775 114.047 247.08 113.917 246.2H115.267C115.417 246.7 115.727 247.1 116.197 247.4C116.667 247.71 117.232 247.865 117.892 247.865C118.642 247.865 119.252 247.63 119.722 247.16C120.202 246.69 120.442 246.03 120.442 245.18V243.455C120.172 243.935 119.772 244.335 119.242 244.655C118.712 244.975 118.092 245.135 117.382 245.135C116.652 245.135 115.987 244.955 115.387 244.595C114.797 244.235 114.332 243.73 113.992 243.08C113.652 242.43 113.482 241.69 113.482 240.86C113.482 240.02 113.652 239.285 113.992 238.655C114.332 238.015 114.797 237.52 115.387 237.17C115.987 236.82 116.652 236.645 117.382 236.645ZM120.442 240.875C120.442 240.255 120.317 239.715 120.067 239.255C119.817 238.795 119.477 238.445 119.047 238.205C118.627 237.955 118.162 237.83 117.652 237.83C117.142 237.83 116.677 237.95 116.257 238.19C115.837 238.43 115.502 238.78 115.252 239.24C115.002 239.7 114.877 240.24 114.877 240.86C114.877 241.49 115.002 242.04 115.252 242.51C115.502 242.97 115.837 243.325 116.257 243.575C116.677 243.815 117.142 243.935 117.652 243.935C118.162 243.935 118.627 243.815 119.047 243.575C119.477 243.325 119.817 242.97 120.067 242.51C120.317 242.04 120.442 241.495 120.442 240.875ZM138.013 236.63C138.653 236.63 139.223 236.765 139.723 237.035C140.223 237.295 140.618 237.69 140.908 238.22C141.198 238.75 141.343 239.395 141.343 240.155V245H139.993V240.35C139.993 239.53 139.788 238.905 139.378 238.475C138.978 238.035 138.433 237.815 137.743 237.815C137.033 237.815 136.468 238.045 136.048 238.505C135.628 238.955 135.418 239.61 135.418 240.47V245H134.068V240.35C134.068 239.53 133.863 238.905 133.453 238.475C133.053 238.035 132.508 237.815 131.818 237.815C131.108 237.815 130.543 238.045 130.123 238.505C129.703 238.955 129.493 239.61 129.493 240.47V245H128.128V236.78H129.493V237.965C129.763 237.535 130.123 237.205 130.573 236.975C131.033 236.745 131.538 236.63 132.088 236.63C132.778 236.63 133.388 236.785 133.918 237.095C134.448 237.405 134.843 237.86 135.103 238.46C135.333 237.88 135.713 237.43 136.243 237.11C136.773 236.79 137.363 236.63 138.013 236.63ZM143.072 240.86C143.072 240.02 143.242 239.285 143.582 238.655C143.922 238.015 144.387 237.52 144.977 237.17C145.577 236.82 146.242 236.645 146.972 236.645C147.692 236.645 148.317 236.8 148.847 237.11C149.377 237.42 149.772 237.81 150.032 238.28V236.78H151.412V245H150.032V243.47C149.762 243.95 149.357 244.35 148.817 244.67C148.287 244.98 147.667 245.135 146.957 245.135C146.227 245.135 145.567 244.955 144.977 244.595C144.387 244.235 143.922 243.73 143.582 243.08C143.242 242.43 143.072 241.69 143.072 240.86ZM150.032 240.875C150.032 240.255 149.907 239.715 149.657 239.255C149.407 238.795 149.067 238.445 148.637 238.205C148.217 237.955 147.752 237.83 147.242 237.83C146.732 237.83 146.267 237.95 145.847 238.19C145.427 238.43 145.092 238.78 144.842 239.24C144.592 239.7 144.467 240.24 144.467 240.86C144.467 241.49 144.592 242.04 144.842 242.51C145.092 242.97 145.427 243.325 145.847 243.575C146.267 243.815 146.732 243.935 147.242 243.935C147.752 243.935 148.217 243.815 148.637 243.575C149.067 243.325 149.407 242.97 149.657 242.51C149.907 242.04 150.032 241.495 150.032 240.875ZM155.083 238.115C155.323 237.645 155.663 237.28 156.103 237.02C156.553 236.76 157.098 236.63 157.738 236.63V238.04H157.378C155.848 238.04 155.083 238.87 155.083 240.53V245H153.718V236.78H155.083V238.115ZM162.704 236.645C163.414 236.645 164.034 236.8 164.564 237.11C165.104 237.42 165.504 237.81 165.764 238.28V236.78H167.144V245.18C167.144 245.93 166.984 246.595 166.664 247.175C166.344 247.765 165.884 248.225 165.284 248.555C164.694 248.885 164.004 249.05 163.214 249.05C162.134 249.05 161.234 248.795 160.514 248.285C159.794 247.775 159.369 247.08 159.239 246.2H160.589C160.739 246.7 161.049 247.1 161.519 247.4C161.989 247.71 162.554 247.865 163.214 247.865C163.964 247.865 164.574 247.63 165.044 247.16C165.524 246.69 165.764 246.03 165.764 245.18V243.455C165.494 243.935 165.094 244.335 164.564 244.655C164.034 244.975 163.414 245.135 162.704 245.135C161.974 245.135 161.309 244.955 160.709 244.595C160.119 244.235 159.654 243.73 159.314 243.08C158.974 242.43 158.804 241.69 158.804 240.86C158.804 240.02 158.974 239.285 159.314 238.655C159.654 238.015 160.119 237.52 160.709 237.17C161.309 236.82 161.974 236.645 162.704 236.645ZM165.764 240.875C165.764 240.255 165.639 239.715 165.389 239.255C165.139 238.795 164.799 238.445 164.369 238.205C163.949 237.955 163.484 237.83 162.974 237.83C162.464 237.83 161.999 237.95 161.579 238.19C161.159 238.43 160.824 238.78 160.574 239.24C160.324 239.7 160.199 240.24 160.199 240.86C160.199 241.49 160.324 242.04 160.574 242.51C160.824 242.97 161.159 243.325 161.579 243.575C161.999 243.815 162.464 243.935 162.974 243.935C163.484 243.935 163.949 243.815 164.369 243.575C164.799 243.325 165.139 242.97 165.389 242.51C165.639 242.04 165.764 241.495 165.764 240.875ZM176.951 240.575C176.951 240.835 176.936 241.11 176.906 241.4H170.336C170.386 242.21 170.661 242.845 171.161 243.305C171.671 243.755 172.286 243.98 173.006 243.98C173.596 243.98 174.086 243.845 174.476 243.575C174.876 243.295 175.156 242.925 175.316 242.465H176.786C176.566 243.255 176.126 243.9 175.466 244.4C174.806 244.89 173.986 245.135 173.006 245.135C172.226 245.135 171.526 244.96 170.906 244.61C170.296 244.26 169.816 243.765 169.466 243.125C169.116 242.475 168.941 241.725 168.941 240.875C168.941 240.025 169.111 239.28 169.451 238.64C169.791 238 170.266 237.51 170.876 237.17C171.496 236.82 172.206 236.645 173.006 236.645C173.786 236.645 174.476 236.815 175.076 237.155C175.676 237.495 176.136 237.965 176.456 238.565C176.786 239.155 176.951 239.825 176.951 240.575ZM175.541 240.29C175.541 239.77 175.426 239.325 175.196 238.955C174.966 238.575 174.651 238.29 174.251 238.1C173.861 237.9 173.426 237.8 172.946 237.8C172.256 237.8 171.666 238.02 171.176 238.46C170.696 238.9 170.421 239.51 170.351 240.29H175.541ZM180.118 238.115C180.358 237.645 180.698 237.28 181.138 237.02C181.588 236.76 182.133 236.63 182.773 236.63V238.04H182.413C180.883 238.04 180.118 238.87 180.118 240.53V245H178.753V236.78H180.118V238.115ZM185.053 235.445C184.793 235.445 184.573 235.355 184.393 235.175C184.213 234.995 184.123 234.775 184.123 234.515C184.123 234.255 184.213 234.035 184.393 233.855C184.573 233.675 184.793 233.585 185.053 233.585C185.303 233.585 185.513 233.675 185.683 233.855C185.863 234.035 185.953 234.255 185.953 234.515C185.953 234.775 185.863 234.995 185.683 235.175C185.513 235.355 185.303 235.445 185.053 235.445ZM185.713 236.78V245H184.348V236.78H185.713ZM192.045 236.63C193.045 236.63 193.855 236.935 194.475 237.545C195.095 238.145 195.405 239.015 195.405 240.155V245H194.055V240.35C194.055 239.53 193.85 238.905 193.44 238.475C193.03 238.035 192.47 237.815 191.76 237.815C191.04 237.815 190.465 238.04 190.035 238.49C189.615 238.94 189.405 239.595 189.405 240.455V245H188.04V236.78H189.405V237.95C189.675 237.53 190.04 237.205 190.5 236.975C190.97 236.745 191.485 236.63 192.045 236.63ZM205.134 240.575C205.134 240.835 205.119 241.11 205.089 241.4H198.519C198.569 242.21 198.844 242.845 199.344 243.305C199.854 243.755 200.469 243.98 201.189 243.98C201.779 243.98 202.269 243.845 202.659 243.575C203.059 243.295 203.339 242.925 203.499 242.465H204.969C204.749 243.255 204.309 243.9 203.649 244.4C202.989 244.89 202.169 245.135 201.189 245.135C200.409 245.135 199.709 244.96 199.089 244.61C198.479 244.26 197.999 243.765 197.649 243.125C197.299 242.475 197.124 241.725 197.124 240.875C197.124 240.025 197.294 239.28 197.634 238.64C197.974 238 198.449 237.51 199.059 237.17C199.679 236.82 200.389 236.645 201.189 236.645C201.969 236.645 202.659 236.815 203.259 237.155C203.859 237.495 204.319 237.965 204.639 238.565C204.969 239.155 205.134 239.825 205.134 240.575ZM203.724 240.29C203.724 239.77 203.609 239.325 203.379 238.955C203.149 238.575 202.834 238.29 202.434 238.1C202.044 237.9 201.609 237.8 201.129 237.8C200.439 237.8 199.849 238.02 199.359 238.46C198.879 238.9 198.604 239.51 198.534 240.29H203.724ZM97.845 258.34H92.58V261.76C92.81 261.44 93.15 261.18 93.6 260.98C94.05 260.77 94.535 260.665 95.055 260.665C95.885 260.665 96.56 260.84 97.08 261.19C97.6 261.53 97.97 261.975 98.19 262.525C98.42 263.065 98.535 263.64 98.535 264.25C98.535 264.97 98.4 265.615 98.13 266.185C97.86 266.755 97.445 267.205 96.885 267.535C96.335 267.865 95.65 268.03 94.83 268.03C93.78 268.03 92.93 267.76 92.28 267.22C91.63 266.68 91.235 265.96 91.095 265.06H92.43C92.56 265.63 92.835 266.075 93.255 266.395C93.675 266.715 94.205 266.875 94.845 266.875C95.635 266.875 96.23 266.64 96.63 266.17C97.03 265.69 97.23 265.06 97.23 264.28C97.23 263.5 97.03 262.9 96.63 262.48C96.23 262.05 95.64 261.835 94.86 261.835C94.33 261.835 93.865 261.965 93.465 262.225C93.075 262.475 92.79 262.82 92.61 263.26H91.32V257.14H97.845V258.34ZM103.964 259.645C104.674 259.645 105.294 259.8 105.824 260.11C106.364 260.42 106.764 260.81 107.024 261.28V259.78H108.404V268.18C108.404 268.93 108.244 269.595 107.924 270.175C107.604 270.765 107.144 271.225 106.544 271.555C105.954 271.885 105.264 272.05 104.474 272.05C103.394 272.05 102.494 271.795 101.774 271.285C101.054 270.775 100.629 270.08 100.499 269.2H101.849C101.999 269.7 102.309 270.1 102.779 270.4C103.249 270.71 103.814 270.865 104.474 270.865C105.224 270.865 105.834 270.63 106.304 270.16C106.784 269.69 107.024 269.03 107.024 268.18V266.455C106.754 266.935 106.354 267.335 105.824 267.655C105.294 267.975 104.674 268.135 103.964 268.135C103.234 268.135 102.569 267.955 101.969 267.595C101.379 267.235 100.914 266.73 100.574 266.08C100.234 265.43 100.064 264.69 100.064 263.86C100.064 263.02 100.234 262.285 100.574 261.655C100.914 261.015 101.379 260.52 101.969 260.17C102.569 259.82 103.234 259.645 103.964 259.645ZM107.024 263.875C107.024 263.255 106.899 262.715 106.649 262.255C106.399 261.795 106.059 261.445 105.629 261.205C105.209 260.955 104.744 260.83 104.234 260.83C103.724 260.83 103.259 260.95 102.839 261.19C102.419 261.43 102.084 261.78 101.834 262.24C101.584 262.7 101.459 263.24 101.459 263.86C101.459 264.49 101.584 265.04 101.834 265.51C102.084 265.97 102.419 266.325 102.839 266.575C103.259 266.815 103.724 266.935 104.234 266.935C104.744 266.935 105.209 266.815 105.629 266.575C106.059 266.325 106.399 265.97 106.649 265.51C106.899 265.04 107.024 264.495 107.024 263.875ZM125.66 259.78L123.095 268H121.685L119.705 261.475L117.725 268H116.315L113.735 259.78H115.13L117.02 266.68L119.06 259.78H120.455L122.45 266.695L124.31 259.78H125.66ZM131.094 259.63C131.714 259.63 132.274 259.765 132.774 260.035C133.274 260.295 133.664 260.69 133.944 261.22C134.234 261.75 134.379 262.395 134.379 263.155V268H133.029V263.35C133.029 262.53 132.824 261.905 132.414 261.475C132.004 261.035 131.444 260.815 130.734 260.815C130.014 260.815 129.439 261.04 129.009 261.49C128.589 261.94 128.379 262.595 128.379 263.455V268H127.014V256.9H128.379V260.95C128.649 260.53 129.019 260.205 129.489 259.975C129.969 259.745 130.504 259.63 131.094 259.63ZM137.314 258.445C137.054 258.445 136.834 258.355 136.654 258.175C136.474 257.995 136.384 257.775 136.384 257.515C136.384 257.255 136.474 257.035 136.654 256.855C136.834 256.675 137.054 256.585 137.314 256.585C137.564 256.585 137.774 256.675 137.944 256.855C138.124 257.035 138.214 257.255 138.214 257.515C138.214 257.775 138.124 257.995 137.944 258.175C137.774 258.355 137.564 258.445 137.314 258.445ZM137.974 259.78V268H136.609V259.78H137.974ZM141.966 260.905V265.75C141.966 266.15 142.051 266.435 142.221 266.605C142.391 266.765 142.686 266.845 143.106 266.845H144.111V268H142.881C142.121 268 141.551 267.825 141.171 267.475C140.791 267.125 140.601 266.55 140.601 265.75V260.905H139.536V259.78H140.601V257.71H141.966V259.78H144.111V260.905H141.966ZM153.264 263.575C153.264 263.835 153.249 264.11 153.219 264.4H146.649C146.699 265.21 146.974 265.845 147.474 266.305C147.984 266.755 148.599 266.98 149.319 266.98C149.909 266.98 150.399 266.845 150.789 266.575C151.189 266.295 151.469 265.925 151.629 265.465H153.099C152.879 266.255 152.439 266.9 151.779 267.4C151.119 267.89 150.299 268.135 149.319 268.135C148.539 268.135 147.839 267.96 147.219 267.61C146.609 267.26 146.129 266.765 145.779 266.125C145.429 265.475 145.254 264.725 145.254 263.875C145.254 263.025 145.424 262.28 145.764 261.64C146.104 261 146.579 260.51 147.189 260.17C147.809 259.82 148.519 259.645 149.319 259.645C150.099 259.645 150.789 259.815 151.389 260.155C151.989 260.495 152.449 260.965 152.769 261.565C153.099 262.155 153.264 262.825 153.264 263.575ZM151.854 263.29C151.854 262.77 151.739 262.325 151.509 261.955C151.279 261.575 150.964 261.29 150.564 261.1C150.174 260.9 149.739 260.8 149.259 260.8C148.569 260.8 147.979 261.02 147.489 261.46C147.009 261.9 146.734 262.51 146.664 263.29H151.854ZM160.43 261.295C160.7 260.825 161.1 260.435 161.63 260.125C162.17 259.805 162.795 259.645 163.505 259.645C164.235 259.645 164.895 259.82 165.485 260.17C166.085 260.52 166.555 261.015 166.895 261.655C167.235 262.285 167.405 263.02 167.405 263.86C167.405 264.69 167.235 265.43 166.895 266.08C166.555 266.73 166.085 267.235 165.485 267.595C164.895 267.955 164.235 268.135 163.505 268.135C162.805 268.135 162.185 267.98 161.645 267.67C161.115 267.35 160.71 266.955 160.43 266.485V271.9H159.065V259.78H160.43V261.295ZM166.01 263.86C166.01 263.24 165.885 262.7 165.635 262.24C165.385 261.78 165.045 261.43 164.615 261.19C164.195 260.95 163.73 260.83 163.22 260.83C162.72 260.83 162.255 260.955 161.825 261.205C161.405 261.445 161.065 261.8 160.805 262.27C160.555 262.73 160.43 263.265 160.43 263.875C160.43 264.495 160.555 265.04 160.805 265.51C161.065 265.97 161.405 266.325 161.825 266.575C162.255 266.815 162.72 266.935 163.22 266.935C163.73 266.935 164.195 266.815 164.615 266.575C165.045 266.325 165.385 265.97 165.635 265.51C165.885 265.04 166.01 264.49 166.01 263.86ZM176.702 263.575C176.702 263.835 176.687 264.11 176.657 264.4H170.087C170.137 265.21 170.412 265.845 170.912 266.305C171.422 266.755 172.037 266.98 172.757 266.98C173.347 266.98 173.837 266.845 174.227 266.575C174.627 266.295 174.907 265.925 175.067 265.465H176.537C176.317 266.255 175.877 266.9 175.217 267.4C174.557 267.89 173.737 268.135 172.757 268.135C171.977 268.135 171.277 267.96 170.657 267.61C170.047 267.26 169.567 266.765 169.217 266.125C168.867 265.475 168.692 264.725 168.692 263.875C168.692 263.025 168.862 262.28 169.202 261.64C169.542 261 170.017 260.51 170.627 260.17C171.247 259.82 171.957 259.645 172.757 259.645C173.537 259.645 174.227 259.815 174.827 260.155C175.427 260.495 175.887 260.965 176.207 261.565C176.537 262.155 176.702 262.825 176.702 263.575ZM175.292 263.29C175.292 262.77 175.177 262.325 174.947 261.955C174.717 261.575 174.402 261.29 174.002 261.1C173.612 260.9 173.177 260.8 172.697 260.8C172.007 260.8 171.417 261.02 170.927 261.46C170.447 261.9 170.172 262.51 170.102 263.29H175.292ZM179.869 261.295C180.139 260.825 180.539 260.435 181.069 260.125C181.609 259.805 182.234 259.645 182.944 259.645C183.674 259.645 184.334 259.82 184.924 260.17C185.524 260.52 185.994 261.015 186.334 261.655C186.674 262.285 186.844 263.02 186.844 263.86C186.844 264.69 186.674 265.43 186.334 266.08C185.994 266.73 185.524 267.235 184.924 267.595C184.334 267.955 183.674 268.135 182.944 268.135C182.244 268.135 181.624 267.98 181.084 267.67C180.554 267.35 180.149 266.955 179.869 266.485V271.9H178.504V259.78H179.869V261.295ZM185.449 263.86C185.449 263.24 185.324 262.7 185.074 262.24C184.824 261.78 184.484 261.43 184.054 261.19C183.634 260.95 183.169 260.83 182.659 260.83C182.159 260.83 181.694 260.955 181.264 261.205C180.844 261.445 180.504 261.8 180.244 262.27C179.994 262.73 179.869 263.265 179.869 263.875C179.869 264.495 179.994 265.04 180.244 265.51C180.504 265.97 180.844 266.325 181.264 266.575C181.694 266.815 182.159 266.935 182.659 266.935C183.169 266.935 183.634 266.815 184.054 266.575C184.484 266.325 184.824 265.97 185.074 265.51C185.324 265.04 185.449 264.49 185.449 263.86ZM190.005 261.295C190.275 260.825 190.675 260.435 191.205 260.125C191.745 259.805 192.37 259.645 193.08 259.645C193.81 259.645 194.47 259.82 195.06 260.17C195.66 260.52 196.13 261.015 196.47 261.655C196.81 262.285 196.98 263.02 196.98 263.86C196.98 264.69 196.81 265.43 196.47 266.08C196.13 266.73 195.66 267.235 195.06 267.595C194.47 267.955 193.81 268.135 193.08 268.135C192.38 268.135 191.76 267.98 191.22 267.67C190.69 267.35 190.285 266.955 190.005 266.485V271.9H188.64V259.78H190.005V261.295ZM195.585 263.86C195.585 263.24 195.46 262.7 195.21 262.24C194.96 261.78 194.62 261.43 194.19 261.19C193.77 260.95 193.305 260.83 192.795 260.83C192.295 260.83 191.83 260.955 191.4 261.205C190.98 261.445 190.64 261.8 190.38 262.27C190.13 262.73 190.005 263.265 190.005 263.875C190.005 264.495 190.13 265.04 190.38 265.51C190.64 265.97 190.98 266.325 191.4 266.575C191.83 266.815 192.295 266.935 192.795 266.935C193.305 266.935 193.77 266.815 194.19 266.575C194.62 266.325 194.96 265.97 195.21 265.51C195.46 265.04 195.585 264.49 195.585 263.86ZM206.277 263.575C206.277 263.835 206.262 264.11 206.232 264.4H199.662C199.712 265.21 199.987 265.845 200.487 266.305C200.997 266.755 201.612 266.98 202.332 266.98C202.922 266.98 203.412 266.845 203.802 266.575C204.202 266.295 204.482 265.925 204.642 265.465H206.112C205.892 266.255 205.452 266.9 204.792 267.4C204.132 267.89 203.312 268.135 202.332 268.135C201.552 268.135 200.852 267.96 200.232 267.61C199.622 267.26 199.142 266.765 198.792 266.125C198.442 265.475 198.267 264.725 198.267 263.875C198.267 263.025 198.437 262.28 198.777 261.64C199.117 261 199.592 260.51 200.202 260.17C200.822 259.82 201.532 259.645 202.332 259.645C203.112 259.645 203.802 259.815 204.402 260.155C205.002 260.495 205.462 260.965 205.782 261.565C206.112 262.155 206.277 262.825 206.277 263.575ZM204.867 263.29C204.867 262.77 204.752 262.325 204.522 261.955C204.292 261.575 203.977 261.29 203.577 261.1C203.187 260.9 202.752 260.8 202.272 260.8C201.582 260.8 200.992 261.02 200.502 261.46C200.022 261.9 199.747 262.51 199.677 263.29H204.867ZM209.444 261.115C209.684 260.645 210.024 260.28 210.464 260.02C210.914 259.76 211.459 259.63 212.099 259.63V261.04H211.739C210.209 261.04 209.444 261.87 209.444 263.53V268H208.079V259.78H209.444V261.115ZM90.765 289.905C92.035 288.885 93.03 288.05 93.75 287.4C94.47 286.74 95.075 286.055 95.565 285.345C96.065 284.625 96.315 283.92 96.315 283.23C96.315 282.58 96.155 282.07 95.835 281.7C95.525 281.32 95.02 281.13 94.32 281.13C93.64 281.13 93.11 281.345 92.73 281.775C92.36 282.195 92.16 282.76 92.13 283.47H90.81C90.85 282.35 91.19 281.485 91.83 280.875C92.47 280.265 93.295 279.96 94.305 279.96C95.335 279.96 96.15 280.245 96.75 280.815C97.36 281.385 97.665 282.17 97.665 283.17C97.665 284 97.415 284.81 96.915 285.6C96.425 286.38 95.865 287.07 95.235 287.67C94.605 288.26 93.8 288.95 92.82 289.74H97.98V290.88H90.765V289.905ZM99.5579 285.465C99.5579 283.745 99.8379 282.405 100.398 281.445C100.958 280.475 101.938 279.99 103.338 279.99C104.728 279.99 105.703 280.475 106.263 281.445C106.823 282.405 107.103 283.745 107.103 285.465C107.103 287.215 106.823 288.575 106.263 289.545C105.703 290.515 104.728 291 103.338 291C101.938 291 100.958 290.515 100.398 289.545C99.8379 288.575 99.5579 287.215 99.5579 285.465ZM105.753 285.465C105.753 284.595 105.693 283.86 105.573 283.26C105.463 282.65 105.228 282.16 104.868 281.79C104.518 281.42 104.008 281.235 103.338 281.235C102.658 281.235 102.138 281.42 101.778 281.79C101.428 282.16 101.193 282.65 101.073 283.26C100.963 283.86 100.908 284.595 100.908 285.465C100.908 286.365 100.963 287.12 101.073 287.73C101.193 288.34 101.428 288.83 101.778 289.2C102.138 289.57 102.658 289.755 103.338 289.755C104.008 289.755 104.518 289.57 104.868 289.2C105.228 288.83 105.463 288.34 105.573 287.73C105.693 287.12 105.753 286.365 105.753 285.465ZM108.977 285.465C108.977 283.745 109.257 282.405 109.817 281.445C110.377 280.475 111.357 279.99 112.757 279.99C114.147 279.99 115.122 280.475 115.682 281.445C116.242 282.405 116.522 283.745 116.522 285.465C116.522 287.215 116.242 288.575 115.682 289.545C115.122 290.515 114.147 291 112.757 291C111.357 291 110.377 290.515 109.817 289.545C109.257 288.575 108.977 287.215 108.977 285.465ZM115.172 285.465C115.172 284.595 115.112 283.86 114.992 283.26C114.882 282.65 114.647 282.16 114.287 281.79C113.937 281.42 113.427 281.235 112.757 281.235C112.077 281.235 111.557 281.42 111.197 281.79C110.847 282.16 110.612 282.65 110.492 283.26C110.382 283.86 110.327 284.595 110.327 285.465C110.327 286.365 110.382 287.12 110.492 287.73C110.612 288.34 110.847 288.83 111.197 289.2C111.557 289.57 112.077 289.755 112.757 289.755C113.427 289.755 113.937 289.57 114.287 289.2C114.647 288.83 114.882 288.34 114.992 287.73C115.112 287.12 115.172 286.365 115.172 285.465ZM122.011 282.645C122.721 282.645 123.341 282.8 123.871 283.11C124.411 283.42 124.811 283.81 125.071 284.28V282.78H126.451V291.18C126.451 291.93 126.291 292.595 125.971 293.175C125.651 293.765 125.191 294.225 124.591 294.555C124.001 294.885 123.311 295.05 122.521 295.05C121.441 295.05 120.541 294.795 119.821 294.285C119.101 293.775 118.676 293.08 118.546 292.2H119.896C120.046 292.7 120.356 293.1 120.826 293.4C121.296 293.71 121.861 293.865 122.521 293.865C123.271 293.865 123.881 293.63 124.351 293.16C124.831 292.69 125.071 292.03 125.071 291.18V289.455C124.801 289.935 124.401 290.335 123.871 290.655C123.341 290.975 122.721 291.135 122.011 291.135C121.281 291.135 120.616 290.955 120.016 290.595C119.426 290.235 118.961 289.73 118.621 289.08C118.281 288.43 118.111 287.69 118.111 286.86C118.111 286.02 118.281 285.285 118.621 284.655C118.961 284.015 119.426 283.52 120.016 283.17C120.616 282.82 121.281 282.645 122.011 282.645ZM125.071 286.875C125.071 286.255 124.946 285.715 124.696 285.255C124.446 284.795 124.106 284.445 123.676 284.205C123.256 283.955 122.791 283.83 122.281 283.83C121.771 283.83 121.306 283.95 120.886 284.19C120.466 284.43 120.131 284.78 119.881 285.24C119.631 285.7 119.506 286.24 119.506 286.86C119.506 287.49 119.631 288.04 119.881 288.51C120.131 288.97 120.466 289.325 120.886 289.575C121.306 289.815 121.771 289.935 122.281 289.935C122.791 289.935 123.256 289.815 123.676 289.575C124.106 289.325 124.446 288.97 124.696 288.51C124.946 288.04 125.071 287.495 125.071 286.875ZM143.707 282.78L141.142 291H139.732L137.752 284.475L135.772 291H134.362L131.782 282.78H133.177L135.067 289.68L137.107 282.78H138.502L140.497 289.695L142.357 282.78H143.707ZM149.141 282.63C149.761 282.63 150.321 282.765 150.821 283.035C151.321 283.295 151.711 283.69 151.991 284.22C152.281 284.75 152.426 285.395 152.426 286.155V291H151.076V286.35C151.076 285.53 150.871 284.905 150.461 284.475C150.051 284.035 149.491 283.815 148.781 283.815C148.061 283.815 147.486 284.04 147.056 284.49C146.636 284.94 146.426 285.595 146.426 286.455V291H145.061V279.9H146.426V283.95C146.696 283.53 147.066 283.205 147.536 282.975C148.016 282.745 148.551 282.63 149.141 282.63ZM155.361 281.445C155.101 281.445 154.881 281.355 154.701 281.175C154.521 280.995 154.431 280.775 154.431 280.515C154.431 280.255 154.521 280.035 154.701 279.855C154.881 279.675 155.101 279.585 155.361 279.585C155.611 279.585 155.821 279.675 155.991 279.855C156.171 280.035 156.261 280.255 156.261 280.515C156.261 280.775 156.171 280.995 155.991 281.175C155.821 281.355 155.611 281.445 155.361 281.445ZM156.021 282.78V291H154.656V282.78H156.021ZM160.012 283.905V288.75C160.012 289.15 160.097 289.435 160.267 289.605C160.437 289.765 160.732 289.845 161.152 289.845H162.157V291H160.927C160.167 291 159.597 290.825 159.217 290.475C158.837 290.125 158.647 289.55 158.647 288.75V283.905H157.582V282.78H158.647V280.71H160.012V282.78H162.157V283.905H160.012ZM171.311 286.575C171.311 286.835 171.296 287.11 171.266 287.4H164.696C164.746 288.21 165.021 288.845 165.521 289.305C166.031 289.755 166.646 289.98 167.366 289.98C167.956 289.98 168.446 289.845 168.836 289.575C169.236 289.295 169.516 288.925 169.676 288.465H171.146C170.926 289.255 170.486 289.9 169.826 290.4C169.166 290.89 168.346 291.135 167.366 291.135C166.586 291.135 165.886 290.96 165.266 290.61C164.656 290.26 164.176 289.765 163.826 289.125C163.476 288.475 163.301 287.725 163.301 286.875C163.301 286.025 163.471 285.28 163.811 284.64C164.151 284 164.626 283.51 165.236 283.17C165.856 282.82 166.566 282.645 167.366 282.645C168.146 282.645 168.836 282.815 169.436 283.155C170.036 283.495 170.496 283.965 170.816 284.565C171.146 285.155 171.311 285.825 171.311 286.575ZM169.901 286.29C169.901 285.77 169.786 285.325 169.556 284.955C169.326 284.575 169.011 284.29 168.611 284.1C168.221 283.9 167.786 283.8 167.306 283.8C166.616 283.8 166.026 284.02 165.536 284.46C165.056 284.9 164.781 285.51 164.711 286.29H169.901ZM180.697 291.135C179.927 291.135 179.227 290.96 178.597 290.61C177.977 290.26 177.487 289.765 177.127 289.125C176.777 288.475 176.602 287.725 176.602 286.875C176.602 286.035 176.782 285.295 177.142 284.655C177.512 284.005 178.012 283.51 178.642 283.17C179.272 282.82 179.977 282.645 180.757 282.645C181.537 282.645 182.242 282.82 182.872 283.17C183.502 283.51 183.997 284 184.357 284.64C184.727 285.28 184.912 286.025 184.912 286.875C184.912 287.725 184.722 288.475 184.342 289.125C183.972 289.765 183.467 290.26 182.827 290.61C182.187 290.96 181.477 291.135 180.697 291.135ZM180.697 289.935C181.187 289.935 181.647 289.82 182.077 289.59C182.507 289.36 182.852 289.015 183.112 288.555C183.382 288.095 183.517 287.535 183.517 286.875C183.517 286.215 183.387 285.655 183.127 285.195C182.867 284.735 182.527 284.395 182.107 284.175C181.687 283.945 181.232 283.83 180.742 283.83C180.242 283.83 179.782 283.945 179.362 284.175C178.952 284.395 178.622 284.735 178.372 285.195C178.122 285.655 177.997 286.215 177.997 286.875C177.997 287.545 178.117 288.11 178.357 288.57C178.607 289.03 178.937 289.375 179.347 289.605C179.757 289.825 180.207 289.935 180.697 289.935ZM190.712 282.63C191.712 282.63 192.522 282.935 193.142 283.545C193.762 284.145 194.072 285.015 194.072 286.155V291H192.722V286.35C192.722 285.53 192.517 284.905 192.107 284.475C191.697 284.035 191.137 283.815 190.427 283.815C189.707 283.815 189.132 284.04 188.702 284.49C188.282 284.94 188.072 285.595 188.072 286.455V291H186.707V282.78H188.072V283.95C188.342 283.53 188.707 283.205 189.167 282.975C189.637 282.745 190.152 282.63 190.712 282.63ZM197.006 281.445C196.746 281.445 196.526 281.355 196.346 281.175C196.166 280.995 196.076 280.775 196.076 280.515C196.076 280.255 196.166 280.035 196.346 279.855C196.526 279.675 196.746 279.585 197.006 279.585C197.256 279.585 197.466 279.675 197.636 279.855C197.816 280.035 197.906 280.255 197.906 280.515C197.906 280.775 197.816 280.995 197.636 281.175C197.466 281.355 197.256 281.445 197.006 281.445ZM197.666 282.78V291H196.301V282.78H197.666ZM203.578 291.135C202.808 291.135 202.108 290.96 201.478 290.61C200.858 290.26 200.368 289.765 200.008 289.125C199.658 288.475 199.483 287.725 199.483 286.875C199.483 286.035 199.663 285.295 200.023 284.655C200.393 284.005 200.893 283.51 201.523 283.17C202.153 282.82 202.858 282.645 203.638 282.645C204.418 282.645 205.123 282.82 205.753 283.17C206.383 283.51 206.878 284 207.238 284.64C207.608 285.28 207.793 286.025 207.793 286.875C207.793 287.725 207.603 288.475 207.223 289.125C206.853 289.765 206.348 290.26 205.708 290.61C205.068 290.96 204.358 291.135 203.578 291.135ZM203.578 289.935C204.068 289.935 204.528 289.82 204.958 289.59C205.388 289.36 205.733 289.015 205.993 288.555C206.263 288.095 206.398 287.535 206.398 286.875C206.398 286.215 206.268 285.655 206.008 285.195C205.748 284.735 205.408 284.395 204.988 284.175C204.568 283.945 204.113 283.83 203.623 283.83C203.123 283.83 202.663 283.945 202.243 284.175C201.833 284.395 201.503 284.735 201.253 285.195C201.003 285.655 200.878 286.215 200.878 286.875C200.878 287.545 200.998 288.11 201.238 288.57C201.488 289.03 201.818 289.375 202.228 289.605C202.638 289.825 203.088 289.935 203.578 289.935ZM213.593 282.63C214.593 282.63 215.403 282.935 216.023 283.545C216.643 284.145 216.953 285.015 216.953 286.155V291H215.603V286.35C215.603 285.53 215.398 284.905 214.988 284.475C214.578 284.035 214.018 283.815 213.308 283.815C212.588 283.815 212.013 284.04 211.583 284.49C211.163 284.94 210.953 285.595 210.953 286.455V291H209.588V282.78H210.953V283.95C211.223 283.53 211.588 283.205 212.048 282.975C212.518 282.745 213.033 282.63 213.593 282.63Z" fill="#513131"/>
<path d="M121.48 151.016C121.149 151.016 120.872 150.904 120.648 150.68C120.424 150.456 120.312 150.179 120.312 149.848C120.312 149.517 120.424 149.24 120.648 149.016C120.872 148.792 121.149 148.68 121.48 148.68C121.8 148.68 122.072 148.792 122.296 149.016C122.52 149.24 122.632 149.517 122.632 149.848C122.632 150.179 122.52 150.456 122.296 150.68C122.072 150.904 121.8 151.016 121.48 151.016ZM122.376 152.184V161H120.552V152.184H122.376ZM129.218 152.04C129.912 152.04 130.53 152.184 131.074 152.472C131.629 152.76 132.061 153.187 132.37 153.752C132.68 154.317 132.834 155 132.834 155.8V161H131.026V156.072C131.026 155.283 130.829 154.68 130.434 154.264C130.04 153.837 129.501 153.624 128.818 153.624C128.136 153.624 127.592 153.837 127.186 154.264C126.792 154.68 126.594 155.283 126.594 156.072V161H124.77V152.184H126.594V153.192C126.893 152.829 127.272 152.547 127.73 152.344C128.2 152.141 128.696 152.04 129.218 152.04ZM138.713 152.04C139.396 152.04 139.998 152.179 140.521 152.456C141.054 152.723 141.47 153.059 141.769 153.464V152.184H143.609V161.144C143.609 161.955 143.438 162.675 143.097 163.304C142.756 163.944 142.26 164.445 141.609 164.808C140.969 165.171 140.201 165.352 139.305 165.352C138.11 165.352 137.118 165.069 136.329 164.504C135.54 163.949 135.092 163.192 134.985 162.232H136.793C136.932 162.691 137.225 163.059 137.673 163.336C138.132 163.624 138.676 163.768 139.305 163.768C140.041 163.768 140.633 163.544 141.081 163.096C141.54 162.648 141.769 161.997 141.769 161.144V159.672C141.46 160.088 141.038 160.44 140.505 160.728C139.982 161.005 139.385 161.144 138.713 161.144C137.945 161.144 137.241 160.952 136.601 160.568C135.972 160.173 135.47 159.629 135.097 158.936C134.734 158.232 134.553 157.437 134.553 156.552C134.553 155.667 134.734 154.883 135.097 154.2C135.47 153.517 135.972 152.989 136.601 152.616C137.241 152.232 137.945 152.04 138.713 152.04ZM141.769 156.584C141.769 155.976 141.641 155.448 141.385 155C141.14 154.552 140.814 154.211 140.409 153.976C140.004 153.741 139.566 153.624 139.097 153.624C138.628 153.624 138.19 153.741 137.785 153.976C137.38 154.2 137.049 154.536 136.793 154.984C136.548 155.421 136.425 155.944 136.425 156.552C136.425 157.16 136.548 157.693 136.793 158.152C137.049 158.611 137.38 158.963 137.785 159.208C138.201 159.443 138.638 159.56 139.097 159.56C139.566 159.56 140.004 159.443 140.409 159.208C140.814 158.973 141.14 158.632 141.385 158.184C141.641 157.725 141.769 157.192 141.769 156.584ZM147.829 153.464C148.095 153.016 148.447 152.669 148.885 152.424C149.333 152.168 149.861 152.04 150.469 152.04V153.928H150.005C149.29 153.928 148.746 154.109 148.373 154.472C148.01 154.835 147.829 155.464 147.829 156.36V161H146.005V152.184H147.829V153.464ZM160.225 156.376C160.225 156.707 160.204 157.005 160.161 157.272H153.425C153.479 157.976 153.74 158.541 154.209 158.968C154.679 159.395 155.255 159.608 155.937 159.608C156.919 159.608 157.612 159.197 158.017 158.376H159.985C159.719 159.187 159.233 159.853 158.529 160.376C157.836 160.888 156.972 161.144 155.937 161.144C155.095 161.144 154.337 160.957 153.665 160.584C153.004 160.2 152.481 159.667 152.097 158.984C151.724 158.291 151.537 157.491 151.537 156.584C151.537 155.677 151.719 154.883 152.081 154.2C152.455 153.507 152.972 152.973 153.633 152.6C154.305 152.227 155.073 152.04 155.937 152.04C156.769 152.04 157.511 152.221 158.161 152.584C158.812 152.947 159.319 153.459 159.681 154.12C160.044 154.771 160.225 155.523 160.225 156.376ZM158.321 155.8C158.311 155.128 158.071 154.589 157.601 154.184C157.132 153.779 156.551 153.576 155.857 153.576C155.228 153.576 154.689 153.779 154.241 154.184C153.793 154.579 153.527 155.117 153.441 155.8H158.321ZM161.412 156.552C161.412 155.667 161.594 154.883 161.956 154.2C162.33 153.517 162.831 152.989 163.46 152.616C164.1 152.232 164.81 152.04 165.588 152.04C166.164 152.04 166.73 152.168 167.284 152.424C167.85 152.669 168.298 153 168.628 153.416V149.16H170.468V161H168.628V159.672C168.33 160.099 167.914 160.451 167.38 160.728C166.858 161.005 166.255 161.144 165.572 161.144C164.804 161.144 164.1 160.952 163.46 160.568C162.831 160.173 162.33 159.629 161.956 158.936C161.594 158.232 161.412 157.437 161.412 156.552ZM168.628 156.584C168.628 155.976 168.5 155.448 168.244 155C167.999 154.552 167.674 154.211 167.268 153.976C166.863 153.741 166.426 153.624 165.956 153.624C165.487 153.624 165.05 153.741 164.644 153.976C164.239 154.2 163.908 154.536 163.652 154.984C163.407 155.421 163.284 155.944 163.284 156.552C163.284 157.16 163.407 157.693 163.652 158.152C163.908 158.611 164.239 158.963 164.644 159.208C165.06 159.443 165.498 159.56 165.956 159.56C166.426 159.56 166.863 159.443 167.268 159.208C167.674 158.973 167.999 158.632 168.244 158.184C168.5 157.725 168.628 157.192 168.628 156.584ZM173.792 151.016C173.461 151.016 173.184 150.904 172.96 150.68C172.736 150.456 172.624 150.179 172.624 149.848C172.624 149.517 172.736 149.24 172.96 149.016C173.184 148.792 173.461 148.68 173.792 148.68C174.112 148.68 174.384 148.792 174.608 149.016C174.832 149.24 174.944 149.517 174.944 149.848C174.944 150.179 174.832 150.456 174.608 150.68C174.384 150.904 174.112 151.016 173.792 151.016ZM174.688 152.184V161H172.864V152.184H174.688ZM185.163 156.376C185.163 156.707 185.141 157.005 185.099 157.272H178.363C178.416 157.976 178.677 158.541 179.147 158.968C179.616 159.395 180.192 159.608 180.875 159.608C181.856 159.608 182.549 159.197 182.955 158.376H184.923C184.656 159.187 184.171 159.853 183.467 160.376C182.773 160.888 181.909 161.144 180.875 161.144C180.032 161.144 179.275 160.957 178.603 160.584C177.941 160.2 177.419 159.667 177.035 158.984C176.661 158.291 176.475 157.491 176.475 156.584C176.475 155.677 176.656 154.883 177.019 154.2C177.392 153.507 177.909 152.973 178.571 152.6C179.243 152.227 180.011 152.04 180.875 152.04C181.707 152.04 182.448 152.221 183.099 152.584C183.749 152.947 184.256 153.459 184.619 154.12C184.981 154.771 185.163 155.523 185.163 156.376ZM183.259 155.8C183.248 155.128 183.008 154.589 182.539 154.184C182.069 153.779 181.488 153.576 180.795 153.576C180.165 153.576 179.627 153.779 179.179 154.184C178.731 154.579 178.464 155.117 178.379 155.8H183.259ZM191.406 152.04C192.099 152.04 192.718 152.184 193.262 152.472C193.816 152.76 194.248 153.187 194.558 153.752C194.867 154.317 195.022 155 195.022 155.8V161H193.214V156.072C193.214 155.283 193.016 154.68 192.622 154.264C192.227 153.837 191.688 153.624 191.006 153.624C190.323 153.624 189.779 153.837 189.374 154.264C188.979 154.68 188.782 155.283 188.782 156.072V161H186.958V152.184H188.782V153.192C189.08 152.829 189.459 152.547 189.918 152.344C190.387 152.141 190.883 152.04 191.406 152.04ZM199.476 153.672V158.552C199.476 158.883 199.551 159.123 199.7 159.272C199.86 159.411 200.127 159.48 200.5 159.48H201.62V161H200.18C199.359 161 198.73 160.808 198.292 160.424C197.855 160.04 197.636 159.416 197.636 158.552V153.672H196.596V152.184H197.636V149.992H199.476V152.184H201.62V153.672H199.476ZM206.502 161.144C205.808 161.144 205.184 161.021 204.63 160.776C204.086 160.52 203.654 160.179 203.334 159.752C203.014 159.315 202.843 158.829 202.822 158.296H204.71C204.742 158.669 204.918 158.984 205.238 159.24C205.568 159.485 205.979 159.608 206.47 159.608C206.982 159.608 207.376 159.512 207.654 159.32C207.942 159.117 208.086 158.861 208.086 158.552C208.086 158.221 207.926 157.976 207.606 157.816C207.296 157.656 206.8 157.48 206.118 157.288C205.456 157.107 204.918 156.931 204.502 156.76C204.086 156.589 203.723 156.328 203.414 155.976C203.115 155.624 202.966 155.16 202.966 154.584C202.966 154.115 203.104 153.688 203.382 153.304C203.659 152.909 204.054 152.6 204.566 152.376C205.088 152.152 205.686 152.04 206.358 152.04C207.36 152.04 208.166 152.296 208.774 152.808C209.392 153.309 209.723 153.997 209.766 154.872H207.942C207.91 154.477 207.75 154.163 207.462 153.928C207.174 153.693 206.784 153.576 206.294 153.576C205.814 153.576 205.446 153.667 205.19 153.848C204.934 154.029 204.806 154.269 204.806 154.568C204.806 154.803 204.891 155 205.062 155.16C205.232 155.32 205.44 155.448 205.686 155.544C205.931 155.629 206.294 155.741 206.774 155.88C207.414 156.051 207.936 156.227 208.342 156.408C208.758 156.579 209.115 156.835 209.414 157.176C209.712 157.517 209.867 157.971 209.878 158.536C209.878 159.037 209.739 159.485 209.462 159.88C209.184 160.275 208.79 160.584 208.278 160.808C207.776 161.032 207.184 161.144 206.502 161.144Z" fill="#513131"/>
<line x1="35" y1="184.5" x2="295" y2="184.5" stroke="black"/>
<g clip-path="url(#clip0_1_3707)">
<path d="M75 222.25C73.6076 222.25 72.2723 221.697 71.2877 220.712C70.3031 219.728 69.75 218.392 69.75 217C69.75 215.608 70.3031 214.272 71.2877 213.288C72.2723 212.303 73.6076 211.75 75 211.75C76.3924 211.75 77.7277 212.303 78.7123 213.288C79.6969 214.272 80.25 215.608 80.25 217C80.25 218.392 79.6969 219.728 78.7123 220.712C77.7277 221.697 76.3924 222.25 75 222.25ZM75 223C76.5913 223 78.1174 222.368 79.2426 221.243C80.3679 220.117 81 218.591 81 217C81 215.409 80.3679 213.883 79.2426 212.757C78.1174 211.632 76.5913 211 75 211C73.4087 211 71.8826 211.632 70.7574 212.757C69.6321 213.883 69 215.409 69 217C69 218.591 69.6321 220.117 70.7574 221.243C71.8826 222.368 73.4087 223 75 223Z" fill="#513131" stroke="#513131" stroke-width="0.5"/>
<path d="M75 214C75.0995 214 75.1948 214.04 75.2652 214.11C75.3355 214.18 75.375 214.276 75.375 214.375V216.625H77.625C77.7245 216.625 77.8198 216.665 77.8902 216.735C77.9605 216.805 78 216.901 78 217C78 217.099 77.9605 217.195 77.8902 217.265C77.8198 217.335 77.7245 217.375 77.625 217.375H75.375V219.625C75.375 219.724 75.3355 219.82 75.2652 219.89C75.1948 219.96 75.0995 220 75 220C74.9005 220 74.8052 219.96 74.7348 219.89C74.6645 219.82 74.625 219.724 74.625 219.625V217.375H72.375C72.2755 217.375 72.1802 217.335 72.1098 217.265C72.0395 217.195 72 217.099 72 217C72 216.901 72.0395 216.805 72.1098 216.735C72.1802 216.665 72.2755 216.625 72.375 216.625H74.625V214.375C74.625 214.276 74.6645 214.18 74.7348 214.11C74.8052 214.04 74.9005 214 75 214V214Z" fill="#513131" stroke="#513131" stroke-width="0.5"/>
</g>
<g clip-path="url(#clip1_1_3707)">
<path d="M75 268.25C73.6076 268.25 72.2723 267.697 71.2877 266.712C70.3031 265.728 69.75 264.392 69.75 263C69.75 261.608 70.3031 260.272 71.2877 259.288C72.2723 258.303 73.6076 257.75 75 257.75C76.3924 257.75 77.7277 258.303 78.7123 259.288C79.6969 260.272 80.25 261.608 80.25 263C80.25 264.392 79.6969 265.728 78.7123 266.712C77.7277 267.697 76.3924 268.25 75 268.25ZM75 269C76.5913 269 78.1174 268.368 79.2426 267.243C80.3679 266.117 81 264.591 81 263C81 261.409 80.3679 259.883 79.2426 258.757C78.1174 257.632 76.5913 257 75 257C73.4087 257 71.8826 257.632 70.7574 258.757C69.6321 259.883 69 261.409 69 263C69 264.591 69.6321 266.117 70.7574 267.243C71.8826 268.368 73.4087 269 75 269Z" fill="#513131" stroke="#513131" stroke-width="0.5"/>
<path d="M75 260C75.0995 260 75.1948 260.04 75.2652 260.11C75.3355 260.18 75.375 260.276 75.375 260.375V262.625H77.625C77.7245 262.625 77.8198 262.665 77.8902 262.735C77.9605 262.805 78 262.901 78 263C78 263.099 77.9605 263.195 77.8902 263.265C77.8198 263.335 77.7245 263.375 77.625 263.375H75.375V265.625C75.375 265.724 75.3355 265.82 75.2652 265.89C75.1948 265.96 75.0995 266 75 266C74.9005 266 74.8052 265.96 74.7348 265.89C74.6645 265.82 74.625 265.724 74.625 265.625V263.375H72.375C72.2755 263.375 72.1802 263.335 72.1098 263.265C72.0395 263.195 72 263.099 72 263C72 262.901 72.0395 262.805 72.1098 262.735C72.1802 262.665 72.2755 262.625 72.375 262.625H74.625V260.375C74.625 260.276 74.6645 260.18 74.7348 260.11C74.8052 260.04 74.9005 260 75 260V260Z" fill="#513131" stroke="#513131" stroke-width="0.5"/>
</g>
<g clip-path="url(#clip2_1_3707)">
<path d="M75 291.25C73.6076 291.25 72.2723 290.697 71.2877 289.712C70.3031 288.728 69.75 287.392 69.75 286C69.75 284.608 70.3031 283.272 71.2877 282.288C72.2723 281.303 73.6076 280.75 75 280.75C76.3924 280.75 77.7277 281.303 78.7123 282.288C79.6969 283.272 80.25 284.608 80.25 286C80.25 287.392 79.6969 288.728 78.7123 289.712C77.7277 290.697 76.3924 291.25 75 291.25ZM75 292C76.5913 292 78.1174 291.368 79.2426 290.243C80.3679 289.117 81 287.591 81 286C81 284.409 80.3679 282.883 79.2426 281.757C78.1174 280.632 76.5913 280 75 280C73.4087 280 71.8826 280.632 70.7574 281.757C69.6321 282.883 69 284.409 69 286C69 287.591 69.6321 289.117 70.7574 290.243C71.8826 291.368 73.4087 292 75 292Z" fill="#513131" stroke="#513131" stroke-width="0.5"/>
<path d="M75 283C75.0995 283 75.1948 283.04 75.2652 283.11C75.3355 283.18 75.375 283.276 75.375 283.375V285.625H77.625C77.7245 285.625 77.8198 285.665 77.8902 285.735C77.9605 285.805 78 285.901 78 286C78 286.099 77.9605 286.195 77.8902 286.265C77.8198 286.335 77.7245 286.375 77.625 286.375H75.375V288.625C75.375 288.724 75.3355 288.82 75.2652 288.89C75.1948 288.96 75.0995 289 75 289C74.9005 289 74.8052 288.96 74.7348 288.89C74.6645 288.82 74.625 288.724 74.625 288.625V286.375H72.375C72.2755 286.375 72.1802 286.335 72.1098 286.265C72.0395 286.195 72 286.099 72 286C72 285.901 72.0395 285.805 72.1098 285.735C72.1802 285.665 72.2755 285.625 72.375 285.625H74.625V283.375C74.625 283.276 74.6645 283.18 74.7348 283.11C74.8052 283.04 74.9005 283 75 283V283Z" fill="#513131" stroke="#513131" stroke-width="0.5"/>
</g>
<g clip-path="url(#clip3_1_3707)">
<path d="M75 245.25C73.6076 245.25 72.2723 244.697 71.2877 243.712C70.3031 242.728 69.75 241.392 69.75 240C69.75 238.608 70.3031 237.272 71.2877 236.288C72.2723 235.303 73.6076 234.75 75 234.75C76.3924 234.75 77.7277 235.303 78.7123 236.288C79.6969 237.272 80.25 238.608 80.25 240C80.25 241.392 79.6969 242.728 78.7123 243.712C77.7277 244.697 76.3924 245.25 75 245.25ZM75 246C76.5913 246 78.1174 245.368 79.2426 244.243C80.3679 243.117 81 241.591 81 240C81 238.409 80.3679 236.883 79.2426 235.757C78.1174 234.632 76.5913 234 75 234C73.4087 234 71.8826 234.632 70.7574 235.757C69.6321 236.883 69 238.409 69 240C69 241.591 69.6321 243.117 70.7574 244.243C71.8826 245.368 73.4087 246 75 246Z" fill="#513131" stroke="#513131" stroke-width="0.5"/>
<rect x="72" y="239.5" width="6" height="1" rx="0.5" fill="#513131"/>
</g>
<path d="M153.214 408.832C154.569 407.744 155.63 406.853 156.398 406.16C157.166 405.456 157.812 404.725 158.334 403.968C158.868 403.2 159.134 402.448 159.134 401.712C159.134 401.019 158.964 400.475 158.622 400.08C158.292 399.675 157.753 399.472 157.006 399.472C156.281 399.472 155.716 399.701 155.31 400.16C154.916 400.608 154.702 401.211 154.67 401.968H153.262C153.305 400.773 153.668 399.851 154.35 399.2C155.033 398.549 155.913 398.224 156.99 398.224C158.089 398.224 158.958 398.528 159.598 399.136C160.249 399.744 160.574 400.581 160.574 401.648C160.574 402.533 160.308 403.397 159.774 404.24C159.252 405.072 158.654 405.808 157.982 406.448C157.31 407.077 156.452 407.813 155.406 408.656H160.91V409.872H153.214V408.832Z" fill="#513131"/>
<path opacity="0.5" d="M114.046 399.76V398.432H117.054V410H115.582V399.76H114.046Z" fill="#513131"/>
<path opacity="0.5" d="M194.249 401.344C194.324 400.363 194.702 399.595 195.385 399.04C196.068 398.485 196.953 398.208 198.041 398.208C198.766 398.208 199.39 398.341 199.913 398.608C200.446 398.864 200.846 399.216 201.113 399.664C201.39 400.112 201.529 400.619 201.529 401.184C201.529 401.845 201.337 402.416 200.953 402.896C200.58 403.376 200.089 403.685 199.481 403.824V403.904C200.174 404.075 200.724 404.411 201.129 404.912C201.534 405.413 201.737 406.069 201.737 406.88C201.737 407.488 201.598 408.037 201.321 408.528C201.044 409.008 200.628 409.387 200.073 409.664C199.518 409.941 198.852 410.08 198.073 410.08C196.942 410.08 196.014 409.787 195.289 409.2C194.564 408.603 194.158 407.76 194.073 406.672H195.481C195.556 407.312 195.817 407.835 196.265 408.24C196.713 408.645 197.31 408.848 198.057 408.848C198.804 408.848 199.369 408.656 199.753 408.272C200.148 407.877 200.345 407.371 200.345 406.752C200.345 405.952 200.078 405.376 199.545 405.024C199.012 404.672 198.206 404.496 197.129 404.496H196.761V403.28H197.145C198.126 403.269 198.868 403.109 199.369 402.8C199.87 402.48 200.121 401.989 200.121 401.328C200.121 400.763 199.934 400.309 199.561 399.968C199.198 399.627 198.676 399.456 197.993 399.456C197.332 399.456 196.798 399.627 196.393 399.968C195.988 400.309 195.748 400.768 195.673 401.344H194.249Z" fill="#513131"/>
<line x1="176.5" y1="394" x2="176.5" y2="414" stroke="black"/>
<line x1="136.5" y1="394" x2="136.5" y2="414" stroke="black"/>
</g>
<defs>
<filter id="filter0_d_1_3707" x="0" y="0" width="328" height="576" filterUnits="userSpaceOnUse" color-interpolation-filters="sRGB">
<feFlood flood-opacity="0" result="BackgroundImageFix"/>
<feColorMatrix in="SourceAlpha" type="matrix" values="0 0 0 0 0 0 0 0 0 0 0 0 0 0 0 0 0 0 127 0" result="hardAlpha"/>
<feOffset dy="4"/>
<feGaussianBlur stdDeviation="2"/>
<feComposite in2="hardAlpha" operator="out"/>
<feColorMatrix type="matrix" values="0 0 0 0 0 0 0 0 0 0 0 0 0 0 0 0 0 0 0.25 0"/>
<feBlend mode="normal" in2="BackgroundImageFix" result="effect1_dropShadow_1_3707"/>
<feBlend mode="normal" in="SourceGraphic" in2="effect1_dropShadow_1_3707" result="shape"/>
</filter>
<filter id="filter1_d_1_3707" x="54" y="35" width="218" height="68" filterUnits="userSpaceOnUse" color-interpolation-filters="sRGB">
<feFlood flood-opacity="0" result="BackgroundImageFix"/>
<feColorMatrix in="SourceAlpha" type="matrix" values="0 0 0 0 0 0 0 0 0 0 0 0 0 0 0 0 0 0 127 0" result="hardAlpha"/>
<feOffset dy="4"/>
<feGaussianBlur stdDeviation="4"/>
<feComposite in2="hardAlpha" operator="out"/>
<feColorMatrix type="matrix" values="0 0 0 0 0 0 0 0 0 0 0 0 0 0 0 0 0 0 0.25 0"/>
<feBlend mode="normal" in2="BackgroundImageFix" result="effect1_dropShadow_1_3707"/>
<feBlend mode="normal" in="SourceGraphic" in2="effect1_dropShadow_1_3707" result="shape"/>
</filter>
<filter id="filter2_d_1_3707" x="92" y="49" width="28" height="22.4452" filterUnits="userSpaceOnUse" color-interpolation-filters="sRGB">
<feFlood flood-opacity="0" result="BackgroundImageFix"/>
<feColorMatrix in="SourceAlpha" type="matrix" values="0 0 0 0 0 0 0 0 0 0 0 0 0 0 0 0 0 0 127 0" result="hardAlpha"/>
<feOffset dy="4"/>
<feGaussianBlur stdDeviation="2"/>
<feComposite in2="hardAlpha" operator="out"/>
<feColorMatrix type="matrix" values="0 0 0 0 0 0 0 0 0 0 0 0 0 0 0 0 0 0 0.25 0"/>
<feBlend mode="normal" in2="BackgroundImageFix" result="effect1_dropShadow_1_3707"/>
<feBlend mode="normal" in="SourceGraphic" in2="effect1_dropShadow_1_3707" result="shape"/>
</filter>
<filter id="filter3_d_1_3707" x="96.1311" y="65.6668" width="11.0984" height="11.3332" filterUnits="userSpaceOnUse" color-interpolation-filters="sRGB">
<feFlood flood-opacity="0" result="BackgroundImageFix"/>
<feColorMatrix in="SourceAlpha" type="matrix" values="0 0 0 0 0 0 0 0 0 0 0 0 0 0 0 0 0 0 127 0" result="hardAlpha"/>
<feOffset dy="4"/>
<feGaussianBlur stdDeviation="2"/>
<feComposite in2="hardAlpha" operator="out"/>
<feColorMatrix type="matrix" values="0 0 0 0 0 0 0 0 0 0 0 0 0 0 0 0 0 0 0.25 0"/>
<feBlend mode="normal" in2="BackgroundImageFix" result="effect1_dropShadow_1_3707"/>
<feBlend mode="normal" in="SourceGraphic" in2="effect1_dropShadow_1_3707" result="shape"/>
</filter>
<filter id="filter4_d_1_3707" x="106.459" y="65.6668" width="11.0984" height="11.3332" filterUnits="userSpaceOnUse" color-interpolation-filters="sRGB">
<feFlood flood-opacity="0" result="BackgroundImageFix"/>
<feColorMatrix in="SourceAlpha" type="matrix" values="0 0 0 0 0 0 0 0 0 0 0 0 0 0 0 0 0 0 127 0" result="hardAlpha"/>
<feOffset dy="4"/>
<feGaussianBlur stdDeviation="2"/>
<feComposite in2="hardAlpha" operator="out"/>
<feColorMatrix type="matrix" values="0 0 0 0 0 0 0 0 0 0 0 0 0 0 0 0 0 0 0.25 0"/>
<feBlend mode="normal" in2="BackgroundImageFix" result="effect1_dropShadow_1_3707"/>
<feBlend mode="normal" in="SourceGraphic" in2="effect1_dropShadow_1_3707" result="shape"/>
</filter>
<filter id="filter5_d_1_3707" x="84.7437" y="73.6" width="41.8856" height="15.4901" filterUnits="userSpaceOnUse" color-interpolation-filters="sRGB">
<feFlood flood-opacity="0" result="BackgroundImageFix"/>
<feColorMatrix in="SourceAlpha" type="matrix" values="0 0 0 0 0 0 0 0 0 0 0 0 0 0 0 0 0 0 127 0" result="hardAlpha"/>
<feOffset dy="4"/>
<feGaussianBlur stdDeviation="2"/>
<feComposite in2="hardAlpha" operator="out"/>
<feColorMatrix type="matrix" values="0 0 0 0 0 0 0 0 0 0 0 0 0 0 0 0 0 0 0.25 0"/>
<feBlend mode="normal" in2="BackgroundImageFix" result="effect1_dropShadow_1_3707"/>
<feBlend mode="normal" in="SourceGraphic" in2="effect1_dropShadow_1_3707" result="shape"/>
</filter>
<filter id="filter6_d_1_3707" x="201.499" y="73.16" width="39.3609" height="18.48" filterUnits="userSpaceOnUse" color-interpolation-filters="sRGB">
<feFlood flood-opacity="0" result="BackgroundImageFix"/>
<feColorMatrix in="SourceAlpha" type="matrix" values="0 0 0 0 0 0 0 0 0 0 0 0 0 0 0 0 0 0 127 0" result="hardAlpha"/>
<feOffset dy="4"/>
<feGaussianBlur stdDeviation="2"/>
<feComposite in2="hardAlpha" operator="out"/>
<feColorMatrix type="matrix" values="0 0 0 0 0 0 0 0 0 0 0 0 0 0 0 0 0 0 0.25 0"/>
<feBlend mode="normal" in2="BackgroundImageFix" result="effect1_dropShadow_1_3707"/>
<feBlend mode="normal" in="SourceGraphic" in2="effect1_dropShadow_1_3707" result="shape"/>
</filter>
<filter id="filter7_d_1_3707" x="203" y="45" width="36" height="36" filterUnits="userSpaceOnUse" color-interpolation-filters="sRGB">
<feFlood flood-opacity="0" result="BackgroundImageFix"/>
<feColorMatrix in="SourceAlpha" type="matrix" values="0 0 0 0 0 0 0 0 0 0 0 0 0 0 0 0 0 0 127 0" result="hardAlpha"/>
<feOffset dy="4"/>
<feGaussianBlur stdDeviation="4"/>
<feComposite in2="hardAlpha" operator="out"/>
<feColorMatrix type="matrix" values="0 0 0 0 0 0 0 0 0 0 0 0 0 0 0 0 0 0 0.25 0"/>
<feBlend mode="normal" in2="BackgroundImageFix" result="effect1_dropShadow_1_3707"/>
<feBlend mode="normal" in="SourceGraphic" in2="effect1_dropShadow_1_3707" result="shape"/>
</filter>
<filter id="filter8_d_1_3707" x="142.5" y="48.3746" width="41.1772" height="38.1246" filterUnits="userSpaceOnUse" color-interpolation-filters="sRGB">
<feFlood flood-opacity="0" result="BackgroundImageFix"/>
<feColorMatrix in="SourceAlpha" type="matrix" values="0 0 0 0 0 0 0 0 0 0 0 0 0 0 0 0 0 0 127 0" result="hardAlpha"/>
<feOffset dy="4"/>
<feGaussianBlur stdDeviation="2"/>
<feComposite in2="hardAlpha" operator="out"/>
<feColorMatrix type="matrix" values="0 0 0 0 0 0 0 0 0 0 0 0 0 0 0 0 0 0 0.25 0"/>
<feBlend mode="normal" in2="BackgroundImageFix" result="effect1_dropShadow_1_3707"/>
<feBlend mode="normal" in="SourceGraphic" in2="effect1_dropShadow_1_3707" result="shape"/>
</filter>
<filter id="filter9_d_1_3707" x="52" y="483" width="218" height="68" filterUnits="userSpaceOnUse" color-interpolation-filters="sRGB">
<feFlood flood-opacity="0" result="BackgroundImageFix"/>
<feColorMatrix in="SourceAlpha" type="matrix" values="0 0 0 0 0 0 0 0 0 0 0 0 0 0 0 0 0 0 127 0" result="hardAlpha"/>
<feOffset dy="4"/>
<feGaussianBlur stdDeviation="4"/>
<feComposite in2="hardAlpha" operator="out"/>
<feColorMatrix type="matrix" values="0 0 0 0 0 0 0 0 0 0 0 0 0 0 0 0 0 0 0.25 0"/>
<feBlend mode="normal" in2="BackgroundImageFix" result="effect1_dropShadow_1_3707"/>
<feBlend mode="normal" in="SourceGraphic" in2="effect1_dropShadow_1_3707" result="shape"/>
</filter>
<filter id="filter10_d_1_3707" x="87.8558" y="521.6" width="42.037" height="15.49" filterUnits="userSpaceOnUse" color-interpolation-filters="sRGB">
<feFlood flood-opacity="0" result="BackgroundImageFix"/>
<feColorMatrix in="SourceAlpha" type="matrix" values="0 0 0 0 0 0 0 0 0 0 0 0 0 0 0 0 0 0 127 0" result="hardAlpha"/>
<feOffset dy="4"/>
<feGaussianBlur stdDeviation="2"/>
<feComposite in2="hardAlpha" operator="out"/>
<feColorMatrix type="matrix" values="0 0 0 0 0 0 0 0 0 0 0 0 0 0 0 0 0 0 0.25 0"/>
<feBlend mode="normal" in2="BackgroundImageFix" result="effect1_dropShadow_1_3707"/>
<feBlend mode="normal" in="SourceGraphic" in2="effect1_dropShadow_1_3707" result="shape"/>
</filter>
<filter id="filter11_d_1_3707" x="91.7" y="494.5" width="28.5" height="28.5" filterUnits="userSpaceOnUse" color-interpolation-filters="sRGB">
<feFlood flood-opacity="0" result="BackgroundImageFix"/>
<feColorMatrix in="SourceAlpha" type="matrix" values="0 0 0 0 0 0 0 0 0 0 0 0 0 0 0 0 0 0 127 0" result="hardAlpha"/>
<feOffset dy="4"/>
<feGaussianBlur stdDeviation="2"/>
<feComposite in2="hardAlpha" operator="out"/>
<feColorMatrix type="matrix" values="0 0 0 0 0 0 0 0 0 0 0 0 0 0 0 0 0 0 0.25 0"/>
<feBlend mode="normal" in2="BackgroundImageFix" result="effect1_dropShadow_1_3707"/>
<feBlend mode="normal" in="SourceGraphic" in2="effect1_dropShadow_1_3707" result="shape"/>
</filter>
<filter id="filter12_d_1_3707" x="187.028" y="521.16" width="51.0205" height="15.93" filterUnits="userSpaceOnUse" color-interpolation-filters="sRGB">
<feFlood flood-opacity="0" result="BackgroundImageFix"/>
<feColorMatrix in="SourceAlpha" type="matrix" values="0 0 0 0 0 0 0 0 0 0 0 0 0 0 0 0 0 0 127 0" result="hardAlpha"/>
<feOffset dy="4"/>
<feGaussianBlur stdDeviation="2"/>
<feComposite in2="hardAlpha" operator="out"/>
<feColorMatrix type="matrix" values="0 0 0 0 0 0 0 0 0 0 0 0 0 0 0 0 0 0 0.25 0"/>
<feBlend mode="normal" in2="BackgroundImageFix" result="effect1_dropShadow_1_3707"/>
<feBlend mode="normal" in="SourceGraphic" in2="effect1_dropShadow_1_3707" result="shape"/>
</filter>
<filter id="filter13_d_1_3707" x="198.75" y="494.75" width="28.5" height="28.5" filterUnits="userSpaceOnUse" color-interpolation-filters="sRGB">
<feFlood flood-opacity="0" result="BackgroundImageFix"/>
<feColorMatrix in="SourceAlpha" type="matrix" values="0 0 0 0 0 0 0 0 0 0 0 0 0 0 0 0 0 0 127 0" result="hardAlpha"/>
<feOffset dy="4"/>
<feGaussianBlur stdDeviation="2"/>
<feComposite in2="hardAlpha" operator="out"/>
<feColorMatrix type="matrix" values="0 0 0 0 0 0 0 0 0 0 0 0 0 0 0 0 0 0 0.25 0"/>
<feBlend mode="normal" in2="BackgroundImageFix" result="effect1_dropShadow_1_3707"/>
<feBlend mode="normal" in="SourceGraphic" in2="effect1_dropShadow_1_3707" result="shape"/>
</filter>
<filter id="filter14_d_1_3707" x="26.5" y="119.5" width="277" height="337" filterUnits="userSpaceOnUse" color-interpolation-filters="sRGB">
<feFlood flood-opacity="0" result="BackgroundImageFix"/>
<feColorMatrix in="SourceAlpha" type="matrix" values="0 0 0 0 0 0 0 0 0 0 0 0 0 0 0 0 0 0 127 0" result="hardAlpha"/>
<feOffset dy="4"/>
<feGaussianBlur stdDeviation="4"/>
<feComposite in2="hardAlpha" operator="out"/>
<feColorMatrix type="matrix" values="0 0 0 0 0 0 0 0 0 0 0 0 0 0 0 0 0 0 0.25 0"/>
<feBlend mode="normal" in2="BackgroundImageFix" result="effect1_dropShadow_1_3707"/>
<feBlend mode="normal" in="SourceGraphic" in2="effect1_dropShadow_1_3707" result="shape"/>
</filter>
<linearGradient id="paint0_linear_1_3707" x1="320" y1="0" x2="-7.79629e-06" y2="568" gradientUnits="userSpaceOnUse">
<stop stop-color="#98C487"/>
<stop offset="1" stop-color="#6CAB54"/>
</linearGradient>
<linearGradient id="paint1_linear_1_3707" x1="295" y1="124" x2="35" y2="444" gradientUnits="userSpaceOnUse">
<stop stop-color="#F6F8ED"/>
<stop offset="1" stop-color="#E6F8DB"/>
</linearGradient>
<clipPath id="clip0_1_3707">
<rect width="14" height="14" fill="white" transform="translate(68 210)"/>
</clipPath>
<clipPath id="clip1_1_3707">
<rect width="14" height="14" fill="white" transform="translate(68 256)"/>
</clipPath>
<clipPath id="clip2_1_3707">
<rect width="14" height="14" fill="white" transform="translate(68 279)"/>
</clipPath>
<clipPath id="clip3_1_3707">
<rect width="14" height="14" fill="white" transform="translate(68 233)"/>
</clipPath>
</defs>
</svg>
