<svg width="328" height="576" viewBox="0 0 328 576" fill="none" xmlns="http://www.w3.org/2000/svg">
<g filter="url(#filter0_d_1_3884)">
<rect width="320" height="568" transform="translate(4)" fill="url(#paint0_linear_1_3884)"/>
<g filter="url(#filter1_d_1_3884)">
<path d="M91.7057 53.4449C91.5273 53.1123 91.2717 52.8351 90.964 52.6404C90.6563 52.4456 90.3069 52.34 89.95 52.3339H76.7302L76.1312 49.8228C76.0707 49.5805 75.9356 49.3672 75.7481 49.2179C75.5606 49.0686 75.3316 48.9921 75.0984 49.0007H73.0328C72.7589 49.0007 72.4962 49.1177 72.3025 49.3261C72.1088 49.5344 72 49.817 72 50.1117C72 50.4064 72.1088 50.689 72.3025 50.8974C72.4962 51.1057 72.7589 51.2228 73.0328 51.2228H74.3135L77.164 62.6224C77.2245 62.8648 77.3595 63.078 77.5471 63.2273C77.7346 63.3766 77.9636 63.4531 78.1968 63.4446H87.4919C87.6827 63.4439 87.8695 63.3865 88.0317 63.2786C88.194 63.1708 88.3253 63.0167 88.4111 62.8335L91.7987 55.5449C91.9455 55.2138 92.0139 54.8487 91.9977 54.4823C91.9814 54.1159 91.8812 53.7595 91.7057 53.4449ZM86.8516 61.2224H78.9817L77.2982 54.556H89.95L86.8516 61.2224Z" fill="#F6F8ED"/>
</g>
<g filter="url(#filter2_d_1_3884)">
<path d="M77.6803 69C78.5359 69 79.2295 68.2539 79.2295 67.3334C79.2295 66.413 78.5359 65.6668 77.6803 65.6668C76.8247 65.6668 76.1311 66.413 76.1311 67.3334C76.1311 68.2539 76.8247 69 77.6803 69Z" fill="#F6F8ED"/>
</g>
<g filter="url(#filter3_d_1_3884)">
<path d="M88.0083 69C88.8639 69 89.5575 68.2539 89.5575 67.3334C89.5575 66.413 88.8639 65.6668 88.0083 65.6668C87.1527 65.6668 86.4591 66.413 86.4591 67.3334C86.4591 68.2539 87.1527 69 88.0083 69Z" fill="#F6F8ED"/>
</g>
<g filter="url(#filter4_d_1_3884)">
<path d="M66.6437 76.27C66.8237 76.0033 67.0704 75.7867 67.3837 75.62C67.7037 75.4533 68.067 75.37 68.4737 75.37C68.947 75.37 69.3737 75.4867 69.7537 75.72C70.1404 75.9533 70.4437 76.2867 70.6637 76.72C70.8904 77.1467 71.0037 77.6433 71.0037 78.21C71.0037 78.7767 70.8904 79.28 70.6637 79.72C70.4437 80.1533 70.1404 80.49 69.7537 80.73C69.3737 80.97 68.947 81.09 68.4737 81.09C68.0604 81.09 67.697 81.01 67.3837 80.85C67.077 80.6833 66.8304 80.47 66.6437 80.21V81H65.2437V73.6H66.6437V76.27ZM69.5737 78.21C69.5737 77.8767 69.5037 77.59 69.3637 77.35C69.2304 77.1033 69.0504 76.9167 68.8237 76.79C68.6037 76.6633 68.3637 76.6 68.1037 76.6C67.8504 76.6 67.6104 76.6667 67.3837 76.8C67.1637 76.9267 66.9837 77.1133 66.8437 77.36C66.7104 77.6067 66.6437 77.8967 66.6437 78.23C66.6437 78.5633 66.7104 78.8533 66.8437 79.1C66.9837 79.3467 67.1637 79.5367 67.3837 79.67C67.6104 79.7967 67.8504 79.86 68.1037 79.86C68.3637 79.86 68.6037 79.7933 68.8237 79.66C69.0504 79.5267 69.2304 79.3367 69.3637 79.09C69.5037 78.8433 69.5737 78.55 69.5737 78.21ZM71.6611 78.21C71.6611 77.65 71.7711 77.1533 71.9911 76.72C72.2177 76.2867 72.5211 75.9533 72.9011 75.72C73.2877 75.4867 73.7177 75.37 74.1911 75.37C74.6044 75.37 74.9644 75.4533 75.2711 75.62C75.5844 75.7867 75.8344 75.9967 76.0211 76.25V75.46H77.4311V81H76.0211V80.19C75.8411 80.45 75.5911 80.6667 75.2711 80.84C74.9577 81.0067 74.5944 81.09 74.1811 81.09C73.7144 81.09 73.2877 80.97 72.9011 80.73C72.5211 80.49 72.2177 80.1533 71.9911 79.72C71.7711 79.28 71.6611 78.7767 71.6611 78.21ZM76.0211 78.23C76.0211 77.89 75.9544 77.6 75.8211 77.36C75.6877 77.1133 75.5077 76.9267 75.2811 76.8C75.0544 76.6667 74.8111 76.6 74.5511 76.6C74.2911 76.6 74.0511 76.6633 73.8311 76.79C73.6111 76.9167 73.4311 77.1033 73.2911 77.35C73.1577 77.59 73.0911 77.8767 73.0911 78.21C73.0911 78.5433 73.1577 78.8367 73.2911 79.09C73.4311 79.3367 73.6111 79.5267 73.8311 79.66C74.0577 79.7933 74.2977 79.86 74.5511 79.86C74.8111 79.86 75.0544 79.7967 75.2811 79.67C75.5077 79.5367 75.6877 79.35 75.8211 79.11C75.9544 78.8633 76.0211 78.57 76.0211 78.23ZM80.9184 81.09C80.4651 81.09 80.0584 81.01 79.6984 80.85C79.3384 80.6833 79.0517 80.46 78.8384 80.18C78.6317 79.9 78.5184 79.59 78.4984 79.25H79.9084C79.9351 79.4633 80.0384 79.64 80.2184 79.78C80.4051 79.92 80.6351 79.99 80.9084 79.99C81.1751 79.99 81.3817 79.9367 81.5284 79.83C81.6817 79.7233 81.7584 79.5867 81.7584 79.42C81.7584 79.24 81.6651 79.1067 81.4784 79.02C81.2984 78.9267 81.0084 78.8267 80.6084 78.72C80.1951 78.62 79.8551 78.5167 79.5884 78.41C79.3284 78.3033 79.1017 78.14 78.9084 77.92C78.7217 77.7 78.6284 77.4033 78.6284 77.03C78.6284 76.7233 78.7151 76.4433 78.8884 76.19C79.0684 75.9367 79.3217 75.7367 79.6484 75.59C79.9817 75.4433 80.3717 75.37 80.8184 75.37C81.4784 75.37 82.0051 75.5367 82.3984 75.87C82.7917 76.1967 83.0084 76.64 83.0484 77.2H81.7084C81.6884 76.98 81.5951 76.8067 81.4284 76.68C81.2684 76.5467 81.0517 76.48 80.7784 76.48C80.5251 76.48 80.3284 76.5267 80.1884 76.62C80.0551 76.7133 79.9884 76.8433 79.9884 77.01C79.9884 77.1967 80.0817 77.34 80.2684 77.44C80.4551 77.5333 80.7451 77.63 81.1384 77.73C81.5384 77.83 81.8684 77.9333 82.1284 78.04C82.3884 78.1467 82.6117 78.3133 82.7984 78.54C82.9917 78.76 83.0917 79.0533 83.0984 79.42C83.0984 79.74 83.0084 80.0267 82.8284 80.28C82.6551 80.5333 82.4017 80.7333 82.0684 80.88C81.7417 81.02 81.3584 81.09 80.9184 81.09ZM87.5276 81L85.6476 78.64V81H84.2476V73.6H85.6476V77.81L87.5076 75.46H89.3276L86.8876 78.24L89.3476 81H87.5276ZM95.2375 78.11C95.2375 78.31 95.2241 78.49 95.1975 78.65H91.1475C91.1808 79.05 91.3208 79.3633 91.5675 79.59C91.8141 79.8167 92.1175 79.93 92.4775 79.93C92.9975 79.93 93.3675 79.7067 93.5875 79.26H95.0975C94.9375 79.7933 94.6308 80.2333 94.1775 80.58C93.7241 80.92 93.1675 81.09 92.5075 81.09C91.9741 81.09 91.4941 80.9733 91.0675 80.74C90.6475 80.5 90.3175 80.1633 90.0775 79.73C89.8441 79.2967 89.7275 78.7967 89.7275 78.23C89.7275 77.6567 89.8441 77.1533 90.0775 76.72C90.3108 76.2867 90.6375 75.9533 91.0575 75.72C91.4775 75.4867 91.9608 75.37 92.5075 75.37C93.0341 75.37 93.5041 75.4833 93.9175 75.71C94.3375 75.9367 94.6608 76.26 94.8875 76.68C95.1208 77.0933 95.2375 77.57 95.2375 78.11ZM93.7875 77.71C93.7808 77.35 93.6508 77.0633 93.3975 76.85C93.1441 76.63 92.8341 76.52 92.4675 76.52C92.1208 76.52 91.8275 76.6267 91.5875 76.84C91.3541 77.0467 91.2108 77.3367 91.1575 77.71H93.7875ZM97.8893 76.61V79.29C97.8893 79.4767 97.9327 79.6133 98.0193 79.7C98.1127 79.78 98.266 79.82 98.4793 79.82H99.1293V81H98.2493C97.0693 81 96.4793 80.4267 96.4793 79.28V76.61H95.8193V75.46H96.4793V74.09H97.8893V75.46H99.1293V76.61H97.8893Z" fill="#F6F8ED"/>
</g>
<g filter="url(#filter5_d_1_3884)">
<path d="M235.932 78.23C235.932 77.6567 236.048 77.1567 236.282 76.73C236.515 76.2967 236.838 75.9633 237.252 75.73C237.665 75.49 238.138 75.37 238.672 75.37C239.358 75.37 239.925 75.5433 240.372 75.89C240.825 76.23 241.128 76.71 241.282 77.33H239.772C239.692 77.09 239.555 76.9033 239.362 76.77C239.175 76.63 238.942 76.56 238.662 76.56C238.262 76.56 237.945 76.7067 237.712 77C237.478 77.2867 237.362 77.6967 237.362 78.23C237.362 78.7567 237.478 79.1667 237.712 79.46C237.945 79.7467 238.262 79.89 238.662 79.89C239.228 79.89 239.598 79.6367 239.772 79.13H241.282C241.128 79.73 240.825 80.2067 240.372 80.56C239.918 80.9133 239.352 81.09 238.672 81.09C238.138 81.09 237.665 80.9733 237.252 80.74C236.838 80.5 236.515 80.1667 236.282 79.74C236.048 79.3067 235.932 78.8033 235.932 78.23ZM243.707 73.6V81H242.307V73.6H243.707ZM247.55 81.09C247.017 81.09 246.537 80.9733 246.11 80.74C245.684 80.5 245.347 80.1633 245.1 79.73C244.86 79.2967 244.74 78.7967 244.74 78.23C244.74 77.6633 244.864 77.1633 245.11 76.73C245.364 76.2967 245.707 75.9633 246.14 75.73C246.574 75.49 247.057 75.37 247.59 75.37C248.124 75.37 248.607 75.49 249.04 75.73C249.474 75.9633 249.814 76.2967 250.06 76.73C250.314 77.1633 250.44 77.6633 250.44 78.23C250.44 78.7967 250.31 79.2967 250.05 79.73C249.797 80.1633 249.45 80.5 249.01 80.74C248.577 80.9733 248.09 81.09 247.55 81.09ZM247.55 79.87C247.804 79.87 248.04 79.81 248.26 79.69C248.487 79.5633 248.667 79.3767 248.8 79.13C248.934 78.8833 249 78.5833 249 78.23C249 77.7033 248.86 77.3 248.58 77.02C248.307 76.7333 247.97 76.59 247.57 76.59C247.17 76.59 246.834 76.7333 246.56 77.02C246.294 77.3 246.16 77.7033 246.16 78.23C246.16 78.7567 246.29 79.1633 246.55 79.45C246.817 79.73 247.15 79.87 247.55 79.87ZM253.587 81.09C253.134 81.09 252.727 81.01 252.367 80.85C252.007 80.6833 251.721 80.46 251.507 80.18C251.301 79.9 251.187 79.59 251.167 79.25H252.577C252.604 79.4633 252.707 79.64 252.887 79.78C253.074 79.92 253.304 79.99 253.577 79.99C253.844 79.99 254.051 79.9367 254.197 79.83C254.351 79.7233 254.427 79.5867 254.427 79.42C254.427 79.24 254.334 79.1067 254.147 79.02C253.967 78.9267 253.677 78.8267 253.277 78.72C252.864 78.62 252.524 78.5167 252.257 78.41C251.997 78.3033 251.771 78.14 251.577 77.92C251.391 77.7 251.297 77.4033 251.297 77.03C251.297 76.7233 251.384 76.4433 251.557 76.19C251.737 75.9367 251.991 75.7367 252.317 75.59C252.651 75.4433 253.041 75.37 253.487 75.37C254.147 75.37 254.674 75.5367 255.067 75.87C255.461 76.1967 255.677 76.64 255.717 77.2H254.377C254.357 76.98 254.264 76.8067 254.097 76.68C253.937 76.5467 253.721 76.48 253.447 76.48C253.194 76.48 252.997 76.5267 252.857 76.62C252.724 76.7133 252.657 76.8433 252.657 77.01C252.657 77.1967 252.751 77.34 252.937 77.44C253.124 77.5333 253.414 77.63 253.807 77.73C254.207 77.83 254.537 77.9333 254.797 78.04C255.057 78.1467 255.281 78.3133 255.467 78.54C255.661 78.76 255.761 79.0533 255.767 79.42C255.767 79.74 255.677 80.0267 255.497 80.28C255.324 80.5333 255.071 80.7333 254.737 80.88C254.411 81.02 254.027 81.09 253.587 81.09ZM262.067 78.11C262.067 78.31 262.053 78.49 262.027 78.65H257.977C258.01 79.05 258.15 79.3633 258.397 79.59C258.643 79.8167 258.947 79.93 259.307 79.93C259.827 79.93 260.197 79.7067 260.417 79.26H261.927C261.767 79.7933 261.46 80.2333 261.007 80.58C260.553 80.92 259.997 81.09 259.337 81.09C258.803 81.09 258.323 80.9733 257.897 80.74C257.477 80.5 257.147 80.1633 256.907 79.73C256.673 79.2967 256.557 78.7967 256.557 78.23C256.557 77.6567 256.673 77.1533 256.907 76.72C257.14 76.2867 257.467 75.9533 257.887 75.72C258.307 75.4867 258.79 75.37 259.337 75.37C259.863 75.37 260.333 75.4833 260.747 75.71C261.167 75.9367 261.49 76.26 261.717 76.68C261.95 77.0933 262.067 77.57 262.067 78.11ZM260.617 77.71C260.61 77.35 260.48 77.0633 260.227 76.85C259.973 76.63 259.663 76.52 259.297 76.52C258.95 76.52 258.657 76.6267 258.417 76.84C258.183 77.0467 258.04 77.3367 257.987 77.71H260.617Z" fill="#F6F8ED"/>
</g>
<g clip-path="url(#clip0_1_3884)">
<g filter="url(#filter6_d_1_3884)">
<mask id="path-6-outside-1_1_3884" maskUnits="userSpaceOnUse" x="242.053" y="56.0909" width="13" height="13" fill="black">
<rect fill="white" x="242.053" y="56.0909" width="13" height="13"/>
<path d="M254.446 58.218L253.298 57.0909L248.749 61.5595L244.2 57.0909L243.053 58.218L247.602 62.6866L243.053 67.1552L244.2 68.2823L248.749 63.8137L253.298 68.2823L254.446 67.1552L249.897 62.6866L254.446 58.218Z"/>
</mask>
<path d="M254.446 58.218L253.298 57.0909L248.749 61.5595L244.2 57.0909L243.053 58.218L247.602 62.6866L243.053 67.1552L244.2 68.2823L248.749 63.8137L253.298 68.2823L254.446 67.1552L249.897 62.6866L254.446 58.218Z" fill="#F6F8ED"/>
<path d="M254.446 58.218L254.796 58.5747C254.892 58.4807 254.946 58.3522 254.946 58.218C254.946 58.0839 254.892 57.9553 254.796 57.8613L254.446 58.218ZM253.298 57.0909L253.649 56.7342C253.454 56.5431 253.143 56.5431 252.948 56.7342L253.298 57.0909ZM248.749 61.5595L248.399 61.9162C248.593 62.1072 248.905 62.1072 249.1 61.9162L248.749 61.5595ZM244.2 57.0909L244.55 56.7342C244.356 56.5431 244.044 56.5431 243.85 56.7342L244.2 57.0909ZM243.053 58.218L242.702 57.8613C242.607 57.9553 242.553 58.0839 242.553 58.218C242.553 58.3522 242.607 58.4807 242.702 58.5747L243.053 58.218ZM247.602 62.6866L247.952 63.0433C248.048 62.9493 248.102 62.8208 248.102 62.6866C248.102 62.5525 248.048 62.4239 247.952 62.3299L247.602 62.6866ZM243.053 67.1552L242.702 66.7985C242.607 66.8925 242.553 67.021 242.553 67.1552C242.553 67.2894 242.607 67.4179 242.702 67.5119L243.053 67.1552ZM244.2 68.2823L243.85 68.639C244.044 68.8301 244.356 68.8301 244.55 68.639L244.2 68.2823ZM248.749 63.8137L249.1 63.4571C248.905 63.266 248.593 63.266 248.399 63.4571L248.749 63.8137ZM253.298 68.2823L252.948 68.639C253.143 68.8301 253.454 68.8301 253.649 68.639L253.298 68.2823ZM254.446 67.1552L254.796 67.5119C254.892 67.4179 254.946 67.2894 254.946 67.1552C254.946 67.021 254.892 66.8925 254.796 66.7985L254.446 67.1552ZM249.897 62.6866L249.546 62.3299C249.451 62.4239 249.397 62.5525 249.397 62.6866C249.397 62.8208 249.451 62.9493 249.546 63.0433L249.897 62.6866ZM254.796 57.8613L253.649 56.7342L252.948 57.4476L254.095 58.5747L254.796 57.8613ZM252.948 56.7342L248.399 61.2028L249.1 61.9162L253.649 57.4476L252.948 56.7342ZM249.1 61.2028L244.55 56.7342L243.85 57.4476L248.399 61.9162L249.1 61.2028ZM243.85 56.7342L242.702 57.8613L243.403 58.5747L244.55 57.4476L243.85 56.7342ZM242.702 58.5747L247.251 63.0433L247.952 62.3299L243.403 57.8613L242.702 58.5747ZM247.251 62.3299L242.702 66.7985L243.403 67.5119L247.952 63.0433L247.251 62.3299ZM242.702 67.5119L243.85 68.639L244.55 67.9256L243.403 66.7985L242.702 67.5119ZM244.55 68.639L249.1 64.1704L248.399 63.4571L243.85 67.9256L244.55 68.639ZM248.399 64.1704L252.948 68.639L253.649 67.9256L249.1 63.4571L248.399 64.1704ZM253.649 68.639L254.796 67.5119L254.095 66.7985L252.948 67.9256L253.649 68.639ZM254.796 66.7985L250.247 62.3299L249.546 63.0433L254.095 67.5119L254.796 66.7985ZM250.247 63.0433L254.796 58.5747L254.095 57.8613L249.546 62.3299L250.247 63.0433Z" fill="#F6F8ED" mask="url(#path-6-outside-1_1_3884)"/>
</g>
</g>
<g filter="url(#filter7_d_1_3884)">
<path d="M238.664 520.21C238.664 519.65 238.774 519.153 238.994 518.72C239.221 518.287 239.524 517.953 239.904 517.72C240.291 517.487 240.721 517.37 241.194 517.37C241.607 517.37 241.967 517.453 242.274 517.62C242.587 517.787 242.837 517.997 243.024 518.25V517.46H244.434V523H243.024V522.19C242.844 522.45 242.594 522.667 242.274 522.84C241.961 523.007 241.597 523.09 241.184 523.09C240.717 523.09 240.291 522.97 239.904 522.73C239.524 522.49 239.221 522.153 238.994 521.72C238.774 521.28 238.664 520.777 238.664 520.21ZM243.024 520.23C243.024 519.89 242.957 519.6 242.824 519.36C242.691 519.113 242.511 518.927 242.284 518.8C242.057 518.667 241.814 518.6 241.554 518.6C241.294 518.6 241.054 518.663 240.834 518.79C240.614 518.917 240.434 519.103 240.294 519.35C240.161 519.59 240.094 519.877 240.094 520.21C240.094 520.543 240.161 520.837 240.294 521.09C240.434 521.337 240.614 521.527 240.834 521.66C241.061 521.793 241.301 521.86 241.554 521.86C241.814 521.86 242.057 521.797 242.284 521.67C242.511 521.537 242.691 521.35 242.824 521.11C242.957 520.863 243.024 520.57 243.024 520.23ZM245.441 520.21C245.441 519.65 245.551 519.153 245.771 518.72C245.998 518.287 246.305 517.953 246.691 517.72C247.078 517.487 247.508 517.37 247.981 517.37C248.341 517.37 248.685 517.45 249.011 517.61C249.338 517.763 249.598 517.97 249.791 518.23V515.6H251.211V523H249.791V522.18C249.618 522.453 249.375 522.673 249.061 522.84C248.748 523.007 248.385 523.09 247.971 523.09C247.505 523.09 247.078 522.97 246.691 522.73C246.305 522.49 245.998 522.153 245.771 521.72C245.551 521.28 245.441 520.777 245.441 520.21ZM249.801 520.23C249.801 519.89 249.735 519.6 249.601 519.36C249.468 519.113 249.288 518.927 249.061 518.8C248.835 518.667 248.591 518.6 248.331 518.6C248.071 518.6 247.831 518.663 247.611 518.79C247.391 518.917 247.211 519.103 247.071 519.35C246.938 519.59 246.871 519.877 246.871 520.21C246.871 520.543 246.938 520.837 247.071 521.09C247.211 521.337 247.391 521.527 247.611 521.66C247.838 521.793 248.078 521.86 248.331 521.86C248.591 521.86 248.835 521.797 249.061 521.67C249.288 521.537 249.468 521.35 249.601 521.11C249.735 520.863 249.801 520.57 249.801 520.23ZM252.219 520.21C252.219 519.65 252.329 519.153 252.549 518.72C252.775 518.287 253.082 517.953 253.469 517.72C253.855 517.487 254.285 517.37 254.759 517.37C255.119 517.37 255.462 517.45 255.789 517.61C256.115 517.763 256.375 517.97 256.569 518.23V515.6H257.989V523H256.569V522.18C256.395 522.453 256.152 522.673 255.839 522.84C255.525 523.007 255.162 523.09 254.749 523.09C254.282 523.09 253.855 522.97 253.469 522.73C253.082 522.49 252.775 522.153 252.549 521.72C252.329 521.28 252.219 520.777 252.219 520.21ZM256.579 520.23C256.579 519.89 256.512 519.6 256.379 519.36C256.245 519.113 256.065 518.927 255.839 518.8C255.612 518.667 255.369 518.6 255.109 518.6C254.849 518.6 254.609 518.663 254.389 518.79C254.169 518.917 253.989 519.103 253.849 519.35C253.715 519.59 253.649 519.877 253.649 520.21C253.649 520.543 253.715 520.837 253.849 521.09C253.989 521.337 254.169 521.527 254.389 521.66C254.615 521.793 254.855 521.86 255.109 521.86C255.369 521.86 255.612 521.797 255.839 521.67C256.065 521.537 256.245 521.35 256.379 521.11C256.512 520.863 256.579 520.57 256.579 520.23Z" fill="#F6F8ED"/>
</g>
<g clip-path="url(#clip1_1_3884)">
<g filter="url(#filter8_d_1_3884)">
<path d="M249 505.5C246.746 505.5 244.584 504.604 242.99 503.01C241.396 501.416 240.5 499.254 240.5 497C240.5 494.746 241.396 492.584 242.99 490.99C244.584 489.396 246.746 488.5 249 488.5C251.254 488.5 253.416 489.396 255.01 490.99C256.604 492.584 257.5 494.746 257.5 497C257.5 499.254 256.604 501.416 255.01 503.01C253.416 504.604 251.254 505.5 249 505.5ZM249 507.25C251.718 507.25 254.326 506.17 256.248 504.248C258.17 502.326 259.25 499.718 259.25 497C259.25 494.282 258.17 491.674 256.248 489.752C254.326 487.83 251.718 486.75 249 486.75C246.282 486.75 243.674 487.83 241.752 489.752C239.83 491.674 238.75 494.282 238.75 497C238.75 499.718 239.83 502.326 241.752 504.248C243.674 506.17 246.282 507.25 249 507.25Z" fill="#F6F8ED" stroke="#F6F8ED" stroke-width="0.5"/>
<path d="M249.619 492.006C249.455 491.842 249.232 491.75 249 491.75C248.768 491.75 248.545 491.842 248.381 492.006C248.217 492.17 248.125 492.393 248.125 492.625V496.125H244.625C244.393 496.125 244.17 496.217 244.006 496.381C243.842 496.545 243.75 496.768 243.75 497C243.75 497.232 243.842 497.455 244.006 497.619C244.17 497.783 244.393 497.875 244.625 497.875H248.125V501.375C248.125 501.607 248.217 501.83 248.381 501.994C248.545 502.158 248.768 502.25 249 502.25C249.232 502.25 249.455 502.158 249.619 501.994C249.783 501.83 249.875 501.607 249.875 501.375V497.875H253.375C253.607 497.875 253.83 497.783 253.994 497.619C254.158 497.455 254.25 497.232 254.25 497C254.25 496.768 254.158 496.545 253.994 496.381C253.83 496.217 253.607 496.125 253.375 496.125H249.875V492.625C249.875 492.393 249.783 492.17 249.619 492.006Z" fill="#F6F8ED" stroke="#F6F8ED" stroke-width="0.5"/>
</g>
</g>
<g filter="url(#filter9_d_1_3884)">
<path d="M34 165C34 142.909 51.9086 125 74 125H254C276.091 125 294 142.909 294 165V405C294 427.091 276.091 445 254 445H74C51.9086 445 34 427.091 34 405V165Z" fill="url(#paint1_linear_1_3884)"/>
<path d="M34 165C34 142.909 51.9086 125 74 125H254C276.091 125 294 142.909 294 165V405C294 427.091 276.091 445 254 445H74C51.9086 445 34 427.091 34 405V165Z" stroke="#F6F8ED"/>
</g>
<path d="M106.484 214.808C106.207 214.808 105.972 214.712 105.78 214.52C105.588 214.328 105.492 214.093 105.492 213.816C105.492 213.539 105.588 213.304 105.78 213.112C105.972 212.92 106.207 212.824 106.484 212.824C106.751 212.824 106.975 212.92 107.156 213.112C107.348 213.304 107.444 213.539 107.444 213.816C107.444 214.093 107.348 214.328 107.156 214.52C106.975 214.712 106.751 214.808 106.484 214.808ZM107.188 216.232V225H105.732V216.232H107.188ZM113.942 216.072C115.008 216.072 115.872 216.397 116.534 217.048C117.195 217.688 117.526 218.616 117.526 219.832V225H116.086V220.04C116.086 219.165 115.867 218.499 115.43 218.04C114.992 217.571 114.395 217.336 113.638 217.336C112.87 217.336 112.256 217.576 111.798 218.056C111.35 218.536 111.126 219.235 111.126 220.152V225H109.67V216.232H111.126V217.48C111.414 217.032 111.803 216.685 112.294 216.44C112.795 216.195 113.344 216.072 113.942 216.072ZM123.52 216.088C124.277 216.088 124.939 216.253 125.504 216.584C126.08 216.915 126.507 217.331 126.784 217.832V216.232H128.256V225.192C128.256 225.992 128.085 226.701 127.744 227.32C127.403 227.949 126.912 228.44 126.272 228.792C125.643 229.144 124.907 229.32 124.064 229.32C122.912 229.32 121.952 229.048 121.184 228.504C120.416 227.96 119.963 227.219 119.824 226.28H121.264C121.424 226.813 121.755 227.24 122.256 227.56C122.757 227.891 123.36 228.056 124.064 228.056C124.864 228.056 125.515 227.805 126.016 227.304C126.528 226.803 126.784 226.099 126.784 225.192V223.352C126.496 223.864 126.069 224.291 125.504 224.632C124.939 224.973 124.277 225.144 123.52 225.144C122.741 225.144 122.032 224.952 121.392 224.568C120.763 224.184 120.267 223.645 119.904 222.952C119.541 222.259 119.36 221.469 119.36 220.584C119.36 219.688 119.541 218.904 119.904 218.232C120.267 217.549 120.763 217.021 121.392 216.648C122.032 216.275 122.741 216.088 123.52 216.088ZM126.784 220.6C126.784 219.939 126.651 219.363 126.384 218.872C126.117 218.381 125.755 218.008 125.296 217.752C124.848 217.485 124.352 217.352 123.808 217.352C123.264 217.352 122.768 217.48 122.32 217.736C121.872 217.992 121.515 218.365 121.248 218.856C120.981 219.347 120.848 219.923 120.848 220.584C120.848 221.256 120.981 221.843 121.248 222.344C121.515 222.835 121.872 223.213 122.32 223.48C122.768 223.736 123.264 223.864 123.808 223.864C124.352 223.864 124.848 223.736 125.296 223.48C125.755 223.213 126.117 222.835 126.384 222.344C126.651 221.843 126.784 221.261 126.784 220.6ZM132.172 217.656C132.428 217.155 132.791 216.765 133.26 216.488C133.74 216.211 134.322 216.072 135.004 216.072V217.576H134.62C132.988 217.576 132.172 218.461 132.172 220.232V225H130.716V216.232H132.172V217.656ZM144.685 220.28C144.685 220.557 144.669 220.851 144.637 221.16H137.629C137.682 222.024 137.976 222.701 138.509 223.192C139.053 223.672 139.709 223.912 140.477 223.912C141.106 223.912 141.629 223.768 142.045 223.48C142.472 223.181 142.77 222.787 142.941 222.296H144.509C144.274 223.139 143.805 223.827 143.101 224.36C142.397 224.883 141.522 225.144 140.477 225.144C139.645 225.144 138.898 224.957 138.237 224.584C137.586 224.211 137.074 223.683 136.701 223C136.328 222.307 136.141 221.507 136.141 220.6C136.141 219.693 136.322 218.899 136.685 218.216C137.048 217.533 137.554 217.011 138.205 216.648C138.866 216.275 139.624 216.088 140.477 216.088C141.309 216.088 142.045 216.269 142.685 216.632C143.325 216.995 143.816 217.496 144.157 218.136C144.509 218.765 144.685 219.48 144.685 220.28ZM143.181 219.976C143.181 219.421 143.058 218.947 142.813 218.552C142.568 218.147 142.232 217.843 141.805 217.64C141.389 217.427 140.925 217.32 140.413 217.32C139.677 217.32 139.048 217.555 138.525 218.024C138.013 218.493 137.72 219.144 137.645 219.976H143.181ZM146.063 220.584C146.063 219.688 146.244 218.904 146.607 218.232C146.97 217.549 147.466 217.021 148.095 216.648C148.735 216.275 149.45 216.088 150.239 216.088C150.922 216.088 151.556 216.248 152.143 216.568C152.73 216.877 153.178 217.288 153.487 217.8V213.16H154.959V225H153.487V223.352C153.199 223.875 152.772 224.307 152.207 224.648C151.642 224.979 150.98 225.144 150.223 225.144C149.444 225.144 148.735 224.952 148.095 224.568C147.466 224.184 146.97 223.645 146.607 222.952C146.244 222.259 146.063 221.469 146.063 220.584ZM153.487 220.6C153.487 219.939 153.354 219.363 153.087 218.872C152.82 218.381 152.458 218.008 151.999 217.752C151.551 217.485 151.055 217.352 150.511 217.352C149.967 217.352 149.471 217.48 149.023 217.736C148.575 217.992 148.218 218.365 147.951 218.856C147.684 219.347 147.551 219.923 147.551 220.584C147.551 221.256 147.684 221.843 147.951 222.344C148.218 222.835 148.575 223.213 149.023 223.48C149.471 223.736 149.967 223.864 150.511 223.864C151.055 223.864 151.551 223.736 151.999 223.48C152.458 223.213 152.82 222.835 153.087 222.344C153.354 221.843 153.487 221.261 153.487 220.6ZM158.172 214.808C157.894 214.808 157.66 214.712 157.468 214.52C157.276 214.328 157.18 214.093 157.18 213.816C157.18 213.539 157.276 213.304 157.468 213.112C157.66 212.92 157.894 212.824 158.172 212.824C158.438 212.824 158.662 212.92 158.844 213.112C159.036 213.304 159.132 213.539 159.132 213.816C159.132 214.093 159.036 214.328 158.844 214.52C158.662 214.712 158.438 214.808 158.172 214.808ZM158.876 216.232V225H157.42V216.232H158.876ZM169.357 220.28C169.357 220.557 169.341 220.851 169.309 221.16H162.301C162.354 222.024 162.648 222.701 163.181 223.192C163.725 223.672 164.381 223.912 165.149 223.912C165.778 223.912 166.301 223.768 166.717 223.48C167.144 223.181 167.442 222.787 167.613 222.296H169.181C168.946 223.139 168.477 223.827 167.773 224.36C167.069 224.883 166.194 225.144 165.149 225.144C164.317 225.144 163.57 224.957 162.909 224.584C162.258 224.211 161.746 223.683 161.373 223C161 222.307 160.813 221.507 160.813 220.6C160.813 219.693 160.994 218.899 161.357 218.216C161.72 217.533 162.226 217.011 162.877 216.648C163.538 216.275 164.296 216.088 165.149 216.088C165.981 216.088 166.717 216.269 167.357 216.632C167.997 216.995 168.488 217.496 168.829 218.136C169.181 218.765 169.357 219.48 169.357 220.28ZM167.853 219.976C167.853 219.421 167.73 218.947 167.485 218.552C167.24 218.147 166.904 217.843 166.477 217.64C166.061 217.427 165.597 217.32 165.085 217.32C164.349 217.32 163.72 217.555 163.197 218.024C162.685 218.493 162.392 219.144 162.317 219.976H167.853ZM175.551 216.072C176.618 216.072 177.482 216.397 178.143 217.048C178.804 217.688 179.135 218.616 179.135 219.832V225H177.695V220.04C177.695 219.165 177.476 218.499 177.039 218.04C176.602 217.571 176.004 217.336 175.247 217.336C174.479 217.336 173.866 217.576 173.407 218.056C172.959 218.536 172.735 219.235 172.735 220.152V225H171.279V216.232H172.735V217.48C173.023 217.032 173.412 216.685 173.903 216.44C174.404 216.195 174.954 216.072 175.551 216.072ZM183.289 217.432V222.6C183.289 223.027 183.38 223.331 183.561 223.512C183.743 223.683 184.057 223.768 184.505 223.768H185.577V225H184.265C183.455 225 182.847 224.813 182.441 224.44C182.036 224.067 181.833 223.453 181.833 222.6V217.432H180.697V216.232H181.833V214.024H183.289V216.232H185.577V217.432H183.289ZM190.983 214.76V213.432H193.991V225H192.519V214.76H190.983Z" fill="#513131" fill-opacity="0.5"/>
<path d="M104.5 219.752H195.495V220.552H104.5V219.752Z" fill="#513131" fill-opacity="0.5"/>
<path d="M106.484 240.808C106.207 240.808 105.972 240.712 105.78 240.52C105.588 240.328 105.492 240.093 105.492 239.816C105.492 239.539 105.588 239.304 105.78 239.112C105.972 238.92 106.207 238.824 106.484 238.824C106.751 238.824 106.975 238.92 107.156 239.112C107.348 239.304 107.444 239.539 107.444 239.816C107.444 240.093 107.348 240.328 107.156 240.52C106.975 240.712 106.751 240.808 106.484 240.808ZM107.188 242.232V251H105.732V242.232H107.188ZM113.942 242.072C115.008 242.072 115.872 242.397 116.534 243.048C117.195 243.688 117.526 244.616 117.526 245.832V251H116.086V246.04C116.086 245.165 115.867 244.499 115.43 244.04C114.992 243.571 114.395 243.336 113.638 243.336C112.87 243.336 112.256 243.576 111.798 244.056C111.35 244.536 111.126 245.235 111.126 246.152V251H109.67V242.232H111.126V243.48C111.414 243.032 111.803 242.685 112.294 242.44C112.795 242.195 113.344 242.072 113.942 242.072ZM123.52 242.088C124.277 242.088 124.939 242.253 125.504 242.584C126.08 242.915 126.507 243.331 126.784 243.832V242.232H128.256V251.192C128.256 251.992 128.085 252.701 127.744 253.32C127.403 253.949 126.912 254.44 126.272 254.792C125.643 255.144 124.907 255.32 124.064 255.32C122.912 255.32 121.952 255.048 121.184 254.504C120.416 253.96 119.963 253.219 119.824 252.28H121.264C121.424 252.813 121.755 253.24 122.256 253.56C122.757 253.891 123.36 254.056 124.064 254.056C124.864 254.056 125.515 253.805 126.016 253.304C126.528 252.803 126.784 252.099 126.784 251.192V249.352C126.496 249.864 126.069 250.291 125.504 250.632C124.939 250.973 124.277 251.144 123.52 251.144C122.741 251.144 122.032 250.952 121.392 250.568C120.763 250.184 120.267 249.645 119.904 248.952C119.541 248.259 119.36 247.469 119.36 246.584C119.36 245.688 119.541 244.904 119.904 244.232C120.267 243.549 120.763 243.021 121.392 242.648C122.032 242.275 122.741 242.088 123.52 242.088ZM126.784 246.6C126.784 245.939 126.651 245.363 126.384 244.872C126.117 244.381 125.755 244.008 125.296 243.752C124.848 243.485 124.352 243.352 123.808 243.352C123.264 243.352 122.768 243.48 122.32 243.736C121.872 243.992 121.515 244.365 121.248 244.856C120.981 245.347 120.848 245.923 120.848 246.584C120.848 247.256 120.981 247.843 121.248 248.344C121.515 248.835 121.872 249.213 122.32 249.48C122.768 249.736 123.264 249.864 123.808 249.864C124.352 249.864 124.848 249.736 125.296 249.48C125.755 249.213 126.117 248.835 126.384 248.344C126.651 247.843 126.784 247.261 126.784 246.6ZM132.172 243.656C132.428 243.155 132.791 242.765 133.26 242.488C133.74 242.211 134.322 242.072 135.004 242.072V243.576H134.62C132.988 243.576 132.172 244.461 132.172 246.232V251H130.716V242.232H132.172V243.656ZM144.685 246.28C144.685 246.557 144.669 246.851 144.637 247.16H137.629C137.682 248.024 137.976 248.701 138.509 249.192C139.053 249.672 139.709 249.912 140.477 249.912C141.106 249.912 141.629 249.768 142.045 249.48C142.472 249.181 142.77 248.787 142.941 248.296H144.509C144.274 249.139 143.805 249.827 143.101 250.36C142.397 250.883 141.522 251.144 140.477 251.144C139.645 251.144 138.898 250.957 138.237 250.584C137.586 250.211 137.074 249.683 136.701 249C136.328 248.307 136.141 247.507 136.141 246.6C136.141 245.693 136.322 244.899 136.685 244.216C137.048 243.533 137.554 243.011 138.205 242.648C138.866 242.275 139.624 242.088 140.477 242.088C141.309 242.088 142.045 242.269 142.685 242.632C143.325 242.995 143.816 243.496 144.157 244.136C144.509 244.765 144.685 245.48 144.685 246.28ZM143.181 245.976C143.181 245.421 143.058 244.947 142.813 244.552C142.568 244.147 142.232 243.843 141.805 243.64C141.389 243.427 140.925 243.32 140.413 243.32C139.677 243.32 139.048 243.555 138.525 244.024C138.013 244.493 137.72 245.144 137.645 245.976H143.181ZM146.063 246.584C146.063 245.688 146.244 244.904 146.607 244.232C146.97 243.549 147.466 243.021 148.095 242.648C148.735 242.275 149.45 242.088 150.239 242.088C150.922 242.088 151.556 242.248 152.143 242.568C152.73 242.877 153.178 243.288 153.487 243.8V239.16H154.959V251H153.487V249.352C153.199 249.875 152.772 250.307 152.207 250.648C151.642 250.979 150.98 251.144 150.223 251.144C149.444 251.144 148.735 250.952 148.095 250.568C147.466 250.184 146.97 249.645 146.607 248.952C146.244 248.259 146.063 247.469 146.063 246.584ZM153.487 246.6C153.487 245.939 153.354 245.363 153.087 244.872C152.82 244.381 152.458 244.008 151.999 243.752C151.551 243.485 151.055 243.352 150.511 243.352C149.967 243.352 149.471 243.48 149.023 243.736C148.575 243.992 148.218 244.365 147.951 244.856C147.684 245.347 147.551 245.923 147.551 246.584C147.551 247.256 147.684 247.843 147.951 248.344C148.218 248.835 148.575 249.213 149.023 249.48C149.471 249.736 149.967 249.864 150.511 249.864C151.055 249.864 151.551 249.736 151.999 249.48C152.458 249.213 152.82 248.835 153.087 248.344C153.354 247.843 153.487 247.261 153.487 246.6ZM158.172 240.808C157.894 240.808 157.66 240.712 157.468 240.52C157.276 240.328 157.18 240.093 157.18 239.816C157.18 239.539 157.276 239.304 157.468 239.112C157.66 238.92 157.894 238.824 158.172 238.824C158.438 238.824 158.662 238.92 158.844 239.112C159.036 239.304 159.132 239.539 159.132 239.816C159.132 240.093 159.036 240.328 158.844 240.52C158.662 240.712 158.438 240.808 158.172 240.808ZM158.876 242.232V251H157.42V242.232H158.876ZM169.357 246.28C169.357 246.557 169.341 246.851 169.309 247.16H162.301C162.354 248.024 162.648 248.701 163.181 249.192C163.725 249.672 164.381 249.912 165.149 249.912C165.778 249.912 166.301 249.768 166.717 249.48C167.144 249.181 167.442 248.787 167.613 248.296H169.181C168.946 249.139 168.477 249.827 167.773 250.36C167.069 250.883 166.194 251.144 165.149 251.144C164.317 251.144 163.57 250.957 162.909 250.584C162.258 250.211 161.746 249.683 161.373 249C161 248.307 160.813 247.507 160.813 246.6C160.813 245.693 160.994 244.899 161.357 244.216C161.72 243.533 162.226 243.011 162.877 242.648C163.538 242.275 164.296 242.088 165.149 242.088C165.981 242.088 166.717 242.269 167.357 242.632C167.997 242.995 168.488 243.496 168.829 244.136C169.181 244.765 169.357 245.48 169.357 246.28ZM167.853 245.976C167.853 245.421 167.73 244.947 167.485 244.552C167.24 244.147 166.904 243.843 166.477 243.64C166.061 243.427 165.597 243.32 165.085 243.32C164.349 243.32 163.72 243.555 163.197 244.024C162.685 244.493 162.392 245.144 162.317 245.976H167.853ZM175.551 242.072C176.618 242.072 177.482 242.397 178.143 243.048C178.804 243.688 179.135 244.616 179.135 245.832V251H177.695V246.04C177.695 245.165 177.476 244.499 177.039 244.04C176.602 243.571 176.004 243.336 175.247 243.336C174.479 243.336 173.866 243.576 173.407 244.056C172.959 244.536 172.735 245.235 172.735 246.152V251H171.279V242.232H172.735V243.48C173.023 243.032 173.412 242.685 173.903 242.44C174.404 242.195 174.954 242.072 175.551 242.072ZM183.289 243.432V248.6C183.289 249.027 183.38 249.331 183.561 249.512C183.743 249.683 184.057 249.768 184.505 249.768H185.577V251H184.265C183.455 251 182.847 250.813 182.441 250.44C182.036 250.067 181.833 249.453 181.833 248.6V243.432H180.697V242.232H181.833V240.024H183.289V242.232H185.577V243.432H183.289ZM190.983 240.76V239.432H193.991V251H192.519V240.76H190.983Z" fill="#513131"/>
<path d="M106.484 270.808C106.207 270.808 105.972 270.712 105.78 270.52C105.588 270.328 105.492 270.093 105.492 269.816C105.492 269.539 105.588 269.304 105.78 269.112C105.972 268.92 106.207 268.824 106.484 268.824C106.751 268.824 106.975 268.92 107.156 269.112C107.348 269.304 107.444 269.539 107.444 269.816C107.444 270.093 107.348 270.328 107.156 270.52C106.975 270.712 106.751 270.808 106.484 270.808ZM107.188 272.232V281H105.732V272.232H107.188ZM113.942 272.072C115.008 272.072 115.872 272.397 116.534 273.048C117.195 273.688 117.526 274.616 117.526 275.832V281H116.086V276.04C116.086 275.165 115.867 274.499 115.43 274.04C114.992 273.571 114.395 273.336 113.638 273.336C112.87 273.336 112.256 273.576 111.798 274.056C111.35 274.536 111.126 275.235 111.126 276.152V281H109.67V272.232H111.126V273.48C111.414 273.032 111.803 272.685 112.294 272.44C112.795 272.195 113.344 272.072 113.942 272.072ZM123.52 272.088C124.277 272.088 124.939 272.253 125.504 272.584C126.08 272.915 126.507 273.331 126.784 273.832V272.232H128.256V281.192C128.256 281.992 128.085 282.701 127.744 283.32C127.403 283.949 126.912 284.44 126.272 284.792C125.643 285.144 124.907 285.32 124.064 285.32C122.912 285.32 121.952 285.048 121.184 284.504C120.416 283.96 119.963 283.219 119.824 282.28H121.264C121.424 282.813 121.755 283.24 122.256 283.56C122.757 283.891 123.36 284.056 124.064 284.056C124.864 284.056 125.515 283.805 126.016 283.304C126.528 282.803 126.784 282.099 126.784 281.192V279.352C126.496 279.864 126.069 280.291 125.504 280.632C124.939 280.973 124.277 281.144 123.52 281.144C122.741 281.144 122.032 280.952 121.392 280.568C120.763 280.184 120.267 279.645 119.904 278.952C119.541 278.259 119.36 277.469 119.36 276.584C119.36 275.688 119.541 274.904 119.904 274.232C120.267 273.549 120.763 273.021 121.392 272.648C122.032 272.275 122.741 272.088 123.52 272.088ZM126.784 276.6C126.784 275.939 126.651 275.363 126.384 274.872C126.117 274.381 125.755 274.008 125.296 273.752C124.848 273.485 124.352 273.352 123.808 273.352C123.264 273.352 122.768 273.48 122.32 273.736C121.872 273.992 121.515 274.365 121.248 274.856C120.981 275.347 120.848 275.923 120.848 276.584C120.848 277.256 120.981 277.843 121.248 278.344C121.515 278.835 121.872 279.213 122.32 279.48C122.768 279.736 123.264 279.864 123.808 279.864C124.352 279.864 124.848 279.736 125.296 279.48C125.755 279.213 126.117 278.835 126.384 278.344C126.651 277.843 126.784 277.261 126.784 276.6ZM132.172 273.656C132.428 273.155 132.791 272.765 133.26 272.488C133.74 272.211 134.322 272.072 135.004 272.072V273.576H134.62C132.988 273.576 132.172 274.461 132.172 276.232V281H130.716V272.232H132.172V273.656ZM144.685 276.28C144.685 276.557 144.669 276.851 144.637 277.16H137.629C137.682 278.024 137.976 278.701 138.509 279.192C139.053 279.672 139.709 279.912 140.477 279.912C141.106 279.912 141.629 279.768 142.045 279.48C142.472 279.181 142.77 278.787 142.941 278.296H144.509C144.274 279.139 143.805 279.827 143.101 280.36C142.397 280.883 141.522 281.144 140.477 281.144C139.645 281.144 138.898 280.957 138.237 280.584C137.586 280.211 137.074 279.683 136.701 279C136.328 278.307 136.141 277.507 136.141 276.6C136.141 275.693 136.322 274.899 136.685 274.216C137.048 273.533 137.554 273.011 138.205 272.648C138.866 272.275 139.624 272.088 140.477 272.088C141.309 272.088 142.045 272.269 142.685 272.632C143.325 272.995 143.816 273.496 144.157 274.136C144.509 274.765 144.685 275.48 144.685 276.28ZM143.181 275.976C143.181 275.421 143.058 274.947 142.813 274.552C142.568 274.147 142.232 273.843 141.805 273.64C141.389 273.427 140.925 273.32 140.413 273.32C139.677 273.32 139.048 273.555 138.525 274.024C138.013 274.493 137.72 275.144 137.645 275.976H143.181ZM146.063 276.584C146.063 275.688 146.244 274.904 146.607 274.232C146.97 273.549 147.466 273.021 148.095 272.648C148.735 272.275 149.45 272.088 150.239 272.088C150.922 272.088 151.556 272.248 152.143 272.568C152.73 272.877 153.178 273.288 153.487 273.8V269.16H154.959V281H153.487V279.352C153.199 279.875 152.772 280.307 152.207 280.648C151.642 280.979 150.98 281.144 150.223 281.144C149.444 281.144 148.735 280.952 148.095 280.568C147.466 280.184 146.97 279.645 146.607 278.952C146.244 278.259 146.063 277.469 146.063 276.584ZM153.487 276.6C153.487 275.939 153.354 275.363 153.087 274.872C152.82 274.381 152.458 274.008 151.999 273.752C151.551 273.485 151.055 273.352 150.511 273.352C149.967 273.352 149.471 273.48 149.023 273.736C148.575 273.992 148.218 274.365 147.951 274.856C147.684 275.347 147.551 275.923 147.551 276.584C147.551 277.256 147.684 277.843 147.951 278.344C148.218 278.835 148.575 279.213 149.023 279.48C149.471 279.736 149.967 279.864 150.511 279.864C151.055 279.864 151.551 279.736 151.999 279.48C152.458 279.213 152.82 278.835 153.087 278.344C153.354 277.843 153.487 277.261 153.487 276.6ZM158.172 270.808C157.894 270.808 157.66 270.712 157.468 270.52C157.276 270.328 157.18 270.093 157.18 269.816C157.18 269.539 157.276 269.304 157.468 269.112C157.66 268.92 157.894 268.824 158.172 268.824C158.438 268.824 158.662 268.92 158.844 269.112C159.036 269.304 159.132 269.539 159.132 269.816C159.132 270.093 159.036 270.328 158.844 270.52C158.662 270.712 158.438 270.808 158.172 270.808ZM158.876 272.232V281H157.42V272.232H158.876ZM169.357 276.28C169.357 276.557 169.341 276.851 169.309 277.16H162.301C162.354 278.024 162.648 278.701 163.181 279.192C163.725 279.672 164.381 279.912 165.149 279.912C165.778 279.912 166.301 279.768 166.717 279.48C167.144 279.181 167.442 278.787 167.613 278.296H169.181C168.946 279.139 168.477 279.827 167.773 280.36C167.069 280.883 166.194 281.144 165.149 281.144C164.317 281.144 163.57 280.957 162.909 280.584C162.258 280.211 161.746 279.683 161.373 279C161 278.307 160.813 277.507 160.813 276.6C160.813 275.693 160.994 274.899 161.357 274.216C161.72 273.533 162.226 273.011 162.877 272.648C163.538 272.275 164.296 272.088 165.149 272.088C165.981 272.088 166.717 272.269 167.357 272.632C167.997 272.995 168.488 273.496 168.829 274.136C169.181 274.765 169.357 275.48 169.357 276.28ZM167.853 275.976C167.853 275.421 167.73 274.947 167.485 274.552C167.24 274.147 166.904 273.843 166.477 273.64C166.061 273.427 165.597 273.32 165.085 273.32C164.349 273.32 163.72 273.555 163.197 274.024C162.685 274.493 162.392 275.144 162.317 275.976H167.853ZM175.551 272.072C176.618 272.072 177.482 272.397 178.143 273.048C178.804 273.688 179.135 274.616 179.135 275.832V281H177.695V276.04C177.695 275.165 177.476 274.499 177.039 274.04C176.602 273.571 176.004 273.336 175.247 273.336C174.479 273.336 173.866 273.576 173.407 274.056C172.959 274.536 172.735 275.235 172.735 276.152V281H171.279V272.232H172.735V273.48C173.023 273.032 173.412 272.685 173.903 272.44C174.404 272.195 174.954 272.072 175.551 272.072ZM183.289 273.432V278.6C183.289 279.027 183.38 279.331 183.561 279.512C183.743 279.683 184.057 279.768 184.505 279.768H185.577V281H184.265C183.455 281 182.847 280.813 182.441 280.44C182.036 280.067 181.833 279.453 181.833 278.6V273.432H180.697V272.232H181.833V270.024H183.289V272.232H185.577V273.432H183.289ZM190.983 270.76V269.432H193.991V281H192.519V270.76H190.983Z" fill="#513131"/>
<path d="M128.484 303.808C128.207 303.808 127.972 303.712 127.78 303.52C127.588 303.328 127.492 303.093 127.492 302.816C127.492 302.539 127.588 302.304 127.78 302.112C127.972 301.92 128.207 301.824 128.484 301.824C128.751 301.824 128.975 301.92 129.156 302.112C129.348 302.304 129.444 302.539 129.444 302.816C129.444 303.093 129.348 303.328 129.156 303.52C128.975 303.712 128.751 303.808 128.484 303.808ZM129.188 305.232V314H127.732V305.232H129.188ZM135.942 305.072C137.008 305.072 137.872 305.397 138.534 306.048C139.195 306.688 139.526 307.616 139.526 308.832V314H138.086V309.04C138.086 308.165 137.867 307.499 137.43 307.04C136.992 306.571 136.395 306.336 135.638 306.336C134.87 306.336 134.256 306.576 133.798 307.056C133.35 307.536 133.126 308.235 133.126 309.152V314H131.67V305.232H133.126V306.48C133.414 306.032 133.803 305.685 134.294 305.44C134.795 305.195 135.344 305.072 135.942 305.072ZM145.52 305.088C146.277 305.088 146.939 305.253 147.504 305.584C148.08 305.915 148.507 306.331 148.784 306.832V305.232H150.256V314.192C150.256 314.992 150.085 315.701 149.744 316.32C149.403 316.949 148.912 317.44 148.272 317.792C147.643 318.144 146.907 318.32 146.064 318.32C144.912 318.32 143.952 318.048 143.184 317.504C142.416 316.96 141.963 316.219 141.824 315.28H143.264C143.424 315.813 143.755 316.24 144.256 316.56C144.757 316.891 145.36 317.056 146.064 317.056C146.864 317.056 147.515 316.805 148.016 316.304C148.528 315.803 148.784 315.099 148.784 314.192V312.352C148.496 312.864 148.069 313.291 147.504 313.632C146.939 313.973 146.277 314.144 145.52 314.144C144.741 314.144 144.032 313.952 143.392 313.568C142.763 313.184 142.267 312.645 141.904 311.952C141.541 311.259 141.36 310.469 141.36 309.584C141.36 308.688 141.541 307.904 141.904 307.232C142.267 306.549 142.763 306.021 143.392 305.648C144.032 305.275 144.741 305.088 145.52 305.088ZM148.784 309.6C148.784 308.939 148.651 308.363 148.384 307.872C148.117 307.381 147.755 307.008 147.296 306.752C146.848 306.485 146.352 306.352 145.808 306.352C145.264 306.352 144.768 306.48 144.32 306.736C143.872 306.992 143.515 307.365 143.248 307.856C142.981 308.347 142.848 308.923 142.848 309.584C142.848 310.256 142.981 310.843 143.248 311.344C143.515 311.835 143.872 312.213 144.32 312.48C144.768 312.736 145.264 312.864 145.808 312.864C146.352 312.864 146.848 312.736 147.296 312.48C147.755 312.213 148.117 311.835 148.384 311.344C148.651 310.843 148.784 310.261 148.784 309.6ZM154.172 306.656C154.428 306.155 154.791 305.765 155.26 305.488C155.74 305.211 156.322 305.072 157.004 305.072V306.576H156.62C154.988 306.576 154.172 307.461 154.172 309.232V314H152.716V305.232H154.172V306.656ZM166.685 309.28C166.685 309.557 166.669 309.851 166.637 310.16H159.629C159.682 311.024 159.976 311.701 160.509 312.192C161.053 312.672 161.709 312.912 162.477 312.912C163.106 312.912 163.629 312.768 164.045 312.48C164.472 312.181 164.77 311.787 164.941 311.296H166.509C166.274 312.139 165.805 312.827 165.101 313.36C164.397 313.883 163.522 314.144 162.477 314.144C161.645 314.144 160.898 313.957 160.237 313.584C159.586 313.211 159.074 312.683 158.701 312C158.328 311.307 158.141 310.507 158.141 309.6C158.141 308.693 158.322 307.899 158.685 307.216C159.048 306.533 159.554 306.011 160.205 305.648C160.866 305.275 161.624 305.088 162.477 305.088C163.309 305.088 164.045 305.269 164.685 305.632C165.325 305.995 165.816 306.496 166.157 307.136C166.509 307.765 166.685 308.48 166.685 309.28ZM165.181 308.976C165.181 308.421 165.058 307.947 164.813 307.552C164.568 307.147 164.232 306.843 163.805 306.64C163.389 306.427 162.925 306.32 162.413 306.32C161.677 306.32 161.048 306.555 160.525 307.024C160.013 307.493 159.72 308.144 159.645 308.976H165.181ZM168.063 309.584C168.063 308.688 168.244 307.904 168.607 307.232C168.97 306.549 169.466 306.021 170.095 305.648C170.735 305.275 171.45 305.088 172.239 305.088C172.922 305.088 173.556 305.248 174.143 305.568C174.73 305.877 175.178 306.288 175.487 306.8V302.16H176.959V314H175.487V312.352C175.199 312.875 174.772 313.307 174.207 313.648C173.642 313.979 172.98 314.144 172.223 314.144C171.444 314.144 170.735 313.952 170.095 313.568C169.466 313.184 168.97 312.645 168.607 311.952C168.244 311.259 168.063 310.469 168.063 309.584ZM175.487 309.6C175.487 308.939 175.354 308.363 175.087 307.872C174.82 307.381 174.458 307.008 173.999 306.752C173.551 306.485 173.055 306.352 172.511 306.352C171.967 306.352 171.471 306.48 171.023 306.736C170.575 306.992 170.218 307.365 169.951 307.856C169.684 308.347 169.551 308.923 169.551 309.584C169.551 310.256 169.684 310.843 169.951 311.344C170.218 311.835 170.575 312.213 171.023 312.48C171.471 312.736 171.967 312.864 172.511 312.864C173.055 312.864 173.551 312.736 173.999 312.48C174.458 312.213 174.82 311.835 175.087 311.344C175.354 310.843 175.487 310.261 175.487 309.6ZM180.172 303.808C179.894 303.808 179.66 303.712 179.468 303.52C179.276 303.328 179.18 303.093 179.18 302.816C179.18 302.539 179.276 302.304 179.468 302.112C179.66 301.92 179.894 301.824 180.172 301.824C180.438 301.824 180.662 301.92 180.844 302.112C181.036 302.304 181.132 302.539 181.132 302.816C181.132 303.093 181.036 303.328 180.844 303.52C180.662 303.712 180.438 303.808 180.172 303.808ZM180.876 305.232V314H179.42V305.232H180.876ZM191.357 309.28C191.357 309.557 191.341 309.851 191.309 310.16H184.301C184.354 311.024 184.648 311.701 185.181 312.192C185.725 312.672 186.381 312.912 187.149 312.912C187.778 312.912 188.301 312.768 188.717 312.48C189.144 312.181 189.442 311.787 189.613 311.296H191.181C190.946 312.139 190.477 312.827 189.773 313.36C189.069 313.883 188.194 314.144 187.149 314.144C186.317 314.144 185.57 313.957 184.909 313.584C184.258 313.211 183.746 312.683 183.373 312C183 311.307 182.813 310.507 182.813 309.6C182.813 308.693 182.994 307.899 183.357 307.216C183.72 306.533 184.226 306.011 184.877 305.648C185.538 305.275 186.296 305.088 187.149 305.088C187.981 305.088 188.717 305.269 189.357 305.632C189.997 305.995 190.488 306.496 190.829 307.136C191.181 307.765 191.357 308.48 191.357 309.28ZM189.853 308.976C189.853 308.421 189.73 307.947 189.485 307.552C189.24 307.147 188.904 306.843 188.477 306.64C188.061 306.427 187.597 306.32 187.085 306.32C186.349 306.32 185.72 306.555 185.197 307.024C184.685 307.493 184.392 308.144 184.317 308.976H189.853ZM197.551 305.072C198.618 305.072 199.482 305.397 200.143 306.048C200.804 306.688 201.135 307.616 201.135 308.832V314H199.695V309.04C199.695 308.165 199.476 307.499 199.039 307.04C198.602 306.571 198.004 306.336 197.247 306.336C196.479 306.336 195.866 306.576 195.407 307.056C194.959 307.536 194.735 308.235 194.735 309.152V314H193.279V305.232H194.735V306.48C195.023 306.032 195.412 305.685 195.903 305.44C196.404 305.195 196.954 305.072 197.551 305.072ZM205.289 306.432V311.6C205.289 312.027 205.38 312.331 205.561 312.512C205.743 312.683 206.057 312.768 206.505 312.768H207.577V314H206.265C205.455 314 204.847 313.813 204.441 313.44C204.036 313.067 203.833 312.453 203.833 311.6V306.432H202.697V305.232H203.833V303.024H205.289V305.232H207.577V306.432H205.289ZM212.983 303.76V302.432H215.991V314H214.519V303.76H212.983Z" fill="#513131"/>
<path d="M128.484 334.808C128.207 334.808 127.972 334.712 127.78 334.52C127.588 334.328 127.492 334.093 127.492 333.816C127.492 333.539 127.588 333.304 127.78 333.112C127.972 332.92 128.207 332.824 128.484 332.824C128.751 332.824 128.975 332.92 129.156 333.112C129.348 333.304 129.444 333.539 129.444 333.816C129.444 334.093 129.348 334.328 129.156 334.52C128.975 334.712 128.751 334.808 128.484 334.808ZM129.188 336.232V345H127.732V336.232H129.188ZM135.942 336.072C137.008 336.072 137.872 336.397 138.534 337.048C139.195 337.688 139.526 338.616 139.526 339.832V345H138.086V340.04C138.086 339.165 137.867 338.499 137.43 338.04C136.992 337.571 136.395 337.336 135.638 337.336C134.87 337.336 134.256 337.576 133.798 338.056C133.35 338.536 133.126 339.235 133.126 340.152V345H131.67V336.232H133.126V337.48C133.414 337.032 133.803 336.685 134.294 336.44C134.795 336.195 135.344 336.072 135.942 336.072ZM145.52 336.088C146.277 336.088 146.939 336.253 147.504 336.584C148.08 336.915 148.507 337.331 148.784 337.832V336.232H150.256V345.192C150.256 345.992 150.085 346.701 149.744 347.32C149.403 347.949 148.912 348.44 148.272 348.792C147.643 349.144 146.907 349.32 146.064 349.32C144.912 349.32 143.952 349.048 143.184 348.504C142.416 347.96 141.963 347.219 141.824 346.28H143.264C143.424 346.813 143.755 347.24 144.256 347.56C144.757 347.891 145.36 348.056 146.064 348.056C146.864 348.056 147.515 347.805 148.016 347.304C148.528 346.803 148.784 346.099 148.784 345.192V343.352C148.496 343.864 148.069 344.291 147.504 344.632C146.939 344.973 146.277 345.144 145.52 345.144C144.741 345.144 144.032 344.952 143.392 344.568C142.763 344.184 142.267 343.645 141.904 342.952C141.541 342.259 141.36 341.469 141.36 340.584C141.36 339.688 141.541 338.904 141.904 338.232C142.267 337.549 142.763 337.021 143.392 336.648C144.032 336.275 144.741 336.088 145.52 336.088ZM148.784 340.6C148.784 339.939 148.651 339.363 148.384 338.872C148.117 338.381 147.755 338.008 147.296 337.752C146.848 337.485 146.352 337.352 145.808 337.352C145.264 337.352 144.768 337.48 144.32 337.736C143.872 337.992 143.515 338.365 143.248 338.856C142.981 339.347 142.848 339.923 142.848 340.584C142.848 341.256 142.981 341.843 143.248 342.344C143.515 342.835 143.872 343.213 144.32 343.48C144.768 343.736 145.264 343.864 145.808 343.864C146.352 343.864 146.848 343.736 147.296 343.48C147.755 343.213 148.117 342.835 148.384 342.344C148.651 341.843 148.784 341.261 148.784 340.6ZM154.172 337.656C154.428 337.155 154.791 336.765 155.26 336.488C155.74 336.211 156.322 336.072 157.004 336.072V337.576H156.62C154.988 337.576 154.172 338.461 154.172 340.232V345H152.716V336.232H154.172V337.656ZM166.685 340.28C166.685 340.557 166.669 340.851 166.637 341.16H159.629C159.682 342.024 159.976 342.701 160.509 343.192C161.053 343.672 161.709 343.912 162.477 343.912C163.106 343.912 163.629 343.768 164.045 343.48C164.472 343.181 164.77 342.787 164.941 342.296H166.509C166.274 343.139 165.805 343.827 165.101 344.36C164.397 344.883 163.522 345.144 162.477 345.144C161.645 345.144 160.898 344.957 160.237 344.584C159.586 344.211 159.074 343.683 158.701 343C158.328 342.307 158.141 341.507 158.141 340.6C158.141 339.693 158.322 338.899 158.685 338.216C159.048 337.533 159.554 337.011 160.205 336.648C160.866 336.275 161.624 336.088 162.477 336.088C163.309 336.088 164.045 336.269 164.685 336.632C165.325 336.995 165.816 337.496 166.157 338.136C166.509 338.765 166.685 339.48 166.685 340.28ZM165.181 339.976C165.181 339.421 165.058 338.947 164.813 338.552C164.568 338.147 164.232 337.843 163.805 337.64C163.389 337.427 162.925 337.32 162.413 337.32C161.677 337.32 161.048 337.555 160.525 338.024C160.013 338.493 159.72 339.144 159.645 339.976H165.181ZM168.063 340.584C168.063 339.688 168.244 338.904 168.607 338.232C168.97 337.549 169.466 337.021 170.095 336.648C170.735 336.275 171.45 336.088 172.239 336.088C172.922 336.088 173.556 336.248 174.143 336.568C174.73 336.877 175.178 337.288 175.487 337.8V333.16H176.959V345H175.487V343.352C175.199 343.875 174.772 344.307 174.207 344.648C173.642 344.979 172.98 345.144 172.223 345.144C171.444 345.144 170.735 344.952 170.095 344.568C169.466 344.184 168.97 343.645 168.607 342.952C168.244 342.259 168.063 341.469 168.063 340.584ZM175.487 340.6C175.487 339.939 175.354 339.363 175.087 338.872C174.82 338.381 174.458 338.008 173.999 337.752C173.551 337.485 173.055 337.352 172.511 337.352C171.967 337.352 171.471 337.48 171.023 337.736C170.575 337.992 170.218 338.365 169.951 338.856C169.684 339.347 169.551 339.923 169.551 340.584C169.551 341.256 169.684 341.843 169.951 342.344C170.218 342.835 170.575 343.213 171.023 343.48C171.471 343.736 171.967 343.864 172.511 343.864C173.055 343.864 173.551 343.736 173.999 343.48C174.458 343.213 174.82 342.835 175.087 342.344C175.354 341.843 175.487 341.261 175.487 340.6ZM180.172 334.808C179.894 334.808 179.66 334.712 179.468 334.52C179.276 334.328 179.18 334.093 179.18 333.816C179.18 333.539 179.276 333.304 179.468 333.112C179.66 332.92 179.894 332.824 180.172 332.824C180.438 332.824 180.662 332.92 180.844 333.112C181.036 333.304 181.132 333.539 181.132 333.816C181.132 334.093 181.036 334.328 180.844 334.52C180.662 334.712 180.438 334.808 180.172 334.808ZM180.876 336.232V345H179.42V336.232H180.876ZM191.357 340.28C191.357 340.557 191.341 340.851 191.309 341.16H184.301C184.354 342.024 184.648 342.701 185.181 343.192C185.725 343.672 186.381 343.912 187.149 343.912C187.778 343.912 188.301 343.768 188.717 343.48C189.144 343.181 189.442 342.787 189.613 342.296H191.181C190.946 343.139 190.477 343.827 189.773 344.36C189.069 344.883 188.194 345.144 187.149 345.144C186.317 345.144 185.57 344.957 184.909 344.584C184.258 344.211 183.746 343.683 183.373 343C183 342.307 182.813 341.507 182.813 340.6C182.813 339.693 182.994 338.899 183.357 338.216C183.72 337.533 184.226 337.011 184.877 336.648C185.538 336.275 186.296 336.088 187.149 336.088C187.981 336.088 188.717 336.269 189.357 336.632C189.997 336.995 190.488 337.496 190.829 338.136C191.181 338.765 191.357 339.48 191.357 340.28ZM189.853 339.976C189.853 339.421 189.73 338.947 189.485 338.552C189.24 338.147 188.904 337.843 188.477 337.64C188.061 337.427 187.597 337.32 187.085 337.32C186.349 337.32 185.72 337.555 185.197 338.024C184.685 338.493 184.392 339.144 184.317 339.976H189.853ZM197.551 336.072C198.618 336.072 199.482 336.397 200.143 337.048C200.804 337.688 201.135 338.616 201.135 339.832V345H199.695V340.04C199.695 339.165 199.476 338.499 199.039 338.04C198.602 337.571 198.004 337.336 197.247 337.336C196.479 337.336 195.866 337.576 195.407 338.056C194.959 338.536 194.735 339.235 194.735 340.152V345H193.279V336.232H194.735V337.48C195.023 337.032 195.412 336.685 195.903 336.44C196.404 336.195 196.954 336.072 197.551 336.072ZM205.289 337.432V342.6C205.289 343.027 205.38 343.331 205.561 343.512C205.743 343.683 206.057 343.768 206.505 343.768H207.577V345H206.265C205.455 345 204.847 344.813 204.441 344.44C204.036 344.067 203.833 343.453 203.833 342.6V337.432H202.697V336.232H203.833V334.024H205.289V336.232H207.577V337.432H205.289ZM212.983 334.76V333.432H215.991V345H214.519V334.76H212.983Z" fill="#513131"/>
<g filter="url(#filter10_i_1_3884)">
<rect x="77" y="238" width="17" height="17" rx="8.5" fill="#98C487"/>
</g>
<g filter="url(#filter11_i_1_3884)">
<rect x="77" y="268" width="17" height="17" rx="8.5" fill="#98C487"/>
</g>
<g filter="url(#filter12_i_1_3884)">
<rect x="99" y="300" width="17" height="17" rx="8.5" fill="#98C487"/>
</g>
<g filter="url(#filter13_i_1_3884)">
<rect x="99" y="331" width="17" height="17" rx="8.5" fill="#98C487"/>
</g>
<circle cx="85.5" cy="303.5" r="1.5" fill="#513131"/>
<circle cx="85.5" cy="308.5" r="1.5" fill="#513131"/>
<circle cx="85.5" cy="313.5" r="1.5" fill="#513131"/>
<circle cx="64.5" cy="269.5" r="1.5" fill="#513131"/>
<circle cx="64.5" cy="274.5" r="1.5" fill="#513131"/>
<circle cx="64.5" cy="279.5" r="1.5" fill="#513131"/>
<circle cx="64.5" cy="239.5" r="1.5" fill="#513131"/>
<circle cx="64.5" cy="244.5" r="1.5" fill="#513131"/>
<circle cx="64.5" cy="249.5" r="1.5" fill="#513131"/>
<circle cx="85.5" cy="334.5" r="1.5" fill="#513131"/>
<circle cx="85.5" cy="339.5" r="1.5" fill="#513131"/>
<circle cx="85.5" cy="344.5" r="1.5" fill="#513131"/>
<g filter="url(#filter14_i_1_3884)">
<g clip-path="url(#clip2_1_3884)">
<rect x="76" y="211" width="19" height="19" rx="9.5" fill="#98C487"/>
<g filter="url(#filter15_d_1_3884)">
<path d="M90 216.906L89.0936 216L85.5 219.594L81.9064 216L81 216.906L84.5936 220.5L81 224.094L81.9064 225L85.5 221.406L89.0936 225L90 224.094L86.4064 220.5L90 216.906Z" fill="#F6F8ED"/>
</g>
</g>
</g>
<circle cx="64.5" cy="215.5" r="1.5" fill="#513131"/>
<circle cx="64.5" cy="220.5" r="1.5" fill="#513131"/>
<circle cx="64.5" cy="225.5" r="1.5" fill="#513131"/>
<line x1="34" y1="186.5" x2="294" y2="186.5" stroke="black"/>
<path d="M117.213 161.144C116.519 161.144 115.895 161.021 115.341 160.776C114.797 160.52 114.365 160.179 114.045 159.752C113.725 159.315 113.554 158.829 113.533 158.296H115.421C115.453 158.669 115.629 158.984 115.949 159.24C116.279 159.485 116.69 159.608 117.181 159.608C117.693 159.608 118.087 159.512 118.365 159.32C118.653 159.117 118.797 158.861 118.797 158.552C118.797 158.221 118.637 157.976 118.317 157.816C118.007 157.656 117.511 157.48 116.829 157.288C116.167 157.107 115.629 156.931 115.213 156.76C114.797 156.589 114.434 156.328 114.125 155.976C113.826 155.624 113.677 155.16 113.677 154.584C113.677 154.115 113.815 153.688 114.093 153.304C114.37 152.909 114.765 152.6 115.277 152.376C115.799 152.152 116.397 152.04 117.069 152.04C118.071 152.04 118.877 152.296 119.485 152.808C120.103 153.309 120.434 153.997 120.477 154.872H118.653C118.621 154.477 118.461 154.163 118.173 153.928C117.885 153.693 117.495 153.576 117.005 153.576C116.525 153.576 116.157 153.667 115.901 153.848C115.645 154.029 115.517 154.269 115.517 154.568C115.517 154.803 115.602 155 115.773 155.16C115.943 155.32 116.151 155.448 116.397 155.544C116.642 155.629 117.005 155.741 117.485 155.88C118.125 156.051 118.647 156.227 119.053 156.408C119.469 156.579 119.826 156.835 120.125 157.176C120.423 157.517 120.578 157.971 120.589 158.536C120.589 159.037 120.45 159.485 120.173 159.88C119.895 160.275 119.501 160.584 118.989 160.808C118.487 161.032 117.895 161.144 117.213 161.144ZM127.119 152.04C127.791 152.04 128.389 152.184 128.911 152.472C129.445 152.76 129.861 153.187 130.159 153.752C130.469 154.317 130.623 155 130.623 155.8V161H128.815V156.072C128.815 155.283 128.618 154.68 128.223 154.264C127.829 153.837 127.29 153.624 126.607 153.624C125.925 153.624 125.381 153.837 124.975 154.264C124.581 154.68 124.383 155.283 124.383 156.072V161H122.559V149.16H124.383V153.208C124.693 152.835 125.082 152.547 125.551 152.344C126.031 152.141 126.554 152.04 127.119 152.04ZM136.774 161.144C135.942 161.144 135.19 160.957 134.518 160.584C133.846 160.2 133.318 159.667 132.934 158.984C132.55 158.291 132.358 157.491 132.358 156.584C132.358 155.688 132.555 154.893 132.95 154.2C133.345 153.507 133.883 152.973 134.566 152.6C135.249 152.227 136.011 152.04 136.854 152.04C137.697 152.04 138.459 152.227 139.142 152.6C139.825 152.973 140.363 153.507 140.758 154.2C141.153 154.893 141.35 155.688 141.35 156.584C141.35 157.48 141.147 158.275 140.742 158.968C140.337 159.661 139.782 160.2 139.078 160.584C138.385 160.957 137.617 161.144 136.774 161.144ZM136.774 159.56C137.243 159.56 137.681 159.448 138.086 159.224C138.502 159 138.838 158.664 139.094 158.216C139.35 157.768 139.478 157.224 139.478 156.584C139.478 155.944 139.355 155.405 139.11 154.968C138.865 154.52 138.539 154.184 138.134 153.96C137.729 153.736 137.291 153.624 136.822 153.624C136.353 153.624 135.915 153.736 135.51 153.96C135.115 154.184 134.801 154.52 134.566 154.968C134.331 155.405 134.214 155.944 134.214 156.584C134.214 157.533 134.454 158.269 134.934 158.792C135.425 159.304 136.038 159.56 136.774 159.56ZM144.977 153.48C145.286 153.075 145.708 152.733 146.241 152.456C146.774 152.179 147.377 152.04 148.049 152.04C148.817 152.04 149.516 152.232 150.145 152.616C150.785 152.989 151.286 153.517 151.649 154.2C152.012 154.883 152.193 155.667 152.193 156.552C152.193 157.437 152.012 158.232 151.649 158.936C151.286 159.629 150.785 160.173 150.145 160.568C149.516 160.952 148.817 161.144 148.049 161.144C147.377 161.144 146.78 161.011 146.257 160.744C145.734 160.467 145.308 160.125 144.977 159.72V165.192H143.153V152.184H144.977V153.48ZM150.337 156.552C150.337 155.944 150.209 155.421 149.953 154.984C149.708 154.536 149.377 154.2 148.961 153.976C148.556 153.741 148.118 153.624 147.649 153.624C147.19 153.624 146.753 153.741 146.337 153.976C145.932 154.211 145.601 154.552 145.345 155C145.1 155.448 144.977 155.976 144.977 156.584C144.977 157.192 145.1 157.725 145.345 158.184C145.601 158.632 145.932 158.973 146.337 159.208C146.753 159.443 147.19 159.56 147.649 159.56C148.118 159.56 148.556 159.443 148.961 159.208C149.377 158.963 149.708 158.611 149.953 158.152C150.209 157.693 150.337 157.16 150.337 156.552ZM155.821 153.48C156.13 153.075 156.552 152.733 157.085 152.456C157.618 152.179 158.221 152.04 158.893 152.04C159.661 152.04 160.36 152.232 160.989 152.616C161.629 152.989 162.13 153.517 162.493 154.2C162.856 154.883 163.037 155.667 163.037 156.552C163.037 157.437 162.856 158.232 162.493 158.936C162.13 159.629 161.629 160.173 160.989 160.568C160.36 160.952 159.661 161.144 158.893 161.144C158.221 161.144 157.624 161.011 157.101 160.744C156.578 160.467 156.152 160.125 155.821 159.72V165.192H153.997V152.184H155.821V153.48ZM161.181 156.552C161.181 155.944 161.053 155.421 160.797 154.984C160.552 154.536 160.221 154.2 159.805 153.976C159.4 153.741 158.962 153.624 158.493 153.624C158.034 153.624 157.597 153.741 157.181 153.976C156.776 154.211 156.445 154.552 156.189 155C155.944 155.448 155.821 155.976 155.821 156.584C155.821 157.192 155.944 157.725 156.189 158.184C156.445 158.632 156.776 158.973 157.181 159.208C157.597 159.443 158.034 159.56 158.493 159.56C158.962 159.56 159.4 159.443 159.805 159.208C160.221 158.963 160.552 158.611 160.797 158.152C161.053 157.693 161.181 157.16 161.181 156.552ZM165.769 151.016C165.438 151.016 165.161 150.904 164.937 150.68C164.713 150.456 164.601 150.179 164.601 149.848C164.601 149.517 164.713 149.24 164.937 149.016C165.161 148.792 165.438 148.68 165.769 148.68C166.089 148.68 166.361 148.792 166.585 149.016C166.809 149.24 166.921 149.517 166.921 149.848C166.921 150.179 166.809 150.456 166.585 150.68C166.361 150.904 166.089 151.016 165.769 151.016ZM166.665 152.184V161H164.841V152.184H166.665ZM173.507 152.04C174.201 152.04 174.819 152.184 175.363 152.472C175.918 152.76 176.35 153.187 176.659 153.752C176.969 154.317 177.123 155 177.123 155.8V161H175.315V156.072C175.315 155.283 175.118 154.68 174.723 154.264C174.329 153.837 173.79 153.624 173.107 153.624C172.425 153.624 171.881 153.837 171.475 154.264C171.081 154.68 170.883 155.283 170.883 156.072V161H169.059V152.184H170.883V153.192C171.182 152.829 171.561 152.547 172.019 152.344C172.489 152.141 172.985 152.04 173.507 152.04ZM183.002 152.04C183.685 152.04 184.287 152.179 184.81 152.456C185.343 152.723 185.759 153.059 186.058 153.464V152.184H187.898V161.144C187.898 161.955 187.727 162.675 187.386 163.304C187.045 163.944 186.549 164.445 185.898 164.808C185.258 165.171 184.49 165.352 183.594 165.352C182.399 165.352 181.407 165.069 180.618 164.504C179.829 163.949 179.381 163.192 179.274 162.232H181.082C181.221 162.691 181.514 163.059 181.962 163.336C182.421 163.624 182.965 163.768 183.594 163.768C184.33 163.768 184.922 163.544 185.37 163.096C185.829 162.648 186.058 161.997 186.058 161.144V159.672C185.749 160.088 185.327 160.44 184.794 160.728C184.271 161.005 183.674 161.144 183.002 161.144C182.234 161.144 181.53 160.952 180.89 160.568C180.261 160.173 179.759 159.629 179.386 158.936C179.023 158.232 178.842 157.437 178.842 156.552C178.842 155.667 179.023 154.883 179.386 154.2C179.759 153.517 180.261 152.989 180.89 152.616C181.53 152.232 182.234 152.04 183.002 152.04ZM186.058 156.584C186.058 155.976 185.93 155.448 185.674 155C185.429 154.552 185.103 154.211 184.698 153.976C184.293 153.741 183.855 153.624 183.386 153.624C182.917 153.624 182.479 153.741 182.074 153.976C181.669 154.2 181.338 154.536 181.082 154.984C180.837 155.421 180.714 155.944 180.714 156.552C180.714 157.16 180.837 157.693 181.082 158.152C181.338 158.611 181.669 158.963 182.074 159.208C182.49 159.443 182.927 159.56 183.386 159.56C183.855 159.56 184.293 159.443 184.698 159.208C185.103 158.973 185.429 158.632 185.674 158.184C185.93 157.725 186.058 157.192 186.058 156.584ZM196.274 149.16V161H194.45V149.16H196.274ZM199.597 151.016C199.266 151.016 198.989 150.904 198.765 150.68C198.541 150.456 198.429 150.179 198.429 149.848C198.429 149.517 198.541 149.24 198.765 149.016C198.989 148.792 199.266 148.68 199.597 148.68C199.917 148.68 200.189 148.792 200.413 149.016C200.637 149.24 200.749 149.517 200.749 149.848C200.749 150.179 200.637 150.456 200.413 150.68C200.189 150.904 199.917 151.016 199.597 151.016ZM200.493 152.184V161H198.669V152.184H200.493ZM206.088 161.144C205.394 161.144 204.77 161.021 204.216 160.776C203.672 160.52 203.24 160.179 202.92 159.752C202.6 159.315 202.429 158.829 202.408 158.296H204.296C204.328 158.669 204.504 158.984 204.824 159.24C205.154 159.485 205.565 159.608 206.056 159.608C206.568 159.608 206.962 159.512 207.24 159.32C207.528 159.117 207.672 158.861 207.672 158.552C207.672 158.221 207.512 157.976 207.192 157.816C206.882 157.656 206.386 157.48 205.704 157.288C205.042 157.107 204.504 156.931 204.088 156.76C203.672 156.589 203.309 156.328 203 155.976C202.701 155.624 202.552 155.16 202.552 154.584C202.552 154.115 202.69 153.688 202.968 153.304C203.245 152.909 203.64 152.6 204.152 152.376C204.674 152.152 205.272 152.04 205.944 152.04C206.946 152.04 207.752 152.296 208.36 152.808C208.978 153.309 209.309 153.997 209.352 154.872H207.528C207.496 154.477 207.336 154.163 207.048 153.928C206.76 153.693 206.37 153.576 205.88 153.576C205.4 153.576 205.032 153.667 204.776 153.848C204.52 154.029 204.392 154.269 204.392 154.568C204.392 154.803 204.477 155 204.648 155.16C204.818 155.32 205.026 155.448 205.272 155.544C205.517 155.629 205.88 155.741 206.36 155.88C207 156.051 207.522 156.227 207.928 156.408C208.344 156.579 208.701 156.835 209 157.176C209.298 157.517 209.453 157.971 209.464 158.536C209.464 159.037 209.325 159.485 209.048 159.88C208.77 160.275 208.376 160.584 207.864 160.808C207.362 161.032 206.77 161.144 206.088 161.144ZM213.562 153.672V158.552C213.562 158.883 213.637 159.123 213.786 159.272C213.946 159.411 214.213 159.48 214.586 159.48H215.706V161H214.266C213.445 161 212.816 160.808 212.378 160.424C211.941 160.04 211.722 159.416 211.722 158.552V153.672H210.682V152.184H211.722V149.992H213.562V152.184H215.706V153.672H213.562Z" fill="#513131"/>
</g>
<defs>
<filter id="filter0_d_1_3884" x="0" y="0" width="328" height="576" filterUnits="userSpaceOnUse" color-interpolation-filters="sRGB">
<feFlood flood-opacity="0" result="BackgroundImageFix"/>
<feColorMatrix in="SourceAlpha" type="matrix" values="0 0 0 0 0 0 0 0 0 0 0 0 0 0 0 0 0 0 127 0" result="hardAlpha"/>
<feOffset dy="4"/>
<feGaussianBlur stdDeviation="2"/>
<feComposite in2="hardAlpha" operator="out"/>
<feColorMatrix type="matrix" values="0 0 0 0 0 0 0 0 0 0 0 0 0 0 0 0 0 0 0.25 0"/>
<feBlend mode="normal" in2="BackgroundImageFix" result="effect1_dropShadow_1_3884"/>
<feBlend mode="normal" in="SourceGraphic" in2="effect1_dropShadow_1_3884" result="shape"/>
</filter>
<filter id="filter1_d_1_3884" x="68" y="49" width="28" height="22.4452" filterUnits="userSpaceOnUse" color-interpolation-filters="sRGB">
<feFlood flood-opacity="0" result="BackgroundImageFix"/>
<feColorMatrix in="SourceAlpha" type="matrix" values="0 0 0 0 0 0 0 0 0 0 0 0 0 0 0 0 0 0 127 0" result="hardAlpha"/>
<feOffset dy="4"/>
<feGaussianBlur stdDeviation="2"/>
<feComposite in2="hardAlpha" operator="out"/>
<feColorMatrix type="matrix" values="0 0 0 0 0 0 0 0 0 0 0 0 0 0 0 0 0 0 0.25 0"/>
<feBlend mode="normal" in2="BackgroundImageFix" result="effect1_dropShadow_1_3884"/>
<feBlend mode="normal" in="SourceGraphic" in2="effect1_dropShadow_1_3884" result="shape"/>
</filter>
<filter id="filter2_d_1_3884" x="72.1311" y="65.6668" width="11.0984" height="11.3332" filterUnits="userSpaceOnUse" color-interpolation-filters="sRGB">
<feFlood flood-opacity="0" result="BackgroundImageFix"/>
<feColorMatrix in="SourceAlpha" type="matrix" values="0 0 0 0 0 0 0 0 0 0 0 0 0 0 0 0 0 0 127 0" result="hardAlpha"/>
<feOffset dy="4"/>
<feGaussianBlur stdDeviation="2"/>
<feComposite in2="hardAlpha" operator="out"/>
<feColorMatrix type="matrix" values="0 0 0 0 0 0 0 0 0 0 0 0 0 0 0 0 0 0 0.25 0"/>
<feBlend mode="normal" in2="BackgroundImageFix" result="effect1_dropShadow_1_3884"/>
<feBlend mode="normal" in="SourceGraphic" in2="effect1_dropShadow_1_3884" result="shape"/>
</filter>
<filter id="filter3_d_1_3884" x="82.4591" y="65.6668" width="11.0984" height="11.3332" filterUnits="userSpaceOnUse" color-interpolation-filters="sRGB">
<feFlood flood-opacity="0" result="BackgroundImageFix"/>
<feColorMatrix in="SourceAlpha" type="matrix" values="0 0 0 0 0 0 0 0 0 0 0 0 0 0 0 0 0 0 127 0" result="hardAlpha"/>
<feOffset dy="4"/>
<feGaussianBlur stdDeviation="2"/>
<feComposite in2="hardAlpha" operator="out"/>
<feColorMatrix type="matrix" values="0 0 0 0 0 0 0 0 0 0 0 0 0 0 0 0 0 0 0.25 0"/>
<feBlend mode="normal" in2="BackgroundImageFix" result="effect1_dropShadow_1_3884"/>
<feBlend mode="normal" in="SourceGraphic" in2="effect1_dropShadow_1_3884" result="shape"/>
</filter>
<filter id="filter4_d_1_3884" x="61.2437" y="73.6" width="41.8856" height="15.4901" filterUnits="userSpaceOnUse" color-interpolation-filters="sRGB">
<feFlood flood-opacity="0" result="BackgroundImageFix"/>
<feColorMatrix in="SourceAlpha" type="matrix" values="0 0 0 0 0 0 0 0 0 0 0 0 0 0 0 0 0 0 127 0" result="hardAlpha"/>
<feOffset dy="4"/>
<feGaussianBlur stdDeviation="2"/>
<feComposite in2="hardAlpha" operator="out"/>
<feColorMatrix type="matrix" values="0 0 0 0 0 0 0 0 0 0 0 0 0 0 0 0 0 0 0.25 0"/>
<feBlend mode="normal" in2="BackgroundImageFix" result="effect1_dropShadow_1_3884"/>
<feBlend mode="normal" in="SourceGraphic" in2="effect1_dropShadow_1_3884" result="shape"/>
</filter>
<filter id="filter5_d_1_3884" x="231.932" y="73.6" width="34.135" height="15.4901" filterUnits="userSpaceOnUse" color-interpolation-filters="sRGB">
<feFlood flood-opacity="0" result="BackgroundImageFix"/>
<feColorMatrix in="SourceAlpha" type="matrix" values="0 0 0 0 0 0 0 0 0 0 0 0 0 0 0 0 0 0 127 0" result="hardAlpha"/>
<feOffset dy="4"/>
<feGaussianBlur stdDeviation="2"/>
<feComposite in2="hardAlpha" operator="out"/>
<feColorMatrix type="matrix" values="0 0 0 0 0 0 0 0 0 0 0 0 0 0 0 0 0 0 0.25 0"/>
<feBlend mode="normal" in2="BackgroundImageFix" result="effect1_dropShadow_1_3884"/>
<feBlend mode="normal" in="SourceGraphic" in2="effect1_dropShadow_1_3884" result="shape"/>
</filter>
<filter id="filter6_d_1_3884" x="238.553" y="56.5909" width="20.3932" height="20.1915" filterUnits="userSpaceOnUse" color-interpolation-filters="sRGB">
<feFlood flood-opacity="0" result="BackgroundImageFix"/>
<feColorMatrix in="SourceAlpha" type="matrix" values="0 0 0 0 0 0 0 0 0 0 0 0 0 0 0 0 0 0 127 0" result="hardAlpha"/>
<feOffset dy="4"/>
<feGaussianBlur stdDeviation="2"/>
<feComposite in2="hardAlpha" operator="out"/>
<feColorMatrix type="matrix" values="0 0 0 0 0 0 0 0 0 0 0 0 0 0 0 0 0 0 0.25 0"/>
<feBlend mode="normal" in2="BackgroundImageFix" result="effect1_dropShadow_1_3884"/>
<feBlend mode="normal" in="SourceGraphic" in2="effect1_dropShadow_1_3884" result="shape"/>
</filter>
<filter id="filter7_d_1_3884" x="234.664" y="515.6" width="27.3247" height="15.49" filterUnits="userSpaceOnUse" color-interpolation-filters="sRGB">
<feFlood flood-opacity="0" result="BackgroundImageFix"/>
<feColorMatrix in="SourceAlpha" type="matrix" values="0 0 0 0 0 0 0 0 0 0 0 0 0 0 0 0 0 0 127 0" result="hardAlpha"/>
<feOffset dy="4"/>
<feGaussianBlur stdDeviation="2"/>
<feComposite in2="hardAlpha" operator="out"/>
<feColorMatrix type="matrix" values="0 0 0 0 0 0 0 0 0 0 0 0 0 0 0 0 0 0 0.25 0"/>
<feBlend mode="normal" in2="BackgroundImageFix" result="effect1_dropShadow_1_3884"/>
<feBlend mode="normal" in="SourceGraphic" in2="effect1_dropShadow_1_3884" result="shape"/>
</filter>
<filter id="filter8_d_1_3884" x="234.5" y="486.5" width="29" height="29" filterUnits="userSpaceOnUse" color-interpolation-filters="sRGB">
<feFlood flood-opacity="0" result="BackgroundImageFix"/>
<feColorMatrix in="SourceAlpha" type="matrix" values="0 0 0 0 0 0 0 0 0 0 0 0 0 0 0 0 0 0 127 0" result="hardAlpha"/>
<feOffset dy="4"/>
<feGaussianBlur stdDeviation="2"/>
<feComposite in2="hardAlpha" operator="out"/>
<feColorMatrix type="matrix" values="0 0 0 0 0 0 0 0 0 0 0 0 0 0 0 0 0 0 0.25 0"/>
<feBlend mode="normal" in2="BackgroundImageFix" result="effect1_dropShadow_1_3884"/>
<feBlend mode="normal" in="SourceGraphic" in2="effect1_dropShadow_1_3884" result="shape"/>
</filter>
<filter id="filter9_d_1_3884" x="25.5" y="120.5" width="277" height="337" filterUnits="userSpaceOnUse" color-interpolation-filters="sRGB">
<feFlood flood-opacity="0" result="BackgroundImageFix"/>
<feColorMatrix in="SourceAlpha" type="matrix" values="0 0 0 0 0 0 0 0 0 0 0 0 0 0 0 0 0 0 127 0" result="hardAlpha"/>
<feOffset dy="4"/>
<feGaussianBlur stdDeviation="4"/>
<feComposite in2="hardAlpha" operator="out"/>
<feColorMatrix type="matrix" values="0 0 0 0 0 0 0 0 0 0 0 0 0 0 0 0 0 0 0.25 0"/>
<feBlend mode="normal" in2="BackgroundImageFix" result="effect1_dropShadow_1_3884"/>
<feBlend mode="normal" in="SourceGraphic" in2="effect1_dropShadow_1_3884" result="shape"/>
</filter>
<filter id="filter10_i_1_3884" x="77" y="238" width="17" height="21" filterUnits="userSpaceOnUse" color-interpolation-filters="sRGB">
<feFlood flood-opacity="0" result="BackgroundImageFix"/>
<feBlend mode="normal" in="SourceGraphic" in2="BackgroundImageFix" result="shape"/>
<feColorMatrix in="SourceAlpha" type="matrix" values="0 0 0 0 0 0 0 0 0 0 0 0 0 0 0 0 0 0 127 0" result="hardAlpha"/>
<feOffset dy="4"/>
<feGaussianBlur stdDeviation="2"/>
<feComposite in2="hardAlpha" operator="arithmetic" k2="-1" k3="1"/>
<feColorMatrix type="matrix" values="0 0 0 0 0 0 0 0 0 0 0 0 0 0 0 0 0 0 0.25 0"/>
<feBlend mode="normal" in2="shape" result="effect1_innerShadow_1_3884"/>
</filter>
<filter id="filter11_i_1_3884" x="77" y="268" width="17" height="21" filterUnits="userSpaceOnUse" color-interpolation-filters="sRGB">
<feFlood flood-opacity="0" result="BackgroundImageFix"/>
<feBlend mode="normal" in="SourceGraphic" in2="BackgroundImageFix" result="shape"/>
<feColorMatrix in="SourceAlpha" type="matrix" values="0 0 0 0 0 0 0 0 0 0 0 0 0 0 0 0 0 0 127 0" result="hardAlpha"/>
<feOffset dy="4"/>
<feGaussianBlur stdDeviation="2"/>
<feComposite in2="hardAlpha" operator="arithmetic" k2="-1" k3="1"/>
<feColorMatrix type="matrix" values="0 0 0 0 0 0 0 0 0 0 0 0 0 0 0 0 0 0 0.25 0"/>
<feBlend mode="normal" in2="shape" result="effect1_innerShadow_1_3884"/>
</filter>
<filter id="filter12_i_1_3884" x="99" y="300" width="17" height="21" filterUnits="userSpaceOnUse" color-interpolation-filters="sRGB">
<feFlood flood-opacity="0" result="BackgroundImageFix"/>
<feBlend mode="normal" in="SourceGraphic" in2="BackgroundImageFix" result="shape"/>
<feColorMatrix in="SourceAlpha" type="matrix" values="0 0 0 0 0 0 0 0 0 0 0 0 0 0 0 0 0 0 127 0" result="hardAlpha"/>
<feOffset dy="4"/>
<feGaussianBlur stdDeviation="2"/>
<feComposite in2="hardAlpha" operator="arithmetic" k2="-1" k3="1"/>
<feColorMatrix type="matrix" values="0 0 0 0 0 0 0 0 0 0 0 0 0 0 0 0 0 0 0.25 0"/>
<feBlend mode="normal" in2="shape" result="effect1_innerShadow_1_3884"/>
</filter>
<filter id="filter13_i_1_3884" x="99" y="331" width="17" height="21" filterUnits="userSpaceOnUse" color-interpolation-filters="sRGB">
<feFlood flood-opacity="0" result="BackgroundImageFix"/>
<feBlend mode="normal" in="SourceGraphic" in2="BackgroundImageFix" result="shape"/>
<feColorMatrix in="SourceAlpha" type="matrix" values="0 0 0 0 0 0 0 0 0 0 0 0 0 0 0 0 0 0 127 0" result="hardAlpha"/>
<feOffset dy="4"/>
<feGaussianBlur stdDeviation="2"/>
<feComposite in2="hardAlpha" operator="arithmetic" k2="-1" k3="1"/>
<feColorMatrix type="matrix" values="0 0 0 0 0 0 0 0 0 0 0 0 0 0 0 0 0 0 0.25 0"/>
<feBlend mode="normal" in2="shape" result="effect1_innerShadow_1_3884"/>
</filter>
<filter id="filter14_i_1_3884" x="76" y="211" width="19" height="23" filterUnits="userSpaceOnUse" color-interpolation-filters="sRGB">
<feFlood flood-opacity="0" result="BackgroundImageFix"/>
<feBlend mode="normal" in="SourceGraphic" in2="BackgroundImageFix" result="shape"/>
<feColorMatrix in="SourceAlpha" type="matrix" values="0 0 0 0 0 0 0 0 0 0 0 0 0 0 0 0 0 0 127 0" result="hardAlpha"/>
<feOffset dy="4"/>
<feGaussianBlur stdDeviation="2"/>
<feComposite in2="hardAlpha" operator="arithmetic" k2="-1" k3="1"/>
<feColorMatrix type="matrix" values="0 0 0 0 0 0 0 0 0 0 0 0 0 0 0 0 0 0 0.25 0"/>
<feBlend mode="normal" in2="shape" result="effect1_innerShadow_1_3884"/>
</filter>
<filter id="filter15_d_1_3884" x="77" y="216" width="17" height="17" filterUnits="userSpaceOnUse" color-interpolation-filters="sRGB">
<feFlood flood-opacity="0" result="BackgroundImageFix"/>
<feColorMatrix in="SourceAlpha" type="matrix" values="0 0 0 0 0 0 0 0 0 0 0 0 0 0 0 0 0 0 127 0" result="hardAlpha"/>
<feOffset dy="4"/>
<feGaussianBlur stdDeviation="2"/>
<feComposite in2="hardAlpha" operator="out"/>
<feColorMatrix type="matrix" values="0 0 0 0 0 0 0 0 0 0 0 0 0 0 0 0 0 0 0.25 0"/>
<feBlend mode="normal" in2="BackgroundImageFix" result="effect1_dropShadow_1_3884"/>
<feBlend mode="normal" in="SourceGraphic" in2="effect1_dropShadow_1_3884" result="shape"/>
</filter>
<linearGradient id="paint0_linear_1_3884" x1="320" y1="0" x2="-7.79629e-06" y2="568" gradientUnits="userSpaceOnUse">
<stop stop-color="#98C487"/>
<stop offset="1" stop-color="#6CAB54"/>
</linearGradient>
<linearGradient id="paint1_linear_1_3884" x1="294" y1="125" x2="34" y2="445" gradientUnits="userSpaceOnUse">
<stop stop-color="#F6F8ED"/>
<stop offset="1" stop-color="#E6F8DB"/>
</linearGradient>
<clipPath id="clip0_1_3884">
<rect width="23" height="26" fill="white" transform="translate(237 50)"/>
</clipPath>
<clipPath id="clip1_1_3884">
<rect width="45" height="40" fill="white" transform="translate(226 474)"/>
</clipPath>
<clipPath id="clip2_1_3884">
<rect x="76" y="211" width="19" height="19" rx="9.5" fill="white"/>
</clipPath>
</defs>
</svg>
