<svg width="328" height="576" viewBox="0 0 328 576" fill="none" xmlns="http://www.w3.org/2000/svg">
<g filter="url(#filter0_d_1_3540)">
<rect width="320" height="568" transform="translate(4)" fill="url(#paint0_linear_1_3540)"/>
<g filter="url(#filter1_d_1_3540)">
<path d="M167.591 112.471C159.355 108.455 149.698 110.83 144.12 117.596L152.745 126.222C153.73 127.206 153.73 128.784 152.745 129.753C152.261 130.238 151.62 130.488 150.98 130.488C150.339 130.488 149.698 130.238 149.214 129.753L141.369 121.909L121.352 162.959C120.899 163.896 120.867 165.037 121.352 166.037C122.196 167.772 124.305 168.49 126.04 167.647L146.917 157.458L139.228 149.77C138.244 148.801 138.244 147.208 139.228 146.239C140.213 145.27 141.791 145.27 142.76 146.239L151.667 155.146L167.606 147.364C171.357 145.536 174.56 142.473 176.529 138.441C181.232 128.8 177.232 117.174 167.591 112.471ZM181.983 107.017C185.03 100.657 183.451 93.141 177.248 88C169.388 94.5161 169.044 104.798 176.013 111.736L177.263 112.986C184.202 119.956 194.499 119.612 201 111.752C195.859 105.548 188.343 103.97 181.983 107.017Z" fill="#FB7E56"/>
<path d="M167.591 112.471C159.355 108.455 149.698 110.83 144.12 117.596L152.745 126.222C153.73 127.206 153.73 128.784 152.745 129.753C152.261 130.238 151.62 130.488 150.98 130.488C150.339 130.488 149.698 130.238 149.214 129.753L141.369 121.909L121.352 162.959C120.899 163.896 120.867 165.037 121.352 166.037C122.196 167.772 124.305 168.49 126.04 167.647L146.917 157.458L139.228 149.77C138.244 148.801 138.244 147.208 139.228 146.239C140.213 145.27 141.791 145.27 142.76 146.239L151.667 155.146L167.606 147.364C171.357 145.536 174.56 142.473 176.529 138.441C181.232 128.8 177.232 117.174 167.591 112.471ZM181.983 107.017C185.03 100.657 183.451 93.141 177.248 88C169.388 94.5161 169.044 104.798 176.013 111.736L177.263 112.986C184.202 119.956 194.499 119.612 201 111.752C195.859 105.548 188.343 103.97 181.983 107.017Z" stroke="#F6F8ED"/>
</g>
<g filter="url(#filter2_d_1_3540)">
<path d="M107.143 122.68C107.756 121.613 108.623 120.787 109.743 120.2C110.863 119.587 112.183 119.28 113.703 119.28C115.489 119.28 117.103 119.747 118.543 120.68C120.009 121.613 121.156 122.947 121.983 124.68C122.836 126.413 123.263 128.44 123.263 130.76C123.263 133.08 122.836 135.12 121.983 136.88C121.156 138.613 120.009 139.947 118.543 140.88C117.103 141.813 115.489 142.28 113.703 142.28C112.183 142.28 110.863 141.987 109.743 141.4C108.623 140.787 107.756 139.947 107.143 138.88V142H99.3025V112.4H107.143V122.68ZM115.303 130.76C115.303 129.293 114.903 128.16 114.103 127.36C113.329 126.533 112.369 126.12 111.223 126.12C110.076 126.12 109.103 126.533 108.303 127.36C107.529 128.187 107.143 129.32 107.143 130.76C107.143 132.227 107.529 133.373 108.303 134.2C109.103 135.027 110.076 135.44 111.223 135.44C112.369 135.44 113.329 135.027 114.103 134.2C114.903 133.347 115.303 132.2 115.303 130.76ZM134.33 123.52C135.21 122.24 136.277 121.227 137.53 120.48C138.783 119.733 140.13 119.36 141.57 119.36V127.72H139.37C137.663 127.72 136.397 128.053 135.57 128.72C134.743 129.387 134.33 130.547 134.33 132.2V142H126.49V119.56H134.33V123.52ZM143.101 130.76C143.101 128.44 143.514 126.413 144.341 124.68C145.194 122.947 146.341 121.613 147.781 120.68C149.247 119.747 150.874 119.28 152.661 119.28C154.207 119.28 155.541 119.587 156.661 120.2C157.781 120.813 158.647 121.64 159.261 122.68V119.56H167.101V142H159.261V138.88C158.647 139.92 157.767 140.747 156.621 141.36C155.501 141.973 154.181 142.28 152.661 142.28C150.874 142.28 149.247 141.813 147.781 140.88C146.341 139.947 145.194 138.613 144.341 136.88C143.514 135.12 143.101 133.08 143.101 130.76ZM159.261 130.76C159.261 129.32 158.861 128.187 158.061 127.36C157.287 126.533 156.327 126.12 155.181 126.12C154.007 126.12 153.034 126.533 152.261 127.36C151.487 128.16 151.101 129.293 151.101 130.76C151.101 132.2 151.487 133.347 152.261 134.2C153.034 135.027 154.007 135.44 155.181 135.44C156.327 135.44 157.287 135.027 158.061 134.2C158.861 133.373 159.261 132.227 159.261 130.76ZM186.248 119.36C188.835 119.36 190.888 120.227 192.408 121.96C193.928 123.667 194.688 125.987 194.688 128.92V142H186.848V129.96C186.848 128.68 186.515 127.68 185.848 126.96C185.181 126.213 184.288 125.84 183.168 125.84C181.995 125.84 181.075 126.213 180.408 126.96C179.741 127.68 179.408 128.68 179.408 129.96V142H171.568V119.56H179.408V122.76C180.101 121.747 181.035 120.933 182.208 120.32C183.381 119.68 184.728 119.36 186.248 119.36ZM197.71 130.76C197.71 128.44 198.123 126.413 198.95 124.68C199.803 122.947 200.963 121.613 202.43 120.68C203.897 119.747 205.523 119.28 207.31 119.28C208.75 119.28 210.03 119.587 211.15 120.2C212.297 120.787 213.19 121.6 213.83 122.64V112.4H221.71V142H213.83V138.88C213.217 139.92 212.35 140.747 211.23 141.36C210.11 141.973 208.79 142.28 207.27 142.28C205.483 142.28 203.857 141.813 202.39 140.88C200.95 139.947 199.803 138.613 198.95 136.88C198.123 135.12 197.71 133.08 197.71 130.76ZM213.87 130.76C213.87 129.32 213.47 128.187 212.67 127.36C211.897 126.533 210.937 126.12 209.79 126.12C208.617 126.12 207.643 126.533 206.87 127.36C206.097 128.16 205.71 129.293 205.71 130.76C205.71 132.2 206.097 133.347 206.87 134.2C207.643 135.027 208.617 135.44 209.79 135.44C210.937 135.44 211.897 135.027 212.67 134.2C213.47 133.373 213.87 132.227 213.87 130.76Z" fill="#F6F8ED"/>
</g>
<g filter="url(#filter3_d_1_3540)">
<rect x="48.4832" y="386.5" width="232.017" height="59" rx="14.5" fill="#E6F8DB" stroke="#F6F8ED"/>
</g>
<path d="M178.17 422.144C177.498 422.144 176.896 422.032 176.362 421.808C175.829 421.573 175.408 421.253 175.098 420.848C174.789 420.432 174.618 419.957 174.586 419.424H176.09C176.133 419.861 176.336 420.219 176.698 420.496C177.072 420.773 177.557 420.912 178.154 420.912C178.709 420.912 179.146 420.789 179.466 420.544C179.786 420.299 179.946 419.989 179.946 419.616C179.946 419.232 179.776 418.949 179.434 418.768C179.093 418.576 178.565 418.389 177.85 418.208C177.2 418.037 176.666 417.867 176.25 417.696C175.845 417.515 175.493 417.253 175.194 416.912C174.906 416.56 174.762 416.101 174.762 415.536C174.762 415.088 174.896 414.677 175.162 414.304C175.429 413.931 175.808 413.637 176.298 413.424C176.789 413.2 177.349 413.088 177.978 413.088C178.949 413.088 179.733 413.333 180.33 413.824C180.928 414.315 181.248 414.987 181.29 415.84H179.834C179.802 415.381 179.616 415.013 179.274 414.736C178.944 414.459 178.496 414.32 177.93 414.32C177.408 414.32 176.992 414.432 176.682 414.656C176.373 414.88 176.218 415.173 176.218 415.536C176.218 415.824 176.309 416.064 176.49 416.256C176.682 416.437 176.917 416.587 177.194 416.704C177.482 416.811 177.877 416.933 178.378 417.072C179.008 417.243 179.52 417.413 179.914 417.584C180.309 417.744 180.645 417.989 180.922 418.32C181.21 418.651 181.36 419.083 181.37 419.616C181.37 420.096 181.237 420.528 180.97 420.912C180.704 421.296 180.325 421.6 179.834 421.824C179.354 422.037 178.8 422.144 178.17 422.144ZM184.178 411.808C183.9 411.808 183.666 411.712 183.474 411.52C183.282 411.328 183.186 411.093 183.186 410.816C183.186 410.539 183.282 410.304 183.474 410.112C183.666 409.92 183.9 409.824 184.178 409.824C184.444 409.824 184.668 409.92 184.85 410.112C185.042 410.304 185.138 410.539 185.138 410.816C185.138 411.093 185.042 411.328 184.85 411.52C184.668 411.712 184.444 411.808 184.178 411.808ZM184.882 413.232V422H183.426V413.232H184.882ZM190.979 413.088C191.737 413.088 192.398 413.253 192.963 413.584C193.539 413.915 193.966 414.331 194.243 414.832V413.232H195.715V422.192C195.715 422.992 195.545 423.701 195.203 424.32C194.862 424.949 194.371 425.44 193.731 425.792C193.102 426.144 192.366 426.32 191.523 426.32C190.371 426.32 189.411 426.048 188.643 425.504C187.875 424.96 187.422 424.219 187.283 423.28H188.723C188.883 423.813 189.214 424.24 189.715 424.56C190.217 424.891 190.819 425.056 191.523 425.056C192.323 425.056 192.974 424.805 193.475 424.304C193.987 423.803 194.243 423.099 194.243 422.192V420.352C193.955 420.864 193.529 421.291 192.963 421.632C192.398 421.973 191.737 422.144 190.979 422.144C190.201 422.144 189.491 421.952 188.851 421.568C188.222 421.184 187.726 420.645 187.363 419.952C187.001 419.259 186.819 418.469 186.819 417.584C186.819 416.688 187.001 415.904 187.363 415.232C187.726 414.549 188.222 414.021 188.851 413.648C189.491 413.275 190.201 413.088 190.979 413.088ZM194.243 417.6C194.243 416.939 194.11 416.363 193.843 415.872C193.577 415.381 193.214 415.008 192.755 414.752C192.307 414.485 191.811 414.352 191.267 414.352C190.723 414.352 190.227 414.48 189.779 414.736C189.331 414.992 188.974 415.365 188.707 415.856C188.441 416.347 188.307 416.923 188.307 417.584C188.307 418.256 188.441 418.843 188.707 419.344C188.974 419.835 189.331 420.213 189.779 420.48C190.227 420.736 190.723 420.864 191.267 420.864C191.811 420.864 192.307 420.736 192.755 420.48C193.214 420.213 193.577 419.835 193.843 419.344C194.11 418.843 194.243 418.261 194.243 417.6ZM202.448 413.072C203.514 413.072 204.378 413.397 205.04 414.048C205.701 414.688 206.032 415.616 206.032 416.832V422H204.592V417.04C204.592 416.165 204.373 415.499 203.936 415.04C203.498 414.571 202.901 414.336 202.144 414.336C201.376 414.336 200.762 414.576 200.304 415.056C199.856 415.536 199.632 416.235 199.632 417.152V422H198.176V413.232H199.632V414.48C199.92 414.032 200.309 413.685 200.8 413.44C201.301 413.195 201.85 413.072 202.448 413.072ZM220.452 413.232V422H218.996V420.704C218.718 421.152 218.329 421.504 217.828 421.76C217.337 422.005 216.793 422.128 216.196 422.128C215.513 422.128 214.9 421.989 214.356 421.712C213.812 421.424 213.38 420.997 213.06 420.432C212.75 419.867 212.596 419.179 212.596 418.368V413.232H214.036V418.176C214.036 419.04 214.254 419.707 214.692 420.176C215.129 420.635 215.726 420.864 216.484 420.864C217.262 420.864 217.876 420.624 218.324 420.144C218.772 419.664 218.996 418.965 218.996 418.048V413.232H220.452ZM224.366 414.848C224.654 414.347 225.081 413.931 225.646 413.6C226.222 413.259 226.889 413.088 227.646 413.088C228.425 413.088 229.129 413.275 229.758 413.648C230.398 414.021 230.899 414.549 231.262 415.232C231.625 415.904 231.806 416.688 231.806 417.584C231.806 418.469 231.625 419.259 231.262 419.952C230.899 420.645 230.398 421.184 229.758 421.568C229.129 421.952 228.425 422.144 227.646 422.144C226.899 422.144 226.238 421.979 225.662 421.648C225.097 421.307 224.665 420.885 224.366 420.384V426.16H222.91V413.232H224.366V414.848ZM230.318 417.584C230.318 416.923 230.185 416.347 229.918 415.856C229.651 415.365 229.289 414.992 228.83 414.736C228.382 414.48 227.886 414.352 227.342 414.352C226.809 414.352 226.313 414.485 225.854 414.752C225.406 415.008 225.043 415.387 224.766 415.888C224.499 416.379 224.366 416.949 224.366 417.6C224.366 418.261 224.499 418.843 224.766 419.344C225.043 419.835 225.406 420.213 225.854 420.48C226.313 420.736 226.809 420.864 227.342 420.864C227.886 420.864 228.382 420.736 228.83 420.48C229.289 420.213 229.651 419.835 229.918 419.344C230.185 418.843 230.318 418.256 230.318 417.584Z" fill="#513131"/>
<path d="M61 386.5H125.5V445.5H61C52.9919 445.5 46.5 439.008 46.5 431V401C46.5 392.992 52.9919 386.5 61 386.5Z" fill="url(#paint1_linear_1_3540)" stroke="#F6F8ED"/>
<path d="M94.174 407.826C93.072 406.724 92.092 407.049 92.092 407.049L83.453 415.681L82 420L86.317 418.546L94.951 409.908C94.951 409.908 95.275 408.928 94.174 407.826V407.826ZM86.605 417.605L86.134 418.075L84.661 418.575C84.5469 418.297 84.3774 418.045 84.163 417.835C83.9525 417.621 83.7007 417.451 83.423 417.337L83.923 415.864L84.394 415.394C84.394 415.394 85.17 415.305 85.931 416.067C86.693 416.828 86.605 417.605 86.605 417.605ZM92 423H79V410H84L86 408H79C77.9 408 77 408.9 77 410V423C77 424.1 77.9 425 79 425H92C93.1 425 94 424.1 94 423V416L92 418V423Z" fill="#F6F8ED"/>
<g filter="url(#filter4_d_1_3540)">
<rect x="48.4832" y="298.5" width="232.017" height="59" rx="14.5" fill="#E6F8DB" stroke="#F6F8ED"/>
</g>
<path d="M184.14 322.16V334H182.684V322.16H184.14ZM190.445 334.144C189.624 334.144 188.877 333.957 188.205 333.584C187.544 333.211 187.021 332.683 186.637 332C186.264 331.307 186.077 330.507 186.077 329.6C186.077 328.704 186.269 327.915 186.653 327.232C187.048 326.539 187.581 326.011 188.253 325.648C188.925 325.275 189.677 325.088 190.509 325.088C191.341 325.088 192.093 325.275 192.765 325.648C193.437 326.011 193.965 326.533 194.349 327.216C194.744 327.899 194.941 328.693 194.941 329.6C194.941 330.507 194.738 331.307 194.333 332C193.938 332.683 193.4 333.211 192.717 333.584C192.034 333.957 191.277 334.144 190.445 334.144ZM190.445 332.864C190.968 332.864 191.458 332.741 191.917 332.496C192.376 332.251 192.744 331.883 193.021 331.392C193.309 330.901 193.453 330.304 193.453 329.6C193.453 328.896 193.314 328.299 193.037 327.808C192.76 327.317 192.397 326.955 191.949 326.72C191.501 326.475 191.016 326.352 190.493 326.352C189.96 326.352 189.469 326.475 189.021 326.72C188.584 326.955 188.232 327.317 187.965 327.808C187.698 328.299 187.565 328.896 187.565 329.6C187.565 330.315 187.693 330.917 187.949 331.408C188.216 331.899 188.568 332.267 189.005 332.512C189.442 332.747 189.922 332.864 190.445 332.864ZM200.471 325.088C201.229 325.088 201.89 325.253 202.455 325.584C203.031 325.915 203.458 326.331 203.735 326.832V325.232H205.207V334.192C205.207 334.992 205.037 335.701 204.695 336.32C204.354 336.949 203.863 337.44 203.223 337.792C202.594 338.144 201.858 338.32 201.015 338.32C199.863 338.32 198.903 338.048 198.135 337.504C197.367 336.96 196.914 336.219 196.775 335.28H198.215C198.375 335.813 198.706 336.24 199.207 336.56C199.709 336.891 200.311 337.056 201.015 337.056C201.815 337.056 202.466 336.805 202.967 336.304C203.479 335.803 203.735 335.099 203.735 334.192V332.352C203.447 332.864 203.021 333.291 202.455 333.632C201.89 333.973 201.229 334.144 200.471 334.144C199.693 334.144 198.983 333.952 198.343 333.568C197.714 333.184 197.218 332.645 196.855 331.952C196.493 331.259 196.311 330.469 196.311 329.584C196.311 328.688 196.493 327.904 196.855 327.232C197.218 326.549 197.714 326.021 198.343 325.648C198.983 325.275 199.693 325.088 200.471 325.088ZM203.735 329.6C203.735 328.939 203.602 328.363 203.335 327.872C203.069 327.381 202.706 327.008 202.247 326.752C201.799 326.485 201.303 326.352 200.759 326.352C200.215 326.352 199.719 326.48 199.271 326.736C198.823 326.992 198.466 327.365 198.199 327.856C197.933 328.347 197.799 328.923 197.799 329.584C197.799 330.256 197.933 330.843 198.199 331.344C198.466 331.835 198.823 332.213 199.271 332.48C199.719 332.736 200.215 332.864 200.759 332.864C201.303 332.864 201.799 332.736 202.247 332.48C202.706 332.213 203.069 331.835 203.335 331.344C203.602 330.843 203.735 330.261 203.735 329.6ZM212.686 323.808C212.408 323.808 212.174 323.712 211.982 323.52C211.79 323.328 211.694 323.093 211.694 322.816C211.694 322.539 211.79 322.304 211.982 322.112C212.174 321.92 212.408 321.824 212.686 321.824C212.952 321.824 213.176 321.92 213.358 322.112C213.55 322.304 213.646 322.539 213.646 322.816C213.646 323.093 213.55 323.328 213.358 323.52C213.176 323.712 212.952 323.808 212.686 323.808ZM213.39 325.232V334H211.934V325.232H213.39ZM220.143 325.072C221.21 325.072 222.074 325.397 222.735 326.048C223.396 326.688 223.727 327.616 223.727 328.832V334H222.287V329.04C222.287 328.165 222.068 327.499 221.631 327.04C221.194 326.571 220.596 326.336 219.839 326.336C219.071 326.336 218.458 326.576 217.999 327.056C217.551 327.536 217.327 328.235 217.327 329.152V334H215.871V325.232H217.327V326.48C217.615 326.032 218.004 325.685 218.495 325.44C218.996 325.195 219.546 325.072 220.143 325.072Z" fill="#513131"/>
<path d="M61 298.5H125.5V357.5H61C52.9919 357.5 46.5 351.008 46.5 343V313C46.5 304.992 52.9919 298.5 61 298.5Z" fill="url(#paint2_linear_1_3540)" stroke="#F6F8ED"/>
<g clip-path="url(#clip0_1_3540)">
<path d="M86 319.667C81.3975 319.667 77.6667 323.397 77.6667 328C77.6667 332.602 81.3975 336.333 86 336.333C90.6025 336.333 94.3334 332.602 94.3334 328C94.3334 323.397 90.6025 319.667 86 319.667Z" stroke="#F6F8ED" stroke-width="1.5" stroke-linecap="round" stroke-linejoin="round"/>
<path d="M79.5592 333.288C79.5592 333.288 81.4167 330.917 86 330.917C90.5834 330.917 92.4417 333.288 92.4417 333.288H79.5592ZM86 328C86.6631 328 87.299 327.737 87.7678 327.268C88.2366 326.799 88.5 326.163 88.5 325.5C88.5 324.837 88.2366 324.201 87.7678 323.732C87.299 323.263 86.6631 323 86 323C85.337 323 84.7011 323.263 84.2323 323.732C83.7634 324.201 83.5 324.837 83.5 325.5C83.5 326.163 83.7634 326.799 84.2323 327.268C84.7011 327.737 85.337 328 86 328V328Z" stroke="#F6F8ED" stroke-width="1.5" stroke-linecap="round" stroke-linejoin="round"/>
</g>
</g>
<defs>
<filter id="filter0_d_1_3540" x="0" y="0" width="328" height="576" filterUnits="userSpaceOnUse" color-interpolation-filters="sRGB">
<feFlood flood-opacity="0" result="BackgroundImageFix"/>
<feColorMatrix in="SourceAlpha" type="matrix" values="0 0 0 0 0 0 0 0 0 0 0 0 0 0 0 0 0 0 127 0" result="hardAlpha"/>
<feOffset dy="4"/>
<feGaussianBlur stdDeviation="2"/>
<feComposite in2="hardAlpha" operator="out"/>
<feColorMatrix type="matrix" values="0 0 0 0 0 0 0 0 0 0 0 0 0 0 0 0 0 0 0.25 0"/>
<feBlend mode="normal" in2="BackgroundImageFix" result="effect1_dropShadow_1_3540"/>
<feBlend mode="normal" in="SourceGraphic" in2="effect1_dropShadow_1_3540" result="shape"/>
</filter>
<filter id="filter1_d_1_3540" x="116.5" y="87.3506" width="89.1491" height="89.1494" filterUnits="userSpaceOnUse" color-interpolation-filters="sRGB">
<feFlood flood-opacity="0" result="BackgroundImageFix"/>
<feColorMatrix in="SourceAlpha" type="matrix" values="0 0 0 0 0 0 0 0 0 0 0 0 0 0 0 0 0 0 127 0" result="hardAlpha"/>
<feOffset dy="4"/>
<feGaussianBlur stdDeviation="2"/>
<feComposite in2="hardAlpha" operator="out"/>
<feColorMatrix type="matrix" values="0 0 0 0 0 0 0 0 0 0 0 0 0 0 0 0 0 0 0.25 0"/>
<feBlend mode="normal" in2="BackgroundImageFix" result="effect1_dropShadow_1_3540"/>
<feBlend mode="normal" in="SourceGraphic" in2="effect1_dropShadow_1_3540" result="shape"/>
</filter>
<filter id="filter2_d_1_3540" x="95.3025" y="112.4" width="130.408" height="37.88" filterUnits="userSpaceOnUse" color-interpolation-filters="sRGB">
<feFlood flood-opacity="0" result="BackgroundImageFix"/>
<feColorMatrix in="SourceAlpha" type="matrix" values="0 0 0 0 0 0 0 0 0 0 0 0 0 0 0 0 0 0 127 0" result="hardAlpha"/>
<feOffset dy="4"/>
<feGaussianBlur stdDeviation="2"/>
<feComposite in2="hardAlpha" operator="out"/>
<feColorMatrix type="matrix" values="0 0 0 0 0 0 0 0 0 0 0 0 0 0 0 0 0 0 0.25 0"/>
<feBlend mode="normal" in2="BackgroundImageFix" result="effect1_dropShadow_1_3540"/>
<feBlend mode="normal" in="SourceGraphic" in2="effect1_dropShadow_1_3540" result="shape"/>
</filter>
<filter id="filter3_d_1_3540" x="43.9832" y="386" width="241.017" height="68" filterUnits="userSpaceOnUse" color-interpolation-filters="sRGB">
<feFlood flood-opacity="0" result="BackgroundImageFix"/>
<feColorMatrix in="SourceAlpha" type="matrix" values="0 0 0 0 0 0 0 0 0 0 0 0 0 0 0 0 0 0 127 0" result="hardAlpha"/>
<feOffset dy="4"/>
<feGaussianBlur stdDeviation="2"/>
<feComposite in2="hardAlpha" operator="out"/>
<feColorMatrix type="matrix" values="0 0 0 0 0 0 0 0 0 0 0 0 0 0 0 0 0 0 0.25 0"/>
<feBlend mode="normal" in2="BackgroundImageFix" result="effect1_dropShadow_1_3540"/>
<feBlend mode="normal" in="SourceGraphic" in2="effect1_dropShadow_1_3540" result="shape"/>
</filter>
<filter id="filter4_d_1_3540" x="43.9832" y="298" width="241.017" height="68" filterUnits="userSpaceOnUse" color-interpolation-filters="sRGB">
<feFlood flood-opacity="0" result="BackgroundImageFix"/>
<feColorMatrix in="SourceAlpha" type="matrix" values="0 0 0 0 0 0 0 0 0 0 0 0 0 0 0 0 0 0 127 0" result="hardAlpha"/>
<feOffset dy="4"/>
<feGaussianBlur stdDeviation="2"/>
<feComposite in2="hardAlpha" operator="out"/>
<feColorMatrix type="matrix" values="0 0 0 0 0 0 0 0 0 0 0 0 0 0 0 0 0 0 0.25 0"/>
<feBlend mode="normal" in2="BackgroundImageFix" result="effect1_dropShadow_1_3540"/>
<feBlend mode="normal" in="SourceGraphic" in2="effect1_dropShadow_1_3540" result="shape"/>
</filter>
<linearGradient id="paint0_linear_1_3540" x1="320" y1="0" x2="-7.79629e-06" y2="568" gradientUnits="userSpaceOnUse">
<stop stop-color="#98C487"/>
<stop offset="1" stop-color="#6CAB54"/>
</linearGradient>
<linearGradient id="paint1_linear_1_3540" x1="126" y1="386" x2="46" y2="446" gradientUnits="userSpaceOnUse">
<stop stop-color="#FB7E56"/>
<stop offset="1" stop-color="#D9593D"/>
</linearGradient>
<linearGradient id="paint2_linear_1_3540" x1="126" y1="298" x2="46" y2="358" gradientUnits="userSpaceOnUse">
<stop stop-color="#FB7E56"/>
<stop offset="1" stop-color="#D9593D"/>
</linearGradient>
<clipPath id="clip0_1_3540">
<rect width="20" height="20" fill="white" transform="translate(76 318)"/>
</clipPath>
</defs>
</svg>
