<svg width="328" height="576" viewBox="0 0 328 576" fill="none" xmlns="http://www.w3.org/2000/svg">
<g filter="url(#filter0_d_1_3562)">
<rect width="320" height="568" transform="translate(4)" fill="url(#paint0_linear_1_3562)"/>
<g filter="url(#filter1_d_1_3562)">
<rect x="63" y="40" width="200" height="50" rx="25" stroke="#F6F8ED" stroke-width="2"/>
<g filter="url(#filter2_d_1_3562)">
<path d="M115.706 53.4449C115.527 53.1123 115.272 52.8351 114.964 52.6404C114.656 52.4456 114.307 52.34 113.95 52.3339H100.73L100.131 49.8228C100.071 49.5805 99.9356 49.3672 99.7481 49.2179C99.5606 49.0686 99.3316 48.9921 99.0984 49.0007H97.0328C96.7589 49.0007 96.4962 49.1177 96.3025 49.3261C96.1088 49.5344 96 49.817 96 50.1117C96 50.4064 96.1088 50.689 96.3025 50.8974C96.4962 51.1057 96.7589 51.2228 97.0328 51.2228H98.3135L101.164 62.6224C101.225 62.8648 101.36 63.078 101.547 63.2273C101.735 63.3766 101.964 63.4531 102.197 63.4446H111.492C111.683 63.4439 111.87 63.3865 112.032 63.2786C112.194 63.1708 112.325 63.0167 112.411 62.8335L115.799 55.5449C115.946 55.2138 116.014 54.8487 115.998 54.4823C115.981 54.1159 115.881 53.7595 115.706 53.4449ZM110.852 61.2224H102.982L101.298 54.556H113.95L110.852 61.2224Z" fill="#F6F8ED"/>
</g>
<g filter="url(#filter3_d_1_3562)">
<path d="M101.68 69C102.536 69 103.229 68.2538 103.229 67.3334C103.229 66.4129 102.536 65.6667 101.68 65.6667C100.825 65.6667 100.131 66.4129 100.131 67.3334C100.131 68.2538 100.825 69 101.68 69Z" fill="#F6F8ED"/>
</g>
<g filter="url(#filter4_d_1_3562)">
<path d="M112.008 69C112.864 69 113.557 68.2538 113.557 67.3334C113.557 66.4129 112.864 65.6667 112.008 65.6667C111.153 65.6667 110.459 66.4129 110.459 67.3334C110.459 68.2538 111.153 69 112.008 69Z" fill="#F6F8ED"/>
</g>
<g filter="url(#filter5_d_1_3562)">
<path d="M90.1437 76.27C90.3237 76.0033 90.5704 75.7867 90.8837 75.62C91.2037 75.4533 91.567 75.37 91.9737 75.37C92.447 75.37 92.8737 75.4867 93.2537 75.72C93.6404 75.9533 93.9437 76.2867 94.1637 76.72C94.3904 77.1467 94.5037 77.6433 94.5037 78.21C94.5037 78.7767 94.3904 79.28 94.1637 79.72C93.9437 80.1533 93.6404 80.49 93.2537 80.73C92.8737 80.97 92.447 81.09 91.9737 81.09C91.5604 81.09 91.197 81.01 90.8837 80.85C90.577 80.6833 90.3304 80.47 90.1437 80.21V81H88.7437V73.6H90.1437V76.27ZM93.0737 78.21C93.0737 77.8767 93.0037 77.59 92.8637 77.35C92.7304 77.1033 92.5504 76.9167 92.3237 76.79C92.1037 76.6633 91.8637 76.6 91.6037 76.6C91.3504 76.6 91.1104 76.6667 90.8837 76.8C90.6637 76.9267 90.4837 77.1133 90.3437 77.36C90.2104 77.6067 90.1437 77.8967 90.1437 78.23C90.1437 78.5633 90.2104 78.8533 90.3437 79.1C90.4837 79.3467 90.6637 79.5367 90.8837 79.67C91.1104 79.7967 91.3504 79.86 91.6037 79.86C91.8637 79.86 92.1037 79.7933 92.3237 79.66C92.5504 79.5267 92.7304 79.3367 92.8637 79.09C93.0037 78.8433 93.0737 78.55 93.0737 78.21ZM95.1611 78.21C95.1611 77.65 95.2711 77.1533 95.4911 76.72C95.7177 76.2867 96.0211 75.9533 96.4011 75.72C96.7877 75.4867 97.2177 75.37 97.6911 75.37C98.1044 75.37 98.4644 75.4533 98.7711 75.62C99.0844 75.7867 99.3344 75.9967 99.5211 76.25V75.46H100.931V81H99.5211V80.19C99.3411 80.45 99.0911 80.6667 98.7711 80.84C98.4577 81.0067 98.0944 81.09 97.6811 81.09C97.2144 81.09 96.7877 80.97 96.4011 80.73C96.0211 80.49 95.7177 80.1533 95.4911 79.72C95.2711 79.28 95.1611 78.7767 95.1611 78.21ZM99.5211 78.23C99.5211 77.89 99.4544 77.6 99.3211 77.36C99.1877 77.1133 99.0077 76.9267 98.7811 76.8C98.5544 76.6667 98.3111 76.6 98.0511 76.6C97.7911 76.6 97.5511 76.6633 97.3311 76.79C97.1111 76.9167 96.9311 77.1033 96.7911 77.35C96.6577 77.59 96.5911 77.8767 96.5911 78.21C96.5911 78.5433 96.6577 78.8367 96.7911 79.09C96.9311 79.3367 97.1111 79.5267 97.3311 79.66C97.5577 79.7933 97.7977 79.86 98.0511 79.86C98.3111 79.86 98.5544 79.7967 98.7811 79.67C99.0077 79.5367 99.1877 79.35 99.3211 79.11C99.4544 78.8633 99.5211 78.57 99.5211 78.23ZM104.418 81.09C103.965 81.09 103.558 81.01 103.198 80.85C102.838 80.6833 102.552 80.46 102.338 80.18C102.132 79.9 102.018 79.59 101.998 79.25H103.408C103.435 79.4633 103.538 79.64 103.718 79.78C103.905 79.92 104.135 79.99 104.408 79.99C104.675 79.99 104.882 79.9367 105.028 79.83C105.182 79.7233 105.258 79.5867 105.258 79.42C105.258 79.24 105.165 79.1067 104.978 79.02C104.798 78.9267 104.508 78.8267 104.108 78.72C103.695 78.62 103.355 78.5167 103.088 78.41C102.828 78.3033 102.602 78.14 102.408 77.92C102.222 77.7 102.128 77.4033 102.128 77.03C102.128 76.7233 102.215 76.4433 102.388 76.19C102.568 75.9367 102.822 75.7367 103.148 75.59C103.482 75.4433 103.872 75.37 104.318 75.37C104.978 75.37 105.505 75.5367 105.898 75.87C106.292 76.1967 106.508 76.64 106.548 77.2H105.208C105.188 76.98 105.095 76.8067 104.928 76.68C104.768 76.5467 104.552 76.48 104.278 76.48C104.025 76.48 103.828 76.5267 103.688 76.62C103.555 76.7133 103.488 76.8433 103.488 77.01C103.488 77.1967 103.582 77.34 103.768 77.44C103.955 77.5333 104.245 77.63 104.638 77.73C105.038 77.83 105.368 77.9333 105.628 78.04C105.888 78.1467 106.112 78.3133 106.298 78.54C106.492 78.76 106.592 79.0533 106.598 79.42C106.598 79.74 106.508 80.0267 106.328 80.28C106.155 80.5333 105.902 80.7333 105.568 80.88C105.242 81.02 104.858 81.09 104.418 81.09ZM111.028 81L109.148 78.64V81H107.748V73.6H109.148V77.81L111.008 75.46H112.828L110.388 78.24L112.848 81H111.028ZM118.737 78.11C118.737 78.31 118.724 78.49 118.697 78.65H114.647C114.681 79.05 114.821 79.3633 115.067 79.59C115.314 79.8167 115.617 79.93 115.977 79.93C116.497 79.93 116.867 79.7067 117.087 79.26H118.597C118.437 79.7933 118.131 80.2333 117.677 80.58C117.224 80.92 116.667 81.09 116.007 81.09C115.474 81.09 114.994 80.9733 114.567 80.74C114.147 80.5 113.817 80.1633 113.577 79.73C113.344 79.2967 113.227 78.7967 113.227 78.23C113.227 77.6567 113.344 77.1533 113.577 76.72C113.811 76.2867 114.137 75.9533 114.557 75.72C114.977 75.4867 115.461 75.37 116.007 75.37C116.534 75.37 117.004 75.4833 117.417 75.71C117.837 75.9367 118.161 76.26 118.387 76.68C118.621 77.0933 118.737 77.57 118.737 78.11ZM117.287 77.71C117.281 77.35 117.151 77.0633 116.897 76.85C116.644 76.63 116.334 76.52 115.967 76.52C115.621 76.52 115.327 76.6267 115.087 76.84C114.854 77.0467 114.711 77.3367 114.657 77.71H117.287ZM121.389 76.61V79.29C121.389 79.4767 121.433 79.6133 121.519 79.7C121.613 79.78 121.766 79.82 121.979 79.82H122.629V81H121.749C120.569 81 119.979 80.4267 119.979 79.28V76.61H119.319V75.46H119.979V74.09H121.389V75.46H122.629V76.61H121.389Z" fill="#F6F8ED"/>
</g>
<g filter="url(#filter6_d_1_3562)">
<path d="M206.899 76.26C207.079 76.0067 207.325 75.7967 207.639 75.63C207.959 75.4567 208.322 75.37 208.729 75.37C209.202 75.37 209.629 75.4867 210.009 75.72C210.395 75.9533 210.699 76.2867 210.919 76.72C211.145 77.1467 211.259 77.6433 211.259 78.21C211.259 78.7767 211.145 79.28 210.919 79.72C210.699 80.1533 210.395 80.49 210.009 80.73C209.629 80.97 209.202 81.09 208.729 81.09C208.322 81.09 207.962 81.0067 207.649 80.84C207.342 80.6733 207.092 80.4633 206.899 80.21V83.64H205.499V75.46H206.899V76.26ZM209.829 78.21C209.829 77.8767 209.759 77.59 209.619 77.35C209.485 77.1033 209.305 76.9167 209.079 76.79C208.859 76.6633 208.619 76.6 208.359 76.6C208.105 76.6 207.865 76.6667 207.639 76.8C207.419 76.9267 207.239 77.1133 207.099 77.36C206.965 77.6067 206.899 77.8967 206.899 78.23C206.899 78.5633 206.965 78.8533 207.099 79.1C207.239 79.3467 207.419 79.5367 207.639 79.67C207.865 79.7967 208.105 79.86 208.359 79.86C208.619 79.86 208.859 79.7933 209.079 79.66C209.305 79.5267 209.485 79.3367 209.619 79.09C209.759 78.8433 209.829 78.55 209.829 78.21ZM213.676 76.32C213.856 76.0267 214.089 75.7967 214.376 75.63C214.669 75.4633 215.003 75.38 215.376 75.38V76.85H215.006C214.566 76.85 214.233 76.9533 214.006 77.16C213.786 77.3667 213.676 77.7267 213.676 78.24V81H212.276V75.46H213.676V76.32ZM218.779 81.09C218.246 81.09 217.766 80.9733 217.339 80.74C216.912 80.5 216.576 80.1633 216.329 79.73C216.089 79.2967 215.969 78.7967 215.969 78.23C215.969 77.6633 216.092 77.1633 216.339 76.73C216.592 76.2967 216.936 75.9633 217.369 75.73C217.802 75.49 218.286 75.37 218.819 75.37C219.352 75.37 219.836 75.49 220.269 75.73C220.702 75.9633 221.042 76.2967 221.289 76.73C221.542 77.1633 221.669 77.6633 221.669 78.23C221.669 78.7967 221.539 79.2967 221.279 79.73C221.026 80.1633 220.679 80.5 220.239 80.74C219.806 80.9733 219.319 81.09 218.779 81.09ZM218.779 79.87C219.032 79.87 219.269 79.81 219.489 79.69C219.716 79.5633 219.896 79.3767 220.029 79.13C220.162 78.8833 220.229 78.5833 220.229 78.23C220.229 77.7033 220.089 77.3 219.809 77.02C219.536 76.7333 219.199 76.59 218.799 76.59C218.399 76.59 218.062 76.7333 217.789 77.02C217.522 77.3 217.389 77.7033 217.389 78.23C217.389 78.7567 217.519 79.1633 217.779 79.45C218.046 79.73 218.379 79.87 218.779 79.87ZM225.236 76.61H224.266V81H222.846V76.61H222.216V75.46H222.846V75.18C222.846 74.5 223.039 74 223.426 73.68C223.813 73.36 224.396 73.21 225.176 73.23V74.41C224.836 74.4033 224.599 74.46 224.466 74.58C224.333 74.7 224.266 74.9167 224.266 75.23V75.46H225.236V76.61ZM226.853 74.8C226.606 74.8 226.4 74.7233 226.233 74.57C226.073 74.41 225.993 74.2133 225.993 73.98C225.993 73.7467 226.073 73.5533 226.233 73.4C226.4 73.24 226.606 73.16 226.853 73.16C227.1 73.16 227.303 73.24 227.463 73.4C227.63 73.5533 227.713 73.7467 227.713 73.98C227.713 74.2133 227.63 74.41 227.463 74.57C227.303 74.7233 227.1 74.8 226.853 74.8ZM227.543 75.46V81H226.143V75.46H227.543ZM230.326 73.6V81H228.926V73.6H230.326ZM236.86 78.11C236.86 78.31 236.846 78.49 236.82 78.65H232.77C232.803 79.05 232.943 79.3633 233.19 79.59C233.436 79.8167 233.74 79.93 234.1 79.93C234.62 79.93 234.99 79.7067 235.21 79.26H236.72C236.56 79.7933 236.253 80.2333 235.8 80.58C235.346 80.92 234.79 81.09 234.13 81.09C233.596 81.09 233.116 80.9733 232.69 80.74C232.27 80.5 231.94 80.1633 231.7 79.73C231.466 79.2967 231.35 78.7967 231.35 78.23C231.35 77.6567 231.466 77.1533 231.7 76.72C231.933 76.2867 232.26 75.9533 232.68 75.72C233.1 75.4867 233.583 75.37 234.13 75.37C234.656 75.37 235.126 75.4833 235.54 75.71C235.96 75.9367 236.283 76.26 236.51 76.68C236.743 77.0933 236.86 77.57 236.86 78.11ZM235.41 77.71C235.403 77.35 235.273 77.0633 235.02 76.85C234.766 76.63 234.456 76.52 234.09 76.52C233.743 76.52 233.45 76.6267 233.21 76.84C232.976 77.0467 232.833 77.3367 232.78 77.71H235.41Z" fill="#F6F8ED"/>
</g>
<g filter="url(#filter7_d_1_3562)">
<path d="M221 51.5C222.375 51.5 223.5 52.625 223.5 54C223.5 55.375 222.375 56.5 221 56.5C219.625 56.5 218.5 55.375 218.5 54C218.5 52.625 219.625 51.5 221 51.5ZM221 64C224.375 64 228.25 65.6125 228.5 66.5H213.5C213.788 65.6 217.637 64 221 64ZM221 49C218.237 49 216 51.2375 216 54C216 56.7625 218.237 59 221 59C223.762 59 226 56.7625 226 54C226 51.2375 223.762 49 221 49ZM221 61.5C217.662 61.5 211 63.175 211 66.5V69H231V66.5C231 63.175 224.338 61.5 221 61.5Z" fill="#F6F8ED"/>
</g>
</g>
<g filter="url(#filter8_d_1_3562)">
<path d="M165.636 57.8706C162.342 56.4148 158.479 57.2758 156.248 59.7285L159.698 62.8553C160.092 63.2122 160.092 63.7843 159.698 64.1355C159.504 64.3111 159.248 64.4017 158.992 64.4017C158.736 64.4017 158.479 64.3111 158.286 64.1355L155.148 61.2919L147.141 76.1726C146.959 76.5124 146.947 76.9259 147.141 77.2885C147.478 77.9172 148.322 78.1778 149.016 77.8719L157.367 74.1787L154.291 71.3917C153.898 71.0405 153.898 70.4628 154.291 70.1116C154.685 69.7604 155.316 69.7604 155.704 70.1116L159.267 73.3403L165.642 70.5194C167.143 69.8567 168.424 68.7464 169.212 67.285C171.093 63.79 169.493 59.5756 165.636 57.8706ZM171.393 55.8937C172.612 53.5882 171.981 50.8636 169.499 49C166.355 51.3621 166.218 55.0893 169.005 57.6044L169.505 58.0575C172.281 60.5839 176.4 60.4593 179 57.61C176.944 55.3612 173.937 54.7891 171.393 55.8937Z" fill="#FB7E56"/>
<path d="M165.636 57.8706C162.342 56.4148 158.479 57.2758 156.248 59.7285L159.698 62.8553C160.092 63.2122 160.092 63.7843 159.698 64.1355C159.504 64.3111 159.248 64.4017 158.992 64.4017C158.736 64.4017 158.479 64.3111 158.286 64.1355L155.148 61.2919L147.141 76.1726C146.959 76.5124 146.947 76.9259 147.141 77.2885C147.478 77.9172 148.322 78.1778 149.016 77.8719L157.367 74.1787L154.291 71.3917C153.898 71.0405 153.898 70.4628 154.291 70.1116C154.685 69.7604 155.316 69.7604 155.704 70.1116L159.267 73.3403L165.642 70.5194C167.143 69.8567 168.424 68.7464 169.212 67.285C171.093 63.79 169.493 59.5756 165.636 57.8706ZM171.393 55.8937C172.612 53.5882 171.981 50.8636 169.499 49C166.355 51.3621 166.218 55.0893 169.005 57.6044L169.505 58.0575C172.281 60.5839 176.4 60.4593 179 57.61C176.944 55.3612 173.937 54.7891 171.393 55.8937Z" stroke="#F6F8ED"/>
</g>
<g filter="url(#filter9_d_1_3562)">
<rect x="61" y="488" width="200" height="50" rx="25" stroke="#F6F8ED" stroke-width="2"/>
</g>
<g filter="url(#filter10_d_1_3562)">
<path d="M94.2758 529.09C93.8225 529.09 93.4158 529.01 93.0558 528.85C92.6958 528.683 92.4092 528.46 92.1958 528.18C91.9892 527.9 91.8758 527.59 91.8558 527.25H93.2658C93.2925 527.463 93.3958 527.64 93.5758 527.78C93.7625 527.92 93.9925 527.99 94.2658 527.99C94.5325 527.99 94.7392 527.937 94.8858 527.83C95.0392 527.723 95.1158 527.587 95.1158 527.42C95.1158 527.24 95.0225 527.107 94.8358 527.02C94.6558 526.927 94.3658 526.827 93.9658 526.72C93.5525 526.62 93.2125 526.517 92.9458 526.41C92.6858 526.303 92.4592 526.14 92.2658 525.92C92.0792 525.7 91.9858 525.403 91.9858 525.03C91.9858 524.723 92.0725 524.443 92.2458 524.19C92.4258 523.937 92.6792 523.737 93.0058 523.59C93.3392 523.443 93.7292 523.37 94.1758 523.37C94.8358 523.37 95.3625 523.537 95.7558 523.87C96.1492 524.197 96.3658 524.64 96.4058 525.2H95.0658C95.0458 524.98 94.9525 524.807 94.7858 524.68C94.6258 524.547 94.4092 524.48 94.1358 524.48C93.8825 524.48 93.6858 524.527 93.5458 524.62C93.4125 524.713 93.3458 524.843 93.3458 525.01C93.3458 525.197 93.4392 525.34 93.6258 525.44C93.8125 525.533 94.1025 525.63 94.4958 525.73C94.8958 525.83 95.2258 525.933 95.4858 526.04C95.7458 526.147 95.9692 526.313 96.1558 526.54C96.3492 526.76 96.4492 527.053 96.4558 527.42C96.4558 527.74 96.3658 528.027 96.1858 528.28C96.0125 528.533 95.7592 528.733 95.4258 528.88C95.0992 529.02 94.7158 529.09 94.2758 529.09ZM102.755 526.11C102.755 526.31 102.742 526.49 102.715 526.65H98.665C98.6984 527.05 98.8384 527.363 99.085 527.59C99.3317 527.817 99.635 527.93 99.995 527.93C100.515 527.93 100.885 527.707 101.105 527.26H102.615C102.455 527.793 102.148 528.233 101.695 528.58C101.242 528.92 100.685 529.09 100.025 529.09C99.4917 529.09 99.0117 528.973 98.585 528.74C98.165 528.5 97.835 528.163 97.595 527.73C97.3617 527.297 97.245 526.797 97.245 526.23C97.245 525.657 97.3617 525.153 97.595 524.72C97.8284 524.287 98.155 523.953 98.575 523.72C98.995 523.487 99.4784 523.37 100.025 523.37C100.552 523.37 101.022 523.483 101.435 523.71C101.855 523.937 102.178 524.26 102.405 524.68C102.638 525.093 102.755 525.57 102.755 526.11ZM101.305 525.71C101.298 525.35 101.168 525.063 100.915 524.85C100.662 524.63 100.352 524.52 99.985 524.52C99.6384 524.52 99.345 524.627 99.105 524.84C98.8717 525.047 98.7284 525.337 98.675 525.71H101.305ZM103.417 526.21C103.417 525.65 103.527 525.153 103.747 524.72C103.974 524.287 104.277 523.953 104.657 523.72C105.044 523.487 105.474 523.37 105.947 523.37C106.36 523.37 106.72 523.453 107.027 523.62C107.34 523.787 107.59 523.997 107.777 524.25V523.46H109.187V529H107.777V528.19C107.597 528.45 107.347 528.667 107.027 528.84C106.714 529.007 106.35 529.09 105.937 529.09C105.47 529.09 105.044 528.97 104.657 528.73C104.277 528.49 103.974 528.153 103.747 527.72C103.527 527.28 103.417 526.777 103.417 526.21ZM107.777 526.23C107.777 525.89 107.71 525.6 107.577 525.36C107.444 525.113 107.264 524.927 107.037 524.8C106.81 524.667 106.567 524.6 106.307 524.6C106.047 524.6 105.807 524.663 105.587 524.79C105.367 524.917 105.187 525.103 105.047 525.35C104.914 525.59 104.847 525.877 104.847 526.21C104.847 526.543 104.914 526.837 105.047 527.09C105.187 527.337 105.367 527.527 105.587 527.66C105.814 527.793 106.054 527.86 106.307 527.86C106.567 527.86 106.81 527.797 107.037 527.67C107.264 527.537 107.444 527.35 107.577 527.11C107.71 526.863 107.777 526.57 107.777 526.23ZM111.954 524.32C112.134 524.027 112.368 523.797 112.654 523.63C112.948 523.463 113.281 523.38 113.654 523.38V524.85H113.284C112.844 524.85 112.511 524.953 112.284 525.16C112.064 525.367 111.954 525.727 111.954 526.24V529H110.554V523.46H111.954V524.32ZM114.237 526.23C114.237 525.657 114.354 525.157 114.587 524.73C114.821 524.297 115.144 523.963 115.557 523.73C115.971 523.49 116.444 523.37 116.977 523.37C117.664 523.37 118.231 523.543 118.677 523.89C119.131 524.23 119.434 524.71 119.587 525.33H118.077C117.997 525.09 117.861 524.903 117.667 524.77C117.481 524.63 117.247 524.56 116.967 524.56C116.567 524.56 116.251 524.707 116.017 525C115.784 525.287 115.667 525.697 115.667 526.23C115.667 526.757 115.784 527.167 116.017 527.46C116.251 527.747 116.567 527.89 116.967 527.89C117.534 527.89 117.904 527.637 118.077 527.13H119.587C119.434 527.73 119.131 528.207 118.677 528.56C118.224 528.913 117.657 529.09 116.977 529.09C116.444 529.09 115.971 528.973 115.557 528.74C115.144 528.5 114.821 528.167 114.587 527.74C114.354 527.307 114.237 526.803 114.237 526.23ZM123.733 523.38C124.153 523.38 124.526 523.473 124.853 523.66C125.18 523.84 125.433 524.11 125.613 524.47C125.8 524.823 125.893 525.25 125.893 525.75V529H124.493V525.94C124.493 525.5 124.383 525.163 124.163 524.93C123.943 524.69 123.643 524.57 123.263 524.57C122.876 524.57 122.57 524.69 122.343 524.93C122.123 525.163 122.013 525.5 122.013 525.94V529H120.613V521.6H122.013V524.15C122.193 523.91 122.433 523.723 122.733 523.59C123.033 523.45 123.366 523.38 123.733 523.38Z" fill="#F6F8ED"/>
</g>
<g filter="url(#filter11_d_1_3562)">
<path d="M115.267 510.761L111.888 507.378L109.289 506.303C110.155 505.07 110.618 503.6 110.617 502.094C110.617 498.044 107.327 494.75 103.283 494.75C99.2397 494.75 95.95 498.044 95.95 502.094C95.95 506.143 99.2397 509.438 103.283 509.438C104.801 509.439 106.281 508.967 107.517 508.087L108.588 510.682L111.967 514.066C112.183 514.283 112.44 514.455 112.724 514.572C113.007 514.69 113.31 514.75 113.617 514.75C113.923 514.75 114.226 514.69 114.509 514.572C114.793 514.455 115.05 514.283 115.266 514.066C115.483 513.849 115.655 513.591 115.772 513.308C115.89 513.024 115.95 512.72 115.95 512.413C115.95 512.106 115.89 511.803 115.772 511.519C115.655 511.236 115.483 510.978 115.267 510.761ZM97.2833 502.094C97.2833 498.781 99.9749 496.085 103.283 496.085C106.592 496.085 109.283 498.781 109.283 502.094C109.283 505.407 106.592 508.102 103.283 508.102C99.9749 508.102 97.2833 505.407 97.2833 502.094ZM114.324 513.121C114.136 513.309 113.882 513.414 113.617 513.414C113.351 513.414 113.097 513.309 112.909 513.121L109.719 509.926L108.723 507.513L111.133 508.51L114.324 511.705C114.511 511.893 114.616 512.148 114.616 512.413C114.616 512.679 114.511 512.933 114.324 513.121Z" fill="#F6F8ED"/>
<path d="M115.267 510.761L111.888 507.378L109.289 506.303C110.155 505.07 110.618 503.6 110.617 502.094C110.617 498.044 107.327 494.75 103.283 494.75C99.2397 494.75 95.95 498.044 95.95 502.094C95.95 506.143 99.2397 509.438 103.283 509.438C104.801 509.439 106.281 508.967 107.517 508.087L108.588 510.682L111.967 514.066C112.183 514.283 112.44 514.455 112.724 514.572C113.007 514.69 113.31 514.75 113.617 514.75C113.923 514.75 114.226 514.69 114.509 514.572C114.793 514.455 115.05 514.283 115.266 514.066C115.483 513.849 115.655 513.591 115.772 513.308C115.89 513.024 115.95 512.72 115.95 512.413C115.95 512.106 115.89 511.803 115.772 511.519C115.655 511.236 115.483 510.978 115.267 510.761ZM97.2833 502.094C97.2833 498.781 99.9749 496.085 103.283 496.085C106.592 496.085 109.283 498.781 109.283 502.094C109.283 505.407 106.592 508.102 103.283 508.102C99.9749 508.102 97.2833 505.407 97.2833 502.094ZM114.324 513.121C114.136 513.309 113.882 513.414 113.617 513.414C113.351 513.414 113.097 513.309 112.909 513.121L109.719 509.926L108.723 507.513L111.133 508.51L114.324 511.705C114.511 511.893 114.616 512.148 114.616 512.413C114.616 512.679 114.511 512.933 114.324 513.121Z" stroke="#F6F8ED" stroke-width="0.5"/>
</g>
<g filter="url(#filter12_d_1_3562)">
<path d="M191.028 526.21C191.028 525.65 191.138 525.153 191.358 524.72C191.585 524.287 191.892 523.953 192.278 523.72C192.665 523.487 193.095 523.37 193.568 523.37C193.928 523.37 194.272 523.45 194.598 523.61C194.925 523.763 195.185 523.97 195.378 524.23V521.6H196.798V529H195.378V528.18C195.205 528.453 194.962 528.673 194.648 528.84C194.335 529.007 193.972 529.09 193.558 529.09C193.092 529.09 192.665 528.97 192.278 528.73C191.892 528.49 191.585 528.153 191.358 527.72C191.138 527.28 191.028 526.777 191.028 526.21ZM195.388 526.23C195.388 525.89 195.322 525.6 195.188 525.36C195.055 525.113 194.875 524.927 194.648 524.8C194.422 524.667 194.178 524.6 193.918 524.6C193.658 524.6 193.418 524.663 193.198 524.79C192.978 524.917 192.798 525.103 192.658 525.35C192.525 525.59 192.458 525.877 192.458 526.21C192.458 526.543 192.525 526.837 192.658 527.09C192.798 527.337 192.978 527.527 193.198 527.66C193.425 527.793 193.665 527.86 193.918 527.86C194.178 527.86 194.422 527.797 194.648 527.67C194.875 527.537 195.055 527.35 195.188 527.11C195.322 526.863 195.388 526.57 195.388 526.23ZM198.876 522.8C198.629 522.8 198.422 522.723 198.256 522.57C198.096 522.41 198.016 522.213 198.016 521.98C198.016 521.747 198.096 521.553 198.256 521.4C198.422 521.24 198.629 521.16 198.876 521.16C199.122 521.16 199.326 521.24 199.486 521.4C199.652 521.553 199.736 521.747 199.736 521.98C199.736 522.213 199.652 522.41 199.486 522.57C199.326 522.723 199.122 522.8 198.876 522.8ZM199.566 523.46V529H198.166V523.46H199.566ZM203.069 529.09C202.615 529.09 202.209 529.01 201.849 528.85C201.489 528.683 201.202 528.46 200.989 528.18C200.782 527.9 200.669 527.59 200.649 527.25H202.059C202.085 527.463 202.189 527.64 202.369 527.78C202.555 527.92 202.785 527.99 203.059 527.99C203.325 527.99 203.532 527.937 203.679 527.83C203.832 527.723 203.909 527.587 203.909 527.42C203.909 527.24 203.815 527.107 203.629 527.02C203.449 526.927 203.159 526.827 202.759 526.72C202.345 526.62 202.005 526.517 201.739 526.41C201.479 526.303 201.252 526.14 201.059 525.92C200.872 525.7 200.779 525.403 200.779 525.03C200.779 524.723 200.865 524.443 201.039 524.19C201.219 523.937 201.472 523.737 201.799 523.59C202.132 523.443 202.522 523.37 202.969 523.37C203.629 523.37 204.155 523.537 204.549 523.87C204.942 524.197 205.159 524.64 205.199 525.2H203.859C203.839 524.98 203.745 524.807 203.579 524.68C203.419 524.547 203.202 524.48 202.929 524.48C202.675 524.48 202.479 524.527 202.339 524.62C202.205 524.713 202.139 524.843 202.139 525.01C202.139 525.197 202.232 525.34 202.419 525.44C202.605 525.533 202.895 525.63 203.289 525.73C203.689 525.83 204.019 525.933 204.279 526.04C204.539 526.147 204.762 526.313 204.949 526.54C205.142 526.76 205.242 527.053 205.249 527.42C205.249 527.74 205.159 528.027 204.979 528.28C204.805 528.533 204.552 528.733 204.219 528.88C203.892 529.02 203.509 529.09 203.069 529.09ZM206.038 526.23C206.038 525.657 206.155 525.157 206.388 524.73C206.621 524.297 206.945 523.963 207.358 523.73C207.771 523.49 208.245 523.37 208.778 523.37C209.465 523.37 210.031 523.543 210.478 523.89C210.931 524.23 211.235 524.71 211.388 525.33H209.878C209.798 525.09 209.661 524.903 209.468 524.77C209.281 524.63 209.048 524.56 208.768 524.56C208.368 524.56 208.051 524.707 207.818 525C207.585 525.287 207.468 525.697 207.468 526.23C207.468 526.757 207.585 527.167 207.818 527.46C208.051 527.747 208.368 527.89 208.768 527.89C209.335 527.89 209.705 527.637 209.878 527.13H211.388C211.235 527.73 210.931 528.207 210.478 528.56C210.025 528.913 209.458 529.09 208.778 529.09C208.245 529.09 207.771 528.973 207.358 528.74C206.945 528.5 206.621 528.167 206.388 527.74C206.155 527.307 206.038 526.803 206.038 526.23ZM214.874 529.09C214.34 529.09 213.86 528.973 213.434 528.74C213.007 528.5 212.67 528.163 212.424 527.73C212.184 527.297 212.064 526.797 212.064 526.23C212.064 525.663 212.187 525.163 212.434 524.73C212.687 524.297 213.03 523.963 213.464 523.73C213.897 523.49 214.38 523.37 214.914 523.37C215.447 523.37 215.93 523.49 216.364 523.73C216.797 523.963 217.137 524.297 217.384 524.73C217.637 525.163 217.764 525.663 217.764 526.23C217.764 526.797 217.634 527.297 217.374 527.73C217.12 528.163 216.774 528.5 216.334 528.74C215.9 528.973 215.414 529.09 214.874 529.09ZM214.874 527.87C215.127 527.87 215.364 527.81 215.584 527.69C215.81 527.563 215.99 527.377 216.124 527.13C216.257 526.883 216.324 526.583 216.324 526.23C216.324 525.703 216.184 525.3 215.904 525.02C215.63 524.733 215.294 524.59 214.894 524.59C214.494 524.59 214.157 524.733 213.884 525.02C213.617 525.3 213.484 525.703 213.484 526.23C213.484 526.757 213.614 527.163 213.874 527.45C214.14 527.73 214.474 527.87 214.874 527.87ZM221.101 527.71L222.501 523.46H223.991L221.941 529H220.241L218.201 523.46H219.701L221.101 527.71ZM229.927 526.11C229.927 526.31 229.914 526.49 229.887 526.65H225.837C225.87 527.05 226.01 527.363 226.257 527.59C226.504 527.817 226.807 527.93 227.167 527.93C227.687 527.93 228.057 527.707 228.277 527.26H229.787C229.627 527.793 229.32 528.233 228.867 528.58C228.414 528.92 227.857 529.09 227.197 529.09C226.664 529.09 226.184 528.973 225.757 528.74C225.337 528.5 225.007 528.163 224.767 527.73C224.534 527.297 224.417 526.797 224.417 526.23C224.417 525.657 224.534 525.153 224.767 524.72C225 524.287 225.327 523.953 225.747 523.72C226.167 523.487 226.65 523.37 227.197 523.37C227.724 523.37 228.194 523.483 228.607 523.71C229.027 523.937 229.35 524.26 229.577 524.68C229.81 525.093 229.927 525.57 229.927 526.11ZM228.477 525.71C228.47 525.35 228.34 525.063 228.087 524.85C227.834 524.63 227.524 524.52 227.157 524.52C226.81 524.52 226.517 524.627 226.277 524.84C226.044 525.047 225.9 525.337 225.847 525.71H228.477ZM232.349 524.32C232.529 524.027 232.762 523.797 233.049 523.63C233.342 523.463 233.675 523.38 234.049 523.38V524.85H233.679C233.239 524.85 232.905 524.953 232.679 525.16C232.459 525.367 232.349 525.727 232.349 526.24V529H230.949V523.46H232.349V524.32Z" fill="#F6F8ED"/>
</g>
<g filter="url(#filter13_d_1_3562)">
<path fill-rule="evenodd" clip-rule="evenodd" d="M205.001 512.825V503.4H206.334V512.825C206.334 513.017 206.404 513.202 206.529 513.338C206.654 513.474 206.824 513.55 207.001 513.55H219C219.176 513.55 219.346 513.474 219.471 513.338C219.596 513.202 219.666 513.017 219.666 512.825V503.4H220.999V512.825C220.999 513.402 220.789 513.955 220.414 514.363C220.039 514.771 219.53 515 219 515H207.001C206.47 515 205.962 514.771 205.586 514.363C205.211 513.955 205.001 513.402 205.001 512.825V512.825ZM219.666 496.875V501.95L217 499.05V496.875C217 496.682 217.07 496.498 217.195 496.362C217.32 496.226 217.49 496.15 217.666 496.15H219C219.176 496.15 219.346 496.226 219.471 496.362C219.596 496.498 219.666 496.682 219.666 496.875Z" fill="#F6F8ED" stroke="#F6F8ED" stroke-width="0.5"/>
<path fill-rule="evenodd" clip-rule="evenodd" d="M212.057 495.425C212.307 495.153 212.646 495 213 495C213.354 495 213.693 495.153 213.943 495.425L222.805 505.061C222.93 505.198 223 505.382 223 505.575C223 505.767 222.93 505.952 222.805 506.088C222.679 506.224 222.51 506.301 222.333 506.301C222.156 506.301 221.986 506.224 221.861 506.088L213 496.45L204.139 506.088C204.014 506.224 203.844 506.301 203.667 506.301C203.49 506.301 203.321 506.224 203.195 506.088C203.07 505.952 203 505.767 203 505.575C203 505.382 203.07 505.198 203.195 505.061L212.057 495.425Z" fill="#F6F8ED" stroke="#F6F8ED" stroke-width="0.5"/>
</g>
<g filter="url(#filter14_d_1_3562)">
<rect x="49.4832" y="204.5" width="232.017" height="59" rx="14.5" fill="#E6F8DB" stroke="#F6F8ED"/>
</g>
<path d="M181.624 228.16V240H180.168V228.16H181.624ZM184.857 229.808C184.58 229.808 184.345 229.712 184.153 229.52C183.961 229.328 183.865 229.093 183.865 228.816C183.865 228.539 183.961 228.304 184.153 228.112C184.345 227.92 184.58 227.824 184.857 227.824C185.124 227.824 185.348 227.92 185.529 228.112C185.721 228.304 185.817 228.539 185.817 228.816C185.817 229.093 185.721 229.328 185.529 229.52C185.348 229.712 185.124 229.808 184.857 229.808ZM185.561 231.232V240H184.105V231.232H185.561ZM189.499 232.864C189.798 232.341 190.235 231.915 190.811 231.584C191.387 231.253 192.043 231.088 192.779 231.088C193.568 231.088 194.278 231.275 194.907 231.648C195.536 232.021 196.032 232.549 196.395 233.232C196.758 233.904 196.939 234.688 196.939 235.584C196.939 236.469 196.758 237.259 196.395 237.952C196.032 238.645 195.531 239.184 194.891 239.568C194.262 239.952 193.558 240.144 192.779 240.144C192.022 240.144 191.355 239.979 190.779 239.648C190.214 239.317 189.787 238.896 189.499 238.384V240H188.043V228.16H189.499V232.864ZM195.451 235.584C195.451 234.923 195.318 234.347 195.051 233.856C194.784 233.365 194.422 232.992 193.963 232.736C193.515 232.48 193.019 232.352 192.475 232.352C191.942 232.352 191.446 232.485 190.987 232.752C190.539 233.008 190.176 233.387 189.899 233.888C189.632 234.379 189.499 234.949 189.499 235.6C189.499 236.261 189.632 236.843 189.899 237.344C190.176 237.835 190.539 238.213 190.987 238.48C191.446 238.736 191.942 238.864 192.475 238.864C193.019 238.864 193.515 238.736 193.963 238.48C194.422 238.213 194.784 237.835 195.051 237.344C195.318 236.843 195.451 236.256 195.451 235.584ZM200.311 232.656C200.567 232.155 200.93 231.765 201.399 231.488C201.879 231.211 202.461 231.072 203.143 231.072V232.576H202.759C201.127 232.576 200.311 233.461 200.311 235.232V240H198.855V231.232H200.311V232.656ZM204.28 235.584C204.28 234.688 204.462 233.904 204.824 233.232C205.187 232.549 205.683 232.021 206.312 231.648C206.952 231.275 207.662 231.088 208.44 231.088C209.208 231.088 209.875 231.253 210.44 231.584C211.006 231.915 211.427 232.331 211.704 232.832V231.232H213.176V240H211.704V238.368C211.416 238.88 210.984 239.307 210.408 239.648C209.843 239.979 209.182 240.144 208.424 240.144C207.646 240.144 206.942 239.952 206.312 239.568C205.683 239.184 205.187 238.645 204.824 237.952C204.462 237.259 204.28 236.469 204.28 235.584ZM211.704 235.6C211.704 234.939 211.571 234.363 211.304 233.872C211.038 233.381 210.675 233.008 210.216 232.752C209.768 232.485 209.272 232.352 208.728 232.352C208.184 232.352 207.688 232.48 207.24 232.736C206.792 232.992 206.435 233.365 206.168 233.856C205.902 234.347 205.768 234.923 205.768 235.584C205.768 236.256 205.902 236.843 206.168 237.344C206.435 237.835 206.792 238.213 207.24 238.48C207.688 238.736 208.184 238.864 208.728 238.864C209.272 238.864 209.768 238.736 210.216 238.48C210.675 238.213 211.038 237.835 211.304 237.344C211.571 236.843 211.704 236.261 211.704 235.6ZM217.093 232.656C217.349 232.155 217.711 231.765 218.181 231.488C218.661 231.211 219.242 231.072 219.925 231.072V232.576H219.541C217.909 232.576 217.093 233.461 217.093 235.232V240H215.637V231.232H217.093V232.656ZM229.157 231.232L223.877 244.128H222.373L224.101 239.904L220.565 231.232H222.181L224.933 238.336L227.653 231.232H229.157Z" fill="#513131"/>
<path d="M62 204.5H126.5V263.5H62C53.9919 263.5 47.5 257.008 47.5 249V219C47.5 210.992 53.9919 204.5 62 204.5Z" fill="url(#paint1_linear_1_3562)" stroke="#F6F8ED"/>
<path d="M80.3333 229H78.6667V240.667C78.6667 241.583 79.4167 242.333 80.3333 242.333H92V240.667H80.3333V229ZM93.6667 225.667H83.6667C82.75 225.667 82 226.417 82 227.333V237.333C82 238.25 82.75 239 83.6667 239H93.6667C94.5833 239 95.3333 238.25 95.3333 237.333V227.333C95.3333 226.417 94.5833 225.667 93.6667 225.667ZM93.6667 237.333H83.6667V227.333H93.6667V237.333ZM85.3333 231.5H92V233.167H85.3333V231.5ZM85.3333 234H88.6667V235.667H85.3333V234ZM85.3333 229H92V230.667H85.3333V229Z" fill="#F6F8ED"/>
<g filter="url(#filter15_d_1_3562)">
<rect x="49.4832" y="292.5" width="232.017" height="59" rx="14.5" fill="#E6F8DB" stroke="#F6F8ED"/>
</g>
<path d="M157.475 319.232V328H156.019V326.704C155.742 327.152 155.353 327.504 154.851 327.76C154.361 328.005 153.817 328.128 153.219 328.128C152.537 328.128 151.923 327.989 151.379 327.712C150.835 327.424 150.403 326.997 150.083 326.432C149.774 325.867 149.619 325.179 149.619 324.368V319.232H151.059V324.176C151.059 325.04 151.278 325.707 151.715 326.176C152.153 326.635 152.75 326.864 153.507 326.864C154.286 326.864 154.899 326.624 155.347 326.144C155.795 325.664 156.019 324.965 156.019 324.048V319.232H157.475ZM161.39 320.848C161.678 320.347 162.104 319.931 162.67 319.6C163.246 319.259 163.912 319.088 164.67 319.088C165.448 319.088 166.152 319.275 166.782 319.648C167.422 320.021 167.923 320.549 168.286 321.232C168.648 321.904 168.83 322.688 168.83 323.584C168.83 324.469 168.648 325.259 168.286 325.952C167.923 326.645 167.422 327.184 166.782 327.568C166.152 327.952 165.448 328.144 164.67 328.144C163.923 328.144 163.262 327.979 162.686 327.648C162.12 327.307 161.688 326.885 161.39 326.384V332.16H159.934V319.232H161.39V320.848ZM167.342 323.584C167.342 322.923 167.208 322.347 166.942 321.856C166.675 321.365 166.312 320.992 165.854 320.736C165.406 320.48 164.91 320.352 164.366 320.352C163.832 320.352 163.336 320.485 162.878 320.752C162.43 321.008 162.067 321.387 161.79 321.888C161.523 322.379 161.39 322.949 161.39 323.6C161.39 324.261 161.523 324.843 161.79 325.344C162.067 325.835 162.43 326.213 162.878 326.48C163.336 326.736 163.832 326.864 164.366 326.864C164.91 326.864 165.406 326.736 165.854 326.48C166.312 326.213 166.675 325.835 166.942 325.344C167.208 324.843 167.342 324.256 167.342 323.584ZM172.202 316.16V328H170.746V316.16H172.202ZM178.508 328.144C177.686 328.144 176.94 327.957 176.268 327.584C175.606 327.211 175.084 326.683 174.7 326C174.326 325.307 174.14 324.507 174.14 323.6C174.14 322.704 174.332 321.915 174.716 321.232C175.11 320.539 175.644 320.011 176.316 319.648C176.988 319.275 177.74 319.088 178.572 319.088C179.404 319.088 180.156 319.275 180.828 319.648C181.5 320.011 182.028 320.533 182.412 321.216C182.806 321.899 183.004 322.693 183.004 323.6C183.004 324.507 182.801 325.307 182.396 326C182.001 326.683 181.462 327.211 180.78 327.584C180.097 327.957 179.34 328.144 178.508 328.144ZM178.508 326.864C179.03 326.864 179.521 326.741 179.98 326.496C180.438 326.251 180.806 325.883 181.084 325.392C181.372 324.901 181.516 324.304 181.516 323.6C181.516 322.896 181.377 322.299 181.1 321.808C180.822 321.317 180.46 320.955 180.012 320.72C179.564 320.475 179.078 320.352 178.556 320.352C178.022 320.352 177.532 320.475 177.084 320.72C176.646 320.955 176.294 321.317 176.028 321.808C175.761 322.299 175.628 322.896 175.628 323.6C175.628 324.315 175.756 324.917 176.012 325.408C176.278 325.899 176.63 326.267 177.068 326.512C177.505 326.747 177.985 326.864 178.508 326.864ZM184.374 323.584C184.374 322.688 184.555 321.904 184.918 321.232C185.281 320.549 185.777 320.021 186.406 319.648C187.046 319.275 187.755 319.088 188.534 319.088C189.302 319.088 189.969 319.253 190.534 319.584C191.099 319.915 191.521 320.331 191.798 320.832V319.232H193.27V328H191.798V326.368C191.51 326.88 191.078 327.307 190.502 327.648C189.937 327.979 189.275 328.144 188.518 328.144C187.739 328.144 187.035 327.952 186.406 327.568C185.777 327.184 185.281 326.645 184.918 325.952C184.555 325.259 184.374 324.469 184.374 323.584ZM191.798 323.6C191.798 322.939 191.665 322.363 191.398 321.872C191.131 321.381 190.769 321.008 190.31 320.752C189.862 320.485 189.366 320.352 188.822 320.352C188.278 320.352 187.782 320.48 187.334 320.736C186.886 320.992 186.529 321.365 186.262 321.856C185.995 322.347 185.862 322.923 185.862 323.584C185.862 324.256 185.995 324.843 186.262 325.344C186.529 325.835 186.886 326.213 187.334 326.48C187.782 326.736 188.278 326.864 188.822 326.864C189.366 326.864 189.862 326.736 190.31 326.48C190.769 326.213 191.131 325.835 191.398 325.344C191.665 324.843 191.798 324.261 191.798 323.6ZM195.186 323.584C195.186 322.688 195.368 321.904 195.73 321.232C196.093 320.549 196.589 320.021 197.218 319.648C197.858 319.275 198.573 319.088 199.362 319.088C200.045 319.088 200.68 319.248 201.266 319.568C201.853 319.877 202.301 320.288 202.61 320.8V316.16H204.082V328H202.61V326.352C202.322 326.875 201.896 327.307 201.33 327.648C200.765 327.979 200.104 328.144 199.346 328.144C198.568 328.144 197.858 327.952 197.218 327.568C196.589 327.184 196.093 326.645 195.73 325.952C195.368 325.259 195.186 324.469 195.186 323.584ZM202.61 323.6C202.61 322.939 202.477 322.363 202.21 321.872C201.944 321.381 201.581 321.008 201.122 320.752C200.674 320.485 200.178 320.352 199.634 320.352C199.09 320.352 198.594 320.48 198.146 320.736C197.698 320.992 197.341 321.365 197.074 321.856C196.808 322.347 196.674 322.923 196.674 323.584C196.674 324.256 196.808 324.843 197.074 325.344C197.341 325.835 197.698 326.213 198.146 326.48C198.594 326.736 199.09 326.864 199.634 326.864C200.178 326.864 200.674 326.736 201.122 326.48C201.581 326.213 201.944 325.835 202.21 325.344C202.477 324.843 202.61 324.261 202.61 323.6ZM212.265 320.656C212.521 320.155 212.883 319.765 213.353 319.488C213.833 319.211 214.414 319.072 215.097 319.072V320.576H214.713C213.081 320.576 212.265 321.461 212.265 323.232V328H210.809V319.232H212.265V320.656ZM224.777 323.28C224.777 323.557 224.761 323.851 224.729 324.16H217.721C217.775 325.024 218.068 325.701 218.601 326.192C219.145 326.672 219.801 326.912 220.569 326.912C221.199 326.912 221.721 326.768 222.137 326.48C222.564 326.181 222.863 325.787 223.033 325.296H224.601C224.367 326.139 223.897 326.827 223.193 327.36C222.489 327.883 221.615 328.144 220.569 328.144C219.737 328.144 218.991 327.957 218.329 327.584C217.679 327.211 217.167 326.683 216.793 326C216.42 325.307 216.233 324.507 216.233 323.6C216.233 322.693 216.415 321.899 216.777 321.216C217.14 320.533 217.647 320.011 218.297 319.648C218.959 319.275 219.716 319.088 220.569 319.088C221.401 319.088 222.137 319.269 222.777 319.632C223.417 319.995 223.908 320.496 224.249 321.136C224.601 321.765 224.777 322.48 224.777 323.28ZM223.273 322.976C223.273 322.421 223.151 321.947 222.905 321.552C222.66 321.147 222.324 320.843 221.897 320.64C221.481 320.427 221.017 320.32 220.505 320.32C219.769 320.32 219.14 320.555 218.617 321.024C218.105 321.493 217.812 322.144 217.737 322.976H223.273ZM226.155 323.6C226.155 322.693 226.337 321.904 226.699 321.232C227.062 320.549 227.563 320.021 228.203 319.648C228.854 319.275 229.595 319.088 230.427 319.088C231.505 319.088 232.39 319.349 233.083 319.872C233.787 320.395 234.251 321.12 234.475 322.048H232.907C232.758 321.515 232.465 321.093 232.027 320.784C231.601 320.475 231.067 320.32 230.427 320.32C229.595 320.32 228.923 320.608 228.411 321.184C227.899 321.749 227.643 322.555 227.643 323.6C227.643 324.656 227.899 325.472 228.411 326.048C228.923 326.624 229.595 326.912 230.427 326.912C231.067 326.912 231.601 326.763 232.027 326.464C232.454 326.165 232.747 325.739 232.907 325.184H234.475C234.241 326.08 233.771 326.8 233.067 327.344C232.363 327.877 231.483 328.144 230.427 328.144C229.595 328.144 228.854 327.957 228.203 327.584C227.563 327.211 227.062 326.683 226.699 326C226.337 325.317 226.155 324.517 226.155 323.6ZM237.17 317.808C236.893 317.808 236.658 317.712 236.466 317.52C236.274 317.328 236.178 317.093 236.178 316.816C236.178 316.539 236.274 316.304 236.466 316.112C236.658 315.92 236.893 315.824 237.17 315.824C237.437 315.824 237.661 315.92 237.842 316.112C238.034 316.304 238.13 316.539 238.13 316.816C238.13 317.093 238.034 317.328 237.842 317.52C237.661 317.712 237.437 317.808 237.17 317.808ZM237.874 319.232V328H236.418V319.232H237.874ZM241.811 320.848C242.099 320.347 242.526 319.931 243.091 319.6C243.667 319.259 244.334 319.088 245.091 319.088C245.87 319.088 246.574 319.275 247.203 319.648C247.843 320.021 248.345 320.549 248.707 321.232C249.07 321.904 249.251 322.688 249.251 323.584C249.251 324.469 249.07 325.259 248.707 325.952C248.345 326.645 247.843 327.184 247.203 327.568C246.574 327.952 245.87 328.144 245.091 328.144C244.345 328.144 243.683 327.979 243.107 327.648C242.542 327.307 242.11 326.885 241.811 326.384V332.16H240.355V319.232H241.811V320.848ZM247.763 323.584C247.763 322.923 247.63 322.347 247.363 321.856C247.097 321.365 246.734 320.992 246.275 320.736C245.827 320.48 245.331 320.352 244.787 320.352C244.254 320.352 243.758 320.485 243.299 320.752C242.851 321.008 242.489 321.387 242.211 321.888C241.945 322.379 241.811 322.949 241.811 323.6C241.811 324.261 241.945 324.843 242.211 325.344C242.489 325.835 242.851 326.213 243.299 326.48C243.758 326.736 244.254 326.864 244.787 326.864C245.331 326.864 245.827 326.736 246.275 326.48C246.734 326.213 247.097 325.835 247.363 325.344C247.63 324.843 247.763 324.256 247.763 323.584ZM259.168 323.28C259.168 323.557 259.152 323.851 259.12 324.16H252.112C252.165 325.024 252.459 325.701 252.992 326.192C253.536 326.672 254.192 326.912 254.96 326.912C255.589 326.912 256.112 326.768 256.528 326.48C256.955 326.181 257.253 325.787 257.424 325.296H258.992C258.757 326.139 258.288 326.827 257.584 327.36C256.88 327.883 256.005 328.144 254.96 328.144C254.128 328.144 253.381 327.957 252.72 327.584C252.069 327.211 251.557 326.683 251.184 326C250.811 325.307 250.624 324.507 250.624 323.6C250.624 322.693 250.805 321.899 251.168 321.216C251.531 320.533 252.037 320.011 252.688 319.648C253.349 319.275 254.107 319.088 254.96 319.088C255.792 319.088 256.528 319.269 257.168 319.632C257.808 319.995 258.299 320.496 258.64 321.136C258.992 321.765 259.168 322.48 259.168 323.28ZM257.664 322.976C257.664 322.421 257.541 321.947 257.296 321.552C257.051 321.147 256.715 320.843 256.288 320.64C255.872 320.427 255.408 320.32 254.896 320.32C254.16 320.32 253.531 320.555 253.008 321.024C252.496 321.493 252.203 322.144 252.128 322.976H257.664Z" fill="#513131"/>
<path d="M62 292.5H126.5V351.5H62C53.9919 351.5 47.5 345.008 47.5 337V307C47.5 298.992 53.9919 292.5 62 292.5Z" fill="url(#paint2_linear_1_3562)" stroke="#F6F8ED"/>
<g filter="url(#filter16_d_1_3562)">
<rect x="49.4832" y="376.5" width="232.017" height="59" rx="14.5" fill="#E6F8DB" stroke="#F6F8ED"/>
</g>
<path d="M183.96 391.232V400H182.504V398.704C182.226 399.152 181.837 399.504 181.336 399.76C180.845 400.005 180.301 400.128 179.704 400.128C179.021 400.128 178.408 399.989 177.864 399.712C177.32 399.424 176.888 398.997 176.568 398.432C176.258 397.867 176.104 397.179 176.104 396.368V391.232H177.544V396.176C177.544 397.04 177.762 397.707 178.2 398.176C178.637 398.635 179.234 398.864 179.992 398.864C180.77 398.864 181.384 398.624 181.832 398.144C182.28 397.664 182.504 396.965 182.504 396.048V391.232H183.96ZM187.874 392.848C188.162 392.347 188.589 391.931 189.154 391.6C189.73 391.259 190.397 391.088 191.154 391.088C191.933 391.088 192.637 391.275 193.266 391.648C193.906 392.021 194.407 392.549 194.77 393.232C195.133 393.904 195.314 394.688 195.314 395.584C195.314 396.469 195.133 397.259 194.77 397.952C194.407 398.645 193.906 399.184 193.266 399.568C192.637 399.952 191.933 400.144 191.154 400.144C190.407 400.144 189.746 399.979 189.17 399.648C188.605 399.307 188.173 398.885 187.874 398.384V404.16H186.418V391.232H187.874V392.848ZM193.826 395.584C193.826 394.923 193.693 394.347 193.426 393.856C193.159 393.365 192.797 392.992 192.338 392.736C191.89 392.48 191.394 392.352 190.85 392.352C190.317 392.352 189.821 392.485 189.362 392.752C188.914 393.008 188.551 393.387 188.274 393.888C188.007 394.379 187.874 394.949 187.874 395.6C187.874 396.261 188.007 396.843 188.274 397.344C188.551 397.835 188.914 398.213 189.362 398.48C189.821 398.736 190.317 398.864 190.85 398.864C191.394 398.864 191.89 398.736 192.338 398.48C192.797 398.213 193.159 397.835 193.426 397.344C193.693 396.843 193.826 396.256 193.826 395.584ZM196.686 395.584C196.686 394.688 196.868 393.904 197.23 393.232C197.593 392.549 198.089 392.021 198.718 391.648C199.358 391.275 200.073 391.088 200.862 391.088C201.545 391.088 202.18 391.248 202.766 391.568C203.353 391.877 203.801 392.288 204.11 392.8V388.16H205.582V400H204.11V398.352C203.822 398.875 203.396 399.307 202.83 399.648C202.265 399.979 201.604 400.144 200.846 400.144C200.068 400.144 199.358 399.952 198.718 399.568C198.089 399.184 197.593 398.645 197.23 397.952C196.868 397.259 196.686 396.469 196.686 395.584ZM204.11 395.6C204.11 394.939 203.977 394.363 203.71 393.872C203.444 393.381 203.081 393.008 202.622 392.752C202.174 392.485 201.678 392.352 201.134 392.352C200.59 392.352 200.094 392.48 199.646 392.736C199.198 392.992 198.841 393.365 198.574 393.856C198.308 394.347 198.174 394.923 198.174 395.584C198.174 396.256 198.308 396.843 198.574 397.344C198.841 397.835 199.198 398.213 199.646 398.48C200.094 398.736 200.59 398.864 201.134 398.864C201.678 398.864 202.174 398.736 202.622 398.48C203.081 398.213 203.444 397.835 203.71 397.344C203.977 396.843 204.11 396.261 204.11 395.6ZM207.499 395.584C207.499 394.688 207.68 393.904 208.043 393.232C208.406 392.549 208.902 392.021 209.531 391.648C210.171 391.275 210.88 391.088 211.659 391.088C212.427 391.088 213.094 391.253 213.659 391.584C214.224 391.915 214.646 392.331 214.923 392.832V391.232H216.395V400H214.923V398.368C214.635 398.88 214.203 399.307 213.627 399.648C213.062 399.979 212.4 400.144 211.643 400.144C210.864 400.144 210.16 399.952 209.531 399.568C208.902 399.184 208.406 398.645 208.043 397.952C207.68 397.259 207.499 396.469 207.499 395.584ZM214.923 395.6C214.923 394.939 214.79 394.363 214.523 393.872C214.256 393.381 213.894 393.008 213.435 392.752C212.987 392.485 212.491 392.352 211.947 392.352C211.403 392.352 210.907 392.48 210.459 392.736C210.011 392.992 209.654 393.365 209.387 393.856C209.12 394.347 208.987 394.923 208.987 395.584C208.987 396.256 209.12 396.843 209.387 397.344C209.654 397.835 210.011 398.213 210.459 398.48C210.907 398.736 211.403 398.864 211.947 398.864C212.491 398.864 212.987 398.736 213.435 398.48C213.894 398.213 214.256 397.835 214.523 397.344C214.79 396.843 214.923 396.261 214.923 395.6ZM220.631 392.432V397.6C220.631 398.027 220.722 398.331 220.903 398.512C221.085 398.683 221.399 398.768 221.847 398.768H222.919V400H221.607C220.797 400 220.189 399.813 219.783 399.44C219.378 399.067 219.175 398.453 219.175 397.6V392.432H218.039V391.232H219.175V389.024H220.631V391.232H222.919V392.432H220.631ZM232.684 395.28C232.684 395.557 232.668 395.851 232.636 396.16H225.628C225.681 397.024 225.974 397.701 226.508 398.192C227.052 398.672 227.708 398.912 228.476 398.912C229.105 398.912 229.628 398.768 230.044 398.48C230.47 398.181 230.769 397.787 230.94 397.296H232.508C232.273 398.139 231.804 398.827 231.1 399.36C230.396 399.883 229.521 400.144 228.476 400.144C227.644 400.144 226.897 399.957 226.236 399.584C225.585 399.211 225.073 398.683 224.7 398C224.326 397.307 224.14 396.507 224.14 395.6C224.14 394.693 224.321 393.899 224.684 393.216C225.046 392.533 225.553 392.011 226.204 391.648C226.865 391.275 227.622 391.088 228.476 391.088C229.308 391.088 230.044 391.269 230.684 391.632C231.324 391.995 231.814 392.496 232.156 393.136C232.508 393.765 232.684 394.48 232.684 395.28ZM231.18 394.976C231.18 394.421 231.057 393.947 230.812 393.552C230.566 393.147 230.23 392.843 229.804 392.64C229.388 392.427 228.924 392.32 228.412 392.32C227.676 392.32 227.046 392.555 226.524 393.024C226.012 393.493 225.718 394.144 225.644 394.976H231.18ZM158.843 416.848C159.131 416.347 159.557 415.931 160.123 415.6C160.699 415.259 161.365 415.088 162.123 415.088C162.901 415.088 163.605 415.275 164.235 415.648C164.875 416.021 165.376 416.549 165.739 417.232C166.101 417.904 166.283 418.688 166.283 419.584C166.283 420.469 166.101 421.259 165.739 421.952C165.376 422.645 164.875 423.184 164.235 423.568C163.605 423.952 162.901 424.144 162.123 424.144C161.376 424.144 160.715 423.979 160.139 423.648C159.573 423.307 159.141 422.885 158.843 422.384V428.16H157.387V415.232H158.843V416.848ZM164.795 419.584C164.795 418.923 164.661 418.347 164.395 417.856C164.128 417.365 163.765 416.992 163.307 416.736C162.859 416.48 162.363 416.352 161.819 416.352C161.285 416.352 160.789 416.485 160.331 416.752C159.883 417.008 159.52 417.387 159.243 417.888C158.976 418.379 158.843 418.949 158.843 419.6C158.843 420.261 158.976 420.843 159.243 421.344C159.52 421.835 159.883 422.213 160.331 422.48C160.789 422.736 161.285 422.864 161.819 422.864C162.363 422.864 162.859 422.736 163.307 422.48C163.765 422.213 164.128 421.835 164.395 421.344C164.661 420.843 164.795 420.256 164.795 419.584ZM169.655 416.656C169.911 416.155 170.274 415.765 170.743 415.488C171.223 415.211 171.805 415.072 172.487 415.072V416.576H172.103C170.471 416.576 169.655 417.461 169.655 419.232V424H168.199V415.232H169.655V416.656ZM182.168 419.28C182.168 419.557 182.152 419.851 182.12 420.16H175.112C175.165 421.024 175.459 421.701 175.992 422.192C176.536 422.672 177.192 422.912 177.96 422.912C178.589 422.912 179.112 422.768 179.528 422.48C179.955 422.181 180.253 421.787 180.424 421.296H181.992C181.757 422.139 181.288 422.827 180.584 423.36C179.88 423.883 179.005 424.144 177.96 424.144C177.128 424.144 176.381 423.957 175.72 423.584C175.069 423.211 174.557 422.683 174.184 422C173.811 421.307 173.624 420.507 173.624 419.6C173.624 418.693 173.805 417.899 174.168 417.216C174.531 416.533 175.037 416.011 175.688 415.648C176.349 415.275 177.107 415.088 177.96 415.088C178.792 415.088 179.528 415.269 180.168 415.632C180.808 415.995 181.299 416.496 181.64 417.136C181.992 417.765 182.168 418.48 182.168 419.28ZM180.664 418.976C180.664 418.421 180.541 417.947 180.296 417.552C180.051 417.147 179.715 416.843 179.288 416.64C178.872 416.427 178.408 416.32 177.896 416.32C177.16 416.32 176.531 416.555 176.008 417.024C175.496 417.493 175.203 418.144 175.128 418.976H180.664ZM187.658 416.432H185.818V424H184.362V416.432H183.226V415.232H184.362V414.608C184.362 413.627 184.612 412.912 185.114 412.464C185.626 412.005 186.442 411.776 187.562 411.776V412.992C186.922 412.992 186.468 413.12 186.202 413.376C185.946 413.621 185.818 414.032 185.818 414.608V415.232H187.658V416.432ZM197.355 419.28C197.355 419.557 197.339 419.851 197.307 420.16H190.299C190.353 421.024 190.646 421.701 191.179 422.192C191.723 422.672 192.379 422.912 193.147 422.912C193.777 422.912 194.299 422.768 194.715 422.48C195.142 422.181 195.441 421.787 195.611 421.296H197.179C196.945 422.139 196.475 422.827 195.771 423.36C195.067 423.883 194.193 424.144 193.147 424.144C192.315 424.144 191.569 423.957 190.907 423.584C190.257 423.211 189.745 422.683 189.371 422C188.998 421.307 188.811 420.507 188.811 419.6C188.811 418.693 188.993 417.899 189.355 417.216C189.718 416.533 190.225 416.011 190.875 415.648C191.537 415.275 192.294 415.088 193.147 415.088C193.979 415.088 194.715 415.269 195.355 415.632C195.995 415.995 196.486 416.496 196.827 417.136C197.179 417.765 197.355 418.48 197.355 419.28ZM195.851 418.976C195.851 418.421 195.729 417.947 195.483 417.552C195.238 417.147 194.902 416.843 194.475 416.64C194.059 416.427 193.595 416.32 193.083 416.32C192.347 416.32 191.718 416.555 191.195 417.024C190.683 417.493 190.39 418.144 190.315 418.976H195.851ZM200.733 416.656C200.989 416.155 201.352 415.765 201.821 415.488C202.301 415.211 202.883 415.072 203.565 415.072V416.576H203.181C201.549 416.576 200.733 417.461 200.733 419.232V424H199.277V415.232H200.733V416.656ZM213.246 419.28C213.246 419.557 213.23 419.851 213.198 420.16H206.19C206.243 421.024 206.537 421.701 207.07 422.192C207.614 422.672 208.27 422.912 209.038 422.912C209.667 422.912 210.19 422.768 210.606 422.48C211.033 422.181 211.331 421.787 211.502 421.296H213.07C212.835 422.139 212.366 422.827 211.662 423.36C210.958 423.883 210.083 424.144 209.038 424.144C208.206 424.144 207.459 423.957 206.798 423.584C206.147 423.211 205.635 422.683 205.262 422C204.889 421.307 204.702 420.507 204.702 419.6C204.702 418.693 204.883 417.899 205.246 417.216C205.609 416.533 206.115 416.011 206.766 415.648C207.427 415.275 208.185 415.088 209.038 415.088C209.87 415.088 210.606 415.269 211.246 415.632C211.886 415.995 212.377 416.496 212.718 417.136C213.07 417.765 213.246 418.48 213.246 419.28ZM211.742 418.976C211.742 418.421 211.619 417.947 211.374 417.552C211.129 417.147 210.793 416.843 210.366 416.64C209.95 416.427 209.486 416.32 208.974 416.32C208.238 416.32 207.609 416.555 207.086 417.024C206.574 417.493 206.281 418.144 206.206 418.976H211.742ZM219.44 415.072C220.507 415.072 221.371 415.397 222.032 416.048C222.693 416.688 223.024 417.616 223.024 418.832V424H221.584V419.04C221.584 418.165 221.365 417.499 220.928 417.04C220.491 416.571 219.893 416.336 219.136 416.336C218.368 416.336 217.755 416.576 217.296 417.056C216.848 417.536 216.624 418.235 216.624 419.152V424H215.168V415.232H216.624V416.48C216.912 416.032 217.301 415.685 217.792 415.44C218.293 415.195 218.843 415.072 219.44 415.072ZM224.858 419.6C224.858 418.693 225.04 417.904 225.402 417.232C225.765 416.549 226.266 416.021 226.906 415.648C227.557 415.275 228.298 415.088 229.13 415.088C230.208 415.088 231.093 415.349 231.786 415.872C232.49 416.395 232.954 417.12 233.178 418.048H231.61C231.461 417.515 231.168 417.093 230.73 416.784C230.304 416.475 229.77 416.32 229.13 416.32C228.298 416.32 227.626 416.608 227.114 417.184C226.602 417.749 226.346 418.555 226.346 419.6C226.346 420.656 226.602 421.472 227.114 422.048C227.626 422.624 228.298 422.912 229.13 422.912C229.77 422.912 230.304 422.763 230.73 422.464C231.157 422.165 231.45 421.739 231.61 421.184H233.178C232.944 422.08 232.474 422.8 231.77 423.344C231.066 423.877 230.186 424.144 229.13 424.144C228.298 424.144 227.557 423.957 226.906 423.584C226.266 423.211 225.765 422.683 225.402 422C225.04 421.317 224.858 420.517 224.858 419.6ZM243.121 419.28C243.121 419.557 243.105 419.851 243.073 420.16H236.065C236.118 421.024 236.412 421.701 236.945 422.192C237.489 422.672 238.145 422.912 238.913 422.912C239.542 422.912 240.065 422.768 240.481 422.48C240.908 422.181 241.206 421.787 241.377 421.296H242.945C242.71 422.139 242.241 422.827 241.537 423.36C240.833 423.883 239.958 424.144 238.913 424.144C238.081 424.144 237.334 423.957 236.673 423.584C236.022 423.211 235.51 422.683 235.137 422C234.764 421.307 234.577 420.507 234.577 419.6C234.577 418.693 234.758 417.899 235.121 417.216C235.484 416.533 235.99 416.011 236.641 415.648C237.302 415.275 238.06 415.088 238.913 415.088C239.745 415.088 240.481 415.269 241.121 415.632C241.761 415.995 242.252 416.496 242.593 417.136C242.945 417.765 243.121 418.48 243.121 419.28ZM241.617 418.976C241.617 418.421 241.494 417.947 241.249 417.552C241.004 417.147 240.668 416.843 240.241 416.64C239.825 416.427 239.361 416.32 238.849 416.32C238.113 416.32 237.484 416.555 236.961 417.024C236.449 417.493 236.156 418.144 236.081 418.976H241.617ZM248.147 424.144C247.475 424.144 246.872 424.032 246.339 423.808C245.806 423.573 245.384 423.253 245.075 422.848C244.766 422.432 244.595 421.957 244.563 421.424H246.067C246.11 421.861 246.312 422.219 246.675 422.496C247.048 422.773 247.534 422.912 248.131 422.912C248.686 422.912 249.123 422.789 249.443 422.544C249.763 422.299 249.923 421.989 249.923 421.616C249.923 421.232 249.752 420.949 249.411 420.768C249.07 420.576 248.542 420.389 247.827 420.208C247.176 420.037 246.643 419.867 246.227 419.696C245.822 419.515 245.47 419.253 245.171 418.912C244.883 418.56 244.739 418.101 244.739 417.536C244.739 417.088 244.872 416.677 245.139 416.304C245.406 415.931 245.784 415.637 246.275 415.424C246.766 415.2 247.326 415.088 247.955 415.088C248.926 415.088 249.71 415.333 250.307 415.824C250.904 416.315 251.224 416.987 251.267 417.84H249.811C249.779 417.381 249.592 417.013 249.251 416.736C248.92 416.459 248.472 416.32 247.907 416.32C247.384 416.32 246.968 416.432 246.659 416.656C246.35 416.88 246.195 417.173 246.195 417.536C246.195 417.824 246.286 418.064 246.467 418.256C246.659 418.437 246.894 418.587 247.171 418.704C247.459 418.811 247.854 418.933 248.355 419.072C248.984 419.243 249.496 419.413 249.891 419.584C250.286 419.744 250.622 419.989 250.899 420.32C251.187 420.651 251.336 421.083 251.347 421.616C251.347 422.096 251.214 422.528 250.947 422.912C250.68 423.296 250.302 423.6 249.811 423.824C249.331 424.037 248.776 424.144 248.147 424.144Z" fill="#513131"/>
<path d="M62 376.5H126.5V435.5H62C53.9919 435.5 47.5 429.008 47.5 421V391C47.5 382.992 53.9919 376.5 62 376.5Z" fill="url(#paint3_linear_1_3562)" stroke="#F6F8ED"/>
<path d="M95.9521 397.016C95.2811 396.366 94.371 396 93.4221 396C92.4732 396 91.5631 396.366 90.8921 397.016L78.9403 408.607C78.5341 409.001 78.2485 409.496 78.1153 410.038L77.0204 414.501C76.9907 414.622 76.9935 414.748 77.0284 414.867C77.0634 414.987 77.1293 415.096 77.22 415.184C77.3106 415.271 77.4229 415.335 77.5463 415.369C77.6696 415.403 77.7997 415.405 77.9243 415.376L82.5253 414.314C83.0845 414.185 83.5957 413.908 84.0023 413.514L85.1532 412.397C85.0086 411.763 84.9658 411.11 85.0262 410.463L82.9413 412.486C82.7313 412.689 82.4673 412.833 82.1783 412.9L78.7623 413.689L79.5753 410.376C79.6443 410.095 79.7923 409.839 80.0023 409.636L90.0002 399.937L92.9401 402.788L90.9141 404.753C91.5814 404.695 92.2538 404.737 92.9081 404.876L95.9521 401.924C96.623 401.273 97 400.391 97 399.471C97 398.55 96.623 397.668 95.9521 397.017V397.016ZM91.9521 398.044C92.1452 397.857 92.3743 397.708 92.6266 397.607C92.8788 397.506 93.1491 397.454 93.4221 397.454C93.6951 397.454 93.9654 397.506 94.2177 397.607C94.4699 397.708 94.699 397.857 94.8921 398.044C95.0851 398.231 95.2383 398.454 95.3427 398.698C95.4472 398.943 95.501 399.205 95.501 399.47C95.501 399.734 95.4472 399.997 95.3427 400.241C95.2383 400.486 95.0851 400.708 94.8921 400.895L94.0001 401.759L91.0601 398.909L91.9521 398.045V398.044ZM88.2772 407.614C88.3518 407.864 88.3735 408.127 88.3409 408.386C88.3084 408.645 88.2222 408.895 88.0877 409.121C87.9532 409.347 87.773 409.544 87.5579 409.701C87.3429 409.858 87.0974 409.971 86.8362 410.034L86.2522 410.175C86.1586 410.755 86.1606 411.347 86.2582 411.927L86.7982 412.053C87.0618 412.115 87.3097 412.228 87.5269 412.385C87.7441 412.542 87.926 412.741 88.0616 412.969C88.1972 413.196 88.2837 413.448 88.3158 413.709C88.3479 413.97 88.3249 414.235 88.2482 414.487L88.0612 415.099C88.5012 415.473 89.0012 415.778 89.5462 415.993L90.0392 415.49C90.226 415.299 90.4508 415.148 90.7 415.044C90.9492 414.94 91.2175 414.887 91.4886 414.887C91.7598 414.887 92.0281 414.94 92.2773 415.044C92.5265 415.148 92.7513 415.299 92.9381 415.49L93.4371 416C93.9782 415.786 94.479 415.487 94.9191 415.115L94.7211 414.449C94.6465 414.199 94.6248 413.936 94.6575 413.677C94.6901 413.418 94.7763 413.168 94.911 412.942C95.0456 412.716 95.2259 412.518 95.441 412.361C95.6562 412.205 95.9018 412.091 96.1631 412.029L96.7461 411.888C96.8397 411.308 96.8376 410.716 96.7401 410.136L96.2001 410.01C95.9366 409.948 95.6888 409.835 95.4717 409.678C95.2546 409.52 95.0728 409.322 94.9373 409.094C94.8018 408.867 94.7154 408.615 94.6834 408.354C94.6514 408.093 94.6744 407.828 94.7511 407.576L94.9371 406.964C94.4971 406.588 93.9956 406.286 93.4531 406.07L92.9601 406.572C92.7733 406.763 92.5484 406.915 92.2991 407.018C92.0498 407.122 91.7814 407.176 91.5101 407.176C91.2389 407.176 90.9704 407.122 90.7212 407.018C90.4719 406.915 90.247 406.763 90.0602 406.572L89.5622 406.063C89.0182 406.276 88.5182 406.577 88.0792 406.948L88.2772 407.614V407.614ZM91.5001 412.486C90.7002 412.486 90.0502 411.835 90.0502 411.031C90.0502 410.228 90.7002 409.576 91.5001 409.576C92.3001 409.576 92.9501 410.228 92.9501 411.031C92.9501 411.835 92.3001 412.486 91.5001 412.486Z" fill="#F6F8ED"/>
<g filter="url(#filter17_d_1_3562)">
<rect x="49.4832" y="124.5" width="232.017" height="59" rx="14.5" fill="#E6F8DB" stroke="#F6F8ED"/>
</g>
<path d="M169.197 152.432H167.357V160H165.901V152.432H164.765V151.232H165.901V150.608C165.901 149.627 166.152 148.912 166.653 148.464C167.165 148.005 167.981 147.776 169.101 147.776V148.992C168.461 148.992 168.008 149.12 167.741 149.376C167.485 149.621 167.357 150.032 167.357 150.608V151.232H169.197V152.432ZM170.351 155.584C170.351 154.688 170.532 153.904 170.895 153.232C171.257 152.549 171.753 152.021 172.383 151.648C173.023 151.275 173.732 151.088 174.511 151.088C175.279 151.088 175.945 151.253 176.511 151.584C177.076 151.915 177.497 152.331 177.775 152.832V151.232H179.247V160H177.775V158.368C177.487 158.88 177.055 159.307 176.479 159.648C175.913 159.979 175.252 160.144 174.495 160.144C173.716 160.144 173.012 159.952 172.383 159.568C171.753 159.184 171.257 158.645 170.895 157.952C170.532 157.259 170.351 156.469 170.351 155.584ZM177.775 155.6C177.775 154.939 177.641 154.363 177.375 153.872C177.108 153.381 176.745 153.008 176.287 152.752C175.839 152.485 175.343 152.352 174.799 152.352C174.255 152.352 173.759 152.48 173.311 152.736C172.863 152.992 172.505 153.365 172.239 153.856C171.972 154.347 171.839 154.923 171.839 155.584C171.839 156.256 171.972 156.843 172.239 157.344C172.505 157.835 172.863 158.213 173.311 158.48C173.759 158.736 174.255 158.864 174.799 158.864C175.343 158.864 175.839 158.736 176.287 158.48C176.745 158.213 177.108 157.835 177.375 157.344C177.641 156.843 177.775 156.261 177.775 155.6ZM184.971 158.656L187.691 151.232H189.243L185.803 160H184.107L180.667 151.232H182.235L184.971 158.656ZM194.5 160.144C193.678 160.144 192.932 159.957 192.26 159.584C191.598 159.211 191.076 158.683 190.692 158C190.318 157.307 190.132 156.507 190.132 155.6C190.132 154.704 190.324 153.915 190.708 153.232C191.102 152.539 191.636 152.011 192.308 151.648C192.98 151.275 193.732 151.088 194.564 151.088C195.396 151.088 196.148 151.275 196.82 151.648C197.492 152.011 198.02 152.533 198.404 153.216C198.798 153.899 198.996 154.693 198.996 155.6C198.996 156.507 198.793 157.307 198.388 158C197.993 158.683 197.454 159.211 196.772 159.584C196.089 159.957 195.332 160.144 194.5 160.144ZM194.5 158.864C195.022 158.864 195.513 158.741 195.972 158.496C196.43 158.251 196.798 157.883 197.076 157.392C197.364 156.901 197.508 156.304 197.508 155.6C197.508 154.896 197.369 154.299 197.092 153.808C196.814 153.317 196.452 152.955 196.004 152.72C195.556 152.475 195.07 152.352 194.548 152.352C194.014 152.352 193.524 152.475 193.076 152.72C192.638 152.955 192.286 153.317 192.02 153.808C191.753 154.299 191.62 154.896 191.62 155.6C191.62 156.315 191.748 156.917 192.004 157.408C192.27 157.899 192.622 158.267 193.06 158.512C193.497 158.747 193.977 158.864 194.5 158.864ZM208.686 151.232V160H207.23V158.704C206.953 159.152 206.563 159.504 206.062 159.76C205.571 160.005 205.027 160.128 204.43 160.128C203.747 160.128 203.134 159.989 202.59 159.712C202.046 159.424 201.614 158.997 201.294 158.432C200.985 157.867 200.83 157.179 200.83 156.368V151.232H202.27V156.176C202.27 157.04 202.489 157.707 202.926 158.176C203.363 158.635 203.961 158.864 204.718 158.864C205.497 158.864 206.11 158.624 206.558 158.144C207.006 157.664 207.23 156.965 207.23 156.048V151.232H208.686ZM212.601 152.656C212.857 152.155 213.219 151.765 213.689 151.488C214.169 151.211 214.75 151.072 215.433 151.072V152.576H215.049C213.417 152.576 212.601 153.461 212.601 155.232V160H211.145V151.232H212.601V152.656ZM217.865 149.808C217.588 149.808 217.353 149.712 217.161 149.52C216.969 149.328 216.873 149.093 216.873 148.816C216.873 148.539 216.969 148.304 217.161 148.112C217.353 147.92 217.588 147.824 217.865 147.824C218.132 147.824 218.356 147.92 218.537 148.112C218.729 148.304 218.825 148.539 218.825 148.816C218.825 149.093 218.729 149.328 218.537 149.52C218.356 149.712 218.132 149.808 217.865 149.808ZM218.569 151.232V160H217.113V151.232H218.569ZM222.827 152.432V157.6C222.827 158.027 222.917 158.331 223.099 158.512C223.28 158.683 223.595 158.768 224.043 158.768H225.115V160H223.803C222.992 160 222.384 159.813 221.979 159.44C221.573 159.067 221.371 158.453 221.371 157.6V152.432H220.235V151.232H221.371V149.024H222.827V151.232H225.115V152.432H222.827ZM234.879 155.28C234.879 155.557 234.863 155.851 234.831 156.16H227.823C227.876 157.024 228.17 157.701 228.703 158.192C229.247 158.672 229.903 158.912 230.671 158.912C231.3 158.912 231.823 158.768 232.239 158.48C232.666 158.181 232.964 157.787 233.135 157.296H234.703C234.468 158.139 233.999 158.827 233.295 159.36C232.591 159.883 231.716 160.144 230.671 160.144C229.839 160.144 229.092 159.957 228.431 159.584C227.78 159.211 227.268 158.683 226.895 158C226.522 157.307 226.335 156.507 226.335 155.6C226.335 154.693 226.516 153.899 226.879 153.216C227.242 152.533 227.748 152.011 228.399 151.648C229.06 151.275 229.818 151.088 230.671 151.088C231.503 151.088 232.239 151.269 232.879 151.632C233.519 151.995 234.01 152.496 234.351 153.136C234.703 153.765 234.879 154.48 234.879 155.28ZM233.375 154.976C233.375 154.421 233.252 153.947 233.007 153.552C232.762 153.147 232.426 152.843 231.999 152.64C231.583 152.427 231.119 152.32 230.607 152.32C229.871 152.32 229.242 152.555 228.719 153.024C228.207 153.493 227.914 154.144 227.839 154.976H233.375ZM239.905 160.144C239.233 160.144 238.63 160.032 238.097 159.808C237.563 159.573 237.142 159.253 236.833 158.848C236.523 158.432 236.353 157.957 236.321 157.424H237.825C237.867 157.861 238.07 158.219 238.433 158.496C238.806 158.773 239.291 158.912 239.889 158.912C240.443 158.912 240.881 158.789 241.201 158.544C241.521 158.299 241.681 157.989 241.681 157.616C241.681 157.232 241.51 156.949 241.169 156.768C240.827 156.576 240.299 156.389 239.585 156.208C238.934 156.037 238.401 155.867 237.985 155.696C237.579 155.515 237.227 155.253 236.929 154.912C236.641 154.56 236.497 154.101 236.497 153.536C236.497 153.088 236.63 152.677 236.897 152.304C237.163 151.931 237.542 151.637 238.033 151.424C238.523 151.2 239.083 151.088 239.713 151.088C240.683 151.088 241.467 151.333 242.065 151.824C242.662 152.315 242.982 152.987 243.025 153.84H241.569C241.537 153.381 241.35 153.013 241.009 152.736C240.678 152.459 240.23 152.32 239.665 152.32C239.142 152.32 238.726 152.432 238.417 152.656C238.107 152.88 237.953 153.173 237.953 153.536C237.953 153.824 238.043 154.064 238.225 154.256C238.417 154.437 238.651 154.587 238.929 154.704C239.217 154.811 239.611 154.933 240.113 155.072C240.742 155.243 241.254 155.413 241.649 155.584C242.043 155.744 242.379 155.989 242.657 156.32C242.945 156.651 243.094 157.083 243.105 157.616C243.105 158.096 242.971 158.528 242.705 158.912C242.438 159.296 242.059 159.6 241.569 159.824C241.089 160.037 240.534 160.144 239.905 160.144Z" fill="#513131"/>
<path d="M62 124.5H126.5V183.5H62C53.9919 183.5 47.5 177.008 47.5 169V139C47.5 130.992 53.9919 124.5 62 124.5Z" fill="url(#paint4_linear_1_3562)" stroke="#F6F8ED"/>
<path d="M92.3833 147.325C90.1833 145.825 87.4667 146.525 86 148.242C84.5333 146.525 81.8167 145.817 79.6167 147.325C78.45 148.125 77.7167 149.475 77.6667 150.9C77.55 154.133 80.4167 156.725 84.7917 160.7L84.875 160.775C85.5083 161.35 86.4833 161.35 87.1167 160.767L87.2083 160.683C91.5833 156.717 94.4417 154.125 94.3333 150.892C94.2833 149.475 93.55 148.125 92.3833 147.325V147.325ZM86.0833 159.458L86 159.542L85.9167 159.458C81.95 155.867 79.3333 153.492 79.3333 151.083C79.3333 149.417 80.5833 148.167 82.25 148.167C83.5333 148.167 84.7833 148.992 85.225 150.133H86.7833C87.2167 148.992 88.4667 148.167 89.75 148.167C91.4167 148.167 92.6667 149.417 92.6667 151.083C92.6667 153.492 90.05 155.867 86.0833 159.458Z" fill="#F6F8ED"/>
<path d="M80.3333 317H78.6667V328.667C78.6667 329.583 79.4167 330.333 80.3333 330.333H92V328.667H80.3333V317ZM93.6667 313.667H83.6667C82.75 313.667 82 314.417 82 315.333V325.333C82 326.25 82.75 327 83.6667 327H93.6667C94.5833 327 95.3333 326.25 95.3333 325.333V315.333C95.3333 314.417 94.5833 313.667 93.6667 313.667ZM93.6667 325.333H83.6667V315.333H93.6667V325.333ZM87.8333 323.667H89.5V321.167H92V319.5H89.5V317H87.8333V319.5H85.3333V321.167H87.8333V323.667Z" fill="#F6F8ED"/>
</g>
<defs>
<filter id="filter0_d_1_3562" x="0" y="0" width="328" height="576" filterUnits="userSpaceOnUse" color-interpolation-filters="sRGB">
<feFlood flood-opacity="0" result="BackgroundImageFix"/>
<feColorMatrix in="SourceAlpha" type="matrix" values="0 0 0 0 0 0 0 0 0 0 0 0 0 0 0 0 0 0 127 0" result="hardAlpha"/>
<feOffset dy="4"/>
<feGaussianBlur stdDeviation="2"/>
<feComposite in2="hardAlpha" operator="out"/>
<feColorMatrix type="matrix" values="0 0 0 0 0 0 0 0 0 0 0 0 0 0 0 0 0 0 0.25 0"/>
<feBlend mode="normal" in2="BackgroundImageFix" result="effect1_dropShadow_1_3562"/>
<feBlend mode="normal" in="SourceGraphic" in2="effect1_dropShadow_1_3562" result="shape"/>
</filter>
<filter id="filter1_d_1_3562" x="54" y="35" width="218" height="68" filterUnits="userSpaceOnUse" color-interpolation-filters="sRGB">
<feFlood flood-opacity="0" result="BackgroundImageFix"/>
<feColorMatrix in="SourceAlpha" type="matrix" values="0 0 0 0 0 0 0 0 0 0 0 0 0 0 0 0 0 0 127 0" result="hardAlpha"/>
<feOffset dy="4"/>
<feGaussianBlur stdDeviation="4"/>
<feComposite in2="hardAlpha" operator="out"/>
<feColorMatrix type="matrix" values="0 0 0 0 0 0 0 0 0 0 0 0 0 0 0 0 0 0 0.25 0"/>
<feBlend mode="normal" in2="BackgroundImageFix" result="effect1_dropShadow_1_3562"/>
<feBlend mode="normal" in="SourceGraphic" in2="effect1_dropShadow_1_3562" result="shape"/>
</filter>
<filter id="filter2_d_1_3562" x="92" y="49" width="28" height="22.4452" filterUnits="userSpaceOnUse" color-interpolation-filters="sRGB">
<feFlood flood-opacity="0" result="BackgroundImageFix"/>
<feColorMatrix in="SourceAlpha" type="matrix" values="0 0 0 0 0 0 0 0 0 0 0 0 0 0 0 0 0 0 127 0" result="hardAlpha"/>
<feOffset dy="4"/>
<feGaussianBlur stdDeviation="2"/>
<feComposite in2="hardAlpha" operator="out"/>
<feColorMatrix type="matrix" values="0 0 0 0 0 0 0 0 0 0 0 0 0 0 0 0 0 0 0.25 0"/>
<feBlend mode="normal" in2="BackgroundImageFix" result="effect1_dropShadow_1_3562"/>
<feBlend mode="normal" in="SourceGraphic" in2="effect1_dropShadow_1_3562" result="shape"/>
</filter>
<filter id="filter3_d_1_3562" x="96.1311" y="65.6667" width="11.0984" height="11.3333" filterUnits="userSpaceOnUse" color-interpolation-filters="sRGB">
<feFlood flood-opacity="0" result="BackgroundImageFix"/>
<feColorMatrix in="SourceAlpha" type="matrix" values="0 0 0 0 0 0 0 0 0 0 0 0 0 0 0 0 0 0 127 0" result="hardAlpha"/>
<feOffset dy="4"/>
<feGaussianBlur stdDeviation="2"/>
<feComposite in2="hardAlpha" operator="out"/>
<feColorMatrix type="matrix" values="0 0 0 0 0 0 0 0 0 0 0 0 0 0 0 0 0 0 0.25 0"/>
<feBlend mode="normal" in2="BackgroundImageFix" result="effect1_dropShadow_1_3562"/>
<feBlend mode="normal" in="SourceGraphic" in2="effect1_dropShadow_1_3562" result="shape"/>
</filter>
<filter id="filter4_d_1_3562" x="106.459" y="65.6667" width="11.0984" height="11.3333" filterUnits="userSpaceOnUse" color-interpolation-filters="sRGB">
<feFlood flood-opacity="0" result="BackgroundImageFix"/>
<feColorMatrix in="SourceAlpha" type="matrix" values="0 0 0 0 0 0 0 0 0 0 0 0 0 0 0 0 0 0 127 0" result="hardAlpha"/>
<feOffset dy="4"/>
<feGaussianBlur stdDeviation="2"/>
<feComposite in2="hardAlpha" operator="out"/>
<feColorMatrix type="matrix" values="0 0 0 0 0 0 0 0 0 0 0 0 0 0 0 0 0 0 0.25 0"/>
<feBlend mode="normal" in2="BackgroundImageFix" result="effect1_dropShadow_1_3562"/>
<feBlend mode="normal" in="SourceGraphic" in2="effect1_dropShadow_1_3562" result="shape"/>
</filter>
<filter id="filter5_d_1_3562" x="84.7437" y="73.6" width="41.8856" height="15.49" filterUnits="userSpaceOnUse" color-interpolation-filters="sRGB">
<feFlood flood-opacity="0" result="BackgroundImageFix"/>
<feColorMatrix in="SourceAlpha" type="matrix" values="0 0 0 0 0 0 0 0 0 0 0 0 0 0 0 0 0 0 127 0" result="hardAlpha"/>
<feOffset dy="4"/>
<feGaussianBlur stdDeviation="2"/>
<feComposite in2="hardAlpha" operator="out"/>
<feColorMatrix type="matrix" values="0 0 0 0 0 0 0 0 0 0 0 0 0 0 0 0 0 0 0.25 0"/>
<feBlend mode="normal" in2="BackgroundImageFix" result="effect1_dropShadow_1_3562"/>
<feBlend mode="normal" in="SourceGraphic" in2="effect1_dropShadow_1_3562" result="shape"/>
</filter>
<filter id="filter6_d_1_3562" x="201.499" y="73.16" width="39.3609" height="18.48" filterUnits="userSpaceOnUse" color-interpolation-filters="sRGB">
<feFlood flood-opacity="0" result="BackgroundImageFix"/>
<feColorMatrix in="SourceAlpha" type="matrix" values="0 0 0 0 0 0 0 0 0 0 0 0 0 0 0 0 0 0 127 0" result="hardAlpha"/>
<feOffset dy="4"/>
<feGaussianBlur stdDeviation="2"/>
<feComposite in2="hardAlpha" operator="out"/>
<feColorMatrix type="matrix" values="0 0 0 0 0 0 0 0 0 0 0 0 0 0 0 0 0 0 0.25 0"/>
<feBlend mode="normal" in2="BackgroundImageFix" result="effect1_dropShadow_1_3562"/>
<feBlend mode="normal" in="SourceGraphic" in2="effect1_dropShadow_1_3562" result="shape"/>
</filter>
<filter id="filter7_d_1_3562" x="203" y="45" width="36" height="36" filterUnits="userSpaceOnUse" color-interpolation-filters="sRGB">
<feFlood flood-opacity="0" result="BackgroundImageFix"/>
<feColorMatrix in="SourceAlpha" type="matrix" values="0 0 0 0 0 0 0 0 0 0 0 0 0 0 0 0 0 0 127 0" result="hardAlpha"/>
<feOffset dy="4"/>
<feGaussianBlur stdDeviation="4"/>
<feComposite in2="hardAlpha" operator="out"/>
<feColorMatrix type="matrix" values="0 0 0 0 0 0 0 0 0 0 0 0 0 0 0 0 0 0 0.25 0"/>
<feBlend mode="normal" in2="BackgroundImageFix" result="effect1_dropShadow_1_3562"/>
<feBlend mode="normal" in="SourceGraphic" in2="effect1_dropShadow_1_3562" result="shape"/>
</filter>
<filter id="filter8_d_1_3562" x="142.5" y="48.3746" width="41.1772" height="38.1246" filterUnits="userSpaceOnUse" color-interpolation-filters="sRGB">
<feFlood flood-opacity="0" result="BackgroundImageFix"/>
<feColorMatrix in="SourceAlpha" type="matrix" values="0 0 0 0 0 0 0 0 0 0 0 0 0 0 0 0 0 0 127 0" result="hardAlpha"/>
<feOffset dy="4"/>
<feGaussianBlur stdDeviation="2"/>
<feComposite in2="hardAlpha" operator="out"/>
<feColorMatrix type="matrix" values="0 0 0 0 0 0 0 0 0 0 0 0 0 0 0 0 0 0 0.25 0"/>
<feBlend mode="normal" in2="BackgroundImageFix" result="effect1_dropShadow_1_3562"/>
<feBlend mode="normal" in="SourceGraphic" in2="effect1_dropShadow_1_3562" result="shape"/>
</filter>
<filter id="filter9_d_1_3562" x="52" y="483" width="218" height="68" filterUnits="userSpaceOnUse" color-interpolation-filters="sRGB">
<feFlood flood-opacity="0" result="BackgroundImageFix"/>
<feColorMatrix in="SourceAlpha" type="matrix" values="0 0 0 0 0 0 0 0 0 0 0 0 0 0 0 0 0 0 127 0" result="hardAlpha"/>
<feOffset dy="4"/>
<feGaussianBlur stdDeviation="4"/>
<feComposite in2="hardAlpha" operator="out"/>
<feColorMatrix type="matrix" values="0 0 0 0 0 0 0 0 0 0 0 0 0 0 0 0 0 0 0.25 0"/>
<feBlend mode="normal" in2="BackgroundImageFix" result="effect1_dropShadow_1_3562"/>
<feBlend mode="normal" in="SourceGraphic" in2="effect1_dropShadow_1_3562" result="shape"/>
</filter>
<filter id="filter10_d_1_3562" x="87.8558" y="521.6" width="42.037" height="15.49" filterUnits="userSpaceOnUse" color-interpolation-filters="sRGB">
<feFlood flood-opacity="0" result="BackgroundImageFix"/>
<feColorMatrix in="SourceAlpha" type="matrix" values="0 0 0 0 0 0 0 0 0 0 0 0 0 0 0 0 0 0 127 0" result="hardAlpha"/>
<feOffset dy="4"/>
<feGaussianBlur stdDeviation="2"/>
<feComposite in2="hardAlpha" operator="out"/>
<feColorMatrix type="matrix" values="0 0 0 0 0 0 0 0 0 0 0 0 0 0 0 0 0 0 0.25 0"/>
<feBlend mode="normal" in2="BackgroundImageFix" result="effect1_dropShadow_1_3562"/>
<feBlend mode="normal" in="SourceGraphic" in2="effect1_dropShadow_1_3562" result="shape"/>
</filter>
<filter id="filter11_d_1_3562" x="91.7" y="494.5" width="28.5" height="28.5" filterUnits="userSpaceOnUse" color-interpolation-filters="sRGB">
<feFlood flood-opacity="0" result="BackgroundImageFix"/>
<feColorMatrix in="SourceAlpha" type="matrix" values="0 0 0 0 0 0 0 0 0 0 0 0 0 0 0 0 0 0 127 0" result="hardAlpha"/>
<feOffset dy="4"/>
<feGaussianBlur stdDeviation="2"/>
<feComposite in2="hardAlpha" operator="out"/>
<feColorMatrix type="matrix" values="0 0 0 0 0 0 0 0 0 0 0 0 0 0 0 0 0 0 0.25 0"/>
<feBlend mode="normal" in2="BackgroundImageFix" result="effect1_dropShadow_1_3562"/>
<feBlend mode="normal" in="SourceGraphic" in2="effect1_dropShadow_1_3562" result="shape"/>
</filter>
<filter id="filter12_d_1_3562" x="187.028" y="521.16" width="51.0205" height="15.9299" filterUnits="userSpaceOnUse" color-interpolation-filters="sRGB">
<feFlood flood-opacity="0" result="BackgroundImageFix"/>
<feColorMatrix in="SourceAlpha" type="matrix" values="0 0 0 0 0 0 0 0 0 0 0 0 0 0 0 0 0 0 127 0" result="hardAlpha"/>
<feOffset dy="4"/>
<feGaussianBlur stdDeviation="2"/>
<feComposite in2="hardAlpha" operator="out"/>
<feColorMatrix type="matrix" values="0 0 0 0 0 0 0 0 0 0 0 0 0 0 0 0 0 0 0.25 0"/>
<feBlend mode="normal" in2="BackgroundImageFix" result="effect1_dropShadow_1_3562"/>
<feBlend mode="normal" in="SourceGraphic" in2="effect1_dropShadow_1_3562" result="shape"/>
</filter>
<filter id="filter13_d_1_3562" x="198.75" y="494.75" width="28.5" height="28.5" filterUnits="userSpaceOnUse" color-interpolation-filters="sRGB">
<feFlood flood-opacity="0" result="BackgroundImageFix"/>
<feColorMatrix in="SourceAlpha" type="matrix" values="0 0 0 0 0 0 0 0 0 0 0 0 0 0 0 0 0 0 127 0" result="hardAlpha"/>
<feOffset dy="4"/>
<feGaussianBlur stdDeviation="2"/>
<feComposite in2="hardAlpha" operator="out"/>
<feColorMatrix type="matrix" values="0 0 0 0 0 0 0 0 0 0 0 0 0 0 0 0 0 0 0.25 0"/>
<feBlend mode="normal" in2="BackgroundImageFix" result="effect1_dropShadow_1_3562"/>
<feBlend mode="normal" in="SourceGraphic" in2="effect1_dropShadow_1_3562" result="shape"/>
</filter>
<filter id="filter14_d_1_3562" x="44.9832" y="204" width="241.017" height="68" filterUnits="userSpaceOnUse" color-interpolation-filters="sRGB">
<feFlood flood-opacity="0" result="BackgroundImageFix"/>
<feColorMatrix in="SourceAlpha" type="matrix" values="0 0 0 0 0 0 0 0 0 0 0 0 0 0 0 0 0 0 127 0" result="hardAlpha"/>
<feOffset dy="4"/>
<feGaussianBlur stdDeviation="2"/>
<feComposite in2="hardAlpha" operator="out"/>
<feColorMatrix type="matrix" values="0 0 0 0 0 0 0 0 0 0 0 0 0 0 0 0 0 0 0.25 0"/>
<feBlend mode="normal" in2="BackgroundImageFix" result="effect1_dropShadow_1_3562"/>
<feBlend mode="normal" in="SourceGraphic" in2="effect1_dropShadow_1_3562" result="shape"/>
</filter>
<filter id="filter15_d_1_3562" x="44.9832" y="292" width="241.017" height="68" filterUnits="userSpaceOnUse" color-interpolation-filters="sRGB">
<feFlood flood-opacity="0" result="BackgroundImageFix"/>
<feColorMatrix in="SourceAlpha" type="matrix" values="0 0 0 0 0 0 0 0 0 0 0 0 0 0 0 0 0 0 127 0" result="hardAlpha"/>
<feOffset dy="4"/>
<feGaussianBlur stdDeviation="2"/>
<feComposite in2="hardAlpha" operator="out"/>
<feColorMatrix type="matrix" values="0 0 0 0 0 0 0 0 0 0 0 0 0 0 0 0 0 0 0.25 0"/>
<feBlend mode="normal" in2="BackgroundImageFix" result="effect1_dropShadow_1_3562"/>
<feBlend mode="normal" in="SourceGraphic" in2="effect1_dropShadow_1_3562" result="shape"/>
</filter>
<filter id="filter16_d_1_3562" x="44.9832" y="376" width="241.017" height="68" filterUnits="userSpaceOnUse" color-interpolation-filters="sRGB">
<feFlood flood-opacity="0" result="BackgroundImageFix"/>
<feColorMatrix in="SourceAlpha" type="matrix" values="0 0 0 0 0 0 0 0 0 0 0 0 0 0 0 0 0 0 127 0" result="hardAlpha"/>
<feOffset dy="4"/>
<feGaussianBlur stdDeviation="2"/>
<feComposite in2="hardAlpha" operator="out"/>
<feColorMatrix type="matrix" values="0 0 0 0 0 0 0 0 0 0 0 0 0 0 0 0 0 0 0.25 0"/>
<feBlend mode="normal" in2="BackgroundImageFix" result="effect1_dropShadow_1_3562"/>
<feBlend mode="normal" in="SourceGraphic" in2="effect1_dropShadow_1_3562" result="shape"/>
</filter>
<filter id="filter17_d_1_3562" x="44.9832" y="124" width="241.017" height="68" filterUnits="userSpaceOnUse" color-interpolation-filters="sRGB">
<feFlood flood-opacity="0" result="BackgroundImageFix"/>
<feColorMatrix in="SourceAlpha" type="matrix" values="0 0 0 0 0 0 0 0 0 0 0 0 0 0 0 0 0 0 127 0" result="hardAlpha"/>
<feOffset dy="4"/>
<feGaussianBlur stdDeviation="2"/>
<feComposite in2="hardAlpha" operator="out"/>
<feColorMatrix type="matrix" values="0 0 0 0 0 0 0 0 0 0 0 0 0 0 0 0 0 0 0.25 0"/>
<feBlend mode="normal" in2="BackgroundImageFix" result="effect1_dropShadow_1_3562"/>
<feBlend mode="normal" in="SourceGraphic" in2="effect1_dropShadow_1_3562" result="shape"/>
</filter>
<linearGradient id="paint0_linear_1_3562" x1="320" y1="0" x2="-7.79629e-06" y2="568" gradientUnits="userSpaceOnUse">
<stop stop-color="#98C487"/>
<stop offset="1" stop-color="#6CAB54"/>
</linearGradient>
<linearGradient id="paint1_linear_1_3562" x1="127" y1="204" x2="47" y2="264" gradientUnits="userSpaceOnUse">
<stop stop-color="#FB7E56"/>
<stop offset="1" stop-color="#D9593D"/>
</linearGradient>
<linearGradient id="paint2_linear_1_3562" x1="127" y1="292" x2="47" y2="352" gradientUnits="userSpaceOnUse">
<stop stop-color="#FB7E56"/>
<stop offset="1" stop-color="#D9593D"/>
</linearGradient>
<linearGradient id="paint3_linear_1_3562" x1="127" y1="376" x2="47" y2="436" gradientUnits="userSpaceOnUse">
<stop stop-color="#FB7E56"/>
<stop offset="1" stop-color="#D9593D"/>
</linearGradient>
<linearGradient id="paint4_linear_1_3562" x1="127" y1="124" x2="47" y2="184" gradientUnits="userSpaceOnUse">
<stop stop-color="#FB7E56"/>
<stop offset="1" stop-color="#D9593D"/>
</linearGradient>
</defs>
</svg>
