<svg id="MB-BABE" xmlns="http://www.w3.org/2000/svg" viewBox="0 0 320 168" fill="currentColor"><path class="cls-1" d="M44,82.4V77.6c21.44,0,19-8,19.2-47.2C63,4.8,53.59,0,36,0H0V1.6C5.6,4.8,8.8,15,8.8,32.8V135.2c0,17.76-3.2,28-8.8,31.2V168H36.8c27,0,27-12.8,27.2-38.4C63.84,90.4,64.64,82.4,44,82.4ZM32,20h4c3,0,4,1.6,4,4.8V66.4c0,3.2-1,4.8-4,4.8H32Zm8.8,123.2c0,3.2-1,4.8-4,4.8H32V88.8h4.8c3,0,4,1.6,4,4.8Z"/><path class="cls-1" d="M169.59,82.4V77.6c21.44,0,19-8,19.2-47.2C188.63,4.8,179.2,0,161.59,0h-68C86.4,0,72,4.8,72,30.4V135.2c0,17.76-3.2,28-8.8,31.2V168H90.39c3.2,0,4-1.6,4-5.6V88.8h8v73.6c0,4,.8,5.6,4,5.6h56c27,0,27-12.8,27.2-38.4C189.43,90.4,190.23,82.4,169.59,82.4Zm-67.2-11.2h-8V24.8c0-3.2.8-4.8,4-4.8h4ZM157.59,20h4c3,0,4,1.6,4,4.8V66.4c0,3.2-1,4.8-4,4.8h-4Zm-23.2,140.8c0,4-2.4,4.8-4.8,4.8s-4.8-.8-4.8-4.8V7.2c0-4,2.4-4.8,4.8-4.8s4.8.8,4.8,4.8Zm32-17.6c0,3.2-1,4.8-4,4.8h-4.8V88.8h4.8c3,0,4,1.6,4,4.8Z"/><path class="cls-1" d="M232.79,26.4h1.6V0H188.78V1.6c5.61,3.2,8.81,13.44,8.81,31.2V135.19c0,17.76-3.2,28-8.81,31.2V168h45.61v-26.4h-1.6c-1.79,3.13-5.76,5.51-12,7V88.8h12V71.2h-12V19.4C227,20.9,231,23.28,232.79,26.4Z"/></svg>