<?xml version="1.0" encoding="UTF-8" standalone="no"?><!DOCTYPE svg PUBLIC "-//W3C//DTD SVG 1.1//EN" "http://www.w3.org/Graphics/SVG/1.1/DTD/svg11.dtd"><svg width="100%" height="100%" viewBox="0 0 992 299" version="1.1" xmlns="http://www.w3.org/2000/svg" xmlns:xlink="http://www.w3.org/1999/xlink" xml:space="preserve" xmlns:serif="http://www.serif.com/" style="fill-rule:evenodd;clip-rule:evenodd;stroke-linejoin:round;stroke-miterlimit:2;"><rect id="Artboard1" x="0" y="0" width="991.103" height="298.473" style="fill:none;"/><clipPath id="_clip1"><rect x="0" y="0" width="991.103" height="298.473"/></clipPath><g clip-path="url(#_clip1)"><g><path d="M136.791,285.113c0,7.039 4.22,8.445 8.445,8.445l0,4.227l-38.013,0c-5.632,0 -7.039,-2.82 -7.039,-9.644l0,-148.039l-8.446,0l-11.264,157.683l-8.446,0l-11.265,-157.683l-8.445,0l0,147.824c0,7.039 -1.407,9.859 -7.132,9.859l-44.955,0l0,-2.82c9.853,-5.627 15.485,-23.649 15.485,-54.905l0,-180.206c0,-31.254 -5.632,-49.278 -15.485,-54.91l0,-2.814l52.933,0c7.039,0 13.292,2.747 13.798,15.484l5.066,128.115l8.446,0l5.072,-128.115c0.5,-12.737 6.753,-15.484 13.792,-15.484l45.898,0l0,4.22c-4.225,0 -8.45,1.412 -8.45,8.451l0,270.312l0.005,0Z" style="fill:#ff4b00;fill-rule:nonzero;"/><path d="M194.507,127.425l21.118,0l0,30.974l-21.118,0l0,105.223c10.984,-2.627 17.974,-6.808 21.112,-12.297l2.814,0l0,46.458l-73.21,0l0,-4.225c4.226,0 8.451,-1.407 8.451,-8.445l0,-270.318c0,-7.038 -4.225,-8.445 -8.451,-8.445l0,-4.227l73.21,0l0,46.46l-2.814,0c-3.138,-5.489 -10.128,-9.67 -21.112,-12.292l0,91.134Z" style="fill:#ff4b00;fill-rule:nonzero;"/><path d="M229.7,2.129l47.872,0c28.156,0 47.866,4.226 47.866,49.274c0,73.213 4.221,85.885 -33.788,87.292l0,8.445c38.009,0 35.196,7.039 35.196,77.435l0,15.484c0,31.256 5.632,49.278 15.484,54.91l0,2.814l-45.054,0c-5.626,-2.814 -11.258,-11.264 -11.258,-32.382l0,-28.156l-1.407,-70.394c0,-5.632 -1.412,-8.446 -7.039,-8.446l-7.045,0l0,139.378l-40.827,0l0,-295.654Zm54.911,116.855l0,-73.209c0,-5.632 -1.412,-8.451 -7.039,-8.451l-7.045,0l0,90.105l7.045,0c5.627,0 7.039,-2.813 7.039,-8.445" style="fill:#ff4b00;fill-rule:nonzero;"/><path d="M390.198,299.192l-2.814,0c-29.568,0 -46.465,-11.264 -46.465,-53.499l0,-191.47c0,-42.239 16.897,-53.504 46.465,-53.504l2.814,0c29.568,0 46.46,11.265 46.46,53.504l0,80.248l-40.828,0l0,-91.512c0,-4.787 -2.252,-8.447 -7.039,-8.447c-4.225,0 -7.044,2.815 -7.044,8.447l0,216.813c0,5.632 2.819,8.445 7.044,8.445c4.22,0 7.039,-2.813 7.039,-8.445l0,-108.409l40.828,0l0,94.33c0,42.235 -16.892,53.499 -46.46,53.499" style="fill:#ff4b00;fill-rule:nonzero;"/><path d="M436.654,294.967c9.857,-5.632 15.49,-23.65 15.49,-54.905l0,-180.211c0,-31.256 -5.633,-49.273 -15.49,-54.905l0,-2.819l42.24,0c9.852,0 14.077,8.451 14.077,21.116l0,104.184l14.079,0l0,-104.184c0,-12.665 5.065,-21.116 14.077,-21.116l42.233,0l0,2.819c-9.852,5.632 -15.484,23.649 -15.484,54.905l0,180.211c0,31.255 5.632,49.273 15.484,54.905l0,2.814l-43.64,0c-4.786,0 -12.67,-2.814 -12.67,-15.484l0,-123.895l-14.079,0l0,123.895c0,12.67 -7.039,15.484 -12.671,15.484l-43.646,0l0,-2.814Z" style="fill:#ff4b00;fill-rule:nonzero;"/><path d="M690.065,55.628c-0.28,68.988 3.945,83.067 -33.788,83.067l0,8.445c36.321,0 34.915,14.079 35.195,83.067c-0.28,45.053 -0.28,67.577 -47.867,67.577l-64.763,0l0,-2.813c9.852,-5.633 15.486,-23.656 15.486,-54.912l0,-180.205c0,-31.255 -5.634,-49.279 -15.486,-54.911l0,-2.813l63.356,0c30.97,0 47.587,8.445 47.867,53.498m-47.867,71.803c5.347,0 7.04,-2.815 7.04,-8.447l0,-73.208c0,-5.633 -1.693,-8.452 -7.04,-8.452l-7.044,0l0,90.107l7.044,0Zm1.407,135.157c5.352,0 7.04,-2.818 7.04,-8.45l0,-87.287c0,-5.632 -1.688,-8.445 -7.04,-8.445l-8.451,0l0,104.182l8.451,0Z" style="fill:#ff4b00;fill-rule:nonzero;"/><path d="M806.914,6.353c-4.225,0 -8.445,1.406 -8.445,8.445l0,270.317c0,7.039 4.22,8.446 8.445,8.446l0,4.225l-40.827,0c-5.633,0 -7.04,-2.819 -7.04,-9.857l0,-129.527l-14.082,0l0,129.527c0,7.038 -1.407,9.857 -7.04,9.857l-47.866,0l0,-2.819c9.858,-5.632 15.484,-23.649 15.484,-54.905l0,-184.436c0,-45.048 25.343,-53.499 38.015,-53.499l63.356,0l0,4.226Zm-47.867,121.074l0,-90.1l-7.044,0c-5.626,0 -7.038,2.814 -7.038,8.446l0,81.654l14.082,0Z" style="fill:#ff4b00;fill-rule:nonzero;"/><path d="M911.093,55.628c-0.28,68.988 3.946,83.067 -33.788,83.067l0,8.445c36.322,0 34.915,14.079 35.195,83.067c-0.28,45.053 -0.28,67.577 -47.867,67.577l-57.724,0l0,-4.225c4.226,0 8.446,-1.408 8.446,-8.447l0,-270.312c0,-7.038 -4.22,-8.445 -8.446,-8.445l0,-4.225l56.318,0c30.969,0 47.586,8.445 47.866,53.498m-47.866,71.803c5.346,0 7.04,-2.815 7.04,-8.447l0,-73.208c0,-5.633 -1.694,-8.452 -7.04,-8.452l-7.039,0l0,90.107l7.039,0Zm1.406,135.157c5.352,0 7.04,-2.818 7.04,-8.45l0,-87.287c0,-5.632 -1.688,-8.445 -7.04,-8.445l-8.445,0l0,104.182l8.445,0Z" style="fill:#ff4b00;fill-rule:nonzero;"/><path d="M967.403,127.425l21.117,0l0,30.974l-21.117,0l0,105.223c10.984,-2.627 17.973,-6.808 21.112,-12.297l2.819,0l0,46.458l-80.254,0l0,-2.818c9.858,-5.632 15.49,-23.651 15.49,-54.906l0,-180.21c0,-31.256 -5.632,-49.274 -15.49,-54.906l0,-2.82l80.254,0l0,46.46l-2.819,0c-3.139,-5.489 -10.128,-9.67 -21.112,-12.292l0,91.134Z" style="fill:#ff4b00;fill-rule:nonzero;"/></g></g></svg>