<svg xmlns="http://www.w3.org/2000/svg" viewBox="0 0 320 169.6" fill="currentColor"><g id="MB-MERCH"><path class="cls-1" d="M82.39.8H56.32c-4,0-7.56,1.56-7.84,8.8L45.6,82.4H40.8L37.92,9.6C37.63,2.36,34.08.8,30.08.8H0V2.4C5.6,5.6,8.8,15.84,8.8,33.6V136c0,17.76-3.2,28-8.8,31.2v1.6H25.55c3.25,0,4.05-1.6,4.05-5.6v-84h4.8l6.4,89.6h4.8L52,79.2h4.8v84.12c0,3.88.8,5.48,4,5.48H124v-26.4h-1.6c-1.79,3.13-5.76,5.51-12,7V89.6h12V72h-12V20.2c6.25,1.5,10.22,3.88,12,7H124V.8H82.39ZM87.19,8V161.59c0,4-2.4,4.8-4.8,4.8h0c-2.4,0-4.79-.81-4.79-4.8V8c0-4,2.4-4.8,4.8-4.8S87.19,4,87.19,8Z"/><path class="cls-1" d="M185.6,136v-8.8c0-40,1.6-44-20-44V78.4c21.6-.8,19.2-8,19.2-49.6,0-25.6-11.2-28-27.2-28H130.4v168h23.2V89.6h4c3.2,0,4,1.6,4,4.8l.8,40v16c0,12,3.2,16.8,6.4,18.4h25.6v-1.6C188.8,164,185.6,153.76,185.6,136Zm-28-64h-4V20.8h4c3.2,0,4,1.6,4,4.8V67.2h0C161.6,70.4,160.8,72,157.6,72Z"/><path class="cls-1" d="M248,85.6H224.8v61.6c0,3.2-1.6,4.8-4,4.8s-4-1.6-4-4.8V24c0-3.2,1.6-4.8,4-4.8,2.72,0,4,2.08,4,4.8V76H248V30.4C248,6.4,238.4,0,221.6,0H220c-16.8,0-26.4,6.4-26.4,30.4V139.2c0,24,9.6,30.4,26.4,30.4h1.6c16.8,0,26.4-6.4,26.4-30.4Z"/><path class="cls-1" d="M320,2.4V.8H296c-5.12,0-8,4.8-8,12V72h-8V12.8c0-7.2-2.4-12-8-12H248V2.4c5.6,3.2,8.79,13.44,8.79,31.2V136c0,17.76-3.19,28-8.79,31.2v1.6h24.8c3.2,0,7.2-1.6,7.2-8.8V89.6h8V160c0,7.2,4.48,8.8,7.2,8.8H320v-1.6c-5.6-3.2-8.8-13.44-8.8-31.2V33.6C311.2,15.84,314.4,5.6,320,2.4Z"/></g></svg>