<svg width="18" height="14" viewBox="0 0 18 14" fill="none" xmlns="http://www.w3.org/2000/svg">
<path d="M5.87344 1.0188L1.17188 5.94067C0.890625 6.21255 0.75 6.58286 0.75 6.99067C0.75 7.39849 0.890625 7.76411 1.17188 8.04067L5.87344 12.9813C6.43125 13.5672 7.34063 13.5672 7.89844 12.9813C8.45625 12.3954 8.45625 11.4485 7.89844 10.8625L5.64375 8.50005H15.8156C16.6078 8.50005 17.25 7.82974 17.25 7.00005C17.25 6.17036 16.6078 5.50005 15.8156 5.50005H5.64375L7.90313 3.13755C8.46094 2.55161 8.46094 1.60474 7.90313 1.0188C7.34063 0.432861 6.43594 0.432861 5.87344 1.0188Z" fill="currentColor"/>
</svg>
