<svg width="18" height="14" viewBox="0 0 18 14" fill="none" xmlns="http://www.w3.org/2000/svg">
<path d="M12.1266 12.9812L16.8281 8.05933C17.1094 7.78745 17.25 7.41714 17.25 7.00933C17.25 6.60151 17.1094 6.23589 16.8281 5.95933L12.1266 1.0187C11.5688 0.432763 10.6594 0.432763 10.1016 1.0187C9.54375 1.60464 9.54375 2.55151 10.1016 3.13745L12.3563 5.49995L2.18438 5.49995C1.39219 5.49995 0.750001 6.17026 0.750001 6.99995C0.75 7.82964 1.39219 8.49995 2.18438 8.49995L12.3563 8.49995L10.0969 10.8624C9.53906 11.4484 9.53906 12.3953 10.0969 12.9812C10.6594 13.5671 11.5641 13.5671 12.1266 12.9812Z" fill="currentColor"/>
</svg>
