<?xml version="1.0" standalone="no"?>
<!DOCTYPE svg PUBLIC "-//W3C//DTD SVG 20010904//EN"
 "http://www.w3.org/TR/2001/REC-SVG-20010904/DTD/svg10.dtd">
<svg version="1.0" xmlns="http://www.w3.org/2000/svg"
 width="260.000000pt" height="260.000000pt" viewBox="0 0 260.000000 260.000000"
 preserveAspectRatio="xMidYMid meet">
<metadata>
Created by potrace 1.14, written by Peter Selinger 2001-2017
</metadata>
<g transform="translate(0.000000,260.000000) scale(0.100000,-0.100000)"
fill="#000000" stroke="none">
<path d="M1179 2099 c-20 -4 -48 -10 -64 -13 -15 -3 -70 -26 -123 -52 -170
-82 -298 -236 -358 -429 -16 -52 -19 -95 -19 -325 0 -238 2 -269 18 -302 32
-63 82 -106 169 -147 l83 -38 13 -69 c8 -38 16 -80 18 -94 14 -76 53 -110 126
-110 31 0 48 -6 61 -20 24 -28 77 -24 77 6 0 22 62 18 83 -6 9 -11 26 -20 37
-20 11 0 28 9 37 20 10 11 29 20 43 20 14 0 33 -9 43 -20 21 -25 47 -25 75 0
14 13 35 20 63 20 50 0 95 25 108 59 6 14 18 65 27 113 9 49 22 94 28 101 6 7
40 26 76 40 78 33 129 76 161 137 23 43 24 54 26 285 3 299 -11 372 -99 519
-82 138 -225 251 -383 303 -86 28 -254 39 -326 22z"/>
</g>
</svg>
