<svg width="978" height="498" viewBox="0 0 978 498" fill="none" xmlns="http://www.w3.org/2000/svg">
<g filter="url(#filter0_d_7_14)">
<path d="M531.543 152.824C482.132 128.728 424.189 142.979 390.717 183.576L442.472 235.33C448.379 241.237 448.379 250.706 442.472 256.519C439.566 259.425 435.721 260.926 431.877 260.926C428.033 260.926 424.189 259.425 421.283 256.519L374.215 209.453L254.11 455.753C251.391 461.378 251.204 468.222 254.11 474.223C259.173 484.63 271.831 488.943 282.238 483.88L407.5 422.75L361.371 376.622C355.464 370.809 355.464 361.246 361.371 355.433C367.277 349.62 376.747 349.62 382.56 355.433L436.003 408.874L531.637 362.183C554.139 351.214 573.36 332.837 585.173 308.648C613.395 250.8 589.393 181.044 531.543 152.824ZM617.895 120.102C636.178 81.9432 626.709 36.8461 589.486 6C542.325 45.0967 540.263 106.789 582.079 148.417L589.58 155.918C631.209 197.733 692.996 195.671 732 148.511C701.153 111.289 656.055 101.82 617.895 120.102Z" fill="#FB7E56"/>
<path d="M531.543 152.824C482.132 128.728 424.189 142.979 390.717 183.576L442.472 235.33C448.379 241.237 448.379 250.706 442.472 256.519C439.566 259.425 435.721 260.926 431.877 260.926C428.033 260.926 424.189 259.425 421.283 256.519L374.215 209.453L254.11 455.753C251.391 461.378 251.204 468.222 254.11 474.223C259.173 484.63 271.831 488.943 282.238 483.88L407.5 422.75L361.371 376.622C355.464 370.809 355.464 361.246 361.371 355.433C367.277 349.62 376.747 349.62 382.56 355.433L436.003 408.874L531.637 362.183C554.139 351.214 573.36 332.837 585.173 308.648C613.395 250.8 589.393 181.044 531.543 152.824ZM617.895 120.102C636.178 81.9432 626.709 36.8461 589.486 6C542.325 45.0967 540.263 106.789 582.079 148.417L589.58 155.918C631.209 197.733 692.996 195.671 732 148.511C701.153 111.289 656.055 101.82 617.895 120.102Z" stroke="#F6F8ED" stroke-width="8"/>
</g>
<g filter="url(#filter1_d_7_14)">
<path d="M168.855 211.08C172.535 204.68 177.735 199.72 184.455 196.2C191.175 192.52 199.095 190.68 208.215 190.68C218.935 190.68 228.615 193.48 237.255 199.08C246.055 204.68 252.935 212.68 257.895 223.08C263.015 233.48 265.575 245.64 265.575 259.56C265.575 273.48 263.015 285.72 257.895 296.28C252.935 306.68 246.055 314.68 237.255 320.28C228.615 325.88 218.935 328.68 208.215 328.68C199.095 328.68 191.175 326.92 184.455 323.4C177.735 319.72 172.535 314.68 168.855 308.28V327H121.815V149.4H168.855V211.08ZM217.815 259.56C217.815 250.76 215.415 243.96 210.615 239.16C205.975 234.2 200.215 231.72 193.335 231.72C186.455 231.72 180.615 234.2 175.815 239.16C171.175 244.12 168.855 250.92 168.855 259.56C168.855 268.36 171.175 275.24 175.815 280.2C180.615 285.16 186.455 287.64 193.335 287.64C200.215 287.64 205.975 285.16 210.615 280.2C215.415 275.08 217.815 268.2 217.815 259.56ZM331.98 216.12C337.26 208.44 343.66 202.36 351.18 197.88C358.7 193.4 366.78 191.16 375.42 191.16V241.32H362.22C351.98 241.32 344.38 243.32 339.42 247.32C334.46 251.32 331.98 258.28 331.98 268.2V327H284.94V192.36H331.98V216.12ZM384.604 259.56C384.604 245.64 387.084 233.48 392.044 223.08C397.164 212.68 404.044 204.68 412.684 199.08C421.484 193.48 431.244 190.68 441.964 190.68C451.244 190.68 459.244 192.52 465.964 196.2C472.684 199.88 477.884 204.84 481.564 211.08V192.36H528.604V327H481.564V308.28C477.884 314.52 472.604 319.48 465.724 323.16C459.004 326.84 451.084 328.68 441.964 328.68C431.244 328.68 421.484 325.88 412.684 320.28C404.044 314.68 397.164 306.68 392.044 296.28C387.084 285.72 384.604 273.48 384.604 259.56ZM481.564 259.56C481.564 250.92 479.164 244.12 474.364 239.16C469.724 234.2 463.964 231.72 457.084 231.72C450.044 231.72 444.204 234.2 439.564 239.16C434.924 243.96 432.604 250.76 432.604 259.56C432.604 268.2 434.924 275.08 439.564 280.2C444.204 285.16 450.044 287.64 457.084 287.64C463.964 287.64 469.724 285.16 474.364 280.2C479.164 275.24 481.564 268.36 481.564 259.56ZM643.489 191.16C659.009 191.16 671.329 196.36 680.449 206.76C689.569 217 694.129 230.92 694.129 248.52V327H647.089V254.76C647.089 247.08 645.089 241.08 641.089 236.76C637.089 232.28 631.729 230.04 625.009 230.04C617.969 230.04 612.449 232.28 608.449 236.76C604.449 241.08 602.449 247.08 602.449 254.76V327H555.409V192.36H602.449V211.56C606.609 205.48 612.209 200.6 619.249 196.92C626.289 193.08 634.369 191.16 643.489 191.16ZM712.26 259.56C712.26 245.64 714.74 233.48 719.7 223.08C724.82 212.68 731.78 204.68 740.58 199.08C749.38 193.48 759.14 190.68 769.86 190.68C778.5 190.68 786.18 192.52 792.9 196.2C799.78 199.72 805.14 204.6 808.98 210.84V149.4H856.26V327H808.98V308.28C805.3 314.52 800.1 319.48 793.38 323.16C786.66 326.84 778.74 328.68 769.62 328.68C758.9 328.68 749.14 325.88 740.34 320.28C731.7 314.68 724.82 306.68 719.7 296.28C714.74 285.72 712.26 273.48 712.26 259.56ZM809.22 259.56C809.22 250.92 806.82 244.12 802.02 239.16C797.38 234.2 791.62 231.72 784.74 231.72C777.7 231.72 771.86 234.2 767.22 239.16C762.58 243.96 760.26 250.76 760.26 259.56C760.26 268.2 762.58 275.08 767.22 280.2C771.86 285.16 777.7 287.64 784.74 287.64C791.62 287.64 797.38 285.16 802.02 280.2C806.82 275.24 809.22 268.36 809.22 259.56Z" fill="#F6F8ED"/>
</g>
<defs>
<filter id="filter0_d_7_14" x="244" y="0.804688" width="497.193" height="497.196" filterUnits="userSpaceOnUse" color-interpolation-filters="sRGB">
<feFlood flood-opacity="0" result="BackgroundImageFix"/>
<feColorMatrix in="SourceAlpha" type="matrix" values="0 0 0 0 0 0 0 0 0 0 0 0 0 0 0 0 0 0 127 0" result="hardAlpha"/>
<feOffset dy="4"/>
<feGaussianBlur stdDeviation="2"/>
<feComposite in2="hardAlpha" operator="out"/>
<feColorMatrix type="matrix" values="0 0 0 0 0 0 0 0 0 0 0 0 0 0 0 0 0 0 0.25 0"/>
<feBlend mode="normal" in2="BackgroundImageFix" result="effect1_dropShadow_7_14"/>
<feBlend mode="normal" in="SourceGraphic" in2="effect1_dropShadow_7_14" result="shape"/>
</filter>
<filter id="filter1_d_7_14" x="117.815" y="149.4" width="742.445" height="187.28" filterUnits="userSpaceOnUse" color-interpolation-filters="sRGB">
<feFlood flood-opacity="0" result="BackgroundImageFix"/>
<feColorMatrix in="SourceAlpha" type="matrix" values="0 0 0 0 0 0 0 0 0 0 0 0 0 0 0 0 0 0 127 0" result="hardAlpha"/>
<feOffset dy="4"/>
<feGaussianBlur stdDeviation="2"/>
<feComposite in2="hardAlpha" operator="out"/>
<feColorMatrix type="matrix" values="0 0 0 0 0 0 0 0 0 0 0 0 0 0 0 0 0 0 0.25 0"/>
<feBlend mode="normal" in2="BackgroundImageFix" result="effect1_dropShadow_7_14"/>
<feBlend mode="normal" in="SourceGraphic" in2="effect1_dropShadow_7_14" result="shape"/>
</filter>
</defs>
</svg>
