<?xml version="1.0" encoding="utf-8"?>
<!-- Generator: Adobe Illustrator 28.1.0, SVG Export Plug-In . SVG Version: 6.00 Build 0)  -->
<svg version="1.1" xmlns="http://www.w3.org/2000/svg" xmlns:xlink="http://www.w3.org/1999/xlink" x="0px" y="0px"
	 viewBox="0 0 1359.4 345.1" style="enable-background:new 0 0 1359.4 345.1;" xml:space="preserve">
<style type="text/css">
	.st0{fill:#000000;}
	.st1{fill:none;}
</style>
<g id="Logo">
	<path id="Logo_x5F_White" class="st0" d="M661.2,200.8c19.8-17.4,28.6-28.2,28.6-60.6h-30.6c5.1,10.6,11.7,39.1-1.1,55.3
		c-2-3.7-13.2-32.1-34.1-44.5l0,0c15.4-9.6,23.5-20.2,23.5-32.4c0-6.4-2.9-12.1-8.6-17c-5.6-4.6-11.6-6-18.1-6
		c-7.1,0-38.7,20.2-38.7,20.2c-2.7,1.8-36.7,22.9,11,51c-64.4,34.5-15.1,65.2-0.7,76.9c19.3-9,35.4-17.5,47.1-24.3l0.2-0.1
		c6,8.3,14.2,16.8,26.6,24.8l27.1-21.5l-3.1-4C690.2,218.6,674.5,225,661.2,200.8L661.2,200.8z M596.9,113
		c22-4.7,34.6,21.3,22.5,35.4c-13.4-6.7-20.1-11.8-22.4-17.1C595.3,127.4,595.2,121.6,596.9,113L596.9,113z M622.7,218.9
		c-8.9,0-16.3-2.5-22.2-7.4c-10.7-9-16.4-26.5-3-42.2c16.9,8.8,19,8.1,30.2,29.8c2.3,4.5,4.9,9.4,8,14.5c0.1,0.2,0.2,0.4,0.3,0.6
		C632.6,217.2,627.9,218.9,622.7,218.9z M239,192.1v-38h12.5l20-17.9H239v-30.9l0,0l0,0l-37.5,40.1v8.7h8.7v38
		c0,22.2,13,42.4,33.2,51.5l11.9-26.3C245.4,212.8,239,202.9,239,192.1L239,192.1z M284.6,97.1c8-3.3,17.3,0.5,20.6,8.5
		c3.3,8-0.5,17.3-8.5,20.6c-8,3.3-17.3-0.5-20.6-8.5C272.8,109.7,276.6,100.5,284.6,97.1z M306.2,192.1v-32.7l0,0c0-0.7,0-1.3,0-1.8
		c0-17.5-16.2-21.5-16.2-21.5L270,154v5.4c4,0,7.3,3.3,7.3,7.3V192c0,22.2,13,42.4,33.2,51.5l11.9-26.3
		C312.6,212.8,306.2,202.9,306.2,192.1z M387.7,158.9c0.7,0.5,1.3,1.1,2,1.7l19.5-21.3c-8.7-7.9-22.5-11.4-34.2-13l-40,35.8
		c-2.6,4.9-9,74.7,51.8,81.4l11.9-26.3c-38.4,0-50.2-37.1-39.7-69.1C369.5,148.4,379.6,152.3,387.7,158.9L387.7,158.9z M459,195
		L459,195L459,195L459,195z M1017.4,136.3l-38.5,22.2c-11.5,16.5-13,39.1-2.1,58s31.3,28.8,51.4,27.1l38.5-22.2
		c11.5-16.5,13-39.1,2.1-58C1057.9,144.6,1037.5,134.6,1017.4,136.3L1017.4,136.3z M1047.7,226c-1.5,2-3.7,3.3-6.2,3.6
		c-5.8,0.7-13.3-1.3-20.9-5.5c-17.7-9.9-28.6-28.9-28.4-49.2c0.1-8.7,2.2-16.2,5.6-20.9c1.5-2,3.7-3.3,6.2-3.6
		c5.8-0.7,13.3,1.3,20.9,5.5c17.7,9.9,28.6,28.9,28.4,49.2C1053.3,213.8,1051.2,221.3,1047.7,226L1047.7,226z M939.4,145.1
		c-3.7-3.3-8-6.1-12.6-8c-0.7-0.3-1.5-0.6-2.2-0.8l0,0l0,0l-30.1,17.4V95.9h-29V244h28.9v-84.7l3.4-2c3.3-1.9,7.3-2.7,11.1-2.1
		c10,1.8,21.2,11,20.1,42c-0.1,1.9-0.3,7.8-1.4,13.8c0,0-3.1,18.5-9.4,38.4l32.3-9.6C964.9,179.7,952.1,156.4,939.4,145.1
		L939.4,145.1z M796.8,211.3v-90.2c9.6,1.7,20.7,5.3,29,13c10.6-9.4,17.7-15.5,23.2-20.5c-25.4-21.8-56.7-17.7-56.7-17.7l-46,40.7
		V177c0,17.9,7,34.7,19.6,47.3c12.6,12.6,29.5,19.6,47.3,19.6h24.4l12.8-28.9h-37.1C807.5,215.1,801.9,213.8,796.8,211.3
		L796.8,211.3z M792,208.6c-2-1.3-3.8-2.9-5.5-4.6c-7.2-7.2-11.1-16.7-11.1-26.9v-42.5l0,0V120c0,0,7.2-0.7,16.7,0.4v88.2H792z
		 M1127,195.1L1127,195.1L1127,195.1z M1177.9,240.9c-1.6-28.4-12.5-48.2-24.6-61.2l22.8-13.1l-0.4-1.1c-1.2-3.7-2.7-7.3-4.7-10.6
		c-2.6-4.2-5.5-7.4-8.4-10c-3.7-3.3-8-6.1-12.6-8c-0.7-0.3-1.5-0.6-2.2-0.8l0,0l0,0l-28.7,16.5V95.7h-28.9v148.1h28.9v-85.6l1.9-1.1
		c3.5-2,7.6-2.8,11.6-2c7,1.4,14.6,6.7,18,20.7l-27.5,15.9l0,0c9.4,6.3,26.7,22.7,26.2,57.8 M1223.7,198.4l18-10.4l0,0l22.3-12.9
		l-2.4-4.2l-20.6-35l-19.8,11.5l0,0l-29,16.8v5.6h0.1v16c0,27,18.2,50.7,44.3,57.5l4.2,1.1l12-26.8
		C1252.7,217.7,1231.2,215,1223.7,198.4z M1221.1,185.8v-32.7l18.1,30.8l-17.2,9.9C1221.4,191.4,1221.1,188.7,1221.1,185.8
		L1221.1,185.8z M508,240.9c-1.6-28.4-12.5-48.2-24.6-61.2l22.8-13.1l-0.4-1.1c-1.2-3.7-2.7-7.3-4.7-10.6c-2.6-4.2-5.5-7.4-8.4-10
		c-3.7-3.3-8-6.1-12.6-8c-0.7-0.3-1.5-0.6-2.2-0.8l0,0l0,0l-28.7,16.5V95.7h-28.9v148.1h28.9v-85.6l1.9-1.1c3.5-2,7.6-2.8,11.6-2
		c7,1.4,14.6,6.7,18,20.7l-27.5,15.9l0,0c9.4,6.3,26.7,22.7,26.2,57.8 M155.7,158.5l16.5-17.6l0,0l18.9-20.2
		c0,0-24.9-25.2-37.3-25.2c-9.6,0.1-38.2,17.5-48.8,25c-12.4,32.4,7.1,47.8,25.6,57.9l-26.2,27.9l-8.9,9.5c0.6,0.8,1.6,2.1,3.1,3.7
		l0,0c7,8,23.4,24,42.5,24c16.1,0,42.2-30.8,43.5-32.7C201.8,186.1,173.3,168,155.7,158.5L155.7,158.5z M144.4,152.5
		c-22.2-14.2-15.6-38.8-9.6-38.8c12.7,0,27.9,16,34.3,23.4l-17.8,19.1C148.2,154.6,145.7,153.4,144.4,152.5L144.4,152.5z
		 M135.2,216.6c-5.5-4.3-12.4-13.2-16.4-18.7l16.1-17.2c4.1,2.1,8.1,4,11.5,5.8C171.9,200.1,167,241.5,135.2,216.6L135.2,216.6z"/>
	<rect id="Saferoom" class="st1" width="1359.5" height="345.1"/>
	<path id="Logo_x5F_Black_00000120521949638175903780000015105486022987770540_" d="M661.2-380.7c19.8-17.4,28.6-28.2,28.6-60.6
		h-30.6c5.1,10.6,11.7,39.1-1.1,55.3c-2-3.7-13.2-32.1-34.1-44.5l0,0c15.4-9.6,23.5-20.2,23.5-32.4c0-6.4-2.9-12.1-8.6-17
		c-5.6-4.6-11.6-6-18.1-6c-7.1,0-38.7,20.2-38.7,20.2c-2.7,1.8-36.7,22.9,11,51c-64.4,34.5-15.1,65.2-0.7,76.9
		c19.3-9,35.4-17.5,47.1-24.3l0.2-0.1c6,8.3,14.2,16.8,26.6,24.8l27.1-21.5l-3.1-4C690.2-362.9,674.5-356.5,661.2-380.7L661.2-380.7
		z M596.9-468.5c22-4.7,34.6,21.3,22.5,35.4c-13.4-6.7-20.1-11.8-22.4-17.1C595.3-454.1,595.2-459.9,596.9-468.5L596.9-468.5z
		 M622.7-362.6c-8.9,0-16.3-2.5-22.2-7.4c-10.7-9-16.4-26.5-3-42.2c16.9,8.8,19,8.1,30.2,29.8c2.3,4.5,4.9,9.4,8,14.5
		c0.1,0.2,0.2,0.4,0.3,0.6C632.6-364.3,627.9-362.6,622.7-362.6z M239-389.4v-38h12.5l20-17.9H239v-30.9l0,0l0,0l-37.5,40.1v8.7h8.7
		v38c0,22.2,13,42.4,33.2,51.5l11.9-26.3C245.4-368.7,239-378.6,239-389.4L239-389.4z M284.6-484.4c8-3.3,17.3,0.5,20.6,8.5
		c3.3,8-0.5,17.3-8.5,20.6c-8,3.3-17.3-0.5-20.6-8.5C272.8-471.8,276.6-481,284.6-484.4z M306.2-389.4v-32.7l0,0c0-0.7,0-1.3,0-1.8
		c0-17.5-16.2-21.5-16.2-21.5l-20,17.9v5.4c4,0,7.3,3.3,7.3,7.3v25.3c0,22.2,13,42.4,33.2,51.5l11.9-26.3
		C312.6-368.7,306.2-378.6,306.2-389.4z M387.7-422.6c0.7,0.5,1.3,1.1,2,1.7l19.5-21.3c-8.7-7.9-22.5-11.4-34.2-13l-40,35.8
		c-2.6,4.9-9,74.7,51.8,81.4l11.9-26.3c-38.4,0-50.2-37.1-39.7-69.1C369.5-433.1,379.6-429.2,387.7-422.6L387.7-422.6z M459-386.5
		L459-386.5L459-386.5L459-386.5z M1017.4-445.2L978.9-423c-11.5,16.5-13,39.1-2.1,58s31.3,28.8,51.4,27.1l38.5-22.2
		c11.5-16.5,13-39.1,2.1-58C1057.9-436.9,1037.5-446.9,1017.4-445.2L1017.4-445.2z M1047.7-355.5c-1.5,2-3.7,3.3-6.2,3.6
		c-5.8,0.7-13.3-1.3-20.9-5.5c-17.7-9.9-28.6-28.9-28.4-49.2c0.1-8.7,2.2-16.2,5.6-20.9c1.5-2,3.7-3.3,6.2-3.6
		c5.8-0.7,13.3,1.3,20.9,5.5c17.7,9.9,28.6,28.9,28.4,49.2C1053.3-367.7,1051.2-360.2,1047.7-355.5L1047.7-355.5z M939.4-436.4
		c-3.7-3.3-8-6.1-12.6-8c-0.7-0.3-1.5-0.6-2.2-0.8l0,0l0,0l-30.1,17.4v-57.8h-29v148.1h28.9v-84.7l3.4-2c3.3-1.9,7.3-2.7,11.1-2.1
		c10,1.8,21.2,11,20.1,42c-0.1,1.9-0.3,7.8-1.4,13.8c0,0-3.1,18.5-9.4,38.4l32.3-9.6C964.9-401.8,952.1-425.1,939.4-436.4
		L939.4-436.4z M796.8-370.2v-90.2c9.6,1.7,20.7,5.3,29,13c10.6-9.4,17.7-15.5,23.2-20.5c-25.4-21.8-56.7-17.7-56.7-17.7l-46,40.7
		v40.4c0,17.9,7,34.7,19.6,47.3c12.6,12.6,29.5,19.6,47.3,19.6h24.4l12.8-28.9h-37.1C807.5-366.4,801.9-367.7,796.8-370.2
		L796.8-370.2z M792-372.9c-2-1.3-3.8-2.9-5.5-4.6c-7.2-7.2-11.1-16.7-11.1-26.9v-42.5l0,0v-14.6c0,0,7.2-0.7,16.7,0.4v88.2H792z
		 M1127-386.4L1127-386.4L1127-386.4z M1177.9-340.6c-1.6-28.4-12.5-48.2-24.6-61.2l22.8-13.1l-0.4-1.1c-1.2-3.7-2.7-7.3-4.7-10.6
		c-2.6-4.2-5.5-7.4-8.4-10c-3.7-3.3-8-6.1-12.6-8c-0.7-0.3-1.5-0.6-2.2-0.8l0,0l0,0l-28.7,16.5v-56.9h-28.9v148.1h28.9v-85.6
		l1.9-1.1c3.5-2,7.6-2.8,11.6-2c7,1.4,14.6,6.7,18,20.7l-27.5,15.9l0,0c9.4,6.3,26.7,22.7,26.2,57.8 M1223.7-383.1l18-10.4l0,0
		l22.3-12.9l-2.4-4.2l-20.6-35l-19.8,11.5l0,0l-29,16.8v5.6h0.1v16c0,27,18.2,50.7,44.3,57.5l4.2,1.1l12-26.8
		C1252.7-363.8,1231.2-366.5,1223.7-383.1z M1221.1-395.7v-32.7l18.1,30.8l-17.2,9.9C1221.4-390.1,1221.1-392.8,1221.1-395.7
		L1221.1-395.7z M508-340.6c-1.6-28.4-12.5-48.2-24.6-61.2l22.8-13.1l-0.4-1.1c-1.2-3.7-2.7-7.3-4.7-10.6c-2.6-4.2-5.5-7.4-8.4-10
		c-3.7-3.3-8-6.1-12.6-8c-0.7-0.3-1.5-0.6-2.2-0.8l0,0l0,0l-28.7,16.5v-56.9h-28.9v148.1h28.9v-85.6l1.9-1.1c3.5-2,7.6-2.8,11.6-2
		c7,1.4,14.6,6.7,18,20.7l-27.5,15.9l0,0c9.4,6.3,26.7,22.7,26.2,57.8 M155.7-423l16.5-17.6l0,0l18.9-20.2c0,0-24.9-25.2-37.3-25.2
		c-9.6,0.1-38.2,17.5-48.8,25c-12.4,32.4,7.1,47.8,25.6,57.9l-26.2,27.9l-8.9,9.5c0.6,0.8,1.6,2.1,3.1,3.7l0,0c7,8,23.4,24,42.5,24
		c16.1,0,42.2-30.8,43.5-32.7C201.8-395.4,173.3-413.5,155.7-423L155.7-423z M144.4-429c-22.2-14.2-15.6-38.8-9.6-38.8
		c12.7,0,27.9,16,34.3,23.4l-17.8,19.1C148.2-426.9,145.7-428.1,144.4-429L144.4-429z M135.2-364.9c-5.5-4.3-12.4-13.2-16.4-18.7
		l16.1-17.2c4.1,2.1,8.1,4,11.5,5.8C171.9-381.4,167-340,135.2-364.9L135.2-364.9z"/>
	<rect id="Saferoom_00000085230571530377123250000011008462382430878893_" y="-581.5" class="st1" width="1359.5" height="345.1"/>
</g>
<g id="Guides">
</g>
</svg>
