<svg width="276" height="147" viewBox="0 0 276 147" fill="none" xmlns="http://www.w3.org/2000/svg">
<g filter="url(#filter0_d_7_1513)">
<rect x="8" y="4" width="260" height="131" rx="15" fill="url(#paint0_linear_7_1513)"/>
<rect x="8.5" y="4.5" width="259" height="130" rx="14.5" stroke="#F6F8ED"/>
</g>
<path d="M77.6767 18.3636V30H75.9153V20.125H75.8471L73.063 21.9432V20.2614L75.9664 18.3636H77.6767ZM83.4451 30.108C83.1345 30.108 82.8675 29.9981 82.644 29.7784C82.4205 29.5549 82.3088 29.286 82.3088 28.9716C82.3088 28.661 82.4205 28.3958 82.644 28.1761C82.8675 27.9527 83.1345 27.8409 83.4451 27.8409C83.7557 27.8409 84.0228 27.9527 84.2463 28.1761C84.4697 28.3958 84.5815 28.661 84.5815 28.9716C84.5815 29.1799 84.5285 29.3712 84.4224 29.5455C84.3201 29.7159 84.1838 29.8523 84.0133 29.9545C83.8429 30.0568 83.6535 30.108 83.4451 30.108ZM96.2472 21.2727V22.6364H91.4801V21.2727H96.2472ZM92.7585 19.1818H94.4574V27.4375C94.4574 27.767 94.5066 28.0152 94.6051 28.1818C94.7036 28.3447 94.8305 28.4564 94.9858 28.517C95.1449 28.5739 95.3172 28.6023 95.5028 28.6023C95.6392 28.6023 95.7585 28.5928 95.8608 28.5739C95.9631 28.5549 96.0426 28.5398 96.0994 28.5284L96.4062 29.9318C96.3078 29.9697 96.1676 30.0076 95.9858 30.0455C95.804 30.0871 95.5767 30.1098 95.304 30.1136C94.857 30.1212 94.4403 30.0417 94.054 29.875C93.6676 29.7083 93.3551 29.4508 93.1165 29.1023C92.8778 28.7538 92.7585 28.3163 92.7585 27.7898V19.1818ZM103.655 26.3807V21.2727H105.359V30H103.689V28.4886H103.598C103.397 28.9545 103.075 29.3428 102.632 29.6534C102.193 29.9602 101.645 30.1136 100.99 30.1136C100.429 30.1136 99.9332 29.9905 99.5014 29.7443C99.0734 29.4943 98.7363 29.125 98.4901 28.6364C98.2476 28.1477 98.1264 27.5436 98.1264 26.8239V21.2727H99.8253V26.6193C99.8253 27.214 99.9901 27.6875 100.32 28.0398C100.649 28.392 101.077 28.5682 101.604 28.5682C101.922 28.5682 102.238 28.4886 102.553 28.3295C102.871 28.1705 103.134 27.9299 103.342 27.608C103.554 27.286 103.659 26.8769 103.655 26.3807ZM107.642 30V21.2727H109.284V22.6591H109.375C109.534 22.1894 109.814 21.8201 110.216 21.5511C110.621 21.2784 111.08 21.142 111.591 21.142C111.697 21.142 111.822 21.1458 111.966 21.1534C112.114 21.161 112.229 21.1705 112.312 21.1818V22.8068C112.244 22.7879 112.123 22.767 111.949 22.7443C111.775 22.7178 111.6 22.7045 111.426 22.7045C111.025 22.7045 110.667 22.7898 110.352 22.9602C110.042 23.1269 109.795 23.3598 109.614 23.6591C109.432 23.9545 109.341 24.2917 109.341 24.6705V30H107.642ZM115.482 24.8182V30H113.783V21.2727H115.413V22.6932H115.521C115.722 22.2311 116.036 21.8598 116.464 21.5795C116.896 21.2992 117.44 21.1591 118.095 21.1591C118.69 21.1591 119.211 21.2841 119.658 21.5341C120.105 21.7803 120.451 22.1477 120.697 22.6364C120.944 23.125 121.067 23.7292 121.067 24.4489V30H119.368V24.6534C119.368 24.0208 119.203 23.5265 118.874 23.1705C118.544 22.8106 118.091 22.6307 117.516 22.6307C117.122 22.6307 116.771 22.7159 116.464 22.8864C116.161 23.0568 115.921 23.3068 115.743 23.6364C115.569 23.9621 115.482 24.3561 115.482 24.8182ZM131.256 30.1761C130.438 30.1761 129.723 29.9886 129.114 29.6136C128.504 29.2386 128.03 28.714 127.693 28.0398C127.356 27.3655 127.188 26.5777 127.188 25.6761C127.188 24.7708 127.356 23.9792 127.693 23.3011C128.03 22.6231 128.504 22.0966 129.114 21.7216C129.723 21.3466 130.438 21.1591 131.256 21.1591C132.074 21.1591 132.788 21.3466 133.398 21.7216C134.008 22.0966 134.481 22.6231 134.818 23.3011C135.155 23.9792 135.324 24.7708 135.324 25.6761C135.324 26.5777 135.155 27.3655 134.818 28.0398C134.481 28.714 134.008 29.2386 133.398 29.6136C132.788 29.9886 132.074 30.1761 131.256 30.1761ZM131.261 28.75C131.792 28.75 132.231 28.6098 132.58 28.3295C132.928 28.0492 133.186 27.6761 133.352 27.2102C133.523 26.7443 133.608 26.2311 133.608 25.6705C133.608 25.1136 133.523 24.6023 133.352 24.1364C133.186 23.6667 132.928 23.2898 132.58 23.0057C132.231 22.7216 131.792 22.5795 131.261 22.5795C130.727 22.5795 130.284 22.7216 129.932 23.0057C129.583 23.2898 129.324 23.6667 129.153 24.1364C128.987 24.6023 128.903 25.1136 128.903 25.6705C128.903 26.2311 128.987 26.7443 129.153 27.2102C129.324 27.6761 129.583 28.0492 129.932 28.3295C130.284 28.6098 130.727 28.75 131.261 28.75ZM138.919 24.8182V30H137.22V21.2727H138.851V22.6932H138.959C139.16 22.2311 139.474 21.8598 139.902 21.5795C140.334 21.2992 140.877 21.1591 141.533 21.1591C142.127 21.1591 142.648 21.2841 143.095 21.5341C143.542 21.7803 143.889 22.1477 144.135 22.6364C144.381 23.125 144.504 23.7292 144.504 24.4489V30H142.805V24.6534C142.805 24.0208 142.641 23.5265 142.311 23.1705C141.982 22.8106 141.529 22.6307 140.953 22.6307C140.559 22.6307 140.209 22.7159 139.902 22.8864C139.599 23.0568 139.358 23.3068 139.18 23.6364C139.006 23.9621 138.919 24.3561 138.919 24.8182ZM155.091 21.2727V22.6364H150.324V21.2727H155.091ZM151.602 19.1818H153.301V27.4375C153.301 27.767 153.35 28.0152 153.449 28.1818C153.547 28.3447 153.674 28.4564 153.83 28.517C153.989 28.5739 154.161 28.6023 154.347 28.6023C154.483 28.6023 154.602 28.5928 154.705 28.5739C154.807 28.5549 154.886 28.5398 154.943 28.5284L155.25 29.9318C155.152 29.9697 155.011 30.0076 154.83 30.0455C154.648 30.0871 154.42 30.1098 154.148 30.1136C153.701 30.1212 153.284 30.0417 152.898 29.875C152.511 29.7083 152.199 29.4508 151.96 29.1023C151.722 28.7538 151.602 28.3163 151.602 27.7898V19.1818ZM158.857 24.8182V30H157.158V18.3636H158.834V22.6932H158.942C159.146 22.2235 159.459 21.8504 159.879 21.5739C160.3 21.2973 160.849 21.1591 161.527 21.1591C162.125 21.1591 162.648 21.2822 163.095 21.5284C163.546 21.7746 163.894 22.142 164.141 22.6307C164.391 23.1155 164.516 23.7216 164.516 24.4489V30H162.817V24.6534C162.817 24.0133 162.652 23.517 162.322 23.1648C161.993 22.8087 161.535 22.6307 160.947 22.6307C160.546 22.6307 160.186 22.7159 159.868 22.8864C159.554 23.0568 159.305 23.3068 159.124 23.6364C158.946 23.9621 158.857 24.3561 158.857 24.8182ZM170.544 30.1761C169.684 30.1761 168.944 29.9924 168.322 29.625C167.705 29.2538 167.228 28.733 166.891 28.0625C166.557 27.3883 166.391 26.5985 166.391 25.6932C166.391 24.7992 166.557 24.0114 166.891 23.3295C167.228 22.6477 167.697 22.1155 168.3 21.733C168.906 21.3504 169.614 21.1591 170.425 21.1591C170.917 21.1591 171.394 21.2405 171.857 21.4034C172.319 21.5663 172.733 21.822 173.101 22.1705C173.468 22.5189 173.758 22.9716 173.97 23.5284C174.182 24.0814 174.288 24.7538 174.288 25.5455V26.1477H167.351V24.875H172.624C172.624 24.428 172.533 24.0322 172.351 23.6875C172.169 23.339 171.913 23.0644 171.584 22.8636C171.258 22.6629 170.875 22.5625 170.436 22.5625C169.959 22.5625 169.542 22.6799 169.186 22.9148C168.834 23.1458 168.561 23.4489 168.368 23.8239C168.179 24.1951 168.084 24.5985 168.084 25.0341V26.0284C168.084 26.6117 168.186 27.108 168.391 27.517C168.599 27.9261 168.889 28.2386 169.26 28.4545C169.631 28.6667 170.065 28.7727 170.561 28.7727C170.883 28.7727 171.177 28.7273 171.442 28.6364C171.707 28.5417 171.936 28.4015 172.129 28.2159C172.322 28.0303 172.47 27.8011 172.572 27.5284L174.18 27.8182C174.052 28.2917 173.821 28.7064 173.487 29.0625C173.158 29.4148 172.743 29.6894 172.243 29.8864C171.747 30.0795 171.18 30.1761 170.544 30.1761ZM182.107 18.3636V30H180.408V18.3636H182.107ZM186.932 30.1932C186.379 30.1932 185.879 30.0909 185.432 29.8864C184.985 29.678 184.631 29.3769 184.369 28.983C184.112 28.589 183.983 28.1061 183.983 27.5341C183.983 27.0417 184.078 26.6364 184.267 26.3182C184.456 26 184.712 25.7481 185.034 25.5625C185.356 25.3769 185.716 25.2367 186.114 25.142C186.511 25.0473 186.917 24.9754 187.33 24.9261C187.852 24.8655 188.277 24.8163 188.602 24.7784C188.928 24.7367 189.165 24.6705 189.312 24.5795C189.46 24.4886 189.534 24.3409 189.534 24.1364V24.0966C189.534 23.6004 189.394 23.2159 189.114 22.9432C188.837 22.6705 188.424 22.5341 187.875 22.5341C187.303 22.5341 186.852 22.661 186.523 22.9148C186.197 23.1648 185.972 23.4432 185.847 23.75L184.25 23.3864C184.439 22.8561 184.716 22.428 185.08 22.1023C185.447 21.7727 185.869 21.5341 186.347 21.3864C186.824 21.2348 187.326 21.1591 187.852 21.1591C188.201 21.1591 188.57 21.2008 188.96 21.2841C189.354 21.3636 189.722 21.5114 190.062 21.7273C190.407 21.9432 190.689 22.2519 190.909 22.6534C191.129 23.0511 191.239 23.5682 191.239 24.2045V30H189.58V28.8068H189.511C189.402 29.0265 189.237 29.2424 189.017 29.4545C188.797 29.6667 188.515 29.8428 188.17 29.983C187.826 30.1231 187.413 30.1932 186.932 30.1932ZM187.301 28.8295C187.771 28.8295 188.172 28.7367 188.506 28.5511C188.843 28.3655 189.098 28.1231 189.273 27.8239C189.451 27.5208 189.54 27.197 189.54 26.8523V25.7273C189.479 25.7879 189.362 25.8447 189.188 25.8977C189.017 25.947 188.822 25.9905 188.602 26.0284C188.383 26.0625 188.169 26.0947 187.96 26.125C187.752 26.1515 187.578 26.1742 187.438 26.1932C187.108 26.2348 186.807 26.3049 186.534 26.4034C186.265 26.5019 186.049 26.6439 185.886 26.8295C185.727 27.0114 185.648 27.2538 185.648 27.5568C185.648 27.9773 185.803 28.2955 186.114 28.5114C186.424 28.7235 186.82 28.8295 187.301 28.8295ZM200.655 21.2727L197.49 30H195.672L192.501 21.2727H194.325L196.536 27.9886H196.626L198.831 21.2727H200.655ZM204.541 30.1932C203.988 30.1932 203.488 30.0909 203.041 29.8864C202.594 29.678 202.24 29.3769 201.979 28.983C201.721 28.589 201.592 28.1061 201.592 27.5341C201.592 27.0417 201.687 26.6364 201.876 26.3182C202.066 26 202.321 25.7481 202.643 25.5625C202.965 25.3769 203.325 25.2367 203.723 25.142C204.121 25.0473 204.526 24.9754 204.939 24.9261C205.462 24.8655 205.886 24.8163 206.212 24.7784C206.537 24.7367 206.774 24.6705 206.922 24.5795C207.07 24.4886 207.143 24.3409 207.143 24.1364V24.0966C207.143 23.6004 207.003 23.2159 206.723 22.9432C206.446 22.6705 206.034 22.5341 205.484 22.5341C204.912 22.5341 204.462 22.661 204.132 22.9148C203.806 23.1648 203.581 23.4432 203.456 23.75L201.859 23.3864C202.049 22.8561 202.325 22.428 202.689 22.1023C203.056 21.7727 203.479 21.5341 203.956 21.3864C204.433 21.2348 204.935 21.1591 205.462 21.1591C205.81 21.1591 206.179 21.2008 206.57 21.2841C206.964 21.3636 207.331 21.5114 207.672 21.7273C208.017 21.9432 208.299 22.2519 208.518 22.6534C208.738 23.0511 208.848 23.5682 208.848 24.2045V30H207.189V28.8068H207.121C207.011 29.0265 206.846 29.2424 206.626 29.4545C206.407 29.6667 206.125 29.8428 205.78 29.983C205.435 30.1231 205.022 30.1932 204.541 30.1932ZM204.911 28.8295C205.38 28.8295 205.782 28.7367 206.115 28.5511C206.452 28.3655 206.708 28.1231 206.882 27.8239C207.06 27.5208 207.149 27.197 207.149 26.8523V25.7273C207.089 25.7879 206.971 25.8447 206.797 25.8977C206.626 25.947 206.431 25.9905 206.212 26.0284C205.992 26.0625 205.778 26.0947 205.57 26.125C205.361 26.1515 205.187 26.1742 205.047 26.1932C204.717 26.2348 204.416 26.3049 204.143 26.4034C203.875 26.5019 203.659 26.6439 203.496 26.8295C203.337 27.0114 203.257 27.2538 203.257 27.5568C203.257 27.9773 203.412 28.2955 203.723 28.5114C204.034 28.7235 204.429 28.8295 204.911 28.8295Z" fill="#513131"/>
<path d="M34.645 65.86C34.645 65.02 34.815 64.285 35.155 63.655C35.495 63.015 35.96 62.52 36.55 62.17C37.15 61.82 37.82 61.645 38.56 61.645C39.2 61.645 39.795 61.795 40.345 62.095C40.895 62.385 41.315 62.77 41.605 63.25V58.9H42.985V70H41.605V68.455C41.335 68.945 40.935 69.35 40.405 69.67C39.875 69.98 39.255 70.135 38.545 70.135C37.815 70.135 37.15 69.955 36.55 69.595C35.96 69.235 35.495 68.73 35.155 68.08C34.815 67.43 34.645 66.69 34.645 65.86ZM41.605 65.875C41.605 65.255 41.48 64.715 41.23 64.255C40.98 63.795 40.64 63.445 40.21 63.205C39.79 62.955 39.325 62.83 38.815 62.83C38.305 62.83 37.84 62.95 37.42 63.19C37 63.43 36.665 63.78 36.415 64.24C36.165 64.7 36.04 65.24 36.04 65.86C36.04 66.49 36.165 67.04 36.415 67.51C36.665 67.97 37 68.325 37.42 68.575C37.84 68.815 38.305 68.935 38.815 68.935C39.325 68.935 39.79 68.815 40.21 68.575C40.64 68.325 40.98 67.97 41.23 67.51C41.48 67.04 41.605 66.495 41.605 65.875ZM45.9967 60.445C45.7367 60.445 45.5167 60.355 45.3367 60.175C45.1567 59.995 45.0667 59.775 45.0667 59.515C45.0667 59.255 45.1567 59.035 45.3367 58.855C45.5167 58.675 45.7367 58.585 45.9967 58.585C46.2467 58.585 46.4567 58.675 46.6267 58.855C46.8067 59.035 46.8967 59.255 46.8967 59.515C46.8967 59.775 46.8067 59.995 46.6267 60.175C46.4567 60.355 46.2467 60.445 45.9967 60.445ZM46.6567 61.78V70H45.2917V61.78H46.6567ZM52.3731 61.645C53.0831 61.645 53.7031 61.8 54.2331 62.11C54.7731 62.42 55.1731 62.81 55.4331 63.28V61.78H56.8131V70.18C56.8131 70.93 56.6531 71.595 56.3331 72.175C56.0131 72.765 55.5531 73.225 54.9531 73.555C54.3631 73.885 53.6731 74.05 52.8831 74.05C51.8031 74.05 50.9031 73.795 50.1831 73.285C49.4631 72.775 49.0381 72.08 48.9081 71.2H50.2581C50.4081 71.7 50.7181 72.1 51.1881 72.4C51.6581 72.71 52.2231 72.865 52.8831 72.865C53.6331 72.865 54.2431 72.63 54.7131 72.16C55.1931 71.69 55.4331 71.03 55.4331 70.18V68.455C55.1631 68.935 54.7631 69.335 54.2331 69.655C53.7031 69.975 53.0831 70.135 52.3731 70.135C51.6431 70.135 50.9781 69.955 50.3781 69.595C49.7881 69.235 49.3231 68.73 48.9831 68.08C48.6431 67.43 48.4731 66.69 48.4731 65.86C48.4731 65.02 48.6431 64.285 48.9831 63.655C49.3231 63.015 49.7881 62.52 50.3781 62.17C50.9781 61.82 51.6431 61.645 52.3731 61.645ZM55.4331 65.875C55.4331 65.255 55.3081 64.715 55.0581 64.255C54.8081 63.795 54.4681 63.445 54.0381 63.205C53.6181 62.955 53.1531 62.83 52.6431 62.83C52.1331 62.83 51.6681 62.95 51.2481 63.19C50.8281 63.43 50.4931 63.78 50.2431 64.24C49.9931 64.7 49.8681 65.24 49.8681 65.86C49.8681 66.49 49.9931 67.04 50.2431 67.51C50.4931 67.97 50.8281 68.325 51.2481 68.575C51.6681 68.815 52.1331 68.935 52.6431 68.935C53.1531 68.935 53.6181 68.815 54.0381 68.575C54.4681 68.325 54.8081 67.97 55.0581 67.51C55.3081 67.04 55.4331 66.495 55.4331 65.875ZM62.6089 65.86C62.6089 65.02 62.7789 64.285 63.1189 63.655C63.4589 63.015 63.9239 62.52 64.5139 62.17C65.1139 61.82 65.7789 61.645 66.5089 61.645C67.2289 61.645 67.8539 61.8 68.3839 62.11C68.9139 62.42 69.3089 62.81 69.5689 63.28V61.78H70.9489V70H69.5689V68.47C69.2989 68.95 68.8939 69.35 68.3539 69.67C67.8239 69.98 67.2039 70.135 66.4939 70.135C65.7639 70.135 65.1039 69.955 64.5139 69.595C63.9239 69.235 63.4589 68.73 63.1189 68.08C62.7789 67.43 62.6089 66.69 62.6089 65.86ZM69.5689 65.875C69.5689 65.255 69.4439 64.715 69.1939 64.255C68.9439 63.795 68.6039 63.445 68.1739 63.205C67.7539 62.955 67.2889 62.83 66.7789 62.83C66.2689 62.83 65.8039 62.95 65.3839 63.19C64.9639 63.43 64.6289 63.78 64.3789 64.24C64.1289 64.7 64.0039 65.24 64.0039 65.86C64.0039 66.49 64.1289 67.04 64.3789 67.51C64.6289 67.97 64.9639 68.325 65.3839 68.575C65.8039 68.815 66.2689 68.935 66.7789 68.935C67.2889 68.935 67.7539 68.815 68.1739 68.575C68.6039 68.325 68.9439 67.97 69.1939 67.51C69.4439 67.04 69.5689 66.495 69.5689 65.875ZM81.3346 61.63C81.9546 61.63 82.5146 61.765 83.0146 62.035C83.5146 62.295 83.9046 62.69 84.1846 63.22C84.4746 63.75 84.6196 64.395 84.6196 65.155V70H83.2696V65.35C83.2696 64.53 83.0646 63.905 82.6546 63.475C82.2446 63.035 81.6846 62.815 80.9746 62.815C80.2546 62.815 79.6796 63.04 79.2496 63.49C78.8296 63.94 78.6196 64.595 78.6196 65.455V70H77.2546V58.9H78.6196V62.95C78.8896 62.53 79.2596 62.205 79.7296 61.975C80.2096 61.745 80.7446 61.63 81.3346 61.63ZM90.4343 70.135C89.6643 70.135 88.9643 69.96 88.3343 69.61C87.7143 69.26 87.2243 68.765 86.8643 68.125C86.5143 67.475 86.3393 66.725 86.3393 65.875C86.3393 65.035 86.5193 64.295 86.8793 63.655C87.2493 63.005 87.7493 62.51 88.3793 62.17C89.0093 61.82 89.7143 61.645 90.4943 61.645C91.2743 61.645 91.9793 61.82 92.6093 62.17C93.2393 62.51 93.7343 63 94.0943 63.64C94.4643 64.28 94.6493 65.025 94.6493 65.875C94.6493 66.725 94.4593 67.475 94.0793 68.125C93.7093 68.765 93.2043 69.26 92.5643 69.61C91.9243 69.96 91.2143 70.135 90.4343 70.135ZM90.4343 68.935C90.9243 68.935 91.3843 68.82 91.8143 68.59C92.2443 68.36 92.5893 68.015 92.8493 67.555C93.1193 67.095 93.2543 66.535 93.2543 65.875C93.2543 65.215 93.1243 64.655 92.8643 64.195C92.6043 63.735 92.2643 63.395 91.8443 63.175C91.4243 62.945 90.9693 62.83 90.4793 62.83C89.9793 62.83 89.5193 62.945 89.0993 63.175C88.6893 63.395 88.3593 63.735 88.1093 64.195C87.8593 64.655 87.7343 65.215 87.7343 65.875C87.7343 66.545 87.8543 67.11 88.0943 67.57C88.3443 68.03 88.6743 68.375 89.0843 68.605C89.4943 68.825 89.9443 68.935 90.4343 68.935ZM97.8091 58.9V70H96.4441V58.9H97.8091ZM107.635 65.575C107.635 65.835 107.62 66.11 107.59 66.4H101.02C101.07 67.21 101.345 67.845 101.845 68.305C102.355 68.755 102.97 68.98 103.69 68.98C104.28 68.98 104.77 68.845 105.16 68.575C105.56 68.295 105.84 67.925 106 67.465H107.47C107.25 68.255 106.81 68.9 106.15 69.4C105.49 69.89 104.67 70.135 103.69 70.135C102.91 70.135 102.21 69.96 101.59 69.61C100.98 69.26 100.5 68.765 100.15 68.125C99.8005 67.475 99.6255 66.725 99.6255 65.875C99.6255 65.025 99.7955 64.28 100.135 63.64C100.475 63 100.95 62.51 101.56 62.17C102.18 61.82 102.89 61.645 103.69 61.645C104.47 61.645 105.16 61.815 105.76 62.155C106.36 62.495 106.82 62.965 107.14 63.565C107.47 64.155 107.635 64.825 107.635 65.575ZM106.225 65.29C106.225 64.77 106.11 64.325 105.88 63.955C105.65 63.575 105.335 63.29 104.935 63.1C104.545 62.9 104.11 62.8 103.63 62.8C102.94 62.8 102.35 63.02 101.86 63.46C101.38 63.9 101.105 64.51 101.035 65.29H106.225ZM116.496 68.74L119.046 61.78H120.501L117.276 70H115.686L112.461 61.78H113.931L116.496 68.74ZM129.344 65.575C129.344 65.835 129.329 66.11 129.299 66.4H122.729C122.779 67.21 123.054 67.845 123.554 68.305C124.064 68.755 124.679 68.98 125.399 68.98C125.989 68.98 126.479 68.845 126.869 68.575C127.269 68.295 127.549 67.925 127.709 67.465H129.179C128.959 68.255 128.519 68.9 127.859 69.4C127.199 69.89 126.379 70.135 125.399 70.135C124.619 70.135 123.919 69.96 123.299 69.61C122.689 69.26 122.209 68.765 121.859 68.125C121.509 67.475 121.334 66.725 121.334 65.875C121.334 65.025 121.504 64.28 121.844 63.64C122.184 63 122.659 62.51 123.269 62.17C123.889 61.82 124.599 61.645 125.399 61.645C126.179 61.645 126.869 61.815 127.469 62.155C128.069 62.495 128.529 62.965 128.849 63.565C129.179 64.155 129.344 64.825 129.344 65.575ZM127.934 65.29C127.934 64.77 127.819 64.325 127.589 63.955C127.359 63.575 127.044 63.29 126.644 63.1C126.254 62.9 125.819 62.8 125.339 62.8C124.649 62.8 124.059 63.02 123.569 63.46C123.089 63.9 122.814 64.51 122.744 65.29H127.934ZM132.511 63.115C132.751 62.645 133.091 62.28 133.531 62.02C133.981 61.76 134.526 61.63 135.166 61.63V63.04H134.806C133.276 63.04 132.511 63.87 132.511 65.53V70H131.146V61.78H132.511V63.115ZM143.822 61.78L138.872 73.87H137.462L139.082 69.91L135.767 61.78H137.282L139.862 68.44L142.412 61.78H143.822ZM148.683 65.86C148.683 65.02 148.853 64.285 149.193 63.655C149.533 63.015 149.998 62.52 150.588 62.17C151.188 61.82 151.858 61.645 152.598 61.645C153.238 61.645 153.833 61.795 154.383 62.095C154.933 62.385 155.353 62.77 155.643 63.25V58.9H157.023V70H155.643V68.455C155.373 68.945 154.973 69.35 154.443 69.67C153.913 69.98 153.293 70.135 152.583 70.135C151.853 70.135 151.188 69.955 150.588 69.595C149.998 69.235 149.533 68.73 149.193 68.08C148.853 67.43 148.683 66.69 148.683 65.86ZM155.643 65.875C155.643 65.255 155.518 64.715 155.268 64.255C155.018 63.795 154.678 63.445 154.248 63.205C153.828 62.955 153.363 62.83 152.853 62.83C152.343 62.83 151.878 62.95 151.458 63.19C151.038 63.43 150.703 63.78 150.453 64.24C150.203 64.7 150.078 65.24 150.078 65.86C150.078 66.49 150.203 67.04 150.453 67.51C150.703 67.97 151.038 68.325 151.458 68.575C151.878 68.815 152.343 68.935 152.853 68.935C153.363 68.935 153.828 68.815 154.248 68.575C154.678 68.325 155.018 67.97 155.268 67.51C155.518 67.04 155.643 66.495 155.643 65.875ZM166.83 65.575C166.83 65.835 166.815 66.11 166.785 66.4H160.215C160.265 67.21 160.54 67.845 161.04 68.305C161.55 68.755 162.165 68.98 162.885 68.98C163.475 68.98 163.965 68.845 164.355 68.575C164.755 68.295 165.035 67.925 165.195 67.465H166.665C166.445 68.255 166.005 68.9 165.345 69.4C164.685 69.89 163.865 70.135 162.885 70.135C162.105 70.135 161.405 69.96 160.785 69.61C160.175 69.26 159.695 68.765 159.345 68.125C158.995 67.475 158.82 66.725 158.82 65.875C158.82 65.025 158.99 64.28 159.33 63.64C159.67 63 160.145 62.51 160.755 62.17C161.375 61.82 162.085 61.645 162.885 61.645C163.665 61.645 164.355 61.815 164.955 62.155C165.555 62.495 166.015 62.965 166.335 63.565C166.665 64.155 166.83 64.825 166.83 65.575ZM165.42 65.29C165.42 64.77 165.305 64.325 165.075 63.955C164.845 63.575 164.53 63.29 164.13 63.1C163.74 62.9 163.305 62.8 162.825 62.8C162.135 62.8 161.545 63.02 161.055 63.46C160.575 63.9 160.3 64.51 160.23 65.29H165.42ZM176.132 65.575C176.132 65.835 176.117 66.11 176.087 66.4H169.517C169.567 67.21 169.842 67.845 170.342 68.305C170.852 68.755 171.467 68.98 172.187 68.98C172.777 68.98 173.267 68.845 173.657 68.575C174.057 68.295 174.337 67.925 174.497 67.465H175.967C175.747 68.255 175.307 68.9 174.647 69.4C173.987 69.89 173.167 70.135 172.187 70.135C171.407 70.135 170.707 69.96 170.087 69.61C169.477 69.26 168.997 68.765 168.647 68.125C168.297 67.475 168.122 66.725 168.122 65.875C168.122 65.025 168.292 64.28 168.632 63.64C168.972 63 169.447 62.51 170.057 62.17C170.677 61.82 171.387 61.645 172.187 61.645C172.967 61.645 173.657 61.815 174.257 62.155C174.857 62.495 175.317 62.965 175.637 63.565C175.967 64.155 176.132 64.825 176.132 65.575ZM174.722 65.29C174.722 64.77 174.607 64.325 174.377 63.955C174.147 63.575 173.832 63.29 173.432 63.1C173.042 62.9 172.607 62.8 172.127 62.8C171.437 62.8 170.847 63.02 170.357 63.46C169.877 63.9 169.602 64.51 169.532 65.29H174.722ZM179.298 63.295C179.568 62.825 179.968 62.435 180.498 62.125C181.038 61.805 181.663 61.645 182.373 61.645C183.103 61.645 183.763 61.82 184.353 62.17C184.953 62.52 185.423 63.015 185.763 63.655C186.103 64.285 186.273 65.02 186.273 65.86C186.273 66.69 186.103 67.43 185.763 68.08C185.423 68.73 184.953 69.235 184.353 69.595C183.763 69.955 183.103 70.135 182.373 70.135C181.673 70.135 181.053 69.98 180.513 69.67C179.983 69.35 179.578 68.955 179.298 68.485V73.9H177.933V61.78H179.298V63.295ZM184.878 65.86C184.878 65.24 184.753 64.7 184.503 64.24C184.253 63.78 183.913 63.43 183.483 63.19C183.063 62.95 182.598 62.83 182.088 62.83C181.588 62.83 181.123 62.955 180.693 63.205C180.273 63.445 179.933 63.8 179.673 64.27C179.423 64.73 179.298 65.265 179.298 65.875C179.298 66.495 179.423 67.04 179.673 67.51C179.933 67.97 180.273 68.325 180.693 68.575C181.123 68.815 181.588 68.935 182.088 68.935C182.598 68.935 183.063 68.815 183.483 68.575C183.913 68.325 184.253 67.97 184.503 67.51C184.753 67.04 184.878 66.49 184.878 65.86ZM191.559 65.86C191.559 65.02 191.729 64.285 192.069 63.655C192.409 63.015 192.874 62.52 193.464 62.17C194.064 61.82 194.729 61.645 195.459 61.645C196.179 61.645 196.804 61.8 197.334 62.11C197.864 62.42 198.259 62.81 198.519 63.28V61.78H199.899V70H198.519V68.47C198.249 68.95 197.844 69.35 197.304 69.67C196.774 69.98 196.154 70.135 195.444 70.135C194.714 70.135 194.054 69.955 193.464 69.595C192.874 69.235 192.409 68.73 192.069 68.08C191.729 67.43 191.559 66.69 191.559 65.86ZM198.519 65.875C198.519 65.255 198.394 64.715 198.144 64.255C197.894 63.795 197.554 63.445 197.124 63.205C196.704 62.955 196.239 62.83 195.729 62.83C195.219 62.83 194.754 62.95 194.334 63.19C193.914 63.43 193.579 63.78 193.329 64.24C193.079 64.7 192.954 65.24 192.954 65.86C192.954 66.49 193.079 67.04 193.329 67.51C193.579 67.97 193.914 68.325 194.334 68.575C194.754 68.815 195.219 68.935 195.729 68.935C196.239 68.935 196.704 68.815 197.124 68.575C197.554 68.325 197.894 67.97 198.144 67.51C198.394 67.04 198.519 66.495 198.519 65.875ZM206.211 61.63C207.211 61.63 208.021 61.935 208.641 62.545C209.261 63.145 209.571 64.015 209.571 65.155V70H208.221V65.35C208.221 64.53 208.016 63.905 207.606 63.475C207.196 63.035 206.636 62.815 205.926 62.815C205.206 62.815 204.631 63.04 204.201 63.49C203.781 63.94 203.571 64.595 203.571 65.455V70H202.206V61.78H203.571V62.95C203.841 62.53 204.206 62.205 204.666 61.975C205.136 61.745 205.651 61.63 206.211 61.63ZM211.291 65.86C211.291 65.02 211.461 64.285 211.801 63.655C212.141 63.015 212.606 62.52 213.196 62.17C213.796 61.82 214.466 61.645 215.206 61.645C215.846 61.645 216.441 61.795 216.991 62.095C217.541 62.385 217.961 62.77 218.251 63.25V58.9H219.631V70H218.251V68.455C217.981 68.945 217.581 69.35 217.051 69.67C216.521 69.98 215.901 70.135 215.191 70.135C214.461 70.135 213.796 69.955 213.196 69.595C212.606 69.235 212.141 68.73 211.801 68.08C211.461 67.43 211.291 66.69 211.291 65.86ZM218.251 65.875C218.251 65.255 218.126 64.715 217.876 64.255C217.626 63.795 217.286 63.445 216.856 63.205C216.436 62.955 215.971 62.83 215.461 62.83C214.951 62.83 214.486 62.95 214.066 63.19C213.646 63.43 213.311 63.78 213.061 64.24C212.811 64.7 212.686 65.24 212.686 65.86C212.686 66.49 212.811 67.04 213.061 67.51C213.311 67.97 213.646 68.325 214.066 68.575C214.486 68.815 214.951 68.935 215.461 68.935C215.971 68.935 216.436 68.815 216.856 68.575C217.286 68.325 217.626 67.97 217.876 67.51C218.126 67.04 218.251 66.495 218.251 65.875ZM42.655 88.575C42.655 88.835 42.64 89.11 42.61 89.4H36.04C36.09 90.21 36.365 90.845 36.865 91.305C37.375 91.755 37.99 91.98 38.71 91.98C39.3 91.98 39.79 91.845 40.18 91.575C40.58 91.295 40.86 90.925 41.02 90.465H42.49C42.27 91.255 41.83 91.9 41.17 92.4C40.51 92.89 39.69 93.135 38.71 93.135C37.93 93.135 37.23 92.96 36.61 92.61C36 92.26 35.52 91.765 35.17 91.125C34.82 90.475 34.645 89.725 34.645 88.875C34.645 88.025 34.815 87.28 35.155 86.64C35.495 86 35.97 85.51 36.58 85.17C37.2 84.82 37.91 84.645 38.71 84.645C39.49 84.645 40.18 84.815 40.78 85.155C41.38 85.495 41.84 85.965 42.16 86.565C42.49 87.155 42.655 87.825 42.655 88.575ZM41.245 88.29C41.245 87.77 41.13 87.325 40.9 86.955C40.67 86.575 40.355 86.29 39.955 86.1C39.565 85.9 39.13 85.8 38.65 85.8C37.96 85.8 37.37 86.02 36.88 86.46C36.4 86.9 36.125 87.51 36.055 88.29H41.245ZM48.7468 93L46.7968 89.94L44.9218 93H43.4968L46.1518 88.92L43.4968 84.78H45.0418L46.9918 87.825L48.8518 84.78H50.2768L47.6368 88.845L50.2918 93H48.7468ZM53.2995 85.905V90.75C53.2995 91.15 53.3845 91.435 53.5545 91.605C53.7245 91.765 54.0195 91.845 54.4395 91.845H55.4445V93H54.2145C53.4545 93 52.8845 92.825 52.5045 92.475C52.1245 92.125 51.9345 91.55 51.9345 90.75V85.905H50.8695V84.78H51.9345V82.71H53.2995V84.78H55.4445V85.905H53.2995ZM58.4634 86.115C58.7034 85.645 59.0434 85.28 59.4834 85.02C59.9334 84.76 60.4784 84.63 61.1184 84.63V86.04H60.7584C59.2284 86.04 58.4634 86.87 58.4634 88.53V93H57.0984V84.78H58.4634V86.115ZM62.1841 88.86C62.1841 88.02 62.3541 87.285 62.6941 86.655C63.0341 86.015 63.4991 85.52 64.0891 85.17C64.6891 84.82 65.3541 84.645 66.0841 84.645C66.8041 84.645 67.4291 84.8 67.9591 85.11C68.4891 85.42 68.8841 85.81 69.1441 86.28V84.78H70.5241V93H69.1441V91.47C68.8741 91.95 68.4691 92.35 67.9291 92.67C67.3991 92.98 66.7791 93.135 66.0691 93.135C65.3391 93.135 64.6791 92.955 64.0891 92.595C63.4991 92.235 63.0341 91.73 62.6941 91.08C62.3541 90.43 62.1841 89.69 62.1841 88.86ZM69.1441 88.875C69.1441 88.255 69.0191 87.715 68.7691 87.255C68.5191 86.795 68.1791 86.445 67.7491 86.205C67.3291 85.955 66.8641 85.83 66.3541 85.83C65.8441 85.83 65.3791 85.95 64.9591 86.19C64.5391 86.43 64.2041 86.78 63.9541 87.24C63.7041 87.7 63.5791 88.24 63.5791 88.86C63.5791 89.49 63.7041 90.04 63.9541 90.51C64.2041 90.97 64.5391 91.325 64.9591 91.575C65.3791 91.815 65.8441 91.935 66.3541 91.935C66.8641 91.935 67.3291 91.815 67.7491 91.575C68.1791 91.325 68.5191 90.97 68.7691 90.51C69.0191 90.04 69.1441 89.495 69.1441 88.875ZM72.3208 88.875C72.3208 88.025 72.4908 87.285 72.8308 86.655C73.1708 86.015 73.6408 85.52 74.2408 85.17C74.8508 84.82 75.5458 84.645 76.3258 84.645C77.3358 84.645 78.1658 84.89 78.8158 85.38C79.4758 85.87 79.9108 86.55 80.1208 87.42H78.6508C78.5108 86.92 78.2358 86.525 77.8258 86.235C77.4258 85.945 76.9258 85.8 76.3258 85.8C75.5458 85.8 74.9158 86.07 74.4358 86.61C73.9558 87.14 73.7158 87.895 73.7158 88.875C73.7158 89.865 73.9558 90.63 74.4358 91.17C74.9158 91.71 75.5458 91.98 76.3258 91.98C76.9258 91.98 77.4258 91.84 77.8258 91.56C78.2258 91.28 78.5008 90.88 78.6508 90.36H80.1208C79.9008 91.2 79.4608 91.875 78.8008 92.385C78.1408 92.885 77.3158 93.135 76.3258 93.135C75.5458 93.135 74.8508 92.96 74.2408 92.61C73.6408 92.26 73.1708 91.765 72.8308 91.125C72.4908 90.485 72.3208 89.735 72.3208 88.875ZM83.6071 85.905V90.75C83.6071 91.15 83.6921 91.435 83.8621 91.605C84.0321 91.765 84.3271 91.845 84.7471 91.845H85.7521V93H84.5221C83.7621 93 83.1921 92.825 82.8121 92.475C82.4321 92.125 82.2421 91.55 82.2421 90.75V85.905H81.1771V84.78H82.2421V82.71H83.6071V84.78H85.7521V85.905H83.6071ZM94.315 93.135C93.685 93.135 93.12 93.03 92.62 92.82C92.12 92.6 91.725 92.3 91.435 91.92C91.145 91.53 90.985 91.085 90.955 90.585H92.365C92.405 90.995 92.595 91.33 92.935 91.59C93.285 91.85 93.74 91.98 94.3 91.98C94.82 91.98 95.23 91.865 95.53 91.635C95.83 91.405 95.98 91.115 95.98 90.765C95.98 90.405 95.82 90.14 95.5 89.97C95.18 89.79 94.685 89.615 94.015 89.445C93.405 89.285 92.905 89.125 92.515 88.965C92.135 88.795 91.805 88.55 91.525 88.23C91.255 87.9 91.12 87.47 91.12 86.94C91.12 86.52 91.245 86.135 91.495 85.785C91.745 85.435 92.1 85.16 92.56 84.96C93.02 84.75 93.545 84.645 94.135 84.645C95.045 84.645 95.78 84.875 96.34 85.335C96.9 85.795 97.2 86.425 97.24 87.225H95.875C95.845 86.795 95.67 86.45 95.35 86.19C95.04 85.93 94.62 85.8 94.09 85.8C93.6 85.8 93.21 85.905 92.92 86.115C92.63 86.325 92.485 86.6 92.485 86.94C92.485 87.21 92.57 87.435 92.74 87.615C92.92 87.785 93.14 87.925 93.4 88.035C93.67 88.135 94.04 88.25 94.51 88.38C95.1 88.54 95.58 88.7 95.95 88.86C96.32 89.01 96.635 89.24 96.895 89.55C97.165 89.86 97.305 90.265 97.315 90.765C97.315 91.215 97.19 91.62 96.94 91.98C96.69 92.34 96.335 92.625 95.875 92.835C95.425 93.035 94.905 93.135 94.315 93.135ZM102.827 93.135C102.057 93.135 101.357 92.96 100.727 92.61C100.107 92.26 99.6169 91.765 99.2569 91.125C98.9069 90.475 98.7319 89.725 98.7319 88.875C98.7319 88.035 98.9119 87.295 99.2719 86.655C99.6419 86.005 100.142 85.51 100.772 85.17C101.402 84.82 102.107 84.645 102.887 84.645C103.667 84.645 104.372 84.82 105.002 85.17C105.632 85.51 106.127 86 106.487 86.64C106.857 87.28 107.042 88.025 107.042 88.875C107.042 89.725 106.852 90.475 106.472 91.125C106.102 91.765 105.597 92.26 104.957 92.61C104.317 92.96 103.607 93.135 102.827 93.135ZM102.827 91.935C103.317 91.935 103.777 91.82 104.207 91.59C104.637 91.36 104.982 91.015 105.242 90.555C105.512 90.095 105.647 89.535 105.647 88.875C105.647 88.215 105.517 87.655 105.257 87.195C104.997 86.735 104.657 86.395 104.237 86.175C103.817 85.945 103.362 85.83 102.872 85.83C102.372 85.83 101.912 85.945 101.492 86.175C101.082 86.395 100.752 86.735 100.502 87.195C100.252 87.655 100.127 88.215 100.127 88.875C100.127 89.545 100.247 90.11 100.487 90.57C100.737 91.03 101.067 91.375 101.477 91.605C101.887 91.825 102.337 91.935 102.827 91.935ZM118.722 84.63C119.362 84.63 119.932 84.765 120.432 85.035C120.932 85.295 121.327 85.69 121.617 86.22C121.907 86.75 122.052 87.395 122.052 88.155V93H120.702V88.35C120.702 87.53 120.497 86.905 120.087 86.475C119.687 86.035 119.142 85.815 118.452 85.815C117.742 85.815 117.177 86.045 116.757 86.505C116.337 86.955 116.127 87.61 116.127 88.47V93H114.777V88.35C114.777 87.53 114.572 86.905 114.162 86.475C113.762 86.035 113.217 85.815 112.527 85.815C111.817 85.815 111.252 86.045 110.832 86.505C110.412 86.955 110.202 87.61 110.202 88.47V93H108.837V84.78H110.202V85.965C110.472 85.535 110.832 85.205 111.282 84.975C111.742 84.745 112.247 84.63 112.797 84.63C113.487 84.63 114.097 84.785 114.627 85.095C115.157 85.405 115.552 85.86 115.812 86.46C116.042 85.88 116.422 85.43 116.952 85.11C117.482 84.79 118.072 84.63 118.722 84.63ZM131.791 88.575C131.791 88.835 131.776 89.11 131.746 89.4H125.176C125.226 90.21 125.501 90.845 126.001 91.305C126.511 91.755 127.126 91.98 127.846 91.98C128.436 91.98 128.926 91.845 129.316 91.575C129.716 91.295 129.996 90.925 130.156 90.465H131.626C131.406 91.255 130.966 91.9 130.306 92.4C129.646 92.89 128.826 93.135 127.846 93.135C127.066 93.135 126.366 92.96 125.746 92.61C125.136 92.26 124.656 91.765 124.306 91.125C123.956 90.475 123.781 89.725 123.781 88.875C123.781 88.025 123.951 87.28 124.291 86.64C124.631 86 125.106 85.51 125.716 85.17C126.336 84.82 127.046 84.645 127.846 84.645C128.626 84.645 129.316 84.815 129.916 85.155C130.516 85.495 130.976 85.965 131.296 86.565C131.626 87.155 131.791 87.825 131.791 88.575ZM130.381 88.29C130.381 87.77 130.266 87.325 130.036 86.955C129.806 86.575 129.491 86.29 129.091 86.1C128.701 85.9 128.266 85.8 127.786 85.8C127.096 85.8 126.506 86.02 126.016 86.46C125.536 86.9 125.261 87.51 125.191 88.29H130.381ZM138.957 81.9V93H137.592V81.9H138.957ZM140.773 88.86C140.773 88.02 140.943 87.285 141.283 86.655C141.623 86.015 142.088 85.52 142.678 85.17C143.278 84.82 143.943 84.645 144.673 84.645C145.393 84.645 146.018 84.8 146.548 85.11C147.078 85.42 147.473 85.81 147.733 86.28V84.78H149.113V93H147.733V91.47C147.463 91.95 147.058 92.35 146.518 92.67C145.988 92.98 145.368 93.135 144.658 93.135C143.928 93.135 143.268 92.955 142.678 92.595C142.088 92.235 141.623 91.73 141.283 91.08C140.943 90.43 140.773 89.69 140.773 88.86ZM147.733 88.875C147.733 88.255 147.608 87.715 147.358 87.255C147.108 86.795 146.768 86.445 146.338 86.205C145.918 85.955 145.453 85.83 144.943 85.83C144.433 85.83 143.968 85.95 143.548 86.19C143.128 86.43 142.793 86.78 142.543 87.24C142.293 87.7 142.168 88.24 142.168 88.86C142.168 89.49 142.293 90.04 142.543 90.51C142.793 90.97 143.128 91.325 143.548 91.575C143.968 91.815 144.433 91.935 144.943 91.935C145.453 91.935 145.918 91.815 146.338 91.575C146.768 91.325 147.108 90.97 147.358 90.51C147.608 90.04 147.733 89.495 147.733 88.875ZM154.48 91.74L157.03 84.78H158.485L155.26 93H153.67L150.445 84.78H151.915L154.48 91.74ZM159.318 88.86C159.318 88.02 159.488 87.285 159.828 86.655C160.168 86.015 160.633 85.52 161.223 85.17C161.823 84.82 162.488 84.645 163.218 84.645C163.938 84.645 164.563 84.8 165.093 85.11C165.623 85.42 166.018 85.81 166.278 86.28V84.78H167.658V93H166.278V91.47C166.008 91.95 165.603 92.35 165.063 92.67C164.533 92.98 163.913 93.135 163.203 93.135C162.473 93.135 161.813 92.955 161.223 92.595C160.633 92.235 160.168 91.73 159.828 91.08C159.488 90.43 159.318 89.69 159.318 88.86ZM166.278 88.875C166.278 88.255 166.153 87.715 165.903 87.255C165.653 86.795 165.313 86.445 164.883 86.205C164.463 85.955 163.998 85.83 163.488 85.83C162.978 85.83 162.513 85.95 162.093 86.19C161.673 86.43 161.338 86.78 161.088 87.24C160.838 87.7 160.713 88.24 160.713 88.86C160.713 89.49 160.838 90.04 161.088 90.51C161.338 90.97 161.673 91.325 162.093 91.575C162.513 91.815 162.978 91.935 163.488 91.935C163.998 91.935 164.463 91.815 164.883 91.575C165.313 91.325 165.653 90.97 165.903 90.51C166.153 90.04 166.278 89.495 166.278 88.875ZM175.629 85.905V90.75C175.629 91.15 175.714 91.435 175.884 91.605C176.054 91.765 176.349 91.845 176.769 91.845H177.774V93H176.544C175.784 93 175.214 92.825 174.834 92.475C174.454 92.125 174.264 91.55 174.264 90.75V85.905H173.199V84.78H174.264V82.71H175.629V84.78H177.774V85.905H175.629ZM183.012 93.135C182.242 93.135 181.542 92.96 180.912 92.61C180.292 92.26 179.802 91.765 179.442 91.125C179.092 90.475 178.917 89.725 178.917 88.875C178.917 88.035 179.097 87.295 179.457 86.655C179.827 86.005 180.327 85.51 180.957 85.17C181.587 84.82 182.292 84.645 183.072 84.645C183.852 84.645 184.557 84.82 185.187 85.17C185.817 85.51 186.312 86 186.672 86.64C187.042 87.28 187.227 88.025 187.227 88.875C187.227 89.725 187.037 90.475 186.657 91.125C186.287 91.765 185.782 92.26 185.142 92.61C184.502 92.96 183.792 93.135 183.012 93.135ZM183.012 91.935C183.502 91.935 183.962 91.82 184.392 91.59C184.822 91.36 185.167 91.015 185.427 90.555C185.697 90.095 185.832 89.535 185.832 88.875C185.832 88.215 185.702 87.655 185.442 87.195C185.182 86.735 184.842 86.395 184.422 86.175C184.002 85.945 183.547 85.83 183.057 85.83C182.557 85.83 182.097 85.945 181.677 86.175C181.267 86.395 180.937 86.735 180.687 87.195C180.437 87.655 180.312 88.215 180.312 88.875C180.312 89.545 180.432 90.11 180.672 90.57C180.922 91.03 181.252 91.375 181.662 91.605C182.072 91.825 182.522 91.935 183.012 91.935ZM194.386 86.31C194.666 85.82 195.076 85.42 195.616 85.11C196.156 84.8 196.771 84.645 197.461 84.645C198.201 84.645 198.866 84.82 199.456 85.17C200.046 85.52 200.511 86.015 200.851 86.655C201.191 87.285 201.361 88.02 201.361 88.86C201.361 89.69 201.191 90.43 200.851 91.08C200.511 91.73 200.041 92.235 199.441 92.595C198.851 92.955 198.191 93.135 197.461 93.135C196.751 93.135 196.126 92.98 195.586 92.67C195.056 92.36 194.656 91.965 194.386 91.485V93H193.021V81.9H194.386V86.31ZM199.966 88.86C199.966 88.24 199.841 87.7 199.591 87.24C199.341 86.78 199.001 86.43 198.571 86.19C198.151 85.95 197.686 85.83 197.176 85.83C196.676 85.83 196.211 85.955 195.781 86.205C195.361 86.445 195.021 86.8 194.761 87.27C194.511 87.73 194.386 88.265 194.386 88.875C194.386 89.495 194.511 90.04 194.761 90.51C195.021 90.97 195.361 91.325 195.781 91.575C196.211 91.815 196.676 91.935 197.176 91.935C197.686 91.935 198.151 91.815 198.571 91.575C199.001 91.325 199.341 90.97 199.591 90.51C199.841 90.04 199.966 89.49 199.966 88.86ZM210.658 88.575C210.658 88.835 210.643 89.11 210.613 89.4H204.043C204.093 90.21 204.368 90.845 204.868 91.305C205.378 91.755 205.993 91.98 206.713 91.98C207.303 91.98 207.793 91.845 208.183 91.575C208.583 91.295 208.863 90.925 209.023 90.465H210.493C210.273 91.255 209.833 91.9 209.173 92.4C208.513 92.89 207.693 93.135 206.713 93.135C205.933 93.135 205.233 92.96 204.613 92.61C204.003 92.26 203.523 91.765 203.173 91.125C202.823 90.475 202.648 89.725 202.648 88.875C202.648 88.025 202.818 87.28 203.158 86.64C203.498 86 203.973 85.51 204.583 85.17C205.203 84.82 205.913 84.645 206.713 84.645C207.493 84.645 208.183 84.815 208.783 85.155C209.383 85.495 209.843 85.965 210.163 86.565C210.493 87.155 210.658 87.825 210.658 88.575ZM209.248 88.29C209.248 87.77 209.133 87.325 208.903 86.955C208.673 86.575 208.358 86.29 207.958 86.1C207.568 85.9 207.133 85.8 206.653 85.8C205.963 85.8 205.373 86.02 204.883 86.46C204.403 86.9 204.128 87.51 204.058 88.29H209.248ZM215.85 84.645C216.56 84.645 217.18 84.8 217.71 85.11C218.25 85.42 218.65 85.81 218.91 86.28V84.78H220.29V93.18C220.29 93.93 220.13 94.595 219.81 95.175C219.49 95.765 219.03 96.225 218.43 96.555C217.84 96.885 217.15 97.05 216.36 97.05C215.28 97.05 214.38 96.795 213.66 96.285C212.94 95.775 212.515 95.08 212.385 94.2H213.735C213.885 94.7 214.195 95.1 214.665 95.4C215.135 95.71 215.7 95.865 216.36 95.865C217.11 95.865 217.72 95.63 218.19 95.16C218.67 94.69 218.91 94.03 218.91 93.18V91.455C218.64 91.935 218.24 92.335 217.71 92.655C217.18 92.975 216.56 93.135 215.85 93.135C215.12 93.135 214.455 92.955 213.855 92.595C213.265 92.235 212.8 91.73 212.46 91.08C212.12 90.43 211.95 89.69 211.95 88.86C211.95 88.02 212.12 87.285 212.46 86.655C212.8 86.015 213.265 85.52 213.855 85.17C214.455 84.82 215.12 84.645 215.85 84.645ZM218.91 88.875C218.91 88.255 218.785 87.715 218.535 87.255C218.285 86.795 217.945 86.445 217.515 86.205C217.095 85.955 216.63 85.83 216.12 85.83C215.61 85.83 215.145 85.95 214.725 86.19C214.305 86.43 213.97 86.78 213.72 87.24C213.47 87.7 213.345 88.24 213.345 88.86C213.345 89.49 213.47 90.04 213.72 90.51C213.97 90.97 214.305 91.325 214.725 91.575C215.145 91.815 215.61 91.935 216.12 91.935C216.63 91.935 217.095 91.815 217.515 91.575C217.945 91.325 218.285 90.97 218.535 90.51C218.785 90.04 218.91 89.495 218.91 88.875ZM223.301 83.445C223.041 83.445 222.821 83.355 222.641 83.175C222.461 82.995 222.371 82.775 222.371 82.515C222.371 82.255 222.461 82.035 222.641 81.855C222.821 81.675 223.041 81.585 223.301 81.585C223.551 81.585 223.761 81.675 223.931 81.855C224.111 82.035 224.201 82.255 224.201 82.515C224.201 82.775 224.111 82.995 223.931 83.175C223.761 83.355 223.551 83.445 223.301 83.445ZM223.961 84.78V93H222.596V84.78H223.961ZM230.293 84.63C231.293 84.63 232.103 84.935 232.723 85.545C233.343 86.145 233.653 87.015 233.653 88.155V93H232.303V88.35C232.303 87.53 232.098 86.905 231.688 86.475C231.278 86.035 230.718 85.815 230.008 85.815C229.288 85.815 228.713 86.04 228.283 86.49C227.863 86.94 227.653 87.595 227.653 88.455V93H226.288V84.78H227.653V85.95C227.923 85.53 228.288 85.205 228.748 84.975C229.218 84.745 229.733 84.63 230.293 84.63ZM34.645 111.875C34.645 111.025 34.815 110.285 35.155 109.655C35.495 109.015 35.965 108.52 36.565 108.17C37.175 107.82 37.87 107.645 38.65 107.645C39.66 107.645 40.49 107.89 41.14 108.38C41.8 108.87 42.235 109.55 42.445 110.42H40.975C40.835 109.92 40.56 109.525 40.15 109.235C39.75 108.945 39.25 108.8 38.65 108.8C37.87 108.8 37.24 109.07 36.76 109.61C36.28 110.14 36.04 110.895 36.04 111.875C36.04 112.865 36.28 113.63 36.76 114.17C37.24 114.71 37.87 114.98 38.65 114.98C39.25 114.98 39.75 114.84 40.15 114.56C40.55 114.28 40.825 113.88 40.975 113.36H42.445C42.225 114.2 41.785 114.875 41.125 115.385C40.465 115.885 39.64 116.135 38.65 116.135C37.87 116.135 37.175 115.96 36.565 115.61C35.965 115.26 35.495 114.765 35.155 114.125C34.815 113.485 34.645 112.735 34.645 111.875ZM47.8513 116.135C47.0813 116.135 46.3813 115.96 45.7513 115.61C45.1313 115.26 44.6413 114.765 44.2813 114.125C43.9313 113.475 43.7563 112.725 43.7563 111.875C43.7563 111.035 43.9363 110.295 44.2963 109.655C44.6663 109.005 45.1663 108.51 45.7963 108.17C46.4263 107.82 47.1313 107.645 47.9113 107.645C48.6913 107.645 49.3963 107.82 50.0263 108.17C50.6563 108.51 51.1513 109 51.5113 109.64C51.8813 110.28 52.0663 111.025 52.0663 111.875C52.0663 112.725 51.8763 113.475 51.4963 114.125C51.1263 114.765 50.6213 115.26 49.9813 115.61C49.3413 115.96 48.6313 116.135 47.8513 116.135ZM47.8513 114.935C48.3413 114.935 48.8013 114.82 49.2313 114.59C49.6613 114.36 50.0063 114.015 50.2663 113.555C50.5363 113.095 50.6713 112.535 50.6713 111.875C50.6713 111.215 50.5413 110.655 50.2813 110.195C50.0213 109.735 49.6813 109.395 49.2613 109.175C48.8413 108.945 48.3863 108.83 47.8963 108.83C47.3963 108.83 46.9363 108.945 46.5163 109.175C46.1063 109.395 45.7763 109.735 45.5263 110.195C45.2763 110.655 45.1513 111.215 45.1513 111.875C45.1513 112.545 45.2713 113.11 45.5113 113.57C45.7613 114.03 46.0913 114.375 46.5013 114.605C46.9113 114.825 47.3613 114.935 47.8513 114.935ZM57.4461 116.135C56.6761 116.135 55.9761 115.96 55.3461 115.61C54.7261 115.26 54.2361 114.765 53.8761 114.125C53.5261 113.475 53.3511 112.725 53.3511 111.875C53.3511 111.035 53.5311 110.295 53.8911 109.655C54.2611 109.005 54.7611 108.51 55.3911 108.17C56.0211 107.82 56.7261 107.645 57.5061 107.645C58.2861 107.645 58.9911 107.82 59.6211 108.17C60.2511 108.51 60.7461 109 61.1061 109.64C61.4761 110.28 61.6611 111.025 61.6611 111.875C61.6611 112.725 61.4711 113.475 61.0911 114.125C60.7211 114.765 60.2161 115.26 59.5761 115.61C58.9361 115.96 58.2261 116.135 57.4461 116.135ZM57.4461 114.935C57.9361 114.935 58.3961 114.82 58.8261 114.59C59.2561 114.36 59.6011 114.015 59.8611 113.555C60.1311 113.095 60.2661 112.535 60.2661 111.875C60.2661 111.215 60.1361 110.655 59.8761 110.195C59.6161 109.735 59.2761 109.395 58.8561 109.175C58.4361 108.945 57.9811 108.83 57.4911 108.83C56.9911 108.83 56.5311 108.945 56.1111 109.175C55.7011 109.395 55.3711 109.735 55.1211 110.195C54.8711 110.655 54.7461 111.215 54.7461 111.875C54.7461 112.545 54.8661 113.11 55.1061 113.57C55.3561 114.03 55.6861 114.375 56.0961 114.605C56.5061 114.825 56.9561 114.935 57.4461 114.935ZM68.0458 116L64.8208 112.37V116H63.4558V104.9H64.8208V111.425L67.9858 107.78H69.8908L66.0208 111.875L69.9058 116H68.0458ZM71.8805 106.445C71.6205 106.445 71.4005 106.355 71.2205 106.175C71.0405 105.995 70.9505 105.775 70.9505 105.515C70.9505 105.255 71.0405 105.035 71.2205 104.855C71.4005 104.675 71.6205 104.585 71.8805 104.585C72.1305 104.585 72.3405 104.675 72.5105 104.855C72.6905 105.035 72.7805 105.255 72.7805 105.515C72.7805 105.775 72.6905 105.995 72.5105 106.175C72.3405 106.355 72.1305 106.445 71.8805 106.445ZM72.5405 107.78V116H71.1755V107.78H72.5405ZM78.8719 107.63C79.8719 107.63 80.6819 107.935 81.3019 108.545C81.9219 109.145 82.2319 110.015 82.2319 111.155V116H80.8819V111.35C80.8819 110.53 80.6769 109.905 80.2669 109.475C79.8569 109.035 79.2969 108.815 78.5869 108.815C77.8669 108.815 77.2919 109.04 76.8619 109.49C76.4419 109.94 76.2319 110.595 76.2319 111.455V116H74.8669V107.78H76.2319V108.95C76.5019 108.53 76.8669 108.205 77.3269 107.975C77.7969 107.745 78.3119 107.63 78.8719 107.63ZM87.8516 107.645C88.5616 107.645 89.1816 107.8 89.7116 108.11C90.2516 108.42 90.6516 108.81 90.9116 109.28V107.78H92.2916V116.18C92.2916 116.93 92.1316 117.595 91.8116 118.175C91.4916 118.765 91.0316 119.225 90.4316 119.555C89.8416 119.885 89.1516 120.05 88.3616 120.05C87.2816 120.05 86.3816 119.795 85.6616 119.285C84.9416 118.775 84.5166 118.08 84.3866 117.2H85.7366C85.8866 117.7 86.1966 118.1 86.6666 118.4C87.1366 118.71 87.7016 118.865 88.3616 118.865C89.1116 118.865 89.7216 118.63 90.1916 118.16C90.6716 117.69 90.9116 117.03 90.9116 116.18V114.455C90.6416 114.935 90.2416 115.335 89.7116 115.655C89.1816 115.975 88.5616 116.135 87.8516 116.135C87.1216 116.135 86.4566 115.955 85.8566 115.595C85.2666 115.235 84.8016 114.73 84.4616 114.08C84.1216 113.43 83.9516 112.69 83.9516 111.86C83.9516 111.02 84.1216 110.285 84.4616 109.655C84.8016 109.015 85.2666 108.52 85.8566 108.17C86.4566 107.82 87.1216 107.645 87.8516 107.645ZM90.9116 111.875C90.9116 111.255 90.7866 110.715 90.5366 110.255C90.2866 109.795 89.9466 109.445 89.5166 109.205C89.0966 108.955 88.6316 108.83 88.1216 108.83C87.6116 108.83 87.1466 108.95 86.7266 109.19C86.3066 109.43 85.9716 109.78 85.7216 110.24C85.4716 110.7 85.3466 111.24 85.3466 111.86C85.3466 112.49 85.4716 113.04 85.7216 113.51C85.9716 113.97 86.3066 114.325 86.7266 114.575C87.1466 114.815 87.6116 114.935 88.1216 114.935C88.6316 114.935 89.0966 114.815 89.5166 114.575C89.9466 114.325 90.2866 113.97 90.5366 113.51C90.7866 113.04 90.9116 112.495 90.9116 111.875ZM95.0334 116.09C94.7734 116.09 94.5534 116 94.3734 115.82C94.1934 115.64 94.1034 115.42 94.1034 115.16C94.1034 114.9 94.1934 114.68 94.3734 114.5C94.5534 114.32 94.7734 114.23 95.0334 114.23C95.2834 114.23 95.4934 114.32 95.6634 114.5C95.8434 114.68 95.9334 114.9 95.9334 115.16C95.9334 115.42 95.8434 115.64 95.6634 115.82C95.4934 116 95.2834 116.09 95.0334 116.09Z" fill="#513131"/>
<line x1="8" y1="43.5" x2="268" y2="43.5" stroke="black"/>
<defs>
<filter id="filter0_d_7_1513" x="0" y="0" width="276" height="147" filterUnits="userSpaceOnUse" color-interpolation-filters="sRGB">
<feFlood flood-opacity="0" result="BackgroundImageFix"/>
<feColorMatrix in="SourceAlpha" type="matrix" values="0 0 0 0 0 0 0 0 0 0 0 0 0 0 0 0 0 0 127 0" result="hardAlpha"/>
<feOffset dy="4"/>
<feGaussianBlur stdDeviation="4"/>
<feComposite in2="hardAlpha" operator="out"/>
<feColorMatrix type="matrix" values="0 0 0 0 0 0 0 0 0 0 0 0 0 0 0 0 0 0 0.25 0"/>
<feBlend mode="normal" in2="BackgroundImageFix" result="effect1_dropShadow_7_1513"/>
<feBlend mode="normal" in="SourceGraphic" in2="effect1_dropShadow_7_1513" result="shape"/>
</filter>
<linearGradient id="paint0_linear_7_1513" x1="8" y1="135" x2="254.884" y2="-17.2658" gradientUnits="userSpaceOnUse">
<stop stop-color="#E6F8DB"/>
<stop offset="1" stop-color="#F6F8ED"/>
</linearGradient>
</defs>
</svg>
