<svg width="276" height="147" viewBox="0 0 276 147" fill="none" xmlns="http://www.w3.org/2000/svg">
<g filter="url(#filter0_d_7_2143)">
<rect x="8" y="4" width="260" height="131" rx="15" fill="url(#paint0_linear_7_2143)"/>
<rect x="8.5" y="4.5" width="259" height="130" rx="14.5" stroke="#F6F8ED"/>
</g>
<path d="M31.9553 30V28.7273L35.8928 24.6477C36.3132 24.2045 36.6598 23.8163 36.9325 23.483C37.209 23.1458 37.4155 22.8258 37.5518 22.5227C37.6882 22.2197 37.7564 21.8977 37.7564 21.5568C37.7564 21.1705 37.6655 20.8371 37.4837 20.5568C37.3018 20.2727 37.0537 20.0549 36.7393 19.9034C36.425 19.7481 36.0708 19.6705 35.6768 19.6705C35.2602 19.6705 34.8965 19.7557 34.5859 19.9261C34.2753 20.0966 34.0367 20.3371 33.87 20.6477C33.7034 20.9583 33.62 21.322 33.62 21.7386H31.9439C31.9439 21.0303 32.1068 20.411 32.4325 19.8807C32.7583 19.3504 33.2053 18.9394 33.7734 18.6477C34.3416 18.3523 34.9875 18.2045 35.7109 18.2045C36.442 18.2045 37.0859 18.3504 37.6428 18.642C38.2034 18.9299 38.6409 19.3239 38.9553 19.8239C39.2696 20.3201 39.4268 20.8807 39.4268 21.5057C39.4268 21.9375 39.3454 22.3598 39.1825 22.7727C39.0234 23.1856 38.745 23.6458 38.3473 24.1534C37.9496 24.6572 37.3965 25.2689 36.6882 25.9886L34.3757 28.4091V28.4943H39.6143V30H31.9553ZM42.9098 30.108C42.5992 30.108 42.3321 29.9981 42.1087 29.7784C41.8852 29.5549 41.7734 29.286 41.7734 28.9716C41.7734 28.661 41.8852 28.3958 42.1087 28.1761C42.3321 27.9527 42.5992 27.8409 42.9098 27.8409C43.2204 27.8409 43.4875 27.9527 43.7109 28.1761C43.9344 28.3958 44.0462 28.661 44.0462 28.9716C44.0462 29.1799 43.9931 29.3712 43.8871 29.5455C43.7848 29.7159 43.6484 29.8523 43.478 29.9545C43.3075 30.0568 43.1181 30.108 42.9098 30.108ZM52.0675 18.3636V30H50.3686V18.3636H52.0675ZM58.1143 30.1761C57.2545 30.1761 56.514 29.9924 55.8928 29.625C55.2753 29.2538 54.7981 28.733 54.4609 28.0625C54.1276 27.3883 53.9609 26.5985 53.9609 25.6932C53.9609 24.7992 54.1276 24.0114 54.4609 23.3295C54.7981 22.6477 55.2678 22.1155 55.87 21.733C56.4761 21.3504 57.1844 21.1591 57.995 21.1591C58.4875 21.1591 58.9647 21.2405 59.4268 21.4034C59.889 21.5663 60.3037 21.822 60.6712 22.1705C61.0386 22.5189 61.3284 22.9716 61.5405 23.5284C61.7526 24.0814 61.8587 24.7538 61.8587 25.5455V26.1477H54.9212V24.875H60.1939C60.1939 24.428 60.103 24.0322 59.9212 23.6875C59.7393 23.339 59.4837 23.0644 59.1541 22.8636C58.8284 22.6629 58.4458 22.5625 58.0064 22.5625C57.5291 22.5625 57.1125 22.6799 56.7564 22.9148C56.4041 23.1458 56.1314 23.4489 55.9382 23.8239C55.7488 24.1951 55.6541 24.5985 55.6541 25.0341V26.0284C55.6541 26.6117 55.7564 27.108 55.9609 27.517C56.1693 27.9261 56.459 28.2386 56.8303 28.4545C57.2015 28.6667 57.6352 28.7727 58.1314 28.7727C58.4534 28.7727 58.7469 28.7273 59.0121 28.6364C59.2772 28.5417 59.5064 28.4015 59.6996 28.2159C59.8928 28.0303 60.0405 27.8011 60.1428 27.5284L61.7507 27.8182C61.6219 28.2917 61.3909 28.7064 61.0575 29.0625C60.728 29.4148 60.3132 29.6894 59.8132 29.8864C59.317 30.0795 58.7507 30.1761 58.1143 30.1761ZM67.8175 21.2727V22.6364H63.0504V21.2727H67.8175ZM64.3288 19.1818H66.0277V27.4375C66.0277 27.767 66.0769 28.0152 66.1754 28.1818C66.2739 28.3447 66.4008 28.4564 66.5561 28.517C66.7152 28.5739 66.8875 28.6023 67.0732 28.6023C67.2095 28.6023 67.3288 28.5928 67.4311 28.5739C67.5334 28.5549 67.6129 28.5398 67.6697 28.5284L67.9766 29.9318C67.8781 29.9697 67.7379 30.0076 67.5561 30.0455C67.3743 30.0871 67.147 30.1098 66.8743 30.1136C66.4273 30.1212 66.0107 30.0417 65.6243 29.875C65.2379 29.7083 64.9254 29.4508 64.6868 29.1023C64.4482 28.7538 64.3288 28.3163 64.3288 27.7898V19.1818ZM78.005 21.2727V22.6364H73.2379V21.2727H78.005ZM74.5163 19.1818H76.2152V27.4375C76.2152 27.767 76.2644 28.0152 76.3629 28.1818C76.4614 28.3447 76.5883 28.4564 76.7436 28.517C76.9027 28.5739 77.075 28.6023 77.2607 28.6023C77.397 28.6023 77.5163 28.5928 77.6186 28.5739C77.7209 28.5549 77.8004 28.5398 77.8572 28.5284L78.1641 29.9318C78.0656 29.9697 77.9254 30.0076 77.7436 30.0455C77.5618 30.0871 77.3345 30.1098 77.0618 30.1136C76.6148 30.1212 76.1982 30.0417 75.8118 29.875C75.4254 29.7083 75.1129 29.4508 74.8743 29.1023C74.6357 28.7538 74.5163 28.3163 74.5163 27.7898V19.1818ZM81.7706 24.8182V30H80.0717V18.3636H81.7479V22.6932H81.8558C82.0604 22.2235 82.3729 21.8504 82.7933 21.5739C83.2138 21.2973 83.763 21.1591 84.4411 21.1591C85.0395 21.1591 85.5623 21.2822 86.0092 21.5284C86.46 21.7746 86.8085 22.142 87.0547 22.6307C87.3047 23.1155 87.4297 23.7216 87.4297 24.4489V30H85.7308V24.6534C85.7308 24.0133 85.5661 23.517 85.2365 23.1648C84.907 22.8087 84.4486 22.6307 83.8615 22.6307C83.46 22.6307 83.1001 22.7159 82.782 22.8864C82.4676 23.0568 82.2195 23.3068 82.0376 23.6364C81.8596 23.9621 81.7706 24.3561 81.7706 24.8182ZM93.4581 30.1761C92.5982 30.1761 91.8577 29.9924 91.2365 29.625C90.6191 29.2538 90.1418 28.733 89.8047 28.0625C89.4714 27.3883 89.3047 26.5985 89.3047 25.6932C89.3047 24.7992 89.4714 24.0114 89.8047 23.3295C90.1418 22.6477 90.6115 22.1155 91.2138 21.733C91.8198 21.3504 92.5282 21.1591 93.3388 21.1591C93.8312 21.1591 94.3085 21.2405 94.7706 21.4034C95.2327 21.5663 95.6475 21.822 96.0149 22.1705C96.3823 22.5189 96.6721 22.9716 96.8842 23.5284C97.0964 24.0814 97.2024 24.7538 97.2024 25.5455V26.1477H90.2649V24.875H95.5376C95.5376 24.428 95.4467 24.0322 95.2649 23.6875C95.0831 23.339 94.8274 23.0644 94.4979 22.8636C94.1721 22.6629 93.7895 22.5625 93.3501 22.5625C92.8729 22.5625 92.4562 22.6799 92.1001 22.9148C91.7479 23.1458 91.4751 23.4489 91.282 23.8239C91.0926 24.1951 90.9979 24.5985 90.9979 25.0341V26.0284C90.9979 26.6117 91.1001 27.108 91.3047 27.517C91.513 27.9261 91.8028 28.2386 92.174 28.4545C92.5452 28.6667 92.9789 28.7727 93.4751 28.7727C93.7971 28.7727 94.0907 28.7273 94.3558 28.6364C94.621 28.5417 94.8501 28.4015 95.0433 28.2159C95.2365 28.0303 95.3842 27.8011 95.4865 27.5284L97.0945 27.8182C96.9657 28.2917 96.7346 28.7064 96.4013 29.0625C96.0717 29.4148 95.657 29.6894 95.157 29.8864C94.6607 30.0795 94.0945 30.1761 93.4581 30.1761ZM107.475 21.2727V22.6364H102.543V21.2727H107.475ZM103.896 30V20.2614C103.896 19.7159 104.015 19.2633 104.254 18.9034C104.492 18.5398 104.808 18.2689 105.202 18.0909C105.596 17.9091 106.024 17.8182 106.487 17.8182C106.827 17.8182 107.119 17.8466 107.362 17.9034C107.604 17.9564 107.784 18.0057 107.901 18.0511L107.504 19.4261C107.424 19.4034 107.322 19.3769 107.197 19.3466C107.072 19.3125 106.92 19.2955 106.742 19.2955C106.329 19.2955 106.034 19.3977 105.856 19.6023C105.682 19.8068 105.594 20.1023 105.594 20.4886V30H103.896ZM109.228 30V21.2727H110.87V22.6591H110.961C111.12 22.1894 111.4 21.8201 111.802 21.5511C112.207 21.2784 112.665 21.142 113.177 21.142C113.283 21.142 113.408 21.1458 113.552 21.1534C113.7 21.161 113.815 21.1705 113.898 21.1818V22.8068C113.83 22.7879 113.709 22.767 113.535 22.7443C113.361 22.7178 113.186 22.7045 113.012 22.7045C112.611 22.7045 112.253 22.7898 111.938 22.9602C111.628 23.1269 111.381 23.3598 111.2 23.6591C111.018 23.9545 110.927 24.2917 110.927 24.6705V30H109.228ZM118.732 30.1761C117.914 30.1761 117.2 29.9886 116.59 29.6136C115.98 29.2386 115.507 28.714 115.17 28.0398C114.833 27.3655 114.664 26.5777 114.664 25.6761C114.664 24.7708 114.833 23.9792 115.17 23.3011C115.507 22.6231 115.98 22.0966 116.59 21.7216C117.2 21.3466 117.914 21.1591 118.732 21.1591C119.55 21.1591 120.264 21.3466 120.874 21.7216C121.484 22.0966 121.958 22.6231 122.295 23.3011C122.632 23.9792 122.8 24.7708 122.8 25.6761C122.8 26.5777 122.632 27.3655 122.295 28.0398C121.958 28.714 121.484 29.2386 120.874 29.6136C120.264 29.9886 119.55 30.1761 118.732 30.1761ZM118.738 28.75C119.268 28.75 119.708 28.6098 120.056 28.3295C120.405 28.0492 120.662 27.6761 120.829 27.2102C120.999 26.7443 121.085 26.2311 121.085 25.6705C121.085 25.1136 120.999 24.6023 120.829 24.1364C120.662 23.6667 120.405 23.2898 120.056 23.0057C119.708 22.7216 119.268 22.5795 118.738 22.5795C118.204 22.5795 117.761 22.7216 117.408 23.0057C117.06 23.2898 116.8 23.6667 116.63 24.1364C116.463 24.6023 116.38 25.1136 116.38 25.6705C116.38 26.2311 116.463 26.7443 116.63 27.2102C116.8 27.6761 117.06 28.0492 117.408 28.3295C117.761 28.6098 118.204 28.75 118.738 28.75ZM128.356 33.4545C127.663 33.4545 127.066 33.3636 126.566 33.1818C126.07 33 125.665 32.7595 125.35 32.4602C125.036 32.161 124.801 31.8333 124.646 31.4773L126.106 30.875C126.208 31.0417 126.344 31.2178 126.515 31.4034C126.689 31.5928 126.924 31.7538 127.219 31.8864C127.519 32.0189 127.903 32.0852 128.373 32.0852C129.017 32.0852 129.549 31.928 129.969 31.6136C130.39 31.303 130.6 30.8068 130.6 30.125V28.4091H130.492C130.39 28.5947 130.242 28.8011 130.049 29.0284C129.86 29.2557 129.598 29.4527 129.265 29.6193C128.932 29.786 128.498 29.8693 127.964 29.8693C127.274 29.8693 126.653 29.7083 126.1 29.3864C125.551 29.0606 125.115 28.5814 124.793 27.9489C124.475 27.3125 124.316 26.5303 124.316 25.6023C124.316 24.6742 124.473 23.8788 124.788 23.2159C125.106 22.553 125.541 22.0455 126.094 21.6932C126.647 21.3371 127.274 21.1591 127.975 21.1591C128.517 21.1591 128.954 21.25 129.288 21.4318C129.621 21.6098 129.88 21.8182 130.066 22.0568C130.255 22.2955 130.401 22.5057 130.504 22.6875H130.629V21.2727H132.293V30.1932C132.293 30.9432 132.119 31.5587 131.771 32.0398C131.422 32.5208 130.951 32.8769 130.356 33.108C129.765 33.339 129.098 33.4545 128.356 33.4545ZM128.339 28.4602C128.827 28.4602 129.24 28.3466 129.577 28.1193C129.918 27.8883 130.176 27.5587 130.35 27.1307C130.528 26.6989 130.617 26.1818 130.617 25.5795C130.617 24.9924 130.53 24.4754 130.356 24.0284C130.182 23.5814 129.926 23.233 129.589 22.983C129.252 22.7292 128.835 22.6023 128.339 22.6023C127.827 22.6023 127.401 22.7348 127.06 23C126.719 23.2614 126.462 23.6174 126.288 24.0682C126.117 24.5189 126.032 25.0227 126.032 25.5795C126.032 26.1515 126.119 26.6534 126.293 27.0852C126.468 27.517 126.725 27.8542 127.066 28.0966C127.411 28.339 127.835 28.4602 128.339 28.4602ZM142.482 30.1761C141.638 30.1761 140.91 29.9848 140.3 29.6023C139.694 29.2159 139.228 28.6837 138.903 28.0057C138.577 27.3277 138.414 26.5511 138.414 25.6761C138.414 24.7898 138.581 24.0076 138.914 23.3295C139.247 22.6477 139.717 22.1155 140.323 21.733C140.929 21.3504 141.643 21.1591 142.465 21.1591C143.128 21.1591 143.719 21.2822 144.238 21.5284C144.757 21.7708 145.175 22.1117 145.494 22.5511C145.816 22.9905 146.007 23.5038 146.067 24.0909H144.414C144.323 23.6818 144.115 23.3295 143.789 23.0341C143.467 22.7386 143.035 22.5909 142.494 22.5909C142.02 22.5909 141.605 22.7159 141.249 22.9659C140.897 23.2121 140.622 23.5644 140.425 24.0227C140.228 24.4773 140.13 25.0152 140.13 25.6364C140.13 26.2727 140.227 26.822 140.42 27.2841C140.613 27.7462 140.886 28.1042 141.238 28.358C141.594 28.6117 142.013 28.7386 142.494 28.7386C142.816 28.7386 143.107 28.6799 143.369 28.5625C143.634 28.4413 143.855 28.2689 144.033 28.0455C144.215 27.822 144.342 27.553 144.414 27.2386H146.067C146.007 27.803 145.823 28.3068 145.516 28.75C145.21 29.1932 144.799 29.5417 144.283 29.7955C143.772 30.0492 143.172 30.1761 142.482 30.1761ZM151.56 30.1761C150.742 30.1761 150.028 29.9886 149.418 29.6136C148.808 29.2386 148.335 28.714 147.998 28.0398C147.661 27.3655 147.492 26.5777 147.492 25.6761C147.492 24.7708 147.661 23.9792 147.998 23.3011C148.335 22.6231 148.808 22.0966 149.418 21.7216C150.028 21.3466 150.742 21.1591 151.56 21.1591C152.379 21.1591 153.093 21.3466 153.702 21.7216C154.312 22.0966 154.786 22.6231 155.123 23.3011C155.46 23.9792 155.629 24.7708 155.629 25.6761C155.629 26.5777 155.46 27.3655 155.123 28.0398C154.786 28.714 154.312 29.2386 153.702 29.6136C153.093 29.9886 152.379 30.1761 151.56 30.1761ZM151.566 28.75C152.096 28.75 152.536 28.6098 152.884 28.3295C153.233 28.0492 153.49 27.6761 153.657 27.2102C153.827 26.7443 153.913 26.2311 153.913 25.6705C153.913 25.1136 153.827 24.6023 153.657 24.1364C153.49 23.6667 153.233 23.2898 152.884 23.0057C152.536 22.7216 152.096 22.5795 151.566 22.5795C151.032 22.5795 150.589 22.7216 150.237 23.0057C149.888 23.2898 149.629 23.6667 149.458 24.1364C149.291 24.6023 149.208 25.1136 149.208 25.6705C149.208 26.2311 149.291 26.7443 149.458 27.2102C149.629 27.6761 149.888 28.0492 150.237 28.3295C150.589 28.6098 151.032 28.75 151.566 28.75ZM161.201 30.1761C160.383 30.1761 159.669 29.9886 159.059 29.6136C158.449 29.2386 157.976 28.714 157.638 28.0398C157.301 27.3655 157.133 26.5777 157.133 25.6761C157.133 24.7708 157.301 23.9792 157.638 23.3011C157.976 22.6231 158.449 22.0966 159.059 21.7216C159.669 21.3466 160.383 21.1591 161.201 21.1591C162.019 21.1591 162.733 21.3466 163.343 21.7216C163.953 22.0966 164.426 22.6231 164.763 23.3011C165.101 23.9792 165.269 24.7708 165.269 25.6761C165.269 26.5777 165.101 27.3655 164.763 28.0398C164.426 28.714 163.953 29.2386 163.343 29.6136C162.733 29.9886 162.019 30.1761 161.201 30.1761ZM161.207 28.75C161.737 28.75 162.176 28.6098 162.525 28.3295C162.873 28.0492 163.131 27.6761 163.298 27.2102C163.468 26.7443 163.553 26.2311 163.553 25.6705C163.553 25.1136 163.468 24.6023 163.298 24.1364C163.131 23.6667 162.873 23.2898 162.525 23.0057C162.176 22.7216 161.737 22.5795 161.207 22.5795C160.673 22.5795 160.229 22.7216 159.877 23.0057C159.529 23.2898 159.269 23.6667 159.099 24.1364C158.932 24.6023 158.849 25.1136 158.849 25.6705C158.849 26.2311 158.932 26.7443 159.099 27.2102C159.269 27.6761 159.529 28.0492 159.877 28.3295C160.229 28.6098 160.673 28.75 161.207 28.75ZM168.728 27.0398L168.717 24.9659H169.012L172.489 21.2727H174.523L170.558 25.4773H170.29L168.728 27.0398ZM167.165 30V18.3636H168.864V30H167.165ZM172.677 30L169.552 25.8523L170.722 24.6648L174.762 30H172.677ZM184.38 21.2727V22.6364H179.613V21.2727H184.38ZM180.891 19.1818H182.59V27.4375C182.59 27.767 182.639 28.0152 182.738 28.1818C182.836 28.3447 182.963 28.4564 183.119 28.517C183.278 28.5739 183.45 28.6023 183.636 28.6023C183.772 28.6023 183.891 28.5928 183.994 28.5739C184.096 28.5549 184.175 28.5398 184.232 28.5284L184.539 29.9318C184.441 29.9697 184.3 30.0076 184.119 30.0455C183.937 30.0871 183.71 30.1098 183.437 30.1136C182.99 30.1212 182.573 30.0417 182.187 29.875C181.8 29.7083 181.488 29.4508 181.249 29.1023C181.011 28.7538 180.891 28.3163 180.891 27.7898V19.1818ZM188.146 24.8182V30H186.447V18.3636H188.123V22.6932H188.231C188.435 22.2235 188.748 21.8504 189.168 21.5739C189.589 21.2973 190.138 21.1591 190.816 21.1591C191.415 21.1591 191.937 21.2822 192.384 21.5284C192.835 21.7746 193.183 22.142 193.43 22.6307C193.68 23.1155 193.805 23.7216 193.805 24.4489V30H192.106V24.6534C192.106 24.0133 191.941 23.517 191.612 23.1648C191.282 22.8087 190.824 22.6307 190.237 22.6307C189.835 22.6307 189.475 22.7159 189.157 22.8864C188.843 23.0568 188.594 23.3068 188.413 23.6364C188.235 23.9621 188.146 24.3561 188.146 24.8182ZM199.833 30.1761C198.973 30.1761 198.233 29.9924 197.612 29.625C196.994 29.2538 196.517 28.733 196.18 28.0625C195.846 27.3883 195.68 26.5985 195.68 25.6932C195.68 24.7992 195.846 24.0114 196.18 23.3295C196.517 22.6477 196.987 22.1155 197.589 21.733C198.195 21.3504 198.903 21.1591 199.714 21.1591C200.206 21.1591 200.683 21.2405 201.146 21.4034C201.608 21.5663 202.022 21.822 202.39 22.1705C202.757 22.5189 203.047 22.9716 203.259 23.5284C203.471 24.0814 203.577 24.7538 203.577 25.5455V26.1477H196.64V24.875H201.913C201.913 24.428 201.822 24.0322 201.64 23.6875C201.458 23.339 201.202 23.0644 200.873 22.8636C200.547 22.6629 200.165 22.5625 199.725 22.5625C199.248 22.5625 198.831 22.6799 198.475 22.9148C198.123 23.1458 197.85 23.4489 197.657 23.8239C197.468 24.1951 197.373 24.5985 197.373 25.0341V26.0284C197.373 26.6117 197.475 27.108 197.68 27.517C197.888 27.9261 198.178 28.2386 198.549 28.4545C198.92 28.6667 199.354 28.7727 199.85 28.7727C200.172 28.7727 200.466 28.7273 200.731 28.6364C200.996 28.5417 201.225 28.4015 201.418 28.2159C201.612 28.0303 201.759 27.8011 201.862 27.5284L203.469 27.8182C203.341 28.2917 203.11 28.7064 202.776 29.0625C202.447 29.4148 202.032 29.6894 201.532 29.8864C201.036 30.0795 200.469 30.1761 199.833 30.1761ZM216.237 23.4034L214.697 23.6761C214.632 23.4792 214.53 23.2917 214.39 23.1136C214.254 22.9356 214.068 22.7898 213.833 22.6761C213.598 22.5625 213.305 22.5057 212.952 22.5057C212.471 22.5057 212.07 22.6136 211.748 22.8295C211.426 23.0417 211.265 23.3163 211.265 23.6534C211.265 23.9451 211.373 24.1799 211.589 24.358C211.805 24.536 212.153 24.6818 212.634 24.7955L214.021 25.1136C214.824 25.2992 215.422 25.5852 215.816 25.9716C216.21 26.358 216.407 26.8598 216.407 27.4773C216.407 28 216.255 28.4659 215.952 28.875C215.653 29.2803 215.235 29.5985 214.697 29.8295C214.163 30.0606 213.543 30.1761 212.839 30.1761C211.862 30.1761 211.064 29.9678 210.447 29.5511C209.829 29.1307 209.451 28.5341 209.31 27.7614L210.952 27.5114C211.055 27.9394 211.265 28.2633 211.583 28.483C211.901 28.6989 212.316 28.8068 212.827 28.8068C213.384 28.8068 213.829 28.6913 214.163 28.4602C214.496 28.2254 214.663 27.9394 214.663 27.6023C214.663 27.3295 214.56 27.1004 214.356 26.9148C214.155 26.7292 213.846 26.589 213.43 26.4943L211.952 26.1705C211.138 25.9848 210.536 25.6894 210.146 25.2841C209.759 24.8788 209.566 24.3655 209.566 23.7443C209.566 23.2292 209.71 22.7784 209.998 22.392C210.286 22.0057 210.683 21.7045 211.191 21.4886C211.699 21.2689 212.28 21.1591 212.935 21.1591C213.879 21.1591 214.621 21.3636 215.163 21.7727C215.704 22.178 216.062 22.7216 216.237 23.4034ZM221.951 30.1761C221.133 30.1761 220.419 29.9886 219.809 29.6136C219.199 29.2386 218.726 28.714 218.388 28.0398C218.051 27.3655 217.883 26.5777 217.883 25.6761C217.883 24.7708 218.051 23.9792 218.388 23.3011C218.726 22.6231 219.199 22.0966 219.809 21.7216C220.419 21.3466 221.133 21.1591 221.951 21.1591C222.769 21.1591 223.483 21.3466 224.093 21.7216C224.703 22.0966 225.176 22.6231 225.513 23.3011C225.851 23.9792 226.019 24.7708 226.019 25.6761C226.019 26.5777 225.851 27.3655 225.513 28.0398C225.176 28.714 224.703 29.2386 224.093 29.6136C223.483 29.9886 222.769 30.1761 221.951 30.1761ZM221.957 28.75C222.487 28.75 222.926 28.6098 223.275 28.3295C223.623 28.0492 223.881 27.6761 224.048 27.2102C224.218 26.7443 224.303 26.2311 224.303 25.6705C224.303 25.1136 224.218 24.6023 224.048 24.1364C223.881 23.6667 223.623 23.2898 223.275 23.0057C222.926 22.7216 222.487 22.5795 221.957 22.5795C221.423 22.5795 220.979 22.7216 220.627 23.0057C220.279 23.2898 220.019 23.6667 219.849 24.1364C219.682 24.6023 219.599 25.1136 219.599 25.6705C219.599 26.2311 219.682 26.7443 219.849 27.2102C220.019 27.6761 220.279 28.0492 220.627 28.3295C220.979 28.6098 221.423 28.75 221.957 28.75ZM233.444 26.3807V21.2727H235.148V30H233.478V28.4886H233.387C233.186 28.9545 232.864 29.3428 232.421 29.6534C231.982 29.9602 231.434 30.1136 230.779 30.1136C230.219 30.1136 229.722 29.9905 229.29 29.7443C228.862 29.4943 228.525 29.125 228.279 28.6364C228.037 28.1477 227.915 27.5436 227.915 26.8239V21.2727H229.614V26.6193C229.614 27.214 229.779 27.6875 230.109 28.0398C230.438 28.392 230.866 28.5682 231.393 28.5682C231.711 28.5682 232.027 28.4886 232.342 28.3295C232.66 28.1705 232.923 27.9299 233.131 27.608C233.344 27.286 233.448 26.8769 233.444 26.3807ZM237.431 33.2727V21.2727H239.09V22.6875H239.232C239.331 22.5057 239.473 22.2955 239.658 22.0568C239.844 21.8182 240.102 21.6098 240.431 21.4318C240.761 21.25 241.196 21.1591 241.738 21.1591C242.442 21.1591 243.071 21.3371 243.624 21.6932C244.177 22.0492 244.611 22.5625 244.925 23.233C245.244 23.9034 245.403 24.7102 245.403 25.6534C245.403 26.5966 245.246 27.4053 244.931 28.0795C244.617 28.75 244.185 29.267 243.636 29.6307C243.086 29.9905 242.46 30.1705 241.755 30.1705C241.225 30.1705 240.791 30.0814 240.454 29.9034C240.121 29.7254 239.859 29.517 239.67 29.2784C239.48 29.0398 239.335 28.8277 239.232 28.642H239.13V33.2727H237.431ZM239.096 25.6364C239.096 26.25 239.185 26.7879 239.363 27.25C239.541 27.7121 239.799 28.0739 240.136 28.3352C240.473 28.5928 240.886 28.7216 241.374 28.7216C241.882 28.7216 242.306 28.5871 242.647 28.3182C242.988 28.0455 243.246 27.6761 243.42 27.2102C243.598 26.7443 243.687 26.2197 243.687 25.6364C243.687 25.0606 243.6 24.5436 243.425 24.0852C243.255 23.6269 242.997 23.2652 242.653 23C242.312 22.7348 241.886 22.6023 241.374 22.6023C240.882 22.6023 240.465 22.7292 240.124 22.983C239.787 23.2367 239.531 23.5909 239.357 24.0455C239.183 24.5 239.096 25.0303 239.096 25.6364Z" fill="#513131"/>
<path d="M38.545 61.645C39.255 61.645 39.875 61.8 40.405 62.11C40.945 62.42 41.345 62.81 41.605 63.28V61.78H42.985V70.18C42.985 70.93 42.825 71.595 42.505 72.175C42.185 72.765 41.725 73.225 41.125 73.555C40.535 73.885 39.845 74.05 39.055 74.05C37.975 74.05 37.075 73.795 36.355 73.285C35.635 72.775 35.21 72.08 35.08 71.2H36.43C36.58 71.7 36.89 72.1 37.36 72.4C37.83 72.71 38.395 72.865 39.055 72.865C39.805 72.865 40.415 72.63 40.885 72.16C41.365 71.69 41.605 71.03 41.605 70.18V68.455C41.335 68.935 40.935 69.335 40.405 69.655C39.875 69.975 39.255 70.135 38.545 70.135C37.815 70.135 37.15 69.955 36.55 69.595C35.96 69.235 35.495 68.73 35.155 68.08C34.815 67.43 34.645 66.69 34.645 65.86C34.645 65.02 34.815 64.285 35.155 63.655C35.495 63.015 35.96 62.52 36.55 62.17C37.15 61.82 37.815 61.645 38.545 61.645ZM41.605 65.875C41.605 65.255 41.48 64.715 41.23 64.255C40.98 63.795 40.64 63.445 40.21 63.205C39.79 62.955 39.325 62.83 38.815 62.83C38.305 62.83 37.84 62.95 37.42 63.19C37 63.43 36.665 63.78 36.415 64.24C36.165 64.7 36.04 65.24 36.04 65.86C36.04 66.49 36.165 67.04 36.415 67.51C36.665 67.97 37 68.325 37.42 68.575C37.84 68.815 38.305 68.935 38.815 68.935C39.325 68.935 39.79 68.815 40.21 68.575C40.64 68.325 40.98 67.97 41.23 67.51C41.48 67.04 41.605 66.495 41.605 65.875ZM45.9967 60.445C45.7367 60.445 45.5167 60.355 45.3367 60.175C45.1567 59.995 45.0667 59.775 45.0667 59.515C45.0667 59.255 45.1567 59.035 45.3367 58.855C45.5167 58.675 45.7367 58.585 45.9967 58.585C46.2467 58.585 46.4567 58.675 46.6267 58.855C46.8067 59.035 46.8967 59.255 46.8967 59.515C46.8967 59.775 46.8067 59.995 46.6267 60.175C46.4567 60.355 46.2467 60.445 45.9967 60.445ZM46.6567 61.78V70H45.2917V61.78H46.6567ZM52.0431 68.74L54.5931 61.78H56.0481L52.8231 70H51.2331L48.0081 61.78H49.4781L52.0431 68.74ZM64.8913 65.575C64.8913 65.835 64.8763 66.11 64.8463 66.4H58.2763C58.3263 67.21 58.6013 67.845 59.1013 68.305C59.6113 68.755 60.2263 68.98 60.9463 68.98C61.5363 68.98 62.0263 68.845 62.4163 68.575C62.8163 68.295 63.0963 67.925 63.2563 67.465H64.7263C64.5063 68.255 64.0663 68.9 63.4063 69.4C62.7463 69.89 61.9263 70.135 60.9463 70.135C60.1663 70.135 59.4663 69.96 58.8463 69.61C58.2363 69.26 57.7563 68.765 57.4063 68.125C57.0563 67.475 56.8813 66.725 56.8813 65.875C56.8813 65.025 57.0513 64.28 57.3913 63.64C57.7313 63 58.2063 62.51 58.8163 62.17C59.4363 61.82 60.1463 61.645 60.9463 61.645C61.7263 61.645 62.4163 61.815 63.0163 62.155C63.6163 62.495 64.0763 62.965 64.3963 63.565C64.7263 64.155 64.8913 64.825 64.8913 65.575ZM63.4813 65.29C63.4813 64.77 63.3663 64.325 63.1363 63.955C62.9063 63.575 62.5913 63.29 62.1913 63.1C61.8013 62.9 61.3663 62.8 60.8863 62.8C60.1963 62.8 59.6063 63.02 59.1163 63.46C58.6363 63.9 58.3613 64.51 58.2913 65.29H63.4813ZM72.3571 62.905V67.75C72.3571 68.15 72.4421 68.435 72.6121 68.605C72.7821 68.765 73.0771 68.845 73.4971 68.845H74.5021V70H73.2721C72.5121 70 71.9421 69.825 71.5621 69.475C71.1821 69.125 70.9921 68.55 70.9921 67.75V62.905H69.9271V61.78H70.9921V59.71H72.3571V61.78H74.5021V62.905H72.3571ZM80.236 61.63C80.856 61.63 81.416 61.765 81.916 62.035C82.416 62.295 82.806 62.69 83.086 63.22C83.376 63.75 83.521 64.395 83.521 65.155V70H82.171V65.35C82.171 64.53 81.966 63.905 81.556 63.475C81.146 63.035 80.586 62.815 79.876 62.815C79.156 62.815 78.581 63.04 78.151 63.49C77.731 63.94 77.521 64.595 77.521 65.455V70H76.156V58.9H77.521V62.95C77.791 62.53 78.161 62.205 78.631 61.975C79.111 61.745 79.646 61.63 80.236 61.63ZM93.2507 65.575C93.2507 65.835 93.2357 66.11 93.2057 66.4H86.6357C86.6857 67.21 86.9607 67.845 87.4607 68.305C87.9707 68.755 88.5857 68.98 89.3057 68.98C89.8957 68.98 90.3857 68.845 90.7757 68.575C91.1757 68.295 91.4557 67.925 91.6157 67.465H93.0857C92.8657 68.255 92.4257 68.9 91.7657 69.4C91.1057 69.89 90.2857 70.135 89.3057 70.135C88.5257 70.135 87.8257 69.96 87.2057 69.61C86.5957 69.26 86.1157 68.765 85.7657 68.125C85.4157 67.475 85.2407 66.725 85.2407 65.875C85.2407 65.025 85.4107 64.28 85.7507 63.64C86.0907 63 86.5657 62.51 87.1757 62.17C87.7957 61.82 88.5057 61.645 89.3057 61.645C90.0857 61.645 90.7757 61.815 91.3757 62.155C91.9757 62.495 92.4357 62.965 92.7557 63.565C93.0857 64.155 93.2507 64.825 93.2507 65.575ZM91.8407 65.29C91.8407 64.77 91.7257 64.325 91.4957 63.955C91.2657 63.575 90.9507 63.29 90.5507 63.1C90.1607 62.9 89.7257 62.8 89.2457 62.8C88.5557 62.8 87.9657 63.02 87.4757 63.46C86.9957 63.9 86.7207 64.51 86.6507 65.29H91.8407ZM100.716 62.905V67.75C100.716 68.15 100.801 68.435 100.971 68.605C101.141 68.765 101.436 68.845 101.856 68.845H102.861V70H101.631C100.871 70 100.301 69.825 99.9215 69.475C99.5415 69.125 99.3515 68.55 99.3515 67.75V62.905H98.2865V61.78H99.3515V59.71H100.716V61.78H102.861V62.905H100.716ZM108.1 70.135C107.33 70.135 106.63 69.96 106 69.61C105.38 69.26 104.89 68.765 104.53 68.125C104.18 67.475 104.005 66.725 104.005 65.875C104.005 65.035 104.185 64.295 104.545 63.655C104.915 63.005 105.415 62.51 106.045 62.17C106.675 61.82 107.38 61.645 108.16 61.645C108.94 61.645 109.645 61.82 110.275 62.17C110.905 62.51 111.4 63 111.76 63.64C112.13 64.28 112.315 65.025 112.315 65.875C112.315 66.725 112.125 67.475 111.745 68.125C111.375 68.765 110.87 69.26 110.23 69.61C109.59 69.96 108.88 70.135 108.1 70.135ZM108.1 68.935C108.59 68.935 109.05 68.82 109.48 68.59C109.91 68.36 110.255 68.015 110.515 67.555C110.785 67.095 110.92 66.535 110.92 65.875C110.92 65.215 110.79 64.655 110.53 64.195C110.27 63.735 109.93 63.395 109.51 63.175C109.09 62.945 108.635 62.83 108.145 62.83C107.645 62.83 107.185 62.945 106.765 63.175C106.355 63.395 106.025 63.735 105.775 64.195C105.525 64.655 105.4 65.215 105.4 65.875C105.4 66.545 105.52 67.11 105.76 67.57C106.01 68.03 106.34 68.375 106.75 68.605C107.16 68.825 107.61 68.935 108.1 68.935ZM117.695 70.135C116.925 70.135 116.225 69.96 115.595 69.61C114.975 69.26 114.485 68.765 114.125 68.125C113.775 67.475 113.6 66.725 113.6 65.875C113.6 65.035 113.78 64.295 114.14 63.655C114.51 63.005 115.01 62.51 115.64 62.17C116.27 61.82 116.975 61.645 117.755 61.645C118.535 61.645 119.24 61.82 119.87 62.17C120.5 62.51 120.995 63 121.355 63.64C121.725 64.28 121.91 65.025 121.91 65.875C121.91 66.725 121.72 67.475 121.34 68.125C120.97 68.765 120.465 69.26 119.825 69.61C119.185 69.96 118.475 70.135 117.695 70.135ZM117.695 68.935C118.185 68.935 118.645 68.82 119.075 68.59C119.505 68.36 119.85 68.015 120.11 67.555C120.38 67.095 120.515 66.535 120.515 65.875C120.515 65.215 120.385 64.655 120.125 64.195C119.865 63.735 119.525 63.395 119.105 63.175C118.685 62.945 118.23 62.83 117.74 62.83C117.24 62.83 116.78 62.945 116.36 63.175C115.95 63.395 115.62 63.735 115.37 64.195C115.12 64.655 114.995 65.215 114.995 65.875C114.995 66.545 115.115 67.11 115.355 67.57C115.605 68.03 115.935 68.375 116.345 68.605C116.755 68.825 117.205 68.935 117.695 68.935ZM125.07 58.9V70H123.705V58.9H125.07ZM130.306 70.135C129.676 70.135 129.111 70.03 128.611 69.82C128.111 69.6 127.716 69.3 127.426 68.92C127.136 68.53 126.976 68.085 126.946 67.585H128.356C128.396 67.995 128.586 68.33 128.926 68.59C129.276 68.85 129.731 68.98 130.291 68.98C130.811 68.98 131.221 68.865 131.521 68.635C131.821 68.405 131.971 68.115 131.971 67.765C131.971 67.405 131.811 67.14 131.491 66.97C131.171 66.79 130.676 66.615 130.006 66.445C129.396 66.285 128.896 66.125 128.506 65.965C128.126 65.795 127.796 65.55 127.516 65.23C127.246 64.9 127.111 64.47 127.111 63.94C127.111 63.52 127.236 63.135 127.486 62.785C127.736 62.435 128.091 62.16 128.551 61.96C129.011 61.75 129.536 61.645 130.126 61.645C131.036 61.645 131.771 61.875 132.331 62.335C132.891 62.795 133.191 63.425 133.231 64.225H131.866C131.836 63.795 131.661 63.45 131.341 63.19C131.031 62.93 130.611 62.8 130.081 62.8C129.591 62.8 129.201 62.905 128.911 63.115C128.621 63.325 128.476 63.6 128.476 63.94C128.476 64.21 128.561 64.435 128.731 64.615C128.911 64.785 129.131 64.925 129.391 65.035C129.661 65.135 130.031 65.25 130.501 65.38C131.091 65.54 131.571 65.7 131.941 65.86C132.311 66.01 132.626 66.24 132.886 66.55C133.156 66.86 133.296 67.265 133.306 67.765C133.306 68.215 133.181 68.62 132.931 68.98C132.681 69.34 132.326 69.625 131.866 69.835C131.416 70.035 130.896 70.135 130.306 70.135ZM140.897 62.905V67.75C140.897 68.15 140.982 68.435 141.152 68.605C141.322 68.765 141.617 68.845 142.037 68.845H143.042V70H141.812C141.052 70 140.482 69.825 140.102 69.475C139.722 69.125 139.532 68.55 139.532 67.75V62.905H138.467V61.78H139.532V59.71H140.897V61.78H143.042V62.905H140.897ZM148.281 70.135C147.511 70.135 146.811 69.96 146.181 69.61C145.561 69.26 145.071 68.765 144.711 68.125C144.361 67.475 144.186 66.725 144.186 65.875C144.186 65.035 144.366 64.295 144.726 63.655C145.096 63.005 145.596 62.51 146.226 62.17C146.856 61.82 147.561 61.645 148.341 61.645C149.121 61.645 149.826 61.82 150.456 62.17C151.086 62.51 151.581 63 151.941 63.64C152.311 64.28 152.496 65.025 152.496 65.875C152.496 66.725 152.306 67.475 151.926 68.125C151.556 68.765 151.051 69.26 150.411 69.61C149.771 69.96 149.061 70.135 148.281 70.135ZM148.281 68.935C148.771 68.935 149.231 68.82 149.661 68.59C150.091 68.36 150.436 68.015 150.696 67.555C150.966 67.095 151.101 66.535 151.101 65.875C151.101 65.215 150.971 64.655 150.711 64.195C150.451 63.735 150.111 63.395 149.691 63.175C149.271 62.945 148.816 62.83 148.326 62.83C147.826 62.83 147.366 62.945 146.946 63.175C146.536 63.395 146.206 63.735 145.956 64.195C145.706 64.655 145.581 65.215 145.581 65.875C145.581 66.545 145.701 67.11 145.941 67.57C146.191 68.03 146.521 68.375 146.931 68.605C147.341 68.825 147.791 68.935 148.281 68.935ZM159.955 62.905V67.75C159.955 68.15 160.04 68.435 160.21 68.605C160.38 68.765 160.675 68.845 161.095 68.845H162.1V70H160.87C160.11 70 159.54 69.825 159.16 69.475C158.78 69.125 158.59 68.55 158.59 67.75V62.905H157.525V61.78H158.59V59.71H159.955V61.78H162.1V62.905H159.955ZM167.834 61.63C168.454 61.63 169.014 61.765 169.514 62.035C170.014 62.295 170.404 62.69 170.684 63.22C170.974 63.75 171.119 64.395 171.119 65.155V70H169.769V65.35C169.769 64.53 169.564 63.905 169.154 63.475C168.744 63.035 168.184 62.815 167.474 62.815C166.754 62.815 166.179 63.04 165.749 63.49C165.329 63.94 165.119 64.595 165.119 65.455V70H163.754V58.9H165.119V62.95C165.389 62.53 165.759 62.205 166.229 61.975C166.709 61.745 167.244 61.63 167.834 61.63ZM180.848 65.575C180.848 65.835 180.833 66.11 180.803 66.4H174.233C174.283 67.21 174.558 67.845 175.058 68.305C175.568 68.755 176.183 68.98 176.903 68.98C177.493 68.98 177.983 68.845 178.373 68.575C178.773 68.295 179.053 67.925 179.213 67.465H180.683C180.463 68.255 180.023 68.9 179.363 69.4C178.703 69.89 177.883 70.135 176.903 70.135C176.123 70.135 175.423 69.96 174.803 69.61C174.193 69.26 173.713 68.765 173.363 68.125C173.013 67.475 172.838 66.725 172.838 65.875C172.838 65.025 173.008 64.28 173.348 63.64C173.688 63 174.163 62.51 174.773 62.17C175.393 61.82 176.103 61.645 176.903 61.645C177.683 61.645 178.373 61.815 178.973 62.155C179.573 62.495 180.033 62.965 180.353 63.565C180.683 64.155 180.848 64.825 180.848 65.575ZM179.438 65.29C179.438 64.77 179.323 64.325 179.093 63.955C178.863 63.575 178.548 63.29 178.148 63.1C177.758 62.9 177.323 62.8 176.843 62.8C176.153 62.8 175.563 63.02 175.073 63.46C174.593 63.9 174.318 64.51 174.248 65.29H179.438ZM189.994 62.905H188.269V70H186.904V62.905H185.839V61.78H186.904V61.195C186.904 60.275 187.139 59.605 187.609 59.185C188.089 58.755 188.854 58.54 189.904 58.54V59.68C189.304 59.68 188.879 59.8 188.629 60.04C188.389 60.27 188.269 60.655 188.269 61.195V61.78H189.994V62.905ZM192.951 63.115C193.191 62.645 193.531 62.28 193.971 62.02C194.421 61.76 194.966 61.63 195.606 61.63V63.04H195.246C193.716 63.04 192.951 63.87 192.951 65.53V70H191.586V61.78H192.951V63.115ZM200.766 70.135C199.996 70.135 199.296 69.96 198.666 69.61C198.046 69.26 197.556 68.765 197.196 68.125C196.846 67.475 196.671 66.725 196.671 65.875C196.671 65.035 196.851 64.295 197.211 63.655C197.581 63.005 198.081 62.51 198.711 62.17C199.341 61.82 200.046 61.645 200.826 61.645C201.606 61.645 202.311 61.82 202.941 62.17C203.571 62.51 204.066 63 204.426 63.64C204.796 64.28 204.981 65.025 204.981 65.875C204.981 66.725 204.791 67.475 204.411 68.125C204.041 68.765 203.536 69.26 202.896 69.61C202.256 69.96 201.546 70.135 200.766 70.135ZM200.766 68.935C201.256 68.935 201.716 68.82 202.146 68.59C202.576 68.36 202.921 68.015 203.181 67.555C203.451 67.095 203.586 66.535 203.586 65.875C203.586 65.215 203.456 64.655 203.196 64.195C202.936 63.735 202.596 63.395 202.176 63.175C201.756 62.945 201.301 62.83 200.811 62.83C200.311 62.83 199.851 62.945 199.431 63.175C199.021 63.395 198.691 63.735 198.441 64.195C198.191 64.655 198.066 65.215 198.066 65.875C198.066 66.545 198.186 67.11 198.426 67.57C198.676 68.03 199.006 68.375 199.416 68.605C199.826 68.825 200.276 68.935 200.766 68.935ZM210.166 61.645C210.876 61.645 211.496 61.8 212.026 62.11C212.566 62.42 212.966 62.81 213.226 63.28V61.78H214.606V70.18C214.606 70.93 214.446 71.595 214.126 72.175C213.806 72.765 213.346 73.225 212.746 73.555C212.156 73.885 211.466 74.05 210.676 74.05C209.596 74.05 208.696 73.795 207.976 73.285C207.256 72.775 206.831 72.08 206.701 71.2H208.051C208.201 71.7 208.511 72.1 208.981 72.4C209.451 72.71 210.016 72.865 210.676 72.865C211.426 72.865 212.036 72.63 212.506 72.16C212.986 71.69 213.226 71.03 213.226 70.18V68.455C212.956 68.935 212.556 69.335 212.026 69.655C211.496 69.975 210.876 70.135 210.166 70.135C209.436 70.135 208.771 69.955 208.171 69.595C207.581 69.235 207.116 68.73 206.776 68.08C206.436 67.43 206.266 66.69 206.266 65.86C206.266 65.02 206.436 64.285 206.776 63.655C207.116 63.015 207.581 62.52 208.171 62.17C208.771 61.82 209.436 61.645 210.166 61.645ZM213.226 65.875C213.226 65.255 213.101 64.715 212.851 64.255C212.601 63.795 212.261 63.445 211.831 63.205C211.411 62.955 210.946 62.83 210.436 62.83C209.926 62.83 209.461 62.95 209.041 63.19C208.621 63.43 208.286 63.78 208.036 64.24C207.786 64.7 207.661 65.24 207.661 65.86C207.661 66.49 207.786 67.04 208.036 67.51C208.286 67.97 208.621 68.325 209.041 68.575C209.461 68.815 209.926 68.935 210.436 68.935C210.946 68.935 211.411 68.815 211.831 68.575C212.261 68.325 212.601 67.97 212.851 67.51C213.101 67.04 213.226 66.495 213.226 65.875ZM222.577 62.905V67.75C222.577 68.15 222.662 68.435 222.832 68.605C223.002 68.765 223.297 68.845 223.717 68.845H224.722V70H223.492C222.732 70 222.162 69.825 221.782 69.475C221.402 69.125 221.212 68.55 221.212 67.75V62.905H220.147V61.78H221.212V59.71H222.577V61.78H224.722V62.905H222.577ZM229.961 70.135C229.191 70.135 228.491 69.96 227.861 69.61C227.241 69.26 226.751 68.765 226.391 68.125C226.041 67.475 225.866 66.725 225.866 65.875C225.866 65.035 226.046 64.295 226.406 63.655C226.776 63.005 227.276 62.51 227.906 62.17C228.536 61.82 229.241 61.645 230.021 61.645C230.801 61.645 231.506 61.82 232.136 62.17C232.766 62.51 233.261 63 233.621 63.64C233.991 64.28 234.176 65.025 234.176 65.875C234.176 66.725 233.986 67.475 233.606 68.125C233.236 68.765 232.731 69.26 232.091 69.61C231.451 69.96 230.741 70.135 229.961 70.135ZM229.961 68.935C230.451 68.935 230.911 68.82 231.341 68.59C231.771 68.36 232.116 68.015 232.376 67.555C232.646 67.095 232.781 66.535 232.781 65.875C232.781 65.215 232.651 64.655 232.391 64.195C232.131 63.735 231.791 63.395 231.371 63.175C230.951 62.945 230.496 62.83 230.006 62.83C229.506 62.83 229.046 62.945 228.626 63.175C228.216 63.395 227.886 63.735 227.636 64.195C227.386 64.655 227.261 65.215 227.261 65.875C227.261 66.545 227.381 67.11 227.621 67.57C227.871 68.03 228.201 68.375 228.611 68.605C229.021 68.825 229.471 68.935 229.961 68.935ZM36.52 86.31C36.8 85.82 37.21 85.42 37.75 85.11C38.29 84.8 38.905 84.645 39.595 84.645C40.335 84.645 41 84.82 41.59 85.17C42.18 85.52 42.645 86.015 42.985 86.655C43.325 87.285 43.495 88.02 43.495 88.86C43.495 89.69 43.325 90.43 42.985 91.08C42.645 91.73 42.175 92.235 41.575 92.595C40.985 92.955 40.325 93.135 39.595 93.135C38.885 93.135 38.26 92.98 37.72 92.67C37.19 92.36 36.79 91.965 36.52 91.485V93H35.155V81.9H36.52V86.31ZM42.1 88.86C42.1 88.24 41.975 87.7 41.725 87.24C41.475 86.78 41.135 86.43 40.705 86.19C40.285 85.95 39.82 85.83 39.31 85.83C38.81 85.83 38.345 85.955 37.915 86.205C37.495 86.445 37.155 86.8 36.895 87.27C36.645 87.73 36.52 88.265 36.52 88.875C36.52 89.495 36.645 90.04 36.895 90.51C37.155 90.97 37.495 91.325 37.915 91.575C38.345 91.815 38.81 91.935 39.31 91.935C39.82 91.935 40.285 91.815 40.705 91.575C41.135 91.325 41.475 90.97 41.725 90.51C41.975 90.04 42.1 89.49 42.1 88.86ZM52.7917 88.575C52.7917 88.835 52.7767 89.11 52.7467 89.4H46.1767C46.2267 90.21 46.5017 90.845 47.0017 91.305C47.5117 91.755 48.1267 91.98 48.8467 91.98C49.4367 91.98 49.9267 91.845 50.3167 91.575C50.7167 91.295 50.9967 90.925 51.1567 90.465H52.6267C52.4067 91.255 51.9667 91.9 51.3067 92.4C50.6467 92.89 49.8267 93.135 48.8467 93.135C48.0667 93.135 47.3667 92.96 46.7467 92.61C46.1367 92.26 45.6567 91.765 45.3067 91.125C44.9567 90.475 44.7817 89.725 44.7817 88.875C44.7817 88.025 44.9517 87.28 45.2917 86.64C45.6317 86 46.1067 85.51 46.7167 85.17C47.3367 84.82 48.0467 84.645 48.8467 84.645C49.6267 84.645 50.3167 84.815 50.9167 85.155C51.5167 85.495 51.9767 85.965 52.2967 86.565C52.6267 87.155 52.7917 87.825 52.7917 88.575ZM51.3817 88.29C51.3817 87.77 51.2667 87.325 51.0367 86.955C50.8067 86.575 50.4917 86.29 50.0917 86.1C49.7017 85.9 49.2667 85.8 48.7867 85.8C48.0967 85.8 47.5067 86.02 47.0167 86.46C46.5367 86.9 46.2617 87.51 46.1917 88.29H51.3817ZM57.9835 84.645C58.6935 84.645 59.3135 84.8 59.8435 85.11C60.3835 85.42 60.7835 85.81 61.0435 86.28V84.78H62.4235V93.18C62.4235 93.93 62.2635 94.595 61.9435 95.175C61.6235 95.765 61.1635 96.225 60.5635 96.555C59.9735 96.885 59.2835 97.05 58.4935 97.05C57.4135 97.05 56.5135 96.795 55.7935 96.285C55.0735 95.775 54.6485 95.08 54.5185 94.2H55.8685C56.0185 94.7 56.3285 95.1 56.7985 95.4C57.2685 95.71 57.8335 95.865 58.4935 95.865C59.2435 95.865 59.8535 95.63 60.3235 95.16C60.8035 94.69 61.0435 94.03 61.0435 93.18V91.455C60.7735 91.935 60.3735 92.335 59.8435 92.655C59.3135 92.975 58.6935 93.135 57.9835 93.135C57.2535 93.135 56.5885 92.955 55.9885 92.595C55.3985 92.235 54.9335 91.73 54.5935 91.08C54.2535 90.43 54.0835 89.69 54.0835 88.86C54.0835 88.02 54.2535 87.285 54.5935 86.655C54.9335 86.015 55.3985 85.52 55.9885 85.17C56.5885 84.82 57.2535 84.645 57.9835 84.645ZM61.0435 88.875C61.0435 88.255 60.9185 87.715 60.6685 87.255C60.4185 86.795 60.0785 86.445 59.6485 86.205C59.2285 85.955 58.7635 85.83 58.2535 85.83C57.7435 85.83 57.2785 85.95 56.8585 86.19C56.4385 86.43 56.1035 86.78 55.8535 87.24C55.6035 87.7 55.4785 88.24 55.4785 88.86C55.4785 89.49 55.6035 90.04 55.8535 90.51C56.1035 90.97 56.4385 91.325 56.8585 91.575C57.2785 91.815 57.7435 91.935 58.2535 91.935C58.7635 91.935 59.2285 91.815 59.6485 91.575C60.0785 91.325 60.4185 90.97 60.6685 90.51C60.9185 90.04 61.0435 89.495 61.0435 88.875ZM65.4352 83.445C65.1752 83.445 64.9552 83.355 64.7752 83.175C64.5952 82.995 64.5052 82.775 64.5052 82.515C64.5052 82.255 64.5952 82.035 64.7752 81.855C64.9552 81.675 65.1752 81.585 65.4352 81.585C65.6852 81.585 65.8952 81.675 66.0652 81.855C66.2452 82.035 66.3352 82.255 66.3352 82.515C66.3352 82.775 66.2452 82.995 66.0652 83.175C65.8952 83.355 65.6852 83.445 65.4352 83.445ZM66.0952 84.78V93H64.7302V84.78H66.0952ZM72.4266 84.63C73.4266 84.63 74.2366 84.935 74.8566 85.545C75.4766 86.145 75.7866 87.015 75.7866 88.155V93H74.4366V88.35C74.4366 87.53 74.2316 86.905 73.8216 86.475C73.4116 86.035 72.8516 85.815 72.1416 85.815C71.4216 85.815 70.8466 86.04 70.4166 86.49C69.9966 86.94 69.7866 87.595 69.7866 88.455V93H68.4216V84.78H69.7866V85.95C70.0566 85.53 70.4216 85.205 70.8816 84.975C71.3516 84.745 71.8666 84.63 72.4266 84.63ZM81.5054 88.875C81.5054 88.025 81.6754 87.285 82.0154 86.655C82.3554 86.015 82.8254 85.52 83.4254 85.17C84.0354 84.82 84.7304 84.645 85.5104 84.645C86.5204 84.645 87.3504 84.89 88.0004 85.38C88.6604 85.87 89.0954 86.55 89.3054 87.42H87.8354C87.6954 86.92 87.4204 86.525 87.0104 86.235C86.6104 85.945 86.1104 85.8 85.5104 85.8C84.7304 85.8 84.1004 86.07 83.6204 86.61C83.1404 87.14 82.9004 87.895 82.9004 88.875C82.9004 89.865 83.1404 90.63 83.6204 91.17C84.1004 91.71 84.7304 91.98 85.5104 91.98C86.1104 91.98 86.6104 91.84 87.0104 91.56C87.4104 91.28 87.6854 90.88 87.8354 90.36H89.3054C89.0854 91.2 88.6454 91.875 87.9854 92.385C87.3254 92.885 86.5004 93.135 85.5104 93.135C84.7304 93.135 84.0354 92.96 83.4254 92.61C82.8254 92.26 82.3554 91.765 82.0154 91.125C81.6754 90.485 81.5054 89.735 81.5054 88.875ZM94.7117 93.135C93.9417 93.135 93.2417 92.96 92.6117 92.61C91.9917 92.26 91.5017 91.765 91.1417 91.125C90.7917 90.475 90.6167 89.725 90.6167 88.875C90.6167 88.035 90.7967 87.295 91.1567 86.655C91.5267 86.005 92.0267 85.51 92.6567 85.17C93.2867 84.82 93.9917 84.645 94.7717 84.645C95.5517 84.645 96.2567 84.82 96.8867 85.17C97.5167 85.51 98.0117 86 98.3717 86.64C98.7417 87.28 98.9267 88.025 98.9267 88.875C98.9267 89.725 98.7367 90.475 98.3567 91.125C97.9867 91.765 97.4817 92.26 96.8417 92.61C96.2017 92.96 95.4917 93.135 94.7117 93.135ZM94.7117 91.935C95.2017 91.935 95.6617 91.82 96.0917 91.59C96.5217 91.36 96.8667 91.015 97.1267 90.555C97.3967 90.095 97.5317 89.535 97.5317 88.875C97.5317 88.215 97.4017 87.655 97.1417 87.195C96.8817 86.735 96.5417 86.395 96.1217 86.175C95.7017 85.945 95.2467 85.83 94.7567 85.83C94.2567 85.83 93.7967 85.945 93.3767 86.175C92.9667 86.395 92.6367 86.735 92.3867 87.195C92.1367 87.655 92.0117 88.215 92.0117 88.875C92.0117 89.545 92.1317 90.11 92.3717 90.57C92.6217 91.03 92.9517 91.375 93.3617 91.605C93.7717 91.825 94.2217 91.935 94.7117 91.935ZM104.306 93.135C103.536 93.135 102.836 92.96 102.206 92.61C101.586 92.26 101.096 91.765 100.736 91.125C100.386 90.475 100.211 89.725 100.211 88.875C100.211 88.035 100.391 87.295 100.751 86.655C101.121 86.005 101.621 85.51 102.251 85.17C102.881 84.82 103.586 84.645 104.366 84.645C105.146 84.645 105.851 84.82 106.481 85.17C107.111 85.51 107.606 86 107.966 86.64C108.336 87.28 108.521 88.025 108.521 88.875C108.521 89.725 108.331 90.475 107.951 91.125C107.581 91.765 107.076 92.26 106.436 92.61C105.796 92.96 105.086 93.135 104.306 93.135ZM104.306 91.935C104.796 91.935 105.256 91.82 105.686 91.59C106.116 91.36 106.461 91.015 106.721 90.555C106.991 90.095 107.126 89.535 107.126 88.875C107.126 88.215 106.996 87.655 106.736 87.195C106.476 86.735 106.136 86.395 105.716 86.175C105.296 85.945 104.841 85.83 104.351 85.83C103.851 85.83 103.391 85.945 102.971 86.175C102.561 86.395 102.231 86.735 101.981 87.195C101.731 87.655 101.606 88.215 101.606 88.875C101.606 89.545 101.726 90.11 101.966 90.57C102.216 91.03 102.546 91.375 102.956 91.605C103.366 91.825 103.816 91.935 104.306 91.935ZM114.906 93L111.681 89.37V93H110.316V81.9H111.681V88.425L114.846 84.78H116.751L112.881 88.875L116.766 93H114.906ZM118.741 83.445C118.481 83.445 118.261 83.355 118.081 83.175C117.901 82.995 117.811 82.775 117.811 82.515C117.811 82.255 117.901 82.035 118.081 81.855C118.261 81.675 118.481 81.585 118.741 81.585C118.991 81.585 119.201 81.675 119.371 81.855C119.551 82.035 119.641 82.255 119.641 82.515C119.641 82.775 119.551 82.995 119.371 83.175C119.201 83.355 118.991 83.445 118.741 83.445ZM119.401 84.78V93H118.036V84.78H119.401ZM125.732 84.63C126.732 84.63 127.542 84.935 128.162 85.545C128.782 86.145 129.092 87.015 129.092 88.155V93H127.742V88.35C127.742 87.53 127.537 86.905 127.127 86.475C126.717 86.035 126.157 85.815 125.447 85.815C124.727 85.815 124.152 86.04 123.722 86.49C123.302 86.94 123.092 87.595 123.092 88.455V93H121.727V84.78H123.092V85.95C123.362 85.53 123.727 85.205 124.187 84.975C124.657 84.745 125.172 84.63 125.732 84.63ZM134.712 84.645C135.422 84.645 136.042 84.8 136.572 85.11C137.112 85.42 137.512 85.81 137.772 86.28V84.78H139.152V93.18C139.152 93.93 138.992 94.595 138.672 95.175C138.352 95.765 137.892 96.225 137.292 96.555C136.702 96.885 136.012 97.05 135.222 97.05C134.142 97.05 133.242 96.795 132.522 96.285C131.802 95.775 131.377 95.08 131.247 94.2H132.597C132.747 94.7 133.057 95.1 133.527 95.4C133.997 95.71 134.562 95.865 135.222 95.865C135.972 95.865 136.582 95.63 137.052 95.16C137.532 94.69 137.772 94.03 137.772 93.18V91.455C137.502 91.935 137.102 92.335 136.572 92.655C136.042 92.975 135.422 93.135 134.712 93.135C133.982 93.135 133.317 92.955 132.717 92.595C132.127 92.235 131.662 91.73 131.322 91.08C130.982 90.43 130.812 89.69 130.812 88.86C130.812 88.02 130.982 87.285 131.322 86.655C131.662 86.015 132.127 85.52 132.717 85.17C133.317 84.82 133.982 84.645 134.712 84.645ZM137.772 88.875C137.772 88.255 137.647 87.715 137.397 87.255C137.147 86.795 136.807 86.445 136.377 86.205C135.957 85.955 135.492 85.83 134.982 85.83C134.472 85.83 134.007 85.95 133.587 86.19C133.167 86.43 132.832 86.78 132.582 87.24C132.332 87.7 132.207 88.24 132.207 88.86C132.207 89.49 132.332 90.04 132.582 90.51C132.832 90.97 133.167 91.325 133.587 91.575C134.007 91.815 134.472 91.935 134.982 91.935C135.492 91.935 135.957 91.815 136.377 91.575C136.807 91.325 137.147 90.97 137.397 90.51C137.647 90.04 137.772 89.495 137.772 88.875ZM141.894 93.09C141.634 93.09 141.414 93 141.234 92.82C141.054 92.64 140.964 92.42 140.964 92.16C140.964 91.9 141.054 91.68 141.234 91.5C141.414 91.32 141.634 91.23 141.894 91.23C142.144 91.23 142.354 91.32 142.524 91.5C142.704 91.68 142.794 91.9 142.794 92.16C142.794 92.42 142.704 92.64 142.524 92.82C142.354 93 142.144 93.09 141.894 93.09Z" fill="#513131"/>
<line x1="8" y1="43.5" x2="268" y2="43.5" stroke="black"/>
<defs>
<filter id="filter0_d_7_2143" x="0" y="0" width="276" height="147" filterUnits="userSpaceOnUse" color-interpolation-filters="sRGB">
<feFlood flood-opacity="0" result="BackgroundImageFix"/>
<feColorMatrix in="SourceAlpha" type="matrix" values="0 0 0 0 0 0 0 0 0 0 0 0 0 0 0 0 0 0 127 0" result="hardAlpha"/>
<feOffset dy="4"/>
<feGaussianBlur stdDeviation="4"/>
<feComposite in2="hardAlpha" operator="out"/>
<feColorMatrix type="matrix" values="0 0 0 0 0 0 0 0 0 0 0 0 0 0 0 0 0 0 0.25 0"/>
<feBlend mode="normal" in2="BackgroundImageFix" result="effect1_dropShadow_7_2143"/>
<feBlend mode="normal" in="SourceGraphic" in2="effect1_dropShadow_7_2143" result="shape"/>
</filter>
<linearGradient id="paint0_linear_7_2143" x1="8" y1="135" x2="254.884" y2="-17.2658" gradientUnits="userSpaceOnUse">
<stop stop-color="#E6F8DB"/>
<stop offset="1" stop-color="#F6F8ED"/>
</linearGradient>
</defs>
</svg>
