<svg width="278" height="338" viewBox="0 0 278 338" fill="none" xmlns="http://www.w3.org/2000/svg">
<g filter="url(#filter0_d_7_1422)">
<path d="M9 45C9 22.9086 26.9086 5 49 5H229C251.091 5 269 22.9086 269 45V285C269 307.091 251.091 325 229 325H49C26.9086 325 9 307.091 9 285V45Z" fill="url(#paint0_linear_7_1422)"/>
<path d="M49 5.5H229V4.5H49V5.5ZM268.5 45V285H269.5V45H268.5ZM229 324.5H49V325.5H229V324.5ZM9.5 285V45H8.5V285H9.5ZM49 324.5C27.1848 324.5 9.5 306.815 9.5 285H8.5C8.5 307.368 26.6325 325.5 49 325.5V324.5ZM268.5 285C268.5 306.815 250.815 324.5 229 324.5V325.5C251.368 325.5 269.5 307.368 269.5 285H268.5ZM229 5.5C250.815 5.5 268.5 23.1848 268.5 45H269.5C269.5 22.6325 251.368 4.5 229 4.5V5.5ZM49 4.5C26.6325 4.5 8.5 22.6325 8.5 45H9.5C9.5 23.1848 27.1848 5.5 49 5.5V4.5Z" fill="#F6F8ED"/>
<line x1="9" y1="67.5" x2="269" y2="67.5" stroke="black"/>
<path d="M44.9831 99.624C44.4391 99.624 43.9751 99.4373 43.5911 99.064C43.2178 98.68 43.0311 98.216 43.0311 97.672C43.0311 97.1173 43.2178 96.6533 43.5911 96.28C43.9751 95.896 44.4391 95.704 44.9831 95.704C45.5378 95.704 46.0071 95.896 46.3911 96.28C46.7751 96.6533 46.9671 97.1173 46.9671 97.672C46.9671 98.216 46.7751 98.68 46.3911 99.064C46.0071 99.4373 45.5378 99.624 44.9831 99.624ZM61.496 101.656L64.216 94.232H65.768L62.328 103H60.632L57.192 94.232H58.76L61.496 101.656ZM75.2008 98.28C75.2008 98.5573 75.1848 98.8507 75.1528 99.16H68.1448C68.1981 100.024 68.4914 100.701 69.0248 101.192C69.5688 101.672 70.2248 101.912 70.9928 101.912C71.6221 101.912 72.1448 101.768 72.5608 101.48C72.9874 101.181 73.2861 100.787 73.4568 100.296H75.0248C74.7901 101.139 74.3208 101.827 73.6168 102.36C72.9128 102.883 72.0381 103.144 70.9928 103.144C70.1608 103.144 69.4141 102.957 68.7528 102.584C68.1021 102.211 67.5901 101.683 67.2168 101C66.8434 100.307 66.6568 99.5067 66.6568 98.6C66.6568 97.6933 66.8381 96.8987 67.2008 96.216C67.5634 95.5333 68.0701 95.0107 68.7208 94.648C69.3821 94.2747 70.1394 94.088 70.9928 94.088C71.8248 94.088 72.5608 94.2693 73.2008 94.632C73.8408 94.9947 74.3314 95.496 74.6728 96.136C75.0248 96.7653 75.2008 97.48 75.2008 98.28ZM73.6968 97.976C73.6968 97.4213 73.5741 96.9467 73.3288 96.552C73.0834 96.1467 72.7474 95.8427 72.3208 95.64C71.9048 95.4267 71.4408 95.32 70.9288 95.32C70.1928 95.32 69.5634 95.5547 69.0408 96.024C68.5288 96.4933 68.2354 97.144 68.1608 97.976H73.6968ZM80.7386 94.088C81.496 94.088 82.1573 94.2533 82.7226 94.584C83.2986 94.9147 83.7253 95.3307 84.0026 95.832V94.232H85.4746V103.192C85.4746 103.992 85.304 104.701 84.9626 105.32C84.6213 105.949 84.1306 106.44 83.4906 106.792C82.8613 107.144 82.1253 107.32 81.2826 107.32C80.1306 107.32 79.1706 107.048 78.4026 106.504C77.6346 105.96 77.1813 105.219 77.0426 104.28H78.4826C78.6426 104.813 78.9733 105.24 79.4746 105.56C79.976 105.891 80.5786 106.056 81.2826 106.056C82.0826 106.056 82.7333 105.805 83.2346 105.304C83.7466 104.803 84.0026 104.099 84.0026 103.192V101.352C83.7146 101.864 83.288 102.291 82.7226 102.632C82.1573 102.973 81.496 103.144 80.7386 103.144C79.96 103.144 79.2506 102.952 78.6106 102.568C77.9813 102.184 77.4853 101.645 77.1226 100.952C76.76 100.259 76.5786 99.4693 76.5786 98.584C76.5786 97.688 76.76 96.904 77.1226 96.232C77.4853 95.5493 77.9813 95.0213 78.6106 94.648C79.2506 94.2747 79.96 94.088 80.7386 94.088ZM84.0026 98.6C84.0026 97.9387 83.8693 97.3627 83.6026 96.872C83.336 96.3813 82.9733 96.008 82.5146 95.752C82.0666 95.4853 81.5706 95.352 81.0266 95.352C80.4826 95.352 79.9866 95.48 79.5386 95.736C79.0906 95.992 78.7333 96.3653 78.4666 96.856C78.2 97.3467 78.0666 97.9227 78.0666 98.584C78.0666 99.256 78.2 99.8427 78.4666 100.344C78.7333 100.835 79.0906 101.213 79.5386 101.48C79.9866 101.736 80.4826 101.864 81.0266 101.864C81.5706 101.864 82.0666 101.736 82.5146 101.48C82.9733 101.213 83.336 100.835 83.6026 100.344C83.8693 99.8427 84.0026 99.2613 84.0026 98.6ZM87.3911 98.584C87.3911 97.688 87.5725 96.904 87.9351 96.232C88.2978 95.5493 88.7938 95.0213 89.4231 94.648C90.0631 94.2747 90.7725 94.088 91.5511 94.088C92.3191 94.088 92.9858 94.2533 93.5511 94.584C94.1165 94.9147 94.5378 95.3307 94.8151 95.832V94.232H96.2871V103H94.8151V101.368C94.5271 101.88 94.0951 102.307 93.5191 102.648C92.9538 102.979 92.2925 103.144 91.5351 103.144C90.7565 103.144 90.0525 102.952 89.4231 102.568C88.7938 102.184 88.2978 101.645 87.9351 100.952C87.5725 100.259 87.3911 99.4693 87.3911 98.584ZM94.8151 98.6C94.8151 97.9387 94.6818 97.3627 94.4151 96.872C94.1485 96.3813 93.7858 96.008 93.3271 95.752C92.8791 95.4853 92.3831 95.352 91.8391 95.352C91.2951 95.352 90.7991 95.48 90.3511 95.736C89.9031 95.992 89.5458 96.3653 89.2791 96.856C89.0125 97.3467 88.8791 97.9227 88.8791 98.584C88.8791 99.256 89.0125 99.8427 89.2791 100.344C89.5458 100.835 89.9031 101.213 90.3511 101.48C90.7991 101.736 91.2951 101.864 91.8391 101.864C92.3831 101.864 92.8791 101.736 93.3271 101.48C93.7858 101.213 94.1485 100.835 94.4151 100.344C94.6818 99.8427 94.8151 99.2613 94.8151 98.6ZM103.02 94.072C104.086 94.072 104.95 94.3973 105.612 95.048C106.273 95.688 106.604 96.616 106.604 97.832V103H105.164V98.04C105.164 97.1653 104.945 96.4987 104.508 96.04C104.07 95.5707 103.473 95.336 102.716 95.336C101.948 95.336 101.334 95.576 100.876 96.056C100.428 96.536 100.204 97.2347 100.204 98.152V103H98.7476V94.232H100.204V95.48C100.492 95.032 100.881 94.6853 101.372 94.44C101.873 94.1947 102.422 94.072 103.02 94.072ZM44.9831 123.624C44.4391 123.624 43.9751 123.437 43.5911 123.064C43.2178 122.68 43.0311 122.216 43.0311 121.672C43.0311 121.117 43.2178 120.653 43.5911 120.28C43.9751 119.896 44.4391 119.704 44.9831 119.704C45.5378 119.704 46.0071 119.896 46.3911 120.28C46.7751 120.653 46.9671 121.117 46.9671 121.672C46.9671 122.216 46.7751 122.68 46.3911 123.064C46.0071 123.437 45.5378 123.624 44.9831 123.624ZM57.688 122.6C57.688 121.693 57.8693 120.904 58.232 120.232C58.5947 119.549 59.096 119.021 59.736 118.648C60.3867 118.275 61.128 118.088 61.96 118.088C63.0373 118.088 63.9227 118.349 64.616 118.872C65.32 119.395 65.784 120.12 66.008 121.048H64.44C64.2907 120.515 63.9973 120.093 63.56 119.784C63.1333 119.475 62.6 119.32 61.96 119.32C61.128 119.32 60.456 119.608 59.944 120.184C59.432 120.749 59.176 121.555 59.176 122.6C59.176 123.656 59.432 124.472 59.944 125.048C60.456 125.624 61.128 125.912 61.96 125.912C62.6 125.912 63.1333 125.763 63.56 125.464C63.9867 125.165 64.28 124.739 64.44 124.184H66.008C65.7733 125.08 65.304 125.8 64.6 126.344C63.896 126.877 63.016 127.144 61.96 127.144C61.128 127.144 60.3867 126.957 59.736 126.584C59.096 126.211 58.5947 125.683 58.232 125C57.8693 124.317 57.688 123.517 57.688 122.6ZM71.7748 127.144C70.9534 127.144 70.2068 126.957 69.5348 126.584C68.8734 126.211 68.3508 125.683 67.9668 125C67.5934 124.307 67.4068 123.507 67.4068 122.6C67.4068 121.704 67.5988 120.915 67.9828 120.232C68.3774 119.539 68.9108 119.011 69.5828 118.648C70.2548 118.275 71.0068 118.088 71.8388 118.088C72.6708 118.088 73.4228 118.275 74.0948 118.648C74.7668 119.011 75.2948 119.533 75.6788 120.216C76.0734 120.899 76.2708 121.693 76.2708 122.6C76.2708 123.507 76.0681 124.307 75.6628 125C75.2681 125.683 74.7294 126.211 74.0468 126.584C73.3641 126.957 72.6068 127.144 71.7748 127.144ZM71.7748 125.864C72.2974 125.864 72.7881 125.741 73.2468 125.496C73.7054 125.251 74.0734 124.883 74.3508 124.392C74.6388 123.901 74.7828 123.304 74.7828 122.6C74.7828 121.896 74.6441 121.299 74.3668 120.808C74.0894 120.317 73.7268 119.955 73.2788 119.72C72.8308 119.475 72.3454 119.352 71.8228 119.352C71.2894 119.352 70.7988 119.475 70.3508 119.72C69.9134 119.955 69.5614 120.317 69.2948 120.808C69.0281 121.299 68.8948 121.896 68.8948 122.6C68.8948 123.315 69.0228 123.917 69.2788 124.408C69.5454 124.899 69.8974 125.267 70.3348 125.512C70.7721 125.747 71.2521 125.864 71.7748 125.864ZM82.4571 118.072C83.5238 118.072 84.3878 118.397 85.0491 119.048C85.7105 119.688 86.0411 120.616 86.0411 121.832V127H84.6011V122.04C84.6011 121.165 84.3825 120.499 83.9451 120.04C83.5078 119.571 82.9105 119.336 82.1531 119.336C81.3851 119.336 80.7718 119.576 80.3131 120.056C79.8651 120.536 79.6411 121.235 79.6411 122.152V127H78.1851V118.232H79.6411V119.48C79.9291 119.032 80.3185 118.685 80.8091 118.44C81.3105 118.195 81.8598 118.072 82.4571 118.072ZM90.1955 119.432V124.6C90.1955 125.027 90.2862 125.331 90.4675 125.512C90.6488 125.683 90.9635 125.768 91.4115 125.768H92.4835V127H91.1715C90.3608 127 89.7528 126.813 89.3475 126.44C88.9422 126.067 88.7395 125.453 88.7395 124.6V119.432H87.6035V118.232H88.7395V116.024H90.1955V118.232H92.4835V119.432H90.1955ZM93.7036 122.584C93.7036 121.688 93.885 120.904 94.2476 120.232C94.6103 119.549 95.1063 119.021 95.7356 118.648C96.3756 118.275 97.085 118.088 97.8636 118.088C98.6316 118.088 99.2983 118.253 99.8636 118.584C100.429 118.915 100.85 119.331 101.128 119.832V118.232H102.6V127H101.128V125.368C100.84 125.88 100.408 126.307 99.8316 126.648C99.2663 126.979 98.605 127.144 97.8476 127.144C97.069 127.144 96.365 126.952 95.7356 126.568C95.1063 126.184 94.6103 125.645 94.2476 124.952C93.885 124.259 93.7036 123.469 93.7036 122.584ZM101.128 122.6C101.128 121.939 100.994 121.363 100.728 120.872C100.461 120.381 100.098 120.008 99.6396 119.752C99.1916 119.485 98.6956 119.352 98.1516 119.352C97.6076 119.352 97.1116 119.48 96.6636 119.736C96.2156 119.992 95.8583 120.365 95.5916 120.856C95.325 121.347 95.1916 121.923 95.1916 122.584C95.1916 123.256 95.325 123.843 95.5916 124.344C95.8583 124.835 96.2156 125.213 96.6636 125.48C97.1116 125.736 97.6076 125.864 98.1516 125.864C98.6956 125.864 99.1916 125.736 99.6396 125.48C100.098 125.213 100.461 124.835 100.728 124.344C100.994 123.843 101.128 123.261 101.128 122.6ZM105.812 116.808C105.535 116.808 105.3 116.712 105.108 116.52C104.916 116.328 104.82 116.093 104.82 115.816C104.82 115.539 104.916 115.304 105.108 115.112C105.3 114.92 105.535 114.824 105.812 114.824C106.079 114.824 106.303 114.92 106.484 115.112C106.676 115.304 106.772 115.539 106.772 115.816C106.772 116.093 106.676 116.328 106.484 116.52C106.303 116.712 106.079 116.808 105.812 116.808ZM106.516 118.232V127H105.06V118.232H106.516ZM113.27 118.072C114.336 118.072 115.2 118.397 115.862 119.048C116.523 119.688 116.854 120.616 116.854 121.832V127H115.414V122.04C115.414 121.165 115.195 120.499 114.758 120.04C114.32 119.571 113.723 119.336 112.966 119.336C112.198 119.336 111.584 119.576 111.126 120.056C110.678 120.536 110.454 121.235 110.454 122.152V127H108.998V118.232H110.454V119.48C110.742 119.032 111.131 118.685 111.622 118.44C112.123 118.195 112.672 118.072 113.27 118.072ZM122.336 127.144C121.664 127.144 121.061 127.032 120.528 126.808C119.995 126.573 119.573 126.253 119.264 125.848C118.955 125.432 118.784 124.957 118.752 124.424H120.256C120.299 124.861 120.501 125.219 120.864 125.496C121.237 125.773 121.723 125.912 122.32 125.912C122.875 125.912 123.312 125.789 123.632 125.544C123.952 125.299 124.112 124.989 124.112 124.616C124.112 124.232 123.941 123.949 123.6 123.768C123.259 123.576 122.731 123.389 122.016 123.208C121.365 123.037 120.832 122.867 120.416 122.696C120.011 122.515 119.659 122.253 119.36 121.912C119.072 121.56 118.928 121.101 118.928 120.536C118.928 120.088 119.061 119.677 119.328 119.304C119.595 118.931 119.973 118.637 120.464 118.424C120.955 118.2 121.515 118.088 122.144 118.088C123.115 118.088 123.899 118.333 124.496 118.824C125.093 119.315 125.413 119.987 125.456 120.84H124C123.968 120.381 123.781 120.013 123.44 119.736C123.109 119.459 122.661 119.32 122.096 119.32C121.573 119.32 121.157 119.432 120.848 119.656C120.539 119.88 120.384 120.173 120.384 120.536C120.384 120.824 120.475 121.064 120.656 121.256C120.848 121.437 121.083 121.587 121.36 121.704C121.648 121.811 122.043 121.933 122.544 122.072C123.173 122.243 123.685 122.413 124.08 122.584C124.475 122.744 124.811 122.989 125.088 123.32C125.376 123.651 125.525 124.083 125.536 124.616C125.536 125.096 125.403 125.528 125.136 125.912C124.869 126.296 124.491 126.6 124 126.824C123.52 127.037 122.965 127.144 122.336 127.144ZM136.129 118.072C137.196 118.072 138.06 118.397 138.721 119.048C139.382 119.688 139.713 120.616 139.713 121.832V127H138.273V122.04C138.273 121.165 138.054 120.499 137.617 120.04C137.18 119.571 136.582 119.336 135.825 119.336C135.057 119.336 134.444 119.576 133.985 120.056C133.537 120.536 133.313 121.235 133.313 122.152V127H131.857V118.232H133.313V119.48C133.601 119.032 133.99 118.685 134.481 118.44C134.982 118.195 135.532 118.072 136.129 118.072ZM149.867 118.232V127H148.411V125.704C148.134 126.152 147.745 126.504 147.243 126.76C146.753 127.005 146.209 127.128 145.611 127.128C144.929 127.128 144.315 126.989 143.771 126.712C143.227 126.424 142.795 125.997 142.475 125.432C142.166 124.867 142.011 124.179 142.011 123.368V118.232H143.451V123.176C143.451 124.04 143.67 124.707 144.107 125.176C144.545 125.635 145.142 125.864 145.899 125.864C146.678 125.864 147.291 125.624 147.739 125.144C148.187 124.664 148.411 123.965 148.411 123.048V118.232H149.867ZM154.102 119.432V124.6C154.102 125.027 154.192 125.331 154.374 125.512C154.555 125.683 154.87 125.768 155.318 125.768H156.39V127H155.078C154.267 127 153.659 126.813 153.254 126.44C152.848 126.067 152.646 125.453 152.646 124.6V119.432H151.51V118.232H152.646V116.024H154.102V118.232H156.39V119.432H154.102ZM161.258 127.144C160.586 127.144 159.983 127.032 159.45 126.808C158.917 126.573 158.495 126.253 158.186 125.848C157.877 125.432 157.706 124.957 157.674 124.424H159.178C159.221 124.861 159.423 125.219 159.786 125.496C160.159 125.773 160.645 125.912 161.242 125.912C161.797 125.912 162.234 125.789 162.554 125.544C162.874 125.299 163.034 124.989 163.034 124.616C163.034 124.232 162.863 123.949 162.522 123.768C162.181 123.576 161.653 123.389 160.938 123.208C160.287 123.037 159.754 122.867 159.338 122.696C158.933 122.515 158.581 122.253 158.282 121.912C157.994 121.56 157.85 121.101 157.85 120.536C157.85 120.088 157.983 119.677 158.25 119.304C158.517 118.931 158.895 118.637 159.386 118.424C159.877 118.2 160.437 118.088 161.066 118.088C162.037 118.088 162.821 118.333 163.418 118.824C164.015 119.315 164.335 119.987 164.378 120.84H162.922C162.89 120.381 162.703 120.013 162.362 119.736C162.031 119.459 161.583 119.32 161.018 119.32C160.495 119.32 160.079 119.432 159.77 119.656C159.461 119.88 159.306 120.173 159.306 120.536C159.306 120.824 159.397 121.064 159.578 121.256C159.77 121.437 160.005 121.587 160.282 121.704C160.57 121.811 160.965 121.933 161.466 122.072C162.095 122.243 162.607 122.413 163.002 122.584C163.397 122.744 163.733 122.989 164.01 123.32C164.298 123.651 164.447 124.083 164.458 124.616C164.458 125.096 164.325 125.528 164.058 125.912C163.791 126.296 163.413 126.6 162.922 126.824C162.442 127.037 161.887 127.144 161.258 127.144ZM44.9831 147.624C44.4391 147.624 43.9751 147.437 43.5911 147.064C43.2178 146.68 43.0311 146.216 43.0311 145.672C43.0311 145.117 43.2178 144.653 43.5911 144.28C43.9751 143.896 44.4391 143.704 44.9831 143.704C45.5378 143.704 46.0071 143.896 46.3911 144.28C46.7751 144.653 46.9671 145.117 46.9671 145.672C46.9671 146.216 46.7751 146.68 46.3911 147.064C46.0071 147.437 45.5378 147.624 44.9831 147.624ZM66.232 146.28C66.232 146.557 66.216 146.851 66.184 147.16H59.176C59.2293 148.024 59.5227 148.701 60.056 149.192C60.6 149.672 61.256 149.912 62.024 149.912C62.6533 149.912 63.176 149.768 63.592 149.48C64.0187 149.181 64.3173 148.787 64.488 148.296H66.056C65.8213 149.139 65.352 149.827 64.648 150.36C63.944 150.883 63.0693 151.144 62.024 151.144C61.192 151.144 60.4453 150.957 59.784 150.584C59.1333 150.211 58.6213 149.683 58.248 149C57.8747 148.307 57.688 147.507 57.688 146.6C57.688 145.693 57.8693 144.899 58.232 144.216C58.5947 143.533 59.1013 143.011 59.752 142.648C60.4133 142.275 61.1707 142.088 62.024 142.088C62.856 142.088 63.592 142.269 64.232 142.632C64.872 142.995 65.3627 143.496 65.704 144.136C66.056 144.765 66.232 145.48 66.232 146.28ZM64.728 145.976C64.728 145.421 64.6053 144.947 64.36 144.552C64.1147 144.147 63.7787 143.843 63.352 143.64C62.936 143.427 62.472 143.32 61.96 143.32C61.224 143.32 60.5947 143.555 60.072 144.024C59.56 144.493 59.2667 145.144 59.192 145.976H64.728ZM69.9299 143.432V148.6C69.9299 149.027 70.0205 149.331 70.2019 149.512C70.3832 149.683 70.6979 149.768 71.1459 149.768H72.2179V151H70.9059C70.0952 151 69.4872 150.813 69.0819 150.44C68.6765 150.067 68.4739 149.453 68.4739 148.6V143.432H67.3379V142.232H68.4739V140.024H69.9299V142.232H72.2179V143.432H69.9299ZM73.438 146.6C73.438 145.693 73.6193 144.904 73.982 144.232C74.3447 143.549 74.846 143.021 75.486 142.648C76.1367 142.275 76.878 142.088 77.71 142.088C78.7873 142.088 79.6727 142.349 80.366 142.872C81.07 143.395 81.534 144.12 81.758 145.048H80.19C80.0407 144.515 79.7473 144.093 79.31 143.784C78.8833 143.475 78.35 143.32 77.71 143.32C76.878 143.32 76.206 143.608 75.694 144.184C75.182 144.749 74.926 145.555 74.926 146.6C74.926 147.656 75.182 148.472 75.694 149.048C76.206 149.624 76.878 149.912 77.71 149.912C78.35 149.912 78.8833 149.763 79.31 149.464C79.7367 149.165 80.03 148.739 80.19 148.184H81.758C81.5233 149.08 81.054 149.8 80.35 150.344C79.646 150.877 78.766 151.144 77.71 151.144C76.878 151.144 76.1367 150.957 75.486 150.584C74.846 150.211 74.3447 149.683 73.982 149C73.6193 148.317 73.438 147.517 73.438 146.6Z" fill="#513131"/>
<path d="M100.998 37.552C100.998 36.6667 101.18 35.8827 101.542 35.2C101.916 34.5173 102.417 33.9893 103.046 33.616C103.686 33.232 104.396 33.04 105.174 33.04C105.857 33.04 106.46 33.1787 106.982 33.456C107.516 33.7333 107.926 34.0693 108.214 34.464V33.184H110.054V46.192H108.214V40.72C107.926 41.1147 107.51 41.4507 106.966 41.728C106.422 42.0053 105.804 42.144 105.11 42.144C104.353 42.144 103.66 41.952 103.03 41.568C102.412 41.1733 101.916 40.6293 101.542 39.936C101.18 39.232 100.998 38.4373 100.998 37.552ZM108.214 37.584C108.214 36.976 108.086 36.448 107.83 36C107.585 35.552 107.26 35.2107 106.854 34.976C106.449 34.7413 106.012 34.624 105.542 34.624C105.073 34.624 104.636 34.7413 104.23 34.976C103.825 35.2 103.494 35.536 103.238 35.984C102.993 36.4213 102.87 36.944 102.87 37.552C102.87 38.16 102.993 38.6933 103.238 39.152C103.494 39.6107 103.825 39.9627 104.23 40.208C104.646 40.4427 105.084 40.56 105.542 40.56C106.012 40.56 106.449 40.4427 106.854 40.208C107.26 39.9733 107.585 39.632 107.83 39.184C108.086 38.7253 108.214 38.192 108.214 37.584ZM120.434 33.184V42H118.61V40.96C118.322 41.3227 117.943 41.6107 117.474 41.824C117.015 42.0267 116.525 42.128 116.002 42.128C115.309 42.128 114.685 41.984 114.13 41.696C113.586 41.408 113.154 40.9813 112.834 40.416C112.525 39.8507 112.37 39.168 112.37 38.368V33.184H114.178V38.096C114.178 38.8853 114.375 39.4933 114.77 39.92C115.165 40.336 115.703 40.544 116.386 40.544C117.069 40.544 117.607 40.336 118.002 39.92C118.407 39.4933 118.61 38.8853 118.61 38.096V33.184H120.434ZM123.769 32.016C123.438 32.016 123.161 31.904 122.937 31.68C122.713 31.456 122.601 31.1787 122.601 30.848C122.601 30.5173 122.713 30.24 122.937 30.016C123.161 29.792 123.438 29.68 123.769 29.68C124.089 29.68 124.361 29.792 124.585 30.016C124.809 30.24 124.921 30.5173 124.921 30.848C124.921 31.1787 124.809 31.456 124.585 31.68C124.361 31.904 124.089 32.016 123.769 32.016ZM124.665 33.184V42H122.841V33.184H124.665ZM126.451 37.584C126.451 36.6773 126.633 35.8827 126.995 35.2C127.369 34.5067 127.881 33.9733 128.531 33.6C129.182 33.2267 129.929 33.04 130.771 33.04C131.838 33.04 132.718 33.296 133.411 33.808C134.115 34.3093 134.59 35.0293 134.835 35.968H132.867C132.707 35.5307 132.451 35.1893 132.099 34.944C131.747 34.6987 131.305 34.576 130.771 34.576C130.025 34.576 129.427 34.8427 128.979 35.376C128.542 35.8987 128.323 36.6347 128.323 37.584C128.323 38.5333 128.542 39.2747 128.979 39.808C129.427 40.3413 130.025 40.608 130.771 40.608C131.827 40.608 132.526 40.144 132.867 39.216H134.835C134.579 40.112 134.099 40.8267 133.395 41.36C132.691 41.8827 131.817 42.144 130.771 42.144C129.929 42.144 129.182 41.9573 128.531 41.584C127.881 41.2 127.369 40.6667 126.995 39.984C126.633 39.2907 126.451 38.4907 126.451 37.584ZM140.141 37.6L144.205 42H141.741L138.477 38.208V42H136.653V30.16H138.477V37.04L141.677 33.184H144.205L140.141 37.6ZM150.597 32.016C150.266 32.016 149.989 31.904 149.765 31.68C149.541 31.456 149.429 31.1787 149.429 30.848C149.429 30.5173 149.541 30.24 149.765 30.016C149.989 29.792 150.266 29.68 150.597 29.68C150.917 29.68 151.189 29.792 151.413 30.016C151.637 30.24 151.749 30.5173 151.749 30.848C151.749 31.1787 151.637 31.456 151.413 31.68C151.189 31.904 150.917 32.016 150.597 32.016ZM151.493 33.184V42H149.669V33.184H151.493ZM158.336 33.04C159.029 33.04 159.648 33.184 160.192 33.472C160.746 33.76 161.178 34.1867 161.488 34.752C161.797 35.3173 161.952 36 161.952 36.8V42H160.144V37.072C160.144 36.2827 159.946 35.68 159.552 35.264C159.157 34.8373 158.618 34.624 157.936 34.624C157.253 34.624 156.709 34.8373 156.304 35.264C155.909 35.68 155.712 36.2827 155.712 37.072V42H153.888V33.184H155.712V34.192C156.01 33.8293 156.389 33.5467 156.848 33.344C157.317 33.1413 157.813 33.04 158.336 33.04ZM167.974 34.672H166.342V42H164.502V34.672H163.462V33.184H164.502V32.56C164.502 31.5467 164.769 30.8107 165.302 30.352C165.846 29.8827 166.694 29.648 167.846 29.648V31.168C167.291 31.168 166.902 31.2747 166.678 31.488C166.454 31.6907 166.342 32.048 166.342 32.56V33.184H167.974V34.672ZM173.415 42.144C172.583 42.144 171.831 41.9573 171.159 41.584C170.487 41.2 169.959 40.6667 169.575 39.984C169.191 39.2907 168.999 38.4907 168.999 37.584C168.999 36.688 169.196 35.8933 169.591 35.2C169.985 34.5067 170.524 33.9733 171.207 33.6C171.889 33.2267 172.652 33.04 173.495 33.04C174.337 33.04 175.1 33.2267 175.783 33.6C176.465 33.9733 177.004 34.5067 177.399 35.2C177.793 35.8933 177.991 36.688 177.991 37.584C177.991 38.48 177.788 39.2747 177.383 39.968C176.977 40.6613 176.423 41.2 175.719 41.584C175.025 41.9573 174.257 42.144 173.415 42.144ZM173.415 40.56C173.884 40.56 174.321 40.448 174.727 40.224C175.143 40 175.479 39.664 175.735 39.216C175.991 38.768 176.119 38.224 176.119 37.584C176.119 36.944 175.996 36.4053 175.751 35.968C175.505 35.52 175.18 35.184 174.775 34.96C174.369 34.736 173.932 34.624 173.463 34.624C172.993 34.624 172.556 34.736 172.151 34.96C171.756 35.184 171.441 35.52 171.207 35.968C170.972 36.4053 170.855 36.944 170.855 37.584C170.855 38.5333 171.095 39.2693 171.575 39.792C172.065 40.304 172.679 40.56 173.415 40.56Z" fill="#513131"/>
</g>
<defs>
<filter id="filter0_d_7_1422" x="0.5" y="0.5" width="277" height="337" filterUnits="userSpaceOnUse" color-interpolation-filters="sRGB">
<feFlood flood-opacity="0" result="BackgroundImageFix"/>
<feColorMatrix in="SourceAlpha" type="matrix" values="0 0 0 0 0 0 0 0 0 0 0 0 0 0 0 0 0 0 127 0" result="hardAlpha"/>
<feOffset dy="4"/>
<feGaussianBlur stdDeviation="4"/>
<feComposite in2="hardAlpha" operator="out"/>
<feColorMatrix type="matrix" values="0 0 0 0 0 0 0 0 0 0 0 0 0 0 0 0 0 0 0.25 0"/>
<feBlend mode="normal" in2="BackgroundImageFix" result="effect1_dropShadow_7_1422"/>
<feBlend mode="normal" in="SourceGraphic" in2="effect1_dropShadow_7_1422" result="shape"/>
</filter>
<linearGradient id="paint0_linear_7_1422" x1="9" y1="325" x2="269" y2="5.00001" gradientUnits="userSpaceOnUse">
<stop stop-color="#E6F8DB"/>
<stop offset="1" stop-color="#F6F8ED"/>
</linearGradient>
</defs>
</svg>
