<svg width="278" height="338" viewBox="0 0 278 338" fill="none" xmlns="http://www.w3.org/2000/svg">
<g filter="url(#filter0_d_7_1469)">
<path d="M9 45C9 22.9086 26.9086 5 49 5H229C251.091 5 269 22.9086 269 45V285C269 307.091 251.091 325 229 325H49C26.9086 325 9 307.091 9 285V45Z" fill="url(#paint0_linear_7_1469)"/>
<path d="M9 45C9 22.9086 26.9086 5 49 5H229C251.091 5 269 22.9086 269 45V285C269 307.091 251.091 325 229 325H49C26.9086 325 9 307.091 9 285V45Z" stroke="#F6F8ED"/>
</g>
<path d="M81.484 94.808C81.2067 94.808 80.972 94.712 80.78 94.52C80.588 94.328 80.492 94.0933 80.492 93.816C80.492 93.5387 80.588 93.304 80.78 93.112C80.972 92.92 81.2067 92.824 81.484 92.824C81.7507 92.824 81.9747 92.92 82.156 93.112C82.348 93.304 82.444 93.5387 82.444 93.816C82.444 94.0933 82.348 94.328 82.156 94.52C81.9747 94.712 81.7507 94.808 81.484 94.808ZM82.188 96.232V105H80.732V96.232H82.188ZM88.9415 96.072C90.0082 96.072 90.8722 96.3973 91.5335 97.048C92.1948 97.688 92.5255 98.616 92.5255 99.832V105H91.0855V100.04C91.0855 99.1653 90.8668 98.4987 90.4295 98.04C89.9922 97.5707 89.3948 97.336 88.6375 97.336C87.8695 97.336 87.2562 97.576 86.7975 98.056C86.3495 98.536 86.1255 99.2347 86.1255 100.152V105H84.6695V96.232H86.1255V97.48C86.4135 97.032 86.8028 96.6853 87.2935 96.44C87.7948 96.1947 88.3442 96.072 88.9415 96.072ZM98.5199 96.088C99.2772 96.088 99.9385 96.2533 100.504 96.584C101.08 96.9147 101.507 97.3307 101.784 97.832V96.232H103.256V105.192C103.256 105.992 103.085 106.701 102.744 107.32C102.403 107.949 101.912 108.44 101.272 108.792C100.643 109.144 99.9065 109.32 99.0639 109.32C97.9119 109.32 96.9519 109.048 96.1839 108.504C95.4159 107.96 94.9625 107.219 94.8239 106.28H96.2639C96.4239 106.813 96.7545 107.24 97.2559 107.56C97.7572 107.891 98.3599 108.056 99.0639 108.056C99.8639 108.056 100.515 107.805 101.016 107.304C101.528 106.803 101.784 106.099 101.784 105.192V103.352C101.496 103.864 101.069 104.291 100.504 104.632C99.9385 104.973 99.2772 105.144 98.5199 105.144C97.7412 105.144 97.0319 104.952 96.3919 104.568C95.7625 104.184 95.2665 103.645 94.9039 102.952C94.5412 102.259 94.3599 101.469 94.3599 100.584C94.3599 99.688 94.5412 98.904 94.9039 98.232C95.2665 97.5493 95.7625 97.0213 96.3919 96.648C97.0319 96.2747 97.7412 96.088 98.5199 96.088ZM101.784 100.6C101.784 99.9387 101.651 99.3627 101.384 98.872C101.117 98.3813 100.755 98.008 100.296 97.752C99.8479 97.4853 99.3519 97.352 98.8079 97.352C98.2639 97.352 97.7679 97.48 97.3199 97.736C96.8719 97.992 96.5145 98.3653 96.2479 98.856C95.9812 99.3467 95.8479 99.9227 95.8479 100.584C95.8479 101.256 95.9812 101.843 96.2479 102.344C96.5145 102.835 96.8719 103.213 97.3199 103.48C97.7679 103.736 98.2639 103.864 98.8079 103.864C99.3519 103.864 99.8479 103.736 100.296 103.48C100.755 103.213 101.117 102.835 101.384 102.344C101.651 101.843 101.784 101.261 101.784 100.6ZM107.172 97.656C107.428 97.1547 107.791 96.7653 108.26 96.488C108.74 96.2107 109.322 96.072 110.004 96.072V97.576H109.62C107.988 97.576 107.172 98.4613 107.172 100.232V105H105.716V96.232H107.172V97.656ZM119.685 100.28C119.685 100.557 119.669 100.851 119.637 101.16H112.629C112.682 102.024 112.976 102.701 113.509 103.192C114.053 103.672 114.709 103.912 115.477 103.912C116.106 103.912 116.629 103.768 117.045 103.48C117.472 103.181 117.77 102.787 117.941 102.296H119.509C119.274 103.139 118.805 103.827 118.101 104.36C117.397 104.883 116.522 105.144 115.477 105.144C114.645 105.144 113.898 104.957 113.237 104.584C112.586 104.211 112.074 103.683 111.701 103C111.328 102.307 111.141 101.507 111.141 100.6C111.141 99.6933 111.322 98.8987 111.685 98.216C112.048 97.5333 112.554 97.0107 113.205 96.648C113.866 96.2747 114.624 96.088 115.477 96.088C116.309 96.088 117.045 96.2693 117.685 96.632C118.325 96.9947 118.816 97.496 119.157 98.136C119.509 98.7653 119.685 99.48 119.685 100.28ZM118.181 99.976C118.181 99.4213 118.058 98.9467 117.813 98.552C117.568 98.1467 117.232 97.8427 116.805 97.64C116.389 97.4267 115.925 97.32 115.413 97.32C114.677 97.32 114.048 97.5547 113.525 98.024C113.013 98.4933 112.72 99.144 112.645 99.976H118.181ZM121.063 100.584C121.063 99.688 121.244 98.904 121.607 98.232C121.97 97.5493 122.466 97.0213 123.095 96.648C123.735 96.2747 124.45 96.088 125.239 96.088C125.922 96.088 126.556 96.248 127.143 96.568C127.73 96.8773 128.178 97.288 128.487 97.8V93.16H129.959V105H128.487V103.352C128.199 103.875 127.772 104.307 127.207 104.648C126.642 104.979 125.98 105.144 125.223 105.144C124.444 105.144 123.735 104.952 123.095 104.568C122.466 104.184 121.97 103.645 121.607 102.952C121.244 102.259 121.063 101.469 121.063 100.584ZM128.487 100.6C128.487 99.9387 128.354 99.3627 128.087 98.872C127.82 98.3813 127.458 98.008 126.999 97.752C126.551 97.4853 126.055 97.352 125.511 97.352C124.967 97.352 124.471 97.48 124.023 97.736C123.575 97.992 123.218 98.3653 122.951 98.856C122.684 99.3467 122.551 99.9227 122.551 100.584C122.551 101.256 122.684 101.843 122.951 102.344C123.218 102.835 123.575 103.213 124.023 103.48C124.471 103.736 124.967 103.864 125.511 103.864C126.055 103.864 126.551 103.736 126.999 103.48C127.458 103.213 127.82 102.835 128.087 102.344C128.354 101.843 128.487 101.261 128.487 100.6ZM133.172 94.808C132.894 94.808 132.66 94.712 132.468 94.52C132.276 94.328 132.18 94.0933 132.18 93.816C132.18 93.5387 132.276 93.304 132.468 93.112C132.66 92.92 132.894 92.824 133.172 92.824C133.438 92.824 133.662 92.92 133.844 93.112C134.036 93.304 134.132 93.5387 134.132 93.816C134.132 94.0933 134.036 94.328 133.844 94.52C133.662 94.712 133.438 94.808 133.172 94.808ZM133.876 96.232V105H132.42V96.232H133.876ZM144.357 100.28C144.357 100.557 144.341 100.851 144.309 101.16H137.301C137.354 102.024 137.648 102.701 138.181 103.192C138.725 103.672 139.381 103.912 140.149 103.912C140.778 103.912 141.301 103.768 141.717 103.48C142.144 103.181 142.442 102.787 142.613 102.296H144.181C143.946 103.139 143.477 103.827 142.773 104.36C142.069 104.883 141.194 105.144 140.149 105.144C139.317 105.144 138.57 104.957 137.909 104.584C137.258 104.211 136.746 103.683 136.373 103C136 102.307 135.813 101.507 135.813 100.6C135.813 99.6933 135.994 98.8987 136.357 98.216C136.72 97.5333 137.226 97.0107 137.877 96.648C138.538 96.2747 139.296 96.088 140.149 96.088C140.981 96.088 141.717 96.2693 142.357 96.632C142.997 96.9947 143.488 97.496 143.829 98.136C144.181 98.7653 144.357 99.48 144.357 100.28ZM142.853 99.976C142.853 99.4213 142.73 98.9467 142.485 98.552C142.24 98.1467 141.904 97.8427 141.477 97.64C141.061 97.4267 140.597 97.32 140.085 97.32C139.349 97.32 138.72 97.5547 138.197 98.024C137.685 98.4933 137.392 99.144 137.317 99.976H142.853ZM150.551 96.072C151.618 96.072 152.482 96.3973 153.143 97.048C153.804 97.688 154.135 98.616 154.135 99.832V105H152.695V100.04C152.695 99.1653 152.476 98.4987 152.039 98.04C151.602 97.5707 151.004 97.336 150.247 97.336C149.479 97.336 148.866 97.576 148.407 98.056C147.959 98.536 147.735 99.2347 147.735 100.152V105H146.279V96.232H147.735V97.48C148.023 97.032 148.412 96.6853 148.903 96.44C149.404 96.1947 149.954 96.072 150.551 96.072ZM158.289 97.432V102.6C158.289 103.027 158.38 103.331 158.561 103.512C158.743 103.683 159.057 103.768 159.505 103.768H160.577V105H159.265C158.455 105 157.847 104.813 157.441 104.44C157.036 104.067 156.833 103.453 156.833 102.6V97.432H155.697V96.232H156.833V94.024H158.289V96.232H160.577V97.432H158.289ZM165.983 94.76V93.432H168.991V105H167.519V94.76H165.983Z" fill="#513131" fill-opacity="0.5"/>
<path d="M79.5 99.752H170.495V100.552H79.5V99.752Z" fill="#513131" fill-opacity="0.5"/>
<path d="M81.484 120.808C81.2067 120.808 80.972 120.712 80.78 120.52C80.588 120.328 80.492 120.093 80.492 119.816C80.492 119.539 80.588 119.304 80.78 119.112C80.972 118.92 81.2067 118.824 81.484 118.824C81.7507 118.824 81.9747 118.92 82.156 119.112C82.348 119.304 82.444 119.539 82.444 119.816C82.444 120.093 82.348 120.328 82.156 120.52C81.9747 120.712 81.7507 120.808 81.484 120.808ZM82.188 122.232V131H80.732V122.232H82.188ZM88.9415 122.072C90.0082 122.072 90.8722 122.397 91.5335 123.048C92.1948 123.688 92.5255 124.616 92.5255 125.832V131H91.0855V126.04C91.0855 125.165 90.8668 124.499 90.4295 124.04C89.9922 123.571 89.3948 123.336 88.6375 123.336C87.8695 123.336 87.2562 123.576 86.7975 124.056C86.3495 124.536 86.1255 125.235 86.1255 126.152V131H84.6695V122.232H86.1255V123.48C86.4135 123.032 86.8028 122.685 87.2935 122.44C87.7948 122.195 88.3442 122.072 88.9415 122.072ZM98.5199 122.088C99.2772 122.088 99.9385 122.253 100.504 122.584C101.08 122.915 101.507 123.331 101.784 123.832V122.232H103.256V131.192C103.256 131.992 103.085 132.701 102.744 133.32C102.403 133.949 101.912 134.44 101.272 134.792C100.643 135.144 99.9065 135.32 99.0639 135.32C97.9119 135.32 96.9519 135.048 96.1839 134.504C95.4159 133.96 94.9625 133.219 94.8239 132.28H96.2639C96.4239 132.813 96.7545 133.24 97.2559 133.56C97.7572 133.891 98.3599 134.056 99.0639 134.056C99.8639 134.056 100.515 133.805 101.016 133.304C101.528 132.803 101.784 132.099 101.784 131.192V129.352C101.496 129.864 101.069 130.291 100.504 130.632C99.9385 130.973 99.2772 131.144 98.5199 131.144C97.7412 131.144 97.0319 130.952 96.3919 130.568C95.7625 130.184 95.2665 129.645 94.9039 128.952C94.5412 128.259 94.3599 127.469 94.3599 126.584C94.3599 125.688 94.5412 124.904 94.9039 124.232C95.2665 123.549 95.7625 123.021 96.3919 122.648C97.0319 122.275 97.7412 122.088 98.5199 122.088ZM101.784 126.6C101.784 125.939 101.651 125.363 101.384 124.872C101.117 124.381 100.755 124.008 100.296 123.752C99.8479 123.485 99.3519 123.352 98.8079 123.352C98.2639 123.352 97.7679 123.48 97.3199 123.736C96.8719 123.992 96.5145 124.365 96.2479 124.856C95.9812 125.347 95.8479 125.923 95.8479 126.584C95.8479 127.256 95.9812 127.843 96.2479 128.344C96.5145 128.835 96.8719 129.213 97.3199 129.48C97.7679 129.736 98.2639 129.864 98.8079 129.864C99.3519 129.864 99.8479 129.736 100.296 129.48C100.755 129.213 101.117 128.835 101.384 128.344C101.651 127.843 101.784 127.261 101.784 126.6ZM107.172 123.656C107.428 123.155 107.791 122.765 108.26 122.488C108.74 122.211 109.322 122.072 110.004 122.072V123.576H109.62C107.988 123.576 107.172 124.461 107.172 126.232V131H105.716V122.232H107.172V123.656ZM119.685 126.28C119.685 126.557 119.669 126.851 119.637 127.16H112.629C112.682 128.024 112.976 128.701 113.509 129.192C114.053 129.672 114.709 129.912 115.477 129.912C116.106 129.912 116.629 129.768 117.045 129.48C117.472 129.181 117.77 128.787 117.941 128.296H119.509C119.274 129.139 118.805 129.827 118.101 130.36C117.397 130.883 116.522 131.144 115.477 131.144C114.645 131.144 113.898 130.957 113.237 130.584C112.586 130.211 112.074 129.683 111.701 129C111.328 128.307 111.141 127.507 111.141 126.6C111.141 125.693 111.322 124.899 111.685 124.216C112.048 123.533 112.554 123.011 113.205 122.648C113.866 122.275 114.624 122.088 115.477 122.088C116.309 122.088 117.045 122.269 117.685 122.632C118.325 122.995 118.816 123.496 119.157 124.136C119.509 124.765 119.685 125.48 119.685 126.28ZM118.181 125.976C118.181 125.421 118.058 124.947 117.813 124.552C117.568 124.147 117.232 123.843 116.805 123.64C116.389 123.427 115.925 123.32 115.413 123.32C114.677 123.32 114.048 123.555 113.525 124.024C113.013 124.493 112.72 125.144 112.645 125.976H118.181ZM121.063 126.584C121.063 125.688 121.244 124.904 121.607 124.232C121.97 123.549 122.466 123.021 123.095 122.648C123.735 122.275 124.45 122.088 125.239 122.088C125.922 122.088 126.556 122.248 127.143 122.568C127.73 122.877 128.178 123.288 128.487 123.8V119.16H129.959V131H128.487V129.352C128.199 129.875 127.772 130.307 127.207 130.648C126.642 130.979 125.98 131.144 125.223 131.144C124.444 131.144 123.735 130.952 123.095 130.568C122.466 130.184 121.97 129.645 121.607 128.952C121.244 128.259 121.063 127.469 121.063 126.584ZM128.487 126.6C128.487 125.939 128.354 125.363 128.087 124.872C127.82 124.381 127.458 124.008 126.999 123.752C126.551 123.485 126.055 123.352 125.511 123.352C124.967 123.352 124.471 123.48 124.023 123.736C123.575 123.992 123.218 124.365 122.951 124.856C122.684 125.347 122.551 125.923 122.551 126.584C122.551 127.256 122.684 127.843 122.951 128.344C123.218 128.835 123.575 129.213 124.023 129.48C124.471 129.736 124.967 129.864 125.511 129.864C126.055 129.864 126.551 129.736 126.999 129.48C127.458 129.213 127.82 128.835 128.087 128.344C128.354 127.843 128.487 127.261 128.487 126.6ZM133.172 120.808C132.894 120.808 132.66 120.712 132.468 120.52C132.276 120.328 132.18 120.093 132.18 119.816C132.18 119.539 132.276 119.304 132.468 119.112C132.66 118.92 132.894 118.824 133.172 118.824C133.438 118.824 133.662 118.92 133.844 119.112C134.036 119.304 134.132 119.539 134.132 119.816C134.132 120.093 134.036 120.328 133.844 120.52C133.662 120.712 133.438 120.808 133.172 120.808ZM133.876 122.232V131H132.42V122.232H133.876ZM144.357 126.28C144.357 126.557 144.341 126.851 144.309 127.16H137.301C137.354 128.024 137.648 128.701 138.181 129.192C138.725 129.672 139.381 129.912 140.149 129.912C140.778 129.912 141.301 129.768 141.717 129.48C142.144 129.181 142.442 128.787 142.613 128.296H144.181C143.946 129.139 143.477 129.827 142.773 130.36C142.069 130.883 141.194 131.144 140.149 131.144C139.317 131.144 138.57 130.957 137.909 130.584C137.258 130.211 136.746 129.683 136.373 129C136 128.307 135.813 127.507 135.813 126.6C135.813 125.693 135.994 124.899 136.357 124.216C136.72 123.533 137.226 123.011 137.877 122.648C138.538 122.275 139.296 122.088 140.149 122.088C140.981 122.088 141.717 122.269 142.357 122.632C142.997 122.995 143.488 123.496 143.829 124.136C144.181 124.765 144.357 125.48 144.357 126.28ZM142.853 125.976C142.853 125.421 142.73 124.947 142.485 124.552C142.24 124.147 141.904 123.843 141.477 123.64C141.061 123.427 140.597 123.32 140.085 123.32C139.349 123.32 138.72 123.555 138.197 124.024C137.685 124.493 137.392 125.144 137.317 125.976H142.853ZM150.551 122.072C151.618 122.072 152.482 122.397 153.143 123.048C153.804 123.688 154.135 124.616 154.135 125.832V131H152.695V126.04C152.695 125.165 152.476 124.499 152.039 124.04C151.602 123.571 151.004 123.336 150.247 123.336C149.479 123.336 148.866 123.576 148.407 124.056C147.959 124.536 147.735 125.235 147.735 126.152V131H146.279V122.232H147.735V123.48C148.023 123.032 148.412 122.685 148.903 122.44C149.404 122.195 149.954 122.072 150.551 122.072ZM158.289 123.432V128.6C158.289 129.027 158.38 129.331 158.561 129.512C158.743 129.683 159.057 129.768 159.505 129.768H160.577V131H159.265C158.455 131 157.847 130.813 157.441 130.44C157.036 130.067 156.833 129.453 156.833 128.6V123.432H155.697V122.232H156.833V120.024H158.289V122.232H160.577V123.432H158.289ZM165.983 120.76V119.432H168.991V131H167.519V120.76H165.983Z" fill="#513131"/>
<path d="M81.484 150.808C81.2067 150.808 80.972 150.712 80.78 150.52C80.588 150.328 80.492 150.093 80.492 149.816C80.492 149.539 80.588 149.304 80.78 149.112C80.972 148.92 81.2067 148.824 81.484 148.824C81.7507 148.824 81.9747 148.92 82.156 149.112C82.348 149.304 82.444 149.539 82.444 149.816C82.444 150.093 82.348 150.328 82.156 150.52C81.9747 150.712 81.7507 150.808 81.484 150.808ZM82.188 152.232V161H80.732V152.232H82.188ZM88.9415 152.072C90.0082 152.072 90.8722 152.397 91.5335 153.048C92.1948 153.688 92.5255 154.616 92.5255 155.832V161H91.0855V156.04C91.0855 155.165 90.8668 154.499 90.4295 154.04C89.9922 153.571 89.3948 153.336 88.6375 153.336C87.8695 153.336 87.2562 153.576 86.7975 154.056C86.3495 154.536 86.1255 155.235 86.1255 156.152V161H84.6695V152.232H86.1255V153.48C86.4135 153.032 86.8028 152.685 87.2935 152.44C87.7948 152.195 88.3442 152.072 88.9415 152.072ZM98.5199 152.088C99.2772 152.088 99.9385 152.253 100.504 152.584C101.08 152.915 101.507 153.331 101.784 153.832V152.232H103.256V161.192C103.256 161.992 103.085 162.701 102.744 163.32C102.403 163.949 101.912 164.44 101.272 164.792C100.643 165.144 99.9065 165.32 99.0639 165.32C97.9119 165.32 96.9519 165.048 96.1839 164.504C95.4159 163.96 94.9625 163.219 94.8239 162.28H96.2639C96.4239 162.813 96.7545 163.24 97.2559 163.56C97.7572 163.891 98.3599 164.056 99.0639 164.056C99.8639 164.056 100.515 163.805 101.016 163.304C101.528 162.803 101.784 162.099 101.784 161.192V159.352C101.496 159.864 101.069 160.291 100.504 160.632C99.9385 160.973 99.2772 161.144 98.5199 161.144C97.7412 161.144 97.0319 160.952 96.3919 160.568C95.7625 160.184 95.2665 159.645 94.9039 158.952C94.5412 158.259 94.3599 157.469 94.3599 156.584C94.3599 155.688 94.5412 154.904 94.9039 154.232C95.2665 153.549 95.7625 153.021 96.3919 152.648C97.0319 152.275 97.7412 152.088 98.5199 152.088ZM101.784 156.6C101.784 155.939 101.651 155.363 101.384 154.872C101.117 154.381 100.755 154.008 100.296 153.752C99.8479 153.485 99.3519 153.352 98.8079 153.352C98.2639 153.352 97.7679 153.48 97.3199 153.736C96.8719 153.992 96.5145 154.365 96.2479 154.856C95.9812 155.347 95.8479 155.923 95.8479 156.584C95.8479 157.256 95.9812 157.843 96.2479 158.344C96.5145 158.835 96.8719 159.213 97.3199 159.48C97.7679 159.736 98.2639 159.864 98.8079 159.864C99.3519 159.864 99.8479 159.736 100.296 159.48C100.755 159.213 101.117 158.835 101.384 158.344C101.651 157.843 101.784 157.261 101.784 156.6ZM107.172 153.656C107.428 153.155 107.791 152.765 108.26 152.488C108.74 152.211 109.322 152.072 110.004 152.072V153.576H109.62C107.988 153.576 107.172 154.461 107.172 156.232V161H105.716V152.232H107.172V153.656ZM119.685 156.28C119.685 156.557 119.669 156.851 119.637 157.16H112.629C112.682 158.024 112.976 158.701 113.509 159.192C114.053 159.672 114.709 159.912 115.477 159.912C116.106 159.912 116.629 159.768 117.045 159.48C117.472 159.181 117.77 158.787 117.941 158.296H119.509C119.274 159.139 118.805 159.827 118.101 160.36C117.397 160.883 116.522 161.144 115.477 161.144C114.645 161.144 113.898 160.957 113.237 160.584C112.586 160.211 112.074 159.683 111.701 159C111.328 158.307 111.141 157.507 111.141 156.6C111.141 155.693 111.322 154.899 111.685 154.216C112.048 153.533 112.554 153.011 113.205 152.648C113.866 152.275 114.624 152.088 115.477 152.088C116.309 152.088 117.045 152.269 117.685 152.632C118.325 152.995 118.816 153.496 119.157 154.136C119.509 154.765 119.685 155.48 119.685 156.28ZM118.181 155.976C118.181 155.421 118.058 154.947 117.813 154.552C117.568 154.147 117.232 153.843 116.805 153.64C116.389 153.427 115.925 153.32 115.413 153.32C114.677 153.32 114.048 153.555 113.525 154.024C113.013 154.493 112.72 155.144 112.645 155.976H118.181ZM121.063 156.584C121.063 155.688 121.244 154.904 121.607 154.232C121.97 153.549 122.466 153.021 123.095 152.648C123.735 152.275 124.45 152.088 125.239 152.088C125.922 152.088 126.556 152.248 127.143 152.568C127.73 152.877 128.178 153.288 128.487 153.8V149.16H129.959V161H128.487V159.352C128.199 159.875 127.772 160.307 127.207 160.648C126.642 160.979 125.98 161.144 125.223 161.144C124.444 161.144 123.735 160.952 123.095 160.568C122.466 160.184 121.97 159.645 121.607 158.952C121.244 158.259 121.063 157.469 121.063 156.584ZM128.487 156.6C128.487 155.939 128.354 155.363 128.087 154.872C127.82 154.381 127.458 154.008 126.999 153.752C126.551 153.485 126.055 153.352 125.511 153.352C124.967 153.352 124.471 153.48 124.023 153.736C123.575 153.992 123.218 154.365 122.951 154.856C122.684 155.347 122.551 155.923 122.551 156.584C122.551 157.256 122.684 157.843 122.951 158.344C123.218 158.835 123.575 159.213 124.023 159.48C124.471 159.736 124.967 159.864 125.511 159.864C126.055 159.864 126.551 159.736 126.999 159.48C127.458 159.213 127.82 158.835 128.087 158.344C128.354 157.843 128.487 157.261 128.487 156.6ZM133.172 150.808C132.894 150.808 132.66 150.712 132.468 150.52C132.276 150.328 132.18 150.093 132.18 149.816C132.18 149.539 132.276 149.304 132.468 149.112C132.66 148.92 132.894 148.824 133.172 148.824C133.438 148.824 133.662 148.92 133.844 149.112C134.036 149.304 134.132 149.539 134.132 149.816C134.132 150.093 134.036 150.328 133.844 150.52C133.662 150.712 133.438 150.808 133.172 150.808ZM133.876 152.232V161H132.42V152.232H133.876ZM144.357 156.28C144.357 156.557 144.341 156.851 144.309 157.16H137.301C137.354 158.024 137.648 158.701 138.181 159.192C138.725 159.672 139.381 159.912 140.149 159.912C140.778 159.912 141.301 159.768 141.717 159.48C142.144 159.181 142.442 158.787 142.613 158.296H144.181C143.946 159.139 143.477 159.827 142.773 160.36C142.069 160.883 141.194 161.144 140.149 161.144C139.317 161.144 138.57 160.957 137.909 160.584C137.258 160.211 136.746 159.683 136.373 159C136 158.307 135.813 157.507 135.813 156.6C135.813 155.693 135.994 154.899 136.357 154.216C136.72 153.533 137.226 153.011 137.877 152.648C138.538 152.275 139.296 152.088 140.149 152.088C140.981 152.088 141.717 152.269 142.357 152.632C142.997 152.995 143.488 153.496 143.829 154.136C144.181 154.765 144.357 155.48 144.357 156.28ZM142.853 155.976C142.853 155.421 142.73 154.947 142.485 154.552C142.24 154.147 141.904 153.843 141.477 153.64C141.061 153.427 140.597 153.32 140.085 153.32C139.349 153.32 138.72 153.555 138.197 154.024C137.685 154.493 137.392 155.144 137.317 155.976H142.853ZM150.551 152.072C151.618 152.072 152.482 152.397 153.143 153.048C153.804 153.688 154.135 154.616 154.135 155.832V161H152.695V156.04C152.695 155.165 152.476 154.499 152.039 154.04C151.602 153.571 151.004 153.336 150.247 153.336C149.479 153.336 148.866 153.576 148.407 154.056C147.959 154.536 147.735 155.235 147.735 156.152V161H146.279V152.232H147.735V153.48C148.023 153.032 148.412 152.685 148.903 152.44C149.404 152.195 149.954 152.072 150.551 152.072ZM158.289 153.432V158.6C158.289 159.027 158.38 159.331 158.561 159.512C158.743 159.683 159.057 159.768 159.505 159.768H160.577V161H159.265C158.455 161 157.847 160.813 157.441 160.44C157.036 160.067 156.833 159.453 156.833 158.6V153.432H155.697V152.232H156.833V150.024H158.289V152.232H160.577V153.432H158.289ZM165.983 150.76V149.432H168.991V161H167.519V150.76H165.983Z" fill="#513131"/>
<path d="M103.484 183.808C103.207 183.808 102.972 183.712 102.78 183.52C102.588 183.328 102.492 183.093 102.492 182.816C102.492 182.539 102.588 182.304 102.78 182.112C102.972 181.92 103.207 181.824 103.484 181.824C103.751 181.824 103.975 181.92 104.156 182.112C104.348 182.304 104.444 182.539 104.444 182.816C104.444 183.093 104.348 183.328 104.156 183.52C103.975 183.712 103.751 183.808 103.484 183.808ZM104.188 185.232V194H102.732V185.232H104.188ZM110.942 185.072C112.008 185.072 112.872 185.397 113.534 186.048C114.195 186.688 114.526 187.616 114.526 188.832V194H113.086V189.04C113.086 188.165 112.867 187.499 112.43 187.04C111.992 186.571 111.395 186.336 110.638 186.336C109.87 186.336 109.256 186.576 108.798 187.056C108.35 187.536 108.126 188.235 108.126 189.152V194H106.67V185.232H108.126V186.48C108.414 186.032 108.803 185.685 109.294 185.44C109.795 185.195 110.344 185.072 110.942 185.072ZM120.52 185.088C121.277 185.088 121.939 185.253 122.504 185.584C123.08 185.915 123.507 186.331 123.784 186.832V185.232H125.256V194.192C125.256 194.992 125.085 195.701 124.744 196.32C124.403 196.949 123.912 197.44 123.272 197.792C122.643 198.144 121.907 198.32 121.064 198.32C119.912 198.32 118.952 198.048 118.184 197.504C117.416 196.96 116.963 196.219 116.824 195.28H118.264C118.424 195.813 118.755 196.24 119.256 196.56C119.757 196.891 120.36 197.056 121.064 197.056C121.864 197.056 122.515 196.805 123.016 196.304C123.528 195.803 123.784 195.099 123.784 194.192V192.352C123.496 192.864 123.069 193.291 122.504 193.632C121.939 193.973 121.277 194.144 120.52 194.144C119.741 194.144 119.032 193.952 118.392 193.568C117.763 193.184 117.267 192.645 116.904 191.952C116.541 191.259 116.36 190.469 116.36 189.584C116.36 188.688 116.541 187.904 116.904 187.232C117.267 186.549 117.763 186.021 118.392 185.648C119.032 185.275 119.741 185.088 120.52 185.088ZM123.784 189.6C123.784 188.939 123.651 188.363 123.384 187.872C123.117 187.381 122.755 187.008 122.296 186.752C121.848 186.485 121.352 186.352 120.808 186.352C120.264 186.352 119.768 186.48 119.32 186.736C118.872 186.992 118.515 187.365 118.248 187.856C117.981 188.347 117.848 188.923 117.848 189.584C117.848 190.256 117.981 190.843 118.248 191.344C118.515 191.835 118.872 192.213 119.32 192.48C119.768 192.736 120.264 192.864 120.808 192.864C121.352 192.864 121.848 192.736 122.296 192.48C122.755 192.213 123.117 191.835 123.384 191.344C123.651 190.843 123.784 190.261 123.784 189.6ZM129.172 186.656C129.428 186.155 129.791 185.765 130.26 185.488C130.74 185.211 131.322 185.072 132.004 185.072V186.576H131.62C129.988 186.576 129.172 187.461 129.172 189.232V194H127.716V185.232H129.172V186.656ZM141.685 189.28C141.685 189.557 141.669 189.851 141.637 190.16H134.629C134.682 191.024 134.976 191.701 135.509 192.192C136.053 192.672 136.709 192.912 137.477 192.912C138.106 192.912 138.629 192.768 139.045 192.48C139.472 192.181 139.77 191.787 139.941 191.296H141.509C141.274 192.139 140.805 192.827 140.101 193.36C139.397 193.883 138.522 194.144 137.477 194.144C136.645 194.144 135.898 193.957 135.237 193.584C134.586 193.211 134.074 192.683 133.701 192C133.328 191.307 133.141 190.507 133.141 189.6C133.141 188.693 133.322 187.899 133.685 187.216C134.048 186.533 134.554 186.011 135.205 185.648C135.866 185.275 136.624 185.088 137.477 185.088C138.309 185.088 139.045 185.269 139.685 185.632C140.325 185.995 140.816 186.496 141.157 187.136C141.509 187.765 141.685 188.48 141.685 189.28ZM140.181 188.976C140.181 188.421 140.058 187.947 139.813 187.552C139.568 187.147 139.232 186.843 138.805 186.64C138.389 186.427 137.925 186.32 137.413 186.32C136.677 186.32 136.048 186.555 135.525 187.024C135.013 187.493 134.72 188.144 134.645 188.976H140.181ZM143.063 189.584C143.063 188.688 143.244 187.904 143.607 187.232C143.97 186.549 144.466 186.021 145.095 185.648C145.735 185.275 146.45 185.088 147.239 185.088C147.922 185.088 148.556 185.248 149.143 185.568C149.73 185.877 150.178 186.288 150.487 186.8V182.16H151.959V194H150.487V192.352C150.199 192.875 149.772 193.307 149.207 193.648C148.642 193.979 147.98 194.144 147.223 194.144C146.444 194.144 145.735 193.952 145.095 193.568C144.466 193.184 143.97 192.645 143.607 191.952C143.244 191.259 143.063 190.469 143.063 189.584ZM150.487 189.6C150.487 188.939 150.354 188.363 150.087 187.872C149.82 187.381 149.458 187.008 148.999 186.752C148.551 186.485 148.055 186.352 147.511 186.352C146.967 186.352 146.471 186.48 146.023 186.736C145.575 186.992 145.218 187.365 144.951 187.856C144.684 188.347 144.551 188.923 144.551 189.584C144.551 190.256 144.684 190.843 144.951 191.344C145.218 191.835 145.575 192.213 146.023 192.48C146.471 192.736 146.967 192.864 147.511 192.864C148.055 192.864 148.551 192.736 148.999 192.48C149.458 192.213 149.82 191.835 150.087 191.344C150.354 190.843 150.487 190.261 150.487 189.6ZM155.172 183.808C154.894 183.808 154.66 183.712 154.468 183.52C154.276 183.328 154.18 183.093 154.18 182.816C154.18 182.539 154.276 182.304 154.468 182.112C154.66 181.92 154.894 181.824 155.172 181.824C155.438 181.824 155.662 181.92 155.844 182.112C156.036 182.304 156.132 182.539 156.132 182.816C156.132 183.093 156.036 183.328 155.844 183.52C155.662 183.712 155.438 183.808 155.172 183.808ZM155.876 185.232V194H154.42V185.232H155.876ZM166.357 189.28C166.357 189.557 166.341 189.851 166.309 190.16H159.301C159.354 191.024 159.648 191.701 160.181 192.192C160.725 192.672 161.381 192.912 162.149 192.912C162.778 192.912 163.301 192.768 163.717 192.48C164.144 192.181 164.442 191.787 164.613 191.296H166.181C165.946 192.139 165.477 192.827 164.773 193.36C164.069 193.883 163.194 194.144 162.149 194.144C161.317 194.144 160.57 193.957 159.909 193.584C159.258 193.211 158.746 192.683 158.373 192C158 191.307 157.813 190.507 157.813 189.6C157.813 188.693 157.994 187.899 158.357 187.216C158.72 186.533 159.226 186.011 159.877 185.648C160.538 185.275 161.296 185.088 162.149 185.088C162.981 185.088 163.717 185.269 164.357 185.632C164.997 185.995 165.488 186.496 165.829 187.136C166.181 187.765 166.357 188.48 166.357 189.28ZM164.853 188.976C164.853 188.421 164.73 187.947 164.485 187.552C164.24 187.147 163.904 186.843 163.477 186.64C163.061 186.427 162.597 186.32 162.085 186.32C161.349 186.32 160.72 186.555 160.197 187.024C159.685 187.493 159.392 188.144 159.317 188.976H164.853ZM172.551 185.072C173.618 185.072 174.482 185.397 175.143 186.048C175.804 186.688 176.135 187.616 176.135 188.832V194H174.695V189.04C174.695 188.165 174.476 187.499 174.039 187.04C173.602 186.571 173.004 186.336 172.247 186.336C171.479 186.336 170.866 186.576 170.407 187.056C169.959 187.536 169.735 188.235 169.735 189.152V194H168.279V185.232H169.735V186.48C170.023 186.032 170.412 185.685 170.903 185.44C171.404 185.195 171.954 185.072 172.551 185.072ZM180.289 186.432V191.6C180.289 192.027 180.38 192.331 180.561 192.512C180.743 192.683 181.057 192.768 181.505 192.768H182.577V194H181.265C180.455 194 179.847 193.813 179.441 193.44C179.036 193.067 178.833 192.453 178.833 191.6V186.432H177.697V185.232H178.833V183.024H180.289V185.232H182.577V186.432H180.289ZM187.983 183.76V182.432H190.991V194H189.519V183.76H187.983Z" fill="#513131"/>
<path d="M103.484 214.808C103.207 214.808 102.972 214.712 102.78 214.52C102.588 214.328 102.492 214.093 102.492 213.816C102.492 213.539 102.588 213.304 102.78 213.112C102.972 212.92 103.207 212.824 103.484 212.824C103.751 212.824 103.975 212.92 104.156 213.112C104.348 213.304 104.444 213.539 104.444 213.816C104.444 214.093 104.348 214.328 104.156 214.52C103.975 214.712 103.751 214.808 103.484 214.808ZM104.188 216.232V225H102.732V216.232H104.188ZM110.942 216.072C112.008 216.072 112.872 216.397 113.534 217.048C114.195 217.688 114.526 218.616 114.526 219.832V225H113.086V220.04C113.086 219.165 112.867 218.499 112.43 218.04C111.992 217.571 111.395 217.336 110.638 217.336C109.87 217.336 109.256 217.576 108.798 218.056C108.35 218.536 108.126 219.235 108.126 220.152V225H106.67V216.232H108.126V217.48C108.414 217.032 108.803 216.685 109.294 216.44C109.795 216.195 110.344 216.072 110.942 216.072ZM120.52 216.088C121.277 216.088 121.939 216.253 122.504 216.584C123.08 216.915 123.507 217.331 123.784 217.832V216.232H125.256V225.192C125.256 225.992 125.085 226.701 124.744 227.32C124.403 227.949 123.912 228.44 123.272 228.792C122.643 229.144 121.907 229.32 121.064 229.32C119.912 229.32 118.952 229.048 118.184 228.504C117.416 227.96 116.963 227.219 116.824 226.28H118.264C118.424 226.813 118.755 227.24 119.256 227.56C119.757 227.891 120.36 228.056 121.064 228.056C121.864 228.056 122.515 227.805 123.016 227.304C123.528 226.803 123.784 226.099 123.784 225.192V223.352C123.496 223.864 123.069 224.291 122.504 224.632C121.939 224.973 121.277 225.144 120.52 225.144C119.741 225.144 119.032 224.952 118.392 224.568C117.763 224.184 117.267 223.645 116.904 222.952C116.541 222.259 116.36 221.469 116.36 220.584C116.36 219.688 116.541 218.904 116.904 218.232C117.267 217.549 117.763 217.021 118.392 216.648C119.032 216.275 119.741 216.088 120.52 216.088ZM123.784 220.6C123.784 219.939 123.651 219.363 123.384 218.872C123.117 218.381 122.755 218.008 122.296 217.752C121.848 217.485 121.352 217.352 120.808 217.352C120.264 217.352 119.768 217.48 119.32 217.736C118.872 217.992 118.515 218.365 118.248 218.856C117.981 219.347 117.848 219.923 117.848 220.584C117.848 221.256 117.981 221.843 118.248 222.344C118.515 222.835 118.872 223.213 119.32 223.48C119.768 223.736 120.264 223.864 120.808 223.864C121.352 223.864 121.848 223.736 122.296 223.48C122.755 223.213 123.117 222.835 123.384 222.344C123.651 221.843 123.784 221.261 123.784 220.6ZM129.172 217.656C129.428 217.155 129.791 216.765 130.26 216.488C130.74 216.211 131.322 216.072 132.004 216.072V217.576H131.62C129.988 217.576 129.172 218.461 129.172 220.232V225H127.716V216.232H129.172V217.656ZM141.685 220.28C141.685 220.557 141.669 220.851 141.637 221.16H134.629C134.682 222.024 134.976 222.701 135.509 223.192C136.053 223.672 136.709 223.912 137.477 223.912C138.106 223.912 138.629 223.768 139.045 223.48C139.472 223.181 139.77 222.787 139.941 222.296H141.509C141.274 223.139 140.805 223.827 140.101 224.36C139.397 224.883 138.522 225.144 137.477 225.144C136.645 225.144 135.898 224.957 135.237 224.584C134.586 224.211 134.074 223.683 133.701 223C133.328 222.307 133.141 221.507 133.141 220.6C133.141 219.693 133.322 218.899 133.685 218.216C134.048 217.533 134.554 217.011 135.205 216.648C135.866 216.275 136.624 216.088 137.477 216.088C138.309 216.088 139.045 216.269 139.685 216.632C140.325 216.995 140.816 217.496 141.157 218.136C141.509 218.765 141.685 219.48 141.685 220.28ZM140.181 219.976C140.181 219.421 140.058 218.947 139.813 218.552C139.568 218.147 139.232 217.843 138.805 217.64C138.389 217.427 137.925 217.32 137.413 217.32C136.677 217.32 136.048 217.555 135.525 218.024C135.013 218.493 134.72 219.144 134.645 219.976H140.181ZM143.063 220.584C143.063 219.688 143.244 218.904 143.607 218.232C143.97 217.549 144.466 217.021 145.095 216.648C145.735 216.275 146.45 216.088 147.239 216.088C147.922 216.088 148.556 216.248 149.143 216.568C149.73 216.877 150.178 217.288 150.487 217.8V213.16H151.959V225H150.487V223.352C150.199 223.875 149.772 224.307 149.207 224.648C148.642 224.979 147.98 225.144 147.223 225.144C146.444 225.144 145.735 224.952 145.095 224.568C144.466 224.184 143.97 223.645 143.607 222.952C143.244 222.259 143.063 221.469 143.063 220.584ZM150.487 220.6C150.487 219.939 150.354 219.363 150.087 218.872C149.82 218.381 149.458 218.008 148.999 217.752C148.551 217.485 148.055 217.352 147.511 217.352C146.967 217.352 146.471 217.48 146.023 217.736C145.575 217.992 145.218 218.365 144.951 218.856C144.684 219.347 144.551 219.923 144.551 220.584C144.551 221.256 144.684 221.843 144.951 222.344C145.218 222.835 145.575 223.213 146.023 223.48C146.471 223.736 146.967 223.864 147.511 223.864C148.055 223.864 148.551 223.736 148.999 223.48C149.458 223.213 149.82 222.835 150.087 222.344C150.354 221.843 150.487 221.261 150.487 220.6ZM155.172 214.808C154.894 214.808 154.66 214.712 154.468 214.52C154.276 214.328 154.18 214.093 154.18 213.816C154.18 213.539 154.276 213.304 154.468 213.112C154.66 212.92 154.894 212.824 155.172 212.824C155.438 212.824 155.662 212.92 155.844 213.112C156.036 213.304 156.132 213.539 156.132 213.816C156.132 214.093 156.036 214.328 155.844 214.52C155.662 214.712 155.438 214.808 155.172 214.808ZM155.876 216.232V225H154.42V216.232H155.876ZM166.357 220.28C166.357 220.557 166.341 220.851 166.309 221.16H159.301C159.354 222.024 159.648 222.701 160.181 223.192C160.725 223.672 161.381 223.912 162.149 223.912C162.778 223.912 163.301 223.768 163.717 223.48C164.144 223.181 164.442 222.787 164.613 222.296H166.181C165.946 223.139 165.477 223.827 164.773 224.36C164.069 224.883 163.194 225.144 162.149 225.144C161.317 225.144 160.57 224.957 159.909 224.584C159.258 224.211 158.746 223.683 158.373 223C158 222.307 157.813 221.507 157.813 220.6C157.813 219.693 157.994 218.899 158.357 218.216C158.72 217.533 159.226 217.011 159.877 216.648C160.538 216.275 161.296 216.088 162.149 216.088C162.981 216.088 163.717 216.269 164.357 216.632C164.997 216.995 165.488 217.496 165.829 218.136C166.181 218.765 166.357 219.48 166.357 220.28ZM164.853 219.976C164.853 219.421 164.73 218.947 164.485 218.552C164.24 218.147 163.904 217.843 163.477 217.64C163.061 217.427 162.597 217.32 162.085 217.32C161.349 217.32 160.72 217.555 160.197 218.024C159.685 218.493 159.392 219.144 159.317 219.976H164.853ZM172.551 216.072C173.618 216.072 174.482 216.397 175.143 217.048C175.804 217.688 176.135 218.616 176.135 219.832V225H174.695V220.04C174.695 219.165 174.476 218.499 174.039 218.04C173.602 217.571 173.004 217.336 172.247 217.336C171.479 217.336 170.866 217.576 170.407 218.056C169.959 218.536 169.735 219.235 169.735 220.152V225H168.279V216.232H169.735V217.48C170.023 217.032 170.412 216.685 170.903 216.44C171.404 216.195 171.954 216.072 172.551 216.072ZM180.289 217.432V222.6C180.289 223.027 180.38 223.331 180.561 223.512C180.743 223.683 181.057 223.768 181.505 223.768H182.577V225H181.265C180.455 225 179.847 224.813 179.441 224.44C179.036 224.067 178.833 223.453 178.833 222.6V217.432H177.697V216.232H178.833V214.024H180.289V216.232H182.577V217.432H180.289ZM187.983 214.76V213.432H190.991V225H189.519V214.76H187.983Z" fill="#513131"/>
<g filter="url(#filter1_i_7_1469)">
<rect x="52" y="118" width="17" height="17" rx="8.5" fill="#98C487"/>
</g>
<g filter="url(#filter2_i_7_1469)">
<rect x="52" y="148" width="17" height="17" rx="8.5" fill="#98C487"/>
</g>
<g filter="url(#filter3_i_7_1469)">
<rect x="74" y="180" width="17" height="17" rx="8.5" fill="#98C487"/>
</g>
<g filter="url(#filter4_i_7_1469)">
<rect x="74" y="211" width="17" height="17" rx="8.5" fill="#98C487"/>
</g>
<circle cx="60.5" cy="183.5" r="1.5" fill="#513131"/>
<circle cx="60.5" cy="188.5" r="1.5" fill="#513131"/>
<circle cx="60.5" cy="193.5" r="1.5" fill="#513131"/>
<circle cx="39.5" cy="149.5" r="1.5" fill="#513131"/>
<circle cx="39.5" cy="154.5" r="1.5" fill="#513131"/>
<circle cx="39.5" cy="159.5" r="1.5" fill="#513131"/>
<circle cx="39.5" cy="119.5" r="1.5" fill="#513131"/>
<circle cx="39.5" cy="124.5" r="1.5" fill="#513131"/>
<circle cx="39.5" cy="129.5" r="1.5" fill="#513131"/>
<circle cx="60.5" cy="214.5" r="1.5" fill="#513131"/>
<circle cx="60.5" cy="219.5" r="1.5" fill="#513131"/>
<circle cx="60.5" cy="224.5" r="1.5" fill="#513131"/>
<g filter="url(#filter5_i_7_1469)">
<g clip-path="url(#clip0_7_1469)">
<rect x="51" y="91" width="19" height="19" rx="9.5" fill="#98C487"/>
<g filter="url(#filter6_d_7_1469)">
<path d="M65 96.9064L64.0936 96L60.5 99.5936L56.9064 96L56 96.9064L59.5936 100.5L56 104.094L56.9064 105L60.5 101.406L64.0936 105L65 104.094L61.4064 100.5L65 96.9064Z" fill="#F6F8ED"/>
</g>
</g>
</g>
<circle cx="39.5" cy="95.5" r="1.5" fill="#513131"/>
<circle cx="39.5" cy="100.5" r="1.5" fill="#513131"/>
<circle cx="39.5" cy="105.5" r="1.5" fill="#513131"/>
<line x1="9" y1="66.5" x2="269" y2="66.5" stroke="black"/>
<path d="M92.2125 41.144C91.5192 41.144 90.8952 41.0213 90.3405 40.776C89.7965 40.52 89.3645 40.1787 89.0445 39.752C88.7245 39.3147 88.5538 38.8293 88.5325 38.296H90.4205C90.4525 38.6693 90.6285 38.984 90.9485 39.24C91.2792 39.4853 91.6898 39.608 92.1805 39.608C92.6925 39.608 93.0872 39.512 93.3645 39.32C93.6525 39.1173 93.7965 38.8613 93.7965 38.552C93.7965 38.2213 93.6365 37.976 93.3165 37.816C93.0072 37.656 92.5112 37.48 91.8285 37.288C91.1672 37.1067 90.6285 36.9307 90.2125 36.76C89.7965 36.5893 89.4338 36.328 89.1245 35.976C88.8258 35.624 88.6765 35.16 88.6765 34.584C88.6765 34.1147 88.8152 33.688 89.0925 33.304C89.3698 32.9093 89.7645 32.6 90.2765 32.376C90.7992 32.152 91.3965 32.04 92.0685 32.04C93.0712 32.04 93.8765 32.296 94.4845 32.808C95.1032 33.3093 95.4338 33.9973 95.4765 34.872H93.6525C93.6205 34.4773 93.4605 34.1627 93.1725 33.928C92.8845 33.6933 92.4952 33.576 92.0045 33.576C91.5245 33.576 91.1565 33.6667 90.9005 33.848C90.6445 34.0293 90.5165 34.2693 90.5165 34.568C90.5165 34.8027 90.6018 35 90.7725 35.16C90.9432 35.32 91.1512 35.448 91.3965 35.544C91.6418 35.6293 92.0045 35.7413 92.4845 35.88C93.1245 36.0507 93.6472 36.2267 94.0525 36.408C94.4685 36.5787 94.8258 36.8347 95.1245 37.176C95.4232 37.5173 95.5778 37.9707 95.5885 38.536C95.5885 39.0373 95.4498 39.4853 95.1725 39.88C94.8952 40.2747 94.5005 40.584 93.9885 40.808C93.4872 41.032 92.8952 41.144 92.2125 41.144ZM102.119 32.04C102.791 32.04 103.389 32.184 103.911 32.472C104.445 32.76 104.861 33.1867 105.159 33.752C105.469 34.3173 105.623 35 105.623 35.8V41H103.815V36.072C103.815 35.2827 103.618 34.68 103.223 34.264C102.829 33.8373 102.29 33.624 101.607 33.624C100.925 33.624 100.381 33.8373 99.9754 34.264C99.5807 34.68 99.3834 35.2827 99.3834 36.072V41H97.5594V29.16H99.3834V33.208C99.6927 32.8347 100.082 32.5467 100.551 32.344C101.031 32.1413 101.554 32.04 102.119 32.04ZM111.774 41.144C110.942 41.144 110.19 40.9573 109.518 40.584C108.846 40.2 108.318 39.6667 107.934 38.984C107.55 38.2907 107.358 37.4907 107.358 36.584C107.358 35.688 107.555 34.8933 107.95 34.2C108.345 33.5067 108.883 32.9733 109.566 32.6C110.249 32.2267 111.011 32.04 111.854 32.04C112.697 32.04 113.459 32.2267 114.142 32.6C114.825 32.9733 115.363 33.5067 115.758 34.2C116.153 34.8933 116.35 35.688 116.35 36.584C116.35 37.48 116.147 38.2747 115.742 38.968C115.337 39.6613 114.782 40.2 114.078 40.584C113.385 40.9573 112.617 41.144 111.774 41.144ZM111.774 39.56C112.243 39.56 112.681 39.448 113.086 39.224C113.502 39 113.838 38.664 114.094 38.216C114.35 37.768 114.478 37.224 114.478 36.584C114.478 35.944 114.355 35.4053 114.11 34.968C113.865 34.52 113.539 34.184 113.134 33.96C112.729 33.736 112.291 33.624 111.822 33.624C111.353 33.624 110.915 33.736 110.51 33.96C110.115 34.184 109.801 34.52 109.566 34.968C109.331 35.4053 109.214 35.944 109.214 36.584C109.214 37.5333 109.454 38.2693 109.934 38.792C110.425 39.304 111.038 39.56 111.774 39.56ZM119.977 33.48C120.286 33.0747 120.708 32.7333 121.241 32.456C121.774 32.1787 122.377 32.04 123.049 32.04C123.817 32.04 124.516 32.232 125.145 32.616C125.785 32.9893 126.286 33.5173 126.649 34.2C127.012 34.8827 127.193 35.6667 127.193 36.552C127.193 37.4373 127.012 38.232 126.649 38.936C126.286 39.6293 125.785 40.1733 125.145 40.568C124.516 40.952 123.817 41.144 123.049 41.144C122.377 41.144 121.78 41.0107 121.257 40.744C120.734 40.4667 120.308 40.1253 119.977 39.72V45.192H118.153V32.184H119.977V33.48ZM125.337 36.552C125.337 35.944 125.209 35.4213 124.953 34.984C124.708 34.536 124.377 34.2 123.961 33.976C123.556 33.7413 123.118 33.624 122.649 33.624C122.19 33.624 121.753 33.7413 121.337 33.976C120.932 34.2107 120.601 34.552 120.345 35C120.1 35.448 119.977 35.976 119.977 36.584C119.977 37.192 120.1 37.7253 120.345 38.184C120.601 38.632 120.932 38.9733 121.337 39.208C121.753 39.4427 122.19 39.56 122.649 39.56C123.118 39.56 123.556 39.4427 123.961 39.208C124.377 38.9627 124.708 38.6107 124.953 38.152C125.209 37.6933 125.337 37.16 125.337 36.552ZM130.821 33.48C131.13 33.0747 131.552 32.7333 132.085 32.456C132.618 32.1787 133.221 32.04 133.893 32.04C134.661 32.04 135.36 32.232 135.989 32.616C136.629 32.9893 137.13 33.5173 137.493 34.2C137.856 34.8827 138.037 35.6667 138.037 36.552C138.037 37.4373 137.856 38.232 137.493 38.936C137.13 39.6293 136.629 40.1733 135.989 40.568C135.36 40.952 134.661 41.144 133.893 41.144C133.221 41.144 132.624 41.0107 132.101 40.744C131.578 40.4667 131.152 40.1253 130.821 39.72V45.192H128.997V32.184H130.821V33.48ZM136.181 36.552C136.181 35.944 136.053 35.4213 135.797 34.984C135.552 34.536 135.221 34.2 134.805 33.976C134.4 33.7413 133.962 33.624 133.493 33.624C133.034 33.624 132.597 33.7413 132.181 33.976C131.776 34.2107 131.445 34.552 131.189 35C130.944 35.448 130.821 35.976 130.821 36.584C130.821 37.192 130.944 37.7253 131.189 38.184C131.445 38.632 131.776 38.9733 132.181 39.208C132.597 39.4427 133.034 39.56 133.493 39.56C133.962 39.56 134.4 39.4427 134.805 39.208C135.221 38.9627 135.552 38.6107 135.797 38.152C136.053 37.6933 136.181 37.16 136.181 36.552ZM140.769 31.016C140.438 31.016 140.161 30.904 139.937 30.68C139.713 30.456 139.601 30.1787 139.601 29.848C139.601 29.5173 139.713 29.24 139.937 29.016C140.161 28.792 140.438 28.68 140.769 28.68C141.089 28.68 141.361 28.792 141.585 29.016C141.809 29.24 141.921 29.5173 141.921 29.848C141.921 30.1787 141.809 30.456 141.585 30.68C141.361 30.904 141.089 31.016 140.769 31.016ZM141.665 32.184V41H139.841V32.184H141.665ZM148.507 32.04C149.201 32.04 149.819 32.184 150.363 32.472C150.918 32.76 151.35 33.1867 151.659 33.752C151.969 34.3173 152.123 35 152.123 35.8V41H150.315V36.072C150.315 35.2827 150.118 34.68 149.723 34.264C149.329 33.8373 148.79 33.624 148.107 33.624C147.425 33.624 146.881 33.8373 146.475 34.264C146.081 34.68 145.883 35.2827 145.883 36.072V41H144.059V32.184H145.883V33.192C146.182 32.8293 146.561 32.5467 147.019 32.344C147.489 32.1413 147.985 32.04 148.507 32.04ZM158.002 32.04C158.685 32.04 159.287 32.1787 159.81 32.456C160.343 32.7227 160.759 33.0587 161.058 33.464V32.184H162.898V41.144C162.898 41.9547 162.727 42.6747 162.386 43.304C162.045 43.944 161.549 44.4453 160.898 44.808C160.258 45.1707 159.49 45.352 158.594 45.352C157.399 45.352 156.407 45.0693 155.618 44.504C154.829 43.9493 154.381 43.192 154.274 42.232H156.082C156.221 42.6907 156.514 43.0587 156.962 43.336C157.421 43.624 157.965 43.768 158.594 43.768C159.33 43.768 159.922 43.544 160.37 43.096C160.829 42.648 161.058 41.9973 161.058 41.144V39.672C160.749 40.088 160.327 40.44 159.794 40.728C159.271 41.0053 158.674 41.144 158.002 41.144C157.234 41.144 156.53 40.952 155.89 40.568C155.261 40.1733 154.759 39.6293 154.386 38.936C154.023 38.232 153.842 37.4373 153.842 36.552C153.842 35.6667 154.023 34.8827 154.386 34.2C154.759 33.5173 155.261 32.9893 155.89 32.616C156.53 32.232 157.234 32.04 158.002 32.04ZM161.058 36.584C161.058 35.976 160.93 35.448 160.674 35C160.429 34.552 160.103 34.2107 159.698 33.976C159.293 33.7413 158.855 33.624 158.386 33.624C157.917 33.624 157.479 33.7413 157.074 33.976C156.669 34.2 156.338 34.536 156.082 34.984C155.837 35.4213 155.714 35.944 155.714 36.552C155.714 37.16 155.837 37.6933 156.082 38.152C156.338 38.6107 156.669 38.9627 157.074 39.208C157.49 39.4427 157.927 39.56 158.386 39.56C158.855 39.56 159.293 39.4427 159.698 39.208C160.103 38.9733 160.429 38.632 160.674 38.184C160.93 37.7253 161.058 37.192 161.058 36.584ZM171.274 29.16V41H169.45V29.16H171.274ZM174.597 31.016C174.266 31.016 173.989 30.904 173.765 30.68C173.541 30.456 173.429 30.1787 173.429 29.848C173.429 29.5173 173.541 29.24 173.765 29.016C173.989 28.792 174.266 28.68 174.597 28.68C174.917 28.68 175.189 28.792 175.413 29.016C175.637 29.24 175.749 29.5173 175.749 29.848C175.749 30.1787 175.637 30.456 175.413 30.68C175.189 30.904 174.917 31.016 174.597 31.016ZM175.493 32.184V41H173.669V32.184H175.493ZM181.088 41.144C180.394 41.144 179.77 41.0213 179.216 40.776C178.672 40.52 178.24 40.1787 177.92 39.752C177.6 39.3147 177.429 38.8293 177.408 38.296H179.296C179.328 38.6693 179.504 38.984 179.824 39.24C180.154 39.4853 180.565 39.608 181.056 39.608C181.568 39.608 181.962 39.512 182.24 39.32C182.528 39.1173 182.672 38.8613 182.672 38.552C182.672 38.2213 182.512 37.976 182.192 37.816C181.882 37.656 181.386 37.48 180.704 37.288C180.042 37.1067 179.504 36.9307 179.088 36.76C178.672 36.5893 178.309 36.328 178 35.976C177.701 35.624 177.552 35.16 177.552 34.584C177.552 34.1147 177.69 33.688 177.968 33.304C178.245 32.9093 178.64 32.6 179.152 32.376C179.674 32.152 180.272 32.04 180.944 32.04C181.946 32.04 182.752 32.296 183.36 32.808C183.978 33.3093 184.309 33.9973 184.352 34.872H182.528C182.496 34.4773 182.336 34.1627 182.048 33.928C181.76 33.6933 181.37 33.576 180.88 33.576C180.4 33.576 180.032 33.6667 179.776 33.848C179.52 34.0293 179.392 34.2693 179.392 34.568C179.392 34.8027 179.477 35 179.648 35.16C179.818 35.32 180.026 35.448 180.272 35.544C180.517 35.6293 180.88 35.7413 181.36 35.88C182 36.0507 182.522 36.2267 182.928 36.408C183.344 36.5787 183.701 36.8347 184 37.176C184.298 37.5173 184.453 37.9707 184.464 38.536C184.464 39.0373 184.325 39.4853 184.048 39.88C183.77 40.2747 183.376 40.584 182.864 40.808C182.362 41.032 181.77 41.144 181.088 41.144ZM188.562 33.672V38.552C188.562 38.8827 188.637 39.1227 188.786 39.272C188.946 39.4107 189.213 39.48 189.586 39.48H190.706V41H189.266C188.445 41 187.816 40.808 187.378 40.424C186.941 40.04 186.722 39.416 186.722 38.552V33.672H185.682V32.184H186.722V29.992H188.562V32.184H190.706V33.672H188.562Z" fill="#513131"/>
<defs>
<filter id="filter0_d_7_1469" x="0.5" y="0.5" width="277" height="337" filterUnits="userSpaceOnUse" color-interpolation-filters="sRGB">
<feFlood flood-opacity="0" result="BackgroundImageFix"/>
<feColorMatrix in="SourceAlpha" type="matrix" values="0 0 0 0 0 0 0 0 0 0 0 0 0 0 0 0 0 0 127 0" result="hardAlpha"/>
<feOffset dy="4"/>
<feGaussianBlur stdDeviation="4"/>
<feComposite in2="hardAlpha" operator="out"/>
<feColorMatrix type="matrix" values="0 0 0 0 0 0 0 0 0 0 0 0 0 0 0 0 0 0 0.25 0"/>
<feBlend mode="normal" in2="BackgroundImageFix" result="effect1_dropShadow_7_1469"/>
<feBlend mode="normal" in="SourceGraphic" in2="effect1_dropShadow_7_1469" result="shape"/>
</filter>
<filter id="filter1_i_7_1469" x="52" y="118" width="17" height="21" filterUnits="userSpaceOnUse" color-interpolation-filters="sRGB">
<feFlood flood-opacity="0" result="BackgroundImageFix"/>
<feBlend mode="normal" in="SourceGraphic" in2="BackgroundImageFix" result="shape"/>
<feColorMatrix in="SourceAlpha" type="matrix" values="0 0 0 0 0 0 0 0 0 0 0 0 0 0 0 0 0 0 127 0" result="hardAlpha"/>
<feOffset dy="4"/>
<feGaussianBlur stdDeviation="2"/>
<feComposite in2="hardAlpha" operator="arithmetic" k2="-1" k3="1"/>
<feColorMatrix type="matrix" values="0 0 0 0 0 0 0 0 0 0 0 0 0 0 0 0 0 0 0.25 0"/>
<feBlend mode="normal" in2="shape" result="effect1_innerShadow_7_1469"/>
</filter>
<filter id="filter2_i_7_1469" x="52" y="148" width="17" height="21" filterUnits="userSpaceOnUse" color-interpolation-filters="sRGB">
<feFlood flood-opacity="0" result="BackgroundImageFix"/>
<feBlend mode="normal" in="SourceGraphic" in2="BackgroundImageFix" result="shape"/>
<feColorMatrix in="SourceAlpha" type="matrix" values="0 0 0 0 0 0 0 0 0 0 0 0 0 0 0 0 0 0 127 0" result="hardAlpha"/>
<feOffset dy="4"/>
<feGaussianBlur stdDeviation="2"/>
<feComposite in2="hardAlpha" operator="arithmetic" k2="-1" k3="1"/>
<feColorMatrix type="matrix" values="0 0 0 0 0 0 0 0 0 0 0 0 0 0 0 0 0 0 0.25 0"/>
<feBlend mode="normal" in2="shape" result="effect1_innerShadow_7_1469"/>
</filter>
<filter id="filter3_i_7_1469" x="74" y="180" width="17" height="21" filterUnits="userSpaceOnUse" color-interpolation-filters="sRGB">
<feFlood flood-opacity="0" result="BackgroundImageFix"/>
<feBlend mode="normal" in="SourceGraphic" in2="BackgroundImageFix" result="shape"/>
<feColorMatrix in="SourceAlpha" type="matrix" values="0 0 0 0 0 0 0 0 0 0 0 0 0 0 0 0 0 0 127 0" result="hardAlpha"/>
<feOffset dy="4"/>
<feGaussianBlur stdDeviation="2"/>
<feComposite in2="hardAlpha" operator="arithmetic" k2="-1" k3="1"/>
<feColorMatrix type="matrix" values="0 0 0 0 0 0 0 0 0 0 0 0 0 0 0 0 0 0 0.25 0"/>
<feBlend mode="normal" in2="shape" result="effect1_innerShadow_7_1469"/>
</filter>
<filter id="filter4_i_7_1469" x="74" y="211" width="17" height="21" filterUnits="userSpaceOnUse" color-interpolation-filters="sRGB">
<feFlood flood-opacity="0" result="BackgroundImageFix"/>
<feBlend mode="normal" in="SourceGraphic" in2="BackgroundImageFix" result="shape"/>
<feColorMatrix in="SourceAlpha" type="matrix" values="0 0 0 0 0 0 0 0 0 0 0 0 0 0 0 0 0 0 127 0" result="hardAlpha"/>
<feOffset dy="4"/>
<feGaussianBlur stdDeviation="2"/>
<feComposite in2="hardAlpha" operator="arithmetic" k2="-1" k3="1"/>
<feColorMatrix type="matrix" values="0 0 0 0 0 0 0 0 0 0 0 0 0 0 0 0 0 0 0.25 0"/>
<feBlend mode="normal" in2="shape" result="effect1_innerShadow_7_1469"/>
</filter>
<filter id="filter5_i_7_1469" x="51" y="91" width="19" height="23" filterUnits="userSpaceOnUse" color-interpolation-filters="sRGB">
<feFlood flood-opacity="0" result="BackgroundImageFix"/>
<feBlend mode="normal" in="SourceGraphic" in2="BackgroundImageFix" result="shape"/>
<feColorMatrix in="SourceAlpha" type="matrix" values="0 0 0 0 0 0 0 0 0 0 0 0 0 0 0 0 0 0 127 0" result="hardAlpha"/>
<feOffset dy="4"/>
<feGaussianBlur stdDeviation="2"/>
<feComposite in2="hardAlpha" operator="arithmetic" k2="-1" k3="1"/>
<feColorMatrix type="matrix" values="0 0 0 0 0 0 0 0 0 0 0 0 0 0 0 0 0 0 0.25 0"/>
<feBlend mode="normal" in2="shape" result="effect1_innerShadow_7_1469"/>
</filter>
<filter id="filter6_d_7_1469" x="52" y="96" width="17" height="17" filterUnits="userSpaceOnUse" color-interpolation-filters="sRGB">
<feFlood flood-opacity="0" result="BackgroundImageFix"/>
<feColorMatrix in="SourceAlpha" type="matrix" values="0 0 0 0 0 0 0 0 0 0 0 0 0 0 0 0 0 0 127 0" result="hardAlpha"/>
<feOffset dy="4"/>
<feGaussianBlur stdDeviation="2"/>
<feComposite in2="hardAlpha" operator="out"/>
<feColorMatrix type="matrix" values="0 0 0 0 0 0 0 0 0 0 0 0 0 0 0 0 0 0 0.25 0"/>
<feBlend mode="normal" in2="BackgroundImageFix" result="effect1_dropShadow_7_1469"/>
<feBlend mode="normal" in="SourceGraphic" in2="effect1_dropShadow_7_1469" result="shape"/>
</filter>
<linearGradient id="paint0_linear_7_1469" x1="269" y1="5.00001" x2="9" y2="325" gradientUnits="userSpaceOnUse">
<stop stop-color="#F6F8ED"/>
<stop offset="1" stop-color="#E6F8DB"/>
</linearGradient>
<clipPath id="clip0_7_1469">
<rect x="51" y="91" width="19" height="19" rx="9.5" fill="white"/>
</clipPath>
</defs>
</svg>
