<svg width="265" height="146" viewBox="0 0 265 146" fill="none" xmlns="http://www.w3.org/2000/svg">
<g filter="url(#filter0_d_7_2312)">
<rect x="4.68567" y="0.5" width="255.814" height="59" rx="14.5" fill="url(#paint0_linear_7_2312)" stroke="#F6F8ED"/>
</g>
<path d="M140.247 28.432H138.407V36H136.951V28.432H135.815V27.232H136.951V26.608C136.951 25.6267 137.202 24.912 137.703 24.464C138.215 24.0053 139.031 23.776 140.151 23.776V24.992C139.511 24.992 139.058 25.12 138.791 25.376C138.535 25.6213 138.407 26.032 138.407 26.608V27.232H140.247V28.432ZM141.401 31.584C141.401 30.688 141.582 29.904 141.945 29.232C142.308 28.5493 142.804 28.0213 143.433 27.648C144.073 27.2747 144.782 27.088 145.561 27.088C146.329 27.088 146.996 27.2533 147.561 27.584C148.126 27.9147 148.548 28.3307 148.825 28.832V27.232H150.297V36H148.825V34.368C148.537 34.88 148.105 35.3067 147.529 35.648C146.964 35.9787 146.302 36.144 145.545 36.144C144.766 36.144 144.062 35.952 143.433 35.568C142.804 35.184 142.308 34.6453 141.945 33.952C141.582 33.2587 141.401 32.4693 141.401 31.584ZM148.825 31.6C148.825 30.9387 148.692 30.3627 148.425 29.872C148.158 29.3813 147.796 29.008 147.337 28.752C146.889 28.4853 146.393 28.352 145.849 28.352C145.305 28.352 144.809 28.48 144.361 28.736C143.913 28.992 143.556 29.3653 143.289 29.856C143.022 30.3467 142.889 30.9227 142.889 31.584C142.889 32.256 143.022 32.8427 143.289 33.344C143.556 33.8347 143.913 34.2133 144.361 34.48C144.809 34.736 145.305 34.864 145.849 34.864C146.393 34.864 146.889 34.736 147.337 34.48C147.796 34.2133 148.158 33.8347 148.425 33.344C148.692 32.8427 148.825 32.2613 148.825 31.6ZM156.022 34.656L158.742 27.232H160.294L156.854 36H155.158L151.718 27.232H153.286L156.022 34.656ZM165.55 36.144C164.729 36.144 163.982 35.9573 163.31 35.584C162.649 35.2107 162.126 34.6827 161.742 34C161.369 33.3067 161.182 32.5067 161.182 31.6C161.182 30.704 161.374 29.9147 161.758 29.232C162.153 28.5387 162.686 28.0107 163.358 27.648C164.03 27.2747 164.782 27.088 165.614 27.088C166.446 27.088 167.198 27.2747 167.87 27.648C168.542 28.0107 169.07 28.5333 169.454 29.216C169.849 29.8987 170.046 30.6933 170.046 31.6C170.046 32.5067 169.844 33.3067 169.438 34C169.044 34.6827 168.505 35.2107 167.822 35.584C167.14 35.9573 166.382 36.144 165.55 36.144ZM165.55 34.864C166.073 34.864 166.564 34.7413 167.022 34.496C167.481 34.2507 167.849 33.8827 168.126 33.392C168.414 32.9013 168.558 32.304 168.558 31.6C168.558 30.896 168.42 30.2987 168.142 29.808C167.865 29.3173 167.502 28.9547 167.054 28.72C166.606 28.4747 166.121 28.352 165.598 28.352C165.065 28.352 164.574 28.4747 164.126 28.72C163.689 28.9547 163.337 29.3173 163.07 29.808C162.804 30.2987 162.67 30.896 162.67 31.6C162.67 32.3147 162.798 32.9173 163.054 33.408C163.321 33.8987 163.673 34.2667 164.11 34.512C164.548 34.7467 165.028 34.864 165.55 34.864ZM179.737 27.232V36H178.281V34.704C178.003 35.152 177.614 35.504 177.113 35.76C176.622 36.0053 176.078 36.128 175.481 36.128C174.798 36.128 174.185 35.9893 173.641 35.712C173.097 35.424 172.665 34.9973 172.345 34.432C172.035 33.8667 171.881 33.1787 171.881 32.368V27.232H173.321V32.176C173.321 33.04 173.539 33.7067 173.977 34.176C174.414 34.6347 175.011 34.864 175.769 34.864C176.547 34.864 177.161 34.624 177.609 34.144C178.057 33.664 178.281 32.9653 178.281 32.048V27.232H179.737ZM183.651 28.656C183.907 28.1547 184.27 27.7653 184.739 27.488C185.219 27.2107 185.8 27.072 186.483 27.072V28.576H186.099C184.467 28.576 183.651 29.4613 183.651 31.232V36H182.195V27.232H183.651V28.656ZM188.916 25.808C188.638 25.808 188.404 25.712 188.212 25.52C188.02 25.328 187.924 25.0933 187.924 24.816C187.924 24.5387 188.02 24.304 188.212 24.112C188.404 23.92 188.638 23.824 188.916 23.824C189.182 23.824 189.406 23.92 189.588 24.112C189.78 24.304 189.876 24.5387 189.876 24.816C189.876 25.0933 189.78 25.328 189.588 25.52C189.406 25.712 189.182 25.808 188.916 25.808ZM189.62 27.232V36H188.164V27.232H189.62ZM193.877 28.432V33.6C193.877 34.0267 193.968 34.3307 194.149 34.512C194.331 34.6827 194.645 34.768 195.093 34.768H196.165V36H194.853C194.043 36 193.435 35.8133 193.029 35.44C192.624 35.0667 192.421 34.4533 192.421 33.6V28.432H191.285V27.232H192.421V25.024H193.877V27.232H196.165V28.432H193.877ZM205.929 31.28C205.929 31.5573 205.913 31.8507 205.881 32.16H198.873C198.927 33.024 199.22 33.7013 199.753 34.192C200.297 34.672 200.953 34.912 201.721 34.912C202.351 34.912 202.873 34.768 203.289 34.48C203.716 34.1813 204.015 33.7867 204.185 33.296H205.753C205.519 34.1387 205.049 34.8267 204.345 35.36C203.641 35.8827 202.767 36.144 201.721 36.144C200.889 36.144 200.143 35.9573 199.481 35.584C198.831 35.2107 198.319 34.6827 197.945 34C197.572 33.3067 197.385 32.5067 197.385 31.6C197.385 30.6933 197.567 29.8987 197.929 29.216C198.292 28.5333 198.799 28.0107 199.449 27.648C200.111 27.2747 200.868 27.088 201.721 27.088C202.553 27.088 203.289 27.2693 203.929 27.632C204.569 27.9947 205.06 28.496 205.401 29.136C205.753 29.7653 205.929 30.48 205.929 31.28ZM204.425 30.976C204.425 30.4213 204.303 29.9467 204.057 29.552C203.812 29.1467 203.476 28.8427 203.049 28.64C202.633 28.4267 202.169 28.32 201.657 28.32C200.921 28.32 200.292 28.5547 199.769 29.024C199.257 29.4933 198.964 30.144 198.889 30.976H204.425ZM210.955 36.144C210.283 36.144 209.681 36.032 209.147 35.808C208.614 35.5733 208.193 35.2533 207.883 34.848C207.574 34.432 207.403 33.9573 207.371 33.424H208.875C208.918 33.8613 209.121 34.2187 209.483 34.496C209.857 34.7733 210.342 34.912 210.939 34.912C211.494 34.912 211.931 34.7893 212.251 34.544C212.571 34.2987 212.731 33.9893 212.731 33.616C212.731 33.232 212.561 32.9493 212.219 32.768C211.878 32.576 211.35 32.3893 210.635 32.208C209.985 32.0373 209.451 31.8667 209.035 31.696C208.63 31.5147 208.278 31.2533 207.979 30.912C207.691 30.56 207.547 30.1013 207.547 29.536C207.547 29.088 207.681 28.6773 207.947 28.304C208.214 27.9307 208.593 27.6373 209.083 27.424C209.574 27.2 210.134 27.088 210.763 27.088C211.734 27.088 212.518 27.3333 213.115 27.824C213.713 28.3147 214.033 28.9867 214.075 29.84H212.619C212.587 29.3813 212.401 29.0133 212.059 28.736C211.729 28.4587 211.281 28.32 210.715 28.32C210.193 28.32 209.777 28.432 209.467 28.656C209.158 28.88 209.003 29.1733 209.003 29.536C209.003 29.824 209.094 30.064 209.275 30.256C209.467 30.4373 209.702 30.5867 209.979 30.704C210.267 30.8107 210.662 30.9333 211.163 31.072C211.793 31.2427 212.305 31.4133 212.699 31.584C213.094 31.744 213.43 31.9893 213.707 32.32C213.995 32.6507 214.145 33.0827 214.155 33.616C214.155 34.096 214.022 34.528 213.755 34.912C213.489 35.296 213.11 35.6 212.619 35.824C212.139 36.0373 211.585 36.144 210.955 36.144Z" fill="#513131"/>
<path d="M17 0.5H89.6702V59.5H17C8.99187 59.5 2.5 53.0081 2.5 45V15C2.5 6.99187 8.99187 0.5 17 0.5Z" fill="url(#paint1_linear_7_2312)" stroke="#F6F8ED"/>
<path d="M52.0182 23.325C49.5935 21.825 46.5994 22.525 44.983 24.2417C43.3665 22.525 40.3724 21.8167 37.9477 23.325C36.6619 24.125 35.8537 25.475 35.7986 26.9C35.67 30.1333 38.8294 32.725 43.6512 36.7L43.7431 36.775C44.4411 37.35 45.5157 37.35 46.2137 36.7667L46.3147 36.6833C51.1365 32.7167 54.2868 30.125 54.1674 26.8917C54.1123 25.475 53.304 24.125 52.0182 23.325V23.325ZM45.0748 35.4583L44.983 35.5417L44.8911 35.4583C40.5194 31.8667 37.6355 29.4917 37.6355 27.0833C37.6355 25.4167 39.0131 24.1667 40.85 24.1667C42.2644 24.1667 43.6421 24.9917 44.1288 26.1333H45.8463C46.3239 24.9917 47.7016 24.1667 49.116 24.1667C50.9528 24.1667 52.3305 25.4167 52.3305 27.0833C52.3305 29.4917 49.4466 31.8667 45.0748 35.4583Z" fill="#F6F8ED"/>
<g filter="url(#filter1_d_7_2312)">
<rect x="4.66882" y="78.5" width="253.831" height="59" rx="14.5" fill="url(#paint2_linear_7_2312)" stroke="#F6F8ED"/>
</g>
<path d="M151.337 102.16V114H149.881V102.16H151.337ZM154.571 103.808C154.293 103.808 154.059 103.712 153.867 103.52C153.675 103.328 153.579 103.093 153.579 102.816C153.579 102.539 153.675 102.304 153.867 102.112C154.059 101.92 154.293 101.824 154.571 101.824C154.837 101.824 155.061 101.92 155.243 102.112C155.435 102.304 155.531 102.539 155.531 102.816C155.531 103.093 155.435 103.328 155.243 103.52C155.061 103.712 154.837 103.808 154.571 103.808ZM155.275 105.232V114H153.819V105.232H155.275ZM159.212 106.864C159.511 106.341 159.948 105.915 160.524 105.584C161.1 105.253 161.756 105.088 162.492 105.088C163.281 105.088 163.991 105.275 164.62 105.648C165.249 106.021 165.745 106.549 166.108 107.232C166.471 107.904 166.652 108.688 166.652 109.584C166.652 110.469 166.471 111.259 166.108 111.952C165.745 112.645 165.244 113.184 164.604 113.568C163.975 113.952 163.271 114.144 162.492 114.144C161.735 114.144 161.068 113.979 160.492 113.648C159.927 113.317 159.5 112.896 159.212 112.384V114H157.756V102.16H159.212V106.864ZM165.164 109.584C165.164 108.923 165.031 108.347 164.764 107.856C164.497 107.365 164.135 106.992 163.676 106.736C163.228 106.48 162.732 106.352 162.188 106.352C161.655 106.352 161.159 106.485 160.7 106.752C160.252 107.008 159.889 107.387 159.612 107.888C159.345 108.379 159.212 108.949 159.212 109.6C159.212 110.261 159.345 110.843 159.612 111.344C159.889 111.835 160.252 112.213 160.7 112.48C161.159 112.736 161.655 112.864 162.188 112.864C162.732 112.864 163.228 112.736 163.676 112.48C164.135 112.213 164.497 111.835 164.764 111.344C165.031 110.843 165.164 110.256 165.164 109.584ZM170.025 106.656C170.281 106.155 170.643 105.765 171.113 105.488C171.593 105.211 172.174 105.072 172.857 105.072V106.576H172.473C170.841 106.576 170.025 107.461 170.025 109.232V114H168.569V105.232H170.025V106.656ZM173.993 109.584C173.993 108.688 174.175 107.904 174.537 107.232C174.9 106.549 175.396 106.021 176.025 105.648C176.665 105.275 177.375 105.088 178.153 105.088C178.921 105.088 179.588 105.253 180.153 105.584C180.719 105.915 181.14 106.331 181.417 106.832V105.232H182.889V114H181.417V112.368C181.129 112.88 180.697 113.307 180.121 113.648C179.556 113.979 178.895 114.144 178.137 114.144C177.359 114.144 176.655 113.952 176.025 113.568C175.396 113.184 174.9 112.645 174.537 111.952C174.175 111.259 173.993 110.469 173.993 109.584ZM181.417 109.6C181.417 108.939 181.284 108.363 181.017 107.872C180.751 107.381 180.388 107.008 179.929 106.752C179.481 106.485 178.985 106.352 178.441 106.352C177.897 106.352 177.401 106.48 176.953 106.736C176.505 106.992 176.148 107.365 175.881 107.856C175.615 108.347 175.481 108.923 175.481 109.584C175.481 110.256 175.615 110.843 175.881 111.344C176.148 111.835 176.505 112.213 176.953 112.48C177.401 112.736 177.897 112.864 178.441 112.864C178.985 112.864 179.481 112.736 179.929 112.48C180.388 112.213 180.751 111.835 181.017 111.344C181.284 110.843 181.417 110.261 181.417 109.6ZM186.806 106.656C187.062 106.155 187.424 105.765 187.894 105.488C188.374 105.211 188.955 105.072 189.638 105.072V106.576H189.254C187.622 106.576 186.806 107.461 186.806 109.232V114H185.35V105.232H186.806V106.656ZM198.871 105.232L193.591 118.128H192.087L193.815 113.904L190.279 105.232H191.895L194.647 112.336L197.367 105.232H198.871Z" fill="#513131"/>
<path d="M17 78.5H88.9894V137.5H17C8.99189 137.5 2.5 131.008 2.5 123V93C2.5 84.9919 8.99187 78.5 17 78.5Z" fill="url(#paint3_linear_7_2312)" stroke="#F6F8ED"/>
<path d="M38.4539 103H36.6312V114.667C36.6312 115.583 37.4514 116.333 38.4539 116.333H51.2128V114.667H38.4539V103ZM53.0355 99.6667H42.0993C41.0968 99.6667 40.2766 100.417 40.2766 101.333V111.333C40.2766 112.25 41.0968 113 42.0993 113H53.0355C54.038 113 54.8582 112.25 54.8582 111.333V101.333C54.8582 100.417 54.038 99.6667 53.0355 99.6667ZM53.0355 111.333H42.0993V101.333H53.0355V111.333ZM43.922 105.5H51.2128V107.167H43.922V105.5ZM43.922 108H47.5674V109.667H43.922V108ZM43.922 103H51.2128V104.667H43.922V103Z" fill="#F6F8ED"/>
<defs>
<filter id="filter0_d_7_2312" x="0.185669" y="0" width="264.814" height="68" filterUnits="userSpaceOnUse" color-interpolation-filters="sRGB">
<feFlood flood-opacity="0" result="BackgroundImageFix"/>
<feColorMatrix in="SourceAlpha" type="matrix" values="0 0 0 0 0 0 0 0 0 0 0 0 0 0 0 0 0 0 127 0" result="hardAlpha"/>
<feOffset dy="4"/>
<feGaussianBlur stdDeviation="2"/>
<feComposite in2="hardAlpha" operator="out"/>
<feColorMatrix type="matrix" values="0 0 0 0 0 0 0 0 0 0 0 0 0 0 0 0 0 0 0.25 0"/>
<feBlend mode="normal" in2="BackgroundImageFix" result="effect1_dropShadow_7_2312"/>
<feBlend mode="normal" in="SourceGraphic" in2="effect1_dropShadow_7_2312" result="shape"/>
</filter>
<filter id="filter1_d_7_2312" x="0.168823" y="78" width="262.831" height="68" filterUnits="userSpaceOnUse" color-interpolation-filters="sRGB">
<feFlood flood-opacity="0" result="BackgroundImageFix"/>
<feColorMatrix in="SourceAlpha" type="matrix" values="0 0 0 0 0 0 0 0 0 0 0 0 0 0 0 0 0 0 127 0" result="hardAlpha"/>
<feOffset dy="4"/>
<feGaussianBlur stdDeviation="2"/>
<feComposite in2="hardAlpha" operator="out"/>
<feColorMatrix type="matrix" values="0 0 0 0 0 0 0 0 0 0 0 0 0 0 0 0 0 0 0.25 0"/>
<feBlend mode="normal" in2="BackgroundImageFix" result="effect1_dropShadow_7_2312"/>
<feBlend mode="normal" in="SourceGraphic" in2="effect1_dropShadow_7_2312" result="shape"/>
</filter>
<linearGradient id="paint0_linear_7_2312" x1="243.5" y1="-1.87674e-05" x2="25" y2="60" gradientUnits="userSpaceOnUse">
<stop stop-color="#F6F8ED"/>
<stop offset="1" stop-color="#E7F5D9"/>
</linearGradient>
<linearGradient id="paint1_linear_7_2312" x1="90.1702" y1="3.17891e-06" x2="8.32549" y2="67.6525" gradientUnits="userSpaceOnUse">
<stop stop-color="#FB7E56"/>
<stop offset="1" stop-color="#D9593D"/>
</linearGradient>
<linearGradient id="paint2_linear_7_2312" x1="247" y1="78" x2="30.5" y2="138" gradientUnits="userSpaceOnUse">
<stop stop-color="#F6F8ED"/>
<stop offset="1" stop-color="#E7F5D9"/>
</linearGradient>
<linearGradient id="paint3_linear_7_2312" x1="89.4894" y1="78" x2="7.76632" y2="145.03" gradientUnits="userSpaceOnUse">
<stop stop-color="#FB7E56"/>
<stop offset="1" stop-color="#D9593D"/>
</linearGradient>
</defs>
</svg>
