<svg width="120" height="120" viewBox="0 0 120 120" fill="none" xmlns="http://www.w3.org/2000/svg">
<rect width="30" height="30" fill="#292929"/>
<rect x="0.5" y="0.5" width="29" height="29" stroke="#FDFFFC" stroke-opacity="0.25"/>
<rect x="30" width="30" height="30" fill="#292929"/>
<rect x="30.5" y="0.5" width="29" height="29" stroke="#FDFFFC" stroke-opacity="0.25"/>
<rect x="60" width="30" height="30" fill="#292929"/>
<rect x="60.5" y="0.5" width="29" height="29" stroke="#FDFFFC" stroke-opacity="0.25"/>
<rect x="90" width="30" height="30" fill="#292929"/>
<rect x="90.5" y="0.5" width="29" height="29" stroke="#FDFFFC" stroke-opacity="0.25"/>
<rect y="30" width="30" height="30" fill="#292929"/>
<rect x="0.5" y="30.5" width="29" height="29" stroke="#FDFFFC" stroke-opacity="0.25"/>
<rect x="30" y="30" width="30" height="30" fill="#ED1C24"/>
<rect x="30.5" y="30.5" width="29" height="29" stroke="#FDFFFC" stroke-opacity="0.25"/>
<rect x="60" y="30" width="30" height="30" fill="#FF69B4"/>
<rect x="60.5" y="30.5" width="29" height="29" stroke="#FDFFFC" stroke-opacity="0.25"/>
<rect x="90" y="30" width="30" height="30" fill="#292929"/>
<rect x="90.5" y="30.5" width="29" height="29" stroke="#FDFFFC" stroke-opacity="0.25"/>
<rect y="60" width="30" height="30" fill="#292929"/>
<rect x="0.5" y="60.5" width="29" height="29" stroke="#FDFFFC" stroke-opacity="0.25"/>
<rect x="30" y="60" width="30" height="30" fill="#F1D302"/>
<rect x="30.5" y="60.5" width="29" height="29" stroke="#FDFFFC" stroke-opacity="0.25"/>
<rect x="60" y="60" width="30" height="30" fill="#0081A7"/>
<rect x="60.5" y="60.5" width="29" height="29" stroke="#FDFFFC" stroke-opacity="0.25"/>
<rect x="90" y="60" width="30" height="30" fill="#292929"/>
<rect x="90.5" y="60.5" width="29" height="29" stroke="#FDFFFC" stroke-opacity="0.25"/>
<rect y="90" width="30" height="30" fill="#292929"/>
<rect x="0.5" y="90.5" width="29" height="29" stroke="#FDFFFC" stroke-opacity="0.25"/>
<rect x="30" y="90" width="30" height="30" fill="#292929"/>
<rect x="30.5" y="90.5" width="29" height="29" stroke="#FDFFFC" stroke-opacity="0.25"/>
<rect x="60" y="90" width="30" height="30" fill="#292929"/>
<rect x="60.5" y="90.5" width="29" height="29" stroke="#FDFFFC" stroke-opacity="0.25"/>
<rect x="90" y="90" width="30" height="30" fill="#292929"/>
<rect x="90.5" y="90.5" width="29" height="29" stroke="#FDFFFC" stroke-opacity="0.25"/>
</svg>
