<svg width="278" height="338" viewBox="0 0 278 338" fill="none" xmlns="http://www.w3.org/2000/svg">
<g filter="url(#filter0_d_7_1435)">
<path d="M9 45C9 22.9086 26.9086 5 49 5H229C251.091 5 269 22.9086 269 45V285C269 307.091 251.091 325 229 325H49C26.9086 325 9 307.091 9 285V45Z" fill="url(#paint0_linear_7_1435)"/>
<path d="M9 45C9 22.9086 26.9086 5 49 5H229C251.091 5 269 22.9086 269 45V285C269 307.091 251.091 325 229 325H49C26.9086 325 9 307.091 9 285V45Z" stroke="#F6F8ED"/>
</g>
<path d="M71.845 93.34H66.58V96.76C66.81 96.44 67.15 96.18 67.6 95.98C68.05 95.77 68.535 95.665 69.055 95.665C69.885 95.665 70.56 95.84 71.08 96.19C71.6 96.53 71.97 96.975 72.19 97.525C72.42 98.065 72.535 98.64 72.535 99.25C72.535 99.97 72.4 100.615 72.13 101.185C71.86 101.755 71.445 102.205 70.885 102.535C70.335 102.865 69.65 103.03 68.83 103.03C67.78 103.03 66.93 102.76 66.28 102.22C65.63 101.68 65.235 100.96 65.095 100.06H66.43C66.56 100.63 66.835 101.075 67.255 101.395C67.675 101.715 68.205 101.875 68.845 101.875C69.635 101.875 70.23 101.64 70.63 101.17C71.03 100.69 71.23 100.06 71.23 99.28C71.23 98.5 71.03 97.9 70.63 97.48C70.23 97.05 69.64 96.835 68.86 96.835C68.33 96.835 67.865 96.965 67.465 97.225C67.075 97.475 66.79 97.82 66.61 98.26H65.32V92.14H71.845V93.34ZM74.3489 97.465C74.3489 95.745 74.6289 94.405 75.1889 93.445C75.7489 92.475 76.7289 91.99 78.1289 91.99C79.5189 91.99 80.4939 92.475 81.0539 93.445C81.6139 94.405 81.8939 95.745 81.8939 97.465C81.8939 99.215 81.6139 100.575 81.0539 101.545C80.4939 102.515 79.5189 103 78.1289 103C76.7289 103 75.7489 102.515 75.1889 101.545C74.6289 100.575 74.3489 99.215 74.3489 97.465ZM80.5439 97.465C80.5439 96.595 80.4839 95.86 80.3639 95.26C80.2539 94.65 80.0189 94.16 79.6589 93.79C79.3089 93.42 78.7989 93.235 78.1289 93.235C77.4489 93.235 76.9289 93.42 76.5689 93.79C76.2189 94.16 75.9839 94.65 75.8639 95.26C75.7539 95.86 75.6989 96.595 75.6989 97.465C75.6989 98.365 75.7539 99.12 75.8639 99.73C75.9839 100.34 76.2189 100.83 76.5689 101.2C76.9289 101.57 77.4489 101.755 78.1289 101.755C78.7989 101.755 79.3089 101.57 79.6589 101.2C80.0189 100.83 80.2539 100.34 80.3639 99.73C80.4839 99.12 80.5439 98.365 80.5439 97.465ZM83.7679 97.465C83.7679 95.745 84.0479 94.405 84.6079 93.445C85.1679 92.475 86.1479 91.99 87.5479 91.99C88.9379 91.99 89.9129 92.475 90.4729 93.445C91.0329 94.405 91.3129 95.745 91.3129 97.465C91.3129 99.215 91.0329 100.575 90.4729 101.545C89.9129 102.515 88.9379 103 87.5479 103C86.1479 103 85.1679 102.515 84.6079 101.545C84.0479 100.575 83.7679 99.215 83.7679 97.465ZM89.9629 97.465C89.9629 96.595 89.9029 95.86 89.7829 95.26C89.6729 94.65 89.4379 94.16 89.0779 93.79C88.7279 93.42 88.2179 93.235 87.5479 93.235C86.8679 93.235 86.3479 93.42 85.9879 93.79C85.6379 94.16 85.4029 94.65 85.2829 95.26C85.1729 95.86 85.1179 96.595 85.1179 97.465C85.1179 98.365 85.1729 99.12 85.2829 99.73C85.4029 100.34 85.6379 100.83 85.9879 101.2C86.3479 101.57 86.8679 101.755 87.5479 101.755C88.2179 101.755 88.7279 101.57 89.0779 101.2C89.4379 100.83 89.6729 100.34 89.7829 99.73C89.9029 99.12 89.9629 98.365 89.9629 97.465ZM100.801 94.645C101.511 94.645 102.131 94.8 102.661 95.11C103.201 95.42 103.601 95.81 103.861 96.28V94.78H105.241V103.18C105.241 103.93 105.081 104.595 104.761 105.175C104.441 105.765 103.981 106.225 103.381 106.555C102.791 106.885 102.101 107.05 101.311 107.05C100.231 107.05 99.3309 106.795 98.6109 106.285C97.8909 105.775 97.4659 105.08 97.3359 104.2H98.6859C98.8359 104.7 99.1459 105.1 99.6159 105.4C100.086 105.71 100.651 105.865 101.311 105.865C102.061 105.865 102.671 105.63 103.141 105.16C103.621 104.69 103.861 104.03 103.861 103.18V101.455C103.591 101.935 103.191 102.335 102.661 102.655C102.131 102.975 101.511 103.135 100.801 103.135C100.071 103.135 99.4059 102.955 98.8059 102.595C98.2159 102.235 97.7509 101.73 97.4109 101.08C97.0709 100.43 96.9009 99.69 96.9009 98.86C96.9009 98.02 97.0709 97.285 97.4109 96.655C97.7509 96.015 98.2159 95.52 98.8059 95.17C99.4059 94.82 100.071 94.645 100.801 94.645ZM103.861 98.875C103.861 98.255 103.736 97.715 103.486 97.255C103.236 96.795 102.896 96.445 102.466 96.205C102.046 95.955 101.581 95.83 101.071 95.83C100.561 95.83 100.096 95.95 99.6759 96.19C99.2559 96.43 98.9209 96.78 98.6709 97.24C98.4209 97.7 98.2959 98.24 98.2959 98.86C98.2959 99.49 98.4209 100.04 98.6709 100.51C98.9209 100.97 99.2559 101.325 99.6759 101.575C100.096 101.815 100.561 101.935 101.071 101.935C101.581 101.935 102.046 101.815 102.466 101.575C102.896 101.325 103.236 100.97 103.486 100.51C103.736 100.04 103.861 99.495 103.861 98.875ZM112.912 96.295C113.182 95.825 113.582 95.435 114.112 95.125C114.652 94.805 115.277 94.645 115.987 94.645C116.717 94.645 117.377 94.82 117.967 95.17C118.567 95.52 119.037 96.015 119.377 96.655C119.717 97.285 119.887 98.02 119.887 98.86C119.887 99.69 119.717 100.43 119.377 101.08C119.037 101.73 118.567 102.235 117.967 102.595C117.377 102.955 116.717 103.135 115.987 103.135C115.287 103.135 114.667 102.98 114.127 102.67C113.597 102.35 113.192 101.955 112.912 101.485V106.9H111.547V94.78H112.912V96.295ZM118.492 98.86C118.492 98.24 118.367 97.7 118.117 97.24C117.867 96.78 117.527 96.43 117.097 96.19C116.677 95.95 116.212 95.83 115.702 95.83C115.202 95.83 114.737 95.955 114.307 96.205C113.887 96.445 113.547 96.8 113.287 97.27C113.037 97.73 112.912 98.265 112.912 98.875C112.912 99.495 113.037 100.04 113.287 100.51C113.547 100.97 113.887 101.325 114.307 101.575C114.737 101.815 115.202 101.935 115.702 101.935C116.212 101.935 116.677 101.815 117.097 101.575C117.527 101.325 117.867 100.97 118.117 100.51C118.367 100.04 118.492 99.49 118.492 98.86ZM128.973 94.78V103H127.608V101.785C127.348 102.205 126.983 102.535 126.513 102.775C126.053 103.005 125.543 103.12 124.983 103.12C124.343 103.12 123.768 102.99 123.258 102.73C122.748 102.46 122.343 102.06 122.043 101.53C121.753 101 121.608 100.355 121.608 99.595V94.78H122.958V99.415C122.958 100.225 123.163 100.85 123.573 101.29C123.983 101.72 124.543 101.935 125.253 101.935C125.983 101.935 126.558 101.71 126.978 101.26C127.398 100.81 127.608 100.155 127.608 99.295V94.78H128.973ZM141.163 94.63C141.803 94.63 142.373 94.765 142.873 95.035C143.373 95.295 143.768 95.69 144.058 96.22C144.348 96.75 144.493 97.395 144.493 98.155V103H143.143V98.35C143.143 97.53 142.938 96.905 142.528 96.475C142.128 96.035 141.583 95.815 140.893 95.815C140.183 95.815 139.618 96.045 139.198 96.505C138.778 96.955 138.568 97.61 138.568 98.47V103H137.218V98.35C137.218 97.53 137.013 96.905 136.603 96.475C136.203 96.035 135.658 95.815 134.968 95.815C134.258 95.815 133.693 96.045 133.273 96.505C132.853 96.955 132.643 97.61 132.643 98.47V103H131.278V94.78H132.643V95.965C132.913 95.535 133.273 95.205 133.723 94.975C134.183 94.745 134.688 94.63 135.238 94.63C135.928 94.63 136.538 94.785 137.068 95.095C137.598 95.405 137.993 95.86 138.253 96.46C138.483 95.88 138.863 95.43 139.393 95.11C139.923 94.79 140.513 94.63 141.163 94.63ZM148.097 96.295C148.367 95.825 148.767 95.435 149.297 95.125C149.837 94.805 150.462 94.645 151.172 94.645C151.902 94.645 152.562 94.82 153.152 95.17C153.752 95.52 154.222 96.015 154.562 96.655C154.902 97.285 155.072 98.02 155.072 98.86C155.072 99.69 154.902 100.43 154.562 101.08C154.222 101.73 153.752 102.235 153.152 102.595C152.562 102.955 151.902 103.135 151.172 103.135C150.472 103.135 149.852 102.98 149.312 102.67C148.782 102.35 148.377 101.955 148.097 101.485V106.9H146.732V94.78H148.097V96.295ZM153.677 98.86C153.677 98.24 153.552 97.7 153.302 97.24C153.052 96.78 152.712 96.43 152.282 96.19C151.862 95.95 151.397 95.83 150.887 95.83C150.387 95.83 149.922 95.955 149.492 96.205C149.072 96.445 148.732 96.8 148.472 97.27C148.222 97.73 148.097 98.265 148.097 98.875C148.097 99.495 148.222 100.04 148.472 100.51C148.732 100.97 149.072 101.325 149.492 101.575C149.922 101.815 150.387 101.935 150.887 101.935C151.397 101.935 151.862 101.815 152.282 101.575C152.712 101.325 153.052 100.97 153.302 100.51C153.552 100.04 153.677 99.49 153.677 98.86ZM161.459 103L158.234 99.37V103H156.869V91.9H158.234V98.425L161.399 94.78H163.304L159.434 98.875L163.319 103H161.459ZM165.294 93.445C165.034 93.445 164.814 93.355 164.634 93.175C164.454 92.995 164.364 92.775 164.364 92.515C164.364 92.255 164.454 92.035 164.634 91.855C164.814 91.675 165.034 91.585 165.294 91.585C165.544 91.585 165.754 91.675 165.924 91.855C166.104 92.035 166.194 92.255 166.194 92.515C166.194 92.775 166.104 92.995 165.924 93.175C165.754 93.355 165.544 93.445 165.294 93.445ZM165.954 94.78V103H164.589V94.78H165.954ZM172.285 94.63C173.285 94.63 174.095 94.935 174.715 95.545C175.335 96.145 175.645 97.015 175.645 98.155V103H174.295V98.35C174.295 97.53 174.09 96.905 173.68 96.475C173.27 96.035 172.71 95.815 172 95.815C171.28 95.815 170.705 96.04 170.275 96.49C169.855 96.94 169.645 97.595 169.645 98.455V103H168.28V94.78H169.645V95.95C169.915 95.53 170.28 95.205 170.74 94.975C171.21 94.745 171.725 94.63 172.285 94.63ZM71.845 116.34H66.58V119.76C66.81 119.44 67.15 119.18 67.6 118.98C68.05 118.77 68.535 118.665 69.055 118.665C69.885 118.665 70.56 118.84 71.08 119.19C71.6 119.53 71.97 119.975 72.19 120.525C72.42 121.065 72.535 121.64 72.535 122.25C72.535 122.97 72.4 123.615 72.13 124.185C71.86 124.755 71.445 125.205 70.885 125.535C70.335 125.865 69.65 126.03 68.83 126.03C67.78 126.03 66.93 125.76 66.28 125.22C65.63 124.68 65.235 123.96 65.095 123.06H66.43C66.56 123.63 66.835 124.075 67.255 124.395C67.675 124.715 68.205 124.875 68.845 124.875C69.635 124.875 70.23 124.64 70.63 124.17C71.03 123.69 71.23 123.06 71.23 122.28C71.23 121.5 71.03 120.9 70.63 120.48C70.23 120.05 69.64 119.835 68.86 119.835C68.33 119.835 67.865 119.965 67.465 120.225C67.075 120.475 66.79 120.82 66.61 121.26H65.32V115.14H71.845V116.34ZM74.3489 120.465C74.3489 118.745 74.6289 117.405 75.1889 116.445C75.7489 115.475 76.7289 114.99 78.1289 114.99C79.5189 114.99 80.4939 115.475 81.0539 116.445C81.6139 117.405 81.8939 118.745 81.8939 120.465C81.8939 122.215 81.6139 123.575 81.0539 124.545C80.4939 125.515 79.5189 126 78.1289 126C76.7289 126 75.7489 125.515 75.1889 124.545C74.6289 123.575 74.3489 122.215 74.3489 120.465ZM80.5439 120.465C80.5439 119.595 80.4839 118.86 80.3639 118.26C80.2539 117.65 80.0189 117.16 79.6589 116.79C79.3089 116.42 78.7989 116.235 78.1289 116.235C77.4489 116.235 76.9289 116.42 76.5689 116.79C76.2189 117.16 75.9839 117.65 75.8639 118.26C75.7539 118.86 75.6989 119.595 75.6989 120.465C75.6989 121.365 75.7539 122.12 75.8639 122.73C75.9839 123.34 76.2189 123.83 76.5689 124.2C76.9289 124.57 77.4489 124.755 78.1289 124.755C78.7989 124.755 79.3089 124.57 79.6589 124.2C80.0189 123.83 80.2539 123.34 80.3639 122.73C80.4839 122.12 80.5439 121.365 80.5439 120.465ZM91.3819 117.645C92.0919 117.645 92.7119 117.8 93.2419 118.11C93.7819 118.42 94.1819 118.81 94.4419 119.28V117.78H95.8219V126.18C95.8219 126.93 95.6619 127.595 95.3419 128.175C95.0219 128.765 94.5619 129.225 93.9619 129.555C93.3719 129.885 92.6819 130.05 91.8919 130.05C90.8119 130.05 89.9119 129.795 89.1919 129.285C88.4719 128.775 88.0469 128.08 87.9169 127.2H89.2669C89.4169 127.7 89.7269 128.1 90.1969 128.4C90.6669 128.71 91.2319 128.865 91.8919 128.865C92.6419 128.865 93.2519 128.63 93.7219 128.16C94.2019 127.69 94.4419 127.03 94.4419 126.18V124.455C94.1719 124.935 93.7719 125.335 93.2419 125.655C92.7119 125.975 92.0919 126.135 91.3819 126.135C90.6519 126.135 89.9869 125.955 89.3869 125.595C88.7969 125.235 88.3319 124.73 87.9919 124.08C87.6519 123.43 87.4819 122.69 87.4819 121.86C87.4819 121.02 87.6519 120.285 87.9919 119.655C88.3319 119.015 88.7969 118.52 89.3869 118.17C89.9869 117.82 90.6519 117.645 91.3819 117.645ZM94.4419 121.875C94.4419 121.255 94.3169 120.715 94.0669 120.255C93.8169 119.795 93.4769 119.445 93.0469 119.205C92.6269 118.955 92.1619 118.83 91.6519 118.83C91.1419 118.83 90.6769 118.95 90.2569 119.19C89.8369 119.43 89.5019 119.78 89.2519 120.24C89.0019 120.7 88.8769 121.24 88.8769 121.86C88.8769 122.49 89.0019 123.04 89.2519 123.51C89.5019 123.97 89.8369 124.325 90.2569 124.575C90.6769 124.815 91.1419 124.935 91.6519 124.935C92.1619 124.935 92.6269 124.815 93.0469 124.575C93.4769 124.325 93.8169 123.97 94.0669 123.51C94.3169 123.04 94.4419 122.495 94.4419 121.875ZM112.013 117.63C112.653 117.63 113.223 117.765 113.723 118.035C114.223 118.295 114.618 118.69 114.908 119.22C115.198 119.75 115.343 120.395 115.343 121.155V126H113.993V121.35C113.993 120.53 113.788 119.905 113.378 119.475C112.978 119.035 112.433 118.815 111.743 118.815C111.033 118.815 110.468 119.045 110.048 119.505C109.628 119.955 109.418 120.61 109.418 121.47V126H108.068V121.35C108.068 120.53 107.863 119.905 107.453 119.475C107.053 119.035 106.508 118.815 105.818 118.815C105.108 118.815 104.543 119.045 104.123 119.505C103.703 119.955 103.493 120.61 103.493 121.47V126H102.128V117.78H103.493V118.965C103.763 118.535 104.123 118.205 104.573 117.975C105.033 117.745 105.538 117.63 106.088 117.63C106.778 117.63 107.388 117.785 107.918 118.095C108.448 118.405 108.843 118.86 109.103 119.46C109.333 118.88 109.713 118.43 110.243 118.11C110.773 117.79 111.363 117.63 112.013 117.63ZM117.072 121.86C117.072 121.02 117.242 120.285 117.582 119.655C117.922 119.015 118.387 118.52 118.977 118.17C119.577 117.82 120.242 117.645 120.972 117.645C121.692 117.645 122.317 117.8 122.847 118.11C123.377 118.42 123.772 118.81 124.032 119.28V117.78H125.412V126H124.032V124.47C123.762 124.95 123.357 125.35 122.817 125.67C122.287 125.98 121.667 126.135 120.957 126.135C120.227 126.135 119.567 125.955 118.977 125.595C118.387 125.235 117.922 124.73 117.582 124.08C117.242 123.43 117.072 122.69 117.072 121.86ZM124.032 121.875C124.032 121.255 123.907 120.715 123.657 120.255C123.407 119.795 123.067 119.445 122.637 119.205C122.217 118.955 121.752 118.83 121.242 118.83C120.732 118.83 120.267 118.95 119.847 119.19C119.427 119.43 119.092 119.78 118.842 120.24C118.592 120.7 118.467 121.24 118.467 121.86C118.467 122.49 118.592 123.04 118.842 123.51C119.092 123.97 119.427 124.325 119.847 124.575C120.267 124.815 120.732 124.935 121.242 124.935C121.752 124.935 122.217 124.815 122.637 124.575C123.067 124.325 123.407 123.97 123.657 123.51C123.907 123.04 124.032 122.495 124.032 121.875ZM129.083 119.115C129.323 118.645 129.663 118.28 130.103 118.02C130.553 117.76 131.098 117.63 131.738 117.63V119.04H131.378C129.848 119.04 129.083 119.87 129.083 121.53V126H127.718V117.78H129.083V119.115ZM136.704 117.645C137.414 117.645 138.034 117.8 138.564 118.11C139.104 118.42 139.504 118.81 139.764 119.28V117.78H141.144V126.18C141.144 126.93 140.984 127.595 140.664 128.175C140.344 128.765 139.884 129.225 139.284 129.555C138.694 129.885 138.004 130.05 137.214 130.05C136.134 130.05 135.234 129.795 134.514 129.285C133.794 128.775 133.369 128.08 133.239 127.2H134.589C134.739 127.7 135.049 128.1 135.519 128.4C135.989 128.71 136.554 128.865 137.214 128.865C137.964 128.865 138.574 128.63 139.044 128.16C139.524 127.69 139.764 127.03 139.764 126.18V124.455C139.494 124.935 139.094 125.335 138.564 125.655C138.034 125.975 137.414 126.135 136.704 126.135C135.974 126.135 135.309 125.955 134.709 125.595C134.119 125.235 133.654 124.73 133.314 124.08C132.974 123.43 132.804 122.69 132.804 121.86C132.804 121.02 132.974 120.285 133.314 119.655C133.654 119.015 134.119 118.52 134.709 118.17C135.309 117.82 135.974 117.645 136.704 117.645ZM139.764 121.875C139.764 121.255 139.639 120.715 139.389 120.255C139.139 119.795 138.799 119.445 138.369 119.205C137.949 118.955 137.484 118.83 136.974 118.83C136.464 118.83 135.999 118.95 135.579 119.19C135.159 119.43 134.824 119.78 134.574 120.24C134.324 120.7 134.199 121.24 134.199 121.86C134.199 122.49 134.324 123.04 134.574 123.51C134.824 123.97 135.159 124.325 135.579 124.575C135.999 124.815 136.464 124.935 136.974 124.935C137.484 124.935 137.949 124.815 138.369 124.575C138.799 124.325 139.139 123.97 139.389 123.51C139.639 123.04 139.764 122.495 139.764 121.875ZM150.951 121.575C150.951 121.835 150.936 122.11 150.906 122.4H144.336C144.386 123.21 144.661 123.845 145.161 124.305C145.671 124.755 146.286 124.98 147.006 124.98C147.596 124.98 148.086 124.845 148.476 124.575C148.876 124.295 149.156 123.925 149.316 123.465H150.786C150.566 124.255 150.126 124.9 149.466 125.4C148.806 125.89 147.986 126.135 147.006 126.135C146.226 126.135 145.526 125.96 144.906 125.61C144.296 125.26 143.816 124.765 143.466 124.125C143.116 123.475 142.941 122.725 142.941 121.875C142.941 121.025 143.111 120.28 143.451 119.64C143.791 119 144.266 118.51 144.876 118.17C145.496 117.82 146.206 117.645 147.006 117.645C147.786 117.645 148.476 117.815 149.076 118.155C149.676 118.495 150.136 118.965 150.456 119.565C150.786 120.155 150.951 120.825 150.951 121.575ZM149.541 121.29C149.541 120.77 149.426 120.325 149.196 119.955C148.966 119.575 148.651 119.29 148.251 119.1C147.861 118.9 147.426 118.8 146.946 118.8C146.256 118.8 145.666 119.02 145.176 119.46C144.696 119.9 144.421 120.51 144.351 121.29H149.541ZM154.118 119.115C154.358 118.645 154.698 118.28 155.138 118.02C155.588 117.76 156.133 117.63 156.773 117.63V119.04H156.413C154.883 119.04 154.118 119.87 154.118 121.53V126H152.753V117.78H154.118V119.115ZM159.053 116.445C158.793 116.445 158.573 116.355 158.393 116.175C158.213 115.995 158.123 115.775 158.123 115.515C158.123 115.255 158.213 115.035 158.393 114.855C158.573 114.675 158.793 114.585 159.053 114.585C159.303 114.585 159.513 114.675 159.683 114.855C159.863 115.035 159.953 115.255 159.953 115.515C159.953 115.775 159.863 115.995 159.683 116.175C159.513 116.355 159.303 116.445 159.053 116.445ZM159.713 117.78V126H158.348V117.78H159.713ZM166.045 117.63C167.045 117.63 167.855 117.935 168.475 118.545C169.095 119.145 169.405 120.015 169.405 121.155V126H168.055V121.35C168.055 120.53 167.85 119.905 167.44 119.475C167.03 119.035 166.47 118.815 165.76 118.815C165.04 118.815 164.465 119.04 164.035 119.49C163.615 119.94 163.405 120.595 163.405 121.455V126H162.04V117.78H163.405V118.95C163.675 118.53 164.04 118.205 164.5 117.975C164.97 117.745 165.485 117.63 166.045 117.63ZM179.134 121.575C179.134 121.835 179.119 122.11 179.089 122.4H172.519C172.569 123.21 172.844 123.845 173.344 124.305C173.854 124.755 174.469 124.98 175.189 124.98C175.779 124.98 176.269 124.845 176.659 124.575C177.059 124.295 177.339 123.925 177.499 123.465H178.969C178.749 124.255 178.309 124.9 177.649 125.4C176.989 125.89 176.169 126.135 175.189 126.135C174.409 126.135 173.709 125.96 173.089 125.61C172.479 125.26 171.999 124.765 171.649 124.125C171.299 123.475 171.124 122.725 171.124 121.875C171.124 121.025 171.294 120.28 171.634 119.64C171.974 119 172.449 118.51 173.059 118.17C173.679 117.82 174.389 117.645 175.189 117.645C175.969 117.645 176.659 117.815 177.259 118.155C177.859 118.495 178.319 118.965 178.639 119.565C178.969 120.155 179.134 120.825 179.134 121.575ZM177.724 121.29C177.724 120.77 177.609 120.325 177.379 119.955C177.149 119.575 176.834 119.29 176.434 119.1C176.044 118.9 175.609 118.8 175.129 118.8C174.439 118.8 173.849 119.02 173.359 119.46C172.879 119.9 172.604 120.51 172.534 121.29H177.724ZM71.845 139.34H66.58V142.76C66.81 142.44 67.15 142.18 67.6 141.98C68.05 141.77 68.535 141.665 69.055 141.665C69.885 141.665 70.56 141.84 71.08 142.19C71.6 142.53 71.97 142.975 72.19 143.525C72.42 144.065 72.535 144.64 72.535 145.25C72.535 145.97 72.4 146.615 72.13 147.185C71.86 147.755 71.445 148.205 70.885 148.535C70.335 148.865 69.65 149.03 68.83 149.03C67.78 149.03 66.93 148.76 66.28 148.22C65.63 147.68 65.235 146.96 65.095 146.06H66.43C66.56 146.63 66.835 147.075 67.255 147.395C67.675 147.715 68.205 147.875 68.845 147.875C69.635 147.875 70.23 147.64 70.63 147.17C71.03 146.69 71.23 146.06 71.23 145.28C71.23 144.5 71.03 143.9 70.63 143.48C70.23 143.05 69.64 142.835 68.86 142.835C68.33 142.835 67.865 142.965 67.465 143.225C67.075 143.475 66.79 143.82 66.61 144.26H65.32V138.14H71.845V139.34ZM77.9639 140.645C78.6739 140.645 79.2939 140.8 79.8239 141.11C80.3639 141.42 80.7639 141.81 81.0239 142.28V140.78H82.4039V149.18C82.4039 149.93 82.2439 150.595 81.9239 151.175C81.6039 151.765 81.1439 152.225 80.5439 152.555C79.9539 152.885 79.2639 153.05 78.4739 153.05C77.3939 153.05 76.4939 152.795 75.7739 152.285C75.0539 151.775 74.6289 151.08 74.4989 150.2H75.8489C75.9989 150.7 76.3089 151.1 76.7789 151.4C77.2489 151.71 77.8139 151.865 78.4739 151.865C79.2239 151.865 79.8339 151.63 80.3039 151.16C80.7839 150.69 81.0239 150.03 81.0239 149.18V147.455C80.7539 147.935 80.3539 148.335 79.8239 148.655C79.2939 148.975 78.6739 149.135 77.9639 149.135C77.2339 149.135 76.5689 148.955 75.9689 148.595C75.3789 148.235 74.9139 147.73 74.5739 147.08C74.2339 146.43 74.0639 145.69 74.0639 144.86C74.0639 144.02 74.2339 143.285 74.5739 142.655C74.9139 142.015 75.3789 141.52 75.9689 141.17C76.5689 140.82 77.2339 140.645 77.9639 140.645ZM81.0239 144.875C81.0239 144.255 80.8989 143.715 80.6489 143.255C80.3989 142.795 80.0589 142.445 79.6289 142.205C79.2089 141.955 78.7439 141.83 78.2339 141.83C77.7239 141.83 77.2589 141.95 76.8389 142.19C76.4189 142.43 76.0839 142.78 75.8339 143.24C75.5839 143.7 75.4589 144.24 75.4589 144.86C75.4589 145.49 75.5839 146.04 75.8339 146.51C76.0839 146.97 76.4189 147.325 76.8389 147.575C77.2589 147.815 77.7239 147.935 78.2339 147.935C78.7439 147.935 79.2089 147.815 79.6289 147.575C80.0589 147.325 80.3989 146.97 80.6489 146.51C80.8989 146.04 81.0239 145.495 81.0239 144.875ZM99.6597 140.78L97.0947 149H95.6847L93.7047 142.475L91.7247 149H90.3147L87.7347 140.78H89.1297L91.0197 147.68L93.0597 140.78H94.4547L96.4497 147.695L98.3097 140.78H99.6597ZM105.094 140.63C105.714 140.63 106.274 140.765 106.774 141.035C107.274 141.295 107.664 141.69 107.944 142.22C108.234 142.75 108.379 143.395 108.379 144.155V149H107.029V144.35C107.029 143.53 106.824 142.905 106.414 142.475C106.004 142.035 105.444 141.815 104.734 141.815C104.014 141.815 103.439 142.04 103.009 142.49C102.589 142.94 102.379 143.595 102.379 144.455V149H101.014V137.9H102.379V141.95C102.649 141.53 103.019 141.205 103.489 140.975C103.969 140.745 104.504 140.63 105.094 140.63ZM111.314 139.445C111.054 139.445 110.834 139.355 110.654 139.175C110.474 138.995 110.384 138.775 110.384 138.515C110.384 138.255 110.474 138.035 110.654 137.855C110.834 137.675 111.054 137.585 111.314 137.585C111.564 137.585 111.774 137.675 111.944 137.855C112.124 138.035 112.214 138.255 112.214 138.515C112.214 138.775 112.124 138.995 111.944 139.175C111.774 139.355 111.564 139.445 111.314 139.445ZM111.974 140.78V149H110.609V140.78H111.974ZM115.966 141.905V146.75C115.966 147.15 116.051 147.435 116.221 147.605C116.391 147.765 116.686 147.845 117.106 147.845H118.111V149H116.881C116.121 149 115.551 148.825 115.171 148.475C114.791 148.125 114.601 147.55 114.601 146.75V141.905H113.536V140.78H114.601V138.71H115.966V140.78H118.111V141.905H115.966ZM127.264 144.575C127.264 144.835 127.249 145.11 127.219 145.4H120.649C120.699 146.21 120.974 146.845 121.474 147.305C121.984 147.755 122.599 147.98 123.319 147.98C123.909 147.98 124.399 147.845 124.789 147.575C125.189 147.295 125.469 146.925 125.629 146.465H127.099C126.879 147.255 126.439 147.9 125.779 148.4C125.119 148.89 124.299 149.135 123.319 149.135C122.539 149.135 121.839 148.96 121.219 148.61C120.609 148.26 120.129 147.765 119.779 147.125C119.429 146.475 119.254 145.725 119.254 144.875C119.254 144.025 119.424 143.28 119.764 142.64C120.104 142 120.579 141.51 121.189 141.17C121.809 140.82 122.519 140.645 123.319 140.645C124.099 140.645 124.789 140.815 125.389 141.155C125.989 141.495 126.449 141.965 126.769 142.565C127.099 143.155 127.264 143.825 127.264 144.575ZM125.854 144.29C125.854 143.77 125.739 143.325 125.509 142.955C125.279 142.575 124.964 142.29 124.564 142.1C124.174 141.9 123.739 141.8 123.259 141.8C122.569 141.8 121.979 142.02 121.489 142.46C121.009 142.9 120.734 143.51 120.664 144.29H125.854ZM134.43 142.295C134.7 141.825 135.1 141.435 135.63 141.125C136.17 140.805 136.795 140.645 137.505 140.645C138.235 140.645 138.895 140.82 139.485 141.17C140.085 141.52 140.555 142.015 140.895 142.655C141.235 143.285 141.405 144.02 141.405 144.86C141.405 145.69 141.235 146.43 140.895 147.08C140.555 147.73 140.085 148.235 139.485 148.595C138.895 148.955 138.235 149.135 137.505 149.135C136.805 149.135 136.185 148.98 135.645 148.67C135.115 148.35 134.71 147.955 134.43 147.485V152.9H133.065V140.78H134.43V142.295ZM140.01 144.86C140.01 144.24 139.885 143.7 139.635 143.24C139.385 142.78 139.045 142.43 138.615 142.19C138.195 141.95 137.73 141.83 137.22 141.83C136.72 141.83 136.255 141.955 135.825 142.205C135.405 142.445 135.065 142.8 134.805 143.27C134.555 143.73 134.43 144.265 134.43 144.875C134.43 145.495 134.555 146.04 134.805 146.51C135.065 146.97 135.405 147.325 135.825 147.575C136.255 147.815 136.72 147.935 137.22 147.935C137.73 147.935 138.195 147.815 138.615 147.575C139.045 147.325 139.385 146.97 139.635 146.51C139.885 146.04 140.01 145.49 140.01 144.86ZM150.702 144.575C150.702 144.835 150.687 145.11 150.657 145.4H144.087C144.137 146.21 144.412 146.845 144.912 147.305C145.422 147.755 146.037 147.98 146.757 147.98C147.347 147.98 147.837 147.845 148.227 147.575C148.627 147.295 148.907 146.925 149.067 146.465H150.537C150.317 147.255 149.877 147.9 149.217 148.4C148.557 148.89 147.737 149.135 146.757 149.135C145.977 149.135 145.277 148.96 144.657 148.61C144.047 148.26 143.567 147.765 143.217 147.125C142.867 146.475 142.692 145.725 142.692 144.875C142.692 144.025 142.862 143.28 143.202 142.64C143.542 142 144.017 141.51 144.627 141.17C145.247 140.82 145.957 140.645 146.757 140.645C147.537 140.645 148.227 140.815 148.827 141.155C149.427 141.495 149.887 141.965 150.207 142.565C150.537 143.155 150.702 143.825 150.702 144.575ZM149.292 144.29C149.292 143.77 149.177 143.325 148.947 142.955C148.717 142.575 148.402 142.29 148.002 142.1C147.612 141.9 147.177 141.8 146.697 141.8C146.007 141.8 145.417 142.02 144.927 142.46C144.447 142.9 144.172 143.51 144.102 144.29H149.292ZM153.869 142.295C154.139 141.825 154.539 141.435 155.069 141.125C155.609 140.805 156.234 140.645 156.944 140.645C157.674 140.645 158.334 140.82 158.924 141.17C159.524 141.52 159.994 142.015 160.334 142.655C160.674 143.285 160.844 144.02 160.844 144.86C160.844 145.69 160.674 146.43 160.334 147.08C159.994 147.73 159.524 148.235 158.924 148.595C158.334 148.955 157.674 149.135 156.944 149.135C156.244 149.135 155.624 148.98 155.084 148.67C154.554 148.35 154.149 147.955 153.869 147.485V152.9H152.504V140.78H153.869V142.295ZM159.449 144.86C159.449 144.24 159.324 143.7 159.074 143.24C158.824 142.78 158.484 142.43 158.054 142.19C157.634 141.95 157.169 141.83 156.659 141.83C156.159 141.83 155.694 141.955 155.264 142.205C154.844 142.445 154.504 142.8 154.244 143.27C153.994 143.73 153.869 144.265 153.869 144.875C153.869 145.495 153.994 146.04 154.244 146.51C154.504 146.97 154.844 147.325 155.264 147.575C155.694 147.815 156.159 147.935 156.659 147.935C157.169 147.935 157.634 147.815 158.054 147.575C158.484 147.325 158.824 146.97 159.074 146.51C159.324 146.04 159.449 145.49 159.449 144.86ZM164.005 142.295C164.275 141.825 164.675 141.435 165.205 141.125C165.745 140.805 166.37 140.645 167.08 140.645C167.81 140.645 168.47 140.82 169.06 141.17C169.66 141.52 170.13 142.015 170.47 142.655C170.81 143.285 170.98 144.02 170.98 144.86C170.98 145.69 170.81 146.43 170.47 147.08C170.13 147.73 169.66 148.235 169.06 148.595C168.47 148.955 167.81 149.135 167.08 149.135C166.38 149.135 165.76 148.98 165.22 148.67C164.69 148.35 164.285 147.955 164.005 147.485V152.9H162.64V140.78H164.005V142.295ZM169.585 144.86C169.585 144.24 169.46 143.7 169.21 143.24C168.96 142.78 168.62 142.43 168.19 142.19C167.77 141.95 167.305 141.83 166.795 141.83C166.295 141.83 165.83 141.955 165.4 142.205C164.98 142.445 164.64 142.8 164.38 143.27C164.13 143.73 164.005 144.265 164.005 144.875C164.005 145.495 164.13 146.04 164.38 146.51C164.64 146.97 164.98 147.325 165.4 147.575C165.83 147.815 166.295 147.935 166.795 147.935C167.305 147.935 167.77 147.815 168.19 147.575C168.62 147.325 168.96 146.97 169.21 146.51C169.46 146.04 169.585 145.49 169.585 144.86ZM180.277 144.575C180.277 144.835 180.262 145.11 180.232 145.4H173.662C173.712 146.21 173.987 146.845 174.487 147.305C174.997 147.755 175.612 147.98 176.332 147.98C176.922 147.98 177.412 147.845 177.802 147.575C178.202 147.295 178.482 146.925 178.642 146.465H180.112C179.892 147.255 179.452 147.9 178.792 148.4C178.132 148.89 177.312 149.135 176.332 149.135C175.552 149.135 174.852 148.96 174.232 148.61C173.622 148.26 173.142 147.765 172.792 147.125C172.442 146.475 172.267 145.725 172.267 144.875C172.267 144.025 172.437 143.28 172.777 142.64C173.117 142 173.592 141.51 174.202 141.17C174.822 140.82 175.532 140.645 176.332 140.645C177.112 140.645 177.802 140.815 178.402 141.155C179.002 141.495 179.462 141.965 179.782 142.565C180.112 143.155 180.277 143.825 180.277 144.575ZM178.867 144.29C178.867 143.77 178.752 143.325 178.522 142.955C178.292 142.575 177.977 142.29 177.577 142.1C177.187 141.9 176.752 141.8 176.272 141.8C175.582 141.8 174.992 142.02 174.502 142.46C174.022 142.9 173.747 143.51 173.677 144.29H178.867ZM183.444 142.115C183.684 141.645 184.024 141.28 184.464 141.02C184.914 140.76 185.459 140.63 186.099 140.63V142.04H185.739C184.209 142.04 183.444 142.87 183.444 144.53V149H182.079V140.78H183.444V142.115ZM64.765 170.905C66.035 169.885 67.03 169.05 67.75 168.4C68.47 167.74 69.075 167.055 69.565 166.345C70.065 165.625 70.315 164.92 70.315 164.23C70.315 163.58 70.155 163.07 69.835 162.7C69.525 162.32 69.02 162.13 68.32 162.13C67.64 162.13 67.11 162.345 66.73 162.775C66.36 163.195 66.16 163.76 66.13 164.47H64.81C64.85 163.35 65.19 162.485 65.83 161.875C66.47 161.265 67.295 160.96 68.305 160.96C69.335 160.96 70.15 161.245 70.75 161.815C71.36 162.385 71.665 163.17 71.665 164.17C71.665 165 71.415 165.81 70.915 166.6C70.425 167.38 69.865 168.07 69.235 168.67C68.605 169.26 67.8 169.95 66.82 170.74H71.98V171.88H64.765V170.905ZM73.5579 166.465C73.5579 164.745 73.8379 163.405 74.3979 162.445C74.9579 161.475 75.9379 160.99 77.3379 160.99C78.7279 160.99 79.7029 161.475 80.2629 162.445C80.8229 163.405 81.1029 164.745 81.1029 166.465C81.1029 168.215 80.8229 169.575 80.2629 170.545C79.7029 171.515 78.7279 172 77.3379 172C75.9379 172 74.9579 171.515 74.3979 170.545C73.8379 169.575 73.5579 168.215 73.5579 166.465ZM79.7529 166.465C79.7529 165.595 79.6929 164.86 79.5729 164.26C79.4629 163.65 79.2279 163.16 78.8679 162.79C78.5179 162.42 78.0079 162.235 77.3379 162.235C76.6579 162.235 76.1379 162.42 75.7779 162.79C75.4279 163.16 75.1929 163.65 75.0729 164.26C74.9629 164.86 74.9079 165.595 74.9079 166.465C74.9079 167.365 74.9629 168.12 75.0729 168.73C75.1929 169.34 75.4279 169.83 75.7779 170.2C76.1379 170.57 76.6579 170.755 77.3379 170.755C78.0079 170.755 78.5179 170.57 78.8679 170.2C79.2279 169.83 79.4629 169.34 79.5729 168.73C79.6929 168.12 79.7529 167.365 79.7529 166.465ZM82.9769 166.465C82.9769 164.745 83.2569 163.405 83.8169 162.445C84.3769 161.475 85.3569 160.99 86.7569 160.99C88.1469 160.99 89.1219 161.475 89.6819 162.445C90.2419 163.405 90.5219 164.745 90.5219 166.465C90.5219 168.215 90.2419 169.575 89.6819 170.545C89.1219 171.515 88.1469 172 86.7569 172C85.3569 172 84.3769 171.515 83.8169 170.545C83.2569 169.575 82.9769 168.215 82.9769 166.465ZM89.1719 166.465C89.1719 165.595 89.1119 164.86 88.9919 164.26C88.8819 163.65 88.6469 163.16 88.2869 162.79C87.9369 162.42 87.4269 162.235 86.7569 162.235C86.0769 162.235 85.5569 162.42 85.1969 162.79C84.8469 163.16 84.6119 163.65 84.4919 164.26C84.3819 164.86 84.3269 165.595 84.3269 166.465C84.3269 167.365 84.3819 168.12 84.4919 168.73C84.6119 169.34 84.8469 169.83 85.1969 170.2C85.5569 170.57 86.0769 170.755 86.7569 170.755C87.4269 170.755 87.9369 170.57 88.2869 170.2C88.6469 169.83 88.8819 169.34 88.9919 168.73C89.1119 168.12 89.1719 167.365 89.1719 166.465ZM96.0108 163.645C96.7208 163.645 97.3408 163.8 97.8708 164.11C98.4108 164.42 98.8108 164.81 99.0708 165.28V163.78H100.451V172.18C100.451 172.93 100.291 173.595 99.9708 174.175C99.6508 174.765 99.1908 175.225 98.5908 175.555C98.0008 175.885 97.3108 176.05 96.5208 176.05C95.4408 176.05 94.5408 175.795 93.8208 175.285C93.1008 174.775 92.6758 174.08 92.5458 173.2H93.8958C94.0458 173.7 94.3558 174.1 94.8258 174.4C95.2958 174.71 95.8608 174.865 96.5208 174.865C97.2708 174.865 97.8808 174.63 98.3508 174.16C98.8308 173.69 99.0708 173.03 99.0708 172.18V170.455C98.8008 170.935 98.4008 171.335 97.8708 171.655C97.3408 171.975 96.7208 172.135 96.0108 172.135C95.2808 172.135 94.6158 171.955 94.0158 171.595C93.4258 171.235 92.9608 170.73 92.6208 170.08C92.2808 169.43 92.1108 168.69 92.1108 167.86C92.1108 167.02 92.2808 166.285 92.6208 165.655C92.9608 165.015 93.4258 164.52 94.0158 164.17C94.6158 163.82 95.2808 163.645 96.0108 163.645ZM99.0708 167.875C99.0708 167.255 98.9458 166.715 98.6958 166.255C98.4458 165.795 98.1058 165.445 97.6758 165.205C97.2558 164.955 96.7908 164.83 96.2808 164.83C95.7708 164.83 95.3058 164.95 94.8858 165.19C94.4658 165.43 94.1308 165.78 93.8808 166.24C93.6308 166.7 93.5058 167.24 93.5058 167.86C93.5058 168.49 93.6308 169.04 93.8808 169.51C94.1308 169.97 94.4658 170.325 94.8858 170.575C95.3058 170.815 95.7708 170.935 96.2808 170.935C96.7908 170.935 97.2558 170.815 97.6758 170.575C98.1058 170.325 98.4458 169.97 98.6958 169.51C98.9458 169.04 99.0708 168.495 99.0708 167.875ZM117.707 163.78L115.142 172H113.732L111.752 165.475L109.772 172H108.362L105.782 163.78H107.177L109.067 170.68L111.107 163.78H112.502L114.497 170.695L116.357 163.78H117.707ZM123.141 163.63C123.761 163.63 124.321 163.765 124.821 164.035C125.321 164.295 125.711 164.69 125.991 165.22C126.281 165.75 126.426 166.395 126.426 167.155V172H125.076V167.35C125.076 166.53 124.871 165.905 124.461 165.475C124.051 165.035 123.491 164.815 122.781 164.815C122.061 164.815 121.486 165.04 121.056 165.49C120.636 165.94 120.426 166.595 120.426 167.455V172H119.061V160.9H120.426V164.95C120.696 164.53 121.066 164.205 121.536 163.975C122.016 163.745 122.551 163.63 123.141 163.63ZM129.361 162.445C129.101 162.445 128.881 162.355 128.701 162.175C128.521 161.995 128.431 161.775 128.431 161.515C128.431 161.255 128.521 161.035 128.701 160.855C128.881 160.675 129.101 160.585 129.361 160.585C129.611 160.585 129.821 160.675 129.991 160.855C130.171 161.035 130.261 161.255 130.261 161.515C130.261 161.775 130.171 161.995 129.991 162.175C129.821 162.355 129.611 162.445 129.361 162.445ZM130.021 163.78V172H128.656V163.78H130.021ZM134.012 164.905V169.75C134.012 170.15 134.097 170.435 134.267 170.605C134.437 170.765 134.732 170.845 135.152 170.845H136.157V172H134.927C134.167 172 133.597 171.825 133.217 171.475C132.837 171.125 132.647 170.55 132.647 169.75V164.905H131.582V163.78H132.647V161.71H134.012V163.78H136.157V164.905H134.012ZM145.311 167.575C145.311 167.835 145.296 168.11 145.266 168.4H138.696C138.746 169.21 139.021 169.845 139.521 170.305C140.031 170.755 140.646 170.98 141.366 170.98C141.956 170.98 142.446 170.845 142.836 170.575C143.236 170.295 143.516 169.925 143.676 169.465H145.146C144.926 170.255 144.486 170.9 143.826 171.4C143.166 171.89 142.346 172.135 141.366 172.135C140.586 172.135 139.886 171.96 139.266 171.61C138.656 171.26 138.176 170.765 137.826 170.125C137.476 169.475 137.301 168.725 137.301 167.875C137.301 167.025 137.471 166.28 137.811 165.64C138.151 165 138.626 164.51 139.236 164.17C139.856 163.82 140.566 163.645 141.366 163.645C142.146 163.645 142.836 163.815 143.436 164.155C144.036 164.495 144.496 164.965 144.816 165.565C145.146 166.155 145.311 166.825 145.311 167.575ZM143.901 167.29C143.901 166.77 143.786 166.325 143.556 165.955C143.326 165.575 143.011 165.29 142.611 165.1C142.221 164.9 141.786 164.8 141.306 164.8C140.616 164.8 140.026 165.02 139.536 165.46C139.056 165.9 138.781 166.51 138.711 167.29H143.901ZM154.697 172.135C153.927 172.135 153.227 171.96 152.597 171.61C151.977 171.26 151.487 170.765 151.127 170.125C150.777 169.475 150.602 168.725 150.602 167.875C150.602 167.035 150.782 166.295 151.142 165.655C151.512 165.005 152.012 164.51 152.642 164.17C153.272 163.82 153.977 163.645 154.757 163.645C155.537 163.645 156.242 163.82 156.872 164.17C157.502 164.51 157.997 165 158.357 165.64C158.727 166.28 158.912 167.025 158.912 167.875C158.912 168.725 158.722 169.475 158.342 170.125C157.972 170.765 157.467 171.26 156.827 171.61C156.187 171.96 155.477 172.135 154.697 172.135ZM154.697 170.935C155.187 170.935 155.647 170.82 156.077 170.59C156.507 170.36 156.852 170.015 157.112 169.555C157.382 169.095 157.517 168.535 157.517 167.875C157.517 167.215 157.387 166.655 157.127 166.195C156.867 165.735 156.527 165.395 156.107 165.175C155.687 164.945 155.232 164.83 154.742 164.83C154.242 164.83 153.782 164.945 153.362 165.175C152.952 165.395 152.622 165.735 152.372 166.195C152.122 166.655 151.997 167.215 151.997 167.875C151.997 168.545 152.117 169.11 152.357 169.57C152.607 170.03 152.937 170.375 153.347 170.605C153.757 170.825 154.207 170.935 154.697 170.935ZM164.712 163.63C165.712 163.63 166.522 163.935 167.142 164.545C167.762 165.145 168.072 166.015 168.072 167.155V172H166.722V167.35C166.722 166.53 166.517 165.905 166.107 165.475C165.697 165.035 165.137 164.815 164.427 164.815C163.707 164.815 163.132 165.04 162.702 165.49C162.282 165.94 162.072 166.595 162.072 167.455V172H160.707V163.78H162.072V164.95C162.342 164.53 162.707 164.205 163.167 163.975C163.637 163.745 164.152 163.63 164.712 163.63ZM171.006 162.445C170.746 162.445 170.526 162.355 170.346 162.175C170.166 161.995 170.076 161.775 170.076 161.515C170.076 161.255 170.166 161.035 170.346 160.855C170.526 160.675 170.746 160.585 171.006 160.585C171.256 160.585 171.466 160.675 171.636 160.855C171.816 161.035 171.906 161.255 171.906 161.515C171.906 161.775 171.816 161.995 171.636 162.175C171.466 162.355 171.256 162.445 171.006 162.445ZM171.666 163.78V172H170.301V163.78H171.666ZM177.578 172.135C176.808 172.135 176.108 171.96 175.478 171.61C174.858 171.26 174.368 170.765 174.008 170.125C173.658 169.475 173.483 168.725 173.483 167.875C173.483 167.035 173.663 166.295 174.023 165.655C174.393 165.005 174.893 164.51 175.523 164.17C176.153 163.82 176.858 163.645 177.638 163.645C178.418 163.645 179.123 163.82 179.753 164.17C180.383 164.51 180.878 165 181.238 165.64C181.608 166.28 181.793 167.025 181.793 167.875C181.793 168.725 181.603 169.475 181.223 170.125C180.853 170.765 180.348 171.26 179.708 171.61C179.068 171.96 178.358 172.135 177.578 172.135ZM177.578 170.935C178.068 170.935 178.528 170.82 178.958 170.59C179.388 170.36 179.733 170.015 179.993 169.555C180.263 169.095 180.398 168.535 180.398 167.875C180.398 167.215 180.268 166.655 180.008 166.195C179.748 165.735 179.408 165.395 178.988 165.175C178.568 164.945 178.113 164.83 177.623 164.83C177.123 164.83 176.663 164.945 176.243 165.175C175.833 165.395 175.503 165.735 175.253 166.195C175.003 166.655 174.878 167.215 174.878 167.875C174.878 168.545 174.998 169.11 175.238 169.57C175.488 170.03 175.818 170.375 176.228 170.605C176.638 170.825 177.088 170.935 177.578 170.935ZM187.593 163.63C188.593 163.63 189.403 163.935 190.023 164.545C190.643 165.145 190.953 166.015 190.953 167.155V172H189.603V167.35C189.603 166.53 189.398 165.905 188.988 165.475C188.578 165.035 188.018 164.815 187.308 164.815C186.588 164.815 186.013 165.04 185.583 165.49C185.163 165.94 184.953 166.595 184.953 167.455V172H183.588V163.78H184.953V164.95C185.223 164.53 185.588 164.205 186.048 163.975C186.518 163.745 187.033 163.63 187.593 163.63Z" fill="#513131"/>
<path d="M95.4796 32.016C95.1489 32.016 94.8716 31.904 94.6476 31.68C94.4236 31.456 94.3116 31.1787 94.3116 30.848C94.3116 30.5173 94.4236 30.24 94.6476 30.016C94.8716 29.792 95.1489 29.68 95.4796 29.68C95.7996 29.68 96.0716 29.792 96.2956 30.016C96.5196 30.24 96.6316 30.5173 96.6316 30.848C96.6316 31.1787 96.5196 31.456 96.2956 31.68C96.0716 31.904 95.7996 32.016 95.4796 32.016ZM96.3756 33.184V42H94.5516V33.184H96.3756ZM103.218 33.04C103.912 33.04 104.53 33.184 105.074 33.472C105.629 33.76 106.061 34.1867 106.37 34.752C106.68 35.3173 106.834 36 106.834 36.8V42H105.026V37.072C105.026 36.2827 104.829 35.68 104.434 35.264C104.04 34.8373 103.501 34.624 102.818 34.624C102.136 34.624 101.592 34.8373 101.186 35.264C100.792 35.68 100.594 36.2827 100.594 37.072V42H98.7703V33.184H100.594V34.192C100.893 33.8293 101.272 33.5467 101.73 33.344C102.2 33.1413 102.696 33.04 103.218 33.04ZM112.713 33.04C113.396 33.04 113.998 33.1787 114.521 33.456C115.054 33.7227 115.47 34.0587 115.769 34.464V33.184H117.609V42.144C117.609 42.9547 117.438 43.6747 117.097 44.304C116.756 44.944 116.26 45.4453 115.609 45.808C114.969 46.1707 114.201 46.352 113.305 46.352C112.11 46.352 111.118 46.0693 110.329 45.504C109.54 44.9493 109.092 44.192 108.985 43.232H110.793C110.932 43.6907 111.225 44.0587 111.673 44.336C112.132 44.624 112.676 44.768 113.305 44.768C114.041 44.768 114.633 44.544 115.081 44.096C115.54 43.648 115.769 42.9973 115.769 42.144V40.672C115.46 41.088 115.038 41.44 114.505 41.728C113.982 42.0053 113.385 42.144 112.713 42.144C111.945 42.144 111.241 41.952 110.601 41.568C109.972 41.1733 109.47 40.6293 109.097 39.936C108.734 39.232 108.553 38.4373 108.553 37.552C108.553 36.6667 108.734 35.8827 109.097 35.2C109.47 34.5173 109.972 33.9893 110.601 33.616C111.241 33.232 111.945 33.04 112.713 33.04ZM115.769 37.584C115.769 36.976 115.641 36.448 115.385 36C115.14 35.552 114.814 35.2107 114.409 34.976C114.004 34.7413 113.566 34.624 113.097 34.624C112.628 34.624 112.19 34.7413 111.785 34.976C111.38 35.2 111.049 35.536 110.793 35.984C110.548 36.4213 110.425 36.944 110.425 37.552C110.425 38.16 110.548 38.6933 110.793 39.152C111.049 39.6107 111.38 39.9627 111.785 40.208C112.201 40.4427 112.638 40.56 113.097 40.56C113.566 40.56 114.004 40.4427 114.409 40.208C114.814 39.9733 115.14 39.632 115.385 39.184C115.641 38.7253 115.769 38.192 115.769 37.584ZM121.829 34.464C122.095 34.016 122.447 33.6693 122.885 33.424C123.333 33.168 123.861 33.04 124.469 33.04V34.928H124.005C123.29 34.928 122.746 35.1093 122.373 35.472C122.01 35.8347 121.829 36.464 121.829 37.36V42H120.005V33.184H121.829V34.464ZM134.225 37.376C134.225 37.7067 134.204 38.0053 134.161 38.272H127.425C127.479 38.976 127.74 39.5413 128.209 39.968C128.679 40.3947 129.255 40.608 129.937 40.608C130.919 40.608 131.612 40.1973 132.017 39.376H133.985C133.719 40.1867 133.233 40.8533 132.529 41.376C131.836 41.888 130.972 42.144 129.937 42.144C129.095 42.144 128.337 41.9573 127.665 41.584C127.004 41.2 126.481 40.6667 126.097 39.984C125.724 39.2907 125.537 38.4907 125.537 37.584C125.537 36.6773 125.719 35.8827 126.081 35.2C126.455 34.5067 126.972 33.9733 127.633 33.6C128.305 33.2267 129.073 33.04 129.937 33.04C130.769 33.04 131.511 33.2213 132.161 33.584C132.812 33.9467 133.319 34.4587 133.681 35.12C134.044 35.7707 134.225 36.5227 134.225 37.376ZM132.321 36.8C132.311 36.128 132.071 35.5893 131.601 35.184C131.132 34.7787 130.551 34.576 129.857 34.576C129.228 34.576 128.689 34.7787 128.241 35.184C127.793 35.5787 127.527 36.1173 127.441 36.8H132.321ZM135.412 37.552C135.412 36.6667 135.594 35.8827 135.956 35.2C136.33 34.5173 136.831 33.9893 137.46 33.616C138.1 33.232 138.81 33.04 139.588 33.04C140.164 33.04 140.73 33.168 141.284 33.424C141.85 33.6693 142.298 34 142.628 34.416V30.16H144.468V42H142.628V40.672C142.33 41.0987 141.914 41.4507 141.38 41.728C140.858 42.0053 140.255 42.144 139.572 42.144C138.804 42.144 138.1 41.952 137.46 41.568C136.831 41.1733 136.33 40.6293 135.956 39.936C135.594 39.232 135.412 38.4373 135.412 37.552ZM142.628 37.584C142.628 36.976 142.5 36.448 142.244 36C141.999 35.552 141.674 35.2107 141.268 34.976C140.863 34.7413 140.426 34.624 139.956 34.624C139.487 34.624 139.05 34.7413 138.644 34.976C138.239 35.2 137.908 35.536 137.652 35.984C137.407 36.4213 137.284 36.944 137.284 37.552C137.284 38.16 137.407 38.6933 137.652 39.152C137.908 39.6107 138.239 39.9627 138.644 40.208C139.06 40.4427 139.498 40.56 139.956 40.56C140.426 40.56 140.863 40.4427 141.268 40.208C141.674 39.9733 141.999 39.632 142.244 39.184C142.5 38.7253 142.628 38.192 142.628 37.584ZM147.792 32.016C147.461 32.016 147.184 31.904 146.96 31.68C146.736 31.456 146.624 31.1787 146.624 30.848C146.624 30.5173 146.736 30.24 146.96 30.016C147.184 29.792 147.461 29.68 147.792 29.68C148.112 29.68 148.384 29.792 148.608 30.016C148.832 30.24 148.944 30.5173 148.944 30.848C148.944 31.1787 148.832 31.456 148.608 31.68C148.384 31.904 148.112 32.016 147.792 32.016ZM148.688 33.184V42H146.864V33.184H148.688ZM159.163 37.376C159.163 37.7067 159.141 38.0053 159.099 38.272H152.363C152.416 38.976 152.677 39.5413 153.147 39.968C153.616 40.3947 154.192 40.608 154.875 40.608C155.856 40.608 156.549 40.1973 156.955 39.376H158.923C158.656 40.1867 158.171 40.8533 157.467 41.376C156.773 41.888 155.909 42.144 154.875 42.144C154.032 42.144 153.275 41.9573 152.603 41.584C151.941 41.2 151.419 40.6667 151.035 39.984C150.661 39.2907 150.475 38.4907 150.475 37.584C150.475 36.6773 150.656 35.8827 151.019 35.2C151.392 34.5067 151.909 33.9733 152.571 33.6C153.243 33.2267 154.011 33.04 154.875 33.04C155.707 33.04 156.448 33.2213 157.099 33.584C157.749 33.9467 158.256 34.4587 158.619 35.12C158.981 35.7707 159.163 36.5227 159.163 37.376ZM157.259 36.8C157.248 36.128 157.008 35.5893 156.539 35.184C156.069 34.7787 155.488 34.576 154.795 34.576C154.165 34.576 153.627 34.7787 153.179 35.184C152.731 35.5787 152.464 36.1173 152.379 36.8H157.259ZM165.406 33.04C166.099 33.04 166.718 33.184 167.262 33.472C167.816 33.76 168.248 34.1867 168.558 34.752C168.867 35.3173 169.022 36 169.022 36.8V42H167.214V37.072C167.214 36.2827 167.016 35.68 166.622 35.264C166.227 34.8373 165.688 34.624 165.006 34.624C164.323 34.624 163.779 34.8373 163.374 35.264C162.979 35.68 162.782 36.2827 162.782 37.072V42H160.958V33.184H162.782V34.192C163.08 33.8293 163.459 33.5467 163.918 33.344C164.387 33.1413 164.883 33.04 165.406 33.04ZM173.476 34.672V39.552C173.476 39.8827 173.551 40.1227 173.7 40.272C173.86 40.4107 174.127 40.48 174.5 40.48H175.62V42H174.18C173.359 42 172.73 41.808 172.292 41.424C171.855 41.04 171.636 40.416 171.636 39.552V34.672H170.596V33.184H171.636V30.992H173.476V33.184H175.62V34.672H173.476ZM180.502 42.144C179.808 42.144 179.184 42.0213 178.63 41.776C178.086 41.52 177.654 41.1787 177.334 40.752C177.014 40.3147 176.843 39.8293 176.822 39.296H178.71C178.742 39.6693 178.918 39.984 179.238 40.24C179.568 40.4853 179.979 40.608 180.47 40.608C180.982 40.608 181.376 40.512 181.654 40.32C181.942 40.1173 182.086 39.8613 182.086 39.552C182.086 39.2213 181.926 38.976 181.606 38.816C181.296 38.656 180.8 38.48 180.118 38.288C179.456 38.1067 178.918 37.9307 178.502 37.76C178.086 37.5893 177.723 37.328 177.414 36.976C177.115 36.624 176.966 36.16 176.966 35.584C176.966 35.1147 177.104 34.688 177.382 34.304C177.659 33.9093 178.054 33.6 178.566 33.376C179.088 33.152 179.686 33.04 180.358 33.04C181.36 33.04 182.166 33.296 182.774 33.808C183.392 34.3093 183.723 34.9973 183.766 35.872H181.942C181.91 35.4773 181.75 35.1627 181.462 34.928C181.174 34.6933 180.784 34.576 180.294 34.576C179.814 34.576 179.446 34.6667 179.19 34.848C178.934 35.0293 178.806 35.2693 178.806 35.568C178.806 35.8027 178.891 36 179.062 36.16C179.232 36.32 179.44 36.448 179.686 36.544C179.931 36.6293 180.294 36.7413 180.774 36.88C181.414 37.0507 181.936 37.2267 182.342 37.408C182.758 37.5787 183.115 37.8347 183.414 38.176C183.712 38.5173 183.867 38.9707 183.878 39.536C183.878 40.0373 183.739 40.4853 183.462 40.88C183.184 41.2747 182.79 41.584 182.278 41.808C181.776 42.032 181.184 42.144 180.502 42.144Z" fill="#513131"/>
<line x1="9" y1="65.5" x2="269" y2="65.5" stroke="black"/>
<g clip-path="url(#clip0_7_1435)">
<path d="M49 103.25C47.6076 103.25 46.2723 102.697 45.2877 101.712C44.3031 100.728 43.75 99.3924 43.75 98C43.75 96.6076 44.3031 95.2723 45.2877 94.2877C46.2723 93.3031 47.6076 92.75 49 92.75C50.3924 92.75 51.7277 93.3031 52.7123 94.2877C53.6969 95.2723 54.25 96.6076 54.25 98C54.25 99.3924 53.6969 100.728 52.7123 101.712C51.7277 102.697 50.3924 103.25 49 103.25ZM49 104C50.5913 104 52.1174 103.368 53.2426 102.243C54.3679 101.117 55 99.5913 55 98C55 96.4087 54.3679 94.8826 53.2426 93.7574C52.1174 92.6321 50.5913 92 49 92C47.4087 92 45.8826 92.6321 44.7574 93.7574C43.6321 94.8826 43 96.4087 43 98C43 99.5913 43.6321 101.117 44.7574 102.243C45.8826 103.368 47.4087 104 49 104Z" fill="#513131" stroke="#513131" stroke-width="0.5"/>
<path d="M49 95C49.0995 95 49.1948 95.0395 49.2652 95.1098C49.3355 95.1802 49.375 95.2755 49.375 95.375V97.625H51.625C51.7245 97.625 51.8198 97.6645 51.8902 97.7348C51.9605 97.8052 52 97.9005 52 98C52 98.0995 51.9605 98.1948 51.8902 98.2652C51.8198 98.3355 51.7245 98.375 51.625 98.375H49.375V100.625C49.375 100.724 49.3355 100.82 49.2652 100.89C49.1948 100.96 49.0995 101 49 101C48.9005 101 48.8052 100.96 48.7348 100.89C48.6645 100.82 48.625 100.724 48.625 100.625V98.375H46.375C46.2755 98.375 46.1802 98.3355 46.1098 98.2652C46.0395 98.1948 46 98.0995 46 98C46 97.9005 46.0395 97.8052 46.1098 97.7348C46.1802 97.6645 46.2755 97.625 46.375 97.625H48.625V95.375C48.625 95.2755 48.6645 95.1802 48.7348 95.1098C48.8052 95.0395 48.9005 95 49 95V95Z" fill="#513131" stroke="#513131" stroke-width="0.5"/>
</g>
<g clip-path="url(#clip1_7_1435)">
<path d="M49 149.25C47.6076 149.25 46.2723 148.697 45.2877 147.712C44.3031 146.728 43.75 145.392 43.75 144C43.75 142.608 44.3031 141.272 45.2877 140.288C46.2723 139.303 47.6076 138.75 49 138.75C50.3924 138.75 51.7277 139.303 52.7123 140.288C53.6969 141.272 54.25 142.608 54.25 144C54.25 145.392 53.6969 146.728 52.7123 147.712C51.7277 148.697 50.3924 149.25 49 149.25ZM49 150C50.5913 150 52.1174 149.368 53.2426 148.243C54.3679 147.117 55 145.591 55 144C55 142.409 54.3679 140.883 53.2426 139.757C52.1174 138.632 50.5913 138 49 138C47.4087 138 45.8826 138.632 44.7574 139.757C43.6321 140.883 43 142.409 43 144C43 145.591 43.6321 147.117 44.7574 148.243C45.8826 149.368 47.4087 150 49 150Z" fill="#513131" stroke="#513131" stroke-width="0.5"/>
<path d="M49 141C49.0995 141 49.1948 141.04 49.2652 141.11C49.3355 141.18 49.375 141.276 49.375 141.375V143.625H51.625C51.7245 143.625 51.8198 143.665 51.8902 143.735C51.9605 143.805 52 143.901 52 144C52 144.099 51.9605 144.195 51.8902 144.265C51.8198 144.335 51.7245 144.375 51.625 144.375H49.375V146.625C49.375 146.724 49.3355 146.82 49.2652 146.89C49.1948 146.96 49.0995 147 49 147C48.9005 147 48.8052 146.96 48.7348 146.89C48.6645 146.82 48.625 146.724 48.625 146.625V144.375H46.375C46.2755 144.375 46.1802 144.335 46.1098 144.265C46.0395 144.195 46 144.099 46 144C46 143.901 46.0395 143.805 46.1098 143.735C46.1802 143.665 46.2755 143.625 46.375 143.625H48.625V141.375C48.625 141.276 48.6645 141.18 48.7348 141.11C48.8052 141.04 48.9005 141 49 141V141Z" fill="#513131" stroke="#513131" stroke-width="0.5"/>
</g>
<g clip-path="url(#clip2_7_1435)">
<path d="M49 172.25C47.6076 172.25 46.2723 171.697 45.2877 170.712C44.3031 169.728 43.75 168.392 43.75 167C43.75 165.608 44.3031 164.272 45.2877 163.288C46.2723 162.303 47.6076 161.75 49 161.75C50.3924 161.75 51.7277 162.303 52.7123 163.288C53.6969 164.272 54.25 165.608 54.25 167C54.25 168.392 53.6969 169.728 52.7123 170.712C51.7277 171.697 50.3924 172.25 49 172.25ZM49 173C50.5913 173 52.1174 172.368 53.2426 171.243C54.3679 170.117 55 168.591 55 167C55 165.409 54.3679 163.883 53.2426 162.757C52.1174 161.632 50.5913 161 49 161C47.4087 161 45.8826 161.632 44.7574 162.757C43.6321 163.883 43 165.409 43 167C43 168.591 43.6321 170.117 44.7574 171.243C45.8826 172.368 47.4087 173 49 173Z" fill="#513131" stroke="#513131" stroke-width="0.5"/>
<path d="M49 164C49.0995 164 49.1948 164.04 49.2652 164.11C49.3355 164.18 49.375 164.276 49.375 164.375V166.625H51.625C51.7245 166.625 51.8198 166.665 51.8902 166.735C51.9605 166.805 52 166.901 52 167C52 167.099 51.9605 167.195 51.8902 167.265C51.8198 167.335 51.7245 167.375 51.625 167.375H49.375V169.625C49.375 169.724 49.3355 169.82 49.2652 169.89C49.1948 169.96 49.0995 170 49 170C48.9005 170 48.8052 169.96 48.7348 169.89C48.6645 169.82 48.625 169.724 48.625 169.625V167.375H46.375C46.2755 167.375 46.1802 167.335 46.1098 167.265C46.0395 167.195 46 167.099 46 167C46 166.901 46.0395 166.805 46.1098 166.735C46.1802 166.665 46.2755 166.625 46.375 166.625H48.625V164.375C48.625 164.276 48.6645 164.18 48.7348 164.11C48.8052 164.04 48.9005 164 49 164V164Z" fill="#513131" stroke="#513131" stroke-width="0.5"/>
</g>
<g clip-path="url(#clip3_7_1435)">
<path d="M49 126.25C47.6076 126.25 46.2723 125.697 45.2877 124.712C44.3031 123.728 43.75 122.392 43.75 121C43.75 119.608 44.3031 118.272 45.2877 117.288C46.2723 116.303 47.6076 115.75 49 115.75C50.3924 115.75 51.7277 116.303 52.7123 117.288C53.6969 118.272 54.25 119.608 54.25 121C54.25 122.392 53.6969 123.728 52.7123 124.712C51.7277 125.697 50.3924 126.25 49 126.25ZM49 127C50.5913 127 52.1174 126.368 53.2426 125.243C54.3679 124.117 55 122.591 55 121C55 119.409 54.3679 117.883 53.2426 116.757C52.1174 115.632 50.5913 115 49 115C47.4087 115 45.8826 115.632 44.7574 116.757C43.6321 117.883 43 119.409 43 121C43 122.591 43.6321 124.117 44.7574 125.243C45.8826 126.368 47.4087 127 49 127Z" fill="#513131" stroke="#513131" stroke-width="0.5"/>
<rect x="46" y="120.5" width="6" height="1" rx="0.5" fill="#513131"/>
</g>
<path d="M125.214 289.832C126.569 288.744 127.63 287.853 128.398 287.16C129.166 286.456 129.812 285.725 130.334 284.968C130.868 284.2 131.134 283.448 131.134 282.712C131.134 282.019 130.964 281.475 130.622 281.08C130.292 280.675 129.753 280.472 129.006 280.472C128.281 280.472 127.716 280.701 127.31 281.16C126.916 281.608 126.702 282.211 126.67 282.968H125.262C125.305 281.773 125.668 280.851 126.35 280.2C127.033 279.549 127.913 279.224 128.99 279.224C130.089 279.224 130.958 279.528 131.598 280.136C132.249 280.744 132.574 281.581 132.574 282.648C132.574 283.533 132.308 284.397 131.774 285.24C131.252 286.072 130.654 286.808 129.982 287.448C129.31 288.077 128.452 288.813 127.406 289.656H132.91V290.872H125.214V289.832Z" fill="#513131"/>
<path opacity="0.5" d="M86.0455 280.76V279.432H89.0535V291H87.5815V280.76H86.0455Z" fill="#513131"/>
<path opacity="0.5" d="M166.249 282.344C166.324 281.363 166.702 280.595 167.385 280.04C168.068 279.485 168.953 279.208 170.041 279.208C170.766 279.208 171.39 279.341 171.913 279.608C172.446 279.864 172.846 280.216 173.113 280.664C173.39 281.112 173.529 281.619 173.529 282.184C173.529 282.845 173.337 283.416 172.953 283.896C172.58 284.376 172.089 284.685 171.481 284.824V284.904C172.174 285.075 172.724 285.411 173.129 285.912C173.534 286.413 173.737 287.069 173.737 287.88C173.737 288.488 173.598 289.037 173.321 289.528C173.044 290.008 172.628 290.387 172.073 290.664C171.518 290.941 170.852 291.08 170.073 291.08C168.942 291.08 168.014 290.787 167.289 290.2C166.564 289.603 166.158 288.76 166.073 287.672H167.481C167.556 288.312 167.817 288.835 168.265 289.24C168.713 289.645 169.31 289.848 170.057 289.848C170.804 289.848 171.369 289.656 171.753 289.272C172.148 288.877 172.345 288.371 172.345 287.752C172.345 286.952 172.078 286.376 171.545 286.024C171.012 285.672 170.206 285.496 169.129 285.496H168.761V284.28H169.145C170.126 284.269 170.868 284.109 171.369 283.8C171.87 283.48 172.121 282.989 172.121 282.328C172.121 281.763 171.934 281.309 171.561 280.968C171.198 280.627 170.676 280.456 169.993 280.456C169.332 280.456 168.798 280.627 168.393 280.968C167.988 281.309 167.748 281.768 167.673 282.344H166.249Z" fill="#513131"/>
<line x1="148.5" y1="275" x2="148.5" y2="295" stroke="black"/>
<line x1="108.5" y1="275" x2="108.5" y2="295" stroke="black"/>
<defs>
<filter id="filter0_d_7_1435" x="0.5" y="0.5" width="277" height="337" filterUnits="userSpaceOnUse" color-interpolation-filters="sRGB">
<feFlood flood-opacity="0" result="BackgroundImageFix"/>
<feColorMatrix in="SourceAlpha" type="matrix" values="0 0 0 0 0 0 0 0 0 0 0 0 0 0 0 0 0 0 127 0" result="hardAlpha"/>
<feOffset dy="4"/>
<feGaussianBlur stdDeviation="4"/>
<feComposite in2="hardAlpha" operator="out"/>
<feColorMatrix type="matrix" values="0 0 0 0 0 0 0 0 0 0 0 0 0 0 0 0 0 0 0.25 0"/>
<feBlend mode="normal" in2="BackgroundImageFix" result="effect1_dropShadow_7_1435"/>
<feBlend mode="normal" in="SourceGraphic" in2="effect1_dropShadow_7_1435" result="shape"/>
</filter>
<linearGradient id="paint0_linear_7_1435" x1="269" y1="5.00001" x2="9" y2="325" gradientUnits="userSpaceOnUse">
<stop stop-color="#F6F8ED"/>
<stop offset="1" stop-color="#E6F8DB"/>
</linearGradient>
<clipPath id="clip0_7_1435">
<rect width="14" height="14" fill="white" transform="translate(42 91)"/>
</clipPath>
<clipPath id="clip1_7_1435">
<rect width="14" height="14" fill="white" transform="translate(42 137)"/>
</clipPath>
<clipPath id="clip2_7_1435">
<rect width="14" height="14" fill="white" transform="translate(42 160)"/>
</clipPath>
<clipPath id="clip3_7_1435">
<rect width="14" height="14" fill="white" transform="translate(42 114)"/>
</clipPath>
</defs>
</svg>
