<svg width="278" height="338" viewBox="0 0 278 338" fill="none" xmlns="http://www.w3.org/2000/svg">
<g filter="url(#filter0_d_7_1428)">
<path d="M9 45C9 22.9086 26.9086 5 49 5H229C251.091 5 269 22.9086 269 45V285C269 307.091 251.091 325 229 325H49C26.9086 325 9 307.091 9 285V45Z" fill="url(#paint0_linear_7_1428)"/>
<path d="M49 5.5H229V4.5H49V5.5ZM268.5 45V285H269.5V45H268.5ZM229 324.5H49V325.5H229V324.5ZM9.5 285V45H8.5V285H9.5ZM49 324.5C27.1848 324.5 9.5 306.815 9.5 285H8.5C8.5 307.368 26.6325 325.5 49 325.5V324.5ZM268.5 285C268.5 306.815 250.815 324.5 229 324.5V325.5C251.368 325.5 269.5 307.368 269.5 285H268.5ZM229 5.5C250.815 5.5 268.5 23.1848 268.5 45H269.5C269.5 22.6325 251.368 4.5 229 4.5V5.5ZM49 4.5C26.6325 4.5 8.5 22.6325 8.5 45H9.5C9.5 23.1848 27.1848 5.5 49 5.5V4.5Z" fill="#F6F8ED"/>
<path d="M119.427 32.04C120.12 32.04 120.739 32.184 121.283 32.472C121.837 32.76 122.269 33.1867 122.579 33.752C122.899 34.3173 123.059 35 123.059 35.8V41H121.251V36.072C121.251 35.2827 121.053 34.68 120.659 34.264C120.264 33.8373 119.725 33.624 119.043 33.624C118.36 33.624 117.816 33.8373 117.411 34.264C117.016 34.68 116.819 35.2827 116.819 36.072V41H115.011V36.072C115.011 35.2827 114.813 34.68 114.419 34.264C114.024 33.8373 113.485 33.624 112.803 33.624C112.12 33.624 111.576 33.8373 111.171 34.264C110.776 34.68 110.579 35.2827 110.579 36.072V41H108.755V32.184H110.579V33.192C110.877 32.8293 111.256 32.5467 111.715 32.344C112.173 32.1413 112.664 32.04 113.187 32.04C113.891 32.04 114.52 32.1893 115.075 32.488C115.629 32.7867 116.056 33.2187 116.355 33.784C116.621 33.2507 117.037 32.8293 117.603 32.52C118.168 32.2 118.776 32.04 119.427 32.04ZM133.46 36.376C133.46 36.7067 133.438 37.0053 133.396 37.272H126.66C126.713 37.976 126.974 38.5413 127.444 38.968C127.913 39.3947 128.489 39.608 129.172 39.608C130.153 39.608 130.846 39.1973 131.252 38.376H133.22C132.953 39.1867 132.468 39.8533 131.764 40.376C131.07 40.888 130.206 41.144 129.172 41.144C128.329 41.144 127.572 40.9573 126.9 40.584C126.238 40.2 125.716 39.6667 125.332 38.984C124.958 38.2907 124.772 37.4907 124.772 36.584C124.772 35.6773 124.953 34.8827 125.316 34.2C125.689 33.5067 126.206 32.9733 126.868 32.6C127.54 32.2267 128.308 32.04 129.172 32.04C130.004 32.04 130.745 32.2213 131.396 32.584C132.046 32.9467 132.553 33.4587 132.916 34.12C133.278 34.7707 133.46 35.5227 133.46 36.376ZM131.556 35.8C131.545 35.128 131.305 34.5893 130.836 34.184C130.366 33.7787 129.785 33.576 129.092 33.576C128.462 33.576 127.924 33.7787 127.476 34.184C127.028 34.5787 126.761 35.1173 126.676 35.8H131.556ZM137.383 33.672V38.552C137.383 38.8827 137.457 39.1227 137.607 39.272C137.767 39.4107 138.033 39.48 138.407 39.48H139.527V41H138.087C137.265 41 136.636 40.808 136.199 40.424C135.761 40.04 135.543 39.416 135.543 38.552V33.672H134.503V32.184H135.543V29.992H137.383V32.184H139.527V33.672H137.383ZM145.768 32.04C146.44 32.04 147.037 32.184 147.56 32.472C148.093 32.76 148.509 33.1867 148.808 33.752C149.117 34.3173 149.272 35 149.272 35.8V41H147.464V36.072C147.464 35.2827 147.266 34.68 146.872 34.264C146.477 33.8373 145.938 33.624 145.256 33.624C144.573 33.624 144.029 33.8373 143.624 34.264C143.229 34.68 143.032 35.2827 143.032 36.072V41H141.208V29.16H143.032V33.208C143.341 32.8347 143.73 32.5467 144.2 32.344C144.68 32.1413 145.202 32.04 145.768 32.04ZM155.422 41.144C154.59 41.144 153.838 40.9573 153.166 40.584C152.494 40.2 151.966 39.6667 151.582 38.984C151.198 38.2907 151.006 37.4907 151.006 36.584C151.006 35.688 151.204 34.8933 151.598 34.2C151.993 33.5067 152.532 32.9733 153.214 32.6C153.897 32.2267 154.66 32.04 155.502 32.04C156.345 32.04 157.108 32.2267 157.79 32.6C158.473 32.9733 159.012 33.5067 159.406 34.2C159.801 34.8933 159.998 35.688 159.998 36.584C159.998 37.48 159.796 38.2747 159.39 38.968C158.985 39.6613 158.43 40.2 157.726 40.584C157.033 40.9573 156.265 41.144 155.422 41.144ZM155.422 39.56C155.892 39.56 156.329 39.448 156.734 39.224C157.15 39 157.486 38.664 157.742 38.216C157.998 37.768 158.126 37.224 158.126 36.584C158.126 35.944 158.004 35.4053 157.758 34.968C157.513 34.52 157.188 34.184 156.782 33.96C156.377 33.736 155.94 33.624 155.47 33.624C155.001 33.624 154.564 33.736 154.158 33.96C153.764 34.184 153.449 34.52 153.214 34.968C152.98 35.4053 152.862 35.944 152.862 36.584C152.862 37.5333 153.102 38.2693 153.582 38.792C154.073 39.304 154.686 39.56 155.422 39.56ZM161.194 36.552C161.194 35.6667 161.375 34.8827 161.738 34.2C162.111 33.5173 162.612 32.9893 163.242 32.616C163.882 32.232 164.591 32.04 165.37 32.04C165.946 32.04 166.511 32.168 167.066 32.424C167.631 32.6693 168.079 33 168.41 33.416V29.16H170.25V41H168.41V39.672C168.111 40.0987 167.695 40.4507 167.162 40.728C166.639 41.0053 166.036 41.144 165.354 41.144C164.586 41.144 163.882 40.952 163.242 40.568C162.612 40.1733 162.111 39.6293 161.738 38.936C161.375 38.232 161.194 37.4373 161.194 36.552ZM168.41 36.584C168.41 35.976 168.282 35.448 168.026 35C167.78 34.552 167.455 34.2107 167.05 33.976C166.644 33.7413 166.207 33.624 165.738 33.624C165.268 33.624 164.831 33.7413 164.426 33.976C164.02 34.2 163.69 34.536 163.434 34.984C163.188 35.4213 163.066 35.944 163.066 36.552C163.066 37.16 163.188 37.6933 163.434 38.152C163.69 38.6107 164.02 38.9627 164.426 39.208C164.842 39.4427 165.279 39.56 165.738 39.56C166.207 39.56 166.644 39.4427 167.05 39.208C167.455 38.9733 167.78 38.632 168.026 38.184C168.282 37.7253 168.41 37.192 168.41 36.584Z" fill="#513131"/>
<path d="M43.7903 89.76V88.432H46.7983V100H45.3263V89.76H43.7903ZM50.0033 100.096C49.726 100.096 49.4913 100 49.2993 99.808C49.1073 99.616 49.0113 99.3813 49.0113 99.104C49.0113 98.8267 49.1073 98.592 49.2993 98.4C49.4913 98.208 49.726 98.112 50.0033 98.112C50.27 98.112 50.494 98.208 50.6753 98.4C50.8673 98.592 50.9633 98.8267 50.9633 99.104C50.9633 99.3813 50.8673 99.616 50.6753 99.808C50.494 100 50.27 100.096 50.0033 100.096ZM60.008 92.432V97.6C60.008 98.0267 60.0987 98.3307 60.28 98.512C60.4613 98.6827 60.776 98.768 61.224 98.768H62.296V100H60.984C60.1733 100 59.5653 99.8133 59.16 99.44C58.7547 99.0667 58.552 98.4533 58.552 97.6V92.432H57.416V91.232H58.552V89.024H60.008V91.232H62.296V92.432H60.008ZM71.8361 91.232V100H70.3801V98.704C70.1028 99.152 69.7135 99.504 69.2121 99.76C68.7215 100.005 68.1775 100.128 67.5801 100.128C66.8975 100.128 66.2841 99.9893 65.7401 99.712C65.1961 99.424 64.7641 98.9973 64.4441 98.432C64.1348 97.8667 63.9801 97.1787 63.9801 96.368V91.232H65.4201V96.176C65.4201 97.04 65.6388 97.7067 66.0761 98.176C66.5135 98.6347 67.1108 98.864 67.8681 98.864C68.6468 98.864 69.2601 98.624 69.7081 98.144C70.1561 97.664 70.3801 96.9653 70.3801 96.048V91.232H71.8361ZM75.7505 92.656C76.0065 92.1547 76.3692 91.7653 76.8385 91.488C77.3185 91.2107 77.8998 91.072 78.5825 91.072V92.576H78.1985C76.5665 92.576 75.7505 93.4613 75.7505 95.232V100H74.2945V91.232H75.7505V92.656ZM84.5353 91.072C85.6019 91.072 86.4659 91.3973 87.1273 92.048C87.7886 92.688 88.1193 93.616 88.1193 94.832V100H86.6793V95.04C86.6793 94.1653 86.4606 93.4987 86.0233 93.04C85.5859 92.5707 84.9886 92.336 84.2313 92.336C83.4633 92.336 82.8499 92.576 82.3913 93.056C81.9433 93.536 81.7193 94.2347 81.7193 95.152V100H80.2633V91.232H81.7193V92.48C82.0073 92.032 82.3966 91.6853 82.8873 91.44C83.3886 91.1947 83.9379 91.072 84.5353 91.072ZM98.5873 100.144C97.7659 100.144 97.0193 99.9573 96.3473 99.584C95.6859 99.2107 95.1633 98.6827 94.7793 98C94.4059 97.3067 94.2193 96.5067 94.2193 95.6C94.2193 94.704 94.4113 93.9147 94.7953 93.232C95.1899 92.5387 95.7233 92.0107 96.3953 91.648C97.0673 91.2747 97.8193 91.088 98.6513 91.088C99.4833 91.088 100.235 91.2747 100.907 91.648C101.579 92.0107 102.107 92.5333 102.491 93.216C102.886 93.8987 103.083 94.6933 103.083 95.6C103.083 96.5067 102.881 97.3067 102.475 98C102.081 98.6827 101.542 99.2107 100.859 99.584C100.177 99.9573 99.4193 100.144 98.5873 100.144ZM98.5873 98.864C99.1099 98.864 99.6006 98.7413 100.059 98.496C100.518 98.2507 100.886 97.8827 101.163 97.392C101.451 96.9013 101.595 96.304 101.595 95.6C101.595 94.896 101.457 94.2987 101.179 93.808C100.902 93.3173 100.539 92.9547 100.091 92.72C99.6433 92.4747 99.1579 92.352 98.6353 92.352C98.1019 92.352 97.6113 92.4747 97.1633 92.72C96.7259 92.9547 96.3739 93.3173 96.1073 93.808C95.8406 94.2987 95.7073 94.896 95.7073 95.6C95.7073 96.3147 95.8353 96.9173 96.0913 97.408C96.3579 97.8987 96.7099 98.2667 97.1473 98.512C97.5846 98.7467 98.0646 98.864 98.5873 98.864ZM109.27 91.072C110.336 91.072 111.2 91.3973 111.862 92.048C112.523 92.688 112.854 93.616 112.854 94.832V100H111.414V95.04C111.414 94.1653 111.195 93.4987 110.758 93.04C110.32 92.5707 109.723 92.336 108.966 92.336C108.198 92.336 107.584 92.576 107.126 93.056C106.678 93.536 106.454 94.2347 106.454 95.152V100H104.998V91.232H106.454V92.48C106.742 92.032 107.131 91.6853 107.622 91.44C108.123 91.1947 108.672 91.072 109.27 91.072ZM121.274 92.432V97.6C121.274 98.0267 121.364 98.3307 121.546 98.512C121.727 98.6827 122.042 98.768 122.49 98.768H123.562V100H122.25C121.439 100 120.831 99.8133 120.426 99.44C120.02 99.0667 119.818 98.4533 119.818 97.6V92.432H118.682V91.232H119.818V89.024H121.274V91.232H123.562V92.432H121.274ZM129.678 91.072C130.339 91.072 130.936 91.216 131.47 91.504C132.003 91.7813 132.419 92.2027 132.718 92.768C133.027 93.3333 133.182 94.0213 133.182 94.832V100H131.742V95.04C131.742 94.1653 131.523 93.4987 131.086 93.04C130.648 92.5707 130.051 92.336 129.294 92.336C128.526 92.336 127.912 92.576 127.454 93.056C127.006 93.536 126.782 94.2347 126.782 95.152V100H125.326V88.16H126.782V92.48C127.07 92.032 127.464 91.6853 127.966 91.44C128.478 91.1947 129.048 91.072 129.678 91.072ZM143.56 95.28C143.56 95.5573 143.544 95.8507 143.512 96.16H136.504C136.557 97.024 136.851 97.7013 137.384 98.192C137.928 98.672 138.584 98.912 139.352 98.912C139.981 98.912 140.504 98.768 140.92 98.48C141.347 98.1813 141.645 97.7867 141.816 97.296H143.384C143.149 98.1387 142.68 98.8267 141.976 99.36C141.272 99.8827 140.397 100.144 139.352 100.144C138.52 100.144 137.773 99.9573 137.112 99.584C136.461 99.2107 135.949 98.6827 135.576 98C135.203 97.3067 135.016 96.5067 135.016 95.6C135.016 94.6933 135.197 93.8987 135.56 93.216C135.923 92.5333 136.429 92.0107 137.08 91.648C137.741 91.2747 138.499 91.088 139.352 91.088C140.184 91.088 140.92 91.2693 141.56 91.632C142.2 91.9947 142.691 92.496 143.032 93.136C143.384 93.7653 143.56 94.48 143.56 95.28ZM142.056 94.976C142.056 94.4213 141.933 93.9467 141.688 93.552C141.443 93.1467 141.107 92.8427 140.68 92.64C140.264 92.4267 139.8 92.32 139.288 92.32C138.552 92.32 137.923 92.5547 137.4 93.024C136.888 93.4933 136.595 94.144 136.52 94.976H142.056ZM151.204 88.16V100H149.748V88.16H151.204ZM153.141 95.584C153.141 94.688 153.322 93.904 153.685 93.232C154.048 92.5493 154.544 92.0213 155.173 91.648C155.813 91.2747 156.522 91.088 157.301 91.088C158.069 91.088 158.736 91.2533 159.301 91.584C159.866 91.9147 160.288 92.3307 160.565 92.832V91.232H162.037V100H160.565V98.368C160.277 98.88 159.845 99.3067 159.269 99.648C158.704 99.9787 158.042 100.144 157.285 100.144C156.506 100.144 155.802 99.952 155.173 99.568C154.544 99.184 154.048 98.6453 153.685 97.952C153.322 97.2587 153.141 96.4693 153.141 95.584ZM160.565 95.6C160.565 94.9387 160.432 94.3627 160.165 93.872C159.898 93.3813 159.536 93.008 159.077 92.752C158.629 92.4853 158.133 92.352 157.589 92.352C157.045 92.352 156.549 92.48 156.101 92.736C155.653 92.992 155.296 93.3653 155.029 93.856C154.762 94.3467 154.629 94.9227 154.629 95.584C154.629 96.256 154.762 96.8427 155.029 97.344C155.296 97.8347 155.653 98.2133 156.101 98.48C156.549 98.736 157.045 98.864 157.589 98.864C158.133 98.864 158.629 98.736 159.077 98.48C159.536 98.2133 159.898 97.8347 160.165 97.344C160.432 96.8427 160.565 96.2613 160.565 95.6ZM167.762 98.656L170.482 91.232H172.034L168.594 100H166.898L163.458 91.232H165.026L167.762 98.656ZM172.922 95.584C172.922 94.688 173.104 93.904 173.466 93.232C173.829 92.5493 174.325 92.0213 174.954 91.648C175.594 91.2747 176.304 91.088 177.082 91.088C177.85 91.088 178.517 91.2533 179.082 91.584C179.648 91.9147 180.069 92.3307 180.346 92.832V91.232H181.818V100H180.346V98.368C180.058 98.88 179.626 99.3067 179.05 99.648C178.485 99.9787 177.824 100.144 177.066 100.144C176.288 100.144 175.584 99.952 174.954 99.568C174.325 99.184 173.829 98.6453 173.466 97.952C173.104 97.2587 172.922 96.4693 172.922 95.584ZM180.346 95.6C180.346 94.9387 180.213 94.3627 179.946 93.872C179.68 93.3813 179.317 93.008 178.858 92.752C178.41 92.4853 177.914 92.352 177.37 92.352C176.826 92.352 176.33 92.48 175.882 92.736C175.434 92.992 175.077 93.3653 174.81 93.856C174.544 94.3467 174.41 94.9227 174.41 95.584C174.41 96.256 174.544 96.8427 174.81 97.344C175.077 97.8347 175.434 98.2133 175.882 98.48C176.33 98.736 176.826 98.864 177.37 98.864C177.914 98.864 178.41 98.736 178.858 98.48C179.317 98.2133 179.68 97.8347 179.946 97.344C180.213 96.8427 180.346 96.2613 180.346 95.6ZM39.9202 122.832C41.2749 121.744 42.3362 120.853 43.1042 120.16C43.8722 119.456 44.5176 118.725 45.0402 117.968C45.5736 117.2 45.8402 116.448 45.8402 115.712C45.8402 115.019 45.6696 114.475 45.3282 114.08C44.9976 113.675 44.4589 113.472 43.7122 113.472C42.9869 113.472 42.4216 113.701 42.0162 114.16C41.6216 114.608 41.4082 115.211 41.3762 115.968H39.9682C40.0109 114.773 40.3736 113.851 41.0562 113.2C41.7389 112.549 42.6189 112.224 43.6962 112.224C44.7949 112.224 45.6642 112.528 46.3042 113.136C46.9549 113.744 47.2802 114.581 47.2802 115.648C47.2802 116.533 47.0136 117.397 46.4802 118.24C45.9576 119.072 45.3602 119.808 44.6882 120.448C44.0162 121.077 43.1576 121.813 42.1122 122.656H47.6162V123.872H39.9202V122.832ZM50.0033 124.096C49.726 124.096 49.4913 124 49.2993 123.808C49.1073 123.616 49.0113 123.381 49.0113 123.104C49.0113 122.827 49.1073 122.592 49.2993 122.4C49.4913 122.208 49.726 122.112 50.0033 122.112C50.27 122.112 50.494 122.208 50.6753 122.4C50.8673 122.592 50.9633 122.827 50.9633 123.104C50.9633 123.381 50.8673 123.616 50.6753 123.808C50.494 124 50.27 124.096 50.0033 124.096ZM59.688 112.16V124H58.232V112.16H59.688ZM70.1695 119.28C70.1695 119.557 70.1535 119.851 70.1215 120.16H63.1135C63.1668 121.024 63.4602 121.701 63.9935 122.192C64.5375 122.672 65.1935 122.912 65.9615 122.912C66.5908 122.912 67.1135 122.768 67.5295 122.48C67.9562 122.181 68.2548 121.787 68.4255 121.296H69.9935C69.7588 122.139 69.2895 122.827 68.5855 123.36C67.8815 123.883 67.0068 124.144 65.9615 124.144C65.1295 124.144 64.3828 123.957 63.7215 123.584C63.0708 123.211 62.5588 122.683 62.1855 122C61.8122 121.307 61.6255 120.507 61.6255 119.6C61.6255 118.693 61.8068 117.899 62.1695 117.216C62.5322 116.533 63.0388 116.011 63.6895 115.648C64.3508 115.275 65.1082 115.088 65.9615 115.088C66.7935 115.088 67.5295 115.269 68.1695 115.632C68.8095 115.995 69.3002 116.496 69.6415 117.136C69.9935 117.765 70.1695 118.48 70.1695 119.28ZM68.6655 118.976C68.6655 118.421 68.5428 117.947 68.2975 117.552C68.0522 117.147 67.7162 116.843 67.2895 116.64C66.8735 116.427 66.4095 116.32 65.8975 116.32C65.1615 116.32 64.5322 116.555 64.0095 117.024C63.4975 117.493 63.2042 118.144 63.1295 118.976H68.6655ZM73.8674 116.432V121.6C73.8674 122.027 73.958 122.331 74.1394 122.512C74.3207 122.683 74.6354 122.768 75.0834 122.768H76.1554V124H74.8434C74.0327 124 73.4247 123.813 73.0194 123.44C72.614 123.067 72.4114 122.453 72.4114 121.6V116.432H71.2754V115.232H72.4114V113.024H73.8674V115.232H76.1554V116.432H73.8674ZM83.9611 116.432V121.6C83.9611 122.027 84.0518 122.331 84.2331 122.512C84.4145 122.683 84.7291 122.768 85.1771 122.768H86.2491V124H84.9371C84.1265 124 83.5185 123.813 83.1131 123.44C82.7078 123.067 82.5051 122.453 82.5051 121.6V116.432H81.3691V115.232H82.5051V113.024H83.9611V115.232H86.2491V116.432H83.9611ZM92.3653 115.072C93.0266 115.072 93.6239 115.216 94.1573 115.504C94.6906 115.781 95.1066 116.203 95.4053 116.768C95.7146 117.333 95.8693 118.021 95.8693 118.832V124H94.4293V119.04C94.4293 118.165 94.2106 117.499 93.7733 117.04C93.3359 116.571 92.7386 116.336 91.9813 116.336C91.2133 116.336 90.5999 116.576 90.1413 117.056C89.6933 117.536 89.4693 118.235 89.4693 119.152V124H88.0133V112.16H89.4693V116.48C89.7573 116.032 90.1519 115.685 90.6533 115.44C91.1653 115.195 91.7359 115.072 92.3653 115.072ZM106.248 119.28C106.248 119.557 106.232 119.851 106.2 120.16H99.1916C99.245 121.024 99.5383 121.701 100.072 122.192C100.616 122.672 101.272 122.912 102.04 122.912C102.669 122.912 103.192 122.768 103.608 122.48C104.034 122.181 104.333 121.787 104.504 121.296H106.072C105.837 122.139 105.368 122.827 104.664 123.36C103.96 123.883 103.085 124.144 102.04 124.144C101.208 124.144 100.461 123.957 99.7996 123.584C99.149 123.211 98.637 122.683 98.2636 122C97.8903 121.307 97.7036 120.507 97.7036 119.6C97.7036 118.693 97.885 117.899 98.2476 117.216C98.6103 116.533 99.117 116.011 99.7676 115.648C100.429 115.275 101.186 115.088 102.04 115.088C102.872 115.088 103.608 115.269 104.248 115.632C104.888 115.995 105.378 116.496 105.72 117.136C106.072 117.765 106.248 118.48 106.248 119.28ZM104.744 118.976C104.744 118.421 104.621 117.947 104.376 117.552C104.13 117.147 103.794 116.843 103.368 116.64C102.952 116.427 102.488 116.32 101.976 116.32C101.24 116.32 100.61 116.555 100.088 117.024C99.5756 117.493 99.2823 118.144 99.2076 118.976H104.744ZM116.003 116.432H114.163V124H112.707V116.432H111.571V115.232H112.707V114.608C112.707 113.627 112.958 112.912 113.459 112.464C113.971 112.005 114.787 111.776 115.907 111.776V112.992C115.267 112.992 114.814 113.12 114.547 113.376C114.291 113.621 114.163 114.032 114.163 114.608V115.232H116.003V116.432ZM119.157 116.656C119.413 116.155 119.775 115.765 120.245 115.488C120.725 115.211 121.306 115.072 121.989 115.072V116.576H121.605C119.973 116.576 119.157 117.461 119.157 119.232V124H117.701V115.232H119.157V116.656ZM127.494 124.144C126.672 124.144 125.926 123.957 125.254 123.584C124.592 123.211 124.07 122.683 123.686 122C123.312 121.307 123.126 120.507 123.126 119.6C123.126 118.704 123.318 117.915 123.702 117.232C124.096 116.539 124.63 116.011 125.302 115.648C125.974 115.275 126.726 115.088 127.558 115.088C128.39 115.088 129.142 115.275 129.814 115.648C130.486 116.011 131.014 116.533 131.398 117.216C131.792 117.899 131.99 118.693 131.99 119.6C131.99 120.507 131.787 121.307 131.382 122C130.987 122.683 130.448 123.211 129.766 123.584C129.083 123.957 128.326 124.144 127.494 124.144ZM127.494 122.864C128.016 122.864 128.507 122.741 128.966 122.496C129.424 122.251 129.792 121.883 130.07 121.392C130.358 120.901 130.502 120.304 130.502 119.6C130.502 118.896 130.363 118.299 130.086 117.808C129.808 117.317 129.446 116.955 128.998 116.72C128.55 116.475 128.064 116.352 127.542 116.352C127.008 116.352 126.518 116.475 126.07 116.72C125.632 116.955 125.28 117.317 125.014 117.808C124.747 118.299 124.614 118.896 124.614 119.6C124.614 120.315 124.742 120.917 124.998 121.408C125.264 121.899 125.616 122.267 126.054 122.512C126.491 122.747 126.971 122.864 127.494 122.864ZM137.52 115.088C138.277 115.088 138.939 115.253 139.504 115.584C140.08 115.915 140.507 116.331 140.784 116.832V115.232H142.256V124.192C142.256 124.992 142.085 125.701 141.744 126.32C141.403 126.949 140.912 127.44 140.272 127.792C139.643 128.144 138.907 128.32 138.064 128.32C136.912 128.32 135.952 128.048 135.184 127.504C134.416 126.96 133.963 126.219 133.824 125.28H135.264C135.424 125.813 135.755 126.24 136.256 126.56C136.757 126.891 137.36 127.056 138.064 127.056C138.864 127.056 139.515 126.805 140.016 126.304C140.528 125.803 140.784 125.099 140.784 124.192V122.352C140.496 122.864 140.069 123.291 139.504 123.632C138.939 123.973 138.277 124.144 137.52 124.144C136.741 124.144 136.032 123.952 135.392 123.568C134.763 123.184 134.267 122.645 133.904 121.952C133.541 121.259 133.36 120.469 133.36 119.584C133.36 118.688 133.541 117.904 133.904 117.232C134.267 116.549 134.763 116.021 135.392 115.648C136.032 115.275 136.741 115.088 137.52 115.088ZM140.784 119.6C140.784 118.939 140.651 118.363 140.384 117.872C140.117 117.381 139.755 117.008 139.296 116.752C138.848 116.485 138.352 116.352 137.808 116.352C137.264 116.352 136.768 116.48 136.32 116.736C135.872 116.992 135.515 117.365 135.248 117.856C134.981 118.347 134.848 118.923 134.848 119.584C134.848 120.256 134.981 120.843 135.248 121.344C135.515 121.835 135.872 122.213 136.32 122.48C136.768 122.736 137.264 122.864 137.808 122.864C138.352 122.864 138.848 122.736 139.296 122.48C139.755 122.213 140.117 121.835 140.384 121.344C140.651 120.843 140.784 120.261 140.784 119.6ZM148.438 119.6C148.438 118.693 148.619 117.904 148.982 117.232C149.345 116.549 149.846 116.021 150.486 115.648C151.137 115.275 151.878 115.088 152.71 115.088C153.787 115.088 154.673 115.349 155.366 115.872C156.07 116.395 156.534 117.12 156.758 118.048H155.19C155.041 117.515 154.747 117.093 154.31 116.784C153.883 116.475 153.35 116.32 152.71 116.32C151.878 116.32 151.206 116.608 150.694 117.184C150.182 117.749 149.926 118.555 149.926 119.6C149.926 120.656 150.182 121.472 150.694 122.048C151.206 122.624 151.878 122.912 152.71 122.912C153.35 122.912 153.883 122.763 154.31 122.464C154.737 122.165 155.03 121.739 155.19 121.184H156.758C156.523 122.08 156.054 122.8 155.35 123.344C154.646 123.877 153.766 124.144 152.71 124.144C151.878 124.144 151.137 123.957 150.486 123.584C149.846 123.211 149.345 122.683 148.982 122C148.619 121.317 148.438 120.517 148.438 119.6ZM162.525 124.144C161.703 124.144 160.957 123.957 160.285 123.584C159.623 123.211 159.101 122.683 158.717 122C158.343 121.307 158.157 120.507 158.157 119.6C158.157 118.704 158.349 117.915 158.733 117.232C159.127 116.539 159.661 116.011 160.333 115.648C161.005 115.275 161.757 115.088 162.589 115.088C163.421 115.088 164.173 115.275 164.845 115.648C165.517 116.011 166.045 116.533 166.429 117.216C166.823 117.899 167.021 118.693 167.021 119.6C167.021 120.507 166.818 121.307 166.413 122C166.018 122.683 165.479 123.211 164.797 123.584C164.114 123.957 163.357 124.144 162.525 124.144ZM162.525 122.864C163.047 122.864 163.538 122.741 163.997 122.496C164.455 122.251 164.823 121.883 165.101 121.392C165.389 120.901 165.533 120.304 165.533 119.6C165.533 118.896 165.394 118.299 165.117 117.808C164.839 117.317 164.477 116.955 164.029 116.72C163.581 116.475 163.095 116.352 162.573 116.352C162.039 116.352 161.549 116.475 161.101 116.72C160.663 116.955 160.311 117.317 160.045 117.808C159.778 118.299 159.645 118.896 159.645 119.6C159.645 120.315 159.773 120.917 160.029 121.408C160.295 121.899 160.647 122.267 161.085 122.512C161.522 122.747 162.002 122.864 162.525 122.864ZM172.759 124.144C171.938 124.144 171.191 123.957 170.519 123.584C169.858 123.211 169.335 122.683 168.951 122C168.578 121.307 168.391 120.507 168.391 119.6C168.391 118.704 168.583 117.915 168.967 117.232C169.362 116.539 169.895 116.011 170.567 115.648C171.239 115.275 171.991 115.088 172.823 115.088C173.655 115.088 174.407 115.275 175.079 115.648C175.751 116.011 176.279 116.533 176.663 117.216C177.058 117.899 177.255 118.693 177.255 119.6C177.255 120.507 177.052 121.307 176.647 122C176.252 122.683 175.714 123.211 175.031 123.584C174.348 123.957 173.591 124.144 172.759 124.144ZM172.759 122.864C173.282 122.864 173.772 122.741 174.231 122.496C174.69 122.251 175.058 121.883 175.335 121.392C175.623 120.901 175.767 120.304 175.767 119.6C175.767 118.896 175.628 118.299 175.351 117.808C175.074 117.317 174.711 116.955 174.263 116.72C173.815 116.475 173.33 116.352 172.807 116.352C172.274 116.352 171.783 116.475 171.335 116.72C170.898 116.955 170.546 117.317 170.279 117.808C170.012 118.299 169.879 118.896 169.879 119.6C169.879 120.315 170.007 120.917 170.263 121.408C170.53 121.899 170.882 122.267 171.319 122.512C171.756 122.747 172.236 122.864 172.759 122.864ZM184.066 124L180.626 120.128V124H179.17V112.16H180.626V119.12L184.002 115.232H186.034L181.906 119.6L186.05 124H184.066ZM193.446 116.432V121.6C193.446 122.027 193.536 122.331 193.718 122.512C193.899 122.683 194.214 122.768 194.661 122.768H195.734V124H194.422C193.611 124 193.003 123.813 192.598 123.44C192.192 123.067 191.99 122.453 191.99 121.6V116.432H190.854V115.232H191.99V113.024H193.446V115.232H195.734V116.432H193.446ZM201.85 115.072C202.511 115.072 203.108 115.216 203.642 115.504C204.175 115.781 204.591 116.203 204.89 116.768C205.199 117.333 205.354 118.021 205.354 118.832V124H203.914V119.04C203.914 118.165 203.695 117.499 203.258 117.04C202.82 116.571 202.223 116.336 201.466 116.336C200.698 116.336 200.084 116.576 199.626 117.056C199.178 117.536 198.954 118.235 198.954 119.152V124H197.498V112.16H198.954V116.48C199.242 116.032 199.636 115.685 200.138 115.44C200.65 115.195 201.22 115.072 201.85 115.072ZM215.732 119.28C215.732 119.557 215.716 119.851 215.684 120.16H208.676C208.729 121.024 209.023 121.701 209.556 122.192C210.1 122.672 210.756 122.912 211.524 122.912C212.153 122.912 212.676 122.768 213.092 122.48C213.519 122.181 213.817 121.787 213.988 121.296H215.556C215.321 122.139 214.852 122.827 214.148 123.36C213.444 123.883 212.569 124.144 211.524 124.144C210.692 124.144 209.945 123.957 209.284 123.584C208.633 123.211 208.121 122.683 207.748 122C207.375 121.307 207.188 120.507 207.188 119.6C207.188 118.693 207.369 117.899 207.732 117.216C208.095 116.533 208.601 116.011 209.252 115.648C209.913 115.275 210.671 115.088 211.524 115.088C212.356 115.088 213.092 115.269 213.732 115.632C214.372 115.995 214.863 116.496 215.204 117.136C215.556 117.765 215.732 118.48 215.732 119.28ZM214.228 118.976C214.228 118.421 214.105 117.947 213.86 117.552C213.615 117.147 213.279 116.843 212.852 116.64C212.436 116.427 211.972 116.32 211.46 116.32C210.724 116.32 210.095 116.555 209.572 117.024C209.06 117.493 208.767 118.144 208.692 118.976H214.228ZM61.336 148.144C60.664 148.144 60.0613 148.032 59.528 147.808C58.9947 147.573 58.5733 147.253 58.264 146.848C57.9547 146.432 57.784 145.957 57.752 145.424H59.256C59.2987 145.861 59.5013 146.219 59.864 146.496C60.2373 146.773 60.7227 146.912 61.32 146.912C61.8747 146.912 62.312 146.789 62.632 146.544C62.952 146.299 63.112 145.989 63.112 145.616C63.112 145.232 62.9413 144.949 62.6 144.768C62.2587 144.576 61.7307 144.389 61.016 144.208C60.3653 144.037 59.832 143.867 59.416 143.696C59.0107 143.515 58.6587 143.253 58.36 142.912C58.072 142.56 57.928 142.101 57.928 141.536C57.928 141.088 58.0613 140.677 58.328 140.304C58.5947 139.931 58.9733 139.637 59.464 139.424C59.9547 139.2 60.5147 139.088 61.144 139.088C62.1147 139.088 62.8987 139.333 63.496 139.824C64.0933 140.315 64.4133 140.987 64.456 141.84H63C62.968 141.381 62.7813 141.013 62.44 140.736C62.1093 140.459 61.6613 140.32 61.096 140.32C60.5733 140.32 60.1573 140.432 59.848 140.656C59.5387 140.88 59.384 141.173 59.384 141.536C59.384 141.824 59.4747 142.064 59.656 142.256C59.848 142.437 60.0827 142.587 60.36 142.704C60.648 142.811 61.0427 142.933 61.544 143.072C62.1733 143.243 62.6853 143.413 63.08 143.584C63.4747 143.744 63.8107 143.989 64.088 144.32C64.376 144.651 64.5253 145.083 64.536 145.616C64.536 146.096 64.4027 146.528 64.136 146.912C63.8693 147.296 63.4907 147.6 63 147.824C62.52 148.037 61.9653 148.144 61.336 148.144ZM70.4154 148.144C69.594 148.144 68.8474 147.957 68.1754 147.584C67.514 147.211 66.9914 146.683 66.6074 146C66.234 145.307 66.0474 144.507 66.0474 143.6C66.0474 142.704 66.2394 141.915 66.6234 141.232C67.018 140.539 67.5514 140.011 68.2234 139.648C68.8954 139.275 69.6474 139.088 70.4794 139.088C71.3114 139.088 72.0634 139.275 72.7354 139.648C73.4074 140.011 73.9354 140.533 74.3194 141.216C74.714 141.899 74.9114 142.693 74.9114 143.6C74.9114 144.507 74.7087 145.307 74.3034 146C73.9087 146.683 73.37 147.211 72.6874 147.584C72.0047 147.957 71.2474 148.144 70.4154 148.144ZM70.4154 146.864C70.938 146.864 71.4287 146.741 71.8874 146.496C72.346 146.251 72.714 145.883 72.9914 145.392C73.2794 144.901 73.4234 144.304 73.4234 143.6C73.4234 142.896 73.2847 142.299 73.0074 141.808C72.73 141.317 72.3674 140.955 71.9194 140.72C71.4714 140.475 70.986 140.352 70.4634 140.352C69.93 140.352 69.4394 140.475 68.9914 140.72C68.554 140.955 68.202 141.317 67.9354 141.808C67.6687 142.299 67.5354 142.896 67.5354 143.6C67.5354 144.315 67.6634 144.917 67.9194 145.408C68.186 145.899 68.538 146.267 68.9754 146.512C69.4127 146.747 69.8927 146.864 70.4154 146.864ZM84.6018 139.232V148H83.1458V146.704C82.8684 147.152 82.4791 147.504 81.9778 147.76C81.4871 148.005 80.9431 148.128 80.3458 148.128C79.6631 148.128 79.0498 147.989 78.5058 147.712C77.9618 147.424 77.5298 146.997 77.2098 146.432C76.9004 145.867 76.7458 145.179 76.7458 144.368V139.232H78.1858V144.176C78.1858 145.04 78.4044 145.707 78.8418 146.176C79.2791 146.635 79.8764 146.864 80.6338 146.864C81.4124 146.864 82.0258 146.624 82.4738 146.144C82.9218 145.664 83.1458 144.965 83.1458 144.048V139.232H84.6018ZM88.5161 140.848C88.8041 140.347 89.2308 139.931 89.7961 139.6C90.3721 139.259 91.0388 139.088 91.7961 139.088C92.5748 139.088 93.2788 139.275 93.9081 139.648C94.5481 140.021 95.0495 140.549 95.4121 141.232C95.7748 141.904 95.9561 142.688 95.9561 143.584C95.9561 144.469 95.7748 145.259 95.4121 145.952C95.0495 146.645 94.5481 147.184 93.9081 147.568C93.2788 147.952 92.5748 148.144 91.7961 148.144C91.0495 148.144 90.3881 147.979 89.8121 147.648C89.2468 147.307 88.8148 146.885 88.5161 146.384V152.16H87.0601V139.232H88.5161V140.848ZM94.4681 143.584C94.4681 142.923 94.3348 142.347 94.0681 141.856C93.8015 141.365 93.4388 140.992 92.9801 140.736C92.5321 140.48 92.0361 140.352 91.4921 140.352C90.9588 140.352 90.4628 140.485 90.0041 140.752C89.5561 141.008 89.1935 141.387 88.9161 141.888C88.6495 142.379 88.5161 142.949 88.5161 143.6C88.5161 144.261 88.6495 144.843 88.9161 145.344C89.1935 145.835 89.5561 146.213 90.0041 146.48C90.4628 146.736 90.9588 146.864 91.4921 146.864C92.0361 146.864 92.5321 146.736 92.9801 146.48C93.4388 146.213 93.8015 145.835 94.0681 145.344C94.3348 144.843 94.4681 144.256 94.4681 143.584ZM39.8455 163.344C39.9201 162.363 40.2988 161.595 40.9815 161.04C41.6641 160.485 42.5495 160.208 43.6375 160.208C44.3628 160.208 44.9868 160.341 45.5095 160.608C46.0428 160.864 46.4428 161.216 46.7095 161.664C46.9868 162.112 47.1255 162.619 47.1255 163.184C47.1255 163.845 46.9335 164.416 46.5495 164.896C46.1761 165.376 45.6855 165.685 45.0775 165.824V165.904C45.7708 166.075 46.3201 166.411 46.7255 166.912C47.1308 167.413 47.3335 168.069 47.3335 168.88C47.3335 169.488 47.1948 170.037 46.9175 170.528C46.6401 171.008 46.2241 171.387 45.6695 171.664C45.1148 171.941 44.4481 172.08 43.6695 172.08C42.5388 172.08 41.6108 171.787 40.8855 171.2C40.1601 170.603 39.7548 169.76 39.6695 168.672H41.0775C41.1521 169.312 41.4135 169.835 41.8615 170.24C42.3095 170.645 42.9068 170.848 43.6535 170.848C44.4001 170.848 44.9655 170.656 45.3495 170.272C45.7441 169.877 45.9415 169.371 45.9415 168.752C45.9415 167.952 45.6748 167.376 45.1415 167.024C44.6081 166.672 43.8028 166.496 42.7255 166.496H42.3575V165.28H42.7415C43.7228 165.269 44.4641 165.109 44.9655 164.8C45.4668 164.48 45.7175 163.989 45.7175 163.328C45.7175 162.763 45.5308 162.309 45.1575 161.968C44.7948 161.627 44.2721 161.456 43.5895 161.456C42.9281 161.456 42.3948 161.627 41.9895 161.968C41.5841 162.309 41.3441 162.768 41.2695 163.344H39.8455ZM50.0033 172.096C49.726 172.096 49.4913 172 49.2993 171.808C49.1073 171.616 49.0113 171.381 49.0113 171.104C49.0113 170.827 49.1073 170.592 49.2993 170.4C49.4913 170.208 49.726 170.112 50.0033 170.112C50.27 170.112 50.494 170.208 50.6753 170.4C50.8673 170.592 50.9633 170.827 50.9633 171.104C50.9633 171.381 50.8673 171.616 50.6753 171.808C50.494 172 50.27 172.096 50.0033 172.096ZM66.232 167.28C66.232 167.557 66.216 167.851 66.184 168.16H59.176C59.2293 169.024 59.5227 169.701 60.056 170.192C60.6 170.672 61.256 170.912 62.024 170.912C62.6533 170.912 63.176 170.768 63.592 170.48C64.0187 170.181 64.3173 169.787 64.488 169.296H66.056C65.8213 170.139 65.352 170.827 64.648 171.36C63.944 171.883 63.0693 172.144 62.024 172.144C61.192 172.144 60.4453 171.957 59.784 171.584C59.1333 171.211 58.6213 170.683 58.248 170C57.8747 169.307 57.688 168.507 57.688 167.6C57.688 166.693 57.8693 165.899 58.232 165.216C58.5947 164.533 59.1013 164.011 59.752 163.648C60.4133 163.275 61.1707 163.088 62.024 163.088C62.856 163.088 63.592 163.269 64.232 163.632C64.872 163.995 65.3627 164.496 65.704 165.136C66.056 165.765 66.232 166.48 66.232 167.28ZM64.728 166.976C64.728 166.421 64.6053 165.947 64.36 165.552C64.1147 165.147 63.7787 164.843 63.352 164.64C62.936 164.427 62.472 164.32 61.96 164.32C61.224 164.32 60.5947 164.555 60.072 165.024C59.56 165.493 59.2667 166.144 59.192 166.976H64.728ZM67.6099 167.584C67.6099 166.688 67.7912 165.904 68.1539 165.232C68.5165 164.549 69.0125 164.021 69.6419 163.648C70.2819 163.275 70.9912 163.088 71.7699 163.088C72.5379 163.088 73.2045 163.253 73.7699 163.584C74.3352 163.915 74.7565 164.331 75.0339 164.832V163.232H76.5059V172H75.0339V170.368C74.7459 170.88 74.3139 171.307 73.7379 171.648C73.1725 171.979 72.5112 172.144 71.7539 172.144C70.9752 172.144 70.2712 171.952 69.6419 171.568C69.0125 171.184 68.5165 170.645 68.1539 169.952C67.7912 169.259 67.6099 168.469 67.6099 167.584ZM75.0339 167.6C75.0339 166.939 74.9005 166.363 74.6339 165.872C74.3672 165.381 74.0045 165.008 73.5459 164.752C73.0979 164.485 72.6019 164.352 72.0579 164.352C71.5139 164.352 71.0179 164.48 70.5699 164.736C70.1219 164.992 69.7645 165.365 69.4979 165.856C69.2312 166.347 69.0979 166.923 69.0979 167.584C69.0979 168.256 69.2312 168.843 69.4979 169.344C69.7645 169.835 70.1219 170.213 70.5699 170.48C71.0179 170.736 71.5139 170.864 72.0579 170.864C72.6019 170.864 73.0979 170.736 73.5459 170.48C74.0045 170.213 74.3672 169.835 74.6339 169.344C74.9005 168.843 75.0339 168.261 75.0339 167.6ZM80.7424 164.432V169.6C80.7424 170.027 80.833 170.331 81.0144 170.512C81.1957 170.683 81.5104 170.768 81.9584 170.768H83.0304V172H81.7184C80.9077 172 80.2997 171.813 79.8944 171.44C79.489 171.067 79.2864 170.453 79.2864 169.6V164.432H78.1504V163.232H79.2864V161.024H80.7424V163.232H83.0304V164.432H80.7424ZM89.8121 161.808C89.5348 161.808 89.3001 161.712 89.1081 161.52C88.9161 161.328 88.8201 161.093 88.8201 160.816C88.8201 160.539 88.9161 160.304 89.1081 160.112C89.3001 159.92 89.5348 159.824 89.8121 159.824C90.0788 159.824 90.3028 159.92 90.4841 160.112C90.6761 160.304 90.7721 160.539 90.7721 160.816C90.7721 161.093 90.6761 161.328 90.4841 161.52C90.3028 161.712 90.0788 161.808 89.8121 161.808ZM90.5161 163.232V172H89.0601V163.232H90.5161ZM94.7736 164.432V169.6C94.7736 170.027 94.8643 170.331 95.0456 170.512C95.227 170.683 95.5416 170.768 95.9896 170.768H97.0616V172H95.7496C94.939 172 94.331 171.813 93.9256 171.44C93.5203 171.067 93.3176 170.453 93.3176 169.6V164.432H92.1816V163.232H93.3176V161.024H94.7736V163.232H97.0616V164.432H94.7736ZM99.2898 172.096C99.0124 172.096 98.7778 172 98.5858 171.808C98.3938 171.616 98.2978 171.381 98.2978 171.104C98.2978 170.827 98.3938 170.592 98.5858 170.4C98.7778 170.208 99.0124 170.112 99.2898 170.112C99.5564 170.112 99.7804 170.208 99.9618 170.4C100.154 170.592 100.25 170.827 100.25 171.104C100.25 171.381 100.154 171.616 99.9618 171.808C99.7804 172 99.5564 172.096 99.2898 172.096ZM38.8848 193.424V192.32L44.5008 184.544H46.2448V192.16H47.8448V193.424H46.2448V196H44.8048V193.424H38.8848ZM44.8688 186.064L40.5648 192.16H44.8688V186.064ZM50.0033 196.096C49.726 196.096 49.4913 196 49.2993 195.808C49.1073 195.616 49.0113 195.381 49.0113 195.104C49.0113 194.827 49.1073 194.592 49.2993 194.4C49.4913 194.208 49.726 194.112 50.0033 194.112C50.27 194.112 50.494 194.208 50.6753 194.4C50.8673 194.592 50.9633 194.827 50.9633 195.104C50.9633 195.381 50.8673 195.616 50.6753 195.808C50.494 196 50.27 196.096 50.0033 196.096ZM59.688 184.16V196H58.232V184.16H59.688ZM70.1695 191.28C70.1695 191.557 70.1535 191.851 70.1215 192.16H63.1135C63.1668 193.024 63.4602 193.701 63.9935 194.192C64.5375 194.672 65.1935 194.912 65.9615 194.912C66.5908 194.912 67.1135 194.768 67.5295 194.48C67.9562 194.181 68.2548 193.787 68.4255 193.296H69.9935C69.7588 194.139 69.2895 194.827 68.5855 195.36C67.8815 195.883 67.0068 196.144 65.9615 196.144C65.1295 196.144 64.3828 195.957 63.7215 195.584C63.0708 195.211 62.5588 194.683 62.1855 194C61.8122 193.307 61.6255 192.507 61.6255 191.6C61.6255 190.693 61.8068 189.899 62.1695 189.216C62.5322 188.533 63.0388 188.011 63.6895 187.648C64.3508 187.275 65.1082 187.088 65.9615 187.088C66.7935 187.088 67.5295 187.269 68.1695 187.632C68.8095 187.995 69.3002 188.496 69.6415 189.136C69.9935 189.765 70.1695 190.48 70.1695 191.28ZM68.6655 190.976C68.6655 190.421 68.5428 189.947 68.2975 189.552C68.0522 189.147 67.7162 188.843 67.2895 188.64C66.8735 188.427 66.4095 188.32 65.8975 188.32C65.1615 188.32 64.5322 188.555 64.0095 189.024C63.4975 189.493 63.2042 190.144 63.1295 190.976H68.6655ZM73.8674 188.432V193.6C73.8674 194.027 73.958 194.331 74.1394 194.512C74.3207 194.683 74.6354 194.768 75.0834 194.768H76.1554V196H74.8434C74.0327 196 73.4247 195.813 73.0194 195.44C72.614 195.067 72.4114 194.453 72.4114 193.6V188.432H71.2754V187.232H72.4114V185.024H73.8674V187.232H76.1554V188.432H73.8674ZM83.9611 188.432V193.6C83.9611 194.027 84.0518 194.331 84.2331 194.512C84.4145 194.683 84.7291 194.768 85.1771 194.768H86.2491V196H84.9371C84.1265 196 83.5185 195.813 83.1131 195.44C82.7078 195.067 82.5051 194.453 82.5051 193.6V188.432H81.3691V187.232H82.5051V185.024H83.9611V187.232H86.2491V188.432H83.9611ZM92.3653 187.072C93.0266 187.072 93.6239 187.216 94.1573 187.504C94.6906 187.781 95.1066 188.203 95.4053 188.768C95.7146 189.333 95.8693 190.021 95.8693 190.832V196H94.4293V191.04C94.4293 190.165 94.2106 189.499 93.7733 189.04C93.3359 188.571 92.7386 188.336 91.9813 188.336C91.2133 188.336 90.5999 188.576 90.1413 189.056C89.6933 189.536 89.4693 190.235 89.4693 191.152V196H88.0133V184.16H89.4693V188.48C89.7573 188.032 90.1519 187.685 90.6533 187.44C91.1653 187.195 91.7359 187.072 92.3653 187.072ZM106.248 191.28C106.248 191.557 106.232 191.851 106.2 192.16H99.1916C99.245 193.024 99.5383 193.701 100.072 194.192C100.616 194.672 101.272 194.912 102.04 194.912C102.669 194.912 103.192 194.768 103.608 194.48C104.034 194.181 104.333 193.787 104.504 193.296H106.072C105.837 194.139 105.368 194.827 104.664 195.36C103.96 195.883 103.085 196.144 102.04 196.144C101.208 196.144 100.461 195.957 99.7996 195.584C99.149 195.211 98.637 194.683 98.2636 194C97.8903 193.307 97.7036 192.507 97.7036 191.6C97.7036 190.693 97.885 189.899 98.2476 189.216C98.6103 188.533 99.117 188.011 99.7676 187.648C100.429 187.275 101.186 187.088 102.04 187.088C102.872 187.088 103.608 187.269 104.248 187.632C104.888 187.995 105.378 188.496 105.72 189.136C106.072 189.765 106.248 190.48 106.248 191.28ZM104.744 190.976C104.744 190.421 104.621 189.947 104.376 189.552C104.13 189.147 103.794 188.843 103.368 188.64C102.952 188.427 102.488 188.32 101.976 188.32C101.24 188.32 100.61 188.555 100.088 189.024C99.5756 189.493 99.2823 190.144 99.2076 190.976H104.744ZM116.003 188.432H114.163V196H112.707V188.432H111.571V187.232H112.707V186.608C112.707 185.627 112.958 184.912 113.459 184.464C113.971 184.005 114.787 183.776 115.907 183.776V184.992C115.267 184.992 114.814 185.12 114.547 185.376C114.291 185.621 114.163 186.032 114.163 186.608V187.232H116.003V188.432ZM119.157 188.656C119.413 188.155 119.775 187.765 120.245 187.488C120.725 187.211 121.306 187.072 121.989 187.072V188.576H121.605C119.973 188.576 119.157 189.461 119.157 191.232V196H117.701V187.232H119.157V188.656ZM127.494 196.144C126.672 196.144 125.926 195.957 125.254 195.584C124.592 195.211 124.07 194.683 123.686 194C123.312 193.307 123.126 192.507 123.126 191.6C123.126 190.704 123.318 189.915 123.702 189.232C124.096 188.539 124.63 188.011 125.302 187.648C125.974 187.275 126.726 187.088 127.558 187.088C128.39 187.088 129.142 187.275 129.814 187.648C130.486 188.011 131.014 188.533 131.398 189.216C131.792 189.899 131.99 190.693 131.99 191.6C131.99 192.507 131.787 193.307 131.382 194C130.987 194.683 130.448 195.211 129.766 195.584C129.083 195.957 128.326 196.144 127.494 196.144ZM127.494 194.864C128.016 194.864 128.507 194.741 128.966 194.496C129.424 194.251 129.792 193.883 130.07 193.392C130.358 192.901 130.502 192.304 130.502 191.6C130.502 190.896 130.363 190.299 130.086 189.808C129.808 189.317 129.446 188.955 128.998 188.72C128.55 188.475 128.064 188.352 127.542 188.352C127.008 188.352 126.518 188.475 126.07 188.72C125.632 188.955 125.28 189.317 125.014 189.808C124.747 190.299 124.614 190.896 124.614 191.6C124.614 192.315 124.742 192.917 124.998 193.408C125.264 193.899 125.616 194.267 126.054 194.512C126.491 194.747 126.971 194.864 127.494 194.864ZM137.52 187.088C138.277 187.088 138.939 187.253 139.504 187.584C140.08 187.915 140.507 188.331 140.784 188.832V187.232H142.256V196.192C142.256 196.992 142.085 197.701 141.744 198.32C141.403 198.949 140.912 199.44 140.272 199.792C139.643 200.144 138.907 200.32 138.064 200.32C136.912 200.32 135.952 200.048 135.184 199.504C134.416 198.96 133.963 198.219 133.824 197.28H135.264C135.424 197.813 135.755 198.24 136.256 198.56C136.757 198.891 137.36 199.056 138.064 199.056C138.864 199.056 139.515 198.805 140.016 198.304C140.528 197.803 140.784 197.099 140.784 196.192V194.352C140.496 194.864 140.069 195.291 139.504 195.632C138.939 195.973 138.277 196.144 137.52 196.144C136.741 196.144 136.032 195.952 135.392 195.568C134.763 195.184 134.267 194.645 133.904 193.952C133.541 193.259 133.36 192.469 133.36 191.584C133.36 190.688 133.541 189.904 133.904 189.232C134.267 188.549 134.763 188.021 135.392 187.648C136.032 187.275 136.741 187.088 137.52 187.088ZM140.784 191.6C140.784 190.939 140.651 190.363 140.384 189.872C140.117 189.381 139.755 189.008 139.296 188.752C138.848 188.485 138.352 188.352 137.808 188.352C137.264 188.352 136.768 188.48 136.32 188.736C135.872 188.992 135.515 189.365 135.248 189.856C134.981 190.347 134.848 190.923 134.848 191.584C134.848 192.256 134.981 192.843 135.248 193.344C135.515 193.835 135.872 194.213 136.32 194.48C136.768 194.736 137.264 194.864 137.808 194.864C138.352 194.864 138.848 194.736 139.296 194.48C139.755 194.213 140.117 193.835 140.384 193.344C140.651 192.843 140.784 192.261 140.784 191.6ZM148.438 191.6C148.438 190.693 148.619 189.904 148.982 189.232C149.345 188.549 149.846 188.021 150.486 187.648C151.137 187.275 151.878 187.088 152.71 187.088C153.787 187.088 154.673 187.349 155.366 187.872C156.07 188.395 156.534 189.12 156.758 190.048H155.19C155.041 189.515 154.747 189.093 154.31 188.784C153.883 188.475 153.35 188.32 152.71 188.32C151.878 188.32 151.206 188.608 150.694 189.184C150.182 189.749 149.926 190.555 149.926 191.6C149.926 192.656 150.182 193.472 150.694 194.048C151.206 194.624 151.878 194.912 152.71 194.912C153.35 194.912 153.883 194.763 154.31 194.464C154.737 194.165 155.03 193.739 155.19 193.184H156.758C156.523 194.08 156.054 194.8 155.35 195.344C154.646 195.877 153.766 196.144 152.71 196.144C151.878 196.144 151.137 195.957 150.486 195.584C149.846 195.211 149.345 194.683 148.982 194C148.619 193.317 148.438 192.517 148.438 191.6ZM162.525 196.144C161.703 196.144 160.957 195.957 160.285 195.584C159.623 195.211 159.101 194.683 158.717 194C158.343 193.307 158.157 192.507 158.157 191.6C158.157 190.704 158.349 189.915 158.733 189.232C159.127 188.539 159.661 188.011 160.333 187.648C161.005 187.275 161.757 187.088 162.589 187.088C163.421 187.088 164.173 187.275 164.845 187.648C165.517 188.011 166.045 188.533 166.429 189.216C166.823 189.899 167.021 190.693 167.021 191.6C167.021 192.507 166.818 193.307 166.413 194C166.018 194.683 165.479 195.211 164.797 195.584C164.114 195.957 163.357 196.144 162.525 196.144ZM162.525 194.864C163.047 194.864 163.538 194.741 163.997 194.496C164.455 194.251 164.823 193.883 165.101 193.392C165.389 192.901 165.533 192.304 165.533 191.6C165.533 190.896 165.394 190.299 165.117 189.808C164.839 189.317 164.477 188.955 164.029 188.72C163.581 188.475 163.095 188.352 162.573 188.352C162.039 188.352 161.549 188.475 161.101 188.72C160.663 188.955 160.311 189.317 160.045 189.808C159.778 190.299 159.645 190.896 159.645 191.6C159.645 192.315 159.773 192.917 160.029 193.408C160.295 193.899 160.647 194.267 161.085 194.512C161.522 194.747 162.002 194.864 162.525 194.864ZM172.759 196.144C171.938 196.144 171.191 195.957 170.519 195.584C169.858 195.211 169.335 194.683 168.951 194C168.578 193.307 168.391 192.507 168.391 191.6C168.391 190.704 168.583 189.915 168.967 189.232C169.362 188.539 169.895 188.011 170.567 187.648C171.239 187.275 171.991 187.088 172.823 187.088C173.655 187.088 174.407 187.275 175.079 187.648C175.751 188.011 176.279 188.533 176.663 189.216C177.058 189.899 177.255 190.693 177.255 191.6C177.255 192.507 177.052 193.307 176.647 194C176.252 194.683 175.714 195.211 175.031 195.584C174.348 195.957 173.591 196.144 172.759 196.144ZM172.759 194.864C173.282 194.864 173.772 194.741 174.231 194.496C174.69 194.251 175.058 193.883 175.335 193.392C175.623 192.901 175.767 192.304 175.767 191.6C175.767 190.896 175.628 190.299 175.351 189.808C175.074 189.317 174.711 188.955 174.263 188.72C173.815 188.475 173.33 188.352 172.807 188.352C172.274 188.352 171.783 188.475 171.335 188.72C170.898 188.955 170.546 189.317 170.279 189.808C170.012 190.299 169.879 190.896 169.879 191.6C169.879 192.315 170.007 192.917 170.263 193.408C170.53 193.899 170.882 194.267 171.319 194.512C171.756 194.747 172.236 194.864 172.759 194.864ZM184.066 196L180.626 192.128V196H179.17V184.16H180.626V191.12L184.002 187.232H186.034L181.906 191.6L186.05 196H184.066ZM202.214 187.072C202.896 187.072 203.504 187.216 204.038 187.504C204.571 187.781 204.992 188.203 205.302 188.768C205.611 189.333 205.766 190.021 205.766 190.832V196H204.326V191.04C204.326 190.165 204.107 189.499 203.67 189.04C203.243 188.571 202.662 188.336 201.926 188.336C201.168 188.336 200.566 188.581 200.118 189.072C199.67 189.552 199.446 190.251 199.446 191.168V196H198.006V191.04C198.006 190.165 197.787 189.499 197.35 189.04C196.923 188.571 196.342 188.336 195.606 188.336C194.848 188.336 194.246 188.581 193.798 189.072C193.35 189.552 193.126 190.251 193.126 191.168V196H191.67V187.232H193.126V188.496C193.414 188.037 193.798 187.685 194.278 187.44C194.768 187.195 195.307 187.072 195.894 187.072C196.63 187.072 197.28 187.237 197.846 187.568C198.411 187.899 198.832 188.384 199.11 189.024C199.355 188.405 199.76 187.925 200.326 187.584C200.891 187.243 201.52 187.072 202.214 187.072ZM211.978 196.144C211.157 196.144 210.41 195.957 209.738 195.584C209.077 195.211 208.554 194.683 208.17 194C207.797 193.307 207.61 192.507 207.61 191.6C207.61 190.704 207.802 189.915 208.186 189.232C208.581 188.539 209.114 188.011 209.786 187.648C210.458 187.275 211.21 187.088 212.042 187.088C212.874 187.088 213.626 187.275 214.298 187.648C214.97 188.011 215.498 188.533 215.882 189.216C216.277 189.899 216.474 190.693 216.474 191.6C216.474 192.507 216.271 193.307 215.866 194C215.471 194.683 214.933 195.211 214.25 195.584C213.567 195.957 212.81 196.144 211.978 196.144ZM211.978 194.864C212.501 194.864 212.991 194.741 213.45 194.496C213.909 194.251 214.277 193.883 214.554 193.392C214.842 192.901 214.986 192.304 214.986 191.6C214.986 190.896 214.847 190.299 214.57 189.808C214.293 189.317 213.93 188.955 213.482 188.72C213.034 188.475 212.549 188.352 212.026 188.352C211.493 188.352 211.002 188.475 210.554 188.72C210.117 188.955 209.765 189.317 209.498 189.808C209.231 190.299 209.098 190.896 209.098 191.6C209.098 192.315 209.226 192.917 209.482 193.408C209.749 193.899 210.101 194.267 210.538 194.512C210.975 194.747 211.455 194.864 211.978 194.864ZM219.844 188.656C220.1 188.155 220.463 187.765 220.932 187.488C221.412 187.211 221.994 187.072 222.676 187.072V188.576H222.292C220.66 188.576 219.844 189.461 219.844 191.232V196H218.388V187.232H219.844V188.656ZM232.357 191.28C232.357 191.557 232.341 191.851 232.309 192.16H225.301C225.354 193.024 225.648 193.701 226.181 194.192C226.725 194.672 227.381 194.912 228.149 194.912C228.778 194.912 229.301 194.768 229.717 194.48C230.144 194.181 230.442 193.787 230.613 193.296H232.181C231.946 194.139 231.477 194.827 230.773 195.36C230.069 195.883 229.194 196.144 228.149 196.144C227.317 196.144 226.57 195.957 225.909 195.584C225.258 195.211 224.746 194.683 224.373 194C224 193.307 223.813 192.507 223.813 191.6C223.813 190.693 223.994 189.899 224.357 189.216C224.72 188.533 225.226 188.011 225.877 187.648C226.538 187.275 227.296 187.088 228.149 187.088C228.981 187.088 229.717 187.269 230.357 187.632C230.997 187.995 231.488 188.496 231.829 189.136C232.181 189.765 232.357 190.48 232.357 191.28ZM230.853 190.976C230.853 190.421 230.73 189.947 230.485 189.552C230.24 189.147 229.904 188.843 229.477 188.64C229.061 188.427 228.597 188.32 228.085 188.32C227.349 188.32 226.72 188.555 226.197 189.024C225.685 189.493 225.392 190.144 225.317 190.976H230.853ZM61.336 220.144C60.664 220.144 60.0613 220.032 59.528 219.808C58.9947 219.573 58.5733 219.253 58.264 218.848C57.9547 218.432 57.784 217.957 57.752 217.424H59.256C59.2987 217.861 59.5013 218.219 59.864 218.496C60.2373 218.773 60.7227 218.912 61.32 218.912C61.8747 218.912 62.312 218.789 62.632 218.544C62.952 218.299 63.112 217.989 63.112 217.616C63.112 217.232 62.9413 216.949 62.6 216.768C62.2587 216.576 61.7307 216.389 61.016 216.208C60.3653 216.037 59.832 215.867 59.416 215.696C59.0107 215.515 58.6587 215.253 58.36 214.912C58.072 214.56 57.928 214.101 57.928 213.536C57.928 213.088 58.0613 212.677 58.328 212.304C58.5947 211.931 58.9733 211.637 59.464 211.424C59.9547 211.2 60.5147 211.088 61.144 211.088C62.1147 211.088 62.8987 211.333 63.496 211.824C64.0933 212.315 64.4133 212.987 64.456 213.84H63C62.968 213.381 62.7813 213.013 62.44 212.736C62.1093 212.459 61.6613 212.32 61.096 212.32C60.5733 212.32 60.1573 212.432 59.848 212.656C59.5387 212.88 59.384 213.173 59.384 213.536C59.384 213.824 59.4747 214.064 59.656 214.256C59.848 214.437 60.0827 214.587 60.36 214.704C60.648 214.811 61.0427 214.933 61.544 215.072C62.1733 215.243 62.6853 215.413 63.08 215.584C63.4747 215.744 63.8107 215.989 64.088 216.32C64.376 216.651 64.5253 217.083 64.536 217.616C64.536 218.096 64.4027 218.528 64.136 218.912C63.8693 219.296 63.4907 219.6 63 219.824C62.52 220.037 61.9653 220.144 61.336 220.144ZM70.4154 220.144C69.594 220.144 68.8474 219.957 68.1754 219.584C67.514 219.211 66.9914 218.683 66.6074 218C66.234 217.307 66.0474 216.507 66.0474 215.6C66.0474 214.704 66.2394 213.915 66.6234 213.232C67.018 212.539 67.5514 212.011 68.2234 211.648C68.8954 211.275 69.6474 211.088 70.4794 211.088C71.3114 211.088 72.0634 211.275 72.7354 211.648C73.4074 212.011 73.9354 212.533 74.3194 213.216C74.714 213.899 74.9114 214.693 74.9114 215.6C74.9114 216.507 74.7087 217.307 74.3034 218C73.9087 218.683 73.37 219.211 72.6874 219.584C72.0047 219.957 71.2474 220.144 70.4154 220.144ZM70.4154 218.864C70.938 218.864 71.4287 218.741 71.8874 218.496C72.346 218.251 72.714 217.883 72.9914 217.392C73.2794 216.901 73.4234 216.304 73.4234 215.6C73.4234 214.896 73.2847 214.299 73.0074 213.808C72.73 213.317 72.3674 212.955 71.9194 212.72C71.4714 212.475 70.986 212.352 70.4634 212.352C69.93 212.352 69.4394 212.475 68.9914 212.72C68.554 212.955 68.202 213.317 67.9354 213.808C67.6687 214.299 67.5354 214.896 67.5354 215.6C67.5354 216.315 67.6634 216.917 67.9194 217.408C68.186 217.899 68.538 218.267 68.9754 218.512C69.4127 218.747 69.8927 218.864 70.4154 218.864ZM84.6018 211.232V220H83.1458V218.704C82.8684 219.152 82.4791 219.504 81.9778 219.76C81.4871 220.005 80.9431 220.128 80.3458 220.128C79.6631 220.128 79.0498 219.989 78.5058 219.712C77.9618 219.424 77.5298 218.997 77.2098 218.432C76.9004 217.867 76.7458 217.179 76.7458 216.368V211.232H78.1858V216.176C78.1858 217.04 78.4044 217.707 78.8418 218.176C79.2791 218.635 79.8764 218.864 80.6338 218.864C81.4124 218.864 82.0258 218.624 82.4738 218.144C82.9218 217.664 83.1458 216.965 83.1458 216.048V211.232H84.6018ZM88.5161 212.848C88.8041 212.347 89.2308 211.931 89.7961 211.6C90.3721 211.259 91.0388 211.088 91.7961 211.088C92.5748 211.088 93.2788 211.275 93.9081 211.648C94.5481 212.021 95.0495 212.549 95.4121 213.232C95.7748 213.904 95.9561 214.688 95.9561 215.584C95.9561 216.469 95.7748 217.259 95.4121 217.952C95.0495 218.645 94.5481 219.184 93.9081 219.568C93.2788 219.952 92.5748 220.144 91.7961 220.144C91.0495 220.144 90.3881 219.979 89.8121 219.648C89.2468 219.307 88.8148 218.885 88.5161 218.384V224.16H87.0601V211.232H88.5161V212.848ZM94.4681 215.584C94.4681 214.923 94.3348 214.347 94.0681 213.856C93.8015 213.365 93.4388 212.992 92.9801 212.736C92.5321 212.48 92.0361 212.352 91.4921 212.352C90.9588 212.352 90.4628 212.485 90.0041 212.752C89.5561 213.008 89.1935 213.387 88.9161 213.888C88.6495 214.379 88.5161 214.949 88.5161 215.6C88.5161 216.261 88.6495 216.843 88.9161 217.344C89.1935 217.835 89.5561 218.213 90.0041 218.48C90.4628 218.736 90.9588 218.864 91.4921 218.864C92.0361 218.864 92.5321 218.736 92.9801 218.48C93.4388 218.213 93.8015 217.835 94.0681 217.344C94.3348 216.843 94.4681 216.256 94.4681 215.584ZM46.6285 233.696H41.0125V237.344C41.2578 237.003 41.6205 236.725 42.1005 236.512C42.5805 236.288 43.0978 236.176 43.6525 236.176C44.5378 236.176 45.2578 236.363 45.8125 236.736C46.3671 237.099 46.7618 237.573 46.9965 238.16C47.2418 238.736 47.3645 239.349 47.3645 240C47.3645 240.768 47.2205 241.456 46.9325 242.064C46.6445 242.672 46.2018 243.152 45.6045 243.504C45.0178 243.856 44.2871 244.032 43.4125 244.032C42.2925 244.032 41.3858 243.744 40.6925 243.168C39.9991 242.592 39.5778 241.824 39.4285 240.864H40.8525C40.9911 241.472 41.2845 241.947 41.7325 242.288C42.1805 242.629 42.7458 242.8 43.4285 242.8C44.2711 242.8 44.9058 242.549 45.3325 242.048C45.7591 241.536 45.9725 240.864 45.9725 240.032C45.9725 239.2 45.7591 238.56 45.3325 238.112C44.9058 237.653 44.2765 237.424 43.4445 237.424C42.8791 237.424 42.3831 237.563 41.9565 237.84C41.5405 238.107 41.2365 238.475 41.0445 238.944H39.6685V232.416H46.6285V233.696ZM50.0033 244.096C49.726 244.096 49.4913 244 49.2993 243.808C49.1073 243.616 49.0113 243.381 49.0113 243.104C49.0113 242.827 49.1073 242.592 49.2993 242.4C49.4913 242.208 49.726 242.112 50.0033 242.112C50.27 242.112 50.494 242.208 50.6753 242.4C50.8673 242.592 50.9633 242.827 50.9633 243.104C50.9633 243.381 50.8673 243.616 50.6753 243.808C50.494 244 50.27 244.096 50.0033 244.096ZM66.232 239.28C66.232 239.557 66.216 239.851 66.184 240.16H59.176C59.2293 241.024 59.5227 241.701 60.056 242.192C60.6 242.672 61.256 242.912 62.024 242.912C62.6533 242.912 63.176 242.768 63.592 242.48C64.0187 242.181 64.3173 241.787 64.488 241.296H66.056C65.8213 242.139 65.352 242.827 64.648 243.36C63.944 243.883 63.0693 244.144 62.024 244.144C61.192 244.144 60.4453 243.957 59.784 243.584C59.1333 243.211 58.6213 242.683 58.248 242C57.8747 241.307 57.688 240.507 57.688 239.6C57.688 238.693 57.8693 237.899 58.232 237.216C58.5947 236.533 59.1013 236.011 59.752 235.648C60.4133 235.275 61.1707 235.088 62.024 235.088C62.856 235.088 63.592 235.269 64.232 235.632C64.872 235.995 65.3627 236.496 65.704 237.136C66.056 237.765 66.232 238.48 66.232 239.28ZM64.728 238.976C64.728 238.421 64.6053 237.947 64.36 237.552C64.1147 237.147 63.7787 236.843 63.352 236.64C62.936 236.427 62.472 236.32 61.96 236.32C61.224 236.32 60.5947 236.555 60.072 237.024C59.56 237.493 59.2667 238.144 59.192 238.976H64.728ZM67.6099 239.584C67.6099 238.688 67.7912 237.904 68.1539 237.232C68.5165 236.549 69.0125 236.021 69.6419 235.648C70.2819 235.275 70.9912 235.088 71.7699 235.088C72.5379 235.088 73.2045 235.253 73.7699 235.584C74.3352 235.915 74.7565 236.331 75.0339 236.832V235.232H76.5059V244H75.0339V242.368C74.7459 242.88 74.3139 243.307 73.7379 243.648C73.1725 243.979 72.5112 244.144 71.7539 244.144C70.9752 244.144 70.2712 243.952 69.6419 243.568C69.0125 243.184 68.5165 242.645 68.1539 241.952C67.7912 241.259 67.6099 240.469 67.6099 239.584ZM75.0339 239.6C75.0339 238.939 74.9005 238.363 74.6339 237.872C74.3672 237.381 74.0045 237.008 73.5459 236.752C73.0979 236.485 72.6019 236.352 72.0579 236.352C71.5139 236.352 71.0179 236.48 70.5699 236.736C70.1219 236.992 69.7645 237.365 69.4979 237.856C69.2312 238.347 69.0979 238.923 69.0979 239.584C69.0979 240.256 69.2312 240.843 69.4979 241.344C69.7645 241.835 70.1219 242.213 70.5699 242.48C71.0179 242.736 71.5139 242.864 72.0579 242.864C72.6019 242.864 73.0979 242.736 73.5459 242.48C74.0045 242.213 74.3672 241.835 74.6339 241.344C74.9005 240.843 75.0339 240.261 75.0339 239.6ZM80.7424 236.432V241.6C80.7424 242.027 80.833 242.331 81.0144 242.512C81.1957 242.683 81.5104 242.768 81.9584 242.768H83.0304V244H81.7184C80.9077 244 80.2997 243.813 79.8944 243.44C79.489 243.067 79.2864 242.453 79.2864 241.6V236.432H78.1504V235.232H79.2864V233.024H80.7424V235.232H83.0304V236.432H80.7424ZM89.8121 233.808C89.5348 233.808 89.3001 233.712 89.1081 233.52C88.9161 233.328 88.8201 233.093 88.8201 232.816C88.8201 232.539 88.9161 232.304 89.1081 232.112C89.3001 231.92 89.5348 231.824 89.8121 231.824C90.0788 231.824 90.3028 231.92 90.4841 232.112C90.6761 232.304 90.7721 232.539 90.7721 232.816C90.7721 233.093 90.6761 233.328 90.4841 233.52C90.3028 233.712 90.0788 233.808 89.8121 233.808ZM90.5161 235.232V244H89.0601V235.232H90.5161ZM94.7736 236.432V241.6C94.7736 242.027 94.8643 242.331 95.0456 242.512C95.227 242.683 95.5416 242.768 95.9896 242.768H97.0616V244H95.7496C94.939 244 94.331 243.813 93.9256 243.44C93.5203 243.067 93.3176 242.453 93.3176 241.6V236.432H92.1816V235.232H93.3176V233.024H94.7736V235.232H97.0616V236.432H94.7736ZM102.547 239.584C102.547 238.688 102.729 237.904 103.091 237.232C103.454 236.549 103.95 236.021 104.579 235.648C105.219 235.275 105.929 235.088 106.707 235.088C107.475 235.088 108.142 235.253 108.707 235.584C109.273 235.915 109.694 236.331 109.971 236.832V235.232H111.443V244H109.971V242.368C109.683 242.88 109.251 243.307 108.675 243.648C108.11 243.979 107.449 244.144 106.691 244.144C105.913 244.144 105.209 243.952 104.579 243.568C103.95 243.184 103.454 242.645 103.091 241.952C102.729 241.259 102.547 240.469 102.547 239.584ZM109.971 239.6C109.971 238.939 109.838 238.363 109.571 237.872C109.305 237.381 108.942 237.008 108.483 236.752C108.035 236.485 107.539 236.352 106.995 236.352C106.451 236.352 105.955 236.48 105.507 236.736C105.059 236.992 104.702 237.365 104.435 237.856C104.169 238.347 104.035 238.923 104.035 239.584C104.035 240.256 104.169 240.843 104.435 241.344C104.702 241.835 105.059 242.213 105.507 242.48C105.955 242.736 106.451 242.864 106.995 242.864C107.539 242.864 108.035 242.736 108.483 242.48C108.942 242.213 109.305 241.835 109.571 241.344C109.838 240.843 109.971 240.261 109.971 239.6ZM117.52 235.088C118.277 235.088 118.939 235.253 119.504 235.584C120.08 235.915 120.507 236.331 120.784 236.832V235.232H122.256V244.192C122.256 244.992 122.085 245.701 121.744 246.32C121.403 246.949 120.912 247.44 120.272 247.792C119.643 248.144 118.907 248.32 118.064 248.32C116.912 248.32 115.952 248.048 115.184 247.504C114.416 246.96 113.963 246.219 113.824 245.28H115.264C115.424 245.813 115.755 246.24 116.256 246.56C116.757 246.891 117.36 247.056 118.064 247.056C118.864 247.056 119.515 246.805 120.016 246.304C120.528 245.803 120.784 245.099 120.784 244.192V242.352C120.496 242.864 120.069 243.291 119.504 243.632C118.939 243.973 118.277 244.144 117.52 244.144C116.741 244.144 116.032 243.952 115.392 243.568C114.763 243.184 114.267 242.645 113.904 241.952C113.541 241.259 113.36 240.469 113.36 239.584C113.36 238.688 113.541 237.904 113.904 237.232C114.267 236.549 114.763 236.021 115.392 235.648C116.032 235.275 116.741 235.088 117.52 235.088ZM120.784 239.6C120.784 238.939 120.651 238.363 120.384 237.872C120.117 237.381 119.755 237.008 119.296 236.752C118.848 236.485 118.352 236.352 117.808 236.352C117.264 236.352 116.768 236.48 116.32 236.736C115.872 236.992 115.515 237.365 115.248 237.856C114.981 238.347 114.848 238.923 114.848 239.584C114.848 240.256 114.981 240.843 115.248 241.344C115.515 241.835 115.872 242.213 116.32 242.48C116.768 242.736 117.264 242.864 117.808 242.864C118.352 242.864 118.848 242.736 119.296 242.48C119.755 242.213 120.117 241.835 120.384 241.344C120.651 240.843 120.784 240.261 120.784 239.6ZM124.172 239.584C124.172 238.688 124.354 237.904 124.716 237.232C125.079 236.549 125.575 236.021 126.204 235.648C126.844 235.275 127.554 235.088 128.332 235.088C129.1 235.088 129.767 235.253 130.332 235.584C130.898 235.915 131.319 236.331 131.596 236.832V235.232H133.068V244H131.596V242.368C131.308 242.88 130.876 243.307 130.3 243.648C129.735 243.979 129.074 244.144 128.316 244.144C127.538 244.144 126.834 243.952 126.204 243.568C125.575 243.184 125.079 242.645 124.716 241.952C124.354 241.259 124.172 240.469 124.172 239.584ZM131.596 239.6C131.596 238.939 131.463 238.363 131.196 237.872C130.93 237.381 130.567 237.008 130.108 236.752C129.66 236.485 129.164 236.352 128.62 236.352C128.076 236.352 127.58 236.48 127.132 236.736C126.684 236.992 126.327 237.365 126.06 237.856C125.794 238.347 125.66 238.923 125.66 239.584C125.66 240.256 125.794 240.843 126.06 241.344C126.327 241.835 126.684 242.213 127.132 242.48C127.58 242.736 128.076 242.864 128.62 242.864C129.164 242.864 129.66 242.736 130.108 242.48C130.567 242.213 130.93 241.835 131.196 241.344C131.463 240.843 131.596 240.261 131.596 239.6ZM136.281 233.808C136.004 233.808 135.769 233.712 135.577 233.52C135.385 233.328 135.289 233.093 135.289 232.816C135.289 232.539 135.385 232.304 135.577 232.112C135.769 231.92 136.004 231.824 136.281 231.824C136.548 231.824 136.772 231.92 136.953 232.112C137.145 232.304 137.241 232.539 137.241 232.816C137.241 233.093 137.145 233.328 136.953 233.52C136.772 233.712 136.548 233.808 136.281 233.808ZM136.985 235.232V244H135.529V235.232H136.985ZM143.738 235.072C144.805 235.072 145.669 235.397 146.33 236.048C146.992 236.688 147.322 237.616 147.322 238.832V244H145.882V239.04C145.882 238.165 145.664 237.499 145.226 237.04C144.789 236.571 144.192 236.336 143.434 236.336C142.666 236.336 142.053 236.576 141.594 237.056C141.146 237.536 140.922 238.235 140.922 239.152V244H139.466V235.232H140.922V236.48C141.21 236.032 141.6 235.685 142.09 235.44C142.592 235.195 143.141 235.072 143.738 235.072ZM45.5911 259.184C45.3564 258 44.6258 257.408 43.3991 257.408C42.4498 257.408 41.7404 257.776 41.2711 258.512C40.8018 259.237 40.5724 260.437 40.5831 262.112C40.8284 261.557 41.2338 261.125 41.7991 260.816C42.3751 260.496 43.0151 260.336 43.7191 260.336C44.8178 260.336 45.6924 260.677 46.3431 261.36C47.0044 262.043 47.3351 262.987 47.3351 264.192C47.3351 264.917 47.1911 265.568 46.9031 266.144C46.6258 266.72 46.1991 267.179 45.6231 267.52C45.0578 267.861 44.3698 268.032 43.5591 268.032C42.4604 268.032 41.6018 267.787 40.9831 267.296C40.3644 266.805 39.9324 266.128 39.6871 265.264C39.4418 264.4 39.3191 263.333 39.3191 262.064C39.3191 258.149 40.6844 256.192 43.4151 256.192C44.4604 256.192 45.2818 256.475 45.8791 257.04C46.4764 257.605 46.8284 258.32 46.9351 259.184H45.5911ZM43.4151 261.568C42.9564 261.568 42.5244 261.664 42.1191 261.856C41.7138 262.037 41.3831 262.32 41.1271 262.704C40.8818 263.077 40.7591 263.536 40.7591 264.08C40.7591 264.891 40.9938 265.552 41.4631 266.064C41.9324 266.565 42.6044 266.816 43.4791 266.816C44.2258 266.816 44.8178 266.587 45.2551 266.128C45.7031 265.659 45.9271 265.029 45.9271 264.24C45.9271 263.408 45.7138 262.757 45.2871 262.288C44.8604 261.808 44.2364 261.568 43.4151 261.568ZM50.0033 268.096C49.726 268.096 49.4913 268 49.2993 267.808C49.1073 267.616 49.0113 267.381 49.0113 267.104C49.0113 266.827 49.1073 266.592 49.2993 266.4C49.4913 266.208 49.726 266.112 50.0033 266.112C50.27 266.112 50.494 266.208 50.6753 266.4C50.8673 266.592 50.9633 266.827 50.9633 267.104C50.9633 267.381 50.8673 267.616 50.6753 267.808C50.494 268 50.27 268.096 50.0033 268.096ZM59.688 256.16V268H58.232V256.16H59.688ZM70.1695 263.28C70.1695 263.557 70.1535 263.851 70.1215 264.16H63.1135C63.1668 265.024 63.4602 265.701 63.9935 266.192C64.5375 266.672 65.1935 266.912 65.9615 266.912C66.5908 266.912 67.1135 266.768 67.5295 266.48C67.9562 266.181 68.2548 265.787 68.4255 265.296H69.9935C69.7588 266.139 69.2895 266.827 68.5855 267.36C67.8815 267.883 67.0068 268.144 65.9615 268.144C65.1295 268.144 64.3828 267.957 63.7215 267.584C63.0708 267.211 62.5588 266.683 62.1855 266C61.8122 265.307 61.6255 264.507 61.6255 263.6C61.6255 262.693 61.8068 261.899 62.1695 261.216C62.5322 260.533 63.0388 260.011 63.6895 259.648C64.3508 259.275 65.1082 259.088 65.9615 259.088C66.7935 259.088 67.5295 259.269 68.1695 259.632C68.8095 259.995 69.3002 260.496 69.6415 261.136C69.9935 261.765 70.1695 262.48 70.1695 263.28ZM68.6655 262.976C68.6655 262.421 68.5428 261.947 68.2975 261.552C68.0522 261.147 67.7162 260.843 67.2895 260.64C66.8735 260.427 66.4095 260.32 65.8975 260.32C65.1615 260.32 64.5322 260.555 64.0095 261.024C63.4975 261.493 63.2042 262.144 63.1295 262.976H68.6655ZM71.5474 263.584C71.5474 262.688 71.7287 261.904 72.0914 261.232C72.454 260.549 72.95 260.021 73.5794 259.648C74.2194 259.275 74.9287 259.088 75.7074 259.088C76.4754 259.088 77.142 259.253 77.7074 259.584C78.2727 259.915 78.694 260.331 78.9714 260.832V259.232H80.4434V268H78.9714V266.368C78.6834 266.88 78.2514 267.307 77.6754 267.648C77.11 267.979 76.4487 268.144 75.6914 268.144C74.9127 268.144 74.2087 267.952 73.5794 267.568C72.95 267.184 72.454 266.645 72.0914 265.952C71.7287 265.259 71.5474 264.469 71.5474 263.584ZM78.9714 263.6C78.9714 262.939 78.838 262.363 78.5714 261.872C78.3047 261.381 77.942 261.008 77.4834 260.752C77.0354 260.485 76.5394 260.352 75.9954 260.352C75.4514 260.352 74.9554 260.48 74.5074 260.736C74.0594 260.992 73.702 261.365 73.4354 261.856C73.1687 262.347 73.0354 262.923 73.0354 263.584C73.0354 264.256 73.1687 264.843 73.4354 265.344C73.702 265.835 74.0594 266.213 74.5074 266.48C74.9554 266.736 75.4514 266.864 75.9954 266.864C76.5394 266.864 77.0354 266.736 77.4834 266.48C77.942 266.213 78.3047 265.835 78.5714 265.344C78.838 264.843 78.9714 264.261 78.9714 263.6ZM86.1679 266.656L88.8879 259.232H90.4399L86.9999 268H85.3039L81.8639 259.232H83.4319L86.1679 266.656ZM99.8726 263.28C99.8726 263.557 99.8566 263.851 99.8246 264.16H92.8166C92.87 265.024 93.1633 265.701 93.6966 266.192C94.2406 266.672 94.8966 266.912 95.6646 266.912C96.294 266.912 96.8166 266.768 97.2326 266.48C97.6593 266.181 97.958 265.787 98.1286 265.296H99.6966C99.462 266.139 98.9926 266.827 98.2886 267.36C97.5846 267.883 96.71 268.144 95.6646 268.144C94.8326 268.144 94.086 267.957 93.4246 267.584C92.774 267.211 92.262 266.683 91.8886 266C91.5153 265.307 91.3286 264.507 91.3286 263.6C91.3286 262.693 91.51 261.899 91.8726 261.216C92.2353 260.533 92.742 260.011 93.3926 259.648C94.054 259.275 94.8113 259.088 95.6646 259.088C96.4966 259.088 97.2326 259.269 97.8726 259.632C98.5126 259.995 99.0033 260.496 99.3446 261.136C99.6966 261.765 99.8726 262.48 99.8726 263.28ZM98.3686 262.976C98.3686 262.421 98.246 261.947 98.0006 261.552C97.7553 261.147 97.4193 260.843 96.9926 260.64C96.5766 260.427 96.1126 260.32 95.6006 260.32C94.8646 260.32 94.2353 260.555 93.7126 261.024C93.2006 261.493 92.9073 262.144 92.8326 262.976H98.3686ZM109.164 268.144C108.492 268.144 107.889 268.032 107.356 267.808C106.823 267.573 106.401 267.253 106.092 266.848C105.783 266.432 105.612 265.957 105.58 265.424H107.084C107.127 265.861 107.329 266.219 107.692 266.496C108.065 266.773 108.551 266.912 109.148 266.912C109.703 266.912 110.14 266.789 110.46 266.544C110.78 266.299 110.94 265.989 110.94 265.616C110.94 265.232 110.769 264.949 110.428 264.768C110.087 264.576 109.559 264.389 108.844 264.208C108.193 264.037 107.66 263.867 107.244 263.696C106.839 263.515 106.487 263.253 106.188 262.912C105.9 262.56 105.756 262.101 105.756 261.536C105.756 261.088 105.889 260.677 106.156 260.304C106.423 259.931 106.801 259.637 107.292 259.424C107.783 259.2 108.343 259.088 108.972 259.088C109.943 259.088 110.727 259.333 111.324 259.824C111.921 260.315 112.241 260.987 112.284 261.84H110.828C110.796 261.381 110.609 261.013 110.268 260.736C109.937 260.459 109.489 260.32 108.924 260.32C108.401 260.32 107.985 260.432 107.676 260.656C107.367 260.88 107.212 261.173 107.212 261.536C107.212 261.824 107.303 262.064 107.484 262.256C107.676 262.437 107.911 262.587 108.188 262.704C108.476 262.811 108.871 262.933 109.372 263.072C110.001 263.243 110.513 263.413 110.908 263.584C111.303 263.744 111.639 263.989 111.916 264.32C112.204 264.651 112.353 265.083 112.364 265.616C112.364 266.096 112.231 266.528 111.964 266.912C111.697 267.296 111.319 267.6 110.828 267.824C110.348 268.037 109.793 268.144 109.164 268.144ZM118.244 268.144C117.422 268.144 116.676 267.957 116.004 267.584C115.342 267.211 114.82 266.683 114.436 266C114.062 265.307 113.876 264.507 113.876 263.6C113.876 262.704 114.068 261.915 114.452 261.232C114.846 260.539 115.38 260.011 116.052 259.648C116.724 259.275 117.476 259.088 118.308 259.088C119.14 259.088 119.892 259.275 120.564 259.648C121.236 260.011 121.764 260.533 122.148 261.216C122.542 261.899 122.74 262.693 122.74 263.6C122.74 264.507 122.537 265.307 122.132 266C121.737 266.683 121.198 267.211 120.516 267.584C119.833 267.957 119.076 268.144 118.244 268.144ZM118.244 266.864C118.766 266.864 119.257 266.741 119.716 266.496C120.174 266.251 120.542 265.883 120.82 265.392C121.108 264.901 121.252 264.304 121.252 263.6C121.252 262.896 121.113 262.299 120.836 261.808C120.558 261.317 120.196 260.955 119.748 260.72C119.3 260.475 118.814 260.352 118.292 260.352C117.758 260.352 117.268 260.475 116.82 260.72C116.382 260.955 116.03 261.317 115.764 261.808C115.497 262.299 115.364 262.896 115.364 263.6C115.364 264.315 115.492 264.917 115.748 265.408C116.014 265.899 116.366 266.267 116.804 266.512C117.241 266.747 117.721 266.864 118.244 266.864ZM135.198 259.072C135.881 259.072 136.489 259.216 137.022 259.504C137.555 259.781 137.977 260.203 138.286 260.768C138.595 261.333 138.75 262.021 138.75 262.832V268H137.31V263.04C137.31 262.165 137.091 261.499 136.654 261.04C136.227 260.571 135.646 260.336 134.91 260.336C134.153 260.336 133.55 260.581 133.102 261.072C132.654 261.552 132.43 262.251 132.43 263.168V268H130.99V263.04C130.99 262.165 130.771 261.499 130.334 261.04C129.907 260.571 129.326 260.336 128.59 260.336C127.833 260.336 127.23 260.581 126.782 261.072C126.334 261.552 126.11 262.251 126.11 263.168V268H124.654V259.232H126.11V260.496C126.398 260.037 126.782 259.685 127.262 259.44C127.753 259.195 128.291 259.072 128.878 259.072C129.614 259.072 130.265 259.237 130.83 259.568C131.395 259.899 131.817 260.384 132.094 261.024C132.339 260.405 132.745 259.925 133.31 259.584C133.875 259.243 134.505 259.072 135.198 259.072ZM149.138 263.28C149.138 263.557 149.122 263.851 149.09 264.16H142.082C142.136 265.024 142.429 265.701 142.962 266.192C143.506 266.672 144.162 266.912 144.93 266.912C145.56 266.912 146.082 266.768 146.498 266.48C146.925 266.181 147.224 265.787 147.394 265.296H148.962C148.728 266.139 148.258 266.827 147.554 267.36C146.85 267.883 145.976 268.144 144.93 268.144C144.098 268.144 143.352 267.957 142.69 267.584C142.04 267.211 141.528 266.683 141.154 266C140.781 265.307 140.594 264.507 140.594 263.6C140.594 262.693 140.776 261.899 141.138 261.216C141.501 260.533 142.008 260.011 142.658 259.648C143.32 259.275 144.077 259.088 144.93 259.088C145.762 259.088 146.498 259.269 147.138 259.632C147.778 259.995 148.269 260.496 148.61 261.136C148.962 261.765 149.138 262.48 149.138 263.28ZM147.634 262.976C147.634 262.421 147.512 261.947 147.266 261.552C147.021 261.147 146.685 260.843 146.258 260.64C145.842 260.427 145.378 260.32 144.866 260.32C144.13 260.32 143.501 260.555 142.978 261.024C142.466 261.493 142.173 262.144 142.098 262.976H147.634ZM158.894 260.432H157.054V268H155.598V260.432H154.462V259.232H155.598V258.608C155.598 257.627 155.848 256.912 156.35 256.464C156.862 256.005 157.678 255.776 158.798 255.776V256.992C158.158 256.992 157.704 257.12 157.438 257.376C157.182 257.621 157.054 258.032 157.054 258.608V259.232H158.894V260.432ZM164.415 268.144C163.594 268.144 162.847 267.957 162.175 267.584C161.514 267.211 160.991 266.683 160.607 266C160.234 265.307 160.047 264.507 160.047 263.6C160.047 262.704 160.239 261.915 160.623 261.232C161.018 260.539 161.551 260.011 162.223 259.648C162.895 259.275 163.647 259.088 164.479 259.088C165.311 259.088 166.063 259.275 166.735 259.648C167.407 260.011 167.935 260.533 168.319 261.216C168.714 261.899 168.911 262.693 168.911 263.6C168.911 264.507 168.709 265.307 168.303 266C167.909 266.683 167.37 267.211 166.687 267.584C166.005 267.957 165.247 268.144 164.415 268.144ZM164.415 266.864C164.938 266.864 165.429 266.741 165.887 266.496C166.346 266.251 166.714 265.883 166.991 265.392C167.279 264.901 167.423 264.304 167.423 263.6C167.423 262.896 167.285 262.299 167.007 261.808C166.73 261.317 166.367 260.955 165.919 260.72C165.471 260.475 164.986 260.352 164.463 260.352C163.93 260.352 163.439 260.475 162.991 260.72C162.554 260.955 162.202 261.317 161.935 261.808C161.669 262.299 161.535 262.896 161.535 263.6C161.535 264.315 161.663 264.917 161.919 265.408C162.186 265.899 162.538 266.267 162.975 266.512C163.413 266.747 163.893 266.864 164.415 266.864ZM172.282 260.656C172.538 260.155 172.9 259.765 173.37 259.488C173.85 259.211 174.431 259.072 175.114 259.072V260.576H174.73C173.098 260.576 172.282 261.461 172.282 263.232V268H170.826V259.232H172.282V260.656ZM182.836 260.432V265.6C182.836 266.027 182.927 266.331 183.108 266.512C183.289 266.683 183.604 266.768 184.052 266.768H185.124V268H183.812C183.001 268 182.393 267.813 181.988 267.44C181.583 267.067 181.38 266.453 181.38 265.6V260.432H180.244V259.232H181.38V257.024H182.836V259.232H185.124V260.432H182.836ZM191.24 259.072C191.902 259.072 192.499 259.216 193.032 259.504C193.566 259.781 193.982 260.203 194.28 260.768C194.59 261.333 194.744 262.021 194.744 262.832V268H193.304V263.04C193.304 262.165 193.086 261.499 192.648 261.04C192.211 260.571 191.614 260.336 190.856 260.336C190.088 260.336 189.475 260.576 189.016 261.056C188.568 261.536 188.344 262.235 188.344 263.152V268H186.888V256.16H188.344V260.48C188.632 260.032 189.027 259.685 189.528 259.44C190.04 259.195 190.611 259.072 191.24 259.072ZM205.123 263.28C205.123 263.557 205.107 263.851 205.075 264.16H198.067C198.12 265.024 198.413 265.701 198.947 266.192C199.491 266.672 200.147 266.912 200.915 266.912C201.544 266.912 202.067 266.768 202.483 266.48C202.909 266.181 203.208 265.787 203.379 265.296H204.947C204.712 266.139 204.243 266.827 203.539 267.36C202.835 267.883 201.96 268.144 200.915 268.144C200.083 268.144 199.336 267.957 198.675 267.584C198.024 267.211 197.512 266.683 197.139 266C196.765 265.307 196.579 264.507 196.579 263.6C196.579 262.693 196.76 261.899 197.123 261.216C197.485 260.533 197.992 260.011 198.643 259.648C199.304 259.275 200.061 259.088 200.915 259.088C201.747 259.088 202.483 259.269 203.123 259.632C203.763 259.995 204.253 260.496 204.595 261.136C204.947 261.765 205.123 262.48 205.123 263.28ZM203.619 262.976C203.619 262.421 203.496 261.947 203.251 261.552C203.005 261.147 202.669 260.843 202.243 260.64C201.827 260.427 201.363 260.32 200.851 260.32C200.115 260.32 199.485 260.555 198.963 261.024C198.451 261.493 198.157 262.144 198.083 262.976H203.619ZM214.878 260.432H213.038V268H211.582V260.432H210.446V259.232H211.582V258.608C211.582 257.627 211.833 256.912 212.334 256.464C212.846 256.005 213.662 255.776 214.782 255.776V256.992C214.142 256.992 213.689 257.12 213.422 257.376C213.166 257.621 213.038 258.032 213.038 258.608V259.232H214.878V260.432ZM218.032 260.656C218.288 260.155 218.65 259.765 219.12 259.488C219.6 259.211 220.181 259.072 220.864 259.072V260.576H220.48C218.848 260.576 218.032 261.461 218.032 263.232V268H216.576V259.232H218.032V260.656ZM226.369 268.144C225.547 268.144 224.801 267.957 224.129 267.584C223.467 267.211 222.945 266.683 222.561 266C222.187 265.307 222.001 264.507 222.001 263.6C222.001 262.704 222.193 261.915 222.577 261.232C222.971 260.539 223.505 260.011 224.177 259.648C224.849 259.275 225.601 259.088 226.433 259.088C227.265 259.088 228.017 259.275 228.689 259.648C229.361 260.011 229.889 260.533 230.273 261.216C230.667 261.899 230.865 262.693 230.865 263.6C230.865 264.507 230.662 265.307 230.257 266C229.862 266.683 229.323 267.211 228.641 267.584C227.958 267.957 227.201 268.144 226.369 268.144ZM226.369 266.864C226.891 266.864 227.382 266.741 227.841 266.496C228.299 266.251 228.667 265.883 228.945 265.392C229.233 264.901 229.377 264.304 229.377 263.6C229.377 262.896 229.238 262.299 228.961 261.808C228.683 261.317 228.321 260.955 227.873 260.72C227.425 260.475 226.939 260.352 226.417 260.352C225.883 260.352 225.393 260.475 224.945 260.72C224.507 260.955 224.155 261.317 223.889 261.808C223.622 262.299 223.489 262.896 223.489 263.6C223.489 264.315 223.617 264.917 223.873 265.408C224.139 265.899 224.491 266.267 224.929 266.512C225.366 266.747 225.846 266.864 226.369 266.864ZM236.395 259.088C237.152 259.088 237.814 259.253 238.379 259.584C238.955 259.915 239.382 260.331 239.659 260.832V259.232H241.131V268.192C241.131 268.992 240.96 269.701 240.619 270.32C240.278 270.949 239.787 271.44 239.147 271.792C238.518 272.144 237.782 272.32 236.939 272.32C235.787 272.32 234.827 272.048 234.059 271.504C233.291 270.96 232.838 270.219 232.699 269.28H234.139C234.299 269.813 234.63 270.24 235.131 270.56C235.632 270.891 236.235 271.056 236.939 271.056C237.739 271.056 238.39 270.805 238.891 270.304C239.403 269.803 239.659 269.099 239.659 268.192V266.352C239.371 266.864 238.944 267.291 238.379 267.632C237.814 267.973 237.152 268.144 236.395 268.144C235.616 268.144 234.907 267.952 234.267 267.568C233.638 267.184 233.142 266.645 232.779 265.952C232.416 265.259 232.235 264.469 232.235 263.584C232.235 262.688 232.416 261.904 232.779 261.232C233.142 260.549 233.638 260.021 234.267 259.648C234.907 259.275 235.616 259.088 236.395 259.088ZM239.659 263.6C239.659 262.939 239.526 262.363 239.259 261.872C238.992 261.381 238.63 261.008 238.171 260.752C237.723 260.485 237.227 260.352 236.683 260.352C236.139 260.352 235.643 260.48 235.195 260.736C234.747 260.992 234.39 261.365 234.123 261.856C233.856 262.347 233.723 262.923 233.723 263.584C233.723 264.256 233.856 264.843 234.123 265.344C234.39 265.835 234.747 266.213 235.195 266.48C235.643 266.736 236.139 266.864 236.683 266.864C237.227 266.864 237.723 266.736 238.171 266.48C238.63 266.213 238.992 265.835 239.259 265.344C239.526 264.843 239.659 264.261 239.659 263.6Z" fill="#513131"/>
<line x1="8" y1="64.5" x2="268" y2="64.5" stroke="#513131"/>
<path d="M227.111 37.0001H226V43.6667H232.667V42.5556H227.897L233.476 36.9762L232.691 36.1906L227.111 41.77V37.0001ZM236 28.1112H240.77L235.052 33.8295L235.837 34.6151L241.556 28.8969V33.6667H242.667V27.0001L236 27.0001V28.1112Z" fill="#513131" stroke="#513131" stroke-width="0.5" stroke-linejoin="round"/>
</g>
<defs>
<filter id="filter0_d_7_1428" x="0" y="0.5" width="277.5" height="337" filterUnits="userSpaceOnUse" color-interpolation-filters="sRGB">
<feFlood flood-opacity="0" result="BackgroundImageFix"/>
<feColorMatrix in="SourceAlpha" type="matrix" values="0 0 0 0 0 0 0 0 0 0 0 0 0 0 0 0 0 0 127 0" result="hardAlpha"/>
<feOffset dy="4"/>
<feGaussianBlur stdDeviation="4"/>
<feComposite in2="hardAlpha" operator="out"/>
<feColorMatrix type="matrix" values="0 0 0 0 0 0 0 0 0 0 0 0 0 0 0 0 0 0 0.25 0"/>
<feBlend mode="normal" in2="BackgroundImageFix" result="effect1_dropShadow_7_1428"/>
<feBlend mode="normal" in="SourceGraphic" in2="effect1_dropShadow_7_1428" result="shape"/>
</filter>
<linearGradient id="paint0_linear_7_1428" x1="9" y1="325" x2="269" y2="5.00001" gradientUnits="userSpaceOnUse">
<stop stop-color="#E6F8DB"/>
<stop offset="1" stop-color="#F6F8ED"/>
</linearGradient>
</defs>
</svg>
