<svg width="268" height="148" viewBox="0 0 268 148" fill="none" xmlns="http://www.w3.org/2000/svg">
<g filter="url(#filter0_d_7_2125)">
<rect x="4.5" y="0.5" width="259" height="59" rx="14.5" fill="url(#paint0_linear_7_2125)" stroke="#F6F8ED"/>
</g>
<path d="M119.438 28.432H117.598V36H116.142V28.432H115.006V27.232H116.142V26.608C116.142 25.6267 116.393 24.912 116.894 24.464C117.406 24.0053 118.222 23.776 119.342 23.776V24.992C118.702 24.992 118.249 25.12 117.982 25.376C117.726 25.6213 117.598 26.032 117.598 26.608V27.232H119.438V28.432ZM122.592 28.656C122.848 28.1547 123.211 27.7653 123.68 27.488C124.16 27.2107 124.741 27.072 125.424 27.072V28.576H125.04C123.408 28.576 122.592 29.4613 122.592 31.232V36H121.136V27.232H122.592V28.656ZM134.881 27.232V36H133.425V34.704C133.147 35.152 132.758 35.504 132.257 35.76C131.766 36.0053 131.222 36.128 130.625 36.128C129.942 36.128 129.329 35.9893 128.785 35.712C128.241 35.424 127.809 34.9973 127.489 34.432C127.179 33.8667 127.025 33.1787 127.025 32.368V27.232H128.465V32.176C128.465 33.04 128.683 33.7067 129.121 34.176C129.558 34.6347 130.155 34.864 130.913 34.864C131.691 34.864 132.305 34.624 132.753 34.144C133.201 33.664 133.425 32.9653 133.425 32.048V27.232H134.881ZM140.955 27.088C141.712 27.088 142.374 27.2533 142.939 27.584C143.515 27.9147 143.942 28.3307 144.219 28.832V27.232H145.691V36.192C145.691 36.992 145.52 37.7013 145.179 38.32C144.838 38.9493 144.347 39.44 143.707 39.792C143.078 40.144 142.342 40.32 141.499 40.32C140.347 40.32 139.387 40.048 138.619 39.504C137.851 38.96 137.398 38.2187 137.259 37.28H138.699C138.859 37.8133 139.19 38.24 139.691 38.56C140.192 38.8907 140.795 39.056 141.499 39.056C142.299 39.056 142.95 38.8053 143.451 38.304C143.963 37.8027 144.219 37.0987 144.219 36.192V34.352C143.931 34.864 143.504 35.2907 142.939 35.632C142.374 35.9733 141.712 36.144 140.955 36.144C140.176 36.144 139.467 35.952 138.827 35.568C138.198 35.184 137.702 34.6453 137.339 33.952C136.976 33.2587 136.795 32.4693 136.795 31.584C136.795 30.688 136.976 29.904 137.339 29.232C137.702 28.5493 138.198 28.0213 138.827 27.648C139.467 27.2747 140.176 27.088 140.955 27.088ZM144.219 31.6C144.219 30.9387 144.086 30.3627 143.819 29.872C143.552 29.3813 143.19 29.008 142.731 28.752C142.283 28.4853 141.787 28.352 141.243 28.352C140.699 28.352 140.203 28.48 139.755 28.736C139.307 28.992 138.95 29.3653 138.683 29.856C138.416 30.3467 138.283 30.9227 138.283 31.584C138.283 32.256 138.416 32.8427 138.683 33.344C138.95 33.8347 139.307 34.2133 139.755 34.48C140.203 34.736 140.699 34.864 141.243 34.864C141.787 34.864 142.283 34.736 142.731 34.48C143.19 34.2133 143.552 33.8347 143.819 33.344C144.086 32.8427 144.219 32.2613 144.219 31.6ZM147.608 31.584C147.608 30.688 147.789 29.904 148.152 29.232C148.514 28.5493 149.01 28.0213 149.64 27.648C150.28 27.2747 150.989 27.088 151.768 27.088C152.536 27.088 153.202 27.2533 153.768 27.584C154.333 27.9147 154.754 28.3307 155.032 28.832V27.232H156.504V36H155.032V34.368C154.744 34.88 154.312 35.3067 153.736 35.648C153.17 35.9787 152.509 36.144 151.752 36.144C150.973 36.144 150.269 35.952 149.64 35.568C149.01 35.184 148.514 34.6453 148.152 33.952C147.789 33.2587 147.608 32.4693 147.608 31.584ZM155.032 31.6C155.032 30.9387 154.898 30.3627 154.632 29.872C154.365 29.3813 154.002 29.008 153.544 28.752C153.096 28.4853 152.6 28.352 152.056 28.352C151.512 28.352 151.016 28.48 150.568 28.736C150.12 28.992 149.762 29.3653 149.496 29.856C149.229 30.3467 149.096 30.9227 149.096 31.584C149.096 32.256 149.229 32.8427 149.496 33.344C149.762 33.8347 150.12 34.2133 150.568 34.48C151.016 34.736 151.512 34.864 152.056 34.864C152.6 34.864 153.096 34.736 153.544 34.48C154.002 34.2133 154.365 33.8347 154.632 33.344C154.898 32.8427 155.032 32.2613 155.032 31.6ZM160.42 24.16V36H158.964V24.16H160.42ZM173.199 34.784C173.999 34.784 174.687 34.608 175.263 34.256C175.85 33.904 176.298 33.4027 176.607 32.752H178.335C177.93 33.8187 177.274 34.6453 176.367 35.232C175.461 35.808 174.405 36.096 173.199 36.096C171.941 36.096 170.831 35.7493 169.871 35.056C168.911 34.3627 168.25 33.4347 167.887 32.272H166.335V31.248H167.663C167.631 30.9707 167.615 30.6933 167.615 30.416C167.615 30.1493 167.631 29.888 167.663 29.632H166.335V28.624H167.871C168.106 27.8453 168.479 27.1627 168.991 26.576C169.514 25.9787 170.133 25.52 170.847 25.2C171.573 24.8693 172.357 24.704 173.199 24.704C174.405 24.704 175.461 24.9973 176.367 25.584C177.274 26.1707 177.93 27.0027 178.335 28.08H176.607C176.298 27.4187 175.855 26.912 175.279 26.56C174.703 26.208 174.01 26.032 173.199 26.032C172.303 26.032 171.519 26.2613 170.847 26.72C170.186 27.1787 169.711 27.8133 169.423 28.624H173.199V29.632H169.167C169.135 29.888 169.119 30.1493 169.119 30.416C169.119 30.7253 169.141 31.0027 169.183 31.248H173.199V32.272H169.439C169.749 33.0613 170.234 33.68 170.895 34.128C171.567 34.5653 172.335 34.784 173.199 34.784Z" fill="black"/>
<g filter="url(#filter1_d_7_2125)">
<rect x="4.5" y="80.5" width="259" height="59" rx="14.5" fill="url(#paint1_linear_7_2125)" stroke="#F6F8ED"/>
</g>
<path d="M117.326 108.656C117.582 108.155 117.945 107.765 118.414 107.488C118.894 107.211 119.476 107.072 120.158 107.072V108.576H119.774C118.142 108.576 117.326 109.461 117.326 111.232V116H115.87V107.232H117.326V108.656ZM129.839 111.28C129.839 111.557 129.823 111.851 129.791 112.16H122.783C122.836 113.024 123.13 113.701 123.663 114.192C124.207 114.672 124.863 114.912 125.631 114.912C126.26 114.912 126.783 114.768 127.199 114.48C127.626 114.181 127.924 113.787 128.095 113.296H129.663C129.428 114.139 128.959 114.827 128.255 115.36C127.551 115.883 126.676 116.144 125.631 116.144C124.799 116.144 124.052 115.957 123.391 115.584C122.74 115.211 122.228 114.683 121.855 114C121.482 113.307 121.295 112.507 121.295 111.6C121.295 110.693 121.476 109.899 121.839 109.216C122.202 108.533 122.708 108.011 123.359 107.648C124.02 107.275 124.778 107.088 125.631 107.088C126.463 107.088 127.199 107.269 127.839 107.632C128.479 107.995 128.97 108.496 129.311 109.136C129.663 109.765 129.839 110.48 129.839 111.28ZM128.335 110.976C128.335 110.421 128.212 109.947 127.967 109.552C127.722 109.147 127.386 108.843 126.959 108.64C126.543 108.427 126.079 108.32 125.567 108.32C124.831 108.32 124.202 108.555 123.679 109.024C123.167 109.493 122.874 110.144 122.799 110.976H128.335ZM135.377 107.088C136.134 107.088 136.796 107.253 137.361 107.584C137.937 107.915 138.364 108.331 138.641 108.832V107.232H140.113V116.192C140.113 116.992 139.942 117.701 139.601 118.32C139.26 118.949 138.769 119.44 138.129 119.792C137.5 120.144 136.764 120.32 135.921 120.32C134.769 120.32 133.809 120.048 133.041 119.504C132.273 118.96 131.82 118.219 131.681 117.28H133.121C133.281 117.813 133.612 118.24 134.113 118.56C134.614 118.891 135.217 119.056 135.921 119.056C136.721 119.056 137.372 118.805 137.873 118.304C138.385 117.803 138.641 117.099 138.641 116.192V114.352C138.353 114.864 137.926 115.291 137.361 115.632C136.796 115.973 136.134 116.144 135.377 116.144C134.598 116.144 133.889 115.952 133.249 115.568C132.62 115.184 132.124 114.645 131.761 113.952C131.398 113.259 131.217 112.469 131.217 111.584C131.217 110.688 131.398 109.904 131.761 109.232C132.124 108.549 132.62 108.021 133.249 107.648C133.889 107.275 134.598 107.088 135.377 107.088ZM138.641 111.6C138.641 110.939 138.508 110.363 138.241 109.872C137.974 109.381 137.612 109.008 137.153 108.752C136.705 108.485 136.209 108.352 135.665 108.352C135.121 108.352 134.625 108.48 134.177 108.736C133.729 108.992 133.372 109.365 133.105 109.856C132.838 110.347 132.705 110.923 132.705 111.584C132.705 112.256 132.838 112.843 133.105 113.344C133.372 113.835 133.729 114.213 134.177 114.48C134.625 114.736 135.121 114.864 135.665 114.864C136.209 114.864 136.705 114.736 137.153 114.48C137.612 114.213 137.974 113.835 138.241 113.344C138.508 112.843 138.641 112.261 138.641 111.6ZM150.349 107.232V116H148.893V114.704C148.616 115.152 148.227 115.504 147.725 115.76C147.235 116.005 146.691 116.128 146.093 116.128C145.411 116.128 144.797 115.989 144.253 115.712C143.709 115.424 143.277 114.997 142.957 114.432C142.648 113.867 142.493 113.179 142.493 112.368V107.232H143.933V112.176C143.933 113.04 144.152 113.707 144.589 114.176C145.027 114.635 145.624 114.864 146.381 114.864C147.16 114.864 147.773 114.624 148.221 114.144C148.669 113.664 148.893 112.965 148.893 112.048V107.232H150.349ZM154.264 104.16V116H152.808V104.16H154.264ZM156.201 111.584C156.201 110.688 156.383 109.904 156.745 109.232C157.108 108.549 157.604 108.021 158.233 107.648C158.873 107.275 159.583 107.088 160.361 107.088C161.129 107.088 161.796 107.253 162.361 107.584C162.927 107.915 163.348 108.331 163.625 108.832V107.232H165.097V116H163.625V114.368C163.337 114.88 162.905 115.307 162.329 115.648C161.764 115.979 161.103 116.144 160.345 116.144C159.567 116.144 158.863 115.952 158.233 115.568C157.604 115.184 157.108 114.645 156.745 113.952C156.383 113.259 156.201 112.469 156.201 111.584ZM163.625 111.6C163.625 110.939 163.492 110.363 163.225 109.872C162.959 109.381 162.596 109.008 162.137 108.752C161.689 108.485 161.193 108.352 160.649 108.352C160.105 108.352 159.609 108.48 159.161 108.736C158.713 108.992 158.356 109.365 158.089 109.856C157.823 110.347 157.689 110.923 157.689 111.584C157.689 112.256 157.823 112.843 158.089 113.344C158.356 113.835 158.713 114.213 159.161 114.48C159.609 114.736 160.105 114.864 160.649 114.864C161.193 114.864 161.689 114.736 162.137 114.48C162.596 114.213 162.959 113.835 163.225 113.344C163.492 112.843 163.625 112.261 163.625 111.6ZM169.014 108.656C169.27 108.155 169.632 107.765 170.102 107.488C170.582 107.211 171.163 107.072 171.846 107.072V108.576H171.462C169.83 108.576 169.014 109.461 169.014 111.232V116H167.558V107.232H169.014V108.656ZM183.824 114.784C184.624 114.784 185.312 114.608 185.888 114.256C186.475 113.904 186.923 113.403 187.232 112.752H188.96C188.555 113.819 187.899 114.645 186.992 115.232C186.086 115.808 185.03 116.096 183.824 116.096C182.566 116.096 181.456 115.749 180.496 115.056C179.536 114.363 178.875 113.435 178.512 112.272H176.96V111.248H178.288C178.256 110.971 178.24 110.693 178.24 110.416C178.24 110.149 178.256 109.888 178.288 109.632H176.96V108.624H178.496C178.731 107.845 179.104 107.163 179.616 106.576C180.139 105.979 180.758 105.52 181.472 105.2C182.198 104.869 182.982 104.704 183.824 104.704C185.03 104.704 186.086 104.997 186.992 105.584C187.899 106.171 188.555 107.003 188.96 108.08H187.232C186.923 107.419 186.48 106.912 185.904 106.56C185.328 106.208 184.635 106.032 183.824 106.032C182.928 106.032 182.144 106.261 181.472 106.72C180.811 107.179 180.336 107.813 180.048 108.624H183.824V109.632H179.792C179.76 109.888 179.744 110.149 179.744 110.416C179.744 110.725 179.766 111.003 179.808 111.248H183.824V112.272H180.064C180.374 113.061 180.859 113.68 181.52 114.128C182.192 114.565 182.96 114.784 183.824 114.784ZM196.793 114.784C197.593 114.784 198.281 114.608 198.857 114.256C199.444 113.904 199.892 113.403 200.201 112.752H201.929C201.524 113.819 200.868 114.645 199.961 115.232C199.054 115.808 197.998 116.096 196.793 116.096C195.534 116.096 194.425 115.749 193.465 115.056C192.505 114.363 191.844 113.435 191.481 112.272H189.929V111.248H191.257C191.225 110.971 191.209 110.693 191.209 110.416C191.209 110.149 191.225 109.888 191.257 109.632H189.929V108.624H191.465C191.7 107.845 192.073 107.163 192.585 106.576C193.108 105.979 193.726 105.52 194.441 105.2C195.166 104.869 195.95 104.704 196.793 104.704C197.998 104.704 199.054 104.997 199.961 105.584C200.868 106.171 201.524 107.003 201.929 108.08H200.201C199.892 107.419 199.449 106.912 198.873 106.56C198.297 106.208 197.604 106.032 196.793 106.032C195.897 106.032 195.113 106.261 194.441 106.72C193.78 107.179 193.305 107.813 193.017 108.624H196.793V109.632H192.761C192.729 109.888 192.713 110.149 192.713 110.416C192.713 110.725 192.734 111.003 192.777 111.248H196.793V112.272H193.033C193.342 113.061 193.828 113.68 194.489 114.128C195.161 114.565 195.929 114.784 196.793 114.784Z" fill="black"/>
<g filter="url(#filter2_i_7_2125)">
<g clip-path="url(#clip0_7_2125)">
<rect x="32.7659" y="21" width="21.0213" height="19" rx="9.5" fill="#98C487"/>
<g filter="url(#filter3_d_7_2125)">
<path d="M48.2552 26.9064L47.2523 26L43.2765 29.5936L39.3006 26L38.2977 26.9064L42.2736 30.5L38.2977 34.0936L39.3006 35L43.2765 31.4064L47.2523 35L48.2552 34.0936L44.2793 30.5L48.2552 26.9064Z" fill="#F6F8ED"/>
</g>
</g>
</g>
<g filter="url(#filter4_i_7_2125)">
<g clip-path="url(#clip1_7_2125)">
<rect x="32.7659" y="100" width="21.0213" height="19" rx="9.5" fill="#98C487"/>
<g filter="url(#filter5_d_7_2125)">
<path d="M48.2552 105.906L47.2523 105L43.2765 108.594L39.3006 105L38.2977 105.906L42.2736 109.5L38.2977 113.094L39.3006 114L43.2765 110.406L47.2523 114L48.2552 113.094L44.2793 109.5L48.2552 105.906Z" fill="#F6F8ED"/>
</g>
</g>
</g>
<defs>
<filter id="filter0_d_7_2125" x="0" y="0" width="268" height="68" filterUnits="userSpaceOnUse" color-interpolation-filters="sRGB">
<feFlood flood-opacity="0" result="BackgroundImageFix"/>
<feColorMatrix in="SourceAlpha" type="matrix" values="0 0 0 0 0 0 0 0 0 0 0 0 0 0 0 0 0 0 127 0" result="hardAlpha"/>
<feOffset dy="4"/>
<feGaussianBlur stdDeviation="2"/>
<feComposite in2="hardAlpha" operator="out"/>
<feColorMatrix type="matrix" values="0 0 0 0 0 0 0 0 0 0 0 0 0 0 0 0 0 0 0.25 0"/>
<feBlend mode="normal" in2="BackgroundImageFix" result="effect1_dropShadow_7_2125"/>
<feBlend mode="normal" in="SourceGraphic" in2="effect1_dropShadow_7_2125" result="shape"/>
</filter>
<filter id="filter1_d_7_2125" x="0" y="80" width="268" height="68" filterUnits="userSpaceOnUse" color-interpolation-filters="sRGB">
<feFlood flood-opacity="0" result="BackgroundImageFix"/>
<feColorMatrix in="SourceAlpha" type="matrix" values="0 0 0 0 0 0 0 0 0 0 0 0 0 0 0 0 0 0 127 0" result="hardAlpha"/>
<feOffset dy="4"/>
<feGaussianBlur stdDeviation="2"/>
<feComposite in2="hardAlpha" operator="out"/>
<feColorMatrix type="matrix" values="0 0 0 0 0 0 0 0 0 0 0 0 0 0 0 0 0 0 0.25 0"/>
<feBlend mode="normal" in2="BackgroundImageFix" result="effect1_dropShadow_7_2125"/>
<feBlend mode="normal" in="SourceGraphic" in2="effect1_dropShadow_7_2125" result="shape"/>
</filter>
<filter id="filter2_i_7_2125" x="32.7659" y="21" width="21.0212" height="23" filterUnits="userSpaceOnUse" color-interpolation-filters="sRGB">
<feFlood flood-opacity="0" result="BackgroundImageFix"/>
<feBlend mode="normal" in="SourceGraphic" in2="BackgroundImageFix" result="shape"/>
<feColorMatrix in="SourceAlpha" type="matrix" values="0 0 0 0 0 0 0 0 0 0 0 0 0 0 0 0 0 0 127 0" result="hardAlpha"/>
<feOffset dy="4"/>
<feGaussianBlur stdDeviation="2"/>
<feComposite in2="hardAlpha" operator="arithmetic" k2="-1" k3="1"/>
<feColorMatrix type="matrix" values="0 0 0 0 0 0 0 0 0 0 0 0 0 0 0 0 0 0 0.25 0"/>
<feBlend mode="normal" in2="shape" result="effect1_innerShadow_7_2125"/>
</filter>
<filter id="filter3_d_7_2125" x="34.2977" y="26" width="17.9574" height="17" filterUnits="userSpaceOnUse" color-interpolation-filters="sRGB">
<feFlood flood-opacity="0" result="BackgroundImageFix"/>
<feColorMatrix in="SourceAlpha" type="matrix" values="0 0 0 0 0 0 0 0 0 0 0 0 0 0 0 0 0 0 127 0" result="hardAlpha"/>
<feOffset dy="4"/>
<feGaussianBlur stdDeviation="2"/>
<feComposite in2="hardAlpha" operator="out"/>
<feColorMatrix type="matrix" values="0 0 0 0 0 0 0 0 0 0 0 0 0 0 0 0 0 0 0.25 0"/>
<feBlend mode="normal" in2="BackgroundImageFix" result="effect1_dropShadow_7_2125"/>
<feBlend mode="normal" in="SourceGraphic" in2="effect1_dropShadow_7_2125" result="shape"/>
</filter>
<filter id="filter4_i_7_2125" x="32.7659" y="100" width="21.0212" height="23" filterUnits="userSpaceOnUse" color-interpolation-filters="sRGB">
<feFlood flood-opacity="0" result="BackgroundImageFix"/>
<feBlend mode="normal" in="SourceGraphic" in2="BackgroundImageFix" result="shape"/>
<feColorMatrix in="SourceAlpha" type="matrix" values="0 0 0 0 0 0 0 0 0 0 0 0 0 0 0 0 0 0 127 0" result="hardAlpha"/>
<feOffset dy="4"/>
<feGaussianBlur stdDeviation="2"/>
<feComposite in2="hardAlpha" operator="arithmetic" k2="-1" k3="1"/>
<feColorMatrix type="matrix" values="0 0 0 0 0 0 0 0 0 0 0 0 0 0 0 0 0 0 0.25 0"/>
<feBlend mode="normal" in2="shape" result="effect1_innerShadow_7_2125"/>
</filter>
<filter id="filter5_d_7_2125" x="34.2977" y="105" width="17.9574" height="17" filterUnits="userSpaceOnUse" color-interpolation-filters="sRGB">
<feFlood flood-opacity="0" result="BackgroundImageFix"/>
<feColorMatrix in="SourceAlpha" type="matrix" values="0 0 0 0 0 0 0 0 0 0 0 0 0 0 0 0 0 0 127 0" result="hardAlpha"/>
<feOffset dy="4"/>
<feGaussianBlur stdDeviation="2"/>
<feComposite in2="hardAlpha" operator="out"/>
<feColorMatrix type="matrix" values="0 0 0 0 0 0 0 0 0 0 0 0 0 0 0 0 0 0 0.25 0"/>
<feBlend mode="normal" in2="BackgroundImageFix" result="effect1_dropShadow_7_2125"/>
<feBlend mode="normal" in="SourceGraphic" in2="effect1_dropShadow_7_2125" result="shape"/>
</filter>
<linearGradient id="paint0_linear_7_2125" x1="259" y1="1.96174e-05" x2="13" y2="60" gradientUnits="userSpaceOnUse">
<stop stop-color="#F6F8ED"/>
<stop offset="1" stop-color="#E7F5D9"/>
</linearGradient>
<linearGradient id="paint1_linear_7_2125" x1="259" y1="78" x2="11.5" y2="138.5" gradientUnits="userSpaceOnUse">
<stop stop-color="#F6F8ED"/>
<stop offset="1" stop-color="#E7F5D9"/>
</linearGradient>
<clipPath id="clip0_7_2125">
<rect x="32.7659" y="21" width="21.0213" height="19" rx="9.5" fill="white"/>
</clipPath>
<clipPath id="clip1_7_2125">
<rect x="32.7659" y="100" width="21.0213" height="19" rx="9.5" fill="white"/>
</clipPath>
</defs>
</svg>
