<svg width="268" height="148" viewBox="0 0 268 148" fill="none" xmlns="http://www.w3.org/2000/svg">
<g filter="url(#filter0_d_7_1980)">
<rect x="144" width="120" height="60" rx="15" fill="url(#paint0_linear_7_1980)"/>
<rect x="144.5" y="0.5" width="119" height="59" rx="14.5" stroke="#F6F8ED"/>
</g>
<g filter="url(#filter1_d_7_1980)">
<rect x="4" width="120" height="60" rx="15" fill="url(#paint1_linear_7_1980)"/>
<rect x="4.5" y="0.5" width="119" height="59" rx="14.5" stroke="#F6F8ED"/>
</g>
<path d="M198.446 31.6C198.446 30.6933 198.627 29.904 198.99 29.232C199.352 28.5493 199.854 28.0213 200.494 27.648C201.144 27.2747 201.886 27.088 202.718 27.088C203.795 27.088 204.68 27.3493 205.374 27.872C206.078 28.3947 206.542 29.12 206.766 30.048H205.198C205.048 29.5147 204.755 29.0933 204.318 28.784C203.891 28.4747 203.358 28.32 202.718 28.32C201.886 28.32 201.214 28.608 200.702 29.184C200.19 29.7493 199.934 30.5547 199.934 31.6C199.934 32.656 200.19 33.472 200.702 34.048C201.214 34.624 201.886 34.912 202.718 34.912C203.358 34.912 203.891 34.7627 204.318 34.464C204.744 34.1653 205.038 33.7387 205.198 33.184H206.766C206.531 34.08 206.062 34.8 205.358 35.344C204.654 35.8773 203.774 36.144 202.718 36.144C201.886 36.144 201.144 35.9573 200.494 35.584C199.854 35.2107 199.352 34.6827 198.99 34C198.627 33.3173 198.446 32.5173 198.446 31.6ZM216.709 31.28C216.709 31.5573 216.693 31.8507 216.661 32.16H209.653C209.706 33.024 209.999 33.7013 210.533 34.192C211.077 34.672 211.733 34.912 212.501 34.912C213.13 34.912 213.653 34.768 214.069 34.48C214.495 34.1813 214.794 33.7867 214.965 33.296H216.533C216.298 34.1387 215.829 34.8267 215.125 35.36C214.421 35.8827 213.546 36.144 212.501 36.144C211.669 36.144 210.922 35.9573 210.261 35.584C209.61 35.2107 209.098 34.6827 208.725 34C208.351 33.3067 208.165 32.5067 208.165 31.6C208.165 30.6933 208.346 29.8987 208.709 29.216C209.071 28.5333 209.578 28.0107 210.229 27.648C210.89 27.2747 211.647 27.088 212.501 27.088C213.333 27.088 214.069 27.2693 214.709 27.632C215.349 27.9947 215.839 28.496 216.181 29.136C216.533 29.7653 216.709 30.48 216.709 31.28ZM215.205 30.976C215.205 30.4213 215.082 29.9467 214.837 29.552C214.591 29.1467 214.255 28.8427 213.829 28.64C213.413 28.4267 212.949 28.32 212.437 28.32C211.701 28.32 211.071 28.5547 210.549 29.024C210.037 29.4933 209.743 30.144 209.669 30.976H215.205ZM220.086 24.16V36H218.63V24.16H220.086ZM230.568 31.28C230.568 31.5573 230.552 31.8507 230.52 32.16H223.512C223.565 33.024 223.859 33.7013 224.392 34.192C224.936 34.672 225.592 34.912 226.36 34.912C226.989 34.912 227.512 34.768 227.928 34.48C228.355 34.1813 228.653 33.7867 228.824 33.296H230.392C230.157 34.1387 229.688 34.8267 228.984 35.36C228.28 35.8827 227.405 36.144 226.36 36.144C225.528 36.144 224.781 35.9573 224.12 35.584C223.469 35.2107 222.957 34.6827 222.584 34C222.211 33.3067 222.024 32.5067 222.024 31.6C222.024 30.6933 222.205 29.8987 222.568 29.216C222.931 28.5333 223.437 28.0107 224.088 27.648C224.749 27.2747 225.507 27.088 226.36 27.088C227.192 27.088 227.928 27.2693 228.568 27.632C229.208 27.9947 229.699 28.496 230.04 29.136C230.392 29.7653 230.568 30.48 230.568 31.28ZM229.064 30.976C229.064 30.4213 228.941 29.9467 228.696 29.552C228.451 29.1467 228.115 28.8427 227.688 28.64C227.272 28.4267 226.808 28.32 226.296 28.32C225.56 28.32 224.931 28.5547 224.408 29.024C223.896 29.4933 223.603 30.144 223.528 30.976H229.064ZM233.946 28.656C234.202 28.1547 234.564 27.7653 235.034 27.488C235.514 27.2107 236.095 27.072 236.778 27.072V28.576H236.394C234.762 28.576 233.946 29.4613 233.946 31.232V36H232.49V27.232H233.946V28.656ZM246.011 27.232L240.731 40.128H239.227L240.955 35.904L237.419 27.232H239.035L241.787 34.336L244.507 27.232H246.011Z" fill="black"/>
<path d="M77.4586 31.28C77.4586 31.5573 77.4426 31.8507 77.4106 32.16H70.4026C70.4559 33.024 70.7492 33.7013 71.2826 34.192C71.8266 34.672 72.4826 34.912 73.2506 34.912C73.8799 34.912 74.4026 34.768 74.8186 34.48C75.2452 34.1813 75.5439 33.7867 75.7146 33.296H77.2826C77.0479 34.1387 76.5786 34.8267 75.8746 35.36C75.1706 35.8827 74.2959 36.144 73.2506 36.144C72.4186 36.144 71.6719 35.9573 71.0106 35.584C70.3599 35.2107 69.8479 34.6827 69.4746 34C69.1012 33.3067 68.9146 32.5067 68.9146 31.6C68.9146 30.6933 69.0959 29.8987 69.4586 29.216C69.8212 28.5333 70.3279 28.0107 70.9786 27.648C71.6399 27.2747 72.3972 27.088 73.2506 27.088C74.0826 27.088 74.8186 27.2693 75.4586 27.632C76.0986 27.9947 76.5892 28.496 76.9306 29.136C77.2826 29.7653 77.4586 30.48 77.4586 31.28ZM75.9546 30.976C75.9546 30.4213 75.8319 29.9467 75.5866 29.552C75.3412 29.1467 75.0052 28.8427 74.5786 28.64C74.1626 28.4267 73.6986 28.32 73.1866 28.32C72.4506 28.32 71.8212 28.5547 71.2986 29.024C70.7866 29.4933 70.4932 30.144 70.4186 30.976H75.9546ZM82.9964 27.088C83.7538 27.088 84.4151 27.2533 84.9804 27.584C85.5564 27.9147 85.9831 28.3307 86.2604 28.832V27.232H87.7324V36.192C87.7324 36.992 87.5618 37.7013 87.2204 38.32C86.8791 38.9493 86.3884 39.44 85.7484 39.792C85.1191 40.144 84.3831 40.32 83.5404 40.32C82.3884 40.32 81.4284 40.048 80.6604 39.504C79.8924 38.96 79.4391 38.2187 79.3004 37.28H80.7404C80.9004 37.8133 81.2311 38.24 81.7324 38.56C82.2338 38.8907 82.8364 39.056 83.5404 39.056C84.3404 39.056 84.9911 38.8053 85.4924 38.304C86.0044 37.8027 86.2604 37.0987 86.2604 36.192V34.352C85.9724 34.864 85.5458 35.2907 84.9804 35.632C84.4151 35.9733 83.7538 36.144 82.9964 36.144C82.2178 36.144 81.5084 35.952 80.8684 35.568C80.2391 35.184 79.7431 34.6453 79.3804 33.952C79.0178 33.2587 78.8364 32.4693 78.8364 31.584C78.8364 30.688 79.0178 29.904 79.3804 29.232C79.7431 28.5493 80.2391 28.0213 80.8684 27.648C81.5084 27.2747 82.2178 27.088 82.9964 27.088ZM86.2604 31.6C86.2604 30.9387 86.1271 30.3627 85.8604 29.872C85.5938 29.3813 85.2311 29.008 84.7724 28.752C84.3244 28.4853 83.8284 28.352 83.2844 28.352C82.7404 28.352 82.2444 28.48 81.7964 28.736C81.3484 28.992 80.9911 29.3653 80.7244 29.856C80.4578 30.3467 80.3244 30.9227 80.3244 31.584C80.3244 32.256 80.4578 32.8427 80.7244 33.344C80.9911 33.8347 81.3484 34.2133 81.7964 34.48C82.2444 34.736 82.7404 34.864 83.2844 34.864C83.8284 34.864 84.3244 34.736 84.7724 34.48C85.2311 34.2133 85.5938 33.8347 85.8604 33.344C86.1271 32.8427 86.2604 32.2613 86.2604 31.6ZM93.8089 27.088C94.5663 27.088 95.2276 27.2533 95.7929 27.584C96.3689 27.9147 96.7956 28.3307 97.0729 28.832V27.232H98.5449V36.192C98.5449 36.992 98.3743 37.7013 98.0329 38.32C97.6916 38.9493 97.2009 39.44 96.5609 39.792C95.9316 40.144 95.1956 40.32 94.3529 40.32C93.2009 40.32 92.2409 40.048 91.4729 39.504C90.7049 38.96 90.2516 38.2187 90.1129 37.28H91.5529C91.7129 37.8133 92.0436 38.24 92.5449 38.56C93.0463 38.8907 93.6489 39.056 94.3529 39.056C95.1529 39.056 95.8036 38.8053 96.3049 38.304C96.8169 37.8027 97.0729 37.0987 97.0729 36.192V34.352C96.7849 34.864 96.3583 35.2907 95.7929 35.632C95.2276 35.9733 94.5663 36.144 93.8089 36.144C93.0303 36.144 92.3209 35.952 91.6809 35.568C91.0516 35.184 90.5556 34.6453 90.1929 33.952C89.8303 33.2587 89.6489 32.4693 89.6489 31.584C89.6489 30.688 89.8303 29.904 90.1929 29.232C90.5556 28.5493 91.0516 28.0213 91.6809 27.648C92.3209 27.2747 93.0303 27.088 93.8089 27.088ZM97.0729 31.6C97.0729 30.9387 96.9396 30.3627 96.6729 29.872C96.4063 29.3813 96.0436 29.008 95.5849 28.752C95.1369 28.4853 94.6409 28.352 94.0969 28.352C93.5529 28.352 93.0569 28.48 92.6089 28.736C92.1609 28.992 91.8036 29.3653 91.5369 29.856C91.2703 30.3467 91.1369 30.9227 91.1369 31.584C91.1369 32.256 91.2703 32.8427 91.5369 33.344C91.8036 33.8347 92.1609 34.2133 92.6089 34.48C93.0569 34.736 93.5529 34.864 94.0969 34.864C94.6409 34.864 95.1369 34.736 95.5849 34.48C96.0436 34.2133 96.4063 33.8347 96.6729 33.344C96.9396 32.8427 97.0729 32.2613 97.0729 31.6Z" fill="black"/>
<g filter="url(#filter2_i_7_1980)">
<g clip-path="url(#clip0_7_1980)">
<rect x="23" y="21" width="19" height="19" rx="9.5" fill="#98C487"/>
<g filter="url(#filter3_d_7_1980)">
<path d="M37 26.9064L36.0936 26L32.5 29.5936L28.9064 26L28 26.9064L31.5936 30.5L28 34.0936L28.9064 35L32.5 31.4064L36.0936 35L37 34.0936L33.4064 30.5L37 26.9064Z" fill="#F6F8ED"/>
</g>
</g>
</g>
<g filter="url(#filter4_i_7_1980)">
<g clip-path="url(#clip1_7_1980)">
<rect x="163" y="21" width="19" height="19" rx="9.5" fill="#98C487"/>
</g>
</g>
<g filter="url(#filter5_d_7_1980)">
<rect x="144" y="80" width="120" height="60" rx="15" fill="url(#paint2_linear_7_1980)"/>
<rect x="144.5" y="80.5" width="119" height="59" rx="14.5" stroke="#F6F8ED"/>
</g>
<g filter="url(#filter6_d_7_1980)">
<rect x="4" y="80" width="120" height="60" rx="15" fill="url(#paint3_linear_7_1980)"/>
<rect x="4.5" y="80.5" width="119" height="59" rx="14.5" stroke="#F6F8ED"/>
</g>
<path d="M210.176 107.072C211.243 107.072 212.107 107.397 212.768 108.048C213.429 108.688 213.76 109.616 213.76 110.832V116H212.32V111.04C212.32 110.165 212.101 109.499 211.664 109.04C211.227 108.571 210.629 108.336 209.872 108.336C209.104 108.336 208.491 108.576 208.032 109.056C207.584 109.536 207.36 110.235 207.36 111.152V116H205.904V107.232H207.36V108.48C207.648 108.032 208.037 107.685 208.528 107.44C209.029 107.195 209.579 107.072 210.176 107.072ZM223.914 107.232V116H222.458V114.704C222.181 115.152 221.792 115.504 221.29 115.76C220.8 116.005 220.256 116.128 219.658 116.128C218.976 116.128 218.362 115.989 217.818 115.712C217.274 115.424 216.842 114.997 216.522 114.432C216.213 113.867 216.058 113.179 216.058 112.368V107.232H217.498V112.176C217.498 113.04 217.717 113.707 218.154 114.176C218.592 114.635 219.189 114.864 219.946 114.864C220.725 114.864 221.338 114.624 221.786 114.144C222.234 113.664 222.458 112.965 222.458 112.048V107.232H223.914ZM228.149 108.432V113.6C228.149 114.027 228.239 114.331 228.421 114.512C228.602 114.683 228.917 114.768 229.365 114.768H230.437V116H229.125C228.314 116 227.706 115.813 227.301 115.44C226.895 115.067 226.693 114.453 226.693 113.6V108.432H225.557V107.232H226.693V105.024H228.149V107.232H230.437V108.432H228.149ZM235.305 116.144C234.633 116.144 234.03 116.032 233.497 115.808C232.963 115.573 232.542 115.253 232.233 114.848C231.923 114.432 231.753 113.957 231.721 113.424H233.225C233.267 113.861 233.47 114.219 233.833 114.496C234.206 114.773 234.691 114.912 235.289 114.912C235.843 114.912 236.281 114.789 236.601 114.544C236.921 114.299 237.081 113.989 237.081 113.616C237.081 113.232 236.91 112.949 236.569 112.768C236.227 112.576 235.699 112.389 234.985 112.208C234.334 112.037 233.801 111.867 233.385 111.696C232.979 111.515 232.627 111.253 232.329 110.912C232.041 110.56 231.897 110.101 231.897 109.536C231.897 109.088 232.03 108.677 232.297 108.304C232.563 107.931 232.942 107.637 233.433 107.424C233.923 107.2 234.483 107.088 235.113 107.088C236.083 107.088 236.867 107.333 237.465 107.824C238.062 108.315 238.382 108.987 238.425 109.84H236.969C236.937 109.381 236.75 109.013 236.409 108.736C236.078 108.459 235.63 108.32 235.065 108.32C234.542 108.32 234.126 108.432 233.817 108.656C233.507 108.88 233.353 109.173 233.353 109.536C233.353 109.824 233.443 110.064 233.625 110.256C233.817 110.437 234.051 110.587 234.329 110.704C234.617 110.811 235.011 110.933 235.513 111.072C236.142 111.243 236.654 111.413 237.049 111.584C237.443 111.744 237.779 111.989 238.057 112.32C238.345 112.651 238.494 113.083 238.505 113.616C238.505 114.096 238.371 114.528 238.105 114.912C237.838 115.296 237.459 115.6 236.969 115.824C236.489 116.037 235.934 116.144 235.305 116.144Z" fill="black"/>
<path d="M77.4586 111.28C77.4586 111.557 77.4426 111.851 77.4106 112.16H70.4026C70.4559 113.024 70.7492 113.701 71.2826 114.192C71.8266 114.672 72.4826 114.912 73.2506 114.912C73.8799 114.912 74.4026 114.768 74.8186 114.48C75.2452 114.181 75.5439 113.787 75.7146 113.296H77.2826C77.0479 114.139 76.5786 114.827 75.8746 115.36C75.1706 115.883 74.2959 116.144 73.2506 116.144C72.4186 116.144 71.6719 115.957 71.0106 115.584C70.3599 115.211 69.8479 114.683 69.4746 114C69.1012 113.307 68.9146 112.507 68.9146 111.6C68.9146 110.693 69.0959 109.899 69.4586 109.216C69.8212 108.533 70.3279 108.011 70.9786 107.648C71.6399 107.275 72.3972 107.088 73.2506 107.088C74.0826 107.088 74.8186 107.269 75.4586 107.632C76.0986 107.995 76.5892 108.496 76.9306 109.136C77.2826 109.765 77.4586 110.48 77.4586 111.28ZM75.9546 110.976C75.9546 110.421 75.8319 109.947 75.5866 109.552C75.3412 109.147 75.0052 108.843 74.5786 108.64C74.1626 108.427 73.6986 108.32 73.1866 108.32C72.4506 108.32 71.8212 108.555 71.2986 109.024C70.7866 109.493 70.4932 110.144 70.4186 110.976H75.9546ZM82.9964 107.088C83.7538 107.088 84.4151 107.253 84.9804 107.584C85.5564 107.915 85.9831 108.331 86.2604 108.832V107.232H87.7324V116.192C87.7324 116.992 87.5618 117.701 87.2204 118.32C86.8791 118.949 86.3884 119.44 85.7484 119.792C85.1191 120.144 84.3831 120.32 83.5404 120.32C82.3884 120.32 81.4284 120.048 80.6604 119.504C79.8924 118.96 79.4391 118.219 79.3004 117.28H80.7404C80.9004 117.813 81.2311 118.24 81.7324 118.56C82.2338 118.891 82.8364 119.056 83.5404 119.056C84.3404 119.056 84.9911 118.805 85.4924 118.304C86.0044 117.803 86.2604 117.099 86.2604 116.192V114.352C85.9724 114.864 85.5458 115.291 84.9804 115.632C84.4151 115.973 83.7538 116.144 82.9964 116.144C82.2178 116.144 81.5084 115.952 80.8684 115.568C80.2391 115.184 79.7431 114.645 79.3804 113.952C79.0178 113.259 78.8364 112.469 78.8364 111.584C78.8364 110.688 79.0178 109.904 79.3804 109.232C79.7431 108.549 80.2391 108.021 80.8684 107.648C81.5084 107.275 82.2178 107.088 82.9964 107.088ZM86.2604 111.6C86.2604 110.939 86.1271 110.363 85.8604 109.872C85.5938 109.381 85.2311 109.008 84.7724 108.752C84.3244 108.485 83.8284 108.352 83.2844 108.352C82.7404 108.352 82.2444 108.48 81.7964 108.736C81.3484 108.992 80.9911 109.365 80.7244 109.856C80.4578 110.347 80.3244 110.923 80.3244 111.584C80.3244 112.256 80.4578 112.843 80.7244 113.344C80.9911 113.835 81.3484 114.213 81.7964 114.48C82.2444 114.736 82.7404 114.864 83.2844 114.864C83.8284 114.864 84.3244 114.736 84.7724 114.48C85.2311 114.213 85.5938 113.835 85.8604 113.344C86.1271 112.843 86.2604 112.261 86.2604 111.6ZM93.8089 107.088C94.5663 107.088 95.2276 107.253 95.7929 107.584C96.3689 107.915 96.7956 108.331 97.0729 108.832V107.232H98.5449V116.192C98.5449 116.992 98.3743 117.701 98.0329 118.32C97.6916 118.949 97.2009 119.44 96.5609 119.792C95.9316 120.144 95.1956 120.32 94.3529 120.32C93.2009 120.32 92.2409 120.048 91.4729 119.504C90.7049 118.96 90.2516 118.219 90.1129 117.28H91.5529C91.7129 117.813 92.0436 118.24 92.5449 118.56C93.0463 118.891 93.6489 119.056 94.3529 119.056C95.1529 119.056 95.8036 118.805 96.3049 118.304C96.8169 117.803 97.0729 117.099 97.0729 116.192V114.352C96.7849 114.864 96.3583 115.291 95.7929 115.632C95.2276 115.973 94.5663 116.144 93.8089 116.144C93.0303 116.144 92.3209 115.952 91.6809 115.568C91.0516 115.184 90.5556 114.645 90.1929 113.952C89.8303 113.259 89.6489 112.469 89.6489 111.584C89.6489 110.688 89.8303 109.904 90.1929 109.232C90.5556 108.549 91.0516 108.021 91.6809 107.648C92.3209 107.275 93.0303 107.088 93.8089 107.088ZM97.0729 111.6C97.0729 110.939 96.9396 110.363 96.6729 109.872C96.4063 109.381 96.0436 109.008 95.5849 108.752C95.1369 108.485 94.6409 108.352 94.0969 108.352C93.5529 108.352 93.0569 108.48 92.6089 108.736C92.1609 108.992 91.8036 109.365 91.5369 109.856C91.2703 110.347 91.1369 110.923 91.1369 111.584C91.1369 112.256 91.2703 112.843 91.5369 113.344C91.8036 113.835 92.1609 114.213 92.6089 114.48C93.0569 114.736 93.5529 114.864 94.0969 114.864C94.6409 114.864 95.1369 114.736 95.5849 114.48C96.0436 114.213 96.4063 113.835 96.6729 113.344C96.9396 112.843 97.0729 112.261 97.0729 111.6Z" fill="black"/>
<path d="M159 80.5H183.5V139.5H159C150.992 139.5 144.5 133.008 144.5 125V95C144.5 86.9919 150.992 80.5 159 80.5Z" stroke="#F6F8ED"/>
<g filter="url(#filter7_i_7_1980)">
<g clip-path="url(#clip2_7_1980)">
<rect x="23" y="100" width="19" height="19" rx="9.5" fill="#98C487"/>
<g filter="url(#filter8_d_7_1980)">
<path d="M37 105.906L36.0936 105L32.5 108.594L28.9064 105L28 105.906L31.5936 109.5L28 113.094L28.9064 114L32.5 110.406L36.0936 114L37 113.094L33.4064 109.5L37 105.906Z" fill="#F6F8ED"/>
</g>
</g>
</g>
<g filter="url(#filter9_i_7_1980)">
<g clip-path="url(#clip3_7_1980)">
<rect x="163" y="100" width="19" height="19" rx="9.5" fill="#98C487"/>
</g>
</g>
<defs>
<filter id="filter0_d_7_1980" x="140" y="0" width="128" height="68" filterUnits="userSpaceOnUse" color-interpolation-filters="sRGB">
<feFlood flood-opacity="0" result="BackgroundImageFix"/>
<feColorMatrix in="SourceAlpha" type="matrix" values="0 0 0 0 0 0 0 0 0 0 0 0 0 0 0 0 0 0 127 0" result="hardAlpha"/>
<feOffset dy="4"/>
<feGaussianBlur stdDeviation="2"/>
<feComposite in2="hardAlpha" operator="out"/>
<feColorMatrix type="matrix" values="0 0 0 0 0 0 0 0 0 0 0 0 0 0 0 0 0 0 0.25 0"/>
<feBlend mode="normal" in2="BackgroundImageFix" result="effect1_dropShadow_7_1980"/>
<feBlend mode="normal" in="SourceGraphic" in2="effect1_dropShadow_7_1980" result="shape"/>
</filter>
<filter id="filter1_d_7_1980" x="0" y="0" width="128" height="68" filterUnits="userSpaceOnUse" color-interpolation-filters="sRGB">
<feFlood flood-opacity="0" result="BackgroundImageFix"/>
<feColorMatrix in="SourceAlpha" type="matrix" values="0 0 0 0 0 0 0 0 0 0 0 0 0 0 0 0 0 0 127 0" result="hardAlpha"/>
<feOffset dy="4"/>
<feGaussianBlur stdDeviation="2"/>
<feComposite in2="hardAlpha" operator="out"/>
<feColorMatrix type="matrix" values="0 0 0 0 0 0 0 0 0 0 0 0 0 0 0 0 0 0 0.25 0"/>
<feBlend mode="normal" in2="BackgroundImageFix" result="effect1_dropShadow_7_1980"/>
<feBlend mode="normal" in="SourceGraphic" in2="effect1_dropShadow_7_1980" result="shape"/>
</filter>
<filter id="filter2_i_7_1980" x="23" y="21" width="19" height="23" filterUnits="userSpaceOnUse" color-interpolation-filters="sRGB">
<feFlood flood-opacity="0" result="BackgroundImageFix"/>
<feBlend mode="normal" in="SourceGraphic" in2="BackgroundImageFix" result="shape"/>
<feColorMatrix in="SourceAlpha" type="matrix" values="0 0 0 0 0 0 0 0 0 0 0 0 0 0 0 0 0 0 127 0" result="hardAlpha"/>
<feOffset dy="4"/>
<feGaussianBlur stdDeviation="2"/>
<feComposite in2="hardAlpha" operator="arithmetic" k2="-1" k3="1"/>
<feColorMatrix type="matrix" values="0 0 0 0 0 0 0 0 0 0 0 0 0 0 0 0 0 0 0.25 0"/>
<feBlend mode="normal" in2="shape" result="effect1_innerShadow_7_1980"/>
</filter>
<filter id="filter3_d_7_1980" x="24" y="26" width="17" height="17" filterUnits="userSpaceOnUse" color-interpolation-filters="sRGB">
<feFlood flood-opacity="0" result="BackgroundImageFix"/>
<feColorMatrix in="SourceAlpha" type="matrix" values="0 0 0 0 0 0 0 0 0 0 0 0 0 0 0 0 0 0 127 0" result="hardAlpha"/>
<feOffset dy="4"/>
<feGaussianBlur stdDeviation="2"/>
<feComposite in2="hardAlpha" operator="out"/>
<feColorMatrix type="matrix" values="0 0 0 0 0 0 0 0 0 0 0 0 0 0 0 0 0 0 0.25 0"/>
<feBlend mode="normal" in2="BackgroundImageFix" result="effect1_dropShadow_7_1980"/>
<feBlend mode="normal" in="SourceGraphic" in2="effect1_dropShadow_7_1980" result="shape"/>
</filter>
<filter id="filter4_i_7_1980" x="163" y="21" width="19" height="23" filterUnits="userSpaceOnUse" color-interpolation-filters="sRGB">
<feFlood flood-opacity="0" result="BackgroundImageFix"/>
<feBlend mode="normal" in="SourceGraphic" in2="BackgroundImageFix" result="shape"/>
<feColorMatrix in="SourceAlpha" type="matrix" values="0 0 0 0 0 0 0 0 0 0 0 0 0 0 0 0 0 0 127 0" result="hardAlpha"/>
<feOffset dy="4"/>
<feGaussianBlur stdDeviation="2"/>
<feComposite in2="hardAlpha" operator="arithmetic" k2="-1" k3="1"/>
<feColorMatrix type="matrix" values="0 0 0 0 0 0 0 0 0 0 0 0 0 0 0 0 0 0 0.25 0"/>
<feBlend mode="normal" in2="shape" result="effect1_innerShadow_7_1980"/>
</filter>
<filter id="filter5_d_7_1980" x="140" y="80" width="128" height="68" filterUnits="userSpaceOnUse" color-interpolation-filters="sRGB">
<feFlood flood-opacity="0" result="BackgroundImageFix"/>
<feColorMatrix in="SourceAlpha" type="matrix" values="0 0 0 0 0 0 0 0 0 0 0 0 0 0 0 0 0 0 127 0" result="hardAlpha"/>
<feOffset dy="4"/>
<feGaussianBlur stdDeviation="2"/>
<feComposite in2="hardAlpha" operator="out"/>
<feColorMatrix type="matrix" values="0 0 0 0 0 0 0 0 0 0 0 0 0 0 0 0 0 0 0.25 0"/>
<feBlend mode="normal" in2="BackgroundImageFix" result="effect1_dropShadow_7_1980"/>
<feBlend mode="normal" in="SourceGraphic" in2="effect1_dropShadow_7_1980" result="shape"/>
</filter>
<filter id="filter6_d_7_1980" x="0" y="80" width="128" height="68" filterUnits="userSpaceOnUse" color-interpolation-filters="sRGB">
<feFlood flood-opacity="0" result="BackgroundImageFix"/>
<feColorMatrix in="SourceAlpha" type="matrix" values="0 0 0 0 0 0 0 0 0 0 0 0 0 0 0 0 0 0 127 0" result="hardAlpha"/>
<feOffset dy="4"/>
<feGaussianBlur stdDeviation="2"/>
<feComposite in2="hardAlpha" operator="out"/>
<feColorMatrix type="matrix" values="0 0 0 0 0 0 0 0 0 0 0 0 0 0 0 0 0 0 0.25 0"/>
<feBlend mode="normal" in2="BackgroundImageFix" result="effect1_dropShadow_7_1980"/>
<feBlend mode="normal" in="SourceGraphic" in2="effect1_dropShadow_7_1980" result="shape"/>
</filter>
<filter id="filter7_i_7_1980" x="23" y="100" width="19" height="23" filterUnits="userSpaceOnUse" color-interpolation-filters="sRGB">
<feFlood flood-opacity="0" result="BackgroundImageFix"/>
<feBlend mode="normal" in="SourceGraphic" in2="BackgroundImageFix" result="shape"/>
<feColorMatrix in="SourceAlpha" type="matrix" values="0 0 0 0 0 0 0 0 0 0 0 0 0 0 0 0 0 0 127 0" result="hardAlpha"/>
<feOffset dy="4"/>
<feGaussianBlur stdDeviation="2"/>
<feComposite in2="hardAlpha" operator="arithmetic" k2="-1" k3="1"/>
<feColorMatrix type="matrix" values="0 0 0 0 0 0 0 0 0 0 0 0 0 0 0 0 0 0 0.25 0"/>
<feBlend mode="normal" in2="shape" result="effect1_innerShadow_7_1980"/>
</filter>
<filter id="filter8_d_7_1980" x="24" y="105" width="17" height="17" filterUnits="userSpaceOnUse" color-interpolation-filters="sRGB">
<feFlood flood-opacity="0" result="BackgroundImageFix"/>
<feColorMatrix in="SourceAlpha" type="matrix" values="0 0 0 0 0 0 0 0 0 0 0 0 0 0 0 0 0 0 127 0" result="hardAlpha"/>
<feOffset dy="4"/>
<feGaussianBlur stdDeviation="2"/>
<feComposite in2="hardAlpha" operator="out"/>
<feColorMatrix type="matrix" values="0 0 0 0 0 0 0 0 0 0 0 0 0 0 0 0 0 0 0.25 0"/>
<feBlend mode="normal" in2="BackgroundImageFix" result="effect1_dropShadow_7_1980"/>
<feBlend mode="normal" in="SourceGraphic" in2="effect1_dropShadow_7_1980" result="shape"/>
</filter>
<filter id="filter9_i_7_1980" x="163" y="100" width="19" height="23" filterUnits="userSpaceOnUse" color-interpolation-filters="sRGB">
<feFlood flood-opacity="0" result="BackgroundImageFix"/>
<feBlend mode="normal" in="SourceGraphic" in2="BackgroundImageFix" result="shape"/>
<feColorMatrix in="SourceAlpha" type="matrix" values="0 0 0 0 0 0 0 0 0 0 0 0 0 0 0 0 0 0 127 0" result="hardAlpha"/>
<feOffset dy="4"/>
<feGaussianBlur stdDeviation="2"/>
<feComposite in2="hardAlpha" operator="arithmetic" k2="-1" k3="1"/>
<feColorMatrix type="matrix" values="0 0 0 0 0 0 0 0 0 0 0 0 0 0 0 0 0 0 0.25 0"/>
<feBlend mode="normal" in2="shape" result="effect1_innerShadow_7_1980"/>
</filter>
<linearGradient id="paint0_linear_7_1980" x1="144" y1="60" x2="257.464" y2="-10.517" gradientUnits="userSpaceOnUse">
<stop stop-color="#E6F8DB"/>
<stop offset="1" stop-color="#F6F8ED"/>
</linearGradient>
<linearGradient id="paint1_linear_7_1980" x1="4" y1="60" x2="117.464" y2="-10.517" gradientUnits="userSpaceOnUse">
<stop stop-color="#E6F8DB"/>
<stop offset="1" stop-color="#F6F8ED"/>
</linearGradient>
<linearGradient id="paint2_linear_7_1980" x1="144" y1="140" x2="257.464" y2="69.483" gradientUnits="userSpaceOnUse">
<stop stop-color="#E6F8DB"/>
<stop offset="1" stop-color="#F6F8ED"/>
</linearGradient>
<linearGradient id="paint3_linear_7_1980" x1="4" y1="140" x2="117.464" y2="69.483" gradientUnits="userSpaceOnUse">
<stop stop-color="#E6F8DB"/>
<stop offset="1" stop-color="#F6F8ED"/>
</linearGradient>
<clipPath id="clip0_7_1980">
<rect x="23" y="21" width="19" height="19" rx="9.5" fill="white"/>
</clipPath>
<clipPath id="clip1_7_1980">
<rect x="163" y="21" width="19" height="19" rx="9.5" fill="white"/>
</clipPath>
<clipPath id="clip2_7_1980">
<rect x="23" y="100" width="19" height="19" rx="9.5" fill="white"/>
</clipPath>
<clipPath id="clip3_7_1980">
<rect x="163" y="100" width="19" height="19" rx="9.5" fill="white"/>
</clipPath>
</defs>
</svg>
